<svg version="1.1" xmlns="http://www.w3.org/2000/svg" style="display: block;" viewBox="0 0 2048 2048" width="1024" height="1024">
<path transform="translate(0,0)" fill="rgb(254,254,254)" d="M 0 0 L 2048 0 L 2048 2048 L 0 2048 L 0 0 z"/>
<path transform="translate(0,0)" fill="rgb(64,63,62)" d="M 1093.12 72.593 C 1112.78 89.7487 1132.3 107.1 1152.99 123.006 C 1170.4 117.871 1187.56 109.922 1204.32 102.927 C 1212.04 99.704 1219.91 95.707 1228.16 94.1126 C 1245.54 113.149 1262.29 132.724 1279.79 151.669 C 1306.25 146.718 1331.7 137.768 1357.93 131.9 C 1370.56 153.064 1389.66 177.814 1404.6 198.139 C 1430.08 195.427 1455.63 192.809 1480.91 188.545 C 1492.54 212.841 1504.81 236.688 1517.28 260.562 L 1596.41 261.71 C 1604.11 287.436 1613.06 312.773 1621.75 338.175 C 1647.4 343.609 1673.49 347.707 1699.38 351.845 A 2250.5 2250.5 0 0 0 1709.55 428.116 C 1734.64 437.145 1760 445.427 1785.08 454.525 A 1540.69 1540.69 0 0 0 1786.12 531.53 C 1810.53 543.831 1835.36 555.464 1859.39 568.47 C 1854.25 592.965 1851.53 620.29 1849.69 645.3 C 1869.87 663.089 1894.1 677.624 1916.71 692.184 C 1912.36 706.723 1894.43 755.538 1895.62 767.072 C 1896.72 777.792 1944.5 812.306 1955.01 820.266 C 1948.87 831.01 1944.02 842.77 1938.82 854.004 C 1932.78 867.041 1926.26 879.97 1921.32 893.472 C 1936.05 915.55 1958.1 935.684 1976.81 954.56 C 1961.73 976.211 1943.1 998.625 1932.48 1022.74 C 1938.65 1045.79 1963 1072.64 1975.62 1094.01 C 1958.22 1113.02 1939.51 1130.29 1924.21 1151.18 C 1923.94 1154.73 1923.44 1158.6 1924.18 1162.12 C 1927.33 1177.07 1948.42 1211.98 1956.6 1227.12 C 1944.28 1237.25 1901.84 1268.71 1896.55 1279.9 C 1894.79 1283.64 1894.59 1287.7 1895.13 1291.75 C 1897.23 1307.43 1912.34 1341.65 1918.52 1358.2 C 1899.51 1369.93 1860.59 1389.85 1849.55 1407.83 C 1849.95 1432.44 1856.72 1457.95 1861.64 1482.04 C 1849.39 1487.54 1798.94 1507.83 1791.97 1515.17 C 1789.23 1518.05 1787.79 1521.76 1787.17 1525.64 C 1784.79 1540.73 1789.04 1577.19 1789.1 1595.39 C 1765.25 1603.59 1741.23 1611.49 1717.64 1620.43 C 1709.11 1644.97 1704.35 1671.69 1698.22 1696.96 C 1673.44 1702.06 1648.37 1707.58 1623.36 1711.25 C 1615.15 1737.64 1603.92 1763.67 1594.23 1789.6 L 1519.05 1790.01 C 1505.36 1812.57 1494.51 1837.84 1482.13 1861.21 C 1455.94 1859.94 1429.89 1855.2 1403.67 1853.53 C 1389.67 1868.56 1370.01 1899.41 1356.97 1917.45 A 1369.69 1369.69 0 0 0 1279.53 1897.37 C 1261.47 1915.66 1243.42 1935.23 1227.26 1955.22 C 1202.34 1945.49 1177.96 1934.41 1152.97 1924.88 C 1138.85 1935.35 1104.69 1969.74 1092.87 1975.32 L 1090.01 1974.16 C 1068.67 1960.38 1046 1946.98 1023.08 1936.01 C 999.644 1946.49 977.178 1962.85 955.254 1976.31 C 937.959 1960.25 912.902 1937.74 893.373 1925.13 C 871.8 1930.49 842.168 1946.19 821.238 1955.54 C 805.452 1936.71 784.558 1910.25 765.152 1895.79 C 740.507 1901.52 715.824 1910.43 691.819 1918.46 C 675.394 1896.91 661.454 1873.26 643.355 1853.01 C 617.909 1853.8 591.798 1860.14 566.501 1863.43 C 558.498 1845.74 539.471 1802.36 527.082 1790.22 C 503.198 1786.94 474.937 1789.89 450.549 1790.04 C 443.569 1764.62 437.14 1733.62 423.744 1710.97 C 401.996 1703.96 370.599 1702.07 347.424 1698.66 C 346.676 1685.16 341.326 1639.37 336.088 1628.29 A 20.6263 20.6263 0 0 0 328.294 1619.47 C 315.709 1611.61 277.683 1604.39 260.829 1598.04 L 258.96 1597.33 C 259.116 1582.56 261.904 1533.02 257.588 1522.17 C 256.064 1518.34 253.386 1515.45 250.06 1513.08 C 237.542 1504.16 201.061 1489.84 185.232 1482.73 C 188.358 1466.95 199.703 1421.93 196.835 1408.44 C 195.837 1403.74 193.22 1400.15 189.692 1396.99 C 182.929 1390.93 173.891 1386.26 166.238 1381.38 L 128.368 1356.74 C 133.769 1341.17 152.192 1299.64 150.602 1285.54 C 150.048 1280.63 147.716 1276.34 144.553 1272.61 C 133.779 1259.9 104.25 1238.33 89.9314 1227.44 C 98.1574 1208.81 116.746 1180.02 120.787 1161.88 C 121.6 1158.24 121.313 1154.12 121.232 1150.4 C 106.544 1129.64 88.3455 1111.79 71.5047 1092.82 C 85.7663 1071.48 106.806 1046.04 114.725 1022.02 C 104.903 999.684 84.862 974.496 70.5208 954.31 C 81.5239 943.02 116.601 909.032 121.272 894.989 C 122.569 891.091 122.58 887.171 121.636 883.2 C 118.131 868.452 100.529 838.434 92.976 823.564 C 112.685 805.601 135.136 786.655 152.028 765.992 C 149.664 744.672 137.224 712.706 130.531 691.428 C 146.499 681.783 184.826 655.794 197.167 643.193 C 197.163 622.436 190.728 589.224 186.462 568.35 C 210.709 555.874 235.03 543.668 259.062 530.77 C 260.887 505.398 259.323 479.021 259.085 453.541 C 283.933 444.054 309.968 439.357 334.473 428.548 C 341.113 404.154 344.539 375.647 348.551 350.466 C 373.63 346.878 404.549 343.961 427.983 335.404 C 437.947 316.256 445.278 281.97 453.64 259.872 C 479.732 259.129 506.166 260.097 532.172 258.156 C 543.493 233.673 554.774 208.187 568.212 184.828 C 592.809 191.402 619.851 195.159 645.277 196.325 C 661.378 177.871 677.389 150.033 691.696 129.275 C 715.304 137.142 744.238 149.965 768.954 151.371 C 786.03 132.151 803.216 111.761 821.742 93.9718 C 845.938 103.224 869.02 115.897 893.172 125.489 C 916.479 111.156 934.616 88.843 956.56 72.7334 C 973.354 85.9674 1004.68 102.711 1024.11 113.694 A 4659.64 4659.64 0 0 0 1093.12 72.593 z"/>
<path transform="translate(0,0)" fill="rgb(254,254,254)" d="M 997.962 140.442 C 1022.75 138.921 1048.31 139.98 1073.1 141.238 C 1260.15 150.741 1455.73 227.115 1596.76 351.131 C 1632.66 382.697 1666.76 415.826 1697.71 452.322 A 890.578 890.578 0 0 1 1905.18 974.288 A 889.902 889.902 0 0 1 1685.57 1612.86 A 880.829 880.829 0 0 1 1235.5 1883.33 C 1175.38 1897.68 1114.42 1904.87 1052.84 1908.77 C 821.432 1913.95 597.357 1835.49 426.169 1678.13 A 891.016 891.016 0 0 1 141.337 1061.5 C 132.028 831.779 215.029 596.415 371.499 426.968 C 537.273 247.444 754.216 150.021 997.962 140.442 z"/>
<path transform="translate(0,0)" fill="rgb(64,63,62)" d="M 1040.9 1521.79 C 1065.9 1522.3 1090.97 1522.01 1115.98 1522.09 L 1116.02 1537.67 L 1086.33 1537.31 L 1086.28 1590 L 1086.46 1620.95 L 1069.74 1620.87 L 1069.75 1537.7 L 1040.9 1537.8 L 1040.9 1521.79 z"/>
<path transform="translate(0,0)" fill="rgb(64,63,62)" d="M 986.14 1520.21 C 1000.78 1519.31 1010.31 1523.53 1021.83 1532.07 L 1012.17 1543.52 C 1006.53 1538.82 999.953 1534.47 992.28 1534.66 C 987.606 1534.77 981.309 1536.64 978.172 1540.31 C 976.242 1542.56 975.19 1545.77 975.815 1548.71 C 978.062 1559.29 1005.61 1565.29 1014.4 1572.05 C 1019.94 1576.31 1023.72 1581.94 1024.45 1588.98 C 1025.24 1596.67 1022.36 1606.43 1017.2 1612.25 C 1010.16 1620.21 999.293 1622.7 989.134 1623.08 C 975.241 1621.06 966.848 1616.84 956.165 1607.99 C 960.447 1604.11 964.161 1600.23 967.759 1595.71 C 975.949 1601.94 983.596 1608.86 994.662 1607.26 C 998.904 1606.64 1001.94 1604.32 1004.36 1600.83 C 1006.31 1598.01 1007.94 1594.15 1006.77 1590.7 C 1003.39 1580.76 982.399 1577.08 973.931 1572.36 C 967.23 1568.63 961.832 1563.03 960.013 1555.42 C 958.388 1548.63 959.724 1538.62 963.73 1532.83 C 969.039 1525.15 977.332 1521.91 986.14 1520.21 z"/>
<path transform="translate(0,0)" fill="rgb(64,63,62)" d="M 1142.17 1521.8 L 1205.59 1522.01 L 1205.26 1537.11 L 1159.14 1537.01 L 1159.15 1561.76 C 1173.12 1561.93 1187.1 1561.77 1201.07 1561.75 L 1200.94 1575.14 C 1187.58 1575.05 1173.26 1573.94 1160.03 1575.42 L 1158.89 1576.96 L 1158.88 1604.59 L 1205.82 1604.4 L 1205.34 1620.39 L 1142.05 1620.33 L 1142.17 1521.8 z"/>
<path transform="translate(0,0)" fill="rgb(240,76,73)" d="M 1024.35 1691.66 C 1028.92 1695.92 1036.63 1716.68 1040.76 1723.71 C 1052.24 1724.25 1063.77 1725.4 1075.23 1726.29 A 1769.32 1769.32 0 0 0 1047.96 1750.73 C 1050.31 1762.72 1053.76 1774.53 1056.25 1786.52 C 1046.17 1780.26 1036.18 1773.61 1025.62 1768.21 C 1016.62 1770.13 1001.77 1781.42 993.239 1786.59 C 995.672 1774.34 998.912 1762.16 1001.65 1749.96 C 993.418 1742.03 984.031 1735.06 975.547 1727.33 A 1227.87 1227.87 0 0 0 1009.17 1723 C 1014.72 1712.75 1019.55 1702.28 1024.35 1691.66 z"/>
<path transform="translate(0,0)" fill="rgb(64,63,62)" d="M 895.987 1518.5 C 897.624 1519.43 898.315 1520.08 899.288 1521.78 C 904.448 1530.75 908.114 1541.65 912.483 1551.14 L 944.586 1620.47 L 924.666 1620.99 C 922.532 1615.86 920.786 1610.5 918.912 1605.27 L 898.145 1605.28 L 875.28 1605.09 C 873.174 1610.63 870.543 1615.89 867.929 1621.2 L 849.734 1621.52 C 863.598 1586.76 879.395 1552.05 895.987 1518.5 z"/>
<path transform="translate(0,0)" fill="rgb(254,254,254)" d="M 896.398 1552.76 C 901.741 1558.48 909.8 1582.85 913.144 1591.18 L 902.151 1591.17 L 881.968 1591.11 C 886.212 1578.16 891.478 1565.47 896.398 1552.76 z"/>
<path transform="translate(0,0)" fill="rgb(64,63,62)" d="M 1433.92 1326.1 L 1466.74 1325.95 L 1466.53 1462.04 L 1433.06 1462.05 L 1433.92 1326.1 z"/>
<path transform="translate(0,0)" fill="rgb(64,63,62)" d="M 819.914 1520.87 C 823.299 1520.86 826.449 1520.68 829.697 1521.81 C 831.002 1532.96 829.996 1545.08 829.893 1556.36 A 3454.02 3454.02 0 0 0 829.605 1620.81 L 813.072 1620.76 A 2913.73 2913.73 0 0 0 813.378 1563.83 C 801.742 1581.63 791.084 1600.11 779.517 1617.98 C 770.384 1598.57 757.676 1580.39 746.221 1562.27 L 746.253 1581.76 L 746.022 1620.73 L 729.494 1620.61 C 729.902 1607 728.247 1528.06 730.635 1523.01 C 733.794 1522.3 736.071 1522.31 739.273 1522.72 C 747.931 1531.75 772.483 1574.76 779.938 1587.49 L 819.914 1520.87 z"/>
<path transform="translate(0,0)" fill="rgb(64,63,62)" d="M 1237.51 1522.38 C 1253.17 1522.22 1272.15 1520.06 1287.39 1524.31 C 1294.9 1526.4 1301.91 1530.5 1305.61 1537.61 C 1309.43 1544.96 1309.62 1555.4 1306.88 1563.12 C 1303.72 1572.02 1296.79 1576.44 1288.65 1580.18 A 1049.75 1049.75 0 0 1 1313.23 1621.4 L 1292.9 1621.15 A 913.957 913.957 0 0 1 1271.6 1581.65 C 1266.06 1581.6 1260.5 1581.78 1254.96 1581.87 L 1254.88 1620.86 L 1237.97 1620.83 L 1237.51 1522.38 z"/>
<path transform="translate(0,0)" fill="rgb(254,254,254)" d="M 1255.12 1537.15 C 1264.73 1537.11 1275.99 1536.22 1284.72 1540.97 C 1288.05 1542.78 1290.58 1545.29 1291.25 1549.15 C 1292.09 1554.05 1289.43 1558.99 1286.68 1562.81 C 1277.51 1568.35 1265.46 1566.98 1255.12 1566.89 L 1255.12 1537.15 z"/>
<path transform="translate(0,0)" fill="rgb(64,63,62)" d="M 638.339 1325.92 L 671.044 1325.89 L 670.935 1431.97 L 710.891 1431.78 C 710.835 1442.07 710.186 1452.4 709.794 1462.68 A 4217.44 4217.44 0 0 0 638.233 1462.85 L 638.339 1325.92 z"/>
<path transform="translate(0,0)" fill="rgb(64,63,62)" d="M 549.596 1325.97 L 582.047 1325.96 L 581.681 1432.05 L 624.651 1431.95 L 624.433 1462.91 A 7090.13 7090.13 0 0 0 548.728 1463.08 L 549.596 1325.97 z"/>
<path transform="translate(0,0)" fill="rgb(64,63,62)" d="M 1324.07 1326.09 L 1419.15 1326.03 A 842.882 842.882 0 0 1 1418.8 1354.4 C 1408.96 1355.24 1398.73 1354.66 1388.84 1354.64 L 1388.27 1431.5 L 1388.08 1462.03 L 1355.93 1462.08 L 1355.96 1354.61 C 1345.38 1354.12 1334.67 1354.38 1324.08 1354.32 L 1324.07 1326.09 z"/>
<path transform="translate(0,0)" fill="rgb(64,63,62)" d="M 344.124 1323.29 C 356.125 1322.2 369.913 1324.07 380.778 1329.5 C 383.796 1331.01 385.686 1332.42 386.716 1335.78 C 384.534 1344.4 378.369 1354.3 374.119 1362.2 C 371.7 1361.01 369.262 1359.84 366.733 1358.9 C 356.984 1355.27 345.634 1354.76 336.079 1359.28 C 326.664 1363.73 319.692 1372.5 316.608 1382.36 A 37.2744 37.2744 0 0 0 319.842 1412.55 C 324.592 1420.89 332.413 1427.7 341.836 1430.05 C 354.138 1433.12 365.977 1428.25 376.269 1421.86 C 379.064 1428.47 381.555 1435.26 384.185 1441.94 A 635.076 635.076 0 0 1 388.371 1454.19 C 380.305 1458.63 371.767 1462.21 362.663 1463.82 C 344.651 1466.99 325.308 1461.79 310.462 1451.35 A 69.558 69.558 0 0 1 282.113 1406.52 C 278.961 1387.89 283.879 1367.21 294.842 1351.86 C 306.728 1335.22 324.281 1326.44 344.124 1323.29 z"/>
<path transform="translate(0,0)" fill="rgb(64,63,62)" d="M 779.091 1318.7 C 786.637 1327.47 791.246 1343.34 796.091 1353.9 C 812.629 1389.96 828.28 1426.81 845.695 1462.41 L 810.009 1462.28 C 807.42 1455.09 804.465 1448.01 801.675 1440.9 L 777.138 1440.83 L 755.931 1440.77 L 746.628 1462.6 C 735.186 1462.67 723.735 1462.49 712.292 1462.41 C 737.575 1416.5 754.357 1364.75 779.091 1318.7 z"/>
<path transform="translate(0,0)" fill="rgb(254,254,254)" d="M 779 1382.52 C 784.755 1391.51 788.257 1403.27 792.241 1413.19 L 778.35 1413.14 L 765.835 1412.93 C 770.41 1402.89 774.687 1392.68 779 1382.52 z"/>
<path transform="translate(0,0)" fill="rgb(64,63,62)" d="M 1639.09 1325.09 C 1641.38 1324.96 1643.71 1324.8 1646.01 1324.87 C 1648.21 1324.93 1650.29 1325.74 1651.99 1327.14 C 1659.83 1333.54 1667 1342.35 1674.11 1349.66 A 4632.35 4632.35 0 0 1 1716.86 1393.42 L 1717.09 1325.53 A 2568.13 2568.13 0 0 0 1748.92 1325.47 C 1748.35 1356.35 1748.83 1387.29 1748.91 1418.18 C 1748.95 1431.98 1750.48 1447.64 1748.23 1461.16 C 1747.43 1461.18 1746.62 1461.19 1745.82 1461.17 C 1743.86 1461.12 1742.15 1461.02 1740.47 1459.86 C 1732.72 1454.53 1726.29 1446.35 1719.66 1439.68 A 4054.27 4054.27 0 0 1 1671.93 1391.32 L 1672 1459.97 L 1639.41 1459.91 L 1639.09 1325.09 z"/>
<path transform="translate(0,0)" fill="rgb(64,63,62)" d="M 851.217 1325.44 C 865.645 1325.33 880.248 1324.76 894.655 1325.34 C 907.849 1325.87 923.893 1329 932.942 1339.39 C 938.796 1346.11 940.263 1355 939.426 1363.64 C 938.232 1375.97 931.554 1383.14 922.484 1390.67 A 123.588 123.588 0 0 1 926.265 1392.03 C 934.718 1395.19 941.318 1400.19 944.889 1408.75 C 949.452 1419.68 947.415 1431.8 943.108 1442.41 C 941.576 1444.96 939.676 1447.49 937.642 1449.65 C 920.706 1467.63 874.235 1462.38 851.269 1462.28 C 851.844 1416.65 851.113 1371.07 851.217 1325.44 z"/>
<path transform="translate(0,0)" fill="rgb(254,254,254)" d="M 883.549 1354.96 C 891.895 1354.66 900.076 1354.06 906.91 1359.98 C 909.071 1361.85 910.094 1364.12 910.271 1366.97 C 910.535 1371.22 907.866 1374.82 905.258 1377.84 C 898.397 1382.35 891.278 1381.52 883.361 1381.62 L 883.549 1354.96 z"/>
<path transform="translate(0,0)" fill="rgb(254,254,254)" d="M 883.84 1406.07 C 890.083 1406.02 896.783 1405.84 902.896 1407.26 C 907.151 1408.24 911.795 1410.12 913.772 1414.33 C 916.127 1419.34 913.974 1424.59 911.828 1429.2 C 904.383 1435.43 892.976 1433.55 883.892 1433.27 L 883.84 1406.07 z"/>
<path transform="translate(0,0)" fill="rgb(64,63,62)" d="M 1554.11 1323.38 C 1571.27 1323.78 1587.77 1329.39 1601.21 1340.16 A 68.5754 68.5754 0 0 1 1626.33 1386 A 69.2848 69.2848 0 0 1 1611.28 1436.26 C 1597.75 1452.82 1578.57 1460.98 1557.67 1463.08 C 1537.99 1462.79 1520.59 1457.52 1505.38 1444.64 C 1491.59 1432.96 1483.9 1416.85 1482.53 1398.88 C 1481.13 1380.64 1486.32 1363.24 1498.36 1349.35 C 1512.98 1332.47 1532.31 1325.02 1554.11 1323.38 z"/>
<path transform="translate(0,0)" fill="rgb(254,254,254)" d="M 1550.17 1355.23 C 1558.29 1354.77 1565.85 1355.74 1573.04 1359.77 C 1581.65 1364.59 1587.72 1372.84 1590.3 1382.3 C 1593.04 1392.3 1591.73 1403.64 1586.49 1412.61 C 1580.22 1423.33 1570.76 1427.49 1559.27 1430.35 C 1550.83 1431.22 1542.58 1429.96 1535.12 1425.77 A 37.5324 37.5324 0 0 1 1517.2 1402.17 A 37.8083 37.8083 0 0 1 1522.2 1372.26 C 1528.86 1362.09 1538.68 1357.57 1550.17 1355.23 z"/>
<path transform="translate(0,0)" fill="rgb(64,63,62)" d="M 1019.3 1324.35 C 1036.32 1322.7 1052.71 1325.83 1067.2 1335.13 A 67.3366 67.3366 0 0 1 1097.22 1379.12 A 73.6805 73.6805 0 0 1 1086.15 1434.38 C 1074.13 1452.15 1056.93 1460.18 1036.47 1464.3 C 1017.22 1466.75 996.654 1460.73 981.317 1448.98 C 966.636 1437.74 958.082 1421.48 955.704 1403.26 A 70.0829 70.0829 0 0 1 969.807 1351.07 C 982.263 1335.09 999.508 1326.87 1019.3 1324.35 z"/>
<path transform="translate(0,0)" fill="rgb(254,254,254)" d="M 1025.29 1355.28 C 1033.26 1355.83 1040.59 1357.03 1047.49 1361.38 C 1056.54 1367.08 1062.3 1376.48 1064.2 1386.92 A 39.2486 39.2486 0 0 1 1057.84 1416.73 C 1050.64 1426.85 1040.66 1430.75 1028.87 1432.67 C 1020.84 1433.2 1012.61 1431.28 1005.84 1426.88 C 997.496 1421.45 992.169 1412.62 990.119 1402.99 C 987.793 1392.05 989.606 1380.82 996.131 1371.64 C 1003.44 1361.37 1013.24 1357.05 1025.29 1355.28 z"/>
<path transform="translate(0,0)" fill="rgb(64,63,62)" d="M 452.441 1323.21 C 470.039 1321.57 486.037 1323.71 501.296 1333.1 C 517.484 1343.06 529.37 1358.14 533.645 1376.79 C 537.942 1395.54 534.729 1416.11 524.331 1432.36 C 513.165 1449.81 496.756 1459.47 476.838 1463.71 C 458.633 1466.7 440.914 1463.98 425.08 1454.26 A 71.5439 71.5439 0 0 1 392.654 1409.21 C 388.448 1390.54 392.667 1371.17 402.919 1355.15 C 414.419 1337.19 432.012 1327.59 452.441 1323.21 z"/>
<path transform="translate(0,0)" fill="rgb(254,254,254)" d="M 454.578 1355.16 C 462.489 1354.44 469.722 1354.41 477.272 1357.38 A 38.7082 38.7082 0 0 1 499.168 1379.3 A 38.7401 38.7401 0 0 1 498.315 1410 C 493.2 1420.77 484.229 1427.06 473.21 1430.75 C 464.376 1432.66 455.715 1432.56 447.352 1428.83 A 37.5262 37.5262 0 0 1 427.639 1407.7 A 40.8473 40.8473 0 0 1 428.785 1376.36 C 434.097 1364.89 443.08 1359.14 454.578 1355.16 z"/>
<path transform="translate(0,0)" fill="rgb(64,63,62)" d="M 1276.64 1317.54 C 1280.46 1320.48 1337.16 1447.51 1343.25 1462.06 L 1308.74 1462.11 C 1305.85 1455.06 1303.26 1447.85 1300.55 1440.73 A 1041.57 1041.57 0 0 0 1254.34 1440.54 A 759.063 759.063 0 0 0 1246.05 1462.1 C 1224.67 1462.03 1203.19 1461.66 1181.84 1462.78 C 1176.58 1454.13 1158.66 1417.65 1152.47 1413.63 C 1150.06 1413.5 1148.64 1413.25 1146.57 1414.61 C 1143.82 1429.23 1145.83 1447.06 1145.9 1461.98 L 1112.83 1462.15 L 1112.86 1450.25 L 1112.99 1326 C 1132.71 1325.82 1158.54 1323.17 1177.35 1328.12 C 1188.53 1331.07 1198.91 1337.25 1204.71 1347.54 C 1210.48 1357.77 1211.16 1372.61 1207.5 1383.72 C 1203.76 1395.06 1195.43 1401.12 1185.36 1406.42 C 1193.31 1423.52 1204.06 1440.03 1213.78 1456.2 C 1222.51 1437.75 1230.28 1418.85 1238.63 1400.22 L 1276.64 1317.54 z"/>
<path transform="translate(0,0)" fill="rgb(254,254,254)" d="M 1277.31 1383.8 C 1283.17 1391.55 1286.6 1404.74 1290.12 1413.92 L 1278.44 1414.02 L 1264.96 1413.89 C 1268.25 1403.74 1273.18 1393.67 1277.31 1383.8 z"/>
<path transform="translate(0,0)" fill="rgb(254,254,254)" d="M 1147.41 1353.33 C 1155.62 1353.09 1163.82 1353.19 1170.79 1358.22 C 1173.84 1360.43 1176.22 1363.72 1176.57 1367.55 C 1177.13 1373.79 1173.67 1378.81 1169.91 1383.37 C 1162.67 1388.46 1154.46 1386.82 1146.18 1386.22 C 1146.12 1379.65 1144.6 1357.6 1147.41 1353.33 z"/>
<path transform="translate(0,0)" fill="rgb(240,76,73)" d="M 1658.47 1534.95 C 1672.33 1535.38 1686.26 1535.01 1700.13 1534.88 C 1666.39 1578.56 1630.68 1620.25 1589.14 1656.81 A 854.622 854.622 0 0 1 971.205 1869.73 C 737.436 1854.64 535.317 1752.09 380.928 1576.68 C 369.794 1563.6 358.732 1550.52 349.086 1536.29 C 362.081 1536.54 374.963 1536.6 387.95 1536.02 C 415.818 1568.67 444.698 1600.54 476.684 1629.25 A 815.413 815.413 0 0 0 1062.98 1837.98 A 820.352 820.352 0 0 0 1576.59 1623.91 C 1606.42 1596.3 1631.41 1565.06 1658.47 1534.95 z"/>
<path transform="translate(0,0)" fill="rgb(240,76,73)" d="M 990.821 178.443 A 831.222 831.222 0 0 1 1228.87 202.051 A 845.193 845.193 0 0 1 1751.65 595.364 A 856.801 856.801 0 0 1 1842.4 1238.97 L 1809.44 1238.97 C 1822.36 1186.42 1832.38 1132.63 1835.07 1078.51 C 1846.55 847.444 1772.61 639.109 1617.4 467.881 C 1498.7 336.917 1329.46 249.268 1155.82 220.094 C 1122.03 214.418 1088.06 211.815 1053.87 210.141 A 801.259 801.259 0 0 0 809.425 238.526 A 804.763 804.763 0 0 0 321.532 615.258 A 811.279 811.279 0 0 0 240.181 1238.59 A 1081.24 1081.24 0 0 1 206.654 1238.43 C 190.705 1182.21 182.785 1122.06 180.372 1063.76 A 851.841 851.841 0 0 1 402.456 449.622 A 845.468 845.468 0 0 1 990.821 178.443 z"/>
<path transform="translate(0,0)" fill="rgb(64,63,62)" d="M 1023.87 1136.01 C 1052.67 1154.17 1095.05 1165.54 1128.67 1169.43 C 1156.32 1172.63 1184.92 1171.28 1212.73 1171.24 L 1342.98 1171.06 L 1785.49 1171.09 A 542.928 542.928 0 0 1 1769.81 1238.75 L 1025.5 1238.87 L 278.899 1238.83 C 272.134 1216.56 267.031 1194.48 262.46 1171.66 L 704.718 1171.74 L 837.374 1171.67 C 865.159 1171.66 893.72 1173.14 921.318 1169.73 A 279.355 279.355 0 0 0 1023.87 1136.01 z"/>
<path transform="translate(0,0)" fill="rgb(64,63,62)" d="M 1018.09 246.485 A 798.898 798.898 0 0 1 1166.54 259.475 A 771.48 771.48 0 0 1 1658.69 577.452 C 1773.08 744.233 1824.77 957.039 1787.42 1157.02 L 1347.28 1157.23 L 1212.32 1157.39 C 1186.48 1157.45 1159.82 1159.11 1134.13 1156.35 C 1102.26 1152.93 1069.76 1144.47 1042.05 1127.97 C 1064.67 1114.94 1087.48 1102.7 1109.62 1088.79 C 1105.02 1085.45 1101.68 1081.98 1098.38 1077.35 C 1079.65 1090.03 1044.73 1111.39 1024.59 1120.03 A 1275.07 1275.07 0 0 1 947.691 1074.62 C 944.969 1080.37 941.697 1084.23 937.088 1088.5 L 1008.71 1128.27 C 979.993 1141.89 950.27 1152.64 918.527 1156.4 C 891.557 1159.6 863.669 1158.24 836.52 1158.15 L 702.073 1157.56 L 259.447 1158.02 C 255.157 1122.24 249.788 1086.88 249.059 1050.74 C 244.65 832.206 318.073 638.303 469.959 480.453 C 614.927 329.792 810.213 250.603 1018.09 246.485 z"/>
<path transform="translate(0,0)" fill="rgb(254,254,254)" d="M 1020.79 521.947 C 1024.04 522.101 1027.55 522.439 1030.03 524.801 C 1032 526.67 1033.13 528.524 1033 531.326 C 1032.8 535.725 1030.08 538.243 1026.88 540.833 C 1023.33 540.962 1019.92 540.998 1017.15 538.32 C 1015.22 536.46 1014.74 534.22 1014.87 531.638 C 1015.08 527.431 1017.86 524.598 1020.79 521.947 z"/>
<path transform="translate(0,0)" fill="rgb(254,254,254)" d="M 1019.24 471.259 A 55.1846 55.1846 0 0 1 1049.11 476.716 C 1064.58 484.198 1073.06 495.456 1078.67 511.277 L 1068.96 514.171 C 1066.61 509.055 1064.26 504.056 1060.77 499.584 C 1052.47 488.957 1041.81 483.997 1028.67 482.39 C 1021.65 482.136 1015.32 482.388 1008.61 484.856 C 994.418 490.073 986.009 501.255 979.767 514.387 L 969.887 509.404 C 971.748 504.929 973.91 500.645 976.678 496.657 C 987.036 481.733 1001.85 474.449 1019.24 471.259 z"/>
<path transform="translate(0,0)" fill="rgb(254,254,254)" d="M 862.542 1018.42 C 880.416 1027.84 897.026 1039.74 915.172 1048.7 C 922.528 1052.32 931.463 1051.16 937.022 1057.86 C 940.211 1061.7 942.502 1066.59 941.773 1071.68 C 941.054 1076.71 938.219 1079.22 934.394 1082.21 C 931.498 1083.4 928.32 1084.28 925.168 1084.32 C 921.354 1084.38 917.492 1083.52 914.76 1080.67 C 909.285 1074.94 909.893 1067.86 910.011 1060.56 C 892.559 1054.01 871.692 1038.84 855.469 1028.67 C 857.602 1025.13 860.155 1021.8 862.542 1018.42 z"/>
<path transform="translate(0,0)" fill="rgb(254,254,254)" d="M 1182.81 1018.74 C 1186.98 1021.43 1189.95 1024.61 1193.24 1028.25 C 1174.22 1042.12 1153.04 1053.22 1133.84 1067.14 A 118.525 118.525 0 0 1 1133.47 1070.03 C 1132.79 1074.78 1131.33 1080.35 1126.9 1083.02 C 1123.04 1085.35 1119 1084.65 1114.83 1083.83 C 1111.77 1082.05 1108.49 1080.35 1106.34 1077.46 C 1104 1074.33 1102.7 1070.32 1103.43 1066.42 C 1104.32 1061.58 1108.37 1056.73 1112.56 1054.29 C 1117.53 1051.4 1124.64 1052.57 1130.21 1050.27 C 1148.11 1042.86 1167.16 1030.16 1182.81 1018.74 z"/>
<path transform="translate(0,0)" fill="rgb(254,254,254)" d="M 852.685 1034.29 C 859.989 1037.37 901.829 1062.6 904.03 1066.48 C 905.929 1069.82 904.81 1076.93 906.849 1081.43 C 907.001 1081.76 907.167 1082.09 907.325 1082.42 C 904.238 1084.23 901.065 1085.91 897.933 1087.64 A 56.5416 56.5416 0 0 1 894.626 1089 C 885.133 1092.5 873.841 1091.89 864.792 1087.35 A 33.4571 33.4571 0 0 1 847.867 1067.79 C 843.926 1055.71 847.213 1045.11 852.685 1034.29 z"/>
<path transform="translate(0,0)" fill="rgb(254,254,254)" d="M 1196.69 1034.86 C 1198 1035.98 1198.8 1036.99 1199.68 1038.48 C 1205.29 1047.92 1207.32 1057.82 1204.14 1068.55 A 35.19 35.19 0 0 1 1186.55 1090 C 1174.87 1096.05 1162.8 1094.7 1150.74 1090.86 C 1146.45 1089.01 1141.68 1087.39 1139.23 1083.1 C 1137.72 1080.46 1137.59 1077.45 1138.6 1074.59 C 1142.76 1062.86 1184.42 1041.19 1196.69 1034.86 z"/>
<path transform="translate(0,0)" fill="rgb(254,254,254)" d="M 1020.56 423.42 C 1038.64 422.172 1059.84 428.214 1075.64 436.737 C 1102.69 451.331 1116.61 473.892 1125.34 502.549 L 1114.92 503.852 C 1110.86 490.696 1105.48 478.835 1096.59 468.193 C 1080.32 448.714 1056.49 437.255 1031.4 434.831 C 1014.23 434.346 998.876 436.869 983.369 444.554 C 957.599 457.326 943.062 477.353 934.023 504.131 L 923.625 502.008 A 104.282 104.282 0 0 1 944.703 461.038 C 963.883 438.362 991.305 426.006 1020.56 423.42 z"/>
<path transform="translate(0,0)" fill="rgb(254,254,254)" d="M 1022.03 375.419 A 164.354 164.354 0 0 1 1051.52 378.087 C 1093.24 385.783 1128.64 409.641 1152.22 444.881 C 1158.62 454.445 1173.43 478.823 1171.12 490.587 C 1169.28 492.267 1168 492.725 1165.43 492.481 C 1163.08 492.258 1162.24 492.134 1161.14 490.057 C 1158.25 484.629 1156.49 477.901 1154.16 472.147 C 1148.56 458.331 1140.05 445.69 1130.07 434.653 C 1103.39 405.124 1068.03 389.045 1028.41 386.976 C 1003.39 386.853 980.121 391.887 958.019 403.844 C 921.414 423.647 899.771 455.319 887.945 494.455 L 876.222 492.186 C 883.21 467.908 894.062 446.14 910.882 427.121 C 940.003 394.194 978.77 378.246 1022.03 375.419 z"/>
<path transform="translate(0,0)" fill="rgb(254,254,254)" d="M 1011.7 328.419 C 1050.6 324.046 1094.99 337.116 1128.01 357.203 C 1178.76 388.071 1208.37 435.364 1222.19 492.401 L 1210.98 492.86 C 1202.75 462.399 1192.14 435.375 1172.08 410.554 C 1139.02 369.656 1094.44 345.567 1042.25 340.069 C 1007.15 337.272 973.565 342.929 941.914 358.69 A 193.23 193.23 0 0 0 850.53 457.31 A 251.592 251.592 0 0 0 842.406 479.974 C 841.373 483.288 840.752 488.284 839.122 491.255 C 837.91 493.466 836.823 493.654 834.632 494.209 C 833.607 493.883 833.15 493.896 832.408 493.195 C 830.999 491.866 830.382 489.7 830.24 487.826 C 829.21 474.277 847.562 435.987 854.481 424.46 A 184.752 184.752 0 0 1 874.159 397.745 C 909.904 357 957.409 331.877 1011.7 328.419 z"/>
<path transform="translate(0,0)" fill="rgb(254,254,254)" d="M 1167.35 576.921 C 1178.64 576.691 1199.09 584.555 1210.35 587.732 C 1242.2 596.723 1273.83 606.31 1305.88 614.595 C 1380.98 634.011 1455.48 655.757 1530.55 675.347 L 1612.72 696.509 C 1624.86 699.541 1637.96 701.292 1649.71 705.487 C 1656.6 707.946 1662.86 711.547 1665.94 718.49 C 1668.06 723.27 1668.37 728.053 1667.52 733.148 C 1662.51 763.303 1653.02 793.831 1645.12 823.402 C 1635.88 858.033 1627.39 892.911 1618.54 927.646 L 1594.27 1020.46 C 1590.26 1036.06 1587.63 1054.53 1581.09 1069.12 C 1578.07 1075.84 1572.44 1078.59 1565.9 1081.12 C 1552.47 1082.06 1469.95 1056.92 1452.34 1051.91 L 1305.06 1010.1 A 13530.1 13530.1 0 0 1 1148.51 966.997 C 1128.06 961.28 1102.11 955.953 1082.73 948.912 C 1075.83 946.402 1070.73 942.63 1067.59 935.84 C 1065.22 930.7 1065.1 926.134 1066.04 920.656 C 1069.28 901.704 1075.43 882.67 1080.26 864.023 L 1108.6 755.461 L 1134.26 659.857 C 1140.13 637.3 1144.99 613.748 1152.78 591.778 C 1155.65 583.707 1159.74 580.598 1167.35 576.921 z"/>
<path transform="translate(0,0)" fill="rgb(64,63,62)" d="M 1150.72 844.049 C 1152.82 843.971 1155.11 843.8 1157.16 844.304 C 1160.22 845.056 1162.74 847.124 1164.27 849.841 C 1165.75 852.465 1165.97 855.228 1165.13 858.086 C 1163.89 862.358 1161.34 864.338 1157.65 866.518 C 1156.46 866.593 1155.71 866.672 1154.47 866.593 C 1151.22 866.387 1148.32 865.259 1146.16 862.744 C 1144.29 860.573 1143.56 857.79 1143.8 854.977 C 1144.24 849.913 1146.97 847.123 1150.72 844.049 z"/>
<path transform="translate(0,0)" fill="rgb(64,63,62)" d="M 1546.89 1024.9 C 1548.37 1024.78 1548.35 1024.75 1550.03 1024.76 C 1553.84 1024.79 1557.35 1025.99 1560 1028.82 C 1562.49 1031.48 1563.43 1034.9 1563.01 1038.47 C 1562.34 1044.25 1559.26 1046.78 1554.83 1050.02 C 1550.05 1050.3 1545.82 1050.05 1542.18 1046.56 C 1539.69 1044.17 1538.81 1040.94 1539.01 1037.56 C 1539.36 1031.8 1542.7 1028.42 1546.89 1024.9 z"/>
<path transform="translate(0,0)" fill="rgb(64,63,62)" d="M 1623.86 725.944 C 1626.12 725.874 1628.41 725.822 1630.62 726.391 C 1633.95 727.246 1636.66 729.843 1638.27 732.802 C 1640.06 736.083 1640.16 739.771 1638.85 743.235 C 1637.22 747.519 1634.45 749.312 1630.47 751.233 C 1628.23 751.259 1625.88 751.272 1623.66 750.814 C 1620.59 750.18 1617.52 747.79 1616.07 745.001 C 1614.55 742.07 1614.16 739.153 1615.05 735.986 C 1616.46 731.034 1619.58 728.46 1623.86 725.944 z"/>
<path transform="translate(0,0)" fill="rgb(64,63,62)" d="M 1206.42 846.249 C 1210.21 846.539 1214.04 846.955 1217.38 848.915 C 1222.06 851.66 1225.44 855.926 1226.75 861.215 A 21.1702 21.1702 0 0 1 1224.3 877.111 C 1220.46 883.454 1215.6 885.37 1208.71 887.264 C 1204.37 886.919 1200.17 886.352 1196.35 884.105 A 19.5432 19.5432 0 0 1 1187.23 871.635 C 1186.01 866.054 1187.32 859.818 1190.71 855.215 C 1194.79 849.65 1199.79 847.399 1206.42 846.249 z"/>
<path transform="translate(0,0)" fill="rgb(64,63,62)" d="M 1189.58 903.072 C 1192.95 902.888 1196.19 903.121 1199.37 904.317 C 1205.19 906.503 1209.87 910.673 1212.23 916.481 A 20.7951 20.7951 0 0 1 1212.11 932.481 C 1209.22 939.229 1203.89 942.605 1197.28 945.101 C 1192.39 945.224 1187.93 945.289 1183.45 943.06 A 21.3948 21.3948 0 0 1 1172.62 930.757 A 20.4962 20.4962 0 0 1 1173.72 914.98 C 1177.12 908.235 1182.69 905.38 1189.58 903.072 z"/>
<path transform="translate(0,0)" fill="rgb(64,63,62)" d="M 1226.58 620.213 C 1240.43 619.071 1253.82 621.846 1265.68 629.217 C 1278.42 637.132 1286.79 649.29 1290.01 663.917 C 1293.49 679.674 1289.96 696.93 1281.04 710.295 C 1271.67 724.35 1258.46 731.633 1242.25 734.964 C 1228.07 736.671 1214.38 734.934 1202.19 727.096 C 1189.07 718.666 1178.7 703.765 1175.7 688.45 C 1172.82 673.745 1176.64 658.264 1185.09 646.017 C 1195.11 631.502 1209.44 623.464 1226.58 620.213 z"/>
<path transform="translate(0,0)" fill="rgb(254,254,254)" d="M 1225.86 633.248 C 1236.14 632.269 1246.12 633.329 1255.37 638.23 A 43.0639 43.0639 0 0 1 1276.42 664.525 A 44.7183 44.7183 0 0 1 1272.58 698.988 C 1265.69 711.295 1254.59 718.276 1241.25 721.754 C 1231.45 723.216 1222.46 722.58 1213.45 718.101 A 45.5645 45.5645 0 0 1 1190.4 690.355 C 1186.75 678.199 1188.52 665.41 1194.89 654.471 C 1202.04 642.208 1212.71 636.841 1225.86 633.248 z"/>
<path transform="translate(0,0)" fill="rgb(64,63,62)" d="M 1424.82 681.442 C 1462.97 681.77 1504.02 695.419 1533.8 719.515 C 1568.91 747.928 1592.52 788.914 1597.11 833.99 C 1601.61 878.214 1588.62 920.243 1560.4 954.646 C 1528.52 993.514 1488.16 1010.09 1438.98 1015 C 1394.76 1015.92 1352.54 1001.41 1319.17 972.168 C 1286.46 943.512 1265.6 899.673 1263.09 856.341 A 163.961 163.961 0 0 1 1304.19 736.643 C 1335.92 701.406 1378.01 684.056 1424.82 681.442 z"/>
<path transform="translate(0,0)" fill="rgb(254,254,254)" d="M 1414.26 695.394 C 1450.26 692.079 1488.81 703.647 1517.98 724.813 C 1552.04 749.532 1576.07 786.485 1582.56 828.202 C 1588.79 868.225 1579.75 905.402 1555.67 938.062 C 1528.66 974.692 1492.97 994.09 1448.46 1000.87 C 1408.04 1003.42 1369.5 995.178 1336.99 970.019 C 1302.97 943.691 1282.48 905.806 1277.31 863.213 A 148.78 148.78 0 0 1 1307.75 752.575 C 1334.46 719.097 1372.01 700.116 1414.26 695.394 z"/>
<path transform="translate(0,0)" fill="rgb(64,63,62)" d="M 1462.64 769.516 C 1464.82 769.584 1466.27 769.672 1468.31 770.541 C 1487.86 778.841 1504.64 801.605 1512 820.862 C 1514.92 828.501 1521.68 848.479 1517.07 855.727 C 1515.41 858.341 1513.77 858.068 1510.97 858.453 C 1507.63 858.164 1502.06 858.227 1499.05 856.665 C 1493.69 853.888 1494.32 835.082 1492.68 829.266 C 1486.63 807.743 1472.08 795.23 1453.39 784.461 C 1455.9 778.838 1458.78 774.262 1462.64 769.516 z"/>
<path transform="translate(0,0)" fill="rgb(64,63,62)" d="M 1344.42 832.889 C 1349.12 832.942 1355.88 832.997 1360.11 835.121 C 1361.73 835.93 1363.68 837.542 1364.17 839.307 C 1365.27 843.296 1364.02 848.347 1364.03 852.505 C 1364.04 857.675 1365.53 863.329 1367.05 868.277 C 1375.2 894.787 1394.64 907.687 1417.85 920.066 C 1415.5 923.004 1413.34 926.15 1411.11 929.186 C 1409.46 931.34 1407.62 933.401 1405.88 935.489 C 1389.97 926.48 1375.96 917.199 1364.57 902.647 C 1348.83 882.526 1341.28 858.293 1344.42 832.889 z"/>
<path transform="translate(0,0)" fill="rgb(64,63,62)" d="M 1497.02 730.42 C 1498.84 730.49 1500.7 730.566 1502.5 730.888 C 1519.72 733.963 1542.04 764.59 1550.67 778.239 C 1563.2 798.054 1571.06 818.105 1572.64 841.606 C 1572.95 846.147 1573.68 851.041 1572.66 855.491 C 1570.62 857.345 1570.05 856.99 1567.25 857.106 C 1562.43 857.016 1557.6 856.759 1552.78 856.566 C 1549.16 829.631 1549.06 810.642 1534.89 786.176 C 1525.2 769.441 1508.46 750.435 1489.22 745.313 C 1492.13 740.528 1494.52 735.434 1497.02 730.42 z"/>
<path transform="translate(0,0)" fill="rgb(64,63,62)" d="M 1487.55 746.767 C 1512.45 763.01 1530.89 784.27 1540.33 812.779 C 1543.84 823.398 1549.8 848.936 1544.84 858.928 C 1540.82 861.602 1532.76 859.121 1528.24 858.28 C 1523.5 855.869 1524.4 849.21 1523.78 844.485 C 1521.49 826.864 1515.75 810.552 1505.45 795.963 C 1496.8 783.717 1481.72 768.958 1466.39 766.418 C 1474.04 760.772 1480.73 753.391 1487.55 746.767 z"/>
<path transform="translate(0,0)" fill="rgb(64,63,62)" d="M 1293.38 821.549 C 1296.76 821.669 1300.31 821.946 1303.47 823.282 C 1305.29 824.051 1307.39 825.493 1307.82 827.561 C 1308.58 831.21 1307.52 837.673 1307.43 841.602 C 1307.1 855.86 1308.15 870.831 1312.72 884.448 C 1326.78 926.352 1348.8 944.305 1386.7 963.648 C 1385.42 968.084 1383.7 972.163 1381.85 976.37 C 1378.75 977.978 1376.59 977.942 1373.35 976.857 C 1368.25 975.15 1363.13 971.6 1358.55 968.777 C 1334.1 953.68 1315.71 932.98 1303.49 906.9 C 1293.03 884.578 1284.74 845.418 1293.38 821.549 z"/>
<path transform="translate(0,0)" fill="rgb(64,63,62)" d="M 1317.81 827.127 C 1323.39 827.522 1330.98 827.563 1335.48 831.264 C 1339.6 834.652 1337.28 849.604 1338.08 855.208 A 107.761 107.761 0 0 0 1377.03 923.818 C 1384.76 930.104 1393.39 935.061 1401.27 941.147 C 1398.43 946.819 1395.28 952.157 1391.92 957.533 C 1390.8 958.656 1390.01 960.221 1388.29 960.126 C 1384.24 959.901 1379.81 955.239 1376.45 953.106 C 1364.79 945.708 1354.49 939.471 1345.2 928.978 C 1323.78 904.807 1310.39 871.872 1313 839.32 C 1313.39 834.464 1313.96 830.395 1317.81 827.127 z"/>
<path transform="translate(0,0)" fill="rgb(64,63,62)" d="M 1425.36 795.239 C 1437.59 794.346 1449.46 796.325 1459.82 803.235 C 1471.35 810.933 1479.59 823.923 1482.11 837.531 C 1484.84 852.223 1481.85 867.731 1473.11 879.956 C 1463.87 892.881 1451.1 899.113 1435.85 901.739 C 1423.86 902.655 1412.39 900.995 1401.93 894.658 C 1390.26 887.587 1382.35 875.646 1379.54 862.365 C 1376.29 847.008 1380.01 830.334 1388.85 817.426 C 1397.85 804.297 1410.05 797.917 1425.36 795.239 z"/>
<path transform="translate(0,0)" fill="rgb(254,254,254)" d="M 1429.82 801.346 C 1439.95 801.59 1449.42 804.251 1457.63 810.381 A 45.5565 45.5565 0 0 1 1475.46 840.562 C 1477.31 853.269 1474.61 866.769 1466.82 877.109 C 1458.37 888.322 1446.22 893.684 1432.62 895.356 C 1421.96 895.561 1412.15 893.585 1403.34 887.264 A 45.0828 45.0828 0 0 1 1385.35 858.016 C 1383.25 844.828 1387.21 830.425 1395.17 819.771 C 1403.94 808.033 1415.71 803.154 1429.82 801.346 z"/>
<path transform="translate(0,0)" fill="rgb(64,63,62)" d="M 1428.28 829.158 C 1431.75 829.058 1435.11 828.965 1438.44 830.096 A 17.5155 17.5155 0 0 1 1448.5 838.928 C 1450.89 843.746 1450.98 849.524 1449.11 854.531 C 1446.5 861.531 1441.83 864.786 1435.19 867.58 C 1431.75 867.435 1427.97 867.447 1424.71 866.232 C 1419.71 864.371 1415.31 860.403 1413.15 855.516 A 17.862 17.862 0 0 1 1413.14 840.919 C 1416.15 834.257 1421.71 831.45 1428.28 829.158 z"/>
<path transform="translate(0,0)" fill="rgb(254,254,254)" d="M 874.288 576.231 C 877.465 576.586 880.593 576.923 883.483 578.393 C 888.798 581.096 891.217 586.707 893.114 592.052 C 898.626 607.588 901.616 624.593 905.882 640.56 L 934.016 744.053 L 965.799 861.062 C 970.878 879.406 977.917 898.135 981.462 916.778 C 982.812 923.879 982.965 932.06 979.565 938.647 C 977.318 943.001 973.192 946.682 968.599 948.398 C 952.798 954.302 930.652 958.386 913.911 962.831 C 884.044 970.761 854.447 979.657 824.616 987.755 L 588.171 1052.66 C 554.6 1061.97 520.875 1070.6 487.443 1080.41 C 477.732 1081.89 471.745 1080.51 463.293 1075.52 C 460.823 1071.38 459.299 1067.14 458.055 1062.51 C 447.619 1023.73 439.094 984.378 430.033 945.261 C 423.397 916.614 416.106 888.029 409.201 859.432 L 388.453 772.945 C 385.164 758.944 380.818 744.336 379.015 730.073 C 378.304 724.448 378.985 718.869 382.026 713.989 C 384.416 710.155 387.628 707.339 391.861 705.74 C 400.567 702.452 410.351 700.555 419.364 698.158 L 470.342 684.607 L 622.819 643.711 L 784.56 600.247 C 814.277 592.136 844.184 582.744 874.288 576.231 z"/>
<path transform="translate(0,0)" fill="rgb(64,63,62)" d="M 887.185 843.93 C 888.763 843.977 890.448 843.999 891.989 844.363 C 894.929 845.057 897.731 847.443 899.052 850.096 C 900.498 852.998 900.488 856.124 899.413 859.158 C 897.837 863.608 894.786 865.297 890.75 867.314 C 890.111 867.161 889.471 867.015 888.834 866.854 C 884.778 865.834 881.446 864.352 879.325 860.51 C 877.763 857.681 877.536 854.862 878.542 851.765 C 879.919 847.526 883.377 845.623 887.185 843.93 z"/>
<path transform="translate(0,0)" fill="rgb(64,63,62)" d="M 415.72 725.991 C 417.746 725.974 419.541 726.01 421.551 726.369 C 425.115 727.003 428.126 729.445 429.919 732.53 C 431.499 735.248 431.773 738.499 430.916 741.493 C 429.507 746.409 426.344 748.8 422.067 751.21 A 47.3184 47.3184 0 0 1 418.511 750.675 C 414.335 749.896 411.05 748.277 408.741 744.574 C 406.787 741.44 406.474 738.199 407.544 734.645 C 408.776 730.551 412.223 728.034 415.72 725.991 z"/>
<path transform="translate(0,0)" fill="rgb(64,63,62)" d="M 488.136 1028.98 C 489.698 1029.01 491.199 1029.19 492.722 1029.54 C 496.434 1030.38 499.566 1032.47 501.516 1035.79 C 503.255 1038.75 503.612 1042.22 502.747 1045.52 C 501.494 1050.3 498.167 1052.77 494.152 1055.24 C 491.539 1055.08 489.113 1054.86 486.648 1053.9 C 483.103 1052.53 480.318 1049.46 478.96 1045.93 C 477.717 1042.71 477.841 1039.46 479.261 1036.32 C 481.126 1032.19 484.089 1030.58 488.136 1028.98 z"/>
<path transform="translate(0,0)" fill="rgb(64,63,62)" d="M 834.784 847.102 C 838.478 846.66 842.274 846.367 845.933 847.247 C 851.71 848.636 856.897 852.245 859.77 857.499 A 20.1568 20.1568 0 0 1 861.329 873.052 C 859.137 880.295 854.588 884.175 848.097 887.554 C 844.95 888.001 841.375 888.233 838.249 887.516 C 832.488 886.196 827.035 882.03 824.048 876.97 C 821.277 872.276 820.358 866.7 821.79 861.41 C 823.706 854.33 828.636 850.508 834.784 847.102 z"/>
<path transform="translate(0,0)" fill="rgb(64,63,62)" d="M 851.674 903.078 C 854.927 903.306 858.279 903.803 861.297 905.074 C 866.808 907.394 871.158 911.722 873.205 917.378 A 20.4651 20.4651 0 0 1 872.311 933.433 C 869.186 939.892 864.164 942.755 857.676 945.152 C 853.357 945.159 849.156 945.352 845.148 943.49 C 839.713 940.964 835.382 936.498 833.573 930.724 A 20.7407 20.7407 0 0 1 835.491 913.769 C 839.29 907.401 844.789 904.955 851.674 903.078 z"/>
<path transform="translate(0,0)" fill="rgb(64,63,62)" d="M 811.741 620.386 C 826.277 620.927 838.382 624.301 849.708 633.88 A 59.0323 59.0323 0 0 1 870.472 674.502 C 871.543 690.174 864.884 706.666 854.304 718.161 C 843.59 729.801 830.317 734.585 814.866 735.273 C 800.311 735.087 786.719 731.675 775.254 722.237 C 763.787 712.797 756.452 698.328 755.307 683.535 A 58.4771 58.4771 0 0 1 769.099 641.232 C 780.289 628.302 794.877 621.717 811.741 620.386 z"/>
<path transform="translate(0,0)" fill="rgb(254,254,254)" d="M 804.843 634.253 C 815.91 632.981 826.379 633.579 836.088 639.568 C 846.292 645.862 853.323 656.634 855.878 668.259 C 858.433 679.883 856.609 692.49 850.129 702.561 C 842.996 713.647 832.713 719.08 820.229 721.945 C 809.998 722.816 800.448 721.925 791.25 717.009 C 780.893 711.474 773.276 702.333 769.979 691.035 C 766.516 679.171 768.491 665.59 774.776 654.998 C 781.791 643.177 792.072 637.792 804.843 634.253 z"/>
<path transform="translate(0,0)" fill="rgb(64,63,62)" d="M 608.651 680.422 C 648.797 677.249 690.166 691.485 722.06 715.414 C 756.788 741.471 780.315 784.197 786.194 827.009 A 158.135 158.135 0 0 1 754.883 944.33 C 725.955 982.289 686.032 1002.72 639.247 1008.87 C 593.649 1011.96 550.139 999.907 514.875 970.187 A 163.286 163.286 0 0 1 457.17 859.074 C 453.61 814.752 465.664 772.562 494.732 738.692 A 165.337 165.337 0 0 1 608.651 680.422 z"/>
<path transform="translate(0,0)" fill="rgb(254,254,254)" d="M 607.458 694.391 C 607.995 694.316 608.53 694.22 609.07 694.165 C 646.017 690.43 685.977 704.483 714.733 727.272 C 746.699 752.605 768.724 791.259 773.215 831.911 A 144.875 144.875 0 0 1 741.688 939.442 A 154.509 154.509 0 0 1 636.243 996.484 C 635.948 996.54 635.656 996.614 635.358 996.652 C 600.283 1001.21 556.872 985.791 529.675 964.056 C 497.788 938.571 474.816 900.162 470.508 859.239 C 466.454 820.726 478.77 779.697 503.137 749.606 A 153.938 153.938 0 0 1 607.458 694.391 z"/>
<path transform="translate(0,0)" fill="rgb(64,63,62)" d="M 616.966 757.051 C 630.573 756.352 643.952 759.838 656.301 765.414 C 676.128 774.366 696.168 791.973 703.497 813.012 C 704.805 816.768 705.059 819.989 703.25 823.607 C 696.513 823.843 689.844 823.558 683.114 823.254 C 672.851 801.952 658.808 787.264 635.145 781.704 C 630.14 780.527 623.446 781.395 618.949 779.135 C 616.569 777.938 615.194 776.454 614.252 773.963 C 612.257 768.685 614.929 761.88 616.966 757.051 z"/>
<path transform="translate(0,0)" fill="rgb(64,63,62)" d="M 539.225 863.195 C 544.935 863.111 550.232 863.36 555.892 864.173 C 566.573 887.99 581.494 907.725 609.076 911.994 C 614.046 912.763 621.612 912.538 625.646 915.843 C 627.348 917.238 628.241 919.382 628.404 921.534 C 628.755 926.159 626.911 930.287 624.033 933.761 C 620.443 933.834 616.827 933.918 613.242 933.694 C 589.908 932.237 567.597 919.652 552.339 902.231 C 546.281 895.314 533.07 877.977 535.034 868.378 C 535.649 865.37 536.879 864.952 539.225 863.195 z"/>
<path transform="translate(0,0)" fill="rgb(64,63,62)" d="M 616.162 730.952 C 643.845 729.821 671.035 740.642 692.856 757.288 C 707.939 768.793 731.451 797.196 732.967 816.571 C 733.189 819.408 732.437 820.185 730.65 822.279 C 726.775 822.896 720.671 823.656 716.824 822.759 C 711.59 821.538 702.661 800.877 699.004 795.52 C 679.586 767.074 659.619 759.502 627.186 753.08 C 622.778 752.208 617.189 750.424 614.922 746.154 C 612.554 741.695 614.597 735.352 616.162 730.952 z"/>
<path transform="translate(0,0)" fill="rgb(64,63,62)" d="M 511.55 864.267 C 515.445 863.831 520.567 862.987 524.366 863.832 C 526.258 864.252 526.864 864.889 527.878 866.503 C 534.436 876.947 536.989 888.903 544.64 899.515 C 556.874 916.486 577.501 931.877 598.229 936.267 C 605.531 937.814 613.224 937.731 620.579 939.041 C 623.304 939.526 625.478 939.655 626.852 942.364 C 629.198 946.989 627.641 954.303 626.419 959.033 C 603.182 959.305 582.135 955.084 561.805 943.392 C 537.521 929.425 516.842 904.723 509.945 877.2 C 508.623 871.925 508.694 868.954 511.55 864.267 z"/>
<path transform="translate(0,0)" fill="rgb(64,63,62)" d="M 486.275 865.068 C 491.258 864.56 496.271 864.746 501.273 864.798 C 505.405 881.211 511.166 897.221 520.655 911.35 C 537.46 936.373 567.124 956.016 596.862 961.448 C 605.409 963.009 614.671 961.974 623.068 963.916 C 625.37 964.449 626.277 964.767 627.328 966.95 C 629.309 971.062 628 978.49 626.201 982.449 C 612.85 984.274 597.835 981.536 584.956 978.03 C 549.746 968.445 517.706 944.076 499.815 912.058 C 493.593 900.924 482.674 877.691 486.275 865.068 z"/>
<path transform="translate(0,0)" fill="rgb(64,63,62)" d="M 616.762 706.963 C 644.222 705.798 672.492 713.886 695.855 728.138 C 725.064 745.955 750.464 778.068 757.816 811.941 C 758.777 816.365 758.688 818.19 756.212 822.013 C 752.934 822.604 749.337 823.316 746.006 822.974 C 743.483 822.715 741.506 821.708 740.122 819.56 C 737.332 815.231 736.024 808.844 734.356 803.954 C 730.171 791.683 723.731 780.777 715.424 770.798 C 691.226 741.73 654.754 727.933 618.064 724.676 C 616.704 722.654 614.913 720.322 614.338 717.921 C 613.296 713.568 614.867 710.721 616.762 706.963 z"/>
<path transform="translate(0,0)" fill="rgb(64,63,62)" d="M 616.531 793.202 C 627.695 792.356 637.199 793.393 647.182 798.736 A 54.5798 54.5798 0 0 1 673.834 832.445 A 55.5593 55.5593 0 0 1 668.519 874.852 C 659.616 890.16 646.732 896.995 630.169 901.097 C 616.458 902.514 602.855 900.187 591.135 892.695 C 579.408 885.199 571.666 873.702 569.039 860.049 A 57.856 57.856 0 0 1 578.131 816.387 C 587.566 802.799 600.678 796.164 616.531 793.202 z"/>
<path transform="translate(0,0)" fill="rgb(254,254,254)" d="M 618.51 799.182 A 46.0441 46.0441 0 0 1 645.83 805.46 A 47.7261 47.7261 0 0 1 667.831 835.268 A 49.054 49.054 0 0 1 661.232 873.371 C 653.209 885.696 641.855 892.205 627.78 895.201 C 617.268 895.964 607.87 894.773 598.524 889.584 C 587.453 883.438 578.71 873.164 575.632 860.766 C 572.423 847.842 575.197 833.478 582.267 822.292 C 590.878 808.668 603.213 802.345 618.51 799.182 z"/>
<path transform="translate(0,0)" fill="rgb(64,63,62)" d="M 615.002 830.182 C 618.72 829.813 622.423 829.433 626.085 830.412 C 630.922 831.704 635.338 835.521 637.685 839.899 C 639.859 843.956 640.548 848.895 639.095 853.308 C 637.127 859.286 633.102 862.366 627.601 864.951 C 624.539 865.537 621.486 865.875 618.371 865.431 A 17.8043 17.8043 0 0 1 606.003 857.445 C 603.441 853.433 602.87 848.536 603.889 843.94 C 605.381 837.215 609.435 833.737 615.002 830.182 z"/>
</svg>