<svg version="1.1" xmlns="http://www.w3.org/2000/svg" style="display: block;" viewBox="0 0 2048 2048" width="1024" height="1024">
<path transform="translate(0,0)" fill="rgb(254,254,254)" d="M 0 0 L 2048 0 L 2048 2048 L 0 2048 L 0 0 z"/>
<path transform="translate(0,0)" fill="rgb(236,68,66)" d="M 1023.62 63.8037 C 1036.14 70.2834 1075.25 109.706 1088.8 122.187 C 1113.11 105.476 1137.24 87.7693 1162.54 72.6105 C 1181.68 95.2571 1199.56 118.847 1218.51 141.621 A 3293.7 3293.7 0 0 0 1297.65 103.052 C 1313.42 128.065 1328.69 153.375 1344.61 178.307 C 1370.52 167.252 1399.32 159.823 1426.2 151.141 C 1438.14 177.786 1447.38 205.598 1459.29 232.307 C 1488.08 226.191 1517.39 221.824 1546.31 216.167 C 1551.18 243.974 1559.45 271.72 1566.39 299.077 L 1654.52 297.779 A 5404.1 5404.1 0 0 0 1662.06 383.682 C 1687.4 384.06 1722.57 390.078 1748.11 394.119 L 1745.79 480.839 A 4965.03 4965.03 0 0 0 1830.57 501.631 C 1825.38 530.027 1820.91 558.459 1814.74 586.674 A 3601.11 3601.11 0 0 0 1897.88 620.469 C 1887.09 648.017 1879.41 677.542 1870.43 705.779 A 1949.13 1949.13 0 0 0 1943.44 750.31 C 1933.29 777.411 1920.06 804.357 1906.74 830.027 C 1930.72 846.364 1953.12 866.081 1975.32 884.755 C 1965.47 898.213 1956.56 912.262 1947.11 925.986 C 1940.07 936.212 1932.52 946.091 1925.96 956.641 C 1946.33 978.471 1965.58 1001.32 1985.71 1023.36 C 1966.7 1046.06 1945.81 1067.24 1925.67 1088.94 C 1943.13 1113.05 1960 1137.74 1977.08 1162.13 C 1951.89 1180.54 1927.57 1200.09 1902.04 1218.01 C 1918.71 1243.2 1933.02 1271.12 1947.81 1297.49 C 1920.56 1312.16 1893.6 1328.08 1867.01 1343.9 C 1876.77 1371.02 1886.29 1398.17 1896.8 1425.02 C 1869.59 1437.43 1841.41 1447.6 1814.3 1460.34 C 1818.75 1489.5 1825.16 1518.44 1831.18 1547.31 C 1804.47 1555.27 1776.89 1561.2 1749.68 1567.21 C 1749.37 1596.69 1747.77 1626.34 1748.42 1655.8 C 1721.27 1658.04 1692.7 1660.25 1665.91 1665.14 C 1661.29 1695 1656.38 1724.79 1652.62 1754.77 C 1625.42 1751.43 1597.38 1751.22 1570 1750.13 C 1561.91 1778.08 1552.6 1805.67 1544.58 1833.66 C 1516.57 1828.49 1488.88 1820.98 1460.82 1816.41 C 1448.96 1843.18 1438.06 1870.36 1426.32 1897.18 C 1416.87 1893.29 1406.69 1890.48 1396.98 1887.28 C 1379.19 1881.43 1361.49 1875.57 1343.45 1870.53 C 1329.1 1894.81 1313.49 1918.56 1298.49 1942.45 A 4910.78 4910.78 0 0 0 1217.59 1906.07 C 1199.78 1928.94 1180.8 1950.89 1163.08 1973.84 C 1138.67 1957.04 1112.8 1939.76 1086.74 1925.66 C 1077.99 1934.66 1030.64 1981.92 1023.44 1984.48 L 1020.67 1982.26 C 999.561 1964.43 978.666 1945.11 958.598 1926.1 A 3906.68 3906.68 0 0 1 913.872 1956.72 C 904.046 1963.39 894.338 1970.68 883.802 1976.18 C 866.723 1951.96 847.684 1928.85 829.446 1905.48 C 818.549 1911.8 806.951 1916.86 795.642 1922.38 A 4899.95 4899.95 0 0 0 749.956 1945.35 L 705.679 1869.22 C 677.29 1878.08 649.166 1888.01 620.847 1897.14 C 610.306 1868.97 598.361 1841.21 587.412 1813.17 A 3188.43 3188.43 0 0 0 503.081 1830.61 C 493.747 1803.8 487.53 1775.32 480.592 1747.8 C 451.981 1749.02 423.335 1751.93 394.741 1752.72 C 390.319 1723.61 386.036 1694.06 383.211 1664.76 A 1693.45 1693.45 0 0 0 299.025 1655.6 C 299.066 1626.22 298.995 1596.86 300.133 1567.5 C 289.325 1565.63 278.59 1562.76 267.824 1560.57 C 250.26 1557 232.594 1553.92 215.014 1550.43 A 5929.89 5929.89 0 0 0 234.161 1462.93 C 205.198 1452.4 176.938 1439.75 148.038 1428.96 C 157.119 1401.07 167.007 1373.09 177.972 1345.9 C 153.546 1328.6 126.143 1314.05 100.365 1298.82 C 112.886 1271.71 128.204 1245.25 143.287 1219.48 C 120.372 1199.43 95.5398 1181.11 71.6316 1162.24 C 86.9028 1137.3 104.406 1112.87 121.163 1088.87 L 62.1925 1023.39 A 1981.35 1981.35 0 0 0 121.129 955.239 A 1846.42 1846.42 0 0 0 72.7482 884.615 C 96.0626 866.747 117.869 845.999 140.168 826.845 C 127.978 801.601 113.18 777.526 101.577 752.075 C 115.179 742.407 129.925 733.972 144.04 725.052 C 155.233 717.978 166.056 710.232 177.519 703.612 A 2624.08 2624.08 0 0 1 148.905 620.116 A 6551.08 6551.08 0 0 1 232.503 585.873 A 1877.11 1877.11 0 0 0 217.016 501.601 C 244.669 494.348 272.671 488.4 300.368 481.268 A 4064.24 4064.24 0 0 0 297.913 394.251 C 326.412 392.541 355.486 388.14 383.843 384.665 C 385.251 356.384 390.117 327.612 393.058 299.399 A 1708.29 1708.29 0 0 1 482.308 300.199 C 489.968 272.388 495.813 243.796 502.65 215.748 C 531.169 222.202 560.804 225.89 589.681 230.611 C 599.938 203.562 609.362 176.305 620.594 149.628 C 648.899 157.442 676.74 167.73 704.749 176.616 C 709.252 167.54 715.079 158.877 720.306 150.194 A 1898.09 1898.09 0 0 0 748.85 101.827 C 776.005 113.994 801.757 129.327 828.956 141.562 C 846.884 117.96 865.51 94.9033 883.203 71.1163 C 909.09 86.1343 934.776 105.747 959.118 123.257 C 979.763 102.985 1001.15 82.0169 1023.62 63.8037 z"/>
<path transform="translate(0,0)" fill="rgb(66,66,66)" d="M 979.165 130.431 A 887.664 887.664 0 0 1 1609.52 347.338 A 906.407 906.407 0 0 1 1919.77 971.872 C 1927.97 1094.21 1905.2 1233.03 1859.97 1347.05 C 1846.08 1382.05 1828.68 1416.68 1810.97 1449.9 A 882.191 882.191 0 0 1 1697.66 1616.13 C 1535.74 1800.41 1316.1 1901.16 1072.11 1916.81 A 897.14 897.14 0 0 1 425.017 1690.11 A 887.336 887.336 0 0 1 130.283 1074.34 A 894.19 894.19 0 0 1 356.177 427.59 A 888.486 888.486 0 0 1 979.165 130.431 z"/>
<path transform="translate(0,0)" fill="rgb(236,68,66)" d="M 992.756 175.5 A 843.966 843.966 0 0 1 1528.42 341.619 C 1550.85 358.156 1572.13 376.545 1592.98 395.007 C 1755.63 539.016 1857.33 756.07 1870.39 972.143 A 859.859 859.859 0 0 1 1653.25 1594.99 A 838.318 838.318 0 0 1 1183.44 1856.41 C 1140.61 1864.41 1097.7 1868.09 1054.25 1870.59 L 1051.77 1870.68 A 849.789 849.789 0 0 1 443.578 1642.59 A 842.122 842.122 0 0 1 176.303 1053.67 A 848.719 848.719 0 0 1 407.788 442.133 A 846.003 846.003 0 0 1 992.756 175.5 z"/>
<path transform="translate(0,0)" fill="rgb(254,254,254)" d="M 1003.17 210.436 A 139.995 139.995 0 0 1 1009 210.197 A 807.01 807.01 0 0 1 1587.51 437.976 A 807.535 807.535 0 0 1 1836.09 998.479 C 1837.31 1057.55 1833.96 1115.16 1823.36 1173.36 C 1795.96 1323.85 1719.76 1475.53 1613.65 1585.98 A 808.95 808.95 0 0 1 1042.75 1835.1 C 820.464 1840.27 623.639 1760.61 461.072 1610.86 C 415.818 1569.17 376.323 1520.21 342.928 1468.65 A 816.7 816.7 0 0 1 209.957 1053.33 A 816.034 816.034 0 0 1 424.985 474.276 A 821.591 821.591 0 0 1 924.218 216.118 C 950.478 212.753 976.741 211.482 1003.17 210.436 z"/>
<path transform="translate(0,0)" fill="rgb(66,66,66)" d="M 313.617 1185.49 L 1184.74 1185.25 L 1546.28 1185.18 A 14093.7 14093.7 0 0 1 1783.56 1185.83 C 1780.93 1208.34 1773.49 1232.14 1767.02 1253.85 A 788.746 788.746 0 0 1 1540.58 1607.83 A 772.196 772.196 0 0 1 1209.59 1779.14 A 791.34 791.34 0 0 1 609.665 1682.81 A 768.869 768.869 0 0 1 300.352 1313.45 C 283.958 1271.86 272.378 1229.48 262.122 1186.05 L 313.617 1185.49 z"/>
<path transform="translate(0,0)" fill="rgb(254,254,254)" d="M 1079.31 1453.89 A 3890.96 3890.96 0 0 1 1172.24 1453.84 L 1172.14 1477.64 L 1138.43 1477.74 C 1137.98 1499.7 1138.46 1521.78 1138.54 1543.75 L 1138.48 1577.9 L 1112.88 1577.55 L 1112.81 1477.46 A 974.463 974.463 0 0 0 1079.59 1477.68 C 1079.31 1469.76 1079.38 1461.81 1079.31 1453.89 z"/>
<path transform="translate(0,0)" fill="rgb(254,254,254)" d="M 1321.88 1240.71 C 1332.57 1240.42 1343.34 1240.67 1354.04 1240.7 L 1354.01 1394.13 L 1322.1 1394.15 L 1321.88 1240.71 z"/>
<path transform="translate(0,0)" fill="rgb(254,254,254)" d="M 679.408 1451.4 C 697.176 1451.45 710.048 1457.7 723.607 1468.66 C 717.32 1474.75 711.579 1481.25 705.793 1487.8 C 705.588 1487.63 705.384 1487.45 705.176 1487.28 L 704.129 1486.44 C 699.699 1482.83 695.192 1480.33 689.648 1478.77 C 681.158 1476.39 671.848 1476.8 664.169 1481.42 C 655.25 1486.78 649.545 1496.54 647.517 1506.57 C 645.207 1517.98 647.331 1530.6 654.076 1540.2 C 658.789 1546.91 665.428 1551.29 673.559 1552.58 C 686.318 1554.61 695.113 1549.92 704.945 1542.66 L 714.476 1551.92 C 717.677 1555.12 720.537 1558.69 723.47 1562.14 C 713.508 1571.24 701.657 1578.62 688.067 1580.54 A 57.9519 57.9519 0 0 1 643.95 1568.4 C 630.072 1557.4 621.603 1540.7 619.966 1523.15 C 618.31 1505.4 622.517 1486.49 634.307 1472.74 C 646.229 1458.84 661.558 1452.96 679.408 1451.4 z"/>
<path transform="translate(0,0)" fill="rgb(254,254,254)" d="M 1015.04 1451.96 C 1017.5 1451.86 1019.61 1452.02 1022.04 1452.43 C 1027.54 1460.05 1035.28 1485.11 1039.31 1495.1 C 1050.48 1522.72 1062.36 1550.07 1073.69 1577.63 L 1045.79 1577.93 C 1043.78 1572.53 1041.43 1567.27 1039.14 1561.98 L 1021.34 1561.36 L 997.087 1561.15 C 995.662 1566.57 993.988 1571.93 992.393 1577.3 L 960.093 1577.3 C 979.54 1536.08 995.165 1492.91 1015.04 1451.96 z"/>
<path transform="translate(0,0)" fill="rgb(66,66,66)" d="M 1017.16 1512.6 C 1022.67 1518.11 1027.32 1531.48 1029.48 1538.98 C 1026.98 1540.7 1020.92 1539.73 1017.75 1539.69 L 1005.95 1539.69 C 1009.31 1530.56 1013.42 1521.59 1017.16 1512.6 z"/>
<path transform="translate(0,0)" fill="rgb(254,254,254)" d="M 1366.09 1240.89 L 1476.9 1240.89 C 1477.07 1250.58 1476.99 1260.29 1477.03 1269.99 L 1437.08 1270.19 L 1437.21 1353.5 L 1437.19 1393.06 L 1405.1 1393.04 A 9149.75 9149.75 0 0 1 1405.07 1270.16 C 1392.09 1270.11 1379.09 1270.4 1366.11 1270.54 L 1366.09 1240.89 z"/>
<path transform="translate(0,0)" fill="rgb(254,254,254)" d="M 812.976 1453.41 C 822.003 1453.14 831.076 1453.35 840.109 1453.37 L 840.151 1480.5 C 840.274 1503.43 844.942 1544.74 829.5 1563.27 C 821.112 1573.34 808.605 1578.79 795.741 1580.06 C 780.78 1581.54 765.198 1577.51 753.657 1567.63 C 744.972 1560.2 741.032 1550.97 740.129 1539.72 C 739.517 1532.1 739.22 1456.64 740.101 1455 C 740.421 1454.4 740.979 1453.96 741.418 1453.45 C 750.23 1453.31 759.056 1453.38 767.87 1453.35 L 767.288 1504.42 C 767.184 1514.55 766.353 1525.46 767.817 1535.49 C 768.476 1540 769.561 1544.73 772.819 1548.12 C 776.993 1552.47 783.751 1553.54 789.497 1553.57 C 796.292 1553.6 803.669 1552.08 808.536 1546.97 C 810.38 1545.04 811.981 1542.65 812.484 1539.99 C 814.278 1530.48 813.245 1519.54 813.216 1509.83 L 812.976 1453.41 z"/>
<path transform="translate(0,0)" fill="rgb(254,254,254)" d="M 1568.13 1240.69 A 938.383 938.383 0 0 1 1602.89 1240.82 C 1599.54 1248.75 1594.4 1256.46 1590.13 1263.98 L 1564.91 1308.18 C 1562.25 1312.56 1559.19 1317.14 1557.81 1322.1 C 1553.97 1335.91 1556.53 1377.57 1556.37 1393.9 L 1523.68 1394.07 C 1523.44 1374.53 1526.23 1343.8 1523.43 1325.82 C 1521.16 1311.22 1486.85 1259.29 1477.84 1240.95 L 1513.2 1240.67 C 1522.14 1257.68 1530.7 1275.11 1540.6 1291.57 C 1549.83 1274.59 1559.42 1257.97 1568.13 1240.69 z"/>
<path transform="translate(0,0)" fill="rgb(254,254,254)" d="M 1326.3 1453.97 C 1345.15 1453.78 1368.4 1451.19 1386.41 1457.1 C 1395.37 1460.04 1402.94 1465.44 1406.92 1474.19 C 1411.52 1484.27 1411.28 1498.23 1407.12 1508.41 C 1402.5 1519.71 1394.48 1524.86 1383.82 1529.46 C 1393.59 1545.21 1404.16 1561.09 1412.21 1577.77 C 1402.88 1577.81 1393.07 1578.48 1383.81 1577.41 C 1372.8 1558.87 1360.07 1539.73 1353.15 1519.22 A 1594.73 1594.73 0 0 1 1353.93 1577.05 L 1327.3 1577.03 C 1327.07 1536.01 1325.81 1495 1326.3 1453.97 z"/>
<path transform="translate(0,0)" fill="rgb(66,66,66)" d="M 1354.15 1477.35 C 1362.8 1476.97 1370.89 1476.38 1377.89 1482.6 C 1380.78 1485.16 1382.26 1488.22 1382.34 1492.11 C 1382.46 1497.23 1379.89 1502.53 1376.57 1506.25 C 1369.33 1509.69 1361.94 1509.67 1354.09 1510.02 L 1354.15 1477.35 z"/>
<path transform="translate(0,0)" fill="rgb(254,254,254)" d="M 862.86 1453.48 C 880.277 1453.08 905.627 1450.01 921.803 1455.22 C 930.99 1458.17 938.772 1464.24 942.974 1473.03 C 947.3 1482.07 947.486 1493.43 943.812 1502.72 C 939.118 1514.58 930.702 1519.88 919.585 1524.69 C 927.732 1543.22 940.891 1560.74 952.133 1577.53 C 942.616 1577.73 931.151 1579 921.816 1577.43 C 910.196 1559.16 899.271 1540.12 890.282 1520.42 C 889.548 1539.39 890.031 1558.53 889.708 1577.53 C 880.538 1577.82 871.322 1577.63 862.146 1577.63 C 861.92 1562.02 860.174 1460.47 862.86 1453.48 z"/>
<path transform="translate(0,0)" fill="rgb(66,66,66)" d="M 890.11 1477.12 C 898.919 1476.94 906.461 1476.74 914.075 1482.06 C 917.175 1484.23 919.568 1487.14 919.782 1491.06 C 920.063 1496.2 916.665 1500.91 913.195 1504.32 C 905.912 1507.43 897.843 1508.67 890.111 1510.26 L 890.11 1477.12 z"/>
<path transform="translate(0,0)" fill="rgb(254,254,254)" d="M 498.031 1238.39 C 498.219 1238.38 498.406 1238.35 498.594 1238.34 C 522.143 1237.11 540.012 1245.77 557.351 1261.09 C 550.036 1268.89 542.721 1276.5 534.816 1283.71 C 527.855 1277.14 520.453 1272.24 510.84 1270.58 C 499.281 1268.6 486.95 1271.93 477.431 1278.64 C 466.984 1286.01 460.642 1297.52 458.889 1310.08 C 457.102 1322.88 460.003 1335.7 467.919 1346.03 C 474.774 1354.96 485.5 1361.72 496.835 1362.81 C 511.566 1364.22 523.38 1355.9 534.219 1347.14 L 539.234 1351.69 A 435.039 435.039 0 0 1 557.857 1371.4 C 544.005 1383.47 529.456 1392.31 510.938 1394.68 C 491.59 1397.17 473.758 1392.68 458.436 1380.5 A 77.7803 77.7803 0 0 1 428.954 1327.66 C 426.649 1306.09 431.829 1284.39 445.573 1267.38 C 458.732 1251.08 477.252 1240.65 498.031 1238.39 z"/>
<path transform="translate(0,0)" fill="rgb(254,254,254)" d="M 1132.98 1240.62 A 853.735 853.735 0 0 1 1164.12 1240.8 L 1164.09 1273.68 L 1164.12 1311.89 C 1164.09 1335.42 1165.04 1359.04 1147.58 1377.33 C 1136.61 1388.82 1121.67 1394.98 1105.89 1395.28 C 1089.4 1395.59 1072.56 1390.09 1060.7 1378.34 A 52.8667 52.8667 0 0 1 1046.7 1354.21 C 1040.76 1332.36 1043.91 1266.56 1044.01 1240.82 C 1054.53 1240.4 1065.02 1240.63 1075.54 1240.83 A 4130.85 4130.85 0 0 1 1075.92 1302.91 C 1075.96 1314.07 1075.14 1326.14 1076.76 1337.16 C 1077.71 1343.61 1079.26 1351.23 1083.65 1356.28 C 1088.25 1361.55 1095.52 1363.36 1102.26 1363.48 C 1110.12 1363.63 1118.3 1361.68 1123.96 1355.91 C 1128.1 1351.69 1130.08 1345.81 1131.17 1340.11 C 1133.39 1328.42 1132.63 1315.53 1132.75 1303.64 A 6157.22 6157.22 0 0 0 1132.98 1240.62 z"/>
<path transform="translate(0,0)" fill="rgb(254,254,254)" d="M 1184.89 1237.85 C 1185.19 1237.86 1185.49 1237.86 1185.79 1237.86 C 1187.19 1237.9 1190.31 1237.84 1191.51 1238.27 C 1192.89 1238.75 1261.97 1314.5 1269.66 1322.52 L 1270.01 1240.71 A 670.617 670.617 0 0 1 1301.95 1240.86 L 1302.04 1334.29 C 1302.12 1353.6 1302.84 1373.13 1301.83 1392.4 C 1300.17 1394.99 1298.39 1395.3 1295.63 1396.56 C 1285.59 1387.76 1276.73 1375.62 1267.72 1365.59 A 5752.96 5752.96 0 0 0 1216.24 1309.59 L 1216.48 1393.95 L 1183.07 1394.04 A 4439.99 4439.99 0 0 1 1183.8 1290.33 C 1183.99 1273.19 1182.8 1254.75 1184.89 1237.85 z"/>
<path transform="translate(0,0)" fill="rgb(236,68,66)" d="M 1026.31 1597.73 C 1030.57 1613.89 1031.5 1647.18 1032.92 1665.22 C 1049.97 1655.91 1065.24 1641.18 1080.69 1629.35 C 1070.67 1645.26 1056.76 1659.86 1043.98 1673.62 A 7170.48 7170.48 0 0 1 1261.22 1678.09 C 1283.62 1679.05 1306.21 1679.06 1328.55 1681.01 C 1315.95 1683.68 1302.31 1683.48 1289.47 1684.25 C 1260.43 1685.99 1231.44 1687.13 1202.38 1688.35 C 1149.25 1690.59 1096.38 1695.28 1043.15 1695.15 C 1056.39 1710.24 1070.48 1724.88 1081.65 1741.63 C 1065.34 1729.98 1049.75 1717.99 1034.11 1705.47 C 1030.54 1727.75 1027.99 1750.6 1026 1773.08 C 1023.79 1765.97 1022.91 1758.29 1021.67 1750.95 A 3873.33 3873.33 0 0 0 1015.45 1703.31 C 1003.94 1715.33 981.944 1731.66 967.782 1740.25 C 979.038 1724.47 992.499 1709.71 1005.19 1695.05 C 984.719 1694.85 964.342 1693.44 943.899 1692.64 A 6567.3 6567.3 0 0 1 818.799 1687.09 C 781.151 1685.05 743.601 1682.4 705.902 1681.28 C 730.959 1675.46 777.555 1677.51 804.641 1676.94 A 9819.22 9819.22 0 0 1 1005.84 1673.66 C 992.29 1659.18 979.675 1644.35 967.359 1628.8 C 984.882 1638.76 1000.47 1653.2 1016.93 1664.93 C 1016.71 1646.09 1020.8 1615.68 1026.31 1597.73 z"/>
<path transform="translate(0,0)" fill="rgb(254,254,254)" d="M 1244.65 1451.41 A 64.4706 64.4706 0 0 1 1287.94 1465.51 A 62.7446 62.7446 0 0 1 1310.84 1508.42 C 1312.65 1526.28 1307.56 1542.96 1296.09 1556.75 C 1284.25 1571 1268.87 1578.75 1250.55 1580.55 C 1235.4 1581.48 1219.26 1575.92 1207.46 1566.51 C 1193.99 1555.77 1186.11 1540.2 1184.36 1523.16 C 1182.56 1505.56 1186.39 1488.22 1197.85 1474.46 C 1210.01 1459.87 1226.1 1453.17 1244.65 1451.41 z"/>
<path transform="translate(0,0)" fill="rgb(66,66,66)" d="M 1240.69 1477.13 C 1248 1476.35 1254.22 1476.53 1261.01 1479.67 C 1270.53 1484.09 1277.51 1492.64 1280.78 1502.53 A 42.1915 42.1915 0 0 1 1278.02 1535.45 C 1272.98 1544.84 1265.62 1549.79 1255.69 1552.95 C 1247.45 1553.98 1239.9 1553.73 1232.27 1550.11 C 1223.22 1545.81 1216.61 1537.77 1213.5 1528.3 C 1210.03 1517.7 1211 1505.24 1216.29 1495.39 C 1221.71 1485.27 1230.08 1480.33 1240.69 1477.13 z"/>
<path transform="translate(0,0)" fill="rgb(254,254,254)" d="M 840.128 1237.65 C 842.473 1237.99 844.697 1238.12 846.691 1239.53 C 848.001 1240.45 848.481 1242.02 848.838 1243.52 C 852.461 1258.79 853.167 1276.23 855.249 1291.88 A 9066.72 9066.72 0 0 0 869.461 1392.97 L 837.279 1393.35 C 835.35 1372.54 832.152 1351.73 829.366 1331.02 C 820.549 1351.62 812.319 1372.49 801.624 1392.22 C 797.223 1392.63 792.707 1392.45 788.287 1392.46 C 777.065 1370.85 768.699 1347.75 757.498 1326.06 C 756.006 1340.78 753.429 1355.36 752.083 1370.09 C 750.861 1377.69 750.303 1385.49 749.474 1393.14 L 717.137 1393.28 C 723.862 1356.21 727.941 1318.38 733.291 1281.06 C 734.851 1270.18 735.379 1258.58 737.658 1247.89 C 738.36 1244.59 739.287 1242.1 741.057 1239.24 C 743.31 1237.79 743.237 1237.64 745.858 1238.03 C 747.797 1239.22 748.815 1240.25 749.973 1242.23 C 755.219 1251.2 759.062 1261.77 763.361 1271.29 C 773.505 1293.75 783.339 1316.6 794.608 1338.52 C 811.949 1305.86 824.027 1270.87 840.128 1237.65 z"/>
<path transform="translate(0,0)" fill="rgb(254,254,254)" d="M 902.015 1237.79 C 904.45 1237.94 906.591 1238.28 908.959 1238.86 C 915.232 1243.29 947.779 1325.74 954.069 1340.02 C 961.236 1325.43 995.719 1242.14 1000.47 1238.59 C 1003.24 1238.1 1003.39 1237.94 1005.87 1239.21 C 1007.71 1241.74 1008.55 1243.8 1009.2 1246.87 C 1012.17 1260.87 1012.92 1276.53 1014.9 1290.81 A 4079.24 4079.24 0 0 0 1030.06 1393.02 C 1019.48 1393.31 1008.86 1393.21 998.272 1393.25 L 994.522 1365.32 A 1078.48 1078.48 0 0 1 990.546 1326.81 C 981.666 1349.1 972.563 1372.04 960.806 1392.98 C 956.239 1393.07 951.653 1392.95 947.084 1392.91 C 935.797 1373.18 925.989 1344.96 916.634 1323.39 C 914.726 1346.78 910.743 1370.36 907.647 1393.63 L 874.531 1393.29 C 876.546 1373.01 882.1 1352.24 885.453 1332.08 C 890.302 1302.93 893.449 1273.1 899.376 1244.18 C 899.894 1241.65 900.594 1239.93 902.015 1237.79 z"/>
<path transform="translate(0,0)" fill="rgb(254,254,254)" d="M 627.607 1239.27 C 644.942 1237.98 661.104 1241.53 675.666 1251.26 A 74.5569 74.5569 0 0 1 707.92 1300.03 C 711.912 1321.15 707.87 1343.98 695.521 1361.73 C 683.656 1378.79 665.741 1391.08 645.244 1394.71 C 627.085 1395.89 611.678 1393.71 596.332 1383.25 C 578.933 1371.39 568.415 1353.4 564.73 1332.84 C 560.755 1310.66 565.097 1287.87 578.229 1269.38 C 590.463 1252.15 606.977 1242.76 627.607 1239.27 z"/>
<path transform="translate(0,0)" fill="rgb(66,66,66)" d="M 632.072 1270.27 C 640.498 1269.71 649.571 1272.03 656.854 1276.25 C 667.356 1282.34 674.549 1292.42 677.557 1304.12 C 680.893 1317.1 679.053 1331.58 671.973 1343.02 C 664.64 1354.87 654.756 1359.64 641.673 1362.5 C 631.727 1363.4 622.317 1361.73 613.816 1356.26 C 603.674 1349.73 596.936 1338.96 594.609 1327.21 C 591.959 1313.83 594.803 1298.96 602.815 1287.85 C 610.085 1277.76 619.986 1272.25 632.072 1270.27 z"/>
<path transform="translate(0,0)" fill="rgb(66,66,66)" d="M 993.387 246.442 A 793.601 793.601 0 0 1 1165.73 258.386 A 769.537 769.537 0 0 1 1663.2 578.007 A 782.713 782.713 0 0 1 1787.93 1160.88 C 1688.44 1159.63 1588.85 1160.54 1489.35 1160.65 L 1052.78 1160.75 L 257.487 1160.83 A 829.258 829.258 0 0 1 245.471 1047.55 C 237.6 850.518 312.874 645.482 446.939 500.777 A 779.876 779.876 0 0 1 993.387 246.442 z"/>
<path transform="translate(0,0)" fill="rgb(254,254,254)" d="M 1201.61 321.721 C 1207.5 325.871 1211.09 336.536 1216.82 342.108 C 1229.31 346.684 1243.03 346.212 1255.46 351.029 C 1270.38 356.806 1277.27 367.42 1283.43 381.359 C 1266.94 370.711 1245.49 368.623 1226.65 364.238 C 1232.59 374.743 1238.55 385.295 1245.07 395.451 C 1253.29 408.268 1262.54 420.892 1268.62 434.914 C 1269.62 442.343 1269.54 449.199 1265.57 455.812 C 1261.68 462.282 1254.86 466.513 1247.57 468.091 C 1240.11 469.705 1231.75 468.626 1225.42 464.184 A 20.2957 20.2957 0 0 1 1216.89 450.744 C 1215.78 444.257 1217.42 436.347 1221.25 430.963 C 1226.98 422.905 1236.5 420.176 1245.72 418.478 C 1240.97 406.445 1233.19 395.309 1226.37 384.347 C 1215.04 366.133 1203.19 347.968 1193.02 329.086 C 1195.75 326.496 1198.73 324.137 1201.61 321.721 z"/>
<path transform="translate(0,0)" fill="rgb(254,254,254)" d="M 813.894 358.106 L 814.641 359.057 C 815.548 369.643 814.981 380.622 814.956 391.256 L 814.897 445.799 C 814.894 461.681 814.747 477.575 814.912 493.456 C 815.02 503.935 815.808 514.792 815.135 525.235 C 814.846 529.732 814.069 534.219 812.233 538.363 C 808.799 546.113 802.206 550.228 794.515 553.167 C 783.629 557.328 771.508 556.253 760.974 551.548 C 753.611 548.259 747.277 542.885 744.591 535.088 A 24.8438 24.8438 0 0 1 746.122 515.464 C 750.661 506.756 759.208 500.833 768.573 498.322 C 781.684 494.807 791.594 498.507 802.849 504.843 C 802.912 470.044 805.321 435.315 805.669 400.507 C 763.953 422.939 720.755 437.185 672.892 436.967 L 672.869 453.682 L 672.113 526 C 672.038 539.183 673.411 553.215 671.928 566.253 C 671.405 570.848 670.281 575.371 668.122 579.483 C 663.966 587.398 656.758 592.714 648.309 595.31 C 636.491 598.941 623.186 597.713 612.436 591.495 C 605.593 587.537 600.331 581.491 598.549 573.671 C 596.962 566.7 598.508 559.655 602.362 553.697 C 607.634 545.547 616.618 539.865 626.047 537.865 C 638.362 535.253 649.04 539.661 659.161 546.237 C 659.3 498.853 661.495 451.355 662.913 403.991 C 672.665 402.747 682.557 402.48 692.338 401.258 C 736.33 395.757 777.396 384.103 813.894 358.106 z"/>
<path transform="translate(0,0)" fill="rgb(66,66,66)" d="M 802.74 381.933 L 803.417 382.565 L 803.233 383.993 C 776.978 408.661 709.506 420.208 674.16 422.115 C 673.255 421.228 673.701 421.843 673.26 420.02 C 678.674 416.863 704.699 415.566 712.904 413.898 C 743.648 407.647 775.614 397.769 802.74 381.933 z"/>
<path transform="translate(0,0)" fill="rgb(254,254,254)" d="M 1472.07 489.033 C 1473.58 488.886 1472.64 488.866 1474.84 489.581 C 1491.39 536.654 1505.21 585.026 1520.1 632.653 C 1527.26 655.515 1537.87 679.285 1541.38 702.992 C 1542.79 712.507 1542.52 720.876 1538.83 729.909 C 1532.59 745.175 1520.03 758.23 1504.6 764.332 A 50.8652 50.8652 0 0 1 1465.05 763.694 C 1454.14 758.785 1445.72 750.135 1441.61 738.845 C 1437.43 727.333 1438.38 716.014 1443.83 705.096 C 1450.79 691.186 1464.23 679.65 1479.09 675.081 C 1493 670.806 1505.74 673.245 1518.24 680.02 C 1519.08 676.016 1476.73 549.811 1471.55 533.999 A 396.297 396.297 0 0 0 1461.01 538.991 C 1421.91 558.42 1402.88 593.805 1389.51 633.47 C 1382.3 627.233 1376.98 619.69 1373.83 610.646 C 1367.68 593.004 1371.35 573.545 1379.65 557.268 C 1397.48 522.319 1436.1 500.711 1472.07 489.033 z"/>
<path transform="translate(0,0)" fill="rgb(66,66,66)" d="M 1461.08 510.95 L 1462.81 511.329 C 1463.78 512.873 1464.36 513.852 1464.65 515.697 C 1465.37 520.324 1457.93 523.245 1454.55 524.83 C 1428.06 537.25 1408.92 558.908 1391.23 581.543 L 1389.92 582.37 L 1389.23 581.099 C 1389.81 577.543 1390.94 574.285 1392.3 570.963 C 1405.34 539.056 1430.63 523.846 1461.08 510.95 z"/>
<path transform="translate(0,0)" fill="rgb(254,254,254)" d="M 1480.02 825.662 C 1508.56 842.304 1545.44 873.901 1559.87 903.53 C 1573.34 931.187 1571.52 960.713 1561.55 989.148 A 105.184 105.184 0 0 0 1557.16 979.753 C 1543.1 953.274 1517.49 934.924 1489.26 926.262 A 7692.77 7692.77 0 0 1 1485.63 1006.78 C 1484.72 1025.66 1485.63 1048.26 1480.34 1066.43 C 1478.86 1069.68 1477.39 1073.01 1475.49 1076.03 A 46.5629 46.5629 0 0 1 1444.49 1096.95 C 1427.84 1100.08 1406.93 1094.99 1393.29 1084.91 C 1384.55 1078.46 1378.9 1069.15 1377.35 1058.37 C 1375.69 1046.76 1379.72 1035.31 1386.99 1026.29 C 1396.28 1014.75 1410.88 1007.63 1425.55 1006.42 C 1442.06 1005.05 1456.7 1011.66 1468.93 1022.25 C 1469.5 986.442 1473.19 950.31 1474.99 914.501 C 1476.46 885.356 1475.54 854.432 1480.02 825.662 z"/>
<path transform="translate(0,0)" fill="rgb(66,66,66)" d="M 1492.88 856.52 C 1513.02 867.71 1539.91 896.057 1549.98 917.18 C 1554.27 926.176 1559.63 941.041 1556.16 950.803 C 1538.39 928.994 1517.64 916.664 1490.99 907.961 C 1491.29 890.803 1492.79 873.703 1492.88 856.52 z"/>
<path transform="translate(0,0)" fill="rgb(254,254,254)" d="M 550.086 628.506 C 550.46 628.645 550.839 628.774 551.208 628.924 C 560.332 632.624 569.206 638.131 577.781 642.971 C 608.278 660.187 635.933 679.266 650.692 712.282 C 659.756 732.557 663.116 758.664 654.646 779.722 C 653.37 782.894 652.202 785.226 648.912 786.573 C 645.29 785.901 645.172 784.245 643.816 780.946 C 639.61 770.707 635.669 760.55 628.111 752.201 C 614.016 736.629 584.387 726.547 564.979 718.378 A 3674.66 3674.66 0 0 0 567.587 851.752 C 568.198 861.679 568.33 870.836 563.761 879.955 C 557.565 892.317 545.515 899.642 532.793 903.858 C 515.707 909.519 497.161 908.593 481.15 900.029 C 471.011 894.605 462.553 886.252 459.423 874.938 C 456.736 865.231 458.273 855.062 463.299 846.383 C 470.614 833.751 483.775 825.267 497.749 821.773 C 516.968 816.969 534.488 821.306 551.084 831.428 C 549.321 763.855 547.298 696.083 550.086 628.506 z"/>
<path transform="translate(0,0)" fill="rgb(66,66,66)" d="M 565.987 654.258 C 577.272 659.301 588.165 666.617 598.074 673.941 C 624.861 693.742 638.251 713.548 643.209 746.634 C 620.499 723.585 594.954 713.669 565.375 701.987 A 2668.94 2668.94 0 0 1 565.987 654.258 z"/>
<path transform="translate(0,0)" fill="rgb(254,254,254)" d="M 1184.02 510.374 C 1191.98 510.508 1199.29 511.698 1205.96 516.322 C 1213.1 521.268 1218 528.801 1221.03 536.831 C 1225.94 549.84 1226.85 564.94 1228.85 578.667 A 3149.96 3149.96 0 0 0 1238.11 640.453 A 168.503 168.503 0 0 1 1242.71 639.403 C 1252.65 637.299 1262.89 638.014 1271.48 643.87 C 1275.95 646.915 1281.73 652.363 1283.57 657.575 C 1290.24 676.496 1294.07 712.867 1298.02 734.339 L 1336.07 947.079 C 1338.61 960.514 1340.21 973.7 1331.61 985.57 C 1328.07 990.454 1322.61 994.218 1316.89 996.099 C 1299.26 1001.91 1279.21 1004.13 1260.94 1007.6 L 1170.13 1025.42 A 14300.5 14300.5 0 0 1 849.216 1086.97 C 830.751 1090.66 798.743 1101.03 781.133 1094.91 C 772.067 1091.76 764.179 1084.43 760.222 1075.69 C 754.185 1062.36 753.185 1043.37 750.593 1028.81 L 731.606 919.189 A 7388.83 7388.83 0 0 1 716.4 833.406 C 713.729 817.937 710.451 802.288 709.089 786.652 C 708.302 777.62 708.383 770.365 711.968 761.813 C 718.78 745.559 731.623 736.98 747.178 730.388 C 745.937 711.651 739.569 681.851 741.413 664.624 C 742.086 658.336 744.233 652.132 748.247 647.183 C 752.519 641.915 757.934 638.518 764.257 636.224 C 790.014 626.883 817.384 620.346 843.646 612.454 L 1009.92 561.954 L 1127.16 526.232 C 1145.36 520.719 1165.18 512.306 1184.02 510.374 z"/>
<path transform="translate(0,0)" fill="rgb(66,66,66)" d="M 994.87 994.065 C 996.066 994.27 997.376 994.443 998.541 994.815 C 1001.63 995.804 1003.93 997.606 1005.43 1000.5 C 1006.81 1003.14 1007.08 1006.01 1005.91 1008.78 C 1004.28 1012.66 1001.4 1013.78 997.691 1014.93 C 997.421 1014.87 997.148 1014.83 996.88 1014.76 C 992.771 1013.69 989.471 1012.19 987.403 1008.2 C 986.15 1005.78 985.806 1003.25 986.823 1000.65 C 988.356 996.736 991.224 995.433 994.87 994.065 z"/>
<path transform="translate(0,0)" fill="rgb(66,66,66)" d="M 808.133 1034.83 C 812.39 1035.19 816.12 1036.04 818.822 1039.63 C 820.423 1041.75 820.982 1044.34 820.47 1046.95 C 819.627 1051.24 816.73 1053.2 813.351 1055.45 C 812.369 1055.56 811.897 1055.65 810.837 1055.61 C 807.529 1055.47 804.254 1054.32 802.281 1051.49 C 800.716 1049.24 800.456 1046.39 800.985 1043.77 C 801.904 1039.23 804.397 1037.25 808.133 1034.83 z"/>
<path transform="translate(0,0)" fill="rgb(66,66,66)" d="M 1114.92 971.755 C 1116.63 971.78 1116.94 971.754 1118.72 971.916 C 1121.74 972.192 1124.19 973.625 1125.92 976.123 C 1127.63 978.577 1128.04 981.32 1127.46 984.202 C 1126.49 988.973 1123.99 990.857 1120.01 993.331 C 1116.12 992.938 1112.48 992.359 1109.86 989.117 C 1108.43 987.339 1107.82 985.316 1107.95 983.051 C 1108.27 977.836 1111.13 974.971 1114.92 971.755 z"/>
<path transform="translate(0,0)" fill="rgb(66,66,66)" d="M 1273.92 938.81 C 1274.94 938.827 1274.94 938.809 1276.13 938.93 C 1279.75 939.299 1283.28 940.397 1285.49 943.541 C 1287.11 945.854 1287.82 948.056 1287.41 950.865 C 1286.79 955.255 1284.38 957.265 1281.07 959.822 C 1279.86 959.91 1279.24 959.978 1277.97 959.955 C 1274.55 959.892 1271.52 958.955 1269.26 956.217 C 1267.78 954.423 1267.17 952.264 1267.3 949.964 C 1267.59 944.728 1270.26 942.139 1273.92 938.81 z"/>
<path transform="translate(0,0)" fill="rgb(66,66,66)" d="M 771.151 763.118 C 774.75 762.897 778.399 762.772 781.876 763.91 A 22.1833 22.1833 0 0 1 794.907 775.424 A 20.5988 20.5988 0 0 1 795.611 791.524 C 792.905 798.623 787.601 801.965 780.912 804.853 C 775.227 805.097 770.083 805.012 765.063 801.951 C 758.351 797.859 756.336 791.157 754.621 784.004 C 755.078 781.875 755.589 779.764 756.294 777.701 C 758.921 770.009 764.195 766.623 771.151 763.118 z"/>
<path transform="translate(0,0)" fill="rgb(66,66,66)" d="M 852.269 747.131 C 855.861 746.779 859.48 746.545 863.041 747.313 C 868.727 748.54 873.911 752.489 876.723 757.562 A 21.6413 21.6413 0 0 1 878.157 774.985 C 875.73 781.918 870.796 786.079 864.341 789.106 C 860.783 789.354 857.084 789.444 853.618 788.469 C 847.821 786.839 842.486 783.078 839.569 777.744 A 20.2807 20.2807 0 0 1 838.067 761.797 C 840.488 754.195 845.541 750.777 852.269 747.131 z"/>
<path transform="translate(0,0)" fill="rgb(66,66,66)" d="M 939.239 729.032 C 942.387 728.98 945.16 729.122 948.199 730.03 C 954.563 731.93 960.124 736.597 962.96 742.616 A 20.5699 20.5699 0 0 1 963.387 759.28 C 960.576 765.931 955.337 769.547 948.794 771.995 C 944.798 772.439 940.924 772.421 937.075 771.086 A 20.8996 20.8996 0 0 1 925.048 760.398 A 22.433 22.433 0 0 1 924.296 742.947 C 927.081 735.485 932.221 732.104 939.239 729.032 z"/>
<path transform="translate(0,0)" fill="rgb(66,66,66)" d="M 1023.24 713.072 C 1027.18 712.978 1030.83 713.107 1034.55 714.538 A 21.4699 21.4699 0 0 1 1046.87 726.893 A 21.9632 21.9632 0 0 1 1045.97 744.419 C 1042.54 751.173 1037.37 753.917 1030.39 756.007 C 1027.44 756.188 1024.66 756.223 1021.77 755.486 C 1016.29 754.085 1011.28 750.573 1008.62 745.519 C 1005.8 740.177 1005.54 733.848 1007.58 728.2 C 1010.47 720.215 1015.81 716.495 1023.24 713.072 z"/>
<path transform="translate(0,0)" fill="rgb(66,66,66)" d="M 1105.99 698.079 C 1109.79 697.888 1113.35 697.92 1117 699.133 C 1122.53 700.97 1127.28 705.381 1129.74 710.627 A 21.8563 21.8563 0 0 1 1130.29 728.042 C 1127.42 735.146 1122.07 738.595 1115.29 741.5 C 1111.58 741.781 1108.14 741.79 1104.54 740.702 A 21.3005 21.3005 0 0 1 1091.3 729.334 A 21.9807 21.9807 0 0 1 1091.02 711.821 C 1093.95 704.628 1099.1 701.073 1105.99 698.079 z"/>
<path transform="translate(0,0)" fill="rgb(66,66,66)" d="M 1187.16 683.17 C 1191.12 682.674 1195.01 682.493 1198.89 683.654 C 1204.96 685.472 1210.18 689.637 1212.96 695.374 A 21.0683 21.0683 0 0 1 1213.93 711.478 C 1211.38 718.728 1206.31 722.251 1199.66 725.416 C 1195.7 726.056 1192.02 726.541 1188.06 725.595 A 20.4033 20.4033 0 0 1 1175.33 716.444 A 22.3383 22.3383 0 0 1 1172.82 699.191 C 1175.01 690.99 1180.02 687.122 1187.16 683.17 z"/>
<path transform="translate(0,0)" fill="rgb(66,66,66)" d="M 1039.78 793.738 C 1041.13 793.866 1042.47 794.152 1043.81 794.385 C 1047.93 805.582 1048.81 823.229 1050.92 835.386 L 1069.2 939.719 C 1070.66 948.278 1080.53 994.204 1078.73 998.724 C 1078.23 1000 1074.77 1001.05 1073.48 1001.64 L 1070.57 1001.01 C 1068.62 998.518 1068.2 995.674 1067.59 992.65 C 1061.36 961.498 1057.05 929.635 1051.58 898.296 C 1045.71 864.627 1038.59 830.896 1033.86 797.064 C 1035.13 794.555 1037.21 794.602 1039.78 793.738 z"/>
<path transform="translate(0,0)" fill="rgb(66,66,66)" d="M 1007.36 799.931 L 1008.75 800.085 C 1009.44 800.805 1009.63 800.92 1010.12 801.947 C 1013.41 808.825 1014.66 827.349 1016.15 835.731 C 1024.7 883.997 1031.66 932.892 1041.12 980.945 C 1042.34 987.143 1047.33 999.476 1044.24 1005.07 C 1043.46 1006.49 1039.89 1007.03 1038.34 1007.51 C 1037.14 1007.67 1037.94 1007.64 1035.97 1007.01 C 1031 995.735 1023.98 942.102 1021.2 926.131 L 1007.71 849.257 C 1005.04 834.123 1001.33 818.285 1000.4 802.953 C 1002.46 800.533 1004.32 800.652 1007.36 799.931 z"/>
<path transform="translate(0,0)" fill="rgb(66,66,66)" d="M 1205.9 807.263 C 1216.73 806.9 1226.67 809.419 1235.31 816.173 C 1244.94 823.706 1251.66 835.733 1253.02 847.876 C 1253.96 856.25 1252.42 864.404 1248.94 872.046 C 1239.76 892.18 1204.15 929.588 1188.47 949.22 C 1178.7 942.501 1169.12 935.438 1159.48 928.521 C 1145.95 918.106 1131.39 908.575 1118.46 897.439 C 1108.41 888.786 1101.23 878.273 1100.57 864.612 C 1099.99 852.876 1104.34 840.678 1112.3 832.025 A 40.9327 40.9327 0 0 1 1140.67 818.842 C 1152.99 818.333 1162.41 823.383 1171.08 831.606 L 1171.58 830.845 C 1180.02 818.208 1190.83 810.199 1205.9 807.263 z"/>
<path transform="translate(0,0)" fill="rgb(185,0,0)" d="M 1174.42 854.374 C 1182.61 841.765 1188.39 827.528 1204.67 823.761 C 1211.47 822.188 1218.24 823.436 1224.01 827.361 C 1231.29 832.312 1235.89 840.395 1237.12 849.044 C 1238.67 859.912 1234.6 871.205 1227.88 879.674 C 1215.14 895.742 1196.63 911.969 1186.54 929.472 C 1170.74 918.948 1136.07 896.357 1124.19 883.333 C 1120.15 878.9 1116.77 873.763 1115.44 867.837 C 1114.3 862.736 1115.2 855.39 1117.92 850.882 C 1118.11 850.555 1118.36 850.262 1118.58 849.951 C 1121.53 843.888 1126.73 839.291 1132.96 836.789 C 1140.49 833.767 1149.32 834.144 1156.7 837.382 C 1163.98 841.203 1169.58 847.841 1174.42 854.374 z"/>
<path transform="translate(0,0)" fill="rgb(66,66,66)" d="M 881.068 829.394 C 905.058 827.54 930.477 838.84 948.335 854.21 C 967.241 870.483 978.25 893.68 979.988 918.488 C 981.829 944.761 973.984 970.237 956.57 990.143 C 939.558 1009.59 917.896 1019.85 892.254 1021.57 C 870.215 1023.2 847.274 1014.13 830.396 1000.36 C 809.738 983.512 796.968 960.323 794.286 933.756 A 95.7571 95.7571 0 0 1 815.233 863.121 C 831.866 842.791 855.325 832.034 881.068 829.394 z"/>
<path transform="translate(0,0)" fill="rgb(236,68,66)" d="M 880.965 902.205 C 885.04 901.659 888.928 901.425 892.93 902.591 C 899.737 904.574 905.449 908.806 908.806 915.11 A 23.8893 23.8893 0 0 1 910.324 934.317 C 907.236 942.931 901.495 946.771 893.684 950.558 C 888.178 951.257 883.535 951.698 878.248 949.697 A 23.4492 23.4492 0 0 1 865.063 937.299 A 26.0167 26.0167 0 0 1 864.582 917.184 C 867.799 909.186 873.328 905.488 880.965 902.205 z"/>
<path transform="translate(0,0)" fill="rgb(66,66,66)" d="M 1182.34 547.023 C 1184.72 546.771 1186.36 546.9 1188.69 547.466 C 1192.54 551.156 1199.7 632.574 1201.34 646.71 C 1177.05 651.792 1152.35 655.494 1127.92 659.927 L 993.846 684.448 L 796.78 721.726 A 643.322 643.322 0 0 1 785.508 723.468 C 782.594 706.357 778.493 688.673 778.88 671.25 C 794.182 664.561 811.008 660.328 826.965 655.413 A 4432.01 4432.01 0 0 1 912.742 629.586 L 1076.36 579.936 C 1111.7 569.129 1147.44 559.169 1182.34 547.023 z"/>
</svg>