<svg version="1.1" xmlns="http://www.w3.org/2000/svg" style="display: block;" viewBox="0 0 2048 2048" width="1024" height="1024">
<path transform="translate(0,0)" fill="rgb(225,224,220)" d="M 0 0 L 2048 0 L 2048 2048 L 0 2048 L 0 0 z"/>
<path transform="translate(0,0)" fill="rgb(49,50,49)" d="M 1018.99 110.132 C 1051.22 106.547 1062.38 138.729 1086.02 149.469 C 1104.25 157.75 1131.48 130.021 1148.95 123.461 C 1195.76 105.88 1205.42 163.082 1230.78 173.28 C 1242.76 178.097 1261.02 166.477 1272.21 161.841 C 1336.87 135.061 1334.26 205.084 1367.03 218.247 L 1368.36 218.767 C 1386 216.599 1402.37 208.263 1420.46 208.219 C 1450.72 208.147 1460.38 235.013 1469.75 258.69 C 1472.33 265.232 1474.72 272.762 1480 277.697 C 1490.02 287.08 1519.96 280.32 1533.43 280.318 C 1592.49 280.308 1571.75 341.685 1590.22 359.772 C 1607.72 376.91 1650.39 356.41 1670.79 385.44 C 1684.86 405.466 1674.02 443.727 1687.08 456.77 C 1701.45 471.127 1738 464.188 1756.82 483.787 C 1773.62 501.282 1765.34 526.765 1765.1 548.059 C 1764.73 581.468 1808.86 579.029 1827.65 598.92 C 1849.88 622.469 1831.44 650.054 1831.35 674.665 C 1831.27 698.203 1869.93 708.979 1884.26 724.711 C 1912.45 755.661 1874.02 784.317 1874.1 810.463 C 1874.14 825.468 1904.04 843.58 1914.31 854.26 C 1938.64 879.588 1924.73 903.357 1908.55 927.603 C 1904.24 934.05 1898.85 941.168 1897.48 948.936 C 1894.39 966.433 1932.53 989.863 1936.95 1015.44 C 1944.19 1057.33 1898.82 1070 1897.1 1094.31 C 1895.62 1115.26 1928.46 1136.88 1927.07 1166.33 C 1925.76 1194.18 1897.62 1206.1 1880.27 1223.1 C 1877.44 1225.87 1874.55 1229.3 1873.74 1233.29 C 1870.71 1248.1 1893.93 1276.01 1892.83 1299.29 C 1891.7 1323.11 1872.29 1335.16 1853.16 1344.45 C 1846.77 1347.55 1839.34 1350.51 1834.17 1355.46 C 1820.08 1368.94 1839.53 1402.57 1838.12 1423.54 C 1835.3 1465.3 1790 1458.82 1769.05 1478.44 C 1766.92 1480.44 1764.85 1482.89 1764.14 1485.8 C 1761.1 1498.34 1767.25 1521.22 1766.94 1535.52 C 1766.13 1572.12 1736.02 1575.99 1707.08 1582 C 1701.32 1583.19 1693.87 1584.16 1689.16 1588 C 1677.95 1597.12 1684.45 1643.38 1673.31 1661.44 A 28.822 28.822 0 0 1 1664.82 1670.22 C 1644.55 1684.06 1601.78 1671.9 1591.41 1688.11 C 1586.43 1695.88 1585.14 1706.58 1583.06 1715.47 C 1579.72 1729.78 1576.26 1747.67 1564.98 1758 C 1545.12 1776.19 1519.34 1764.75 1496.25 1764.35 C 1491.21 1764.26 1487.19 1765.29 1483.44 1768.79 C 1469.62 1781.68 1467.19 1814.93 1449.1 1831.32 C 1424.91 1853.25 1394.68 1829.65 1371.39 1829.39 C 1367.22 1829.35 1363.93 1831 1360.91 1833.8 C 1348.36 1845.46 1341.16 1869.32 1326.56 1883.13 C 1295.23 1912.74 1265.92 1873.05 1238.39 1873.33 C 1222 1873.51 1205.48 1904.13 1193.84 1915.18 C 1154.37 1952.67 1118.63 1896 1095.41 1895.4 C 1074.72 1894.88 1055.09 1939.64 1019.36 1938.52 C 991.193 1932.68 979.264 1904.2 958.025 1897.58 C 943.266 1892.99 923.98 1912.3 911.597 1919.13 C 904.482 1923.05 896.808 1925.92 888.654 1926.59 C 847.405 1929.99 837.818 1878.86 815.122 1872.15 C 794.026 1865.92 764.125 1904.57 732.276 1887.73 C 711.198 1876.59 697.468 1834.16 685.362 1829.69 C 668.748 1823.55 638.785 1845.87 613.625 1838.15 C 585.431 1829.51 583.353 1796.72 571.613 1774.59 C 570.152 1771.83 568.097 1768.61 565.253 1767.1 C 552.029 1760.09 517.715 1772.96 497.348 1766.13 C 461.529 1754.13 472.424 1712.43 460.724 1690.29 C 458.65 1686.36 455.743 1683.34 451.571 1681.69 C 437.554 1676.16 412.113 1681.12 394.082 1675.21 C 353.267 1661.83 374.665 1616.1 362.151 1593.44 C 354.56 1579.7 324.72 1579.75 310.413 1575.29 C 256.943 1558.59 290.83 1512.61 281.734 1485.4 C 276.35 1469.3 232.623 1466.73 215.423 1445.03 C 192.621 1416.26 225.32 1383.54 216.719 1362.12 C 210.493 1346.62 170.836 1339.87 158.736 1315.59 C 146.987 1292.02 165.527 1268.94 172.807 1247.29 C 174.666 1241.76 175.75 1235.36 173.446 1229.79 C 167.592 1215.61 133.918 1203.16 124.223 1182.67 C 107.558 1147.47 140.898 1128.96 149.965 1103.01 C 157.134 1082.49 122.837 1062.56 113.703 1042.09 A 44.0594 44.0594 0 0 1 110.158 1018.15 C 113.709 989.099 142.176 978.488 151.331 953.492 L 151.83 952.09 C 144.519 930.214 123.615 915.568 119.3 892.747 C 114.101 865.251 134.224 849.765 154.037 836.128 C 160.067 831.978 167.099 827.692 171.177 821.459 C 173.277 818.251 174.529 814.487 174.149 810.626 C 172.873 797.65 156.858 777.338 153.25 760.505 C 142.693 711.252 205.303 707.728 217.257 687.23 C 223.57 676.404 216.282 659.745 213.461 648.486 C 194.402 572.428 270.837 589.624 282.099 563.905 C 291.742 541.886 272.358 513.934 287.808 489.453 C 300.396 469.506 327.753 469.644 348.142 464.903 C 380.75 457.321 359.43 413.172 376.393 387.13 C 391.649 363.708 424.522 371.895 447.488 366.208 C 452.225 365.035 456.894 362.772 459.8 358.727 C 469.345 345.442 467.019 316.045 479.466 297.22 C 499.913 266.296 532.219 286.662 560.269 280.704 C 563.888 279.935 567.125 278.705 569.654 275.884 C 578.451 266.074 584.265 240.599 592.988 227.15 C 619.531 186.226 657.841 223.558 684.022 217.427 C 696.343 214.541 703.908 192.158 710.008 182.307 A 113.105 113.105 0 0 1 716.143 173.372 C 753.326 124.688 790.342 179.447 815.389 173.527 C 835.999 168.655 846.04 128.864 875.187 122.467 C 899.2 117.197 917.535 133.952 936.418 145.576 C 942.093 149.069 948.501 152.216 955.353 151.284 C 973.582 148.805 992.898 116.598 1018.99 110.132 z"/>
<path transform="translate(0,0)" fill="rgb(206,90,77)" d="M 1020.73 145.791 C 1040.8 144.73 1064.55 187.529 1092.88 189.149 C 1120.47 190.726 1143.9 154.445 1161.98 155.848 C 1176.14 156.946 1190.87 184.439 1199.49 194.453 C 1236.42 237.374 1268.41 187.5 1295.32 190.723 C 1309.46 192.415 1324.14 228.893 1333.76 240.252 C 1352.95 262.893 1376.51 253.98 1400.31 246.4 C 1405.98 244.595 1412.2 242.3 1418.22 242.966 C 1433.94 244.701 1442.94 288.111 1454.8 302.723 C 1475.76 328.557 1507.09 310.239 1531.26 313.323 C 1553.53 316.166 1547.5 365.123 1562.73 384.338 C 1577.78 403.333 1606.81 398.336 1628.08 400.775 C 1631.65 401.185 1635.22 401.772 1638.47 403.395 C 1652.87 410.591 1643.38 457.725 1655.2 476.004 C 1672.36 502.539 1713.01 491.45 1728.48 505.849 C 1742.2 518.607 1723.99 563.122 1736.16 584.313 C 1749.07 606.773 1789.31 604.027 1801.7 621.011 C 1809.22 631.316 1799.19 657.66 1797.01 669.444 C 1786.7 725.081 1837.84 719.364 1855.63 746.309 C 1863.74 758.6 1839.71 791.915 1836.8 808.289 C 1829.89 847.038 1874.66 854.136 1889.64 877.854 C 1901.33 896.363 1864.82 924.888 1860.67 947.195 C 1855.22 976.493 1885.6 991.015 1898.72 1011.81 C 1915.37 1038.21 1865.42 1061.11 1860.27 1089.62 C 1856.58 1110.01 1872.27 1125.91 1882.88 1141.28 C 1887.78 1148.37 1893.41 1157.03 1891.4 1166.05 C 1888.06 1180.98 1846.38 1198.19 1838.3 1220.95 C 1828.74 1247.91 1863.04 1277.1 1857.18 1297.88 C 1853.26 1311.77 1824.41 1320.18 1812.82 1328.08 C 1786.87 1345.77 1792.92 1371.19 1799.81 1397.04 C 1801.69 1404.07 1804.2 1411.68 1802.52 1418.99 C 1798.88 1434.92 1759.69 1441.59 1745.52 1451.35 C 1722.82 1466.98 1729.91 1495.67 1732.26 1518.97 C 1732.8 1524.28 1733.74 1530.04 1732.57 1535.32 C 1729.47 1549.3 1683.61 1550.56 1668.03 1560.48 C 1640.98 1577.69 1652.32 1614.96 1646.21 1641.02 C 1624.28 1648.78 1598.64 1641.69 1577.39 1652.76 C 1552.19 1665.89 1554.96 1700.22 1546.75 1723.16 C 1543.06 1733.44 1534.76 1735.6 1524.58 1734.29 C 1511.25 1732.59 1497.66 1728.58 1484.12 1729.83 C 1442.53 1733.67 1443.87 1791.24 1426.4 1803.53 C 1413.82 1812.38 1375.44 1786.45 1354.07 1795.27 C 1327.86 1806.08 1319.73 1849.04 1301.16 1856.36 C 1291.71 1860.09 1268.67 1846.53 1258.78 1842.55 C 1250.87 1839.36 1241.59 1835.77 1232.95 1835.84 C 1200.14 1836.09 1190.13 1881.33 1163.27 1892.87 C 1143.08 1885.99 1128.35 1869.51 1108.89 1861.4 C 1072.18 1846.11 1054.35 1891.09 1027.79 1900.74 C 1023.05 1902.45 1020.43 1901.37 1016.08 1899.18 C 999.806 1887.99 987.176 1870.65 968.991 1862.35 C 935.409 1847.02 903.021 1895.64 884.778 1891.02 C 862.959 1885.5 848.872 1836 818.702 1834.03 C 795.645 1832.52 768.178 1858.95 749.908 1855.18 C 738.908 1852.92 726.854 1826.44 720.516 1816.66 C 699.112 1783.65 678.722 1791.91 646.694 1801.57 C 640.457 1803.45 633.44 1805.59 626.916 1803.94 C 613.856 1800.64 605.274 1764.12 598.75 1752.39 C 583.408 1724.82 555.792 1731.13 529.495 1733.75 C 523.999 1734.3 517.169 1735.36 511.869 1733.48 C 497.296 1728.3 496.834 1681.91 488.236 1666.4 C 472.81 1638.58 437.834 1652.87 413.697 1645.7 C 408.739 1644.23 403.98 1641.38 401.649 1636.6 C 394.047 1621.02 404.067 1590.78 391.981 1570.43 C 380.247 1550.68 349.023 1551.9 329.491 1546.36 C 295.958 1536.84 326.548 1494.66 312.597 1464.93 C 300.413 1438.96 253.726 1442.53 243.619 1423.22 C 238.246 1412.95 246.916 1395.94 250.013 1385.49 C 264.107 1337.93 240.967 1332.27 205.483 1313.71 C 200.3 1310.99 194.256 1307.54 191.611 1302.05 C 185.403 1289.18 205.245 1260.25 209.4 1246.95 C 224.584 1198.33 167.823 1193.68 155.554 1167.87 C 149.118 1154.34 180.588 1126.26 186.316 1106.98 C 196.85 1071.53 157.051 1052.51 142.174 1026.42 C 148.404 1007.85 164.167 997.028 175.953 982.25 C 212.561 936.35 151.816 907.872 152.484 885.769 C 152.871 872.994 193.389 851.289 202.948 839.971 C 228.68 809.508 188.809 780.554 188.005 755.078 C 187.364 734.77 231.886 727.612 246.835 710.094 C 265.833 687.83 244.982 651.325 243.22 625.796 C 256.964 604.899 290 610.258 307.97 593.664 C 327.963 575.201 314.212 542.253 315.572 518.908 C 317.252 490.054 368.232 504.106 388.227 484.694 C 401.769 471.548 399.477 445.645 400.066 428.267 C 401.612 382.597 450.709 410.701 478.252 391.814 C 503.529 374.481 491.991 331.495 508.724 317.042 C 518.584 308.526 546.049 316.355 558.384 317.124 C 599.607 319.692 601.552 291.711 612.787 261.128 C 614.817 255.603 617.872 248.143 622.754 244.591 C 632.159 237.748 665.683 251.762 677.066 253.819 C 710.257 259.817 720.211 232.067 733.45 208.018 C 736.83 201.878 740.263 195.109 746.329 191.181 C 760.995 181.682 793.707 208.422 811.525 211.302 C 844.732 216.67 855.6 175.177 877.878 160.468 C 881.869 157.833 885.988 156.569 890.74 157.536 C 907.517 160.951 926.491 183.82 947.752 188.245 C 975.704 194.063 998.199 159.956 1019.34 146.652 L 1020.73 145.791 z"/>
<path transform="translate(0,0)" fill="rgb(49,50,49)" d="M 232.256 1071.97 C 242.148 1081.87 260.561 1097.81 267.569 1108.85 A 450.369 450.369 0 0 1 282.589 1122.93 C 290.506 1164.18 298.525 1204.67 311.44 1244.72 A 758.141 758.141 0 0 0 602.862 1636.32 A 794.992 794.992 0 0 0 880.968 1756.29 C 893.856 1759.05 914.286 1764.92 927.151 1763.74 C 932.737 1769.17 937.942 1774.75 943.008 1780.67 C 954.231 1791.16 966.141 1801.43 976.756 1812.51 C 802.264 1794.82 636.207 1728.86 503.695 1612.66 C 486.925 1597.95 471.07 1581.93 455.48 1565.99 C 345.329 1453.36 270.938 1301.87 243.053 1147.31 C 239.185 1125.87 232.016 1093.25 232.256 1071.97 z"/>
<path transform="translate(0,0)" fill="rgb(206,90,77)" d="M 267.569 1108.85 A 450.369 450.369 0 0 1 282.589 1122.93 C 290.506 1164.18 298.525 1204.67 311.44 1244.72 A 758.141 758.141 0 0 0 602.862 1636.32 A 794.992 794.992 0 0 0 880.968 1756.29 C 893.856 1759.05 914.286 1764.92 927.151 1763.74 C 932.737 1769.17 937.942 1774.75 943.008 1780.67 C 915.772 1774.68 888.158 1770.51 861.048 1763.97 A 791.734 791.734 0 0 1 627.927 1667.38 A 775.975 775.975 0 0 1 293.224 1229.14 A 715.092 715.092 0 0 1 275.92 1156.37 C 273.063 1140.56 271.17 1124.51 267.569 1108.85 z"/>
<path transform="translate(0,0)" fill="rgb(49,50,49)" d="M 1072.04 237.581 C 1072.38 237.656 1072.72 237.734 1073.07 237.805 C 1091.25 241.561 1110.66 241.964 1129.13 244.396 C 1157.7 248.158 1186.37 254.316 1214.29 261.416 A 793.702 793.702 0 0 1 1681.65 596.128 C 1746.5 693.585 1793.47 815.251 1808.53 931.562 C 1810.44 946.362 1813.56 962.767 1813.37 977.694 A 3981.26 3981.26 0 0 1 1780.25 945.251 C 1774.46 940.016 1769.03 934.573 1763.66 928.913 C 1760.57 900.082 1753.6 870.605 1746.12 842.636 A 758.466 758.466 0 0 0 1551.32 503.132 A 752.201 752.201 0 0 0 1217.05 306.662 C 1188.04 298.32 1152.28 288.446 1122.03 288.246 C 1116.48 283.111 1111.29 277.784 1106.17 272.217 A 925.503 925.503 0 0 1 1072.04 237.581 z"/>
<path transform="translate(0,0)" fill="rgb(206,90,77)" d="M 1106.17 272.217 C 1135.08 274.297 1163.65 279.939 1191.87 286.343 A 766.537 766.537 0 0 1 1596.92 531.984 A 793.17 793.17 0 0 1 1768.75 875.934 C 1773.63 898.44 1778.84 922.237 1780.25 945.251 C 1774.46 940.016 1769.03 934.573 1763.66 928.913 C 1760.57 900.082 1753.6 870.605 1746.12 842.636 A 758.466 758.466 0 0 0 1551.32 503.132 A 752.201 752.201 0 0 0 1217.05 306.662 C 1188.04 298.32 1152.28 288.446 1122.03 288.246 C 1116.48 283.111 1111.29 277.784 1106.17 272.217 z"/>
<path transform="translate(0,0)" fill="rgb(49,50,49)" d="M 232.146 977.726 C 232.139 977.111 232.111 976.497 232.124 975.883 C 232.86 941.868 241.959 902.393 249.801 869.287 C 254.61 848.988 259.402 828.713 265.622 808.79 C 308.467 671.553 387.881 540.72 495.206 444.318 A 792.333 792.333 0 0 1 897.822 247.681 C 919.965 244.141 954.209 238.12 975.957 239.276 C 965.888 249.611 955.329 262.535 943.988 271.262 A 699.327 699.327 0 0 1 928.867 286.597 C 904.318 291.109 879.968 293.597 855.633 299.747 C 680.67 343.959 520.694 447.261 417.579 596.758 C 363.157 675.659 324.386 759.308 298.88 851.625 C 292.262 875.579 284.976 902.281 283.278 927.078 C 278.177 932.205 273.041 937.236 267.688 942.101 C 257.251 954.942 243.567 965.676 232.146 977.726 z"/>
<path transform="translate(0,0)" fill="rgb(206,90,77)" d="M 267.688 942.101 C 271.563 918.299 274.906 894.329 280.461 870.847 C 311.062 741.505 374.552 615.941 464.748 517.945 C 568.89 404.796 700.774 323.488 850.806 287.296 C 880.199 280.205 913.813 272.498 943.988 271.262 A 699.327 699.327 0 0 1 928.867 286.597 C 904.318 291.109 879.968 293.597 855.633 299.747 C 680.67 343.959 520.694 447.261 417.579 596.758 C 363.157 675.659 324.386 759.308 298.88 851.625 C 292.262 875.579 284.976 902.281 283.278 927.078 C 278.177 932.205 273.041 937.236 267.688 942.101 z"/>
<path transform="translate(0,0)" fill="rgb(49,50,49)" d="M 1813.71 1069.97 A 815.656 815.656 0 0 1 1519.4 1632.1 A 779.158 779.158 0 0 1 1153.75 1800.44 C 1134.05 1803.98 1092.32 1811.08 1073.92 1809.75 A 2411.64 2411.64 0 0 1 1107.13 1777.61 A 700.594 700.594 0 0 1 1121.85 1762.76 C 1141.45 1762.5 1172.32 1754.02 1191.91 1749.22 C 1314.92 1719.1 1429.71 1660.89 1521.81 1573.2 C 1627.15 1472.91 1700.6 1355.27 1741.9 1215.75 C 1749.45 1190.26 1761.16 1148.77 1761.78 1122.94 C 1767.38 1116.61 1773.58 1110.86 1779.7 1105.03 A 3636.09 3636.09 0 0 0 1813.71 1069.97 z"/>
<path transform="translate(0,0)" fill="rgb(206,90,77)" d="M 1761.78 1122.94 C 1767.38 1116.61 1773.58 1110.86 1779.7 1105.03 C 1781.49 1123.56 1771.63 1159.73 1767.04 1178.49 C 1736.3 1304.31 1685.62 1408.15 1603.18 1508.39 C 1508.35 1623.71 1372.63 1710.79 1229.68 1752.64 C 1189.27 1764.47 1148.84 1772.08 1107.13 1777.61 A 700.594 700.594 0 0 1 1121.85 1762.76 C 1141.45 1762.5 1172.32 1754.02 1191.91 1749.22 C 1314.92 1719.1 1429.71 1660.89 1521.81 1573.2 C 1627.15 1472.91 1700.6 1355.27 1741.9 1215.75 C 1749.45 1190.26 1761.16 1148.77 1761.78 1122.94 z"/>
<path transform="translate(0,0)" fill="rgb(49,50,49)" d="M 1761.78 1122.94 C 1761.16 1148.77 1749.45 1190.26 1741.9 1215.75 C 1700.6 1355.27 1627.15 1472.91 1521.81 1573.2 C 1429.71 1660.89 1314.92 1719.1 1191.91 1749.22 C 1172.32 1754.02 1141.45 1762.5 1121.85 1762.76 L 1761.78 1122.94 z"/>
<path transform="translate(0,0)" fill="rgb(49,50,49)" d="M 282.589 1122.93 C 292.459 1130.96 301.269 1140.79 310.228 1149.82 A 5655.77 5655.77 0 0 0 354.267 1193.79 L 508.282 1346.6 L 772.75 1610.15 A 14644.3 14644.3 0 0 1 927.151 1763.74 C 914.286 1764.92 893.856 1759.05 880.968 1756.29 A 794.992 794.992 0 0 1 602.862 1636.32 A 758.141 758.141 0 0 1 311.44 1244.72 C 298.525 1204.67 290.506 1164.18 282.589 1122.93 z"/>
<path transform="translate(0,0)" fill="rgb(49,50,49)" d="M 1122.03 288.246 C 1152.28 288.446 1188.04 298.32 1217.05 306.662 A 752.201 752.201 0 0 1 1551.32 503.132 A 758.466 758.466 0 0 1 1746.12 842.636 C 1753.6 870.605 1760.57 900.082 1763.66 928.913 A 13949.3 13949.3 0 0 1 1547.71 713.593 A 24300.5 24300.5 0 0 1 1367.63 532.052 L 1122.03 288.246 z"/>
<path transform="translate(0,0)" fill="rgb(49,50,49)" d="M 283.278 927.078 C 284.976 902.281 292.262 875.579 298.88 851.625 C 324.386 759.308 363.157 675.659 417.579 596.758 C 520.694 447.261 680.67 343.959 855.633 299.747 C 879.968 293.597 904.318 291.109 928.867 286.597 L 512.559 700.336 L 346.014 865.423 C 325.117 885.879 304.82 907.321 283.278 927.078 z"/>
<path transform="translate(0,0)" fill="rgb(225,224,220)" d="M 1024.07 190.424 C 1039.55 206.457 1055.91 222.181 1072.04 237.581 A 925.503 925.503 0 0 0 1106.17 272.217 C 1111.29 277.784 1116.48 283.111 1122.03 288.246 L 1367.63 532.052 A 24300.5 24300.5 0 0 0 1547.71 713.593 A 13949.3 13949.3 0 0 0 1763.66 928.913 C 1769.03 934.573 1774.46 940.016 1780.25 945.251 A 3981.26 3981.26 0 0 0 1813.37 977.694 C 1827.98 993.223 1844.56 1007.5 1858.21 1023.81 C 1845.03 1039.49 1825.06 1054.62 1813.71 1069.97 A 3636.09 3636.09 0 0 1 1779.7 1105.03 C 1773.58 1110.86 1767.38 1116.61 1761.78 1122.94 L 1121.85 1762.76 A 700.594 700.594 0 0 0 1107.13 1777.61 A 2411.64 2411.64 0 0 0 1073.92 1809.75 C 1056.66 1825.63 1040.36 1842.47 1023.18 1858.42 C 1009.88 1845.45 990.379 1822.63 976.756 1812.51 C 966.141 1801.43 954.231 1791.16 943.008 1780.67 C 937.942 1774.75 932.737 1769.17 927.151 1763.74 A 14644.3 14644.3 0 0 0 772.75 1610.15 L 508.282 1346.6 L 354.267 1193.79 A 5655.77 5655.77 0 0 1 310.228 1149.82 C 301.269 1140.79 292.459 1130.96 282.589 1122.93 A 450.369 450.369 0 0 0 267.569 1108.85 C 260.561 1097.81 242.148 1081.87 232.256 1071.97 C 216.937 1055.83 199.999 1041.25 184.392 1025.37 C 199.275 1008.46 217.024 994.367 232.146 977.726 C 243.567 965.676 257.251 954.942 267.688 942.101 C 273.041 937.236 278.177 932.205 283.278 927.078 C 304.82 907.321 325.117 885.879 346.014 865.423 L 512.559 700.336 L 928.867 286.597 A 699.327 699.327 0 0 0 943.988 271.262 C 955.329 262.535 965.888 249.611 975.957 239.276 A 5233.73 5233.73 0 0 1 1024.07 190.424 z"/>
<path transform="translate(0,0)" fill="rgb(49,50,49)" d="M 1024.4 214.828 C 1044.02 233.086 1062.58 252.42 1081.73 271.155 A 12246.3 12246.3 0 0 1 1238.26 426.84 L 1700.65 889.284 C 1746.43 934.209 1790.76 980.961 1837.86 1024.51 C 1819.39 1041.51 1802.12 1060.03 1784.45 1077.86 L 1670.92 1192.63 L 1233.83 1629.59 L 1089.44 1772.31 L 1047.06 1813.88 C 1039.44 1821.34 1031.93 1829.94 1023.42 1836.32 C 987.562 1799.67 950.376 1764.18 913.967 1728.07 L 690.7 1506.82 L 208.309 1024.92 C 236.108 996.387 264.873 968.652 293.117 940.549 L 551.765 684.798 L 860.804 377.116 A 16911.6 16911.6 0 0 1 1024.4 214.828 z"/>
<path transform="translate(0,0)" fill="rgb(225,224,220)" d="M 1024.29 257.757 C 1030.97 260.744 1141.91 374.211 1158.58 390.929 L 1443.85 676.236 L 1796.83 1024.61 A 74886.7 74886.7 0 0 1 1023.81 1796.72 C 1002.73 1774.33 980.206 1753.08 958.343 1731.44 A 16929.6 16929.6 0 0 0 823.663 1598.54 A 41748.4 41748.4 0 0 1 446.056 1221.56 A 12441.1 12441.1 0 0 1 250.342 1025.08 C 261.644 1012.79 274.008 1001.27 285.863 989.499 L 363.633 912.96 L 584.416 693.574 L 848.47 431.976 L 952.246 329.04 C 976.065 305.225 999.432 280.457 1024.29 257.757 z"/>
<path transform="translate(0,0)" fill="rgb(49,50,49)" d="M 805.927 1311.05 L 818.377 1311.07 C 817.54 1341.94 817.803 1372.92 817.704 1403.8 L 805.341 1403.86 C 805.853 1372.94 805.758 1341.98 805.927 1311.05 z"/>
<path transform="translate(0,0)" fill="rgb(49,50,49)" d="M 970.988 1473.09 C 979.172 1472.59 989.224 1472.33 995.933 1477.88 C 998.325 1479.86 999.914 1482.16 1000.11 1485.3 C 995.238 1490.9 987.157 1479.24 974.225 1480.76 C 966.921 1481.61 960.341 1484.96 955.861 1490.88 A 25.8568 25.8568 0 0 0 951.097 1510.49 C 952.141 1517.26 955.454 1523.8 961.105 1527.83 C 968.217 1532.9 976.668 1532.84 984.875 1531.21 C 988.734 1529.3 993.083 1526.48 997.545 1527.46 C 999.688 1527.93 998.87 1527.49 1000.16 1529.51 C 1000.02 1529.88 999.918 1530.27 999.742 1530.63 C 997.963 1534.22 993.307 1536.62 989.705 1537.94 A 36.7301 36.7301 0 0 1 961.154 1536.64 C 953.044 1532.78 946.614 1526.36 943.775 1517.73 C 940.858 1508.87 941.543 1498.84 946.067 1490.64 C 951.611 1480.59 960.329 1475.96 970.988 1473.09 z"/>
<path transform="translate(0,0)" fill="rgb(49,50,49)" d="M 880.676 1474.02 C 888.347 1474.04 920.774 1471.66 925.225 1475.34 C 925.518 1477.85 925.719 1478.48 924.695 1480.75 C 913.28 1482.21 900.512 1481.2 888.941 1481.21 L 888.96 1502.38 C 897.161 1502.63 905.5 1501.51 913.652 1502.32 C 917.097 1502.66 918.895 1503.3 921.092 1505.97 L 920.753 1507.92 C 913.536 1512.01 899.195 1510.03 890.92 1509.89 L 889.4 1510.67 C 887.986 1517.16 888.828 1524.86 888.929 1531.53 C 899.603 1531.98 916.313 1529.84 926.111 1532.58 C 926.717 1534.77 926.821 1534.64 925.743 1536.62 C 917.508 1541.55 890.861 1539.05 880.686 1538.99 L 880.676 1474.02 z"/>
<path transform="translate(0,0)" fill="rgb(49,50,49)" d="M 1105.65 1473.18 C 1116.76 1473.15 1129.92 1471.89 1140.55 1475.45 C 1145.63 1477.16 1150.05 1480.3 1152.27 1485.31 C 1154.31 1489.94 1154.8 1496.73 1152.92 1501.48 C 1150.49 1507.63 1145.27 1510.4 1139.48 1512.82 C 1143.59 1520.07 1152.49 1530.03 1153.19 1538.2 C 1150.58 1539.72 1148.43 1538.91 1145.49 1538.63 C 1140.58 1530.49 1136.27 1520.87 1129.72 1513.97 L 1114.01 1513.97 C 1114.03 1519.39 1115.68 1534.74 1112.84 1538.51 C 1110.2 1539.21 1108.85 1539.27 1106.2 1538.61 C 1103.84 1534.28 1105.63 1482.48 1105.65 1473.18 z"/>
<path transform="translate(0,0)" fill="rgb(225,224,220)" d="M 1114.09 1480.94 C 1122.12 1480.75 1130.98 1479.79 1138.6 1482.87 C 1141.49 1484.04 1144.08 1486.01 1145.03 1489.11 C 1146.57 1494.13 1144.18 1499.06 1141.72 1503.31 C 1132.87 1507.39 1123.59 1506.39 1114.1 1506.2 L 1114.09 1480.94 z"/>
<path transform="translate(0,0)" fill="rgb(49,50,49)" d="M 808.85 1473.79 C 819.793 1473.72 833.123 1472.19 843.742 1475.03 C 849.49 1476.56 854.999 1479.92 857.758 1485.37 C 860.085 1489.96 860.156 1495.28 858.527 1500.1 C 855.918 1507.82 851.006 1510.69 844.01 1514.02 C 848.662 1521.57 856.336 1529.61 858.709 1538.19 L 857.314 1539.53 C 854.992 1539.36 852.896 1539.06 850.631 1538.53 A 1351.86 1351.86 0 0 1 834.227 1514.98 L 817.502 1514.97 C 817.555 1521.08 819.191 1534.77 816.146 1539.61 C 814.011 1539.83 813.012 1540.04 810.946 1539.32 C 806.588 1530.23 808.837 1486.86 808.85 1473.79 z"/>
<path transform="translate(0,0)" fill="rgb(225,224,220)" d="M 821.726 1481.48 C 830.594 1481.33 839.573 1480.97 847.212 1486.38 C 849.683 1488.13 851.493 1490.45 851.741 1493.58 C 852.111 1498.25 848.76 1502.64 845.669 1505.73 C 837.064 1508.06 826.771 1507.04 817.891 1506.98 C 817.701 1500.27 816.046 1488.33 818.825 1482.2 L 821.726 1481.48 z"/>
<path transform="translate(0,0)" fill="rgb(49,50,49)" d="M 1174.66 1309.46 C 1183.92 1314.81 1223.55 1364.69 1234.92 1377.11 L 1234.91 1311.42 L 1247.18 1311.51 L 1247.09 1401.79 C 1245.29 1403.22 1243.67 1402.91 1241.44 1403.07 C 1240.4 1402.68 1240.02 1402.61 1239.06 1401.8 C 1233.11 1396.79 1227.24 1386.84 1222.17 1380.75 C 1210.76 1367.03 1198.58 1353.94 1186.98 1340.38 C 1186.97 1361.18 1185.59 1383.02 1187.88 1403.64 L 1174.65 1403.58 L 1174.66 1309.46 z"/>
<path transform="translate(0,0)" fill="rgb(49,50,49)" d="M 879.539 1309.72 C 887.443 1317.97 916.024 1386.84 924.058 1403.14 L 909.748 1403.84 L 901.9 1385.18 C 896.1 1385.75 890.085 1385.56 884.25 1385.65 L 856.646 1385.22 C 853.987 1391.19 851.63 1397.32 849.146 1403.37 L 835.385 1403.22 C 850.846 1372.46 863.561 1340.15 879.539 1309.72 z"/>
<path transform="translate(0,0)" fill="rgb(225,224,220)" d="M 879.04 1336.73 C 886.627 1348.29 891.978 1362.24 897.78 1374.78 L 878.858 1374.86 L 861.837 1374.74 C 866.17 1362.44 872.222 1347.84 879.04 1336.73 z"/>
<path transform="translate(0,0)" fill="rgb(49,50,49)" d="M 1174.08 1473.09 C 1188.67 1473.11 1207.58 1470.91 1219.76 1480.35 C 1226.84 1485.84 1230.8 1494.18 1231.62 1503.01 C 1232.62 1513.77 1229.26 1522.11 1222.46 1530.24 C 1208.84 1541.07 1190.78 1538.93 1174.41 1538.93 A 3747.31 3747.31 0 0 1 1174.08 1473.09 z"/>
<path transform="translate(0,0)" fill="rgb(225,224,220)" d="M 1184.77 1481.47 C 1195.64 1481.09 1206.45 1480.82 1215.36 1488.19 C 1220.33 1492.3 1223.77 1498.13 1224.07 1504.65 C 1224.45 1512.79 1220.4 1520.18 1215.03 1525.94 C 1205.29 1532.59 1194.13 1531.4 1182.92 1531.33 C 1182.85 1516.28 1181.14 1499.23 1183.05 1484.41 C 1183.37 1482 1182.85 1482.93 1184.77 1481.47 z"/>
<path transform="translate(0,0)" fill="rgb(49,50,49)" d="M 939.267 1309.61 C 946.285 1313.03 977.966 1366.12 985.937 1377.04 C 1002.05 1354.68 1014.17 1329.72 1032.08 1308.51 A 7688.39 7688.39 0 0 0 1032.14 1403.38 L 1018.98 1403.48 C 1019.58 1395.27 1019.44 1386.98 1019.49 1378.75 L 1019.29 1345.25 C 1007.43 1361.87 996.574 1380.02 986.538 1397.8 C 974.304 1380.91 963.126 1363.06 951.367 1345.82 A 2374.48 2374.48 0 0 0 951.408 1403.23 L 938.977 1403.34 C 939.147 1372.2 937.708 1340.68 939.267 1309.61 z"/>
<path transform="translate(0,0)" fill="rgb(49,50,49)" d="M 1044.01 1473.1 C 1052.14 1472.39 1059.63 1472.53 1067.14 1476.12 A 31.8314 31.8314 0 0 1 1083.73 1494.9 A 35.2228 35.2228 0 0 1 1081.42 1522.19 C 1076.42 1531.48 1068.47 1535.93 1058.82 1539 C 1050.2 1540.65 1041.79 1540.4 1033.84 1536.34 A 32.8432 32.8432 0 0 1 1017.36 1517.09 C 1014.53 1508.22 1015.87 1498.04 1020.39 1489.96 C 1025.65 1480.56 1033.84 1475.72 1044.01 1473.1 z"/>
<path transform="translate(0,0)" fill="rgb(225,224,220)" d="M 1048.73 1480.26 C 1053.16 1480.36 1057.63 1480.75 1061.71 1482.57 A 24.645 24.645 0 0 1 1075.09 1497.06 C 1077.56 1504.17 1077.04 1512.32 1073.43 1518.96 C 1068.92 1527.29 1062.28 1530.26 1053.56 1532.68 C 1047.9 1533.02 1042.91 1532.39 1037.84 1529.67 A 25.1721 25.1721 0 0 1 1025.49 1513.98 C 1023.48 1506.71 1024.42 1498.91 1028.52 1492.54 C 1033.3 1485.09 1040.37 1481.97 1048.73 1480.26 z"/>
<path transform="translate(0,0)" fill="rgb(49,50,49)" d="M 1275.06 1311.94 C 1296.47 1311.83 1323.08 1308.57 1340.36 1323.95 C 1349.5 1332.1 1354.03 1344.01 1354.66 1356.07 C 1355.37 1369.37 1351 1379.88 1342.23 1389.63 C 1323.7 1407.06 1298.39 1403.34 1275 1403.43 L 1275.06 1311.94 z"/>
<path transform="translate(0,0)" fill="rgb(225,224,220)" d="M 1287.57 1322.98 C 1301.73 1322.95 1319.16 1321.66 1330.78 1331.28 C 1337.74 1337.04 1340.62 1345.55 1341.32 1354.32 C 1342.25 1365.98 1338.94 1374.01 1331.64 1382.83 C 1317.41 1393.59 1304.26 1392 1287.65 1391.05 C 1287.06 1368.41 1287.56 1345.63 1287.57 1322.98 z"/>
<path transform="translate(0,0)" fill="rgb(49,50,49)" d="M 700.916 1311.4 C 722.878 1311.06 749.539 1308.45 767.078 1324.69 C 775.998 1332.96 780.135 1345.11 780.601 1357.06 C 781.114 1370.21 776.445 1381.23 767.766 1390.83 C 748.333 1406.45 724.049 1403.28 700.721 1403.12 C 701.149 1372.56 700.791 1341.96 700.916 1311.4 z"/>
<path transform="translate(0,0)" fill="rgb(225,224,220)" d="M 719.818 1322.46 C 734.253 1322.47 748.252 1323.13 758.977 1334.32 A 34.0711 34.0711 0 0 1 768.411 1359.57 C 767.819 1370.85 762.307 1378.84 754.061 1385.93 C 740.356 1392.88 728.361 1392.22 713.524 1391.84 C 713.575 1382.74 711.739 1327.14 714.979 1322.98 L 719.818 1322.46 z"/>
<path transform="translate(0,0)" fill="rgb(49,50,49)" d="M 1099.78 1310.34 C 1110.32 1309.13 1122.28 1312.05 1131.21 1317.66 A 45.5911 45.5911 0 0 1 1151.17 1346.19 C 1153.99 1358.45 1152 1372.4 1145.09 1383.01 C 1136.85 1395.64 1124.78 1401 1110.67 1404.18 C 1097.71 1404.85 1086.06 1403.37 1075.11 1395.71 A 44.5065 44.5065 0 0 1 1056.55 1366.35 C 1054.37 1353.37 1057.19 1339.67 1065.2 1329.14 C 1073.85 1317.75 1085.95 1312.3 1099.78 1310.34 z"/>
<path transform="translate(0,0)" fill="rgb(225,224,220)" d="M 1096.39 1322.25 C 1104.02 1321.58 1110.42 1321.6 1117.7 1324.6 A 35.314 35.314 0 0 1 1137.2 1344.77 A 36.5597 36.5597 0 0 1 1136.01 1372.6 C 1131.08 1383.18 1122.65 1388.42 1112.12 1392.22 C 1103.87 1393.29 1096.48 1393.25 1088.78 1389.69 A 34.8984 34.8984 0 0 1 1070.8 1370.06 C 1067.38 1360.8 1067.72 1350.26 1072.17 1341.4 C 1077.33 1331.15 1085.93 1325.86 1096.39 1322.25 z"/>
<path transform="translate(0,0)" fill="rgb(49,50,49)" d="M 853.32 1605.42 C 878.676 1606.4 904.249 1605.31 929.643 1605.58 A 14466.1 14466.1 0 0 0 1195.34 1605.1 L 1110.69 1689.56 C 1081.47 1717.8 1053.23 1747.05 1023.5 1774.74 C 995.672 1744.17 964.898 1715.97 935.546 1686.85 C 908.173 1659.69 881.936 1631.29 853.32 1605.42 z"/>
<path transform="translate(0,0)" fill="rgb(49,50,49)" d="M 1024.25 278.698 C 1030.06 281.58 1068.4 322.339 1075.8 329.783 A 11672.8 11672.8 0 0 1 1200.89 455.344 L 1351.2 604.901 A 41052.6 41052.6 0 0 0 1773.32 1025.11 C 1698.88 1101.4 1622.61 1176.02 1548.95 1253.06 L 1023.38 1253.07 L 501.402 1253.29 C 473.269 1227.42 446.861 1199.55 419.748 1172.63 L 272.001 1025.22 C 280.437 1015.51 290.49 1006.71 299.628 997.601 L 355.638 941.865 L 535.361 763.7 L 1024.25 278.698 z"/>
<path transform="translate(0,0)" fill="rgb(225,224,220)" d="M 663.421 1003.74 C 666.851 1009.68 668.71 1017.3 670.936 1023.82 L 691.632 1022.94 C 686.013 1027.76 680.358 1032.23 674.269 1036.44 C 676.756 1042.88 678.62 1049.36 680.41 1056.02 C 674.462 1052.72 669.662 1049.08 664.462 1044.72 C 659.264 1045.78 651.094 1053.55 646.204 1056.67 C 648.131 1050.03 650.444 1043.5 652.664 1036.96 C 647.67 1031.88 641.526 1027.88 635.884 1023.55 L 656.469 1023.76 L 663.421 1003.74 z"/>
<path transform="translate(0,0)" fill="rgb(225,224,220)" d="M 1376.35 1000.69 C 1380.05 1004.26 1381.66 1014.16 1383.09 1019.14 C 1390 1019.25 1396.93 1019.72 1403.82 1020.06 C 1398.89 1024.8 1393.56 1028.6 1387.95 1032.49 C 1390.42 1038.97 1391.76 1046.02 1393.38 1052.75 C 1387.67 1049.01 1382 1045.25 1376.01 1041.95 A 344.954 344.954 0 0 1 1358.5 1054.87 L 1365.3 1032.29 L 1349.22 1019.89 L 1368.94 1019.58 C 1371.08 1013.07 1373.5 1006.92 1376.35 1000.69 z"/>
<path transform="translate(0,0)" fill="rgb(225,224,220)" d="M 818.114 797.13 L 818.949 798.095 C 819.173 803.467 818.561 811.796 822.111 816.183 C 827.337 822.642 838.753 819.831 846.028 821.065 C 847.108 822.25 848.066 823.217 848.356 824.875 C 849.026 828.706 846.178 832.654 843.914 835.448 C 835.742 845.53 826.033 851.968 813.031 853.523 C 806.699 853.761 800.908 853.064 795.069 850.521 C 790.047 848.333 785.805 844.829 783.928 839.542 C 781.623 833.053 783.337 825.489 786.309 819.513 C 793.045 805.971 804.577 801.358 818.114 797.13 z"/>
<path transform="translate(0,0)" fill="rgb(225,224,220)" d="M 853.182 912.736 C 873.42 914.421 893.973 919.276 914.093 922.417 C 933.831 925.497 956.899 926.238 975.717 932.858 C 980.189 934.431 983.719 937.424 986.909 940.864 C 995.381 949.999 997.385 960.516 996.955 972.527 L 977.865 972.955 C 977.156 964.932 977.236 956.883 971.357 950.634 C 967.259 946.278 962.254 944.823 956.507 943.756 C 944.982 941.617 932.231 942.281 920.532 942.026 L 852.859 940.866 C 853.085 931.496 853.082 922.109 853.182 912.736 z"/>
<path transform="translate(0,0)" fill="rgb(225,224,220)" d="M 834.553 855.105 C 839.944 867.65 843.393 896.992 844.811 911.374 C 845.75 920.894 847.399 936.265 840.514 943.905 C 837.918 946.785 834.804 947.461 831.082 947.507 C 823.736 947.597 820.095 944.528 814.938 939.68 L 814.549 938.96 C 807.412 925.988 799.89 876.47 796.343 858.822 C 810.383 861.813 821.445 861.205 834.553 855.105 z"/>
<path transform="translate(0,0)" fill="rgb(225,224,220)" d="M 808.28 1144.89 C 825.886 1145.25 854.254 1153.16 872.213 1157 A 5298.71 5298.71 0 0 1 999.71 1185.08 C 999.834 1190.41 1000.34 1195.92 999.219 1201.15 L 997.38 1201.81 C 948.457 1190.76 899.098 1180.99 850.007 1170.67 C 834.26 1167.36 818.269 1164.94 802.632 1161.17 C 804.101 1155.4 805.711 1150.28 808.28 1144.89 z"/>
<path transform="translate(0,0)" fill="rgb(225,224,220)" d="M 1199.13 1150.37 C 1202.26 1149.99 1202.96 1149.85 1205.83 1151.05 C 1207.38 1153.15 1208.71 1155.1 1209.41 1157.65 C 1209.93 1159.55 1209.76 1161.76 1208.65 1163.41 C 1206.45 1166.67 1202.71 1167.78 1199.08 1168.7 C 1188.73 1171.31 1177.63 1171.86 1167.11 1173.93 A 6009.33 6009.33 0 0 1 1018.73 1200.7 L 1008.83 1202.59 L 1008.8 1185.26 C 1033.1 1179.33 1058.79 1175.94 1083.46 1171.36 C 1121.93 1164.21 1160.45 1156.18 1199.13 1150.37 z"/>
<path transform="translate(0,0)" fill="rgb(225,224,220)" d="M 1547.27 980.216 C 1558.89 979.133 1569.46 980.474 1579.83 986.262 A 50.3484 50.3484 0 0 1 1604.18 1018.44 A 49.7687 49.7687 0 0 1 1597.97 1056.69 C 1589.94 1069.5 1577.31 1076.56 1562.95 1079.84 C 1551.14 1081.22 1539.96 1079.43 1529.55 1073.49 C 1517.6 1066.68 1508.39 1055.2 1505.24 1041.72 A 52.0508 52.0508 0 0 1 1511.92 1002.74 C 1520.24 989.715 1532.64 983.396 1547.27 980.216 z"/>
<path transform="translate(0,0)" fill="rgb(49,50,49)" d="M 1540.83 997.425 C 1542.42 998.292 1541.95 997.9 1543.14 999.002 C 1550.98 1006.29 1555.76 1010.57 1566.33 1013.33 L 1581.9 1002.4 A 237.413 237.413 0 0 0 1579.07 1007.99 C 1577.68 1010.85 1575.84 1014.18 1576.95 1017.38 C 1578.54 1017.76 1579.28 1017.85 1580.56 1018.91 C 1577.59 1023.87 1575.09 1028.52 1573.22 1034.01 L 1572.74 1035.46 C 1575.37 1045.57 1580.21 1052.95 1586.74 1060.86 L 1575.92 1055.04 C 1570.18 1051.85 1564.14 1050.24 1557.82 1048.71 C 1547.01 1051.62 1540.42 1056.49 1532.42 1063.96 C 1537.03 1054.69 1538.86 1047.68 1538.95 1037.4 C 1533.61 1031.52 1527.38 1027.43 1520.74 1023.19 C 1523.55 1023.18 1526.39 1023.2 1529.16 1022.73 C 1533.6 1021.97 1538.17 1020.38 1540.62 1016.33 C 1544.17 1010.43 1542.1 1003.68 1540.83 997.425 z"/>
<path transform="translate(0,0)" fill="rgb(225,224,220)" d="M 491.212 973.805 C 498.839 973.708 510.08 978.288 516.771 981.955 C 531.383 989.963 543.69 1004.91 547.99 1021.1 C 550.606 1030.95 549.396 1040.05 543.959 1048.67 C 534.739 1063.29 517.016 1080.19 499.909 1083.84 C 496.25 1084.1 492.318 1083.57 488.798 1082.56 C 473.601 1078.18 453.32 1062.82 446.24 1048.46 C 441.233 1038.3 441.374 1026.7 445.263 1016.2 C 452.628 996.312 472.669 982.229 491.212 973.805 z"/>
<path transform="translate(0,0)" fill="rgb(49,50,49)" d="M 495.284 996.431 C 499.798 1001.88 503.576 1008.36 507.53 1014.25 C 514.386 1016.31 521.094 1016.86 528.198 1017.09 C 524.068 1021.89 520.598 1026.84 517.139 1032.14 C 517.63 1038.63 520.119 1044.27 521.271 1050.59 C 516.534 1052.2 511.02 1048.63 506.017 1049.13 C 501.577 1049.58 498.945 1058.21 496.229 1061.46 L 495.377 1059.63 C 493.543 1055.58 491.45 1051.11 486.89 1049.55 C 480.864 1047.49 473.901 1052.6 468.931 1055.46 C 472.379 1049.31 476.471 1042.4 476.236 1035.14 C 475.97 1026.95 470.069 1021.69 464.372 1016.66 C 471.122 1016.45 479.206 1017.08 485.302 1013.76 C 491.583 1010.34 493.608 1002.86 495.284 996.431 z"/>
<path transform="translate(0,0)" fill="rgb(225,224,220)" d="M 805.077 1016.22 C 853.162 1023.45 901.353 1034.73 949.061 1044.21 C 965.842 1047.54 988.789 1054.38 1005.5 1054.16 C 1032.01 1053.81 1195.88 1018.42 1204.33 1022.09 C 1206.52 1023.04 1207.8 1026.32 1208.43 1028.43 C 1209.82 1033.09 1211.36 1039.84 1208.64 1044.26 C 1207.64 1045.9 1206.51 1045.76 1204.78 1046.28 C 1153.2 1054.51 1101.78 1065.65 1050.44 1075.36 C 1035.58 1078.17 1018.31 1084.64 1003.35 1084.66 C 991.784 1084.68 959.13 1074.83 945.524 1071.79 C 898.737 1061.32 851.717 1051.93 804.988 1041.24 C 804.388 1032.81 804.615 1024.66 805.077 1016.22 z"/>
<path transform="translate(0,0)" fill="rgb(225,224,220)" d="M 1004.52 980.46 C 1049.18 981.079 1090.6 990.061 1133.96 999.8 C 1152.23 1003.9 1171.22 1007.4 1188.69 1014.2 C 1165.41 1020.52 1139.91 1023.44 1116.06 1027.26 L 1020.76 1043.32 C 1015.58 1044.23 1009.33 1046.13 1004.17 1045.81 C 986.005 1044.67 953.856 1035.93 934.824 1032.11 C 902.161 1025.56 868.165 1021.03 836.1 1012 C 860.575 1002.78 887.407 997.951 913.025 993.074 C 943.61 987.251 973.299 981.492 1004.52 980.46 z"/>
<path transform="translate(0,0)" fill="rgb(49,50,49)" d="M 998.633 992.411 C 1014.08 989.962 1038.64 990.577 1053.25 996.816 C 1058.21 998.933 1062.53 1001.55 1064.63 1006.67 C 1064.32 1008.61 1064.47 1009.27 1063.15 1010.83 C 1056.05 1019.26 1036.35 1020.83 1026.24 1021.79 C 1010.97 1022.94 993.932 1022.87 978.979 1019.56 C 973.428 1018.33 962.149 1015.02 959.636 1009.47 C 958.744 1007.5 959.324 1005.99 960.425 1004.25 C 966.449 994.72 988.441 993.255 998.633 992.411 z"/>
<path transform="translate(0,0)" fill="rgb(225,224,220)" d="M 1007.95 999.421 C 1020.43 998.795 1041.06 998.228 1051.82 1005.32 L 1052.12 1007.08 C 1044.92 1013.31 1025.19 1013.16 1015.98 1013.56 A 113.98 113.98 0 0 1 969.872 1006.93 C 981.824 1001.54 995.057 1000.53 1007.95 999.421 z"/>
<path transform="translate(0,0)" fill="rgb(225,224,220)" d="M 821.899 1054.22 C 843.927 1057.68 866.092 1063.5 887.883 1068.28 A 4651.27 4651.27 0 0 1 999.768 1093.89 C 999.982 1121.15 1002.06 1149.92 999.673 1177.03 C 964.702 1168.11 929.321 1161.21 894.024 1153.75 C 869.907 1148.65 845.763 1142.61 821.474 1138.52 L 821.899 1054.22 z"/>
<path transform="translate(0,0)" fill="rgb(225,224,220)" d="M 1190.38 1057.28 C 1192.69 1056.93 1193.29 1056.72 1195.42 1057.57 C 1196.5 1067.71 1195.87 1078.31 1195.86 1088.51 A 2389.43 2389.43 0 0 1 1195.37 1142.51 C 1176.24 1144.78 1156.91 1149.27 1137.93 1152.75 L 1014.24 1175.67 C 1012.27 1176.19 1011.23 1176.36 1009.25 1175.85 C 1008.07 1166.68 1008.78 1156.7 1008.77 1147.43 L 1008.77 1093.5 C 1032.13 1087.56 1056.29 1083.58 1079.95 1078.92 A 8434.14 8434.14 0 0 1 1190.38 1057.28 z"/>
<path transform="translate(0,0)" fill="rgb(225,224,220)" d="M 1024.56 457.431 C 1049.87 455.187 1077.98 465.716 1099.64 477.886 C 1180.01 523.045 1239.17 614.579 1263.34 702.035 C 1275.4 745.652 1278.51 798.503 1255.24 839.082 C 1242.2 861.808 1221.26 878.464 1195.81 885.089 C 1161.4 894.045 1129.36 881.717 1099.92 864.58 C 1022.24 816.228 978.406 810.206 889.31 811.068 C 869.385 811.261 849.469 812.818 829.559 811.741 C 828.227 810.318 827.299 809.261 826.884 807.287 C 825.041 798.511 839.455 786.178 844.905 779.941 C 871.439 749.577 891.586 712.968 906.695 675.703 A 316.225 316.225 0 0 0 926.927 599.106 C 930.692 570.237 930.328 541.465 941.591 514.027 C 945.237 505.143 949.989 496.921 956.188 489.569 C 974.061 468.368 997.514 459.553 1024.56 457.431 z"/>
<path transform="translate(0,0)" fill="rgb(49,50,49)" d="M 1020.44 478.363 C 1053.79 473.666 1088.91 489.676 1115.2 508.749 C 1180.84 556.383 1239.37 650.486 1251.61 730.896 C 1256.89 765.548 1255.41 807.518 1233.7 836.76 C 1221.61 853.042 1205.05 864.023 1184.88 866.959 L 1183.41 867.17 C 1144.65 872.619 1104.5 851.762 1074.61 828.972 C 1007.75 777.976 961.81 696.822 950.747 613.622 C 946.151 579.059 947.37 535.61 969.767 506.823 C 982.726 490.166 999.63 480.964 1020.44 478.363 z"/>
<path transform="translate(0,0)" fill="rgb(225,224,220)" d="M 1024.56 491.336 C 1031.94 490.221 1040.59 490.816 1047.97 491.932 C 1095.5 499.124 1140.28 540.827 1167.97 578.015 C 1209.19 633.37 1250.37 713.103 1239.66 783.922 C 1236.17 807.024 1226.74 830.663 1207.2 844.75 C 1192.42 855.399 1174.03 858.196 1156.35 855.091 C 1104.59 846.004 1058.76 802.972 1029.39 761.386 C 1061.37 785.289 1108.66 812.642 1148.19 818.365 C 1112.37 807.419 1064.43 779.57 1037.58 753.137 C 1090.5 752.161 1141.66 753.435 1194.15 760.584 C 1197.27 761.107 1200.39 761.446 1203.53 761.789 C 1177.8 752.337 1122.12 748.195 1093.74 746.366 C 1068.2 744.72 1034.13 746.126 1011.14 733.752 C 1002.54 729.122 998.543 717.368 995.839 708.514 C 1005.09 665.737 1044.29 613.51 1072.43 580.259 C 1078.04 573.621 1093.96 559.114 1096.87 554.073 C 1096.41 554.199 1095.92 554.237 1095.5 554.449 C 1089.94 557.203 1083.14 565.12 1078.39 569.562 C 1039.8 605.651 1014.87 643.298 992.359 690.888 C 986.923 635.688 988.73 586.79 1009.47 534.437 C 1010.16 532.707 1010.12 533.621 1009.42 531.714 C 984.761 575.733 980.184 626.211 979.936 675.577 C 973.104 655.109 966.86 634.552 963.809 613.125 C 959.305 581.491 959.472 542.012 979.829 515.35 C 991.184 500.477 1006.46 493.837 1024.56 491.336 z"/>
<path transform="translate(0,0)" fill="rgb(49,50,49)" d="M 1164.66 645.957 C 1165.47 645.837 1164.93 645.856 1166.24 646.311 C 1158.4 651.956 1147.18 655.238 1138.37 659.435 A 868.439 868.439 0 0 0 1078.44 690.397 C 1080.73 697.336 1081.96 704.95 1080.78 712.239 C 1079.74 718.632 1076.53 724.887 1070.99 728.481 C 1065.87 731.806 1059.75 732.686 1053.84 731.276 C 1042.07 728.47 1034.84 718.744 1028.76 709.086 C 1024.72 700.655 1021.81 691.045 1023.41 681.623 C 1024.43 675.623 1027.5 670.032 1032.65 666.625 C 1037.75 663.246 1043.9 662.66 1049.75 664.104 C 1061.97 667.117 1069.44 675.737 1075.55 686.083 C 1103.56 669.555 1134.38 657.554 1164.66 645.957 z"/>
</svg>