<svg version="1.1" xmlns="http://www.w3.org/2000/svg" style="display: block;" viewBox="0 0 2048 2048" width="1024" height="1024">
<path transform="translate(0,0)" fill="rgb(254,254,254)" d="M 0 0 L 2048 0 L 2048 2048 L 0 2048 L 0 0 z"/>
<path transform="translate(0,0)" fill="rgb(175,43,44)" d="M 1022.97 26.6611 C 1034.04 31.8417 1046.02 44.8365 1055.5 52.8558 L 1125.61 112.183 C 1139.79 107.305 1153.67 99.7207 1167.21 93.2509 C 1192.51 81.166 1217.86 68.7579 1243.68 57.8225 C 1272.95 91.1255 1299.68 126.795 1328.33 160.653 C 1344.46 157.563 1360.31 153.031 1376.26 149.101 C 1402.65 142.599 1429.23 136.263 1455.25 128.409 C 1472.58 169.543 1491.95 209.873 1510.2 250.62 C 1554.07 250.21 1597.84 249.586 1641.72 249.856 C 1649.88 293.216 1660.12 336.559 1670.75 379.383 L 1756.37 396.09 C 1769.88 398.795 1783.26 402.361 1796.84 404.577 L 1797.04 536.397 C 1837.19 556.322 1877.63 576.612 1918.37 595.242 C 1908.89 636.154 1899.41 680.521 1887.82 720.722 C 1921.69 746.643 1955.87 773.456 1987.87 801.654 C 1969.72 841.466 1949.79 881.105 1928.23 919.168 A 6284.48 6284.48 0 0 1 2018.85 1024.03 C 1989.8 1059.98 1959.27 1095.72 1928.12 1129.88 C 1934.36 1144.61 1943.43 1158.63 1951.36 1172.53 A 3820 3820 0 0 1 1991.6 1243.91 C 1976.35 1255.71 1961.52 1268.16 1946.37 1280.12 C 1927.14 1295.31 1907.5 1310.2 1888.9 1326.16 C 1899 1368.59 1907.53 1411.53 1918.66 1453.71 C 1878.51 1473.79 1838.27 1494.48 1796.98 1512.11 C 1796.76 1530.7 1798.31 1549.53 1799.2 1568.1 L 1802.07 1641.06 C 1759.64 1652.33 1716.16 1660.65 1673.11 1669.27 A 4544.86 4544.86 0 0 1 1640.31 1798.32 A 5586.13 5586.13 0 0 0 1508.66 1798.79 C 1492.26 1839.89 1472.74 1880.18 1454.71 1920.62 C 1412.67 1908.16 1369.3 1898.53 1326.71 1887.97 C 1315.47 1901.06 1305.17 1915.16 1294.56 1928.78 A 4685.76 4685.76 0 0 0 1245.37 1992.46 L 1127.75 1935.11 C 1116.23 1942.65 1105.62 1952.47 1095.07 1961.3 C 1072.36 1980.31 1050.1 1999.84 1027.26 2018.69 C 1025.94 2019.62 1024.98 2020.13 1023.52 2020.75 C 1013.23 2013.38 1003.84 2004.32 994.175 1996.12 C 970.195 1975.78 945.934 1954.44 920.789 1935.61 C 910.085 1939.73 899.486 1945.6 889.148 1950.63 C 860.891 1964.37 832.961 1979.26 804.314 1992.14 C 793.646 1980.72 784.417 1967.54 774.743 1955.25 L 721.611 1888.3 C 704.351 1891.12 686.901 1896.21 669.841 1900.23 C 645.006 1906.07 619.974 1911.33 595.3 1917.81 C 589.48 1903.83 582.271 1890.21 575.636 1876.59 A 3294.59 3294.59 0 0 0 536.804 1799.15 C 493.032 1799.46 449.212 1798.93 405.437 1798.77 A 6963.77 6963.77 0 0 0 386.726 1720.18 C 382.563 1703.45 377.698 1686.69 374.414 1669.77 C 332.691 1662.86 291.705 1649.99 250.097 1642.01 L 247.356 1558.65 C 246.871 1542.09 247.177 1525.48 245.977 1508.95 A 2302.33 2302.33 0 0 0 126.228 1454.43 C 129.858 1436.67 135.546 1418.86 140.174 1401.29 A 2063.41 2063.41 0 0 0 158.572 1325.33 A 5011.96 5011.96 0 0 1 89.7186 1271.57 C 78.6467 1262.72 68.1154 1253.26 56.6734 1244.87 C 76.7347 1205.84 99.6955 1167.66 118.05 1127.86 C 105.631 1115.09 94.5963 1100.62 83.0542 1087.05 C 65.2222 1066.08 47.0572 1045.48 29.8319 1023.99 C 39.2172 1009.81 51.6692 996.819 62.7308 983.921 L 116.471 920.434 C 98.2017 880.804 77.8777 842.018 60.5925 801.942 C 95.3246 777.616 128.73 750.998 161.866 724.548 C 158.749 705.908 153.086 687.274 148.295 668.993 C 141.897 644.58 135.801 619.971 128.41 595.838 C 169.526 577.962 209.748 557.291 250.203 537.903 A 9335.49 9335.49 0 0 1 250.271 404.404 L 378.182 378.656 C 385.386 335.174 397.238 291.514 407.442 248.605 A 8456.75 8456.75 0 0 0 536.994 247.586 C 543.914 234.793 549.862 221.268 556.208 208.172 A 4420.24 4420.24 0 0 1 595.161 129.097 C 637.295 139.462 679.922 148.177 721.889 159.106 A 2813.26 2813.26 0 0 1 766.788 101.063 C 778.989 85.5068 790.927 69.5836 804.335 55.0369 C 843.243 74.4752 881.657 95.232 920.947 113.846 C 936.917 101.567 951.704 87.3478 967.065 74.2836 C 985.651 58.4773 1005.17 43.3389 1022.97 26.6611 z"/>
<path transform="translate(0,0)" fill="rgb(254,254,254)" d="M 985.736 131.443 C 1025.51 128.994 1066.6 130.888 1106.21 134.656 C 1289.58 152.1 1469.82 225.714 1608.62 347.912 A 893.55 893.55 0 0 1 1914.38 963.012 A 891.182 891.182 0 0 1 1694.45 1612.95 C 1528.16 1800.45 1311.95 1903.04 1062.25 1917.87 A 904.843 904.843 0 0 1 425.632 1688.56 A 895.978 895.978 0 0 1 130.653 1074.41 A 900.317 900.317 0 0 1 359.684 424.571 A 894.986 894.986 0 0 1 824.253 152.502 C 877.481 140.547 931.313 134.28 985.736 131.443 z"/>
<path transform="translate(0,0)" fill="rgb(175,43,44)" d="M 1003.71 211.445 L 1009.35 211.303 A 815.073 815.073 0 0 1 1463.14 341.034 A 907.977 907.977 0 0 1 1594.83 447.41 C 1619.3 470.85 1641.43 496.991 1662.17 523.736 C 1765.09 656.417 1829.4 823.642 1832.83 992.261 C 1833.28 1014.43 1833.69 1037.01 1832.58 1059.14 A 814.984 814.984 0 0 1 1609.13 1587.44 A 808.055 808.055 0 0 1 1043.75 1836.12 A 811.829 811.829 0 0 1 477.88 1624.95 A 805.869 805.869 0 0 1 240.199 1231.66 C 226.468 1180.08 217.086 1125.91 214.801 1072.53 C 213.192 1034.94 212.818 997.043 215.681 959.506 A 813.247 813.247 0 0 1 369.456 546.031 C 389.735 518.308 411.906 492.681 435.146 467.429 C 546.438 346.496 703.622 260.782 864.185 227.514 C 910.266 217.966 956.745 213.411 1003.71 211.445 z"/>
<path transform="translate(0,0)" fill="rgb(254,254,254)" d="M 451.678 1553.78 L 1198.53 1553.78 L 1451.32 1553.75 C 1499.59 1553.75 1547.93 1553.27 1596.19 1554.04 A 432.284 432.284 0 0 1 1587.5 1563.5 C 1450.16 1708 1246.56 1798.86 1047.19 1802.98 A 780.919 780.919 0 0 1 527.437 1625.51 C 500.482 1603.44 476.775 1577.85 451.678 1553.78 z"/>
<path transform="translate(0,0)" fill="rgb(64,63,63)" d="M 508.517 1573.5 C 523.13 1572.64 538.101 1573.29 552.748 1573.32 L 631.506 1573.4 L 882.045 1573.37 L 1307.14 1573.47 C 1386.92 1573.4 1466.76 1572.45 1546.53 1573.29 C 1507.42 1606.44 1470.55 1633.57 1427.95 1661.78 A 745.075 745.075 0 0 1 1221.24 1753.06 A 753.541 753.541 0 0 1 648.062 1678.84 C 603.39 1653.47 560.044 1622.67 522.134 1587.96 C 518.528 1584.66 509.749 1577.99 508.517 1573.5 z"/>
<path transform="translate(0,0)" fill="rgb(254,254,254)" d="M 310.704 1337.1 C 420.561 1335.29 530.615 1336.97 640.489 1336.83 L 1275.59 1336.38 L 1586.85 1336.2 L 1682.22 1336.22 C 1699.59 1336.21 1717.85 1335.07 1735.11 1336.77 L 1734.19 1338.33 C 1726.18 1352.04 1721.7 1368.46 1714.19 1382.65 A 816.566 816.566 0 0 1 1627.09 1516.89 C 1621.85 1523.56 1609.96 1541.27 1603.23 1545.25 L 444.245 1545.24 C 405.724 1501.64 371.179 1455.05 343.663 1403.7 C 332.154 1382.22 323.179 1358.88 311.137 1337.84 L 310.704 1337.1 z"/>
<path transform="translate(0,0)" fill="rgb(175,43,44)" d="M 694.707 1413.5 L 709.551 1413.42 L 709.342 1482.13 L 751.799 1482.05 L 751.723 1494.54 A 899.631 899.631 0 0 0 694.226 1494.9 C 694.469 1467.8 693.745 1440.57 694.707 1413.5 z"/>
<path transform="translate(0,0)" fill="rgb(175,43,44)" d="M 1340.1 1413.48 A 2490.46 2490.46 0 0 0 1406.98 1413.68 L 1407.05 1426.93 L 1381.2 1426.82 L 1381.07 1468.5 L 1381.13 1494.05 L 1365.68 1494.09 C 1366.92 1471.62 1366.6 1449.08 1366.48 1426.58 C 1357.69 1426.14 1348.79 1426.44 1339.99 1426.46 L 1340.1 1413.48 z"/>
<path transform="translate(0,0)" fill="rgb(175,43,44)" d="M 737.185 1413.68 L 754.158 1414.02 C 761.115 1427.28 769.817 1440.05 777.519 1452.94 A 2163.1 2163.1 0 0 1 800.495 1414.09 L 815.067 1414.02 C 810.628 1423.36 804 1432.65 798.609 1441.54 C 784.996 1464.85 784.542 1468.71 784.983 1494.79 L 770.081 1494.71 A 2081.47 2081.47 0 0 0 769.985 1465.61 A 2377.57 2377.57 0 0 0 737.185 1413.68 z"/>
<path transform="translate(0,0)" fill="rgb(175,43,44)" d="M 876.054 1413.29 C 888.727 1412.61 898.606 1415.45 910.296 1419.88 L 904.657 1431.97 C 899.287 1429.63 894.152 1427.47 888.316 1426.55 C 882.422 1425.62 873.203 1424.6 868.37 1428.96 C 865.684 1431.38 864.879 1433.88 864.876 1437.36 C 870.57 1448.59 895.75 1449.62 906.074 1457.72 C 909.74 1460.6 912.643 1464.53 913.068 1469.29 C 913.578 1475.01 910.542 1481.8 906.873 1486.06 C 900.967 1492.92 892.293 1494.73 883.691 1495.33 C 869.807 1495.34 860.594 1492.82 848.65 1485.68 L 853.836 1474.49 C 863.688 1479.56 872.769 1483.63 884.17 1483.02 C 888.56 1482.78 892.055 1481.81 894.944 1478.34 C 896.93 1475.95 898.041 1473.87 897.701 1470.7 C 892.55 1460.95 871.647 1460.76 862.152 1455.78 C 857.004 1453.08 852.421 1448.91 850.961 1443.09 C 849.484 1437.21 851.338 1429.71 854.729 1424.77 C 859.775 1417.43 867.721 1414.82 876.054 1413.29 z"/>
<path transform="translate(0,0)" fill="rgb(175,43,44)" d="M 925.057 1413.74 L 939.178 1413.96 C 940.192 1428.91 935.31 1466.43 945.005 1477.25 C 948.396 1481.04 952.978 1482.58 957.947 1482.84 C 963.717 1483.13 969.667 1481.91 973.857 1477.68 C 983.19 1468.26 979.732 1428.37 979.878 1414.1 L 994.032 1413.92 L 993.976 1427.25 C 993.934 1444.15 997.969 1473.79 985.492 1486.49 C 978.658 1493.44 968.872 1495.25 959.493 1495.36 C 950.268 1495.46 940.938 1493.44 934.318 1486.59 C 920.681 1472.48 924.986 1433.23 925.057 1413.74 z"/>
<path transform="translate(0,0)" fill="rgb(175,43,44)" d="M 452.975 1414.37 A 5444.48 5444.48 0 0 0 511.651 1414.18 L 511.524 1427.01 L 467.673 1426.97 L 467.776 1448.11 L 507.285 1448.07 L 507.264 1460.86 L 469.141 1460.77 C 466.451 1463.86 467.861 1477.86 467.919 1482.45 L 512.705 1482.27 L 514.486 1494.76 C 494.034 1494.21 473.511 1494.75 453.053 1494.94 L 452.975 1414.37 z"/>
<path transform="translate(0,0)" fill="rgb(175,43,44)" d="M 1417.04 1413.85 A 3674.91 3674.91 0 0 0 1476.23 1413.87 L 1476.11 1426.98 L 1431.07 1426.89 L 1431.09 1447.89 L 1472.44 1447.69 L 1472.59 1459.9 L 1434.75 1459.87 L 1433.25 1460.02 C 1429.89 1463.73 1431.53 1476.77 1431.67 1482.11 L 1479.86 1482.11 L 1479.47 1494 L 1416.79 1493.94 C 1416.56 1467.26 1416.94 1440.54 1417.04 1413.85 z"/>
<path transform="translate(0,0)" fill="rgb(175,43,44)" d="M 561.032 1413.36 C 561.867 1413.4 563.749 1413.44 564.522 1413.63 C 564.766 1413.69 566.171 1414.35 566.427 1414.69 C 570.585 1420.14 573.377 1429.33 576.155 1435.75 C 584.68 1455.44 592.333 1475.98 602.586 1494.81 L 586.209 1494.99 C 583.275 1488.18 580.732 1481.16 578.039 1474.26 L 554.75 1474.43 C 552.954 1474.63 551.182 1474.89 549.372 1474.8 C 547.123 1474.7 544.822 1474.44 542.658 1475.28 C 536.199 1477.79 534.07 1488.85 532.037 1494.88 L 515.665 1494.81 C 524.578 1476.31 532.653 1457.36 541.18 1438.68 C 544.522 1431.35 547.649 1421.86 552.428 1415.52 C 554.038 1413.38 558.553 1413.59 561.032 1413.36 z"/>
<path transform="translate(0,0)" fill="rgb(254,254,254)" d="M 558.243 1431.6 C 563.542 1436.8 570.225 1455.6 573.62 1463.17 L 559.5 1463.26 L 544.206 1463.2 C 547.74 1452.54 553.56 1441.86 558.243 1431.6 z"/>
<path transform="translate(0,0)" fill="rgb(175,43,44)" d="M 1013.91 1414.01 C 1029.73 1414.23 1052.25 1411.1 1066.49 1418.13 C 1072.87 1421.27 1077.77 1426.49 1079.81 1433.37 C 1081.93 1440.56 1080.83 1448.63 1077.04 1455.07 C 1072.21 1463.29 1065.69 1466.47 1056.87 1468.95 C 1047.28 1469.74 1037.62 1469.59 1028 1469.66 L 1028.2 1494.72 L 1013.79 1494.6 L 1013.91 1414.01 z"/>
<path transform="translate(0,0)" fill="rgb(254,254,254)" d="M 1028.28 1426.1 C 1038.6 1426.11 1051.73 1424.94 1060.7 1430.8 C 1063.47 1432.62 1065.44 1435.04 1065.98 1438.4 C 1066.85 1443.73 1064.01 1449.37 1061.27 1453.72 C 1052.79 1460.11 1038.45 1457.92 1028.3 1457.74 L 1028.28 1426.1 z"/>
<path transform="translate(0,0)" fill="rgb(175,43,44)" d="M 1092.96 1414.05 C 1109.21 1414.33 1133.64 1410.85 1148.17 1419.41 C 1153.71 1422.67 1157.56 1427.62 1159.12 1433.89 C 1160.96 1441.3 1159.58 1449.78 1155.47 1456.21 C 1150.22 1464.41 1143.08 1466.89 1134.1 1468.94 C 1125.47 1469.59 1116.7 1469.27 1108.05 1469.24 L 1108.17 1494.97 L 1092.82 1495.16 L 1092.96 1414.05 z"/>
<path transform="translate(0,0)" fill="rgb(254,254,254)" d="M 1108.52 1426.02 C 1119.22 1425.92 1132.06 1424.77 1141.35 1431 C 1144.09 1432.84 1146.01 1435.25 1146.48 1438.62 C 1147.18 1443.69 1144.21 1448.92 1141.3 1452.8 C 1131.5 1459.12 1119.66 1457.41 1108.52 1457.15 C 1108.12 1446.8 1108.44 1436.38 1108.52 1426.02 z"/>
<path transform="translate(0,0)" fill="rgb(175,43,44)" d="M 1268.12 1414.38 C 1282.79 1414.26 1300.74 1412.23 1314.96 1416.51 C 1321.69 1418.54 1327.57 1422.47 1330.77 1428.89 C 1333.99 1435.33 1334.74 1444.58 1332.36 1451.39 C 1329.61 1459.24 1323.23 1463.32 1316.11 1466.8 C 1322.18 1476.47 1327.6 1484.69 1335.86 1492.59 C 1333.38 1494.25 1329.24 1494.2 1326.24 1494.55 C 1324.13 1494.85 1324.84 1494.91 1322.63 1494.53 C 1313.79 1493.05 1304.92 1475.82 1300.15 1468.8 L 1282.12 1468.87 L 1282.16 1493.94 L 1267.96 1493.93 L 1268.12 1414.38 z"/>
<path transform="translate(0,0)" fill="rgb(254,254,254)" d="M 1282.7 1426.38 C 1293.74 1426.2 1308.21 1424.74 1317.1 1432.63 C 1319.48 1434.75 1320.6 1437.37 1320.52 1440.59 C 1320.4 1445.11 1317.07 1450.22 1314.08 1453.38 C 1304.39 1458 1293 1456.73 1282.51 1456.58 L 1282.7 1426.38 z"/>
<path transform="translate(0,0)" fill="rgb(175,43,44)" d="M 612.552 1414.58 C 627.153 1414.53 646.31 1412.39 660.069 1417 C 667.349 1419.44 674.376 1424.08 677.528 1431.33 C 680.54 1438.27 679.83 1447.65 676.91 1454.5 C 673.919 1461.52 668.554 1464.73 661.683 1467.34 C 666.809 1475.79 672.423 1486.28 679.753 1492.93 C 680.047 1493.2 680.355 1493.45 680.656 1493.71 L 680.36 1494.68 L 675.25 1494.9 C 672.945 1495.01 670.144 1495.31 667.844 1495 C 661.555 1494.13 651.287 1475.21 646.71 1469.55 L 627.068 1469.68 L 627.249 1494.88 L 612.813 1494.82 A 4600.94 4600.94 0 0 0 612.552 1414.58 z"/>
<path transform="translate(0,0)" fill="rgb(254,254,254)" d="M 629.452 1426.44 C 638.332 1426.42 652.727 1424.55 659.83 1430.61 C 662.887 1433.21 663.913 1436.81 664.112 1440.68 C 664.452 1447.3 662.769 1451.17 658.288 1455.92 C 649.012 1459.46 637.277 1458.12 627.431 1458.04 C 627.265 1448.04 626.456 1437.4 627.685 1427.49 L 629.452 1426.44 z"/>
<path transform="translate(0,0)" fill="rgb(175,43,44)" d="M 1490.96 1413.99 C 1506.3 1414.33 1524.61 1411.58 1539.41 1415.77 C 1546.75 1417.85 1553.59 1421.95 1557.07 1428.99 C 1560.25 1435.42 1560.58 1444.62 1558.12 1451.35 C 1555.21 1459.29 1548.24 1462.42 1541.2 1465.93 C 1545.36 1471.92 1557.95 1487.59 1558.95 1493.67 L 1550.8 1493.95 C 1549.21 1493.91 1547.1 1493.98 1545.6 1493.48 C 1538.34 1491.05 1530.2 1475.08 1526.06 1468.68 C 1519.28 1468.35 1512.46 1468.53 1505.67 1468.58 L 1505.87 1493.92 L 1490.78 1493.96 L 1490.96 1413.99 z"/>
<path transform="translate(0,0)" fill="rgb(254,254,254)" d="M 1506.02 1427.07 C 1516.41 1426.95 1528.43 1425.94 1538.03 1430.69 C 1541.24 1432.28 1544.21 1434.64 1544.92 1438.37 C 1545.9 1443.51 1542.7 1448.62 1539.64 1452.42 C 1530.66 1458.81 1516.57 1456.71 1505.97 1456.48 L 1506.02 1427.07 z"/>
<path transform="translate(0,0)" fill="rgb(175,43,44)" d="M 1205.87 1413.17 C 1214.81 1412.8 1222.93 1413.46 1230.98 1417.72 C 1241.15 1423.1 1248.4 1432.9 1251.3 1443.96 C 1254.09 1454.58 1252.47 1465.54 1246.93 1475.01 C 1240.07 1486.72 1230.28 1491.93 1217.58 1495.06 C 1207.17 1495.35 1197.87 1495.09 1188.49 1489.8 A 37.438 37.438 0 0 1 1170.26 1465.4 C 1167.69 1454.44 1169.15 1441.66 1175.22 1432.04 C 1182.27 1420.88 1193.5 1415.94 1205.87 1413.17 z"/>
<path transform="translate(0,0)" fill="rgb(254,254,254)" d="M 1205.73 1426.09 C 1211.04 1425.67 1215.84 1425.73 1220.87 1427.7 A 25.9504 25.9504 0 0 1 1235.82 1442.87 A 30.6975 30.6975 0 0 1 1234.97 1466.49 C 1230.89 1475.19 1224.73 1478.99 1216.01 1482.18 C 1209.79 1482.65 1204.46 1482.57 1198.74 1479.8 C 1192.21 1476.64 1187.41 1471.04 1185.06 1464.19 C 1182.47 1456.63 1182.78 1447.84 1186.35 1440.65 C 1190.52 1432.24 1197.2 1428.83 1205.73 1426.09 z"/>
<path transform="translate(0,0)" fill="rgb(254,254,254)" d="M 306.804 1329.68 C 304.994 1319.64 297.324 1303.43 293.529 1293.01 C 285.908 1272.08 279.246 1251.53 273.693 1229.94 C 240.261 1099.95 237.618 965.499 270.438 835.037 A 778.9 778.9 0 0 1 627.232 355.69 A 764.95 764.95 0 0 1 1214.85 268.983 A 773.495 773.495 0 0 1 1691.08 625.68 A 777.102 777.102 0 0 1 1797.72 1088.09 C 1794.17 1128.52 1786.46 1168.44 1777.55 1208.01 A 655.013 655.013 0 0 1 1754.8 1286.18 C 1750.02 1299.53 1742.95 1313.6 1739.69 1327.3 L 1739.27 1329.17 C 1671.32 1328.17 1603.25 1329 1535.29 1329.02 L 1162.45 1329.11 L 306.804 1329.68 z"/>
<path transform="translate(0,0)" fill="rgb(64,63,63)" d="M 1006.67 268.44 C 1024.02 266.855 1042.64 268.181 1060.02 268.976 A 746.545 746.545 0 0 1 1336.27 336.731 A 750.848 750.848 0 0 1 1659.8 620.317 C 1686.1 661.54 1709.31 705.48 1726.39 751.371 A 774.288 774.288 0 0 1 1755.82 1196.17 C 1747.5 1233.11 1737.13 1271.43 1721.33 1305.92 L 1042.5 1306.08 L 323.813 1305.88 C 292.185 1224.85 275.475 1142.2 271.411 1055.35 A 758.304 758.304 0 0 1 473.166 509.599 C 581.445 390.965 737.376 307.946 894.987 279.402 C 931.814 272.733 969.329 270.124 1006.67 268.44 z"/>
<path transform="translate(0,0)" fill="rgb(254,254,254)" d="M 1671.05 843.719 C 1676.32 852.51 1679.65 862.456 1682.85 872.14 A 367.728 367.728 0 0 0 1715.97 874.135 C 1707.7 881.594 1698.97 888.514 1690.27 895.459 C 1692.88 905.15 1695.37 914.745 1697.16 924.633 L 1673.19 910.824 C 1672.94 910.713 1672.7 910.555 1672.44 910.492 C 1666.68 909.127 1651.97 919.941 1646.23 922.94 L 1651.62 895.633 C 1643.57 888.357 1636.28 880.31 1627.26 874.187 A 912.597 912.597 0 0 1 1659.5 873.137 C 1663.9 863.679 1667.11 853.408 1671.05 843.719 z"/>
<path transform="translate(0,0)" fill="rgb(254,254,254)" d="M 351.396 845.402 C 357.166 850.219 361.767 864.418 364.545 871.701 A 653.334 653.334 0 0 0 395.855 876.426 L 372.255 898.344 L 373.202 901.46 C 375.643 909.332 377.085 917.31 378.614 925.395 C 370.161 920.404 361.81 915.236 352.782 911.335 C 344.269 914.397 335.046 920.512 326.815 924.524 L 332.017 896.223 C 324.612 889.41 317.037 882.767 309.541 876.054 C 319.477 874.798 329.388 874.08 339.313 872.577 C 343.649 863.644 346.763 854.25 351.396 845.402 z"/>
<path transform="translate(0,0)" fill="rgb(254,254,254)" d="M 1595.14 666.659 C 1601.28 675.036 1604.97 687.78 1608.91 697.451 L 1642.2 698.115 A 665.345 665.345 0 0 1 1616.96 721.381 L 1624.19 754.055 A 2604.66 2604.66 0 0 1 1596.43 736.646 C 1586.72 743.105 1576.97 749.123 1566.75 754.732 C 1569.96 743.4 1572.63 731.955 1575.32 720.492 C 1566.95 713.313 1558.78 706.079 1550.88 698.365 A 718.553 718.553 0 0 0 1584.11 696.8 C 1587.45 686.679 1591.46 676.666 1595.14 666.659 z"/>
<path transform="translate(0,0)" fill="rgb(254,254,254)" d="M 1426.97 501.3 C 1436.31 505.253 1444.69 512.236 1452.85 518.188 C 1462.96 514.446 1472.39 508.383 1481.67 502.979 C 1479.58 514.189 1477.71 525.456 1474.51 536.416 C 1483.43 543.873 1491.2 552.78 1499.06 561.317 C 1487.52 562.341 1475.91 561.959 1464.34 561.828 C 1459.44 572.33 1454.24 581.886 1447.18 591.115 C 1443.36 580.649 1440.1 570.533 1438.51 559.482 C 1427.15 558.565 1415.77 556.134 1404.66 553.622 C 1412.79 546.278 1421.71 539.642 1430.26 532.797 C 1428.1 522.398 1427.2 511.905 1426.97 501.3 z"/>
<path transform="translate(0,0)" fill="rgb(254,254,254)" d="M 432.423 664.665 C 437.621 669.554 443.782 688.146 446.879 695.347 L 480.495 698.411 C 472.117 706.122 463.251 713.422 454.677 720.928 L 460.652 753.596 C 450.087 749.151 440.415 742.569 430.686 736.558 C 420.858 742.489 411.64 748.96 401.071 753.58 C 404.013 742.317 406.51 731.028 408.863 719.63 C 401.161 711.851 392.836 704.607 385.06 696.864 C 396.142 696.989 407.309 695.565 418.361 694.788 C 423.449 685.025 427.799 674.67 432.423 664.665 z"/>
<path transform="translate(0,0)" fill="rgb(254,254,254)" d="M 603.865 502.939 L 604.747 503.857 C 605.064 513.709 602.852 524.451 601.716 534.279 C 608.986 541.766 618.343 548.32 626.21 555.294 C 615.635 557.429 604.898 559.261 594.627 562.609 C 590.6 573.27 586.781 584.033 581.711 594.254 C 576.199 584.299 571.178 574.063 565.377 564.272 C 555.166 561.592 543.149 563.322 532.501 561.79 C 540.448 554.107 548.689 546.316 555.043 537.23 C 551.636 526.636 549.358 515.647 546.805 504.821 A 908.672 908.672 0 0 1 577.465 520.309 C 586.436 514.76 595.143 508.867 603.865 502.939 z"/>
<path transform="translate(0,0)" fill="rgb(254,254,254)" d="M 735.799 379.316 C 745.755 384.037 755.115 390.678 764.447 396.537 C 774.691 391.547 784.554 385.42 794.374 379.634 A 921.498 921.498 0 0 1 786.65 414.095 C 795.265 421.91 803.537 429.95 811.7 438.235 A 2681.95 2681.95 0 0 0 779.922 442.217 C 779.259 442.456 778.484 442.493 777.932 442.932 C 775.894 444.556 766.247 468.173 763.986 472.607 C 758.331 462.435 754.128 451.005 749.314 440.354 C 738.205 439.34 727.099 438.845 715.995 437.641 C 723.861 429.481 732.209 421.942 740.628 414.367 C 738.676 402.741 737.574 390.975 735.799 379.316 z"/>
<path transform="translate(0,0)" fill="rgb(254,254,254)" d="M 1238.73 382.759 C 1249.18 387.805 1258.49 395.055 1268.87 400.349 C 1278.11 394.121 1287.68 387.916 1297.86 383.331 C 1295.64 394.866 1293.01 406.355 1290.58 417.849 C 1298.15 426.069 1307.06 433.36 1315.29 440.929 A 217.462 217.462 0 0 1 1281.82 444.121 C 1275.67 454.387 1270.76 465.721 1265.48 476.489 C 1260.79 465.939 1256.87 455.126 1253.11 444.217 C 1241.18 443.559 1229.29 441.871 1217.43 440.455 C 1225.11 432.057 1234.86 424.616 1243.41 417.004 A 1738.27 1738.27 0 0 1 1238.73 382.759 z"/>
<path transform="translate(0,0)" fill="rgb(254,254,254)" d="M 1017.33 321.64 C 1024.05 328.952 1027.2 341.312 1030.58 350.579 C 1042.66 351.42 1054.78 353.083 1066.81 354.483 C 1058.78 363.074 1049.55 370.953 1041.08 379.147 C 1043.41 390.249 1045.2 401.403 1046.93 412.608 C 1037.46 407.166 1027.32 402.539 1018.7 395.786 C 1008.33 400.435 998.308 406.928 988.115 412.102 C 989.86 401.272 991.65 390.35 994.922 379.864 C 986.01 371.49 977.319 362.851 968.534 354.341 C 979.933 353.326 991.59 352.761 1002.85 350.67 C 1008.4 341.368 1012.8 331.464 1017.33 321.64 z"/>
<path transform="translate(0,0)" fill="rgb(254,254,254)" d="M 1309.58 620.082 C 1313.27 619.673 1317.37 619.458 1320.91 620.725 C 1327.05 622.921 1330.78 628.295 1334.01 633.633 C 1342.45 647.563 1348.92 662.576 1355.78 677.312 A 6910.54 6910.54 0 0 1 1389.32 750.668 C 1416.2 809.269 1444.69 867.421 1470.01 926.701 C 1473.57 935.038 1476.81 943.647 1472.86 952.541 C 1470.63 957.58 1466.27 961.227 1461.62 963.979 C 1451.46 969.993 1439.3 973.464 1428.49 978.33 C 1413.73 984.975 1399.12 993.248 1383.97 998.829 C 1376.04 1001.75 1367.45 1002.91 1359.64 998.977 C 1350.62 994.443 1346.94 986.029 1343.79 977.054 C 1321.73 987.994 1305.33 998.643 1281.56 1007.09 C 1266.3 1012.51 1250.02 1014.97 1234.94 1020.79 C 1234.54 1020.95 1234.13 1021.11 1233.73 1021.27 C 1231.69 1041.16 1230.61 1058.1 1217.35 1074.27 C 1204.92 1089.41 1189 1095.67 1170 1097.53 C 1169.93 1117.34 1166.14 1136.82 1152.3 1151.86 C 1137.33 1168.13 1115.48 1173.29 1094.22 1174.11 A 65.3965 65.3965 0 0 1 1082.69 1210.21 C 1073.42 1223.78 1058.95 1232.51 1042.91 1235.44 C 1021.89 1239.28 1005.16 1233.03 987.993 1221.36 C 983 1222.35 978.048 1223.6 973.09 1224.75 C 967.073 1240.18 959.462 1255.18 943.648 1262.61 C 933.59 1267.33 920.079 1268.93 909.167 1266.99 C 891.014 1263.75 872.414 1254.45 854.959 1248.21 A 6259 6259 0 0 1 730.27 1202.91 C 717.021 1198.16 697.495 1194.16 688.795 1182.31 C 683.307 1174.84 682.661 1166.32 683.918 1157.42 C 662.544 1151.5 641.499 1141.73 620.839 1133.58 C 618.619 1137.02 616.47 1139.8 612.912 1141.95 C 609.323 1144.12 605.331 1145.06 601.15 1144.93 C 591.287 1144.61 536.97 1133.12 525.831 1129.87 C 519 1127.88 512.095 1124.86 508.599 1118.34 C 507.694 1098.38 514.099 1076.08 517.788 1056.49 L 535.02 965.581 L 555.799 853.057 C 558.69 838.067 561.103 822.672 564.714 807.85 A 84.2184 84.2184 0 0 1 570.725 790.834 C 573.98 788.207 578.27 787.36 582.353 786.969 C 594.829 785.772 654.571 796.672 668.415 800.78 C 671.538 801.707 673.872 803.006 676.413 805.027 C 708.319 796.177 738.421 784.213 768.504 770.441 C 825.765 744.227 881.587 713.047 944.987 704.861 C 990.583 698.974 1036.74 702.392 1082.26 707.161 C 1107.98 709.855 1135.57 714.786 1161.34 712.434 C 1179.85 710.745 1197.8 704.847 1214.66 697.218 C 1212.12 690.344 1210.07 683.599 1208.35 676.477 A 169.111 169.111 0 0 1 1210.63 670.8 C 1212.22 667.113 1213.92 664.432 1217.19 662.031 C 1227.8 654.22 1242.25 649.421 1254.3 644.103 C 1272.66 635.996 1290.94 627.536 1309.58 620.082 z"/>
<path transform="translate(0,0)" fill="rgb(64,63,63)" d="M 1313.18 637.803 L 1315.42 638.219 C 1318.14 640.209 1319.6 641.96 1321.15 644.963 C 1328.75 659.655 1334.74 675.499 1341.52 690.609 A 7823.56 7823.56 0 0 0 1375.38 763.826 L 1428.55 880.98 C 1434.11 893.124 1439.45 905.476 1445.18 917.523 C 1448.75 925.024 1453.28 932.307 1456.4 939.988 C 1456.92 941.27 1457.91 942.659 1457.16 943.973 C 1453.37 950.661 1383.47 979.742 1372.22 983.059 C 1370.55 982.941 1368.2 982.958 1366.74 981.99 C 1362.7 979.304 1352.82 955.481 1349.78 949.031 C 1320.98 887.821 1294.28 825.469 1266.37 763.832 C 1258.69 746.861 1250.92 729.873 1242.9 713.058 C 1237.26 701.241 1230.62 689.374 1226.62 676.919 C 1237.97 670.611 1250.46 665.603 1262.29 660.212 C 1279.1 652.551 1295.97 644.495 1313.18 637.803 z"/>
<path transform="translate(0,0)" fill="rgb(64,63,63)" d="M 1222.85 713.043 C 1227.5 719.373 1230.47 729.436 1233.65 736.693 L 1256.06 786.847 C 1282.02 844.732 1309.54 901.919 1334.57 960.219 C 1301.12 985.939 1251.89 996.455 1211.27 1004.55 C 1215.94 1019.9 1217.99 1035.78 1211.41 1051 C 1206.44 1062.5 1197.11 1072.59 1185.28 1077.11 C 1159.09 1087.1 1150.66 1072.42 1129.61 1063.8 C 1129.26 1063.66 1128.92 1063.53 1128.57 1063.39 C 1136.47 1069.74 1143.54 1076.48 1148.09 1085.72 C 1153.75 1097.24 1153.39 1110.95 1148.98 1122.84 A 47.3284 47.3284 0 0 1 1123.62 1149.75 C 1112.4 1154.74 1095 1156.42 1083.81 1150.44 C 1077.76 1147.2 1072.13 1142.92 1065.69 1140.53 C 1066.07 1142.24 1066.47 1142.87 1067.73 1144.11 C 1074.12 1150.41 1076.35 1156.77 1077.51 1165.67 C 1079.14 1178.26 1074.92 1191.63 1067.11 1201.54 C 1059.18 1211.59 1047.54 1217.56 1034.85 1218.77 C 1018.97 1220.3 1007.62 1214.23 995.76 1204.59 C 985.569 1204.99 973.379 1205 963.867 1208.93 C 955.073 1212.56 955.042 1222.05 951.653 1229.78 C 948.892 1236.09 944.689 1242.08 937.941 1244.44 C 933.342 1246.05 923.993 1246.72 919.768 1243.83 C 918.344 1242.86 917.347 1242.04 916.966 1240.33 C 914.883 1231.01 928.958 1222.22 932.63 1214.48 C 935.733 1207.93 934.304 1194.03 932.216 1187.56 C 929.33 1178.62 922.994 1170.98 914.376 1167.07 C 890.52 1156.26 884.712 1175.21 869 1180.78 C 865.62 1180.9 863.269 1179.21 860.436 1177.61 C 857.44 1171.57 857.328 1164.77 855.568 1158.33 C 853.358 1150.24 846.233 1142.45 838.994 1138.43 C 813.476 1124.25 801.732 1151.38 787.428 1153.97 C 777.378 1155.79 776.812 1138.88 773.503 1132.59 C 770.612 1127.1 765.814 1122.03 760.758 1118.47 C 751.783 1112.15 740.824 1110.24 730.097 1112.16 C 712.868 1115.24 702.048 1127.88 692.416 1141.26 C 669.462 1133.1 647.049 1123.96 623.418 1117.85 C 631.52 1079.07 637.688 1039.84 644.531 1000.82 L 665.177 889.638 C 669.38 867.165 672.38 844.573 677.644 822.3 C 726.757 812.33 778.724 786.867 824.181 765.67 C 858.911 749.476 894.797 732.731 932.748 725.899 C 981.987 717.035 1033.15 721.78 1082.55 726.878 C 1112.92 730.013 1144.42 735.208 1174.83 730.069 C 1191.27 727.291 1206.04 720.501 1221.16 713.792 L 1222.85 713.043 z"/>
<path transform="translate(0,0)" fill="rgb(254,254,254)" d="M 843.266 877.191 C 850.243 880.638 871.328 892.079 875.044 897.875 C 874.148 902.666 869.898 905.589 866.273 908.396 C 863.479 909.208 860.72 909.98 857.782 909.751 C 851.144 909.234 841.581 907.075 837.127 901.923 C 834.931 895.472 840.937 883.641 843.266 877.191 z"/>
<path transform="translate(0,0)" fill="rgb(254,254,254)" d="M 964.998 742.582 C 999.328 739.089 1037.25 743.59 1071.33 747.572 C 1117.8 753.002 1166.88 761.368 1211.17 741.514 C 1225.06 766.91 1235.67 794.469 1247.71 820.803 A 4833.54 4833.54 0 0 1 1278.77 889.937 C 1284.06 902.02 1289.9 914.211 1294.29 926.636 C 1296.19 932.004 1297.61 937.629 1297.72 943.347 C 1297.82 948.881 1293.99 953.849 1290.24 957.636 C 1273.98 974.068 1218.23 984.49 1195.25 984.243 C 1158.41 956.029 1120.04 929.591 1082.9 901.702 C 1070.94 892.091 1058.52 883 1046.42 873.56 C 1036.29 865.661 1025.62 855.691 1014.23 849.849 A 31.6266 31.6266 0 0 0 998.453 846.366 C 964.649 847.976 947.33 917.485 923.571 942.337 A 81.1571 81.1571 0 0 1 865.895 967.318 C 855.862 967.428 848.11 964.997 841.059 957.652 C 832.432 948.666 832.878 937.279 833.061 925.682 C 845.051 931.184 856.269 934.81 869.506 931.153 C 880.063 928.236 891.463 921.486 896.667 911.512 C 899.576 905.937 900.232 899.738 898.271 893.744 C 892.561 876.289 864.843 864.067 849.529 856.075 C 858.429 827.84 870.945 795.29 889.996 772.425 C 909.391 749.147 936.258 745.257 964.998 742.582 z"/>
<path transform="translate(0,0)" fill="rgb(254,254,254)" d="M 855.665 775.925 L 856.432 776.55 C 856.807 780.152 841.667 810.562 838.999 816.922 A 455.68 455.68 0 0 0 814.327 893.126 C 808.604 917.623 804.749 945.499 819.31 967.877 C 827.201 980.005 839.407 986.739 853.336 989.546 C 868.791 992.661 885.692 990.468 900.438 985.18 C 946.636 968.612 957.964 931.002 980.64 892.394 C 985.369 884.343 990.643 875.662 998.579 870.466 C 998.911 870.249 999.249 870.04 999.584 869.827 C 1001.48 870.8 1003.3 871.831 1005.12 872.957 C 1019.82 882.082 1033.53 893.51 1047.31 904.005 A 3775.68 3775.68 0 0 0 1100.68 943.69 L 1155.91 984.018 C 1165.95 991.39 1177.02 998.57 1185.91 1007.29 C 1190.24 1011.52 1193.29 1017.64 1194.51 1023.56 A 28.3259 28.3259 0 0 1 1189.91 1045.54 C 1183.81 1054.29 1176.74 1056.73 1166.78 1058.36 L 1165.44 1057.87 C 1153.41 1053.63 1144.4 1041.87 1131.06 1041.68 C 1125.54 1041.61 1119.64 1043.05 1115.72 1047.16 C 1093.18 1070.79 1130.69 1085.04 1130.69 1106.77 C 1130.7 1113.23 1127.73 1119.05 1123.24 1123.57 C 1114.98 1131.89 1106.43 1132.98 1095.4 1133.06 C 1088.54 1127.48 1081.77 1121.44 1074.02 1117.11 C 1067.39 1114.66 1060.41 1115.63 1053.99 1118.23 C 1049.67 1119.99 1045.98 1123.03 1044.25 1127.45 C 1037.02 1145.87 1051.33 1154.33 1055.69 1168.29 C 1057 1172.5 1056.08 1178.3 1054.26 1182.22 C 1051.35 1188.51 1044.48 1194.62 1037.85 1196.67 C 1026.25 1200.25 1017.9 1190.65 1008.5 1185.83 C 993.527 1178.16 972.723 1182.48 957.614 1187.05 C 952.66 1170.98 945.258 1157.61 930.191 1148.98 C 912.912 1139.08 895.551 1140.27 877.019 1145.41 C 867.477 1131.2 857.991 1120.18 840.791 1115.15 C 824.438 1110.36 808.47 1113.24 793.856 1121.35 C 787.968 1112.85 782.284 1105.02 773.62 1099.12 C 759.898 1089.77 741.755 1086.26 725.491 1089.32 C 710.266 1092.19 693.866 1101.42 685.122 1114.45 C 673.63 1108.7 661.364 1105.74 649.505 1100.91 C 655.725 1059.44 664.482 1018.17 671.903 976.89 C 680.009 931.803 687.006 886.369 696.431 841.534 A 1133.85 1133.85 0 0 0 855.665 775.925 z"/>
</svg>