<svg version="1.1" xmlns="http://www.w3.org/2000/svg" style="display: block;" viewBox="0 0 2048 2048" width="1024" height="1024">
<path transform="translate(0,0)" fill="rgb(254,254,254)" d="M 0 0 L 2048 0 L 2048 2048 L 0 2048 L 0 0 z"/>
<path transform="translate(0,0)" fill="rgb(61,61,61)" d="M 1020.48 103.337 C 1057.94 105.666 1070.4 147.311 1100.45 149.352 C 1128.85 151.281 1150.93 114.863 1181.23 115.376 C 1209.28 115.851 1220.61 147.904 1237.8 164.964 C 1266.36 193.303 1297.24 157.3 1328.54 157.992 C 1364.95 158.797 1367.92 201.846 1388.44 221.869 C 1407.96 240.921 1440.51 223.869 1464.01 224.09 C 1513.94 224.559 1500.07 278.44 1524.54 302.148 C 1539.24 316.387 1562.4 311.944 1581 312.195 C 1585.74 312.259 1590.56 312.619 1595.2 313.601 C 1646.13 324.373 1619.66 378.622 1642.4 401.795 C 1662.81 422.585 1703.3 409.757 1725.23 433.376 C 1739.27 448.487 1735.17 473.691 1734.74 492.697 C 1733.49 547.711 1788.64 527.387 1815.33 556.686 C 1835.53 578.857 1818.82 607.815 1817.57 633.049 C 1815.68 671.058 1860.52 674.107 1880.59 697.007 C 1906.58 726.658 1872.97 755.039 1871.58 784.93 C 1870.21 814.284 1906.56 823.577 1922.37 842.273 C 1927.44 848.276 1930.32 855.337 1931.11 863.141 C 1934.49 896.523 1900.83 912.421 1898.74 941.795 C 1897.24 962.762 1918 977.265 1930.43 991.462 C 1933.31 994.748 1935.95 998.22 1938.12 1002.02 C 1942.04 1008.86 1943.67 1016.37 1943.17 1024.22 C 1941.04 1057.53 1904.67 1068.63 1897.95 1097.27 C 1890.58 1128.68 1932.11 1150.69 1928.99 1183 C 1926.56 1208.12 1902.48 1218.57 1885.5 1233.12 C 1845.33 1267.54 1894.95 1294.39 1891.12 1331 C 1887.78 1363 1845.34 1367.27 1825.23 1384.19 C 1799.59 1405.78 1829.94 1445.33 1827.02 1471.96 C 1823.03 1508.42 1768.69 1502.96 1746.68 1521.55 C 1727.94 1537.38 1736.59 1569.16 1734.77 1590.68 C 1730.67 1639 1679.44 1623.16 1650.65 1639.59 C 1622.86 1655.45 1638.83 1700.11 1619.16 1723.19 C 1597.26 1748.9 1555.72 1724.09 1529.87 1740.55 C 1504.81 1756.49 1512.84 1796.71 1489.16 1815.69 C 1469.63 1831.35 1442.69 1818.45 1420.78 1816.1 C 1372.75 1810.95 1377.57 1861.09 1349.32 1882.95 C 1321.75 1904.28 1293.82 1871.83 1266.51 1869.5 C 1238.87 1867.15 1224.55 1905.81 1206.38 1920.74 C 1168.18 1952.12 1136.9 1899.11 1106.44 1897.5 C 1087.34 1896.49 1071.22 1915.66 1057.99 1927.14 C 1045.55 1937.94 1033.97 1944.45 1016.86 1943.26 C 993.648 1936.72 981.783 1915.36 961.943 1903.6 C 928.907 1884.03 905.571 1923.85 875.719 1930.68 C 837.035 1939.53 826.626 1890.15 800.341 1874.63 C 776.858 1860.77 750.96 1884.31 728.399 1890.02 C 723.919 1891.15 719.218 1891.75 714.599 1891.34 A 37.6538 37.6538 0 0 1 706.28 1889.61 C 674.023 1878.89 677.817 1833.4 653.541 1819.58 C 629.232 1805.73 595.425 1833.86 568.038 1822.99 C 533.936 1809.45 547.366 1759.95 521.628 1740.25 C 497.942 1722.13 461.164 1746.7 435.772 1730.88 C 414.245 1717.48 417.262 1683.24 412.539 1661.37 C 403.233 1618.26 354.285 1640.69 326.559 1621.87 C 299.105 1603.23 316.975 1566.08 311.915 1539.51 C 305.617 1506.44 261.155 1512.18 238.848 1496.14 C 204.967 1471.78 236.617 1432.5 230.748 1401.31 C 226.37 1378.05 192.214 1371.53 175.067 1359.85 C 132.211 1330.65 176.983 1294.36 176.896 1262.03 C 176.799 1226.28 129.179 1223.01 119.223 1192.4 C 119.05 1191.86 118.889 1191.33 118.743 1190.79 C 118.592 1190.22 118.454 1189.66 118.331 1189.09 C 110.368 1152.4 151.83 1133.36 149.742 1099.66 C 148.136 1073.75 110.019 1057.99 105.356 1029.85 C 100.238 998.944 128.303 985.034 143.103 963.384 C 165.355 930.834 123.808 905.672 118.279 875.399 C 111.413 837.801 156.815 828.543 172.87 803.445 C 186.523 782.1 163.543 753.046 158.499 731.348 C 147.05 682.089 202.623 683.41 225.337 657.224 C 229.911 651.95 231.975 645.753 232.063 638.817 C 232.327 618.169 220.703 598.598 223.157 577.613 C 228.605 531.033 292.904 548.733 309.244 516.329 C 321.361 492.298 302.854 459.79 318.256 436.119 C 332.042 414.93 363.192 418.068 385.041 413.217 C 429.914 403.254 409.475 354.339 429.086 325.417 C 445.169 301.697 485.153 314.362 508.926 309.541 C 540.783 303.08 537.96 259.684 554.074 237.188 C 577.758 204.123 614.369 236.177 644.031 230.788 C 668.811 226.285 674.869 192.32 687.724 174.512 C 717.801 132.844 754.8 177.058 786.575 176.999 C 819.176 176.939 826.763 129.456 855.636 118.892 C 889.988 106.324 911.481 149.458 942.286 149.109 C 972.484 148.767 988.306 108.658 1020.48 103.337 z"/>
<path transform="translate(0,0)" fill="rgb(254,254,254)" d="M 1019 131.118 C 1054.89 129.831 1070.02 176.137 1097.07 178.846 C 1125.37 181.68 1149.5 137.921 1179.91 142.811 C 1202.21 146.398 1216.44 175.332 1228.8 191.509 C 1255.95 227.052 1291.61 180.14 1324.52 185.046 C 1354.31 189.487 1357.96 227.9 1372.99 247.769 C 1391.5 272.26 1433.96 244.442 1459.63 248.747 C 1496.38 254.909 1488.54 302.137 1505.73 324.969 C 1520.22 344.23 1558.55 332.546 1579.55 336.347 C 1627.41 345.006 1601.39 397.456 1619.79 421.762 C 1630.15 435.463 1657.5 434.316 1673.46 436.893 C 1678.35 437.683 1683.39 438.737 1688.07 440.399 C 1733.11 456.399 1699.24 507.595 1716.22 536.432 C 1731.08 561.656 1778.05 550.428 1795.78 576.714 C 1807.87 594.639 1797.37 618.882 1793.49 637.968 C 1782.36 692.705 1840.07 680.998 1860.38 713.89 C 1875.82 738.895 1847.2 768.844 1842.02 793.257 C 1835.78 822.612 1884.09 833.379 1897.96 854.507 C 1921.61 890.562 1872.95 911.647 1867.47 942.085 C 1863.21 965.745 1896.84 983.853 1908.35 1001.73 C 1937.05 1046.31 1872.93 1063.71 1866.95 1095.58 C 1863.73 1112.75 1880.99 1131.36 1890.08 1144.77 C 1892.02 1147.63 1893.97 1150.5 1895.69 1153.51 C 1924.97 1204.64 1852.06 1213.82 1840.42 1244.7 C 1831.76 1267.68 1869.55 1296.6 1863.39 1323.99 C 1857.1 1351.96 1819.57 1356.2 1799.51 1369.9 C 1769.06 1390.71 1807.13 1431.63 1800.92 1460.49 C 1793.55 1494.76 1744.68 1488.35 1721.73 1504.19 C 1698.78 1520.04 1717.93 1560.29 1712.45 1583.93 C 1703.46 1622.67 1649.35 1602.25 1624.78 1618.89 C 1607.39 1630.67 1613.73 1664.8 1610 1683.5 C 1599.46 1736.24 1540.05 1698.29 1512.14 1713.79 C 1487.87 1727.28 1498.45 1777.07 1472.11 1793.72 C 1453.42 1805.52 1425.19 1792.24 1405.83 1788.39 C 1358.48 1778.98 1366.82 1838.67 1337.57 1857.43 C 1311.86 1873.91 1284.44 1845.26 1259.5 1840.85 C 1230.49 1835.72 1216.95 1882.94 1193.68 1897.89 C 1164.29 1916.79 1130.62 1873.43 1099.25 1866.83 C 1070.88 1874.59 1058.49 1907.1 1029.01 1915.02 C 993.68 1917.16 982.559 1880.28 956.445 1869.21 C 933.933 1859.67 905.259 1893.02 884.431 1900.91 C 841.614 1917.12 834.148 1855.95 804.084 1842.92 C 787.022 1835.53 761.985 1853.64 746.035 1859.67 C 687.771 1881.72 695.917 1812.28 666.619 1793.39 C 644.162 1778.92 608.308 1810.14 581.994 1797.42 C 560.367 1786.97 556.578 1755.95 549.803 1735.7 C 534.073 1688.67 487.496 1725.84 455.849 1708.71 C 431.265 1695.4 437.965 1658.45 431.324 1635.83 C 421.32 1601.74 373.909 1618.04 348.924 1603.74 C 319.642 1586.98 341.95 1544 333.685 1518.31 C 326.326 1495.43 287.741 1493.51 268.62 1483.81 C 223.457 1460.89 267.973 1414.06 257.165 1384.14 C 252.343 1370.8 234.489 1365.02 222.652 1359.39 C 208.752 1352.79 189.399 1344.32 184.24 1328.44 C 178.233 1309.95 194.585 1287.52 202.392 1271.48 C 226.218 1222.51 157.668 1221.84 145.704 1184.76 C 136.795 1157.15 165.769 1136.97 176.758 1115.1 C 194.11 1080.57 144.18 1063.67 134.595 1033.09 C 123.87 998.872 165.971 983.299 178.398 958.199 C 190.678 933.398 153.521 906.521 146.444 883.726 C 133.687 842.64 190.657 835.087 204.565 808.028 C 214.516 788.665 192.582 761.628 186.35 743.248 C 168.489 690.577 236.837 695.302 254.13 668.784 C 271.015 642.89 236.199 606.621 251.042 578.774 C 261.098 559.907 289.555 556.797 308.066 551.402 C 361.106 535.945 320.169 486.706 339.547 453.985 C 353.284 430.789 389.947 438.306 412.23 432.013 C 447.647 422.012 430.372 373.612 445.838 348.498 C 463.844 319.26 503.277 340.33 529.687 333.22 C 555.673 326.224 554.236 281.878 566.571 262.072 C 589.203 225.733 631.436 264.919 661.081 256.8 C 678.438 252.047 686.139 222.562 694.079 208.074 C 725.534 150.68 766.325 210.489 799.458 205.407 C 825.464 201.419 834.699 152.212 863.467 144.562 C 886.753 138.37 910.194 163.176 928.571 173.679 C 964.669 194.313 982.868 141.323 1019 131.118 z"/>
<path transform="translate(0,0)" fill="rgb(181,60,60)" d="M 1017.26 141.028 C 1044.91 139.483 1060.51 169.826 1081.49 183.229 C 1114.28 204.18 1143.27 159.19 1173.79 152.04 L 1175.2 151.724 C 1207.65 158.525 1212.14 201.108 1239.58 212.796 C 1260.53 221.726 1284.38 203.885 1303.56 196.863 C 1352.63 178.896 1346.5 245.845 1375.34 263.401 C 1401.86 279.553 1439.88 248.024 1465.25 260.947 C 1482.31 269.633 1485.37 300.866 1490.96 317.304 C 1508.05 367.542 1557.19 333.983 1586.9 349.522 C 1608.64 360.891 1599.78 397.31 1605.94 417.52 C 1617.25 454.644 1664.35 437.147 1690.59 452.558 C 1715.31 467.084 1697 510.13 1703.99 534.112 C 1713.51 566.774 1755.66 561.095 1779.51 574.716 C 1808.35 591.19 1775.77 638.225 1784.15 666.099 C 1790.18 686.148 1814.65 694.241 1831.4 703.253 C 1839.8 707.769 1849.13 712.884 1853.7 721.665 C 1865.08 743.563 1826.94 779.17 1831.48 805.051 C 1836.93 836.143 1886.03 839.304 1893.82 868.378 C 1899.23 888.583 1871.58 912.182 1862.09 928.537 C 1838.23 969.656 1897.6 985.673 1907.45 1022.36 C 1901.57 1048.34 1876.83 1059.21 1863.1 1080.04 C 1839.19 1116.29 1886.84 1138.63 1892.16 1171.03 C 1896.96 1200.26 1847.54 1213.79 1833.55 1234.71 C 1820.1 1254.84 1840.37 1280.78 1848.76 1299.15 C 1851.88 1305.99 1853.64 1312.52 1855.11 1319.88 C 1846.31 1352.74 1795.06 1347.22 1780.31 1376.2 C 1766.28 1403.77 1802.45 1436.73 1789.51 1464.28 C 1781.42 1481.51 1744.42 1484.56 1727.79 1490.99 C 1676.92 1510.66 1715.29 1557.31 1701.57 1585.51 C 1690.54 1608.17 1646.7 1599.24 1626.05 1607.39 C 1591.34 1621.1 1610.24 1662.43 1598.42 1688.45 C 1585.22 1717.5 1534.13 1693.73 1509.33 1704.1 C 1485.91 1713.9 1486.2 1752.42 1477.64 1772.65 C 1461.65 1810.44 1412.26 1770.36 1382.98 1779.71 C 1351.94 1789.63 1354.61 1842.01 1327.43 1851.77 C 1312.58 1857.1 1291 1843.25 1277.6 1837.45 C 1217 1811.21 1219.86 1879.06 1183.63 1892.06 C 1163.77 1899.18 1134.39 1869.22 1116.52 1861.55 C 1078.97 1845.45 1059.67 1893.29 1029.22 1905.45 C 998.454 1908.51 985.104 1869.25 959.383 1859.26 C 932.194 1848.7 905.659 1881.93 882.509 1891.14 C 847.727 1904.99 835.875 1844.48 807.086 1833.24 C 788.132 1825.85 765.531 1840.62 748.497 1847.96 C 690.884 1872.82 704.742 1803.55 670.97 1783.93 C 645.558 1769.17 608.256 1799.06 585.317 1788.81 C 567.25 1780.74 563.555 1743.58 556.661 1726.88 C 536.729 1678.61 491.218 1714.35 462.087 1701.31 C 439.648 1691.27 447.05 1646.38 438.4 1626.29 C 424.63 1594.3 385.742 1607.81 360.068 1597.65 C 323.958 1583.36 354.185 1538.19 341.389 1510.27 C 331.785 1489.31 299.267 1485.73 280.051 1478.73 C 230.349 1460.63 278.882 1413.41 266.998 1380.22 C 256.72 1351.5 205.399 1353.49 194.549 1327.67 C 187.297 1310.42 207.988 1284.39 214.023 1268.24 C 233.155 1217.01 169.053 1216.15 155.553 1183.65 C 145.564 1159.6 181.726 1132.83 189.491 1111.66 C 202.276 1076.8 156.341 1060.89 144.798 1034.44 C 130.97 1002.75 181.046 983.024 190.046 956.368 C 198.727 930.656 168.611 908.416 158.485 887.605 C 139.304 848.187 205.36 838.097 215.643 806.651 C 221.466 788.844 208.99 769.107 201.602 753.582 C 196.796 743.483 190.742 731.144 195.179 719.881 C 200.867 705.445 223.449 699.287 236.426 693.16 C 302.577 661.927 245.443 620.557 259.035 585.588 C 266.628 566.051 305.361 564.62 322.676 556.663 C 364.227 537.568 333.911 492.824 345.844 462.775 C 355.172 439.284 400.341 448.034 421.449 438.968 C 454.33 424.845 440.844 385.351 451.58 359.238 C 463.72 329.708 514.227 351.455 538.957 340.077 C 561.244 329.823 562.951 296.159 570.446 275.769 C 586.176 232.974 635.248 276.882 665.011 266.762 C 694.515 256.729 692.629 205.545 719.327 194.402 C 736.271 187.33 760.651 204.612 776.286 211.012 C 830.375 233.154 830.512 167.597 865.397 154.4 C 884.125 147.314 914.793 179.107 932.209 186.139 C 967.744 200.487 988.423 153.319 1017.26 141.028 z"/>
<path transform="translate(0,0)" fill="rgb(254,254,254)" d="M 995.187 260.427 A 232.793 232.793 0 0 1 1001.74 260.127 A 776.637 776.637 0 0 1 1554.16 475.345 C 1572.53 492.637 1589.41 511.49 1605.76 530.676 A 766.195 766.195 0 0 1 1787.95 1002.49 A 746.265 746.265 0 0 1 1580.98 1543.96 C 1442.94 1690.39 1255.44 1781.23 1053.25 1787.25 A 757.812 757.812 0 0 1 514.661 1591.65 A 764.093 764.093 0 0 1 259.582 1062.89 A 765.389 765.389 0 0 1 455.956 514.123 A 765.916 765.916 0 0 1 995.187 260.427 z"/>
<path transform="translate(0,0)" fill="rgb(61,61,61)" d="M 1001.74 300.462 A 718.986 718.986 0 0 1 1425.93 422.621 C 1456.03 442.71 1484.14 463.744 1510.61 488.418 C 1616.34 586.993 1687.49 700.296 1723.72 840.743 A 734.856 734.856 0 0 1 1747.07 998.619 A 710.975 710.975 0 0 1 1553.3 1516.67 A 718.673 718.673 0 0 1 1047.06 1747.55 C 897.293 1748.11 776.191 1719.79 647.425 1641.22 C 606.811 1616.44 567.639 1588.17 532.988 1555.41 C 388.604 1418.9 305.471 1240.48 300.11 1041.33 A 723.361 723.361 0 0 1 453.655 577.086 C 469.034 557.512 486.288 539.279 503.399 521.227 A 719.048 719.048 0 0 1 1001.74 300.462 z"/>
<path transform="translate(0,0)" fill="rgb(254,254,254)" d="M 1005.33 324.469 A 702.763 702.763 0 0 1 1498.3 510.714 C 1630.87 632.711 1715.57 807.939 1722.85 988.656 C 1724.51 1029.91 1724.05 1071.22 1719.06 1112.24 A 694.561 694.561 0 0 1 1540.54 1494.95 A 697.871 697.871 0 0 1 1045.39 1723.79 A 700.937 700.937 0 0 1 547.516 1534.87 A 701.936 701.936 0 0 1 324.305 1042.59 A 698.848 698.848 0 0 1 517.973 540.383 A 703.097 703.097 0 0 1 1005.33 324.469 z"/>
<path transform="translate(0,0)" fill="rgb(61,61,61)" d="M 1009.53 336.47 A 690.923 690.923 0 0 1 1493.93 522.4 A 685.262 685.262 0 0 1 1711.88 1000.77 A 674.517 674.517 0 0 1 1530.62 1488.65 A 695.365 695.365 0 0 1 1159.74 1698.73 C 1120.82 1706.54 1081.95 1710.31 1042.33 1711.85 A 687.212 687.212 0 0 1 550.655 1521.37 A 683.925 683.925 0 0 1 337.108 1047.03 C 332.151 859.833 397.397 684.227 526.924 548.269 A 689.076 689.076 0 0 1 1009.53 336.47 z"/>
<path transform="translate(0,0)" fill="rgb(254,254,254)" d="M 1143.69 1356.21 L 1163.92 1356.12 L 1164.02 1473.23 L 1143.63 1473.19 A 8133.21 8133.21 0 0 1 1143.69 1356.21 z"/>
<path transform="translate(0,0)" fill="rgb(181,60,60)" d="M 566.073 1225.71 C 572.784 1234.99 575.867 1251.06 579.571 1262.17 A 2937.29 2937.29 0 0 0 622.107 1261.92 C 610.331 1270.34 598.316 1278.81 587.157 1288.02 C 591.417 1300.5 594.9 1313.36 598.851 1325.96 C 588.697 1318.96 578.919 1311.11 568.967 1303.8 L 567.033 1302.94 C 560.707 1303.35 541.774 1319.73 535.136 1324.03 L 534.031 1324.73 C 537.326 1311.62 541.431 1298.62 545.2 1285.63 C 534.166 1279.07 524.356 1270.84 514.434 1262.76 A 704.153 704.153 0 0 1 554.307 1262.53 C 557.822 1250.17 561.485 1237.72 566.073 1225.71 z"/>
<path transform="translate(0,0)" fill="rgb(181,60,60)" d="M 1484.18 1226.58 C 1489.12 1231.36 1495.22 1254.33 1497.65 1261.74 L 1534.93 1262.02 C 1526.73 1271.26 1516.09 1278.7 1506.33 1286.21 C 1508.92 1299.05 1512.87 1311.83 1516.35 1324.46 C 1506.33 1316.92 1495.69 1310.42 1485.06 1303.78 C 1475.01 1305.69 1462.46 1316.44 1453.98 1322.26 C 1456.35 1310.7 1459.8 1299.31 1462.89 1287.93 C 1453.37 1278.36 1442.01 1271.22 1432.26 1261.95 A 1578.02 1578.02 0 0 0 1471.25 1261.35 C 1474.9 1249.77 1478.18 1237.15 1484.18 1226.58 z"/>
<path transform="translate(0,0)" fill="rgb(254,254,254)" d="M 666.576 1187.25 C 689.743 1186.87 712.969 1187.19 736.143 1187.17 L 736.172 1205.04 L 687.028 1205.06 L 686.997 1236.04 L 718.244 1236.16 C 718.373 1241.78 718.782 1247.48 717.889 1253.06 A 2204.5 2204.5 0 0 0 687.044 1253.48 L 687.009 1303.94 L 666.708 1304.01 L 666.576 1187.25 z"/>
<path transform="translate(0,0)" fill="rgb(254,254,254)" d="M 1242.09 1185.35 C 1256.93 1185.26 1266.36 1188.61 1279.59 1194.92 C 1276.58 1200.45 1273.72 1206.06 1270.8 1211.63 C 1265.07 1208.01 1258.88 1205.11 1252.09 1204.25 C 1244.25 1203.26 1236.63 1205.24 1230.44 1210.21 C 1221.3 1217.55 1216.86 1229.54 1215.81 1240.91 C 1214.65 1253.4 1216.57 1267.8 1225.04 1277.54 C 1245.3 1300.84 1262.18 1279.38 1272.9 1280.39 C 1275.83 1284.81 1278.15 1289.56 1280.55 1294.29 C 1272.73 1298.92 1265 1303.04 1256.03 1304.93 C 1242.84 1307.71 1228.1 1305.81 1216.92 1297.98 C 1204.6 1289.36 1197.71 1275.43 1195.32 1260.88 C 1192.23 1242.13 1195.21 1221.97 1206.56 1206.39 C 1215.41 1194.23 1227.39 1187.56 1242.09 1185.35 z"/>
<path transform="translate(0,0)" fill="rgb(254,254,254)" d="M 704.774 1355.27 C 717.141 1354.16 726.867 1355.1 737.928 1361.05 L 737.951 1385.33 C 730.496 1379.73 723.106 1374.72 713.342 1374.76 C 705.488 1374.79 698.136 1378.47 692.705 1384.02 C 683.803 1393.11 680.197 1405.89 680.794 1418.4 C 681.297 1428.94 684.842 1439.69 692.908 1446.86 C 700.932 1454 714.415 1457.64 724.506 1452.93 C 728.524 1451.06 733.326 1446.63 737.708 1446.35 L 739.253 1448.44 L 746.357 1459.39 C 740.703 1465.31 734.61 1470 726.658 1472.38 C 713.803 1476.23 697.892 1474.22 686.27 1467.76 C 673.474 1460.64 665.175 1448.38 661.417 1434.47 C 656.798 1417.36 658.183 1398.24 667.123 1382.76 C 675.725 1367.85 688.401 1359.71 704.774 1355.27 z"/>
<path transform="translate(0,0)" fill="rgb(254,254,254)" d="M 746.061 1186.96 C 769.154 1186.02 792.543 1186.62 815.655 1186.87 L 815.632 1204.85 L 766.999 1204.78 L 766.973 1235.97 L 797.198 1235.98 L 797.201 1252 L 766.966 1251.99 L 766.925 1273.5 L 766.945 1286.14 A 2147.44 2147.44 0 0 1 815.66 1286.34 L 815.648 1304.01 L 746.057 1304.05 L 746.061 1186.96 z"/>
<path transform="translate(0,0)" fill="rgb(254,254,254)" d="M 854.78 1186.49 A 2201.24 2201.24 0 0 1 897.849 1186.71 L 897.891 1205 L 848.025 1205.11 L 848.002 1234.86 A 2262.25 2262.25 0 0 1 879.798 1234.84 L 879.843 1251.43 L 848.03 1251.69 C 847.895 1263.36 848.172 1274.83 849.295 1286.45 L 859.5 1286.54 A 1075.96 1075.96 0 0 1 897.534 1286.96 C 898.049 1292.63 898.144 1298.39 898.401 1304.07 L 828.052 1304.07 L 827.512 1186.63 L 854.78 1186.49 z"/>
<path transform="translate(0,0)" fill="rgb(254,254,254)" d="M 888.964 1356.02 C 891.669 1355.84 894.366 1355.9 897.075 1355.94 C 897.751 1356.34 898.57 1356.56 899.103 1357.13 C 901.414 1359.63 939.387 1461.89 943.912 1473.59 L 921.909 1473.7 L 913.327 1449.8 L 900.74 1449.69 L 875.885 1449.87 L 866.463 1473.47 L 844.918 1473.62 C 862.655 1436.07 875.841 1395.37 888.964 1356.02 z"/>
<path transform="translate(0,0)" fill="rgb(61,61,61)" d="M 893.72 1396.73 C 898.027 1401.5 904.747 1425.3 907.314 1432.61 L 899.25 1432.13 L 882.042 1432 C 885.237 1420.14 889.772 1408.38 893.72 1396.73 z"/>
<path transform="translate(0,0)" fill="rgb(254,254,254)" d="M 1345.81 1187.09 A 664.175 664.175 0 0 0 1367.1 1187.99 C 1356.15 1205.63 1343.59 1222.22 1332.72 1239.92 C 1345.44 1262.28 1361.43 1282.77 1374.25 1305.13 L 1350.16 1305.12 C 1339.22 1289.52 1329.27 1273.17 1318.55 1257.4 C 1315.64 1261.46 1313.33 1265.48 1311.07 1269.91 L 1311.08 1304.97 L 1290.13 1304.86 L 1290.43 1187.92 L 1310.78 1187.95 L 1310.97 1243.41 C 1321.05 1223.4 1334.66 1206.33 1345.81 1187.09 z"/>
<path transform="translate(0,0)" fill="rgb(254,254,254)" d="M 1060.02 1356.11 C 1077.89 1355.93 1108.9 1352.16 1122.76 1365.24 C 1129.27 1371.37 1132.42 1380.2 1132.56 1389.03 C 1132.71 1398.41 1129.46 1407.79 1122.55 1414.3 C 1111.46 1424.76 1094.45 1423.03 1080.36 1422.98 C 1078.18 1438.92 1080.07 1457.65 1080.18 1473.89 L 1060 1473.94 L 1060.02 1356.11 z"/>
<path transform="translate(0,0)" fill="rgb(61,61,61)" d="M 1080.66 1374.31 C 1089.11 1374.11 1097.96 1373.41 1105.59 1377.79 C 1108.71 1379.58 1111.19 1382.21 1111.74 1385.91 C 1112.5 1390.99 1109.72 1396.67 1106.65 1400.51 C 1098.21 1404.85 1089.7 1404.06 1080.48 1403.99 A 751.628 751.628 0 0 1 1080.66 1374.31 z"/>
<path transform="translate(0,0)" fill="rgb(254,254,254)" d="M 1136.05 1186.93 L 1151.3 1186.71 A 3125.17 3125.17 0 0 0 1194.61 1303.99 L 1172.6 1304.05 C 1169.93 1297.77 1168.5 1287.01 1163.94 1282.1 C 1161.51 1279.49 1159.56 1280.1 1156.25 1279.98 L 1123.95 1280.02 L 1116.16 1304.06 L 1095.93 1304.04 C 1106.86 1265.58 1122.87 1225.13 1136.05 1186.93 z"/>
<path transform="translate(0,0)" fill="rgb(61,61,61)" d="M 1144.42 1221.76 C 1148.3 1226.79 1155.53 1254.67 1157.95 1262.62 L 1143.75 1262.63 L 1130.08 1262.62 C 1135.38 1249.24 1139.45 1235.29 1144.42 1221.76 z"/>
<path transform="translate(0,0)" fill="rgb(254,254,254)" d="M 754.064 1356.36 C 760.744 1356.06 767.502 1356.24 774.192 1356.23 L 774.344 1406.52 L 818.087 1406.63 L 818.216 1356.45 C 824.966 1356.13 831.779 1356.28 838.538 1356.27 A 7368.76 7368.76 0 0 0 838.857 1472.71 C 835.895 1475.07 822.362 1473.78 818.08 1473.74 L 817.995 1425.94 L 774.402 1425.98 C 774.185 1441.9 774.368 1457.83 774.387 1473.75 L 753.059 1473.65 C 753.826 1434.54 753.444 1395.45 754.064 1356.36 z"/>
<path transform="translate(0,0)" fill="rgb(254,254,254)" d="M 1145.08 1117.28 C 1195.69 1116.51 1246.42 1117.12 1297.05 1117.05 L 1582.15 1116.99 L 1582.06 1130.25 C 1529.8 1129.51 1477.47 1130.01 1425.21 1130.01 L 1145 1130.03 L 1145.08 1117.28 z"/>
<path transform="translate(0,0)" fill="rgb(254,254,254)" d="M 462.586 1117.35 C 512.381 1116.4 562.311 1116.96 612.119 1116.88 L 908.974 1117.04 L 908.943 1129.97 L 462.692 1130.03 L 462.586 1117.35 z"/>
<path transform="translate(0,0)" fill="rgb(254,254,254)" d="M 1288.11 1355.31 C 1290.48 1355.22 1293.35 1354.87 1295.68 1355.17 C 1296.12 1355.23 1297.66 1355.63 1298.15 1356.01 C 1302.52 1359.35 1346.86 1421.94 1352.02 1430.22 L 1351.98 1356.08 L 1370.98 1356.03 L 1371.13 1474.05 L 1359.69 1474.01 C 1341.46 1450.59 1323.36 1425.38 1307.38 1400.4 C 1308.28 1424.87 1307.84 1449.46 1307.83 1473.94 L 1287.98 1474 L 1288.11 1355.31 z"/>
<path transform="translate(0,0)" fill="rgb(254,254,254)" d="M 1145.69 1081.11 L 1581.87 1081.07 L 1581.9 1095.03 C 1436.43 1095 1290.84 1093.83 1145.38 1095.46 C 1145.4 1090.68 1145.58 1085.89 1145.69 1081.11 z"/>
<path transform="translate(0,0)" fill="rgb(254,254,254)" d="M 462.684 1081.3 C 528.163 1080.17 593.821 1081.48 659.314 1081.69 L 908.882 1081.12 L 908.891 1095.26 A 13070.6 13070.6 0 0 1 763.43 1095.1 L 462.468 1095.12 L 462.684 1081.3 z"/>
<path transform="translate(0,0)" fill="rgb(254,254,254)" d="M 1041.17 1353.52 C 1041.72 1354.17 1042.45 1354.71 1042.82 1355.48 C 1044.52 1359.03 1043.41 1460.08 1043.45 1473.57 L 1023.05 1473.75 L 1022.9 1408.26 C 1012.88 1419.18 1004.31 1431.7 995.577 1443.65 C 987.37 1430.56 977.235 1418.28 967.96 1405.91 C 967.542 1419.08 967.745 1432.32 967.686 1445.5 L 967.619 1473.68 L 947.485 1473.79 C 947.867 1446.71 947.456 1419.58 947.308 1392.5 C 947.243 1380.6 945.613 1366.78 947.851 1355.21 L 949.253 1354.55 C 959.637 1358.49 987.886 1400.09 997.097 1411.04 C 1005.04 1399.38 1031.77 1361.67 1041.17 1353.52 z"/>
<path transform="translate(0,0)" fill="rgb(254,254,254)" d="M 1014.8 1186.48 C 1033.43 1186.13 1064.52 1182.09 1078.7 1195.85 C 1084.49 1201.47 1086.21 1208.74 1086.06 1216.61 C 1085.88 1226.58 1082.1 1232.6 1075.26 1239.38 L 1075.96 1239.71 L 1077.12 1240.29 C 1078.64 1241.03 1080.16 1241.75 1081.64 1242.57 C 1088.71 1246.47 1094.35 1253.4 1096.36 1261.26 C 1098.98 1271.46 1095.79 1281.25 1090.53 1289.98 C 1089.76 1290.88 1088.99 1291.73 1088.14 1292.55 C 1070.14 1309.96 1037.33 1304.87 1014.11 1304.61 C 1014.4 1265.26 1013.88 1225.82 1014.8 1186.48 z"/>
<path transform="translate(0,0)" fill="rgb(61,61,61)" d="M 1036.04 1204.03 C 1044.88 1203.85 1054.55 1203.02 1062.39 1207.96 C 1065.16 1209.7 1067.24 1212.08 1067.6 1215.47 C 1068.15 1220.68 1064.7 1225.72 1061.51 1229.46 C 1053.83 1234.69 1044.88 1234.03 1036.04 1233.98 L 1036.04 1204.03 z"/>
<path transform="translate(0,0)" fill="rgb(61,61,61)" d="M 1036.03 1251.09 C 1046.69 1250.99 1058.66 1249.92 1068.02 1255.96 C 1071.35 1258.1 1074.58 1261.29 1075.19 1265.37 C 1076.06 1271.26 1072.88 1277.92 1069.31 1282.37 C 1059.77 1288.25 1046.88 1286.8 1036.06 1286.79 L 1036.03 1251.09 z"/>
<path transform="translate(0,0)" fill="rgb(254,254,254)" d="M 914.253 1186.5 C 937.674 1186.13 966.029 1182.05 984.53 1199.62 C 996.143 1210.66 1000.53 1226.73 1001.06 1242.29 C 1001.71 1261.26 997.059 1278.29 983.851 1292.28 C 962.798 1309.08 935.579 1304.93 910.345 1304.62 L 910.403 1218.37 C 910.394 1211.07 908.99 1195.33 910.391 1188.9 C 910.548 1188.18 911.18 1187.65 911.575 1187.03 L 914.253 1186.5 z"/>
<path transform="translate(0,0)" fill="rgb(61,61,61)" d="M 931.652 1205.95 C 942.203 1205.6 955.249 1204.45 964.763 1209.77 C 971.979 1213.81 975.898 1221.21 977.865 1228.99 C 981.885 1244.88 979.787 1263.17 971.168 1277.12 C 970.753 1277.56 970.346 1278 969.923 1278.43 C 960.03 1288.49 944.839 1286.37 931.979 1286.2 L 931.652 1205.95 z"/>
<path transform="translate(0,0)" fill="rgb(254,254,254)" d="M 1222.28 1355.34 A 47.9261 47.9261 0 0 1 1253.08 1363.49 C 1265.37 1372.02 1271.9 1386.14 1274.44 1400.5 C 1277.76 1419.22 1275.11 1440.05 1263.8 1455.75 C 1255.32 1467.53 1244.32 1473.37 1230.25 1475.52 C 1218.94 1476.49 1207.67 1473.93 1198.51 1467.03 C 1186.17 1457.75 1178.9 1442.5 1176.72 1427.44 C 1174.06 1409.1 1177.67 1388.1 1189.33 1373.3 C 1197.99 1362.31 1208.66 1357.05 1222.28 1355.34 z"/>
<path transform="translate(0,0)" fill="rgb(61,61,61)" d="M 1220.4 1375.09 C 1225.27 1374.83 1229.98 1374.74 1234.54 1376.73 C 1242.05 1380.01 1247.22 1386.86 1250.18 1394.3 C 1255.66 1408.12 1255.65 1426.59 1249.17 1440.1 C 1245.23 1448.33 1239.98 1453.22 1231.37 1456.1 C 1226.14 1456.35 1221.25 1456.5 1216.37 1454.33 C 1208.86 1451 1203.76 1444.23 1200.84 1436.74 C 1195.39 1422.78 1195.76 1404.51 1202.32 1390.96 C 1206.33 1382.66 1211.72 1377.93 1220.4 1375.09 z"/>
<path transform="translate(0,0)" fill="rgb(254,254,254)" d="M 1023.41 940.513 C 1029.95 946.524 1044.59 989.407 1048.96 1000.43 A 4912.96 4912.96 0 0 0 1116.15 1003.92 C 1099.03 1019.15 1081.05 1033.62 1063.57 1048.44 C 1069.11 1071.21 1075.57 1093.7 1081.95 1116.25 C 1062.63 1104.44 1044.13 1090.59 1025.38 1077.84 C 1025.32 1077.83 1025.25 1077.8 1025.19 1077.8 C 1018.52 1077.07 975.096 1110.58 966.952 1116.43 C 972.241 1093.7 978.827 1071.36 984.308 1048.69 C 968.106 1032.79 949.519 1019.12 932.43 1004.17 L 998.781 1000.09 C 1007.76 980.578 1014.37 960.028 1023.41 940.513 z"/>
<path transform="translate(0,0)" fill="rgb(254,254,254)" d="M 829.172 478.38 C 843.484 476.051 859.729 477.674 874.288 477.784 L 950.306 477.835 L 1104.54 477.77 C 1131.86 477.769 1159.7 476.675 1186.97 478.16 A 131.364 131.364 0 0 1 1223.86 485.282 A 128.909 128.909 0 0 1 1297.82 551.009 A 134.504 134.504 0 0 1 1309.72 591.654 C 1312.74 616.09 1310.77 642.266 1310.79 666.913 C 1310.81 694.376 1312.56 723.201 1309.92 750.467 A 121.46 121.46 0 0 1 1303.31 780.385 A 123.027 123.027 0 0 1 1263.44 835.867 C 1218.39 871.739 1166.72 865.089 1113.05 864.743 C 1101.51 864.669 1089.21 863.652 1077.83 865.548 C 1063.99 867.854 1031.1 885.99 1016.37 892.975 L 803.357 994.494 C 812.97 975.438 824.836 957.355 836.052 939.216 L 881.65 865.119 C 836.333 866.07 797.72 867.533 759.611 838.615 C 732.82 818.285 714.818 789.41 710.357 755.867 C 707.266 732.625 709.114 707.702 709.078 684.238 C 709.034 654.917 706.216 608.379 711.97 580.986 A 126.793 126.793 0 0 1 735.528 530.03 C 758.818 499.793 791.73 483.1 829.172 478.38 z"/>
<path transform="translate(0,0)" fill="rgb(61,61,61)" d="M 860.839 624.237 C 869.189 623.697 877.503 625.369 884.802 629.508 A 39.4602 39.4602 0 0 1 903.49 654.527 A 40.8282 40.8282 0 0 1 897.925 686.806 C 891.141 696.941 881.078 701.653 869.497 703.936 C 860.454 704.326 852.657 703.29 844.73 698.607 A 40.3524 40.3524 0 0 1 826.131 673.752 C 823.615 663.46 825.689 652.278 831.345 643.365 C 838.173 632.603 848.717 626.992 860.839 624.237 z"/>
<path transform="translate(0,0)" fill="rgb(181,60,60)" d="M 1002.1 624.254 C 1011.1 623.649 1019.64 624.919 1027.54 629.516 A 39.8108 39.8108 0 0 1 1046.19 654.468 A 40.9508 40.9508 0 0 1 1040.74 686.771 C 1034.34 696.468 1024.31 701.557 1013.19 703.827 C 1003.82 704.365 995.017 703.038 986.93 698.02 A 41.1121 41.1121 0 0 1 968.633 672.243 A 39.4082 39.4082 0 0 1 974.115 641.731 C 980.764 631.563 990.461 626.472 1002.1 624.254 z"/>
<path transform="translate(0,0)" fill="rgb(61,61,61)" d="M 1146.11 624.168 C 1156.03 623.471 1165.26 625.362 1173.63 630.95 A 39.6509 39.6509 0 0 1 1190.92 656.963 C 1192.87 667.48 1190.59 679.146 1184.47 687.963 C 1178.07 697.191 1168.79 701.748 1157.99 703.737 C 1148.96 704.37 1140.74 703.781 1132.65 699.341 C 1122.87 693.977 1115.65 684.093 1113.04 673.3 A 40.7628 40.7628 0 0 1 1118.31 642.313 C 1124.95 631.773 1134.39 626.917 1146.11 624.168 z"/>
</svg>