<svg version="1.1" xmlns="http://www.w3.org/2000/svg" style="display: block;" viewBox="0 0 2048 2048" width="1024" height="1024">
<path transform="translate(0,0)" fill="rgb(254,254,254)" d="M 0 0 L 2048 0 L 2048 2048 L 0 2048 L 0 0 z"/>
<path transform="translate(0,0)" fill="rgb(205,54,52)" d="M 1092.88 132.142 C 1095.38 131.879 1097.85 131.668 1100.37 131.751 C 1128.14 132.674 1138.07 163.238 1154 180.525 C 1186.22 215.483 1212.68 154.776 1247.12 157.143 C 1283.77 159.662 1282.42 201.524 1301.85 222.61 C 1324.44 247.127 1357.01 205.39 1385.14 207.717 C 1429.27 211.367 1419.83 266.443 1436.74 286.228 C 1455.17 307.788 1490.66 278.838 1516.06 281.136 C 1523.83 281.839 1530.67 284.78 1536.67 289.732 C 1564.78 312.942 1542.51 353.488 1560.82 374.768 C 1575.92 392.323 1610.39 377.974 1630.58 379.217 C 1640.95 379.856 1650.31 383.432 1657.16 391.441 C 1672.92 409.881 1663.77 437.651 1661.93 459.136 C 1661.2 467.674 1661.89 476.45 1667.91 483.09 C 1678.46 494.734 1701.6 492.323 1716.06 493.417 C 1730.78 494.531 1745.33 497.178 1755.25 509.236 C 1775.18 533.457 1752.89 561.639 1751.26 587.348 C 1748.78 626.297 1813.63 615.244 1833.88 639.905 C 1859.69 671.353 1819.68 698.867 1817.51 727.164 C 1815.2 757.265 1868.02 761.059 1884.26 780.652 C 1913.26 815.655 1853.93 840.677 1852.06 870.183 C 1850.28 898.392 1891.92 908.911 1907.63 926.749 C 1912.86 932.679 1916.17 939.872 1916.57 947.817 C 1918.33 983.442 1866.83 993.654 1865.51 1024.01 C 1864.59 1045.29 1893.66 1058.4 1906.1 1072.41 C 1913.46 1080.71 1918.12 1090.19 1917.14 1101.51 C 1914.65 1130.2 1879.63 1138.24 1861.37 1154.61 C 1826.04 1186.28 1893.62 1214.99 1890.9 1247.88 C 1887.89 1284.07 1845.5 1281.93 1824.1 1300.67 C 1795.35 1325.83 1841.9 1358.41 1839.12 1388.1 C 1835.38 1428.07 1785.05 1420.97 1762.59 1440.39 C 1738.87 1460.9 1770.9 1497.02 1767.81 1523.56 C 1767.05 1530.14 1764.18 1535.92 1759.97 1540.98 C 1737.09 1568.45 1696.5 1544.35 1674.87 1562.28 C 1657.06 1577.04 1673.08 1614.67 1670.26 1635.51 C 1668.82 1646.23 1663.92 1655.3 1655 1661.67 C 1639.89 1672.46 1622.08 1668.3 1605.27 1665.71 C 1593.25 1663.85 1579.15 1661.45 1568.76 1669.5 C 1555.59 1679.69 1556.18 1706.35 1553.98 1721.49 C 1551.95 1735.52 1547.55 1749.94 1535.43 1758.54 C 1510.74 1776.05 1487.89 1756.28 1463.17 1752.49 C 1421.98 1746.19 1433.34 1813.06 1403.34 1834.63 C 1372.41 1856.87 1350.09 1820.79 1321.84 1816.54 C 1292.12 1812.07 1286.57 1871.14 1263.99 1886.44 C 1235.73 1905.59 1210.59 1870.74 1188.2 1858.51 C 1182.45 1855.37 1176.92 1854.02 1170.57 1852.78 C 1144.42 1864.55 1140.16 1897.3 1115.65 1911.38 C 1075.2 1934.6 1054.87 1874.66 1027.67 1868.47 C 1009.65 1864.37 989.257 1893.34 977.335 1904.04 C 973.542 1907.45 969.383 1910.03 964.997 1912.57 A 37.4941 37.4941 0 0 1 952.733 1915.94 C 915.588 1919.34 910.817 1875.72 888.761 1858.43 C 863.209 1838.39 831.87 1887.16 805.081 1889.75 C 763.97 1893.72 764.208 1837.56 741.879 1820.9 C 722.781 1806.65 688.344 1836.8 666.762 1840.13 C 616.246 1847.94 630.171 1774.74 605.099 1757.28 C 587.238 1744.85 558.528 1763.22 539.561 1766.54 C 528.923 1768.4 518.548 1767.51 509.657 1760.89 C 489.212 1745.66 495.205 1716.51 491.583 1694.38 C 482.87 1641.13 421.387 1683.83 390.87 1660.55 C 365.639 1641.31 386.795 1604.26 382.961 1579.12 C 377.226 1541.51 319.581 1562.7 294.785 1544.23 C 261.592 1519.52 299.041 1481.9 294.201 1452.39 C 289.205 1421.93 241.893 1428.15 220.507 1413.01 A 34.0909 34.0909 0 0 1 208.272 1397.39 C 195.85 1365.78 238.25 1341.45 231.947 1312.49 C 227.344 1291.34 188.684 1285.96 172.518 1275.01 C 164.471 1269.56 158.767 1262.01 157.095 1252.3 C 153.335 1230.46 176.441 1211.71 187.857 1195.42 C 193.053 1188 196.752 1179.22 194.918 1170.02 C 191.677 1153.77 166.297 1142.82 153.629 1134.4 C 143.215 1127.48 133.456 1118.38 131.312 1105.46 C 125.502 1070.46 162.747 1060.89 178.382 1037.43 C 200.579 1004.13 136.594 987.271 131.416 955.035 C 125.357 917.314 173.733 912.485 190.247 889.114 C 208.933 862.67 162.394 836.707 158.128 811.327 C 150.684 767.044 212.508 765.652 228.877 742.516 C 244.219 720.833 211.737 693.327 208.325 670.782 C 207.2 663.349 208.558 656.187 211.914 649.49 C 227.794 617.8 276.019 627.533 292.834 602.999 C 304.43 586.081 288.407 560.636 284.878 542.93 C 282.655 531.771 283.88 520.573 290.523 511.095 C 305.502 489.724 334.268 494.056 356.582 489.28 C 404.967 478.925 365.993 424.439 386.492 394.981 C 405.943 367.031 440.788 386.207 467.513 381.004 C 500.824 374.517 488.427 322.939 504.109 299.535 C 528.698 262.835 564.691 300.265 593.597 294.259 C 619.51 288.874 620.071 245.593 632.586 226.277 C 661.262 182.018 703.559 238.982 732 231.339 C 748.724 226.845 757.661 197.316 765.663 183.374 C 771.892 172.523 780.636 162.098 793.293 158.969 C 817.651 152.949 839.611 178.665 858.872 189.633 C 897.453 211.603 906.359 142.118 940.951 133.693 C 972.265 126.066 988.492 163.038 1011.14 176.378 C 1040.72 193.795 1061.66 140.133 1092.88 132.142 z"/>
<path transform="translate(0,0)" fill="rgb(72,72,72)" d="M 946.73 142.257 C 969.788 141.115 985.983 167.249 1002.13 180.231 C 1042.82 212.957 1060.11 145.034 1095.45 141.965 C 1125.51 139.354 1135.72 179.098 1155.51 194.197 C 1186.46 217.803 1211.65 170.456 1241.19 167.387 C 1279.8 163.377 1276.85 215.57 1299.6 233.77 C 1325.37 254.38 1352.52 219.921 1378.35 217.719 A 31.1007 31.1007 0 0 1 1396.8 221.908 C 1424.19 237.728 1411.43 279.156 1434.21 297.223 C 1455.33 313.976 1485.95 292.18 1508.94 290.364 C 1517.72 289.669 1525.28 291.791 1531.93 297.675 C 1548.76 312.574 1543.94 339.269 1545.34 359.302 C 1546.04 369.347 1548.59 379.274 1556.73 385.898 C 1573.69 399.704 1600.51 389.784 1619.95 388.089 C 1629.9 387.222 1638.67 388.706 1646.33 395.493 C 1668.2 414.872 1649.48 447.664 1651.9 472.258 C 1656.35 517.587 1719.13 490.173 1743.1 511.319 C 1768.85 534.04 1738.31 569.051 1740.45 595.982 C 1743.39 632.873 1799.4 622.785 1821.22 641.995 C 1845.52 663.387 1818.66 692.569 1811.23 715.008 C 1807.94 724.935 1807.8 733.387 1808.25 743.729 L 1808.78 744.584 C 1820.63 763.822 1845.2 765.954 1863.58 776.136 C 1871.53 780.545 1876.9 786.42 1879.22 795.339 C 1885.49 819.513 1856.61 837.913 1846.14 856.71 C 1842.18 863.814 1840.89 870.612 1842.66 878.603 C 1850.24 912.843 1897.62 913.604 1907.55 947.422 C 1900.68 982.702 1859.47 991.63 1856.41 1022.09 C 1853.93 1046.73 1883.46 1060.68 1896.81 1077.29 C 1902.6 1084.49 1906.4 1091.26 1905.18 1100.74 C 1902.16 1124.33 1875.57 1131.48 1859.16 1144.33 C 1850.46 1151.14 1843.34 1160.19 1842.17 1171.5 C 1840.4 1188.59 1855.55 1202.86 1865.39 1215.14 C 1873.52 1225.29 1881.95 1237.51 1879.93 1251.24 C 1876.71 1273.2 1835.07 1281.16 1819.11 1293.23 C 1812.63 1298.12 1808.01 1304.36 1805.98 1312.28 C 1798.55 1341.24 1831.86 1360.32 1827.64 1387.56 C 1822.99 1417.6 1778.9 1416.14 1758.56 1430.87 C 1723.75 1456.1 1765.45 1495.94 1759.27 1525.97 C 1752.42 1559.19 1692.08 1538.51 1670.37 1553.33 C 1644.4 1571.04 1667.84 1611.69 1662 1636.2 C 1660.48 1642.62 1657.09 1648.09 1652.06 1652.36 C 1626.79 1673.8 1591.37 1642.65 1565.22 1660.11 C 1545.9 1673.01 1549.32 1704.69 1545 1724.76 C 1542.63 1735.8 1538.18 1746.59 1528.16 1752.76 C 1509.41 1764.32 1485.5 1748.59 1466.91 1743.87 C 1410.45 1729.51 1429.83 1809.8 1396.43 1828.43 C 1371.92 1842.1 1348.37 1813.99 1325.86 1808.1 C 1281.63 1796.52 1286.41 1862.9 1257.4 1878.72 C 1228.99 1894.22 1205.68 1851.11 1180.9 1844.53 C 1147.79 1835.74 1135.69 1889.17 1110.09 1904.33 C 1108.11 1905.12 1106.13 1905.86 1104.06 1906.39 C 1074.32 1914.04 1059.75 1874.32 1037.82 1862.41 C 1003.85 1843.96 984.747 1897.9 956.666 1906.14 C 921.966 1916.32 913.038 1860.68 888.614 1847.42 C 859.614 1831.68 835.851 1871.96 810.005 1878.67 C 768.456 1889.44 770.094 1825.3 743.546 1810.28 C 721.483 1797.8 694.217 1823.6 672.633 1828.62 C 622.383 1840.32 638.626 1764.51 608.001 1746.89 C 590.051 1736.55 564.096 1750.37 545.986 1755.01 C 536.881 1757.35 526.279 1758.69 517.924 1753.41 C 499.607 1741.85 504.622 1706.14 500.621 1687.18 C 488.273 1628.66 430.594 1674.41 399.278 1652.65 C 375.53 1636.15 396.398 1597.64 391.475 1573.77 C 383.321 1534.23 329.422 1553.19 304.039 1536.11 C 272.955 1515.2 310.174 1475.02 303.961 1446.79 C 296.988 1415.11 252.271 1420.85 230.546 1406.64 C 193.148 1382.18 249.526 1341.29 241.376 1308.91 C 235.223 1284.47 203.475 1281.56 184.799 1270.43 C 177.006 1265.78 170.542 1259.41 168.537 1250.29 C 164.45 1231.68 189.904 1210.86 198.964 1196.09 C 203.785 1188.24 206.523 1179.62 204.889 1170.38 C 198.982 1136.96 149.743 1135.71 143.089 1105 C 136.874 1076.32 174.492 1061.64 187.731 1041.32 C 213.768 1001.36 148.2 983.968 143.252 955.028 C 137.363 920.586 187.051 914.237 201.783 891.167 C 221.634 860.081 173.163 836.702 168.412 809.684 C 167.541 804.735 168.639 799.658 170.546 795.072 C 182.195 767.063 223.667 771.028 239.208 746.271 C 254.53 721.863 223.531 696.714 219.109 672.955 C 210.23 625.247 283.556 637.403 302.416 607.766 C 314.43 588.888 298.834 563.133 294.727 543.682 C 292.721 534.18 293.541 524.713 299.134 516.55 C 311.563 498.41 343.387 502.569 362.521 498.465 C 419.586 486.226 373.238 432.629 394.03 401.925 C 410.557 377.52 448.969 394.382 473.395 389.595 C 512.64 381.903 494.004 329.849 511.2 305.03 C 530.815 276.718 572.284 309.905 599.116 303.668 C 628.226 296.903 625.701 253.871 639.527 233.136 C 663.346 197.415 702.775 247.246 733.058 240.897 C 755.782 236.133 763.098 203.766 774.134 186.281 C 779.402 177.934 786.435 170.346 796.511 168.342 C 815.757 164.514 836.191 185.657 851.069 195.297 C 902.954 228.915 906.812 150.972 946.73 142.257 z"/>
<path transform="translate(0,0)" fill="rgb(254,254,254)" d="M 992.787 219.466 C 1205.41 213.414 1401.76 286.171 1561.98 425.354 C 1584.45 444.873 1604.73 466.521 1624.52 488.705 A 807.77 807.77 0 0 1 1828.27 965.73 A 796.814 796.814 0 0 1 1633.72 1550.35 A 817.46 817.46 0 0 1 1191.23 1811.8 C 1147.06 1821.19 1102.74 1825.82 1057.75 1828.78 A 809.285 809.285 0 0 1 478.219 1615.66 A 807.995 807.995 0 0 1 234.28 1181.92 A 733.364 733.364 0 0 1 219.22 1068.91 C 209.098 843.058 284.679 638.138 437.488 471.55 C 579.406 316.836 784.319 228.555 992.787 219.466 z"/>
<path transform="translate(0,0)" fill="rgb(72,72,72)" d="M 1011.38 251.457 L 1012.88 251.405 C 1211.37 244.992 1411.38 326.567 1555.18 462.156 A 772.393 772.393 0 0 1 1797.07 1002.82 A 768.824 768.824 0 0 1 1671.8 1444.71 A 702.767 702.767 0 0 1 1591.51 1548.04 C 1440.7 1706.87 1255.84 1790.35 1036.75 1796.05 C 1009.07 1796.9 981.024 1795.3 953.453 1792.86 A 768.661 768.661 0 0 1 497.117 1589.27 A 774.836 774.836 0 0 1 251.326 1045.39 A 776.675 776.675 0 0 1 463.443 490.814 A 762.609 762.609 0 0 1 896.914 261.182 C 934.937 255.045 972.94 252.709 1011.38 251.457 z"/>
<path transform="translate(0,0)" fill="rgb(205,54,52)" d="M 995.168 276.433 C 1165.77 269.101 1338.33 326.722 1474.65 428.512 C 1492.86 442.112 1510.18 457.226 1527.16 472.336 C 1667.94 597.654 1759.97 791.515 1770.55 979.519 C 1781.23 1169.27 1716.09 1370.95 1588.79 1513.41 C 1447.03 1672.04 1269.26 1758.32 1056.99 1770.23 L 1053.65 1770.43 C 1027.55 1771.88 1001.54 1770.59 975.499 1768.87 A 741.818 741.818 0 0 1 525.532 1579.2 C 383.275 1451.47 289.895 1265.01 279.57 1073.55 C 277.147 1028.62 277.207 984.089 282.199 939.295 A 754.353 754.353 0 0 1 471.315 522.526 C 606.848 371.963 793.491 286.881 995.168 276.433 z"/>
<path transform="translate(0,0)" fill="rgb(72,72,72)" d="M 993.065 300.429 A 732.798 732.798 0 0 1 1506.78 485.078 A 723.871 723.871 0 0 1 1747.21 987.273 C 1749.23 1020.19 1747.81 1052.93 1744.87 1085.73 A 725.15 725.15 0 0 1 1569.1 1500.26 C 1472.14 1609.8 1339.74 1692.44 1197.14 1726.85 C 1150.39 1738.13 1104.13 1743.64 1056.25 1746.59 A 208.651 208.651 0 0 1 1053.38 1746.76 A 665.376 665.376 0 0 1 894.824 1734.93 C 757.742 1709.12 637.544 1648.22 534.1 1554.81 C 397.587 1431.54 311.023 1245.71 301.894 1062.3 A 728.814 728.814 0 0 1 492.239 534.036 A 727.17 727.17 0 0 1 993.065 300.429 z"/>
<path transform="translate(0,0)" fill="rgb(254,254,254)" d="M 993.139 324.57 A 137.74 137.74 0 0 1 997.749 324.26 C 1102.71 319.444 1213.1 342.24 1308.67 385.491 C 1338.36 398.928 1366.34 414.704 1394.05 431.792 C 1429.27 453.519 1463.78 478.285 1494.36 506.23 A 696.238 696.238 0 0 1 1722.93 990.041 A 705.781 705.781 0 0 1 1541.67 1495.2 A 697.163 697.163 0 0 1 1053.59 1723.57 C 1053.29 1723.59 1052.99 1723.62 1052.68 1723.63 A 704.448 704.448 0 0 1 554.101 1541.85 A 699.509 699.509 0 0 1 325.775 1063.43 A 704.494 704.494 0 0 1 507.692 551.021 A 700.076 700.076 0 0 1 993.139 324.57 z"/>
<path transform="translate(0,0)" fill="rgb(72,72,72)" d="M 1008.84 358.459 C 1040.48 358.27 1072.12 358.921 1103.56 362.791 A 683.373 683.373 0 0 1 1475.9 536.17 A 662.734 662.734 0 0 1 1687.82 999.285 A 675.03 675.03 0 0 1 1509.33 1480.09 A 668.994 668.994 0 0 1 1169.48 1674.88 C 1128.15 1683.99 1086.49 1688.33 1044.25 1689.98 A 663.405 663.405 0 0 1 570.981 1510.88 A 668.699 668.699 0 0 1 360.993 1051.7 A 666.921 666.921 0 0 1 539.158 569.434 A 668.844 668.844 0 0 1 914.689 366.982 C 946.008 361.779 977.131 359.533 1008.84 358.459 z"/>
<path transform="translate(0,0)" fill="rgb(254,254,254)" d="M 965.682 1413.96 L 989.437 1413.91 L 989.944 1520.04 L 965.561 1520.07 A 5476.72 5476.72 0 0 1 965.682 1413.96 z"/>
<path transform="translate(0,0)" fill="rgb(254,254,254)" d="M 1140.4 1442.41 C 1151.65 1442.38 1164.07 1443.18 1172.68 1451.34 C 1187.24 1465.15 1182.31 1500.62 1182.5 1519.77 L 1160.02 1519.85 C 1159.97 1517.33 1160.06 1514.73 1159.65 1512.24 C 1159.59 1511.92 1159.48 1511.61 1159.47 1511.29 C 1159.46 1510.72 1159.55 1510.15 1159.59 1509.59 C 1154.63 1513.45 1150.83 1517.97 1144.64 1519.96 C 1134.67 1523.17 1124.06 1519.96 1115.15 1515.3 A 47.8461 47.8461 0 0 1 1113.57 1513.83 C 1109.31 1509.62 1106.26 1503.89 1106.51 1497.77 C 1106.73 1492.45 1108.92 1487.44 1113.03 1484 C 1124.79 1474.14 1144.83 1476.28 1159.12 1477.23 C 1158.47 1473.9 1157.96 1470.13 1156.68 1466.99 C 1155.12 1463.18 1151.35 1460.22 1147.5 1458.97 C 1137.91 1455.85 1126.05 1461.24 1117.48 1465.39 C 1116.46 1459.81 1115.08 1454.24 1113.85 1448.69 C 1122.84 1444.65 1130.61 1443.28 1140.4 1442.41 z"/>
<path transform="translate(0,0)" fill="rgb(72,72,72)" d="M 1139.96 1489.34 C 1144.86 1489.12 1152.2 1488 1156.86 1489.02 C 1159.01 1489.5 1159.12 1490.18 1160.18 1491.93 C 1160.01 1493.25 1160.04 1493.54 1159.44 1494.94 C 1157.06 1500.48 1152.51 1504.33 1147.29 1506.92 C 1142.71 1507.43 1137.36 1508.25 1133.16 1505.85 C 1130.26 1504.19 1128.64 1502.04 1127.66 1498.87 C 1127.96 1496.93 1127.88 1496.04 1129.05 1494.4 C 1131.72 1490.65 1135.76 1490.13 1139.96 1489.34 z"/>
<path transform="translate(0,0)" fill="rgb(254,254,254)" d="M 860.931 1226.31 L 894.148 1226.2 L 894.238 1319.15 C 894.253 1334.39 895.501 1350.94 893.824 1366.04 L 860.909 1365.99 A 3508.44 3508.44 0 0 1 860.931 1226.31 z"/>
<path transform="translate(0,0)" fill="rgb(254,254,254)" d="M 747.861 1419 L 770.048 1418.92 C 769.965 1436.22 767.5 1472.7 771.398 1487.17 C 773.604 1495.36 777.001 1498.77 784.247 1502.88 C 790.112 1503.17 795.983 1503.02 801.852 1502.93 C 804.149 1501.48 806.331 1500 808.239 1498.04 C 811.618 1494.57 812.894 1489.72 813.683 1485.07 C 816.058 1471.05 814.084 1435.34 814.026 1419.01 L 837.049 1418.95 L 837.118 1438.25 C 837.37 1457.86 841.848 1491.21 828.286 1506.27 C 819.575 1515.95 806.457 1520.31 793.722 1520.82 C 781.253 1521.33 767.977 1517.91 758.857 1509 A 33.5164 33.5164 0 0 1 749.743 1493.09 C 745.294 1475.69 747.807 1438.61 747.861 1419 z"/>
<path transform="translate(0,0)" fill="rgb(254,254,254)" d="M 1045.53 1442.31 C 1057.16 1441.36 1068.54 1442.85 1078.6 1449.22 C 1087.16 1454.63 1092.74 1462.67 1094.85 1472.57 C 1097.05 1482.85 1095.73 1493.94 1089.74 1502.75 C 1082.91 1512.79 1072.59 1517.39 1061.09 1519.84 C 1048.13 1521.7 1034.54 1520.09 1023.49 1512.6 C 1015.15 1506.94 1009.71 1498.68 1008.03 1488.73 C 1006.31 1478.51 1008.16 1467.53 1014.43 1459.12 C 1022.03 1448.91 1033.24 1443.98 1045.53 1442.31 z"/>
<path transform="translate(0,0)" fill="rgb(72,72,72)" d="M 1045.96 1458.13 C 1049.45 1457.99 1053.25 1457.63 1056.63 1458.64 C 1062.12 1460.28 1066.92 1464.59 1069.54 1469.63 C 1072.9 1476.12 1073.27 1484.44 1070.74 1491.28 C 1068.04 1498.53 1063.87 1501.97 1056.94 1504.89 C 1053.06 1505.1 1048.78 1505.59 1045.04 1504.31 C 1039.49 1502.42 1034.84 1497.88 1032.52 1492.53 C 1029.51 1485.59 1029.56 1477.14 1032.65 1470.24 C 1035.52 1463.82 1039.6 1460.74 1045.96 1458.13 z"/>
<path transform="translate(0,0)" fill="rgb(254,254,254)" d="M 1257.99 1413.86 L 1281.98 1413.9 L 1282.06 1518.96 L 1258.82 1519.04 C 1258.97 1516.01 1259.41 1512.98 1258.38 1510.07 C 1256.51 1510.95 1255.12 1512.03 1253.47 1513.25 C 1243.65 1520.55 1234.74 1520.37 1223.24 1518.62 C 1219.37 1517.53 1215.71 1515.55 1212.48 1513.16 C 1203.95 1506.85 1198.99 1497.76 1197.7 1487.27 A 42.2397 42.2397 0 0 1 1207.29 1455.09 C 1213.5 1447.57 1221.96 1442.69 1231.77 1441.99 C 1242.11 1441.25 1250.33 1444.85 1257.99 1451.47 L 1257.99 1413.86 z"/>
<path transform="translate(0,0)" fill="rgb(72,72,72)" d="M 1236.09 1458.11 C 1241.07 1457.94 1245.75 1457.52 1250.14 1460.32 C 1254.42 1463.04 1257.12 1467.82 1258.23 1472.66 C 1260.07 1480.71 1259.39 1490.94 1254.68 1497.96 C 1251.89 1502.12 1247.82 1503.37 1243.17 1504.47 C 1239.7 1504.32 1236.22 1504.07 1232.99 1502.7 C 1227.7 1500.45 1223.55 1495.12 1221.67 1489.8 C 1219.39 1483.36 1219.78 1475.62 1222.81 1469.49 C 1225.8 1463.45 1229.86 1460.32 1236.09 1458.11 z"/>
<path transform="translate(0,0)" fill="rgb(254,254,254)" d="M 909.807 1442.38 C 919.554 1442.12 929.112 1444.29 936.769 1450.67 C 944.488 1457.09 948.57 1466.55 949.382 1476.44 C 950.315 1487.78 947.416 1499.58 939.81 1508.25 A 38.6739 38.6739 0 0 1 912.272 1521.51 C 901.097 1521.9 892.138 1517.38 884.241 1509.83 L 884.185 1524.47 L 884.277 1542.98 L 860.903 1542.95 A 6130.33 6130.33 0 0 1 860.829 1444.08 C 867.816 1444.22 875.675 1441.95 881.993 1445.38 C 883.848 1448.62 883.39 1450.93 883.412 1454.62 C 891.938 1447.2 898.572 1443.87 909.807 1442.38 z"/>
<path transform="translate(0,0)" fill="rgb(72,72,72)" d="M 899.914 1458.23 C 903.69 1458.01 907.752 1457.57 911.397 1458.79 C 916.928 1460.65 921.393 1465.12 923.621 1470.47 C 926.545 1477.48 926.31 1485.95 923.023 1492.79 C 919.99 1499.1 915.635 1501.85 909.268 1504.26 C 904.734 1504.83 899.735 1505.02 895.392 1503.39 C 891.163 1501.8 887.478 1498.08 885.691 1493.96 C 882.719 1487.1 883.074 1478.4 885.864 1471.55 C 888.828 1464.27 892.837 1461.18 899.914 1458.23 z"/>
<path transform="translate(0,0)" fill="rgb(254,254,254)" d="M 1212.73 1226.49 A 5645.63 5645.63 0 0 1 1291.82 1226.23 L 1291.97 1250.45 C 1277.3 1250.08 1262.51 1250.69 1247.84 1250.92 C 1247.52 1288.84 1248.15 1326.82 1248.14 1364.75 C 1243.42 1367.55 1220.29 1365.95 1213.64 1365.97 L 1212.9 1251.02 L 1169.15 1250.9 L 1169.25 1226.98 C 1183.73 1226.59 1198.24 1226.64 1212.73 1226.49 z"/>
<path transform="translate(0,0)" fill="rgb(254,254,254)" d="M 785.603 1226.49 L 841.933 1226.3 L 841.99 1251.08 L 776.898 1250.76 L 776.887 1286.56 L 836.765 1286.76 L 836.714 1311.09 L 808.25 1311.08 L 776.605 1310.97 L 776.465 1366.01 L 745.133 1366.02 A 11952.7 11952.7 0 0 1 745.642 1226.97 L 785.603 1226.49 z"/>
<path transform="translate(0,0)" fill="rgb(254,254,254)" d="M 1102.7 1225.34 C 1118 1224.22 1131.93 1225.64 1147 1228.37 A 2613.23 2613.23 0 0 1 1146.69 1255.6 C 1132.87 1251.81 1120.44 1248.48 1105.99 1249.69 C 1099.75 1250.21 1093.94 1251.49 1089.86 1256.63 C 1087.85 1259.16 1086.25 1262.08 1087.11 1265.42 C 1090.26 1277.74 1128.15 1287.1 1139.41 1294.61 C 1148.2 1300.48 1154.96 1309.12 1156.92 1319.65 C 1158.7 1329.23 1156.35 1341.57 1150.42 1349.45 C 1139.4 1364.07 1119.25 1366.68 1102.4 1368.89 C 1086.75 1369.29 1072.11 1367.25 1056.91 1363.57 C 1056.93 1355.09 1057.67 1346.6 1058.23 1338.15 C 1069.11 1341.64 1080.96 1344.13 1092.39 1344.79 C 1103.44 1345.43 1113.99 1343.88 1122.34 1335.94 C 1124.46 1333.94 1126.51 1331.11 1126.12 1328.04 C 1124.26 1313.39 1085.03 1303.72 1073.13 1296.02 C 1064.49 1290.43 1057.22 1282.54 1055.24 1272.15 C 1053.52 1263.13 1055.84 1252.72 1061.25 1245.29 C 1070.69 1232.33 1087.66 1227.65 1102.7 1225.34 z"/>
<path transform="translate(0,0)" fill="rgb(254,254,254)" d="M 925.841 1226.46 C 949.502 1226.23 978.724 1223.35 1001.54 1228.69 C 1013.13 1231.4 1024.22 1236.95 1030.43 1247.55 C 1035.4 1256.03 1037.09 1268.26 1034.38 1277.73 C 1030.75 1290.44 1018.82 1297.08 1008.04 1303.04 L 1009.24 1304.09 C 1024.21 1317.02 1036.07 1347.93 1045.71 1365.98 L 1014.75 1366.1 C 1013.2 1366.05 1010.39 1366.41 1009.14 1365.51 C 1000.52 1359.35 993.703 1324.85 978.362 1312.05 C 970.972 1311.68 963.508 1311.88 956.107 1311.87 L 956.083 1366.05 L 924.067 1366.1 C 923.638 1337.37 923.965 1308.58 923.946 1279.84 C 923.934 1262.57 922.968 1244.74 924.201 1227.57 L 925.841 1226.46 z"/>
<path transform="translate(0,0)" fill="rgb(72,72,72)" d="M 956.253 1249.03 C 967.327 1248.97 987.039 1246.46 995.909 1254.36 C 999.489 1257.55 1000.83 1261.86 1001.05 1266.53 C 1001.38 1273.73 999.045 1278.07 994.303 1283.27 C 981.672 1290.57 970.364 1290.01 956.377 1289.96 L 956.253 1249.03 z"/>
<path transform="translate(0,0)" fill="rgb(254,254,254)" d="M 1107.37 893.444 C 1119.96 894.643 1153.12 952.119 1182.47 957.556 C 1186.89 958.373 1191.03 957.541 1194.6 954.735 C 1209.25 943.202 1209.01 911.503 1211.08 894.224 L 1218.49 894.06 C 1244.97 893.569 1268.59 895.688 1288.48 915.166 C 1308.48 934.746 1311.49 958.747 1311.64 985.436 L 1311.83 1045.71 C 1311.93 1079.37 1315.11 1115.32 1289.17 1141.16 C 1279.02 1151.27 1266.54 1157.38 1252.52 1160.03 C 1237.18 1162.93 1221.18 1162.09 1205.63 1162.05 L 1152.32 1162.01 L 945.5 1162.07 L 855.478 1161.99 C 834.378 1162.05 810.011 1164.52 789.434 1159.77 C 776.707 1156.83 764.962 1150.71 755.696 1141.45 C 728.736 1114.52 735.64 1074.35 735.885 1039.68 C 751.128 1023.52 767.663 1006.61 785.09 992.802 C 786.745 994.688 788.441 996.516 790.169 998.335 C 803.023 1011.87 824.22 1038 840.21 1046.42 C 847.007 1050 854.86 1051.49 862.505 1051.55 C 872.382 1051.63 883.365 1049.05 891.909 1043.87 C 908.601 1033.74 944.387 993.476 959.964 978.053 C 988.549 949.751 1018.21 922.488 1046.62 894.009 A 2419.4 2419.4 0 0 0 1107.37 893.444 z"/>
<path transform="translate(0,0)" fill="rgb(205,54,52)" d="M 1017.06 997.266 C 1026.37 996.805 1035.91 999.004 1043.57 1004.46 C 1052.29 1010.67 1058.12 1020.47 1059.92 1030.97 A 43.715 43.715 0 0 1 1052.28 1063.6 C 1045.02 1073.57 1035.45 1077.86 1023.59 1079.58 C 1014.61 1079.69 1006.23 1078.47 998.403 1073.75 A 39.805 39.805 0 0 1 980.185 1048.41 A 40.9283 40.9283 0 0 1 986.155 1016.08 C 993.583 1005.19 1004.49 999.747 1017.06 997.266 z"/>
<path transform="translate(0,0)" fill="rgb(254,254,254)" d="M 1232.52 483.091 L 1234.34 483.21 C 1234.92 484.337 1235.17 485.118 1235 486.401 C 1233.07 501.137 1229.93 515.957 1227.49 530.643 A 9211.67 9211.67 0 0 1 1208.24 643.905 L 1168.51 886.805 C 1137.54 855.113 1110.19 819.988 1080.12 787.459 A 13531.6 13531.6 0 0 1 940.502 924.004 L 897.365 966.117 C 888.344 974.887 879.333 984.558 869.233 992.065 C 866.256 994.278 863.154 995.016 859.489 995.035 C 856.563 995.049 854.418 994.419 852.012 992.761 C 842.375 986.117 834.136 976.645 825.75 968.51 A 4173.71 4173.71 0 0 0 785.424 929.832 C 774.244 918.71 739.915 892.022 739.271 876.029 C 739.095 871.653 743.083 867.298 745.795 864.164 C 761.537 845.97 785.569 825.241 803.436 808.051 L 911.542 703.324 C 924.638 690.651 939.63 678.785 951.56 665.068 C 951.817 664.772 952.068 664.471 952.322 664.173 C 925.093 647.87 898.742 629.609 872.145 612.279 C 857.706 602.871 841.01 594.19 827.903 583.135 C 840.455 579.262 853.821 576.771 866.648 573.796 A 2837.04 2837.04 0 0 0 928.558 558.838 C 1029.85 533.526 1131.74 510.418 1232.52 483.091 z"/>
</svg>