<svg version="1.1" xmlns="http://www.w3.org/2000/svg" style="display: block;" viewBox="0 0 2048 2048" width="1024" height="1024">
<path transform="translate(0,0)" fill="rgb(254,254,254)" d="M 0 0 L 2048 0 L 2048 2048 L 0 2048 L 0 0 z"/>
<path transform="translate(0,0)" fill="rgb(223,68,69)" d="M 1024.41 67.7268 C 1046.95 87.097 1066.75 109.562 1088.79 129.512 C 1110.59 110.019 1135.29 92.894 1158.42 74.9329 C 1176.46 99.4509 1195.99 122.964 1213.52 147.818 C 1239.51 135.268 1265.23 120.832 1290.18 106.311 C 1306.04 131.378 1319.83 157.689 1335.99 182.56 C 1362.86 171.305 1391.83 165.374 1418.85 154.083 C 1429 182.196 1441.63 209.246 1452.16 237.184 C 1481.58 231.505 1511.38 228.006 1540.63 221.473 C 1546.58 249.286 1551.72 277.357 1557.46 305.232 L 1648.91 304.646 C 1648.71 331.597 1652.41 363.153 1654.62 390.286 A 7564.19 7564.19 0 0 0 1744.89 399.941 C 1742.11 428.684 1741.67 457.787 1739.78 486.622 C 1768.61 494.112 1798.09 499.424 1827.01 506.689 C 1824.45 515.939 1823.38 526.18 1821.7 535.686 A 1255.14 1255.14 0 0 1 1810.29 595.213 C 1837.49 606.081 1865.64 614.58 1892.79 625.699 C 1881.24 653.646 1872.34 682.875 1861.62 711.203 C 1887.75 726.758 1914.66 741.481 1941.41 755.936 C 1926.59 780.882 1913.17 806.927 1898.85 832.205 C 1920.58 852.771 1946.15 869.465 1969.83 887.718 C 1954.11 912.904 1934.31 935.8 1916.55 959.585 A 3976.16 3976.16 0 0 0 1980.41 1024.75 C 1961.03 1046.91 1939.04 1067.37 1917.15 1087.03 C 1936.63 1109.96 1951.64 1136.53 1971.47 1159.32 C 1947.35 1178.61 1924.02 1197.31 1897.05 1212.57 C 1910.16 1239.72 1925.8 1265.58 1940.86 1291.68 C 1914.69 1307.05 1888.6 1322.52 1861.79 1336.76 A 6596.42 6596.42 0 0 0 1892.16 1419.66 C 1864.43 1431.02 1836.44 1444.63 1807.64 1452.86 C 1814.7 1482.09 1820.74 1511.8 1829.04 1540.69 C 1799.23 1547.39 1769.83 1555.84 1739.93 1562.43 C 1739.84 1591.15 1741.5 1620.12 1743.21 1648.79 C 1714.59 1649.78 1684.79 1654.55 1656.38 1658.33 C 1654.51 1687.5 1651.25 1716.87 1647.65 1745.87 A 8365.54 8365.54 0 0 1 1563.7 1741.31 C 1554.79 1769.85 1548.81 1799.69 1541.33 1828.66 C 1528.8 1825.44 1515.9 1823.22 1503.26 1820.42 C 1487.06 1816.82 1470.99 1812.67 1454.77 1809.19 C 1447.09 1834.47 1430.4 1868.65 1419.62 1893.94 C 1392.12 1882.54 1363.6 1873.78 1336.23 1861.91 C 1320.43 1887.46 1306.27 1914.02 1290.82 1939.81 C 1264.92 1926.23 1239.64 1911.08 1212.57 1899.93 C 1193.78 1922.62 1176.95 1947.47 1159.39 1971.16 C 1135.25 1953.24 1110.93 1934.78 1085.81 1918.28 C 1069.58 1936.21 1053.15 1953.65 1035.99 1970.7 L 1024.1 1983.27 C 1016.55 1974.03 1007.07 1965.78 998.464 1957.54 L 958.634 1919.64 C 935.153 1937.55 911.021 1954.57 887.758 1972.78 A 6129.82 6129.82 0 0 0 830.622 1898.73 C 805.175 1912.46 778.944 1925.38 754.236 1940.37 C 742.567 1915.91 723.83 1887.45 709.78 1863.36 C 682.512 1873.22 654.486 1881.27 627.407 1891.47 C 616.037 1865.01 605.026 1837.89 595.696 1810.64 C 565.819 1813.31 535.594 1821.27 505.871 1825.91 C 499.736 1798.19 493.073 1770.59 487.142 1742.82 L 397.142 1743.25 C 397.097 1715.19 393.397 1686.47 391.846 1658.37 A 1780.16 1780.16 0 0 0 301.733 1646.9 C 303.937 1618.54 306.317 1590.11 307.349 1561.67 C 278.088 1552.89 248.916 1544.35 219.244 1537.02 C 226.091 1509.53 231.647 1481.69 237.55 1453.98 C 210.528 1440.1 182.002 1428.42 154.267 1416 C 165.84 1390.91 175.735 1365.03 185.748 1339.29 A 2870.65 2870.65 0 0 1 140.67 1311.96 C 129.787 1305.29 118.569 1297.25 106.631 1292.71 A 1638.05 1638.05 0 0 0 151.161 1214.35 C 127.697 1195.5 102.344 1177.69 77.9265 1160.05 C 92.6672 1135.89 113.135 1108.1 131.542 1086.71 A 3925.24 3925.24 0 0 1 67.9529 1025.25 C 88.1543 1002.15 110.735 981.117 131.579 958.559 C 112.539 936.699 95.7495 912.135 78.783 888.663 C 103.118 870.659 126.199 850.082 148.821 829.98 C 133.362 805.494 119.948 779.983 106.515 754.36 A 1511.2 1511.2 0 0 0 182.759 708.412 C 173.287 681.394 164.748 653.884 154.473 627.177 C 182.094 617.525 209.172 604.574 236.359 593.576 C 231.535 564.514 227.04 535.295 220.395 506.587 C 248.061 499.149 276.545 493.043 304.53 486.895 A 8163.56 8163.56 0 0 0 304.095 401.241 C 313.683 399.45 323.661 398.691 333.342 397.411 A 3292.49 3292.49 0 0 0 387.733 389.697 C 390.788 361.353 395.723 332.999 399.878 304.787 A 4587.04 4587.04 0 0 1 484.393 305.292 L 508.616 220.469 C 536.135 227.77 565.857 230.677 593.988 235.096 C 605.25 207.727 618.194 180.936 630.982 154.25 C 657.015 165.489 685.148 172.81 711.793 182.727 L 757.263 107.227 C 782.556 121.809 808.512 135.161 834.17 149.08 C 852.9 125.497 869.885 100.254 888.414 76.4274 C 913.467 93.1461 937.7 111.616 961.15 130.487 C 981.887 109.324 1002.68 87.8684 1024.41 67.7268 z"/>
<path transform="translate(0,0)" fill="rgb(68,68,68)" d="M 1850.51 718.157 C 1874.33 730.089 1899.6 744.521 1921.07 760.264 C 1914.74 774.125 1893.61 824.977 1884.72 833.938 C 1880.83 822.879 1878.58 810.732 1875.54 799.378 C 1868.2 771.916 1860.82 744.671 1850.51 718.157 z"/>
<path transform="translate(0,0)" fill="rgb(68,68,68)" d="M 171.596 635.604 C 188.048 627.324 229.155 608.573 246.767 605.941 C 228.374 641.197 213.615 677.525 197.618 713.832 C 192.7 709.749 175.406 647.183 171.596 635.604 z"/>
<path transform="translate(0,0)" fill="rgb(68,68,68)" d="M 1548.47 315.977 A 3436.36 3436.36 0 0 1 1635.71 316.628 C 1637 341.024 1644.74 375.035 1643.6 398.087 C 1631.57 387.233 1620.17 375.682 1608.09 364.87 A 1105.18 1105.18 0 0 0 1548.47 315.977 z"/>
<path transform="translate(0,0)" fill="rgb(68,68,68)" d="M 144.034 959.332 C 142.351 989.704 142.337 1020.53 143.27 1050.94 C 143.632 1062.75 144.729 1074.55 144.987 1086.35 C 130.039 1076.06 101.376 1039.77 88.8802 1025.12 C 95.6976 1014.97 104.729 1005.8 112.797 996.602 A 931.533 931.533 0 0 0 144.034 959.332 z"/>
<path transform="translate(0,0)" fill="rgb(68,68,68)" d="M 97.3489 1156.23 C 105.155 1143.03 114.575 1130.43 123.244 1117.77 C 129.999 1107.9 136.54 1096.29 144.827 1087.75 C 149.207 1128.77 155.265 1168.48 162.626 1209.06 L 161.004 1209.31 C 152.397 1203.53 144.572 1196.05 136.59 1189.43 C 123.421 1178.49 109.885 1167.89 97.3489 1156.23 z"/>
<path transform="translate(0,0)" fill="rgb(68,68,68)" d="M 1799.11 604.242 C 1819.79 607.196 1855.74 623.443 1875.73 632.536 C 1868.02 649.798 1856.89 704.317 1848.75 714.091 A 1053.79 1053.79 0 0 0 1799.11 604.242 z"/>
<path transform="translate(0,0)" fill="rgb(68,68,68)" d="M 1645.76 400.287 C 1656.09 399.586 1667.15 401.805 1677.38 403.215 C 1694.91 405.63 1712.43 408.37 1730 410.4 C 1730.04 424.254 1732.08 487.259 1728.73 495.951 C 1702.98 461.924 1675.41 430.911 1645.76 400.287 z"/>
<path transform="translate(0,0)" fill="rgb(68,68,68)" d="M 1730.19 497.99 C 1756.56 498.971 1784.92 508.443 1810.54 514.832 C 1808.66 534.155 1804.08 585.661 1796.91 601.033 C 1776.29 565.069 1755.09 531.171 1730.19 497.99 z"/>
<path transform="translate(0,0)" fill="rgb(68,68,68)" d="M 1446.11 1799.19 C 1444.79 1813.64 1419.65 1864.59 1412.29 1879.58 A 4019.8 4019.8 0 0 0 1332.59 1850.24 C 1371.44 1835.11 1409.27 1818.7 1446.11 1799.19 z"/>
<path transform="translate(0,0)" fill="rgb(68,68,68)" d="M 197.092 715.288 C 188.327 741.73 179.25 767.973 171.996 794.891 A 943.697 943.697 0 0 0 144.291 958.278 C 134.106 948.972 108.385 906.932 98.9537 892.753 C 115.771 871.378 142.726 854.309 162.225 834.763 C 151.059 809.66 137.34 785.484 124.475 761.22 C 139.327 751.605 183.924 718.97 197.092 715.288 z"/>
<path transform="translate(0,0)" fill="rgb(68,68,68)" d="M 1449.89 1796.72 C 1526.11 1752.95 1596.1 1701.27 1656.96 1637.53 C 1681.84 1611.49 1704.5 1583.84 1727.1 1555.85 C 1731.01 1582.56 1729.57 1609.98 1730.59 1636.87 C 1703.35 1642.8 1675.24 1643.38 1647.86 1648.4 C 1641.43 1675.29 1640.24 1704.86 1637.23 1732.39 C 1609.77 1731.79 1582.34 1730.13 1554.9 1729.58 C 1546.88 1757.46 1540.11 1785.68 1532.41 1813.64 C 1511.36 1810.27 1490.59 1805.77 1469.77 1801.26 C 1463.56 1799.91 1455.57 1799.22 1449.89 1796.72 z"/>
<path transform="translate(0,0)" fill="rgb(68,68,68)" d="M 1885.41 836.845 A 2280.86 2280.86 0 0 1 1951.22 891.16 C 1933.88 913.208 1920.33 938.048 1903.34 960.294 C 1920.48 982.856 1942.07 1001.52 1958.52 1024.48 C 1947.3 1039.17 1934.84 1053.21 1922.5 1066.98 C 1916.79 1073.35 1910.42 1079.52 1905.2 1086.28 C 1919.75 1110.64 1935.56 1133.98 1951.04 1157.73 C 1938.79 1167.01 1927.78 1178.02 1916.07 1188 C 1906.74 1195.95 1896.64 1203.12 1886.78 1210.41 A 752.155 752.155 0 0 0 1921.08 1286.98 C 1898.54 1302.34 1875.95 1318.23 1852.62 1332.37 C 1859.78 1358.85 1867.47 1385.21 1874.29 1411.78 C 1850.44 1423.73 1825.6 1437.5 1799.87 1444.85 C 1799.89 1473.92 1808.21 1502.66 1813.05 1531.23 C 1791.73 1538.23 1749.69 1551.69 1728.93 1553.51 C 1754.38 1517.24 1778.29 1480.49 1799.28 1441.41 A 878.033 878.033 0 0 0 1902.26 954.537 C 1899.19 914.861 1892.15 875.992 1885.41 836.845 z"/>
<path transform="translate(0,0)" fill="rgb(68,68,68)" d="M 1023.71 87.2976 C 1045.01 105.808 1065.34 125.628 1087.83 142.748 C 1111.44 129.004 1133.86 111.043 1156.15 95.1858 C 1173.29 116.529 1190.53 141.136 1211.01 159.345 C 1236.36 148.7 1261.09 136.117 1285.73 123.941 C 1298.31 148.299 1316.99 169.441 1329.23 193.972 C 1356.48 190.199 1384.27 178.385 1410.43 170.022 C 1423.2 195.039 1433.27 221.474 1443.58 247.569 C 1457.96 246.759 1472.42 244.071 1486.68 242.076 C 1500.7 240.114 1514.75 238.682 1528.67 235.986 C 1535.79 259.143 1544.29 291.673 1547.78 315.667 C 1513.67 290.853 1477.68 266.767 1440.6 246.576 A 866.144 866.144 0 0 0 887.03 152.237 A 879.855 879.855 0 0 0 418.243 384.248 C 380.16 419.976 343.721 459.621 313.072 501.957 A 1111.03 1111.03 0 0 0 250.362 599.302 C 245.067 589.708 240.778 532.106 236.588 515.569 C 263.395 511.007 289.255 501.386 316.04 496.812 C 316.011 468.518 318.512 440.445 319.103 412.204 C 345.486 411.231 371.15 404.103 397.731 403.862 C 401.325 375.225 409.318 347.284 412.831 318.593 C 429.215 318.702 479.137 319.609 491.072 315.388 C 498.708 307.81 513.591 252.53 518.248 237.751 C 544.949 242.176 572.233 244.773 599.09 248.297 C 614.034 225.339 627.056 198.113 637.999 173.061 C 661.863 179.888 693.135 191.254 717.22 192.651 C 732.776 174.963 750.718 147.171 762.606 126.705 C 787.003 138.97 811.266 152.016 837.339 160.386 C 856.24 139.778 873.649 118.215 891.956 97.1312 C 915.987 110.446 938.733 128.245 962.357 142.733 C 982.976 124.317 1003.63 106.324 1023.71 87.2976 z"/>
<path transform="translate(0,0)" fill="rgb(68,68,68)" d="M 163.616 1213.78 C 173.865 1256.91 185.714 1299.69 201.744 1341.08 A 898.034 898.034 0 0 0 569.496 1778.5 A 881.113 881.113 0 0 0 1227.96 1881.67 C 1262.68 1873.36 1298.65 1864.17 1331.73 1850.55 C 1316.32 1874.6 1301.91 1899.34 1286.18 1923.17 C 1262.02 1913.04 1234.49 1898.26 1210.66 1886.49 C 1190.61 1906.35 1174.98 1930.94 1155.83 1951.83 C 1131.36 1936.92 1108.85 1919.35 1083.61 1905.64 C 1064.76 1925.51 1044.52 1944.33 1024.96 1963.52 C 1007.88 1947.76 977.854 1916.29 958.221 1906.46 A 1403.75 1403.75 0 0 1 890.555 1952.27 C 885.404 1944.67 878.703 1937.69 872.743 1930.69 C 859.7 1915.38 846.642 1900.36 832.715 1885.83 C 808.277 1896 785.047 1909.58 761.061 1920.86 C 750.849 1908.23 742.162 1894.33 733.244 1880.78 C 726.838 1871.04 719.871 1861.37 714.543 1850.99 C 689.545 1860.95 661.544 1867.66 635.394 1874.06 A 2344.92 2344.92 0 0 1 602.23 1799.81 C 574.011 1799.83 545.438 1807.03 517.247 1809.29 C 511.227 1783.16 502.246 1757.88 495.06 1732.09 C 467.435 1731.83 439.731 1731.32 412.185 1729.1 C 410.289 1703.06 405.739 1675.96 400.56 1650.35 A 2733.25 2733.25 0 0 0 318.218 1634.71 C 317.259 1607.65 320.1 1579.92 317.094 1553.01 C 290.232 1545.08 264.016 1536.1 237.709 1526.53 C 242.023 1500.75 248.535 1473.65 248.037 1447.51 C 238.363 1441.34 227.395 1436.64 217.125 1431.47 A 859.727 859.727 0 0 1 174.57 1408.72 C 182.022 1384.74 189.146 1359.47 198.808 1336.34 C 175.449 1319.23 151.363 1303.05 127.524 1286.62 C 135.07 1270.64 143.313 1254.96 151.059 1239.07 C 154.954 1231.08 158.183 1220.73 163.616 1213.78 z"/>
<path transform="translate(0,0)" fill="rgb(254,254,254)" d="M 250.362 599.302 A 1111.03 1111.03 0 0 1 313.072 501.957 C 343.721 459.621 380.16 419.976 418.243 384.248 A 879.855 879.855 0 0 1 887.03 152.237 A 866.144 866.144 0 0 1 1440.6 246.576 C 1477.68 266.767 1513.67 290.853 1547.78 315.667 L 1548.47 315.977 A 1105.18 1105.18 0 0 1 1608.09 364.87 C 1620.17 375.682 1631.57 387.233 1643.6 398.087 L 1645.76 400.287 C 1675.41 430.911 1702.98 461.924 1728.73 495.951 L 1730.19 497.99 C 1755.09 531.171 1776.29 565.069 1796.91 601.033 L 1799.11 604.242 A 1053.79 1053.79 0 0 1 1848.75 714.091 L 1850.51 718.157 C 1860.82 744.671 1868.2 771.916 1875.54 799.378 C 1878.58 810.732 1880.83 822.879 1884.72 833.938 L 1885.41 836.845 C 1892.15 875.992 1899.19 914.861 1902.26 954.537 A 878.033 878.033 0 0 1 1799.28 1441.41 C 1778.29 1480.49 1754.38 1517.24 1728.93 1553.51 L 1727.1 1555.85 C 1704.5 1583.84 1681.84 1611.49 1656.96 1637.53 C 1596.1 1701.27 1526.11 1752.95 1449.89 1796.72 L 1446.11 1799.19 C 1409.27 1818.7 1371.44 1835.11 1332.59 1850.24 L 1331.73 1850.55 C 1298.65 1864.17 1262.68 1873.36 1227.96 1881.67 A 881.113 881.113 0 0 1 569.496 1778.5 A 898.034 898.034 0 0 1 201.744 1341.08 C 185.714 1299.69 173.865 1256.91 163.616 1213.78 L 162.626 1209.06 C 155.265 1168.48 149.207 1128.77 144.827 1087.75 L 144.987 1086.35 C 144.729 1074.55 143.632 1062.75 143.27 1050.94 C 142.337 1020.53 142.351 989.704 144.034 959.332 L 144.291 958.278 A 943.697 943.697 0 0 1 171.996 794.891 C 179.25 767.973 188.327 741.73 197.092 715.288 L 197.618 713.832 C 213.615 677.525 228.374 641.197 246.767 605.941 L 250.362 599.302 z"/>
<path transform="translate(0,0)" fill="rgb(223,68,69)" d="M 987.738 161.438 A 860.325 860.325 0 0 1 1606.16 387.751 A 869.824 869.824 0 0 1 1886.38 988.185 A 860.914 860.914 0 0 1 1718.6 1536.24 C 1699.02 1562.95 1676.82 1588.83 1654.53 1613.33 A 854.752 854.752 0 0 1 1062.27 1885.87 C 1029.35 1886.82 996.555 1886.89 963.694 1884.46 A 865.933 865.933 0 0 1 450.638 1668.43 A 864.531 864.531 0 0 1 161.698 1065.17 A 864.429 864.429 0 0 1 299.584 554.578 C 327.803 511.378 361.396 470.079 396.014 431.883 C 427.841 396.766 464.462 365.662 502.267 337.153 A 860.838 860.838 0 0 1 987.738 161.438 z"/>
<path transform="translate(0,0)" fill="rgb(254,254,254)" d="M 1001.72 197.451 L 1003.7 197.378 A 823.835 823.835 0 0 1 1592.53 425.148 A 839.488 839.488 0 0 1 1850.57 1005 A 818.621 818.621 0 0 1 1627.64 1586.99 C 1473.54 1750.14 1272.83 1842.75 1047.77 1849.2 A 195.552 195.552 0 0 1 1043.35 1849.44 C 849.823 1857.48 624.489 1778.37 481.28 1646.96 C 458.255 1625.83 434.842 1603.9 413.897 1580.73 A 829.827 829.827 0 0 1 197.502 1059.07 A 824.185 824.185 0 0 1 417.026 464.641 A 832.817 832.817 0 0 1 1001.72 197.451 z"/>
<path transform="translate(0,0)" fill="rgb(68,68,68)" d="M 999.368 229.449 C 1170.8 221.547 1346.94 277.397 1485.7 377.449 C 1504.11 390.723 1522.42 404.268 1539.37 419.399 C 1562.06 439.666 1584.91 460.065 1605.5 482.502 C 1727.97 615.991 1807.51 796.087 1817.66 977.5 A 790.965 790.965 0 0 1 1672.53 1482.9 C 1657.07 1504.7 1641.04 1526.58 1623.17 1546.5 C 1597.04 1575.61 1568.89 1604.54 1539.25 1630.09 C 1399.77 1750.35 1234.11 1809.06 1051.72 1818.85 C 832.693 1822.69 635.212 1749.15 475.012 1598.98 C 327.041 1460.28 235.708 1256.39 229.263 1053.85 A 794.939 794.939 0 0 1 447.016 478.963 A 794.746 794.746 0 0 1 999.368 229.449 z"/>
<path transform="translate(0,0)" fill="rgb(254,254,254)" d="M 1011.56 257.49 L 1013.6 257.444 A 761.134 761.134 0 0 1 1551.81 467.775 A 770.223 770.223 0 0 1 1789.68 1014.85 A 755.205 755.205 0 0 1 1657.17 1454.74 C 1635.48 1486.98 1612.44 1518.26 1585.41 1546.24 C 1564.36 1568.03 1543.03 1589.6 1519.9 1609.21 A 761.447 761.447 0 0 1 1037.25 1790.21 C 1002.32 1790.07 967.722 1789.38 932.992 1785.21 C 777.49 1766.53 624.159 1698.1 509.064 1591.32 C 489.664 1573.32 470.41 1554.77 452.782 1535.01 A 771.375 771.375 0 0 1 257.477 1047.15 C 250.235 851.207 326.711 650.905 459.833 507.445 A 769.909 769.909 0 0 1 910.889 265.59 C 944.38 260.541 977.771 258.732 1011.56 257.49 z"/>
<path transform="translate(0,0)" fill="rgb(68,68,68)" d="M 1012.19 274.5 L 1014.67 274.431 A 681.926 681.926 0 0 1 1169.27 288.865 A 747.168 747.168 0 0 1 1543.86 483.724 C 1566.49 505.227 1586.86 529.195 1606.31 553.565 A 754.049 754.049 0 0 1 1772.22 1011.54 A 750.763 750.763 0 0 1 1564.66 1543.64 A 749.196 749.196 0 0 1 1036.15 1772.08 A 803.48 803.48 0 0 1 883.13 1759.49 A 755.032 755.032 0 0 1 513.915 1571.96 A 755.272 755.272 0 0 1 275.508 1042.43 C 268.955 853.469 343.251 657.485 472.191 519.438 C 617.169 364.221 800.237 281.633 1012.19 274.5 z"/>
<path transform="translate(0,0)" fill="rgb(254,254,254)" d="M 1247.68 1562.72 C 1252.98 1568.95 1255.51 1584.72 1257.86 1592.84 L 1293.33 1593.01 C 1284.1 1599.47 1274.97 1605.99 1266.05 1612.89 C 1268.24 1624.13 1272.48 1635.51 1275.71 1646.56 C 1266.24 1639.87 1257.22 1632.18 1248.07 1625.03 A 618.791 618.791 0 0 0 1219.9 1647.1 A 685.868 685.868 0 0 1 1230.91 1613.11 A 700.947 700.947 0 0 0 1203.84 1593.33 L 1238.36 1593.27 C 1240.99 1582.89 1244.23 1572.85 1247.68 1562.72 z"/>
<path transform="translate(0,0)" fill="rgb(254,254,254)" d="M 799.379 1561.75 C 804.231 1568.35 807.604 1585.42 810.126 1593.74 C 821.995 1593.88 833.834 1593.5 845.695 1593.13 A 581.568 581.568 0 0 0 817.811 1614.36 C 820.747 1625.97 825.538 1637.49 829.27 1648.9 A 360.75 360.75 0 0 1 802.717 1627.87 L 801.485 1626.88 C 796.517 1627.16 777.102 1644.43 771.982 1648.25 C 775.549 1636.91 779.058 1625.66 781.814 1614.09 C 773.493 1606.53 763.797 1600.27 754.528 1593.93 L 789.731 1593.69 C 792.746 1582.96 795.796 1572.3 799.379 1561.75 z"/>
<path transform="translate(0,0)" fill="rgb(254,254,254)" d="M 1022.76 1597.69 C 1029.04 1604.21 1034.9 1629.5 1037.82 1639.16 A 1573.72 1573.72 0 0 0 1082.82 1638.01 C 1070.37 1647.36 1057.19 1656.5 1045.96 1667.3 C 1052.62 1680.35 1056.44 1695.73 1060.82 1709.68 L 1025.48 1683.44 C 1025.2 1683.38 1024.93 1683.27 1024.64 1683.27 C 1019.59 1683.28 993.457 1704.93 987.747 1709.32 C 991.761 1695.03 996.964 1680.97 1001.73 1666.91 C 990.057 1656.68 977.14 1648.16 964.914 1638.64 C 980.038 1638.97 995.176 1639.01 1010.3 1639.16 C 1014.11 1625.27 1017.81 1611.21 1022.76 1597.69 z"/>
<path transform="translate(0,0)" fill="rgb(254,254,254)" d="M 1294.96 558.882 C 1298.72 563.319 1301.1 568.7 1303.12 574.105 C 1309.95 592.372 1323.65 649.939 1324.08 668.636 C 1324.21 674.199 1323.35 680.144 1320.85 685.169 C 1318.97 688.946 1315.82 692.204 1312.2 694.36 C 1302.74 700.002 1288.17 702.908 1277.6 706.37 L 1221.56 725.299 C 1211.89 728.509 1178.93 740.113 1170.34 738.898 C 1167.62 738.513 1165.11 737.141 1162.68 735.93 C 1158.42 732.042 1155.57 727.663 1153.31 722.36 C 1150.62 716.035 1133.17 654.154 1132.91 649.218 C 1132.68 644.663 1134.65 641.349 1138.22 638.673 C 1145.6 633.132 1156.89 631.102 1165.73 628.795 A 691.322 691.322 0 0 1 1201.08 620.464 C 1221.04 616.328 1280.53 607.951 1293.14 592.591 C 1301.17 582.81 1295.65 570.763 1295 559.72 C 1294.98 559.441 1294.97 559.161 1294.96 558.882 z"/>
<path transform="translate(0,0)" fill="rgb(68,68,68)" d="M 1184.13 650.18 C 1189.9 649.681 1195.17 649.595 1200.63 651.843 A 27.4569 27.4569 0 0 1 1216.05 667.883 C 1218.69 675.036 1218.5 683.26 1215.12 690.141 C 1211.19 698.123 1205.44 701.521 1197.25 704.103 C 1193.08 704.635 1189.07 704.709 1184.95 703.684 C 1177.28 701.772 1170.81 696.944 1167.02 689.977 C 1163.48 683.439 1162.63 675.407 1165.07 668.347 C 1168.36 658.82 1175.4 654.127 1184.13 650.18 z"/>
<path transform="translate(0,0)" fill="rgb(254,254,254)" d="M 1541.19 816.017 C 1544.95 816.187 1549.64 816.302 1552.85 818.528 C 1562.78 825.414 1567.13 864.605 1569.52 876.631 C 1575.71 877.648 1581.9 878.686 1588 880.146 C 1632.2 890.726 1669.72 917.234 1693.24 956.287 C 1707.49 979.943 1713.69 1007.52 1706.76 1034.64 C 1700.59 1058.79 1685.84 1076.66 1664.6 1089.19 C 1675.83 1074.48 1683.24 1057.31 1684.49 1038.68 C 1685.91 1017.55 1676.71 995.303 1662.75 979.657 C 1642.03 956.428 1614.2 948.814 1584.26 947.035 C 1594.23 999.905 1605.82 1052.58 1616.96 1105.22 C 1622.15 1128.26 1637.28 1181.12 1630.95 1202.46 C 1625.57 1220.65 1610.99 1235.39 1594.62 1244.28 C 1574.42 1255.25 1549.73 1259.66 1527.45 1252.83 C 1513.56 1248.57 1500.94 1240.25 1494.23 1226.97 C 1488.17 1214.96 1487.69 1201.21 1491.89 1188.54 C 1498.33 1169.18 1514.24 1153.29 1532.31 1144.38 C 1552.42 1134.47 1572.65 1132.97 1593.81 1140.05 C 1581.66 1087.84 1572.26 1034.8 1561.33 982.31 C 1551.17 933.481 1538.76 882.512 1531.26 833.363 C 1530.79 830.314 1529.7 825.898 1531.09 822.973 C 1532.82 819.311 1537.75 817.509 1541.19 816.017 z"/>
<path transform="translate(0,0)" fill="rgb(254,254,254)" d="M 1152 359.071 C 1155.87 359.527 1159.83 360.539 1163.26 362.444 C 1176.4 369.749 1180.49 402.222 1184.66 416.712 C 1148.66 421.646 1113.8 429.599 1078.5 438.016 C 1013.7 453.463 950.109 471.972 886.334 491.14 C 828.568 508.502 770.326 524.491 713.02 543.368 C 711.784 543.775 707.454 544.979 706.93 546.013 C 715.814 545.636 728.876 540.518 737.998 538.136 L 815.151 518.294 C 939.06 487.621 1063.69 458.566 1186.64 424.217 C 1189.25 432.804 1191.32 441.513 1193.44 450.229 A 3235.06 3235.06 0 0 0 1133.45 464.208 C 1106.82 471.9 1079.1 477.397 1052.14 483.974 A 9419.66 9419.66 0 0 1 866.267 528.585 L 716.866 564.299 C 696.954 568.965 676.939 575.157 656.813 578.636 C 645.422 580.605 632.701 580.934 621.386 578.286 C 615.952 577.014 611.505 575.576 608.438 570.716 C 607.914 568.075 607.876 566.682 609.144 564.235 C 612.186 558.36 618.845 554.33 624.757 551.918 C 639.295 545.988 654.74 541.863 669.518 536.47 C 724.584 516.375 780.108 497.694 835.015 477.112 L 1011.02 411.59 L 1086.12 383.25 C 1107.96 374.92 1129.68 366.048 1152 359.071 z"/>
<path transform="translate(0,0)" fill="rgb(254,254,254)" d="M 1214.68 473.201 C 1222.98 472.231 1232.02 472.157 1239.65 476.043 C 1244.05 478.283 1246.81 481.18 1249.09 485.526 C 1254.58 496.011 1256.43 509.016 1259.31 520.442 C 1264.48 540.878 1269.29 561.667 1275.7 581.747 C 1241.76 597.247 1147 607.666 1125.83 623.245 C 1119.4 627.972 1115.74 634.493 1114.64 642.352 C 1112.27 659.405 1132.21 730.013 1143.04 744.119 C 1149.33 752.31 1157.12 756.195 1167.35 757.054 C 1192.3 759.149 1245.48 737.854 1271.39 728.951 C 1280.84 725.705 1293.4 720.199 1303.4 721.319 C 1307.1 724.456 1322.76 788.587 1323.66 797.925 C 1324.74 809.11 1322.85 818.051 1315.38 826.64 C 1311.21 831.447 1303.25 834.185 1297.25 836.113 C 1267.1 845.811 1234.4 850.545 1203.38 857.034 C 1186.01 860.668 1167.88 866.539 1150.24 867.927 C 1113.59 870.81 1076.27 867.306 1039.51 869.077 C 1045.91 867.341 1054.24 866.694 1059.53 862.618 L 1059.74 860.513 L 1058.26 858.863 C 1047.33 855.058 1018.21 866.394 1005.03 867.793 C 984.066 870.016 952.625 868.332 930.721 868.373 L 711.467 868.452 C 710.907 864.669 710.643 859.907 709.294 856.346 C 708.062 853.096 706.296 850.545 703.078 849.086 L 701.162 849.985 C 698.128 856.46 700.29 861.814 701.962 868.353 L 682.933 868.127 C 671.241 825.236 661.636 781.733 651.229 738.513 C 640.388 693.493 628.748 648.694 618.187 603.6 C 631.288 605.876 646.085 606.616 659.287 604.728 C 677.231 602.162 695.318 596.57 713.029 592.538 A 6320.47 6320.47 0 0 0 833.859 564.153 A 22310.8 22310.8 0 0 1 1061.01 509.526 A 10115.1 10115.1 0 0 1 1214.68 473.201 z"/>
<path transform="translate(0,0)" fill="rgb(68,68,68)" d="M 655.265 648.203 L 657.567 649.398 C 662.418 655.773 666.712 673.659 666.673 681.983 C 666.658 685.367 665.265 686.006 663.056 688.144 L 660.317 686.671 C 655.284 679.62 651.836 663.123 651.639 654.507 C 651.561 651.114 652.994 650.35 655.265 648.203 z"/>
<path transform="translate(0,0)" fill="rgb(68,68,68)" d="M 698.243 618.141 L 701.514 617.871 C 703.626 618.932 703.683 619.18 704.822 621.281 L 703.906 623.482 C 696.19 630.05 678.078 632.068 668.295 634.816 C 666.62 635.134 665.726 635.158 664.077 635.019 C 662.66 632.931 662.211 632.477 662.066 629.998 C 667.329 623.364 689.6 620.284 698.243 618.141 z"/>
<path transform="translate(0,0)" fill="rgb(68,68,68)" d="M 1195.98 500.37 C 1202.05 499.546 1209.39 499.738 1214.64 503.308 C 1217.43 505.208 1218.93 507.066 1219.65 510.414 C 1218.94 511.84 1219.09 512.459 1217.43 512.953 C 1213.13 514.228 1209.1 510.97 1205.59 508.873 C 1197.63 508.672 1187.02 513.122 1179.6 510.861 L 1178.75 509.016 C 1178.9 507.467 1178.68 505.888 1179.69 504.616 C 1182.76 500.716 1191.37 500.889 1195.98 500.37 z"/>
<path transform="translate(0,0)" fill="rgb(68,68,68)" d="M 685.913 780.198 L 689.33 781.479 C 693.798 786.403 695.893 798.041 697.295 804.541 C 698.828 811.643 701.205 818.399 697.081 824.789 L 693.664 823.688 C 688.886 818.263 686.879 805.264 685.39 798.247 C 683.908 791.259 681.85 786.435 685.913 780.198 z"/>
<path transform="translate(0,0)" fill="rgb(68,68,68)" d="M 671.408 711.498 C 672.112 711.905 672.575 712.116 673.165 712.751 C 676.124 715.937 683.285 747.831 682.574 751.966 C 681.985 755.395 680.586 755.856 678.04 757.778 C 677.376 757.102 676.845 756.585 676.228 755.84 C 672.568 751.418 665.353 721.933 666.665 716.127 C 667.3 713.317 669.15 712.864 671.408 711.498 z"/>
<path transform="translate(0,0)" fill="rgb(68,68,68)" d="M 1257.93 815.289 C 1261.19 815.329 1260.95 815.353 1263.28 817.671 C 1263.48 819.248 1263.86 819.337 1263.12 820.402 C 1258.49 827.086 1230.26 829.732 1222.17 831.219 C 1219.86 831.239 1218.85 830.447 1217.22 829.042 L 1217.45 825.95 C 1222.83 819.244 1248.54 817.024 1257.93 815.289 z"/>
<path transform="translate(0,0)" fill="rgb(68,68,68)" d="M 1195.01 828.291 C 1195.93 828.404 1196.83 828.929 1197.68 829.299 C 1198.84 832.173 1199.14 832.318 1198.27 835.242 C 1191.74 840.978 1165.12 844.183 1155.17 846.33 C 1153.43 845.841 1152.94 845.335 1151.62 844.164 C 1150.86 841.458 1150.74 841.635 1152.07 839.184 C 1160.99 832.976 1183.82 830.102 1195.01 828.291 z"/>
<path transform="translate(0,0)" fill="rgb(68,68,68)" d="M 1125.68 842.214 C 1129.09 842.191 1128.88 842.106 1131.35 844.451 C 1132.11 846.92 1132.27 846.849 1131.17 849.157 C 1123.44 854.824 1098.88 857.149 1088.09 859.286 C 1085.91 859.445 1084.67 859.433 1082.65 858.583 C 1081.31 856.15 1081.14 856.135 1081.64 853.438 C 1087.02 848.028 1116.36 844.219 1125.68 842.214 z"/>
<path transform="translate(0,0)" fill="rgb(68,68,68)" d="M 926.613 563.182 C 928.092 563.125 929.028 563.655 930.383 564.194 C 931.949 566.617 932.259 566.565 931.787 569.361 C 927.151 574.195 893.558 580.658 885.235 582.863 C 882.2 581.522 881.445 581.427 879.574 578.56 L 880.194 576.545 C 888.897 569.531 915.055 565.858 926.613 563.182 z"/>
<path transform="translate(0,0)" fill="rgb(68,68,68)" d="M 775.177 600.158 C 777.267 599.689 778.247 599.539 780.273 600.29 C 781.665 602.703 781.633 603.24 781.604 606.057 C 773.178 612.59 745.953 616.176 734.477 618.762 L 731.556 618.708 C 729.474 617.556 728.67 616.999 727.629 614.837 L 728.342 613 C 735.564 606.826 764.588 602.722 775.177 600.158 z"/>
<path transform="translate(0,0)" fill="rgb(68,68,68)" d="M 1001.61 545.136 C 1001.81 545.111 1002.01 545.08 1002.21 545.059 C 1005.41 544.721 1005.95 544.272 1008.53 546.353 C 1009.45 548.886 1009.62 548.778 1008.57 551.231 C 1000.87 557.69 973.703 561.137 962.815 563.716 C 961.873 563.798 960.497 563.954 959.584 563.855 C 956.975 563.57 956.33 563.049 954.788 561.172 L 955.292 558.814 C 961.364 552.536 992.057 547.54 1001.61 545.136 z"/>
<path transform="translate(0,0)" fill="rgb(68,68,68)" d="M 1152.63 509.15 C 1155.05 508.929 1156.25 508.87 1158.45 509.988 C 1159.57 512.17 1159.72 513.061 1159.35 515.485 C 1152.59 520.95 1123.41 525.97 1113.27 528.597 C 1110.36 528.904 1110.16 529.057 1107.68 527.575 C 1106.74 525.009 1106.86 524.715 1107.52 522.038 C 1111.67 516.694 1144.29 511.108 1152.63 509.15 z"/>
<path transform="translate(0,0)" fill="rgb(68,68,68)" d="M 1076.63 527.127 C 1079.66 526.822 1081.49 526.553 1084.27 528.116 C 1085.5 530.324 1085.38 530.242 1084.8 532.724 C 1083.07 534.762 1081.56 535.997 1079.06 537.017 C 1073.92 539.109 1066.97 539.352 1061.46 540.508 C 1054.59 541.949 1047.77 543.798 1040.97 545.541 C 1038.22 546.018 1035.16 546.589 1032.69 545.076 C 1031.55 542.875 1031.41 542.951 1032.01 540.571 C 1038.89 533.647 1066.39 529.576 1076.63 527.127 z"/>
<path transform="translate(0,0)" fill="rgb(68,68,68)" d="M 850.92 581.225 C 852.803 580.867 854 581.085 855.854 581.523 C 857.223 583.776 857.347 584.207 857.403 586.843 C 856.207 588.716 855.095 589.769 852.967 590.552 C 842.343 594.464 823.475 597.512 811.453 600.919 C 811.315 600.942 811.178 600.987 811.038 600.987 C 807.331 600.981 806.788 600.285 803.953 598.226 C 803.508 596.66 803.016 596.351 804.005 594.761 C 807.22 589.595 842.947 583.042 850.92 581.225 z"/>
<path transform="translate(0,0)" fill="rgb(68,68,68)" d="M 1233.9 524.362 C 1235.35 524.459 1236.33 524.771 1237.7 525.231 C 1239.02 527.1 1239.8 528.795 1240.52 530.981 C 1242.66 537.435 1252.96 575.408 1251.63 579.963 C 1251.34 580.969 1250.71 581.841 1250.24 582.781 C 1248.11 582.469 1246.33 582.013 1244.31 581.252 C 1240.66 575.877 1232.06 539.201 1231.25 531.544 C 1230.9 528.244 1232.04 526.958 1233.9 524.362 z"/>
<path transform="translate(0,0)" fill="rgb(68,68,68)" d="M 1279.3 728.656 C 1279.69 729.167 1280.04 729.716 1280.39 730.264 C 1287.81 742.056 1295.01 780.246 1291.68 793.516 C 1289.92 800.546 1286.81 807.067 1280.4 810.758 C 1279.02 809.6 1278.11 808.413 1277.07 806.953 C 1276.74 802.275 1285.2 792.036 1284.66 780.24 C 1284.13 768.624 1271.67 739.837 1274.91 731.448 C 1275.47 729.988 1277.93 729.316 1279.3 728.656 z"/>
<path transform="translate(0,0)" fill="rgb(223,68,69)" d="M 1026.16 685.127 C 1029.87 684.978 1033.31 684.901 1036.81 686.369 A 19.8282 19.8282 0 0 1 1047.73 697.656 A 20.9409 20.9409 0 0 1 1047.15 713.843 C 1044.4 719.744 1039.92 722.963 1033.99 725.195 C 1031.25 725.171 1028.33 725.213 1025.7 724.391 C 1020.21 722.677 1015.37 718.621 1012.88 713.442 A 19.6777 19.6777 0 0 1 1012.12 698.07 C 1014.66 691.13 1019.64 687.906 1026.16 685.127 z"/>
<path transform="translate(0,0)" fill="rgb(223,68,69)" d="M 758.828 748.097 C 762.487 747.942 766.322 747.613 769.87 748.717 A 22.012 22.012 0 0 1 782.517 759.165 A 19.6067 19.6067 0 0 1 784.013 774.247 C 781.925 780.972 777.293 784.541 771.382 787.838 C 768.566 788.246 765.877 788.68 763.042 788.125 A 20.7218 20.7218 0 0 1 749.776 779.201 A 21.0743 21.0743 0 0 1 746.759 763.187 C 748.278 756.019 752.82 751.793 758.828 748.097 z"/>
<path transform="translate(0,0)" fill="rgb(223,68,69)" d="M 896.452 715.063 C 899.051 715.279 901.902 715.6 904.354 716.502 C 909.797 718.506 914.446 722.844 916.653 728.216 A 20.0898 20.0898 0 0 1 916.567 743.834 C 913.695 750.556 908.475 753.992 901.838 756.413 C 898.994 756.165 895.883 755.73 893.239 754.627 C 887.686 752.311 882.801 747.689 880.538 742.088 C 878.569 737.211 878.608 731.868 880.824 727.081 C 884 720.223 889.616 717.356 896.452 715.063 z"/>
<path transform="translate(0,0)" fill="rgb(254,254,254)" d="M 863.895 897.5 L 1185.21 897.85 L 1273.54 897.588 C 1296.29 897.448 1320.67 895.546 1343.07 899.76 A 119.802 119.802 0 0 1 1406.17 932.389 C 1432.52 958.07 1444.2 990.909 1444.62 1027.21 C 1445.42 1095.65 1444.78 1164.31 1444.65 1232.76 C 1444.59 1266.1 1447.43 1327.09 1440.67 1357.4 C 1435.68 1379.76 1423.08 1401.4 1407.06 1417.62 C 1366.87 1458.32 1322.73 1454.32 1270.23 1454.27 L 1186.09 1454.36 L 863.548 1454.37 L 772.255 1454.51 C 750.379 1454.56 727.029 1456.3 705.472 1452.3 A 125.903 125.903 0 0 1 639.944 1418.09 C 609.202 1387.67 603.411 1356.72 603.117 1315.23 L 603.03 1113.35 L 603.01 1052.93 C 603.003 1031.94 601.809 1010.23 606.596 989.636 A 121.744 121.744 0 0 1 638.252 932.358 C 677.975 892.52 725.155 897.675 776.597 897.672 L 863.895 897.5 z"/>
<path transform="translate(0,0)" fill="rgb(68,68,68)" d="M 857.042 980.095 L 891.954 980.086 L 892.128 1137.23 L 856.949 1137.21 L 857.042 980.095 z"/>
<path transform="translate(0,0)" fill="rgb(68,68,68)" d="M 1175.9 980.32 C 1219.08 979.807 1262.32 980.217 1305.5 980.203 C 1306.05 990.082 1305.75 1000.1 1305.78 1010 C 1290.02 1010.54 1274.23 1010.18 1258.46 1010.71 L 1258.48 1091.25 A 1758.51 1758.51 0 0 0 1258.78 1137.34 L 1222.33 1137.21 L 1222.02 1010.93 A 1080.55 1080.55 0 0 0 1175.91 1010.84 L 1175.9 980.32 z"/>
<path transform="translate(0,0)" fill="rgb(68,68,68)" d="M 728.556 980.107 L 843.044 980.001 L 842.754 1010.6 A 3863.36 3863.36 0 0 0 763.947 1010.16 L 764.13 1050.04 C 775.931 1049.97 788.309 1049.18 800.023 1050.41 C 801.254 1052.58 800.914 1054.3 800.949 1056.75 L 800.953 1080.76 L 764.312 1080.95 A 2632.7 2632.7 0 0 0 764.219 1137.27 L 728.378 1137.04 A 9932.55 9932.55 0 0 0 728.556 980.107 z"/>
<path transform="translate(0,0)" fill="rgb(68,68,68)" d="M 1109.64 977.224 C 1127.38 975.598 1143.82 977.769 1161 982.187 C 1161.24 991.772 1161.13 1001.4 1161.19 1010.99 C 1150.75 1005.98 1133.14 1002.97 1121.6 1003.49 C 1114.44 1003.81 1108.26 1005.71 1103.54 1011.4 C 1101.11 1014.33 1099.55 1018.07 1100.13 1021.93 C 1102.22 1035.97 1142.2 1048.92 1154.41 1057.69 C 1163.84 1064.47 1170.13 1073.42 1171.81 1085.05 C 1173.76 1098.61 1170.9 1112.24 1162.48 1123.16 C 1152.34 1136.31 1136.78 1140.63 1121.08 1142.37 C 1104.03 1142.35 1087.99 1140.32 1072.7 1132.44 C 1071.55 1122.47 1072.1 1111.98 1072.04 1101.93 C 1085.83 1108.91 1104.05 1116.3 1119.81 1113.86 C 1124.99 1113.07 1130.67 1110.98 1133.78 1106.51 C 1136.19 1103.04 1137.29 1098.22 1136.2 1094.09 C 1132.52 1080.12 1098.22 1068.94 1086.44 1061.43 C 1075.75 1054.62 1066.93 1045.63 1064.45 1032.75 C 1062.22 1021.13 1065.24 1006.96 1072.18 997.31 C 1081.09 984.93 1095.28 979.838 1109.64 977.224 z"/>
<path transform="translate(0,0)" fill="rgb(68,68,68)" d="M 1044.92 1188.22 L 1084.98 1188.12 L 1085.01 1332.15 L 1165.87 1332.19 A 2075.88 2075.88 0 0 1 1165.86 1366.37 L 1044.45 1366.01 L 1044.92 1188.22 z"/>
<path transform="translate(0,0)" fill="rgb(68,68,68)" d="M 771.643 1185.41 C 789.674 1184.28 806.805 1187.3 823.921 1192.7 C 823.152 1204.95 823.224 1217.3 823.086 1229.57 C 811.611 1223.54 799.8 1219.12 786.854 1217.58 C 777.728 1216.49 764.86 1216.04 757.494 1222.32 C 753.782 1225.48 749.782 1230.5 749.784 1235.63 C 749.788 1251.61 786.073 1258.7 797.868 1263.54 C 804.975 1266.46 811.723 1270.31 817.51 1275.39 C 827.717 1284.35 834.486 1296.23 835.087 1309.99 C 835.694 1323.89 830.939 1338.64 821.346 1348.87 C 807.094 1364.07 785.545 1367.44 765.751 1368.32 C 747.346 1368.68 730.152 1365.32 713.008 1358.68 C 712.985 1346.3 713.222 1333.9 713.334 1321.52 C 730.295 1331.52 746.003 1336.32 765.916 1334.12 C 774.251 1333.2 782.893 1330.36 788.117 1323.38 C 790.842 1319.74 791.557 1315 790.872 1310.58 C 787.869 1291.18 742.548 1288.04 725.283 1274.98 C 715.595 1267.65 709.45 1258.18 708.028 1246 C 706.519 1233.06 709.004 1217.37 717.477 1207.14 C 730.575 1191.32 752.238 1186.79 771.643 1185.41 z"/>
<path transform="translate(0,0)" fill="rgb(68,68,68)" d="M 923.986 980.185 C 948.412 980.053 976.531 977.305 1000.34 982.926 C 1012.22 985.73 1024.06 991.709 1030.47 1002.51 C 1036.38 1012.46 1036.86 1026.42 1034.03 1037.51 C 1030.58 1051.05 1020.76 1057.69 1009.57 1064.53 C 1033.13 1081.87 1048.75 1111.42 1061.36 1137.33 A 1250.27 1250.27 0 0 0 1023.03 1137.32 C 1020.02 1134.05 1017.71 1129.31 1015.36 1125.5 C 1006.98 1111.92 998.835 1095.59 987.693 1084.18 C 978.905 1075.18 971.744 1074.69 959.915 1074.49 L 960.001 1137.46 L 924.023 1137.4 L 923.986 980.185 z"/>
<path transform="translate(0,0)" fill="rgb(254,254,254)" d="M 959.26 1007.81 C 970.44 1007.65 983.7 1006.11 993.307 1012.92 C 996.925 1015.49 1000.16 1019.51 1000.68 1024.04 C 1001.43 1030.52 997.914 1037.84 994.012 1042.73 C 983.198 1050.03 971.592 1049.13 959.166 1049.22 L 959.26 1007.81 z"/>
<path transform="translate(0,0)" fill="rgb(68,68,68)" d="M 1185.08 1188.48 L 1304.24 1188.36 L 1304.18 1223.24 L 1225.92 1223.71 L 1225.9 1259.89 L 1282.8 1259.88 L 1282.84 1293.44 L 1225.31 1293.49 L 1225.31 1314.86 L 1225.39 1331.76 L 1305.89 1332.01 L 1305.88 1365.96 L 1184.46 1366.66 A 5098.06 5098.06 0 0 0 1184.81 1254.3 C 1184.76 1232.5 1183.73 1210.23 1185.08 1188.48 z"/>
<path transform="translate(0,0)" fill="rgb(68,68,68)" d="M 931.17 1186.01 C 933.43 1186.06 936.286 1185.87 938.464 1186.39 C 939.131 1186.55 940.643 1187.16 941.253 1187.73 C 946.465 1192.61 1023.5 1345.49 1033.18 1365.93 L 989.323 1365.96 C 983.022 1355.38 978.12 1344.23 973.622 1332.79 A 1891.62 1891.62 0 0 0 942.052 1332.35 L 897.992 1332.3 C 892.396 1343.26 887.66 1354.87 882.577 1366.1 L 838.54 1366.05 C 852.555 1335.48 869.477 1306.19 884.981 1276.38 C 900.584 1246.37 915.01 1215.72 931.17 1186.01 z"/>
<path transform="translate(0,0)" fill="rgb(254,254,254)" d="M 936.143 1255.58 C 943.64 1264.38 953.952 1291.96 958.718 1303.78 L 935.106 1303.75 L 913.588 1303.55 C 920.61 1287.33 927.671 1271.11 936.143 1255.58 z"/>
</svg>