<svg version="1.1" xmlns="http://www.w3.org/2000/svg" style="display: block;" viewBox="0 0 2048 2048" width="1024" height="1024">
<path transform="translate(0,0)" fill="rgb(254,254,254)" d="M 0 0 L 2048 0 L 2048 2048 L 0 2048 L 0 0 z"/>
<path transform="translate(0,0)" fill="rgb(144,51,51)" d="M 958.626 47.6141 C 966.967 52.5779 974.951 60.641 982.271 67.0348 A 2778.65 2778.65 0 0 0 1023.3 102.74 C 1045.34 84.4802 1067.06 65.8291 1089.24 47.7446 A 2567.78 2567.78 0 0 1 1144.72 112.121 C 1167.43 95.6437 1192.2 80.5159 1215.83 65.3549 C 1231.07 89.2597 1247.61 112.282 1262.41 136.474 C 1288.49 125.927 1313.5 111.272 1339.15 99.5202 C 1351.69 124.965 1363.77 150.692 1377.01 175.779 C 1402.75 166.633 1428.71 156.283 1455.07 149.184 A 1712.74 1712.74 0 0 0 1483.05 227.942 C 1510.48 222.167 1537.83 215.631 1565.43 210.744 C 1570.68 239.004 1577.26 266.87 1581.82 295.3 A 6450.49 6450.49 0 0 0 1667.86 291.393 L 1672.78 374.005 C 1701.63 375.376 1730.35 378.521 1759.18 380.105 C 1757.73 407.926 1754.67 435.801 1752.63 463.597 C 1779.48 466.998 1812.05 475.573 1838.96 481.522 C 1832.96 509.176 1826.11 536.71 1819.68 564.272 C 1846.48 571.634 1875.17 580.792 1901.12 590.681 C 1891.95 618.328 1881.62 645.576 1872.58 673.261 C 1897.98 685.597 1923.95 696.874 1949.48 708.978 C 1938.09 735.628 1921.08 761.02 1911.24 787.989 C 1934.76 803.361 1959.98 816.987 1984.04 831.593 C 1969.61 855.863 1951.73 879.567 1934.8 902.21 C 1956.93 922.287 1980.32 940.963 2003.46 959.859 C 1983.89 982.177 1962.02 1002.93 1940.59 1023.46 C 1960.55 1045.97 1982.47 1066.71 2001.58 1089.96 C 1992.58 1098.91 1982.08 1106.6 1972.19 1114.53 L 1934.6 1145.14 C 1948.57 1171.35 1968.39 1193.3 1983.6 1218.59 C 1958.13 1233.4 1933.17 1248.85 1908.2 1264.48 C 1920.6 1290.52 1936.15 1315.69 1950.13 1340.95 A 2727.35 2727.35 0 0 0 1873.39 1378.33 A 1381.43 1381.43 0 0 1 1898.71 1456.94 C 1874 1468.25 1846.46 1475.81 1820.78 1484.79 C 1827.35 1512.02 1832.1 1539.85 1837.25 1567.38 C 1810.93 1573.19 1783.72 1577.62 1756.79 1578.96 C 1756.37 1608.81 1755.82 1638.77 1756.52 1668.62 A 1065.91 1065.91 0 0 1 1674.19 1673.32 C 1672.3 1702.3 1669.22 1731.31 1666.87 1760.27 C 1639.58 1757.26 1611.92 1755.96 1584.55 1753.57 C 1578.22 1782.18 1573.03 1811.2 1567.45 1839.98 C 1539.63 1834.41 1512.18 1826.42 1484.53 1819.97 L 1456.19 1901.21 A 1918.4 1918.4 0 0 1 1378.88 1871.36 A 4264.21 4264.21 0 0 1 1339.96 1949.64 C 1314.33 1936.08 1288.87 1921.35 1262.27 1909.77 L 1216.6 1982.7 C 1205.88 1976.13 1195.57 1968.82 1184.94 1962.09 C 1171 1953.25 1156.74 1944.92 1142.84 1936.01 C 1126.54 1958.25 1108.1 1979.81 1089.62 2000.28 C 1081.03 1995.8 1072.72 1987.17 1065.31 1980.81 C 1051.76 1969.17 1038.38 1957.24 1023.93 1946.72 C 1001.17 1962.79 980.541 1983.01 958.873 2000.64 C 940.552 1979.84 922.996 1958.33 904.798 1937.4 C 880.297 1951.81 856.83 1968.66 832.928 1984.09 C 816.73 1960.8 802.596 1935.32 787.657 1911.17 C 762.191 1924.83 735.615 1936.96 709.768 1949.94 C 697.288 1924.31 686.171 1897.81 674.534 1871.78 C 645.841 1879.83 617.379 1890.76 588.963 1899.92 A 2704.16 2704.16 0 0 0 564.359 1820.03 C 536.079 1825.61 507.528 1830.81 479.532 1837.67 L 463.944 1754.32 A 1987.59 1987.59 0 0 1 379.082 1758.47 A 3735.42 3735.42 0 0 0 373.004 1673.12 C 345.076 1672.75 316.889 1669.45 288.973 1667.82 C 291.15 1639.48 291.607 1610.53 291.613 1582.1 A 4410.28 4410.28 0 0 1 209.315 1567.44 C 215.18 1539.44 221.757 1511.54 225.4 1483.14 C 197.863 1474.12 169.855 1466.31 142.211 1457.57 C 151.879 1430.92 162.97 1404.71 173.251 1378.28 C 148.729 1364.41 122.197 1353.91 97.3778 1340.47 C 109.782 1314.4 124.159 1289.13 136.963 1263.2 C 112.84 1247.55 88.0273 1232.87 63.4497 1217.94 C 77.8114 1192.94 95.8418 1169.19 111.609 1144.94 C 89.3937 1126.68 66.486 1108.84 45.218 1089.49 C 62.9405 1065.82 85.7187 1044.15 105.978 1022.56 C 87.056 1003.27 60.4528 980.519 44.5612 959.639 C 66.4247 939.969 89.7911 921.963 111.582 902.134 C 95.8933 879.513 78.7227 857.803 61.9742 835.964 C 85.1329 818.45 109.181 801.902 132.873 785.105 C 121.998 760.187 106.832 735.958 93.5683 712.156 C 120.674 698.109 148.16 684.857 175.058 670.404 A 5049.79 5049.79 0 0 1 144.231 590.889 A 4339.37 4339.37 0 0 0 229.624 562.282 C 222.526 535.094 216.354 507.685 209.164 480.517 C 237.594 474.595 266.616 469.291 295.24 464.384 C 293.376 436.195 290.244 408.082 288.681 379.881 C 317.306 377.331 346.067 375.527 374.726 373.218 C 376.253 345.831 378.098 318.221 378.001 290.788 C 407.544 291.218 437.009 293.983 466.549 294.832 C 469.089 284.191 470.211 272.847 471.924 262.02 A 3773.14 3773.14 0 0 1 480.701 209.94 C 508.661 215.024 536.325 221.592 564.299 226.574 C 573.627 199.845 582.12 172.776 590.892 145.86 C 617.822 154.133 644.43 165.503 670.75 175.585 C 682.46 148.882 696.633 122.73 710.017 96.803 C 733.701 111.534 759.947 124.454 785.003 136.687 A 1864.86 1864.86 0 0 0 832.475 65.0601 C 856.658 80.2119 880.051 97.0336 903.569 113.218 C 922.709 92.0703 939.085 68.4236 958.626 47.6141 z"/>
<path transform="translate(0,0)" fill="rgb(254,254,254)" d="M 997.526 152.437 L 1000.58 152.343 A 863.461 863.461 0 0 1 1514.92 305.007 C 1550.58 329.23 1586 355.953 1617.26 385.704 C 1788.42 548.611 1889.8 765.426 1895.34 1002.62 A 868.768 868.768 0 0 1 1659.83 1621.55 A 874.734 874.734 0 0 1 1051.74 1895.14 A 881.119 881.119 0 0 1 427.927 1663.84 A 868.82 868.82 0 0 1 152.987 1073.03 C 145.604 897.996 183.182 733.731 271.988 582.14 A 829.212 829.212 0 0 1 375.489 440.633 C 540.146 261.978 754.329 162.231 997.526 152.437 z"/>
<path transform="translate(0,0)" fill="rgb(68,68,68)" d="M 989.429 189.427 A 39.1461 39.1461 0 0 1 991.501 189.289 A 837.308 837.308 0 0 1 1591.03 411.196 A 833.447 833.447 0 0 1 1858.55 995.255 A 829.128 829.128 0 0 1 1640.73 1589.54 A 833.077 833.077 0 0 1 1059.35 1858.1 A 289.459 289.459 0 0 1 1056 1858.31 C 1011.32 1860.9 965.611 1857.98 921.247 1852.51 A 843.827 843.827 0 0 1 460.549 1646.07 C 295.799 1499.46 202.174 1286.6 189.738 1068.01 A 837.35 837.35 0 0 1 400.849 467.437 A 846.008 846.008 0 0 1 838.633 209.445 C 888.365 198.148 938.572 192.223 989.429 189.427 z"/>
<path transform="translate(0,0)" fill="rgb(254,254,254)" d="M 986.47 227.5 C 987.479 227.407 988.489 227.328 989.501 227.272 C 1200.77 215.643 1406.7 295.746 1562.87 436.46 C 1587.36 458.532 1609.64 482.654 1630.93 507.799 A 798.995 798.995 0 0 1 1820.79 980.476 C 1831.96 1194.71 1762.48 1399.13 1618.4 1558.84 A 801.038 801.038 0 0 1 1062.25 1821.96 A 806.861 806.861 0 0 1 634.501 1723.02 C 584.52 1696.1 537.531 1665.01 494.729 1627.62 C 334.115 1487.32 241.14 1287.47 227.169 1075.56 A 796.344 796.344 0 0 1 426.477 494.839 C 535.794 370.177 691.888 280.573 853.395 245.002 C 897.472 235.295 941.5 230.439 986.47 227.5 z"/>
<path transform="translate(0,0)" fill="rgb(68,68,68)" d="M 750.209 1580.98 L 774.253 1580.91 A 13022.3 13022.3 0 0 0 774.924 1720.43 L 750.157 1720.49 L 750.209 1580.98 z"/>
<path transform="translate(0,0)" fill="rgb(68,68,68)" d="M 533.357 1405.74 C 539.07 1412.49 547.715 1436 552.279 1445.65 A 741.347 741.347 0 0 1 593.765 1449.33 C 583.388 1459.09 572.384 1468.23 561.58 1477.51 A 2043.2 2043.2 0 0 0 569.845 1520.26 C 558.095 1512.87 545.639 1506.66 533.807 1499.37 C 521.097 1505.48 508.892 1512.59 496.611 1519.52 C 498.706 1505.22 501.702 1491.13 504.637 1476.99 C 493.218 1468.46 482.925 1458.6 472.358 1449.06 C 486.445 1446.62 501.436 1446.11 515.701 1444.77 L 533.357 1405.74 z"/>
<path transform="translate(0,0)" fill="rgb(68,68,68)" d="M 1513.46 1406.47 C 1517.53 1409.38 1529.22 1437.06 1532.35 1443.57 A 1798.75 1798.75 0 0 1 1575.6 1450.76 C 1565.75 1461.69 1554.11 1471.34 1543.89 1482 A 2067.24 2067.24 0 0 1 1552.79 1521.33 C 1542.29 1516.98 1532.5 1511.13 1522.61 1505.57 L 1514.58 1500.74 C 1503.48 1507.09 1492.19 1513.15 1480.41 1518.12 C 1482.17 1504.61 1484.65 1491.14 1487.22 1477.76 C 1476.04 1469.84 1465.63 1458.78 1455.37 1449.61 C 1468.88 1446.68 1483.28 1445.68 1497.01 1443.89 C 1502.27 1431.34 1507.98 1418.93 1513.46 1406.47 z"/>
<path transform="translate(0,0)" fill="rgb(68,68,68)" d="M 1097.61 1581.2 L 1175.03 1581.55 L 1175.01 1603.37 L 1121.68 1603.09 L 1121.51 1640.45 L 1165.19 1640.3 L 1165.18 1660.75 L 1121.83 1660.96 L 1121.84 1677.43 L 1121.81 1698.86 L 1175.96 1698.92 L 1175.88 1720.82 L 1097.99 1720.4 L 1097.61 1581.2 z"/>
<path transform="translate(0,0)" fill="rgb(68,68,68)" d="M 1201.18 1581.49 A 6619.39 6619.39 0 0 1 1279.03 1581.15 L 1278.98 1602.93 L 1224.54 1603.01 L 1224.41 1641.24 L 1269.33 1640.97 L 1269.3 1661.51 C 1254.27 1661.71 1239.22 1661.57 1224.19 1661.59 L 1224.1 1677.5 L 1224.08 1698.36 L 1279.84 1698.34 L 1279.78 1720.57 L 1200.67 1720.72 L 1200.54 1631.03 C 1200.52 1614.65 1199.72 1597.78 1201.18 1581.49 z"/>
<path transform="translate(0,0)" fill="rgb(68,68,68)" d="M 646.231 1581.96 C 667.817 1581.75 698.864 1577.89 716.383 1593.14 C 725.155 1600.77 729.821 1611.53 730.213 1623.08 C 730.596 1634.38 727.199 1645.91 718.987 1653.95 C 706.409 1666.28 689.074 1666 672.75 1665.99 L 671.032 1666.26 C 667.984 1670.48 669.965 1712.22 670.016 1720.35 C 662.161 1720.78 654.242 1720.69 646.375 1720.79 A 10427 10427 0 0 0 646.231 1581.96 z"/>
<path transform="translate(0,0)" fill="rgb(254,254,254)" d="M 669.923 1600.91 C 680.541 1600.73 690.63 1600.79 699.191 1608.12 C 703.2 1611.55 706.577 1616.71 706.882 1622.11 C 707.267 1628.92 703.971 1635.4 699.562 1640.31 C 690.02 1646.42 680.883 1646.89 669.928 1647.05 L 669.923 1600.91 z"/>
<path transform="translate(0,0)" fill="rgb(68,68,68)" d="M 960.623 1577.34 C 970.868 1583.66 1034.03 1656.03 1046.95 1670 L 1046.59 1581.07 L 1069.2 1581.14 A 11446.5 11446.5 0 0 1 1068.73 1726.46 C 1057.33 1719.66 997.085 1649.47 983.366 1633.97 A 5435.03 5435.03 0 0 1 983.587 1720.92 L 960.825 1720.94 C 960.766 1673.09 960.093 1625.18 960.623 1577.34 z"/>
<path transform="translate(0,0)" fill="rgb(68,68,68)" d="M 1302.19 1581.88 C 1317.3 1581.11 1334.76 1580.09 1349.59 1583.27 C 1360.73 1585.66 1371.13 1590.95 1377.17 1600.98 C 1383.03 1610.7 1384.12 1623.39 1381.01 1634.2 C 1377.29 1647.14 1369.3 1653.86 1357.93 1659.87 C 1368.19 1680.13 1382.37 1700.03 1394.79 1719.07 C 1387.95 1719.37 1381.05 1719.82 1374.2 1719.77 C 1370.17 1719.74 1369.27 1719.46 1366.39 1716.56 C 1356.03 1700.2 1345.96 1682.39 1333.77 1667.36 C 1331.81 1664.95 1330.69 1664.52 1327.64 1664.18 C 1323.16 1669.19 1325.07 1711.19 1325.06 1720.86 A 1208.81 1208.81 0 0 1 1302.6 1720.47 C 1301.92 1674.31 1302.57 1628.06 1302.19 1581.88 z"/>
<path transform="translate(0,0)" fill="rgb(254,254,254)" d="M 1325.51 1601.04 C 1335.1 1600.92 1344.86 1601.88 1352.6 1608.17 C 1356.46 1611.31 1359.64 1615.99 1360.03 1621.07 C 1360.57 1628.03 1357.01 1634.13 1352.57 1639.09 C 1344.09 1644.81 1335.43 1645.06 1325.57 1645.41 A 2007.46 2007.46 0 0 1 1325.51 1601.04 z"/>
<path transform="translate(0,0)" fill="rgb(68,68,68)" d="M 917.728 1357.49 L 933.103 1357.39 L 933.036 1385.02 L 869.296 1384.83 L 869.177 1432.06 L 924.227 1432.04 L 924.1 1455.9 L 869.147 1455.93 L 869.025 1504.37 C 884.899 1504.7 900.869 1504.17 916.75 1504 L 934.684 1503.91 L 934.525 1530.18 A 4099.8 4099.8 0 0 0 839.086 1530.56 A 8830.66 8830.66 0 0 1 839.629 1358.05 L 917.728 1357.49 z"/>
<path transform="translate(0,0)" fill="rgb(68,68,68)" d="M 1268.86 1357.12 L 1364.93 1357.04 L 1364.91 1384.19 C 1342.47 1384.67 1319.9 1384.06 1297.45 1383.94 C 1297.17 1399.64 1297.51 1415.4 1297.57 1431.1 A 4273.58 4273.58 0 0 0 1354.77 1430.97 L 1354.42 1457.09 L 1297.39 1457.1 L 1297.37 1475.4 L 1297.21 1504.12 L 1366.26 1503.85 A 622.602 622.602 0 0 0 1366.71 1530.23 C 1333.96 1529.74 1301.15 1530.04 1268.39 1529.96 C 1267.6 1472.33 1268.6 1414.75 1268.86 1357.12 z"/>
<path transform="translate(0,0)" fill="rgb(68,68,68)" d="M 970.902 1352.81 C 979.537 1358.67 994.485 1377.98 1002.32 1386.78 C 1026.33 1413.75 1050.7 1440.55 1074.03 1468.11 L 1074.02 1357.26 L 1100.77 1357.18 A 17668.7 17668.7 0 0 0 1099.97 1535.87 L 1098.9 1536.91 C 1090.54 1530.9 1076.86 1513.11 1069.37 1504.81 A 5526.29 5526.29 0 0 1 996.979 1424.21 A 5780.82 5780.82 0 0 1 997.601 1530.46 L 969.067 1530.66 A 4709.25 4709.25 0 0 0 969.765 1422.62 C 969.723 1407.38 967.404 1365.33 970.902 1352.81 z"/>
<path transform="translate(0,0)" fill="rgb(68,68,68)" d="M 746.625 1355.4 C 765.921 1353.81 784.629 1358.24 801.656 1367.26 C 798.531 1376.1 795.741 1385.09 792.794 1394 C 777.177 1384.21 759.124 1379.48 740.79 1382.97 C 724.356 1386.09 709.818 1396.47 700.556 1410.27 A 61.235 61.235 0 0 0 691.856 1457.5 C 695.112 1472.48 704.042 1485.04 716.857 1493.32 C 734.954 1505.02 758.02 1507.06 778.724 1502.58 L 778.735 1463.1 L 747.026 1463.3 L 747.023 1437.17 L 766.5 1437.19 L 808.435 1437.13 L 808.103 1521.39 A 106.408 106.408 0 0 1 769.196 1532.98 C 741.856 1535.78 713.185 1529.02 691.648 1511.42 A 84.3228 84.3228 0 0 1 661.068 1453.43 C 658.897 1428.76 665.002 1405.65 681.141 1386.63 C 698.057 1366.7 721.052 1357.66 746.625 1355.4 z"/>
<path transform="translate(0,0)" fill="rgb(68,68,68)" d="M 1136.25 1357.16 C 1155.87 1357.04 1178.55 1354.52 1197.54 1359.9 C 1210.77 1363.65 1222.82 1371.84 1229.33 1384.22 C 1235.89 1396.68 1236.67 1412.69 1232.41 1426.08 C 1227.64 1441.07 1218.83 1449.64 1205.29 1456.81 C 1218.9 1481.95 1236.68 1504.97 1250.59 1530.03 C 1241.28 1529.96 1226.7 1532.69 1218.26 1529.47 C 1215.03 1528.23 1214.42 1525.64 1212.92 1522.79 C 1204.22 1507.4 1184.09 1470.26 1172.96 1459.01 C 1169.89 1459.1 1168.32 1458.79 1165.69 1460.47 C 1164.2 1468.68 1165.08 1477.56 1165.11 1485.9 L 1165.22 1529.88 L 1136.41 1529.86 L 1136.25 1357.16 z"/>
<path transform="translate(0,0)" fill="rgb(254,254,254)" d="M 1165.72 1382.88 C 1176.12 1382.74 1185.79 1383.1 1194.47 1389.76 C 1199.92 1393.94 1203.87 1400.05 1204.54 1406.98 C 1205.28 1414.64 1201.79 1421.85 1197.14 1427.65 C 1186.54 1434.94 1178.18 1435.17 1165.76 1435.14 C 1165.46 1417.74 1165.72 1400.29 1165.72 1382.88 z"/>
<path transform="translate(0,0)" fill="rgb(68,68,68)" d="M 858.327 1580.31 C 874.909 1578.68 891.292 1581.02 905.678 1589.83 C 921.884 1599.76 932.876 1616.08 937.264 1634.47 C 941.717 1653.12 937.897 1673.54 927.699 1689.69 C 915.761 1708.6 898.444 1717.58 877.198 1722.35 A 72.5961 72.5961 0 0 1 825.262 1709.86 A 71.8736 71.8736 0 0 1 796.14 1661.87 C 793.315 1643.28 797.449 1623.38 808.734 1608.18 C 820.863 1591.84 838.587 1583.34 858.327 1580.31 z"/>
<path transform="translate(0,0)" fill="rgb(254,254,254)" d="M 864.47 1601.26 C 873.61 1600.21 885.411 1604.09 892.976 1609.04 C 903.789 1616.12 910.823 1627.57 913.338 1640.15 C 916.072 1653.82 913.515 1668.08 905.467 1679.56 C 897.32 1691.17 886.427 1697.18 872.675 1699.44 C 861.514 1700.29 850.837 1698.1 841.501 1691.68 C 830.736 1684.27 824.195 1672.73 821.806 1660.03 C 819.283 1646.62 822.217 1631.85 830.063 1620.65 C 838.559 1608.52 850.421 1603.62 864.47 1601.26 z"/>
<path transform="translate(0,0)" fill="rgb(68,68,68)" d="M 1005.88 263.444 C 1103.97 259.389 1202.86 278.719 1294.51 312.897 A 760.897 760.897 0 0 1 1714.45 706.291 C 1802.99 900.696 1807.93 1106.42 1733.46 1306.03 L 1044.5 1305.77 L 315.352 1305.91 C 287.494 1229.76 268.641 1151.76 265.179 1070.47 C 262.784 1014.25 264.517 958.654 273.038 902.952 A 750.535 750.535 0 0 1 463.159 510.202 A 769.441 769.441 0 0 1 903.188 272.936 C 937.427 267.344 971.281 264.855 1005.88 263.444 z"/>
<path transform="translate(0,0)" fill="rgb(254,254,254)" d="M 1287.86 1023.32 C 1290.12 1023.21 1292.13 1023.18 1294.27 1024.08 C 1298.84 1026.01 1302.27 1030.69 1303.8 1035.29 C 1306.49 1043.43 1306.28 1053.15 1302.17 1060.76 C 1298.89 1066.82 1294.17 1068.82 1287.86 1070.78 C 1282.42 1071.76 1276.89 1072.43 1271.42 1073.23 C 1269.77 1058.08 1269.91 1043.04 1269.95 1027.82 C 1275.93 1025.89 1281.66 1024.35 1287.86 1023.32 z"/>
<path transform="translate(0,0)" fill="rgb(254,254,254)" d="M 746.995 965.492 C 757.808 968.281 780.718 984.16 792.09 990.621 L 941.789 1076.26 C 978.008 1071.22 1265.44 1010.91 1273.35 1013.43 C 1274.51 1015.54 1274.18 1015.21 1273.68 1017.37 A 18311.2 18311.2 0 0 0 940.478 1082.24 C 922.879 1070.88 904.223 1061.13 886.1 1050.63 C 863.879 1037.76 841.998 1024.2 819.514 1011.79 A 2535.98 2535.98 0 0 1 772.92 985.35 C 765.149 980.871 755.827 976.42 748.884 970.799 C 746.768 969.086 747.223 968.111 746.995 965.492 z"/>
<path transform="translate(0,0)" fill="rgb(254,254,254)" d="M 1383.34 833.054 C 1383.87 833.042 1384.4 833.02 1384.93 833.017 C 1389.97 832.988 1393.85 835.216 1397.3 838.743 C 1411.09 852.831 1413.04 881.672 1413.12 900.177 C 1403.14 901.862 1392.84 902.717 1382.75 903.206 C 1375.68 903.579 1367.01 904.42 1360.21 902.12 C 1357.7 901.272 1356.07 899.932 1355.09 897.434 C 1351.42 888.029 1357.45 866.13 1361.28 856.901 C 1365.75 846.106 1372.39 837.61 1383.34 833.054 z"/>
<path transform="translate(0,0)" fill="rgb(254,254,254)" d="M 777.235 1119.33 C 800.057 1133.25 821.599 1149.88 843.564 1165.14 C 871.977 1184.88 901.217 1203.95 928.853 1224.75 C 927.735 1234.73 927.142 1244.78 926.051 1254.78 L 913.939 1246.54 L 750.864 1126.98 C 759.682 1124.35 768.572 1122.57 777.235 1119.33 z"/>
<path transform="translate(0,0)" fill="rgb(254,254,254)" d="M 1385.3 914.574 C 1390.24 914.111 1395.24 913.974 1400.2 913.705 A 4606.95 4606.95 0 0 0 1400.73 990.651 C 1400.93 1005.35 1402.41 1021.44 1400.55 1035.97 C 1400.02 1040.13 1398.77 1043.95 1396.03 1047.19 C 1394.02 1049.56 1391.6 1051.1 1388.67 1052.09 C 1374.99 1056.69 1342.07 1057.59 1325.76 1059.09 C 1322.84 1059.5 1319.06 1060.49 1316.23 1059.5 C 1318.32 1045.8 1317.11 1037.44 1312.53 1024.43 C 1328.1 1023.09 1351.37 1021.64 1362.83 1010.13 C 1366.57 1006.39 1369.03 1001.78 1370.3 996.662 C 1373.99 981.826 1371.96 933.482 1371.99 915.109 C 1376.44 915.071 1380.86 914.839 1385.3 914.574 z"/>
<path transform="translate(0,0)" fill="rgb(254,254,254)" d="M 1300.32 1167.28 L 1301.73 1167.11 C 1310.44 1171.68 1318.7 1183.72 1325.15 1191.27 A 19032.6 19032.6 0 0 0 1078.58 1231.73 L 958.583 1250.77 L 937.225 1254.33 L 940.03 1227.53 C 973.295 1221.21 1006.86 1216.21 1040.28 1210.75 C 1126.96 1196.61 1214.01 1183.46 1300.32 1167.28 z"/>
<path transform="translate(0,0)" fill="rgb(254,254,254)" d="M 1199.9 855.112 L 1200.44 855.835 C 1199.75 857.493 1199.05 858.905 1197.96 860.346 C 1176.07 889.236 1154.76 864.932 1128.53 869.638 C 1096.71 875.348 1127.19 927.384 1115.26 942.425 C 1109.25 950.012 1022.99 979.807 1010.65 981.135 C 1004.05 981.845 996.093 981.288 990.848 976.741 C 988.156 974.407 986.368 971.095 986.564 967.448 C 986.743 964.122 988.638 961.179 991.082 959.032 C 997.665 953.249 1008.26 952.243 1016.62 952.927 C 1020.79 953.269 1026.27 953.767 1029.12 957.189 C 1025.19 965.861 1000.89 959.911 996.043 964.269 L 996.047 967.235 C 996.926 968.845 997.636 970.07 999.191 971.152 C 1004.15 974.602 1012.3 973.59 1017.87 972.651 C 1024.26 971.576 1036.49 968.535 1039.76 962.684 C 1039.97 962.32 1040.07 961.908 1040.23 961.523 C 1040.46 960.975 1040.7 960.434 1040.93 959.886 C 1041.11 959.44 1041.29 958.989 1041.46 958.541 C 1045.58 956.171 1050.38 956.01 1054.98 955.129 C 1057.92 954.567 1059.52 953.953 1061.19 951.46 C 1059.78 949.224 1058.14 948.805 1055.74 948.032 C 1055.33 947.898 1054.91 947.776 1054.49 947.643 C 1049.13 945.926 1043.67 947.924 1038.37 949.228 A 57.5726 57.5726 0 0 0 994.654 945.987 C 987.415 948.439 980.614 953.008 977.27 960.093 C 975.009 964.88 974.578 970.421 976.49 975.396 C 978.73 981.224 983.405 985.146 989.047 987.556 C 997.306 991.085 1006.89 991.749 1015.71 990.534 C 1031.93 988.301 1080.74 968.782 1098.26 961.638 L 1108.16 957.664 L 1109 957.867 L 1110.41 958.223 C 1117.4 959.93 1123.81 962.297 1129.78 966.446 C 1132.89 968.609 1136.15 971.67 1136.61 975.643 C 1137.01 979.04 1135.76 982.307 1133.67 984.946 C 1122.31 999.288 1084.33 1006.24 1066.91 1008.84 C 1021.69 1015.58 924.876 1018.54 888.093 990.091 C 883.521 986.556 879.132 981.373 878.703 975.356 C 878.411 971.272 880.263 967.66 883.041 964.779 C 888.116 959.516 895.774 955.998 902.409 953.111 C 945.193 934.49 1007.92 932.468 1054.59 936.331 C 1067.35 937.387 1079.81 942.812 1092.66 942.186 C 1098.04 941.925 1105.8 940.648 1109.26 935.965 C 1116.32 926.425 1107.24 901.345 1105.76 890.216 C 1104.81 883.089 1104.61 874.998 1109.49 869.151 C 1126.83 848.365 1155.94 870.769 1176.86 869.029 C 1186.99 868.188 1193.58 862.476 1199.9 855.112 z"/>
<path transform="translate(0,0)" fill="rgb(254,254,254)" d="M 782.593 1004.93 C 799.05 1011.46 821.215 1026.92 837.156 1036.17 L 938.206 1094 C 934.827 1129.96 933.322 1166.21 930.618 1202.24 C 930.413 1205.04 930.616 1208.13 928.898 1210.47 C 921.827 1208.05 904.602 1193.88 897.193 1188.54 A 7044.25 7044.25 0 0 0 829.5 1140.14 C 814.663 1129.47 799.968 1117.56 784.066 1108.55 A 5707.58 5707.58 0 0 1 782.593 1004.93 z"/>
<path transform="translate(0,0)" fill="rgb(254,254,254)" d="M 1058.21 894.266 C 1058.9 894.143 1059.31 894.026 1060.05 894.12 C 1066.29 894.92 1097.27 915.465 1100.81 920.635 C 1102.47 923.068 1102.67 924.886 1102.04 927.684 C 1100.72 929.211 1099.57 930.241 1097.69 930.978 C 1091.62 933.362 1081.73 929.358 1075.36 927.957 C 1060.83 924.768 1046.34 923.957 1031.52 923.499 C 996.746 922.426 958.983 924.617 925.292 933.414 C 907.94 937.944 878.828 948.047 869.741 964.803 C 866.826 970.179 866.098 977.006 868.007 982.841 C 871.502 993.524 882.05 1000.59 891.661 1005.41 C 945.356 1032.32 1053.03 1030.28 1109.47 1011.12 C 1122.35 1006.75 1141.19 999.117 1147.22 985.942 C 1149.45 981.057 1149.43 975.334 1147.41 970.374 C 1143.05 959.667 1130.68 954.246 1120.76 949.955 C 1127.11 943.605 1127.92 938.698 1128.13 930.148 C 1153.85 943.353 1178.78 958.032 1204.25 971.722 C 1219.38 979.858 1248.76 993.577 1261.18 1003.5 C 1155.19 1022.4 1049.68 1043.92 943.843 1063.66 C 936.298 1058.45 927.79 1054.29 919.774 1049.8 A 4437.21 4437.21 0 0 1 873.555 1023.72 A 4308.86 4308.86 0 0 0 794.125 978.027 C 778.719 969.336 763.549 960.285 747.465 952.885 C 774.245 946.268 802.348 943.284 829.482 938.044 L 1058.21 894.266 z"/>
<path transform="translate(0,0)" fill="rgb(254,254,254)" d="M 1252.66 1033.24 L 1255.46 1032.98 C 1258.06 1036.17 1257.36 1041.47 1257.31 1045.47 C 1257.06 1063.89 1259.8 1083.21 1264.89 1100.91 C 1270.99 1122.13 1280.74 1140.51 1294.64 1157.59 A 11284.2 11284.2 0 0 0 977.215 1209.87 C 965.139 1212.27 953.046 1214.98 940.826 1216.52 C 942.73 1174.86 947.826 1133.26 950.176 1091.6 L 1252.66 1033.24 z"/>
<path transform="translate(0,0)" fill="rgb(68,68,68)" d="M 1192.48 1074.27 C 1200.55 1073.76 1209.35 1074.7 1216.65 1078.33 C 1223.66 1081.81 1229.19 1087.75 1231.62 1095.24 C 1234.08 1102.81 1233.03 1110.88 1229.27 1117.83 C 1223.25 1128.98 1213.38 1133.83 1201.73 1137.05 C 1190.57 1137.92 1180.02 1137.08 1170.55 1130.47 C 1164.12 1125.98 1159.39 1119.47 1158.09 1111.65 A 29.7591 29.7591 0 0 1 1163.47 1089.49 C 1170.47 1079.79 1181.1 1075.91 1192.48 1074.27 z"/>
<path transform="translate(0,0)" fill="rgb(254,254,254)" d="M 966.665 390.57 C 971.054 395.675 993.4 450.315 998.832 461.473 A 579.335 579.335 0 0 0 1085.16 592.601 C 1138.75 653.535 1206.62 705.035 1274.25 749.504 C 1296.58 764.181 1321.44 775.445 1343.18 790.709 C 1354.5 798.658 1364.4 808.76 1374.39 818.274 C 1358.53 824.728 1351.34 836.08 1342.81 850.114 C 1331.34 846.079 1320.45 840.806 1308.75 837.311 C 1250.55 819.933 1164.7 810.244 1103.72 808.663 C 1004.41 804.846 924.202 814.809 830.727 849.297 C 810.994 856.577 791.651 865.048 772.22 873.094 C 760.383 877.995 748.35 883.53 735.87 886.564 C 735.448 886.666 735.025 886.759 734.602 886.856 C 784.071 860.388 827.279 820.87 861.353 776.413 C 946.818 664.905 984.988 530.243 966.665 390.57 z"/>
<path transform="translate(0,0)" fill="rgb(68,68,68)" d="M 1334.26 807.967 C 1342.73 808.38 1349.13 813.226 1356.19 817.49 C 1346.93 818.002 1338.97 819.363 1331.13 824.6 C 1329.25 826.697 1326.87 829.897 1324.44 831.23 C 1322.51 832.285 1321.87 831.854 1319.95 831.222 C 1318.44 827.642 1318.82 825.313 1320.18 821.709 C 1322.98 814.285 1327.25 811.135 1334.26 807.967 z"/>
<path transform="translate(0,0)" fill="rgb(254,254,254)" d="M 900.394 325.384 C 902.72 325.335 904.877 325.36 907.183 325.726 C 919.761 327.721 929.555 333.663 936.894 344.108 C 968.991 389.788 962.688 490.356 952.978 543.773 C 930.778 665.907 863.243 788.455 759.398 859.758 C 737.066 875.092 705.978 892.966 677.851 887.693 C 671.984 886.249 665.954 883.29 661.027 879.83 C 645.636 869.024 637.239 850.191 634.116 832.13 C 629.905 807.775 633.454 775.895 648.086 755.34 C 629.868 729.282 625.771 692.295 630.79 661.54 C 637.842 618.33 658.571 587.116 693.57 561.834 C 694.075 517.864 701.414 479.29 730.438 444.467 C 749.82 421.212 773.92 408.48 803.954 405.787 C 810.201 392.802 817.416 380.519 826.489 369.286 C 845.492 345.759 869.892 328.648 900.394 325.384 z"/>
<path transform="translate(0,0)" fill="rgb(68,68,68)" d="M 817.804 433.648 C 818.116 433.709 818.436 433.739 818.741 433.831 C 822.075 434.839 849.94 479.048 854.761 486.26 L 897.682 550.184 C 904.815 560.774 914.671 572.641 919.54 584.385 C 918.754 587.041 915.952 588.437 913.803 589.977 C 911.66 588.936 816.071 448.414 812.422 438.676 C 813.355 435.733 815.251 435.271 817.804 433.648 z"/>
<path transform="translate(0,0)" fill="rgb(68,68,68)" d="M 716.102 565.827 C 756.291 583.188 797.313 599.038 837.941 615.367 C 856.454 622.807 876.871 629.303 894.384 638.67 C 896.477 639.79 896.807 640.185 897.858 642.222 C 897.441 644.479 896.863 645.938 895.709 647.92 C 855.095 632.696 815.108 615.985 774.838 599.896 C 758.186 593.243 725.528 582.397 712.369 573.482 C 712.636 570.211 714.305 568.53 716.102 565.827 z"/>
<path transform="translate(0,0)" fill="rgb(68,68,68)" d="M 872.947 691.237 C 874.26 691.699 874.804 692.522 875.246 693.911 C 876.012 696.323 875.909 697.263 874.734 699.282 C 858.068 706.037 839.567 708.026 822.144 712.204 C 774.311 723.671 726.224 733.864 678.311 744.953 C 676.725 742.73 675.823 738.754 674.895 736.11 C 740.726 720.397 807.119 707.032 872.947 691.237 z"/>
</svg>