<svg version="1.1" xmlns="http://www.w3.org/2000/svg" style="display: block;" viewBox="0 0 2048 2048" width="1024" height="1024">
<path transform="translate(0,0)" fill="rgb(254,254,254)" d="M 0 0 L 2048 0 L 2048 2048 L 0 2048 L 0 0 z"/>
<path transform="translate(0,0)" fill="rgb(65,64,64)" d="M 348.658 1696.02 C 392.766 1694.83 437.139 1695.37 481.288 1694.89 C 497.805 1694.71 514.577 1695.44 531.046 1694.25 C 562.838 1718.87 598.091 1739.8 633.518 1758.71 A 822.24 822.24 0 0 0 1129.73 1850.33 A 814.004 814.004 0 0 0 1448.84 1740.26 C 1471.96 1726.45 1493.16 1710.76 1515.54 1696.02 C 1526.7 1695.97 1581.89 1694.08 1587.8 1696.95 C 1581.76 1710.2 1577.19 1724.41 1571.78 1737.97 C 1563.48 1758.77 1554.55 1779.31 1546.64 1800.28 C 1512.41 1798.71 1478.14 1795.61 1443.97 1793.09 L 1384.51 1888.67 A 3094.33 3094.33 0 0 1 1281.68 1862.67 C 1275.79 1870.78 1268.67 1878.15 1262.02 1885.64 C 1244.94 1904.88 1226.54 1923.73 1210.61 1943.92 C 1191.13 1933.89 1171.18 1924.81 1151.45 1915.28 C 1138.05 1908.8 1124.94 1901.58 1111.27 1895.7 C 1096.77 1907.81 1081.31 1918.84 1066.38 1930.42 C 1052.16 1941.46 1038.24 1953.47 1023.29 1963.48 C 1010.83 1953.18 997.505 1943.76 984.701 1933.87 C 968.265 1921.18 952.135 1907.95 935.201 1895.93 C 926.003 1900.53 917.125 1905.92 907.993 1910.68 A 5158.45 5158.45 0 0 0 839.353 1946.4 C 814.619 1918.2 789.573 1890.14 765.185 1861.65 C 733.851 1873.46 695.378 1880.38 662.531 1889.99 C 645.2 1857.8 626.048 1825.52 606.427 1794.67 C 570.857 1796.44 535.165 1800.96 499.55 1801.06 C 486.378 1767.05 472.302 1733.28 460.472 1698.77 C 446.889 1698.56 356.082 1700.21 351.594 1698.06 C 350.519 1697.55 349.636 1696.7 348.658 1696.02 z"/>
<path transform="translate(0,0)" fill="rgb(65,64,64)" d="M 1023.21 83.9939 C 1053.38 105.491 1082.18 129.206 1111.02 152.451 C 1144.34 136.635 1176.96 118.921 1210.57 103.846 L 1282.01 187.099 C 1315.84 176.722 1350.47 165.988 1384.91 157.815 C 1405.03 189.165 1423.22 221.959 1441.81 254.245 L 1545.87 245.876 C 1558.2 278.56 1578.95 317.751 1587.04 350.765 C 1621.62 354.943 1656.71 358.861 1690.93 365.363 C 1697.06 400.631 1705.6 436.326 1709.24 471.914 C 1727.63 477.153 1745.65 483.929 1763.7 490.216 C 1777.84 495.138 1792.29 499.589 1806.22 505.07 L 1801.89 615.353 C 1832.35 630.502 1860.8 649.668 1891.22 664.579 C 1882.4 700.694 1872.81 736.849 1864.98 773.179 C 1892.84 795.532 1919.41 819.429 1947.27 841.751 C 1930.33 872.41 1913.78 903.839 1898.41 935.309 C 1920.12 965.908 1944.86 994.469 1966.95 1024.9 C 1945.12 1054.9 1921.17 1083.84 1898.55 1113.3 C 1914.92 1143.13 1930.09 1180.02 1944.32 1211.43 C 1917.35 1234.41 1888.68 1257 1863.51 1281.9 C 1869.82 1304.15 1874.24 1327.16 1879.58 1349.67 C 1855.47 1346.94 1821.68 1348.94 1796.56 1348.98 A 832.346 832.346 0 0 0 1803.95 731.038 A 848.638 848.638 0 0 0 1351.94 258.058 A 821.972 821.972 0 0 0 719.11 248.402 A 849.581 849.581 0 0 0 257.827 696.676 C 165.962 910.388 167.721 1134.71 253.437 1349.83 C 234.237 1348.96 215.01 1349.37 195.797 1349.49 C 186.256 1349.55 175.616 1350.51 166.208 1349 A 5387.93 5387.93 0 0 1 185.179 1282.45 C 158.827 1258.13 130.884 1235.36 103.91 1211.72 A 3550.52 3550.52 0 0 1 150.925 1112.65 C 128.567 1083.2 103.39 1055.12 82.3355 1024.8 C 95.1179 1006.54 108.912 989 122.396 971.256 C 131.628 959.108 140.527 946.373 150.381 934.736 C 134.77 902.063 118.367 869.772 103 836.984 L 183.331 766.984 L 157.093 664.65 C 187.583 646.529 219.006 629.992 249.282 611.533 C 245.81 576.461 242.367 540.902 240.669 505.704 C 274.113 491.737 309.546 482.152 343.566 469.629 C 347.255 434.656 352.315 399.81 356.538 364.896 C 391.824 358.292 428.002 354.616 463.595 349.76 C 470.244 328.726 477.981 308.055 485.52 287.327 C 490.442 273.793 494.975 259.891 500.526 246.612 C 535.96 247.743 571.365 249.961 606.814 251.07 C 623.18 219.627 643.605 189.94 661.568 159.363 C 695.951 168.609 731.152 176.71 765.02 187.668 C 787.785 158.524 816.92 131.761 838.359 102.262 L 909.786 138.69 C 918.859 143.286 928.35 147.264 937.238 152.186 C 948.418 141.736 961.076 132.684 973.154 123.292 L 1023.21 83.9939 z"/>
<path transform="translate(0,0)" fill="rgb(212,66,63)" d="M 253.437 1349.83 C 167.721 1134.71 165.962 910.388 257.827 696.676 A 849.581 849.581 0 0 1 719.11 248.402 A 821.972 821.972 0 0 1 1351.94 258.058 A 848.638 848.638 0 0 1 1803.95 731.038 A 832.346 832.346 0 0 1 1796.56 1348.98 C 1821.68 1348.94 1855.47 1346.94 1879.58 1349.67 C 1885.59 1352.13 1890.43 1355.39 1893.2 1361.51 C 1894.6 1364.6 1895.35 1369.04 1894.14 1372.29 C 1889.64 1384.45 1877.65 1400.66 1870.61 1412.23 A 4122.4 4122.4 0 0 0 1830.45 1479.01 C 1822.21 1492.74 1813.49 1506.23 1806.13 1520.47 C 1826.27 1552.72 1845.51 1585.62 1865.27 1618.11 C 1874.61 1633.45 1886.36 1648.97 1893.98 1665.13 C 1896.26 1669.98 1897.81 1675.31 1896.65 1680.67 C 1895.77 1684.76 1892.86 1689.82 1889.1 1691.86 C 1877.6 1698.08 1812.74 1695.4 1796.96 1695.4 L 1658.81 1695.54 C 1637.01 1695.61 1614.72 1694.61 1592.99 1695.7 C 1591.18 1695.8 1589.17 1695.7 1587.8 1696.95 C 1581.89 1694.08 1526.7 1695.97 1515.54 1696.02 C 1493.16 1710.76 1471.96 1726.45 1448.84 1740.26 A 814.004 814.004 0 0 1 1129.73 1850.33 A 822.24 822.24 0 0 1 633.518 1758.71 C 598.091 1739.8 562.838 1718.87 531.046 1694.25 C 514.577 1695.44 497.805 1694.71 481.288 1694.89 C 437.139 1695.37 392.766 1694.83 348.658 1696.02 C 342.604 1692.59 192.464 1698.02 169.287 1695.58 C 165.86 1695.21 162.653 1694.44 159.67 1692.66 C 155.716 1690.29 152.76 1686.61 151.674 1682.09 C 150.537 1677.36 151.505 1673.65 153.425 1669.33 C 160.834 1652.65 173.158 1636.31 182.859 1620.8 A 6232.13 6232.13 0 0 0 242.075 1524.69 C 220.242 1484 195.507 1444.96 173.09 1404.61 C 167.176 1393.96 159.409 1383.56 154.514 1372.46 C 153.039 1369.11 152.861 1365.75 153.623 1362.17 C 154.869 1356.32 161.418 1351.9 166.208 1349 C 175.616 1350.51 186.256 1349.55 195.797 1349.49 C 215.01 1349.37 234.237 1348.96 253.437 1349.83 z"/>
<path transform="translate(0,0)" fill="rgb(254,254,254)" d="M 734.907 1693.49 C 744.304 1693.82 764.081 1704.52 774.29 1708.31 C 788.218 1713.48 802.353 1718.5 816.576 1722.81 C 889.226 1744.78 960.763 1753.8 1036.56 1753.08 A 706.337 706.337 0 0 0 1209.84 1729.38 A 653.998 653.998 0 0 0 1276.07 1707.71 C 1284.95 1704.34 1294.14 1698.11 1303.44 1696.36 C 1313.88 1694.4 1325.65 1695.83 1336.23 1696.23 C 1327.49 1699.27 1319 1703.27 1310.5 1706.93 A 865.232 865.232 0 0 1 1241.27 1732.34 A 719.687 719.687 0 0 1 815.308 1735.01 C 779.627 1724.29 743.843 1711.06 710.732 1693.88 A 1772.17 1772.17 0 0 0 734.907 1693.49 z"/>
<path transform="translate(0,0)" fill="rgb(65,64,64)" d="M 799.227 1696.26 C 825.4 1694.7 852.279 1695.86 878.525 1695.88 L 1024.23 1695.91 L 1169.67 1696.13 C 1197.79 1696.14 1226.52 1694.83 1254.55 1696.7 A 1433.12 1433.12 0 0 0 1223.29 1704.98 C 1180.77 1716.24 1138.47 1725.97 1094.72 1731.13 A 656.632 656.632 0 0 1 799.227 1696.26 z"/>
<path transform="translate(0,0)" fill="rgb(65,64,64)" d="M 583.804 1694.23 C 600.84 1694.79 617.976 1694.69 635.022 1694.57 C 646.016 1694.48 658.327 1693.32 669.089 1695.34 C 680.262 1697.44 692.59 1706.26 702.968 1711.21 C 718.063 1718.41 733.481 1725.46 749.119 1731.39 C 844.492 1767.62 938.394 1784.02 1040.39 1782.93 C 1131.06 1781.95 1222.67 1761.28 1307.01 1728.68 C 1319.97 1723.67 1332.89 1717.79 1345.34 1711.64 C 1355.35 1706.69 1366.25 1698.87 1377.11 1696.58 C 1387.52 1694.39 1399.76 1695.63 1410.41 1695.68 L 1464.88 1695.97 C 1456.09 1701.81 1446.64 1706.86 1437.51 1712.16 C 1329.09 1775.96 1225.25 1810.66 1099.99 1823.91 A 786.51 786.51 0 0 1 661.224 1740 C 639.019 1728.64 602.63 1709.48 583.804 1694.23 z"/>
<path transform="translate(0,0)" fill="rgb(254,254,254)" d="M 1001.6 281.43 C 1102.03 275.744 1220.22 300.66 1312.28 340.268 A 760.817 760.817 0 0 1 1716.78 758.828 A 731.814 731.814 0 0 1 1741.14 1218.71 C 1728.32 1265.33 1712.15 1305.23 1693.1 1349.29 L 1678.54 1349.28 C 1725.47 1260.05 1751.95 1139.76 1753.63 1039.27 A 728.337 728.337 0 0 0 1545.26 515.961 A 731.688 731.688 0 0 0 1126.4 302.318 C 1099.58 298.435 1072.49 295.277 1045.37 294.867 A 716.864 716.864 0 0 0 689.561 377.119 A 735.574 735.574 0 0 0 327.108 809.947 C 271.907 984.383 286.651 1187.36 371.348 1350.09 L 357.266 1350.16 C 315.961 1262.08 289.349 1169.98 283.614 1072.54 A 741.598 741.598 0 0 1 471.67 530.063 A 753.864 753.864 0 0 1 881.216 295.117 C 921.135 287.173 961.03 283.818 1001.6 281.43 z"/>
<path transform="translate(0,0)" fill="rgb(65,64,64)" d="M 988.52 220.427 A 824.444 824.444 0 0 1 1295.91 267.288 A 810.596 810.596 0 0 1 1752.59 687.107 A 799.645 799.645 0 0 1 1804.94 1220.36 A 925.921 925.921 0 0 1 1781.6 1299.52 C 1775.73 1316.12 1768.92 1332.38 1762.9 1348.92 L 1711.86 1348.72 C 1721.5 1330.75 1728.93 1310.84 1735.92 1291.72 A 757.963 757.963 0 0 0 1782.25 1067.88 A 756.114 756.114 0 0 0 1588.54 519.051 C 1450.38 363.793 1261.99 276.277 1055.27 264.197 C 931.689 261.959 833.327 279.179 719.342 328.183 C 682.689 343.94 647.491 363.846 614.081 385.597 A 765.881 765.881 0 0 0 317.709 745.441 A 760.085 760.085 0 0 0 297.579 1247.87 C 308.253 1282.94 322.404 1315.92 336.87 1349.51 A 4099.66 4099.66 0 0 0 287.473 1349.78 A 825.185 825.185 0 0 1 220.861 1063.45 A 802.598 802.598 0 0 1 431.397 483.357 A 804.99 804.99 0 0 1 988.52 220.427 z"/>
<path transform="translate(0,0)" fill="rgb(254,254,254)" d="M 271.871 1385.49 L 1260.02 1385.39 L 1625.87 1385.51 C 1699.7 1385.43 1773.89 1383.83 1847.68 1385.85 C 1835.01 1406.39 1823.01 1427.44 1810.58 1448.14 C 1799.55 1466.52 1774.46 1503.33 1769.51 1521.92 C 1773.9 1538.01 1786.88 1553.63 1795.44 1567.9 C 1813.77 1598.46 1831.79 1629.02 1850.74 1659.21 L 1781.5 1659.79 L 198.1 1659.83 L 244.947 1582.02 C 253.889 1567.35 273.462 1541.79 277.302 1526.33 C 278.403 1521.9 275.958 1517.28 274.058 1513.36 C 267.373 1499.57 258.041 1486.58 250.32 1473.3 A 8548.8 8548.8 0 0 0 199.574 1385.91 L 271.871 1385.49 z"/>
<path transform="translate(0,0)" fill="rgb(212,66,63)" d="M 1446.93 1481.24 C 1448.43 1481.14 1449.97 1480.99 1451.48 1481.09 C 1454.03 1481.25 1456.26 1481.67 1458.02 1483.62 C 1457.74 1489.44 1453.85 1494.49 1452.66 1500.07 C 1451.9 1503.68 1452.63 1508.57 1450.82 1511.71 C 1450.19 1511.39 1449.56 1511.08 1448.95 1510.73 C 1447.19 1509.7 1445.86 1508.64 1443.76 1508.41 C 1438.23 1507.82 1432.34 1511.77 1428.63 1515.48 C 1419.01 1525.1 1422.77 1560.48 1422.85 1573.88 L 1393.27 1573.86 L 1392.45 1573.15 C 1390.33 1564.39 1391.95 1552.54 1391.96 1543.41 L 1392 1482.15 L 1420.78 1481.98 L 1421.12 1496.93 C 1429.64 1488.16 1434.52 1483.48 1446.93 1481.24 z"/>
<path transform="translate(0,0)" fill="rgb(212,66,63)" d="M 1239.38 1480.4 C 1245.9 1480.48 1251.7 1482.21 1257.81 1484.22 L 1258.09 1517.1 C 1254.9 1513.31 1251.14 1509.46 1246.13 1508.33 C 1241 1507.18 1234.54 1508.7 1230.15 1511.49 C 1225.61 1514.37 1222.55 1518.8 1221.54 1524.09 A 22.444 22.444 0 0 0 1225.39 1541.42 C 1228.48 1545.67 1233.28 1548.63 1238.55 1549.11 C 1246.58 1549.84 1252.22 1545.77 1258 1540.78 L 1257.99 1571.54 C 1254.02 1573.88 1249.65 1574.82 1245.12 1575.39 C 1231.66 1577.08 1216.59 1573.9 1205.9 1565.36 C 1196.52 1557.86 1191.26 1546.91 1190.04 1535.07 C 1188.64 1521.41 1191.74 1507.06 1200.97 1496.56 C 1211.11 1485.03 1224.75 1481.45 1239.38 1480.4 z"/>
<path transform="translate(0,0)" fill="rgb(212,66,63)" d="M 750.078 1433.84 L 781.342 1433.8 C 781.576 1480.48 780.731 1527.17 781.777 1573.85 L 750.207 1573.93 L 750.078 1433.84 z"/>
<path transform="translate(0,0)" fill="rgb(212,66,63)" d="M 1124.49 1480.19 C 1126.06 1480.01 1127.61 1479.9 1129.18 1479.84 C 1143.03 1479.35 1156.96 1482.77 1167.23 1492.62 C 1179.74 1504.62 1180.93 1520.04 1181.33 1536.28 C 1159.73 1536.82 1138.09 1535.4 1116.46 1536.17 C 1115.41 1538.33 1115.55 1540.04 1116.15 1542.34 C 1116.9 1545.17 1119.29 1547.54 1121.72 1549.03 C 1127.61 1552.62 1135.25 1553.5 1141.88 1551.82 C 1147.26 1550.46 1152.42 1547.54 1155.21 1542.6 C 1155.52 1542.04 1155.81 1541.48 1156.11 1540.92 C 1160.77 1541.86 1165.21 1543.28 1169.73 1544.71 C 1173.25 1546.06 1176.59 1547.9 1179.95 1549.59 C 1172.55 1561.55 1162.84 1570.2 1149.07 1573.94 C 1134.29 1577.96 1116.93 1576.45 1103.87 1568.28 C 1093.4 1561.73 1086.44 1551.93 1083.77 1539.87 C 1080.78 1526.34 1082.84 1511.96 1090.56 1500.33 C 1098.79 1487.94 1110.45 1482.95 1124.49 1480.19 z"/>
<path transform="translate(0,0)" fill="rgb(254,254,254)" d="M 1128.94 1502.09 C 1131.8 1501.88 1135.35 1501.69 1138.13 1502.49 C 1141.56 1503.48 1147.71 1507.88 1149.07 1511.28 C 1150.11 1513.88 1149.75 1514.52 1148.72 1516.89 C 1145.86 1518.95 1142.59 1518.33 1139.25 1518.2 L 1115.44 1518.17 C 1118.65 1510.51 1121.66 1506.33 1128.94 1502.09 z"/>
<path transform="translate(0,0)" fill="rgb(212,66,63)" d="M 677.495 1480.35 C 690.62 1480.21 704.406 1483.03 715.002 1491.17 C 725.029 1498.86 730.795 1510.76 732.046 1523.21 C 733.326 1535.94 729.672 1548.78 721.215 1558.48 C 711.027 1570.17 697.207 1574.48 682.249 1575.52 C 669.314 1576.57 655.024 1573.39 644.844 1565.16 C 635.288 1557.42 630.14 1546.22 628.774 1534.16 C 627.326 1521.39 629.776 1508.63 638.155 1498.58 C 648.226 1486.49 662.442 1481.86 677.495 1480.35 z"/>
<path transform="translate(0,0)" fill="rgb(254,254,254)" d="M 678.649 1505.22 C 681.485 1505.32 684.462 1505.71 687.128 1506.75 C 692.155 1508.7 696.312 1513.02 698.328 1517.98 A 24.4691 24.4691 0 0 1 697.615 1537.81 C 694.218 1544.82 689.273 1547.78 682.092 1550.1 C 678.272 1550.07 674.893 1549.83 671.412 1548.11 C 665.875 1545.35 662.088 1540.17 660.526 1534.25 C 658.773 1527.61 659.803 1520.13 663.516 1514.33 C 667.274 1508.47 672.027 1506.47 678.649 1505.22 z"/>
<path transform="translate(0,0)" fill="rgb(212,66,63)" d="M 1316.57 1480.37 C 1328.99 1478.68 1343.82 1482.12 1353.99 1489.27 A 47.1168 47.1168 0 0 1 1373.56 1520.68 A 48.7195 48.7195 0 0 1 1364.76 1556.79 C 1355.78 1568.93 1343.43 1573.66 1329.11 1575.97 C 1314.23 1576.87 1299.82 1574.82 1287.56 1565.59 A 46.5494 46.5494 0 0 1 1269.15 1533.45 A 46.72 46.72 0 0 1 1279.74 1498.48 C 1289.27 1486.98 1302.13 1481.93 1316.57 1480.37 z"/>
<path transform="translate(0,0)" fill="rgb(254,254,254)" d="M 1316.25 1507.19 C 1319.82 1506.87 1323.5 1506.49 1327.02 1507.38 C 1332.41 1508.75 1337.2 1513.17 1339.66 1518.07 C 1342.32 1523.39 1342.77 1529.95 1340.76 1535.56 C 1338.28 1542.47 1333.51 1545.89 1327.09 1548.84 C 1323.92 1549.18 1320.65 1549.4 1317.5 1548.79 C 1312.01 1547.73 1306.8 1543.93 1304.01 1539.11 A 21.3722 21.3722 0 0 1 1302.22 1521.82 C 1304.66 1514.1 1309.29 1510.68 1316.25 1507.19 z"/>
<path transform="translate(0,0)" fill="rgb(212,66,63)" d="M 1526.56 1434.31 L 1561.78 1434.22 A 9342.96 9342.96 0 0 0 1561.15 1575.52 L 1528.33 1575.9 L 1527.92 1562.94 C 1525.22 1565.52 1522.38 1568.23 1519.32 1570.37 C 1511.42 1575.88 1503.64 1577.61 1494.19 1576.04 C 1487.71 1574.24 1481.79 1572.13 1476.46 1567.83 C 1465.64 1559.09 1461.47 1546.06 1460.38 1532.67 C 1459.21 1518.36 1461.74 1503.38 1471.63 1492.36 C 1478.07 1485.18 1486.92 1480.65 1496.63 1480.3 C 1508.82 1479.88 1517.94 1485.39 1526.68 1493.17 L 1526.56 1434.31 z"/>
<path transform="translate(0,0)" fill="rgb(254,254,254)" d="M 1505.79 1506.16 C 1509.01 1505.79 1512.35 1505.36 1515.54 1506.21 C 1520.49 1507.53 1524.58 1511.38 1526.86 1515.89 C 1530.11 1522.3 1530.09 1530.58 1527.51 1537.2 C 1524.97 1543.71 1521.16 1547.04 1514.94 1549.9 C 1512.37 1550.02 1509.54 1550.1 1507.01 1549.6 C 1502.13 1548.62 1497.53 1544.8 1495.06 1540.58 C 1491.68 1534.81 1491.24 1527.49 1493.13 1521.15 C 1495.31 1513.8 1499.28 1509.86 1505.79 1506.16 z"/>
<path transform="translate(0,0)" fill="rgb(212,66,63)" d="M 869.727 1433.53 L 903.041 1433.23 C 902.49 1479.93 903.504 1526.68 903.194 1573.39 C 894.727 1573.35 877.739 1576.5 870.538 1572.36 C 868.025 1570.92 868.12 1569.09 867.557 1566.51 C 855.172 1567.56 855.219 1577.79 831.72 1574.85 C 827.191 1573.62 822.911 1571.74 819.065 1569.02 C 808.906 1561.85 802.847 1550.98 800.649 1538.87 C 798.12 1524.94 800.023 1510.63 808.375 1498.87 C 815.135 1489.36 825.386 1482.15 837.085 1480.53 C 849.799 1478.76 859.46 1483.91 869.222 1491.3 C 869.951 1472.1 868.243 1452.65 869.727 1433.53 z"/>
<path transform="translate(0,0)" fill="rgb(254,254,254)" d="M 847.076 1506.19 C 851.841 1505.95 855.913 1505.74 860.212 1508.09 C 865.121 1510.78 868.786 1515.65 870.37 1520.97 C 872.166 1527 871.663 1533.86 868.578 1539.39 C 865.446 1545 861.52 1547.37 855.451 1548.95 C 851.743 1549.03 847.794 1548.48 844.35 1547.06 A 20.2186 20.2186 0 0 1 833.216 1535.8 A 22.8242 22.8242 0 0 1 833.532 1518.28 C 836.345 1511.8 840.767 1508.84 847.076 1506.19 z"/>
<path transform="translate(0,0)" fill="rgb(212,66,63)" d="M 535.585 1439.12 C 545.38 1438.49 554.463 1438.5 564.062 1440.81 C 582.627 1445.27 594.557 1455.31 604.488 1471.3 C 594.7 1477.43 583.591 1481.1 572.867 1485.23 C 569.73 1480.9 566.504 1476.73 561.964 1473.78 C 554.931 1469.21 547.132 1467.89 538.953 1469.61 C 529.293 1471.64 520.755 1477.27 515.453 1485.64 C 509.292 1495.37 507.453 1508.33 510.109 1519.48 C 512.213 1528.31 517.274 1535.7 525.137 1540.35 C 533.471 1545.28 544.764 1547.29 554.188 1544.79 C 564.944 1541.95 570.654 1534.61 575.883 1525.46 C 566.076 1525.38 556.195 1525.95 546.388 1526.24 C 545.506 1516.83 545.041 1507.63 545.034 1498.18 C 550.418 1498.36 555.859 1498.23 561.25 1498.24 C 578.275 1497.94 595.341 1498.15 612.371 1498.12 C 612.339 1514.5 611.031 1528.93 602.455 1543.27 C 593.651 1558 578.865 1569.42 562.141 1573.56 C 543.517 1578.17 520.342 1575.88 503.95 1565.54 C 489.214 1556.25 480.295 1541.72 476.629 1524.89 A 73.5366 73.5366 0 0 1 486.69 1469.14 C 498.081 1451.71 515.766 1443.27 535.585 1439.12 z"/>
<path transform="translate(0,0)" fill="rgb(212,66,63)" d="M 972.695 1440.8 C 993.732 1440.71 1032.48 1437.49 1050.69 1445.4 C 1058.99 1449 1065.94 1455.03 1069.19 1463.63 C 1072.96 1473.58 1072.29 1487.85 1067.65 1497.34 C 1062.27 1508.35 1052.76 1512.68 1041.86 1516.52 C 1056.53 1534.86 1068.37 1555.45 1083.15 1573.83 L 1057.44 1573.85 C 1052.26 1573.91 1047.16 1573.63 1042 1573.3 C 1031.41 1554.82 1018.27 1537.57 1006.87 1519.53 C 1007.41 1537.58 1007.06 1555.72 1007.07 1573.78 L 972.934 1573.84 L 972.695 1440.8 z"/>
<path transform="translate(0,0)" fill="rgb(254,254,254)" d="M 1007.94 1467.99 C 1015.73 1467.84 1022.64 1467.16 1029.8 1470.8 C 1032.73 1472.29 1035.14 1474.46 1035.97 1477.78 C 1037.21 1482.75 1034.72 1488.29 1032 1492.32 C 1024.25 1497.11 1016.72 1496.74 1007.9 1497.02 C 1008.08 1487.35 1007.95 1477.66 1007.94 1467.99 z"/>
<path transform="translate(0,0)" fill="rgb(65,64,64)" d="M 996.981 312.429 A 708.703 708.703 0 0 1 1333.73 384.4 A 724.141 724.141 0 0 1 1698.51 798.1 A 722.894 722.894 0 0 1 1659.46 1348.65 C 1456.81 1346.36 1253.92 1347.99 1051.25 1348.69 L 394.492 1349.06 C 344.699 1254.2 321.128 1167.89 313.596 1061 C 301.376 887.57 367.774 696.283 481.713 565.397 C 594.721 435.581 742.91 349.489 913.217 321.239 C 940.952 316.639 968.957 314.35 996.981 312.429 z"/>
<path transform="translate(0,0)" fill="rgb(254,254,254)" d="M 998.771 749.367 C 1002.47 749.161 1009.01 748.09 1011.98 750.776 C 1018.51 756.682 1017.3 796.754 1016.5 806.641 C 1011.2 804.361 1003.94 804.658 999.376 801.987 C 997.724 790.902 996.236 759.244 998.771 749.367 z"/>
<path transform="translate(0,0)" fill="rgb(254,254,254)" d="M 648.857 913.391 C 653.499 914.339 655.996 919.296 661.02 920.113 C 666.081 920.935 669.655 919.49 673.724 916.628 C 674.408 916.146 675.074 915.636 675.772 915.173 C 680.971 911.725 690.824 913.93 696.662 915.223 C 702.583 916.535 711.511 918.398 714.936 923.72 L 713.933 925.808 C 707.711 930.192 700.565 932.099 693.245 933.77 C 676.58 936.272 637.869 937.401 623.657 928.492 C 621.88 927.378 621.785 926.899 621.276 924.998 C 621.717 923.875 621.708 923.707 622.554 922.612 C 627.608 916.071 641.173 914.603 648.857 913.391 z"/>
<path transform="translate(0,0)" fill="rgb(254,254,254)" d="M 606.711 748.695 C 613.562 750.819 620.539 752.575 627.468 754.428 C 640.14 803.865 654.942 852.959 666.021 902.768 C 662.477 903.089 658.952 903.722 655.434 904.259 C 650.648 886.241 644.298 868.445 638.625 850.677 A 4051.5 4051.5 0 0 1 606.711 748.695 z"/>
<path transform="translate(0,0)" fill="rgb(254,254,254)" d="M 672.846 892.473 C 701.396 892.467 729.896 893.136 758.46 892.787 C 789.876 892.402 821.815 890.951 853.192 892.766 C 854.676 904.068 856.403 915.11 859.031 926.211 C 861.177 935.249 864.128 944.164 866.784 953.067 C 787.027 954.731 706.939 953.072 627.141 953.207 L 568.876 953.089 C 555.53 953.055 541.937 952.502 528.698 954.379 A 2932.04 2932.04 0 0 0 572.979 892.882 C 595.497 891.974 618.129 892.972 640.675 892.476 L 642.947 892.955 C 645.368 896.587 646.275 901.802 647.485 905.992 C 637.748 907.745 616.219 911.134 611.018 920.327 C 609.793 922.492 609.391 924.305 610.379 926.694 C 612.695 932.294 622.402 936.393 627.785 938.446 C 649.172 946.6 692.379 946.065 713.118 935.766 C 717.717 933.482 723.845 929.367 725.055 923.968 C 725.623 921.434 724.81 919.494 723.246 917.535 C 715.468 907.796 685.416 905.271 673.903 904.562 C 673.312 900.578 673.15 896.49 672.846 892.473 z"/>
<path transform="translate(0,0)" fill="rgb(254,254,254)" d="M 595.652 671.397 C 683.55 714.881 773.816 753.672 861.82 796.985 C 874.502 793.365 886.832 787.777 899.06 782.844 C 925.93 772.004 952.806 760.176 980.072 750.41 C 983.268 749.265 985.379 748.574 988.543 750.065 C 990.953 763.789 989.183 780.16 989.312 794.244 C 991.117 807.953 983.108 808.763 976.899 819.658 L 976.174 820.946 C 972.227 820.951 968.041 820.807 964.149 821.506 C 960.493 822.163 953.974 824.814 950.494 824.054 C 943.557 822.54 932.267 809.526 923.367 806.174 C 918.953 804.512 913.739 803.949 909.138 805.135 C 902.518 806.841 898.703 813.546 892.32 815.64 C 880.763 819.433 868.741 818.308 857.31 823.577 C 821.134 812.6 785.322 798.783 749.48 786.622 A 6486.12 6486.12 0 0 0 597.796 737.616 A 1593.62 1593.62 0 0 0 595.652 671.397 z"/>
<path transform="translate(0,0)" fill="rgb(254,254,254)" d="M 1204.67 710.426 C 1204.86 710.409 1205.05 710.383 1205.24 710.375 A 128.104 128.104 0 0 1 1292.39 740.536 C 1316.95 761.621 1331.34 792.146 1333.61 824.364 C 1335.71 854.232 1324.41 884.68 1304.88 907.173 C 1283.95 931.283 1253.9 945.164 1222.25 947.464 C 1191.09 949.812 1159.65 938.579 1135.48 918.978 A 116.837 116.837 0 0 1 1093.66 840.704 A 117.852 117.852 0 0 1 1120.31 754.95 C 1142.08 728.796 1170.81 713.418 1204.67 710.426 z"/>
<path transform="translate(0,0)" fill="rgb(65,64,64)" d="M 1211.84 803.255 C 1217.23 803.244 1222.59 804.136 1227.5 806.446 A 28.3171 28.3171 0 0 1 1242.48 823.403 A 30.3878 30.3878 0 0 1 1240.09 847.896 C 1235.21 856.621 1227.97 860.453 1218.8 863.205 C 1211.68 863.375 1205.01 862.489 1198.79 858.755 A 28.6102 28.6102 0 0 1 1185.49 840.447 A 30.5725 30.5725 0 0 1 1189.31 817.354 C 1194.57 808.991 1202.52 805.341 1211.84 803.255 z"/>
<path transform="translate(0,0)" fill="rgb(254,254,254)" d="M 1207.88 813.103 C 1211.99 812.705 1215.92 812.347 1219.95 813.475 C 1225.51 815.032 1230.5 818.973 1233.05 824.181 A 20.3358 20.3358 0 0 1 1233.6 840.891 C 1230.79 847.764 1225.59 851.421 1219.02 854.266 A 24.4344 24.4344 0 0 1 1210.51 854.042 A 21.4383 21.4383 0 0 1 1196.38 844.196 A 20.9464 20.9464 0 0 1 1194.15 827.302 C 1196.35 819.901 1201.36 816.525 1207.88 813.103 z"/>
<path transform="translate(0,0)" fill="rgb(254,254,254)" d="M 542.304 961.363 C 552.355 960.834 562.677 961.474 572.761 961.491 L 637.943 961.492 L 870.466 961.988 A 792.153 792.153 0 0 0 888.045 1003.51 L 691.677 1003.75 L 639.129 1003.64 C 626.722 1003.6 613.803 1002.83 601.535 1004.87 C 592.698 1006.34 584.991 1010.74 578.42 1016.74 C 567.585 1026.63 562.859 1038.93 562.389 1053.41 C 561.533 1079.75 563.036 1106.43 562.904 1132.82 C 562.806 1152.12 560.267 1193.55 563.612 1211.08 C 565.274 1219.8 569.064 1227.43 575.299 1233.76 C 581.775 1240.34 590.726 1246.01 599.873 1247.75 C 612.43 1250.13 626.379 1249.02 639.125 1248.97 L 696.149 1248.91 L 933.455 1248.89 C 951.534 1249.2 967.784 1248.73 981.636 1235.09 A 46.688 46.688 0 0 0 994.278 1212.68 C 998.425 1195.8 995.95 1149.61 995.9 1129.3 C 1016.77 1143.99 1038.79 1155.29 1062.21 1165.34 A 3593.27 3593.27 0 0 1 1062.79 1215.45 C 1062.89 1227.72 1063.74 1240.62 1061.69 1252.76 C 1060.61 1259.19 1058.5 1265.45 1055.02 1270.99 C 1049.14 1280.36 1038.66 1287.24 1027.82 1289.26 C 1009.05 1292.75 983.483 1290.21 964.069 1290.16 L 839.209 1290.25 L 635.55 1290.24 L 578.245 1290.34 C 566.472 1290.4 554.381 1290.99 542.641 1290.19 C 533.773 1289.58 525.909 1286.54 518.577 1281.57 C 509.582 1275.48 502.927 1265.47 501.063 1254.75 C 498.394 1239.4 499.906 1222.26 499.915 1206.65 L 499.968 1118.52 L 499.937 1041.66 C 499.928 1028.97 498.935 1015.35 500.332 1002.76 C 501.315 993.9 504.083 985.535 509.546 978.402 C 517.681 967.782 529.414 963.04 542.304 961.363 z"/>
<path transform="translate(0,0)" fill="rgb(254,254,254)" d="M 1197.65 517.43 C 1208.98 516.192 1221.49 517.043 1232.87 517.847 A 312.278 312.278 0 0 1 1394.78 576.863 A 306.925 306.925 0 0 1 1519.59 775.859 C 1528.15 829.717 1518.18 884.286 1485.87 928.916 C 1500.73 870.313 1502.15 815.411 1482.23 757.53 C 1481.47 809.537 1480.7 858.107 1452.08 903.818 C 1459.84 861.165 1459.81 804.206 1439.74 765.164 C 1446.87 805.226 1434.54 859.702 1411.59 893.197 C 1415.95 853.339 1415.79 812.897 1401.91 774.774 C 1400.49 814.192 1397.29 841.154 1374.92 874.712 C 1375.75 843.926 1376.06 812.121 1366.12 782.583 C 1365.41 808.783 1359.78 837.011 1342.35 857.55 C 1347.24 828.534 1344.59 800.722 1331.39 774.087 A 134.863 134.863 0 0 0 1244.27 704.087 C 1223.2 698.508 1202.12 695.711 1181.37 688.589 C 1181.91 688.177 1182.44 687.758 1182.99 687.352 C 1205.05 670.924 1244.95 671.496 1270.75 675.57 C 1236.29 656.844 1197.67 654.611 1159.3 654.819 C 1199.84 633.455 1243.28 632.585 1287.35 641.927 C 1244.21 618.242 1191.62 614.535 1143.42 619.396 C 1190.53 592.769 1250.03 594.033 1301.19 606.236 C 1248.29 573.488 1175.17 575.235 1115.48 582.69 C 1183.82 552.045 1247.61 548.046 1318.86 571.631 C 1260.35 533.275 1159.26 530.86 1092.04 544.301 C 1125.6 528.533 1160.78 520.308 1197.65 517.43 z"/>
<path transform="translate(0,0)" fill="rgb(254,254,254)" d="M 606.175 1015.2 C 639.186 1013.52 673.1 1015.16 706.211 1015.2 L 894.901 1014.87 C 916.426 1056.84 949.203 1091.15 985.028 1121.13 C 985.116 1143.55 989.012 1202.45 978.67 1219.53 C 972.77 1229.27 963.724 1234.05 953.037 1236.87 C 936.742 1239.16 918.818 1237.67 902.352 1237.55 L 812.307 1237.15 L 682.527 1237.44 C 658.821 1237.53 634.708 1238.63 611.059 1237.21 C 603.73 1236.77 597.964 1235.63 591.536 1231.83 C 582.559 1226.53 577.079 1219.52 574.587 1209.34 C 571.213 1195.56 573.103 1179.22 573.202 1165.04 L 573.339 1106.37 C 573.349 1088.43 571.785 1069.19 573.458 1051.38 C 574.113 1044.4 575.92 1037.53 579.718 1031.57 C 585.966 1021.78 595.285 1017.66 606.175 1015.2 z"/>
<path transform="translate(0,0)" fill="rgb(65,64,64)" d="M 798.561 1100.18 C 804.241 1100.05 809.146 1100.28 814.341 1102.81 C 821.37 1106.23 826.435 1112.42 828.642 1119.91 A 28.3194 28.3194 0 0 1 826.26 1141.98 C 822.014 1149.46 814.891 1153.61 806.773 1155.68 C 800.923 1155.81 796.189 1155.6 790.843 1153.02 A 28.2789 28.2789 0 0 1 775.966 1135.89 A 26.9674 26.9674 0 0 1 778.471 1114.2 C 783.045 1106.44 790.067 1102.41 798.561 1100.18 z"/>
<path transform="translate(0,0)" fill="rgb(65,64,64)" d="M 888.85 1100.24 C 894.528 1100.01 899.539 1100.89 904.516 1103.73 A 27.8108 27.8108 0 0 1 917.683 1121.62 A 27.8542 27.8542 0 0 1 913.694 1143.68 C 908.73 1150.94 901.859 1154.07 893.454 1155.64 C 886.953 1155.72 880.989 1154.78 875.4 1151.27 A 26.4292 26.4292 0 0 1 863.599 1134.51 A 28.7437 28.7437 0 0 1 867.85 1112.45 C 873.049 1104.71 879.984 1101.81 888.85 1100.24 z"/>
<path transform="translate(0,0)" fill="rgb(65,64,64)" d="M 692.948 1074.41 C 704.135 1074.18 715.19 1077.06 724.534 1083.32 A 51.7746 51.7746 0 0 1 746.411 1116.56 C 749.008 1130.22 745.805 1144.14 737.998 1155.59 C 728.644 1169.31 715.463 1176.1 699.403 1178.91 C 686.905 1179.19 674.667 1176.35 664.594 1168.62 C 653.303 1159.95 646.332 1147.1 644.666 1133.03 C 642.944 1118.49 647.068 1103.18 656.443 1091.85 C 665.827 1080.5 678.687 1075.63 692.948 1074.41 z"/>
<path transform="translate(0,0)" fill="rgb(254,254,254)" d="M 1187.77 476.42 C 1193.99 475.72 1200.39 475.757 1206.65 475.649 C 1303.38 473.98 1394.77 513.473 1463.6 580.429 C 1530.5 645.515 1563.17 737.819 1564 830.073 A 352.085 352.085 0 0 1 1461.97 1082.25 A 358.771 358.771 0 0 1 1210.21 1187.2 C 1117.8 1187.66 1025.25 1151.76 959.603 1086.44 C 907.617 1034.71 871.278 962.593 860.951 889.924 C 858.158 870.274 858.012 850.379 857.962 830.569 C 868.804 827.97 880.199 826.445 891.191 824.489 C 891.685 841.074 892.047 857.732 893.43 874.272 C 896.814 914.74 907.164 964.356 939.902 991.614 C 954.557 1003.82 975.603 1012.6 994.932 1010.39 C 1004.57 1009.29 1014.67 1005.37 1020.65 997.383 C 1025.53 990.867 1026.85 982.338 1025.3 974.461 C 1023.72 966.428 1019.27 959.794 1012.46 955.243 C 1003.29 949.112 990.901 947.375 980.264 949.984 C 971.147 952.22 962.744 957.827 958.165 966.159 C 952.888 975.76 954.358 984.151 957.317 994.061 A 161.702 161.702 0 0 1 954.952 992.327 C 921.35 967.123 909.484 930.355 904.034 890.121 C 902.29 877.243 896.65 827.009 903.201 819.153 C 906.235 815.515 910.752 813.669 915.422 813.469 C 948.122 812.072 925.156 881.474 939.729 892.972 C 940.921 893.912 941.621 893.501 943.015 893.38 C 958.552 882.005 947.226 851.464 955.598 836.123 A 12.836 12.836 0 0 1 964.275 829.634 C 967.048 829.043 970.198 829.546 972.415 831.399 C 974.15 832.848 975.368 835.091 975.793 837.299 C 976.643 841.712 976.136 846.863 976.318 851.39 L 977.933 887.146 C 979.486 888.996 980.64 890.333 982.719 891.627 L 984.926 890.821 C 993.671 879.069 986.876 836.044 993.1 819.909 C 994.421 816.486 996.604 813.409 1000.29 812.265 C 1003.72 811.199 1006.97 812.058 1010.11 813.469 C 1017.5 821.393 1015.6 865.713 1021.41 880.969 C 1022.3 883.283 1022.88 884.792 1025.18 885.89 C 1026.97 884.322 1027.38 882.612 1027.87 880.364 C 1030.83 866.941 1030.68 852.981 1032.36 839.392 C 1033.79 827.835 1036.46 816.601 1037.33 804.947 C 1042.7 804.482 1047.29 804.582 1052.62 805.286 C 1057.49 828.498 1054.51 851.484 1062.99 874.299 C 1065.23 863.485 1066.85 826.239 1071.57 819.645 C 1074.6 818.407 1076.33 818.186 1079.61 818.276 C 1083.13 829.157 1081.76 842.416 1084.5 853.849 C 1092.88 888.756 1111.9 918.706 1143.08 937.482 C 1185.97 963.308 1218.41 962.066 1265.14 950.36 C 1233.49 971.016 1198.05 977.853 1161.32 982.803 C 1168.47 985.223 1175.9 986.872 1183.23 988.686 C 1207.61 993.77 1232.3 994.553 1257.08 995.699 C 1223.36 1013.9 1188.67 1020.74 1150.66 1020.32 C 1186.18 1035.81 1231.88 1037.11 1270.36 1035.67 C 1230.14 1061.55 1174.95 1063.45 1129.23 1055.79 C 1179.31 1082.22 1237.83 1077.54 1292.44 1075.75 C 1230.97 1103.2 1185.01 1107.32 1119.59 1097.09 C 1170.81 1127.67 1257.68 1120.81 1315.45 1118.83 C 1310.14 1121.84 1304.59 1124.64 1299.02 1127.14 C 1220.99 1162.17 1135.75 1141.76 1059.89 1112.82 C 1079.59 1127.5 1103.95 1137.55 1127.44 1144.27 C 1205.06 1166.46 1296.53 1153.64 1366.67 1114.63 C 1443.64 1071.81 1497.09 1005.22 1521.07 920.388 C 1543.59 840.71 1534.43 746.852 1493.77 674.572 A 327.368 327.368 0 0 0 1296.85 519.883 A 314.484 314.484 0 0 0 1055.73 551.197 C 989.512 589.044 938.029 646.377 910.673 717.937 C 903.435 736.87 898.8 756.568 893.479 776.09 C 885.902 778.655 865.935 789.567 858.963 786.67 C 858.449 785.471 858.348 785.402 858.122 783.896 C 856.876 775.582 860.721 763.301 862.543 755.001 A 347.744 347.744 0 0 1 936.792 604.109 A 362.505 362.505 0 0 1 1187.77 476.42 z"/>
</svg>