<svg version="1.1" xmlns="http://www.w3.org/2000/svg" style="display: block;" viewBox="0 0 2048 2048" width="1024" height="1024">
<path transform="translate(0,0)" fill="rgb(254,254,254)" d="M 0 0 L 2048 0 L 2048 2048 L 0 2048 L 0 0 z"/>
<path transform="translate(0,0)" fill="rgb(71,70,69)" d="M 1463.74 411.851 C 1465.4 412.1 1466.89 412.407 1468.31 413.345 C 1474.37 417.334 1483.65 424.842 1484.11 432.771 C 1484.38 437.395 1480.01 440.364 1476.93 443.148 C 1468.76 435.628 1459.97 427.687 1453.06 419.003 L 1453.47 417.407 C 1456.68 414.861 1459.99 413.45 1463.74 411.851 z"/>
<path transform="translate(0,0)" fill="rgb(71,70,69)" d="M 179.467 1533.36 C 184.384 1536.14 189.215 1540.04 194.008 1543.15 C 191.541 1549.64 189.419 1556.31 187.151 1562.88 C 219.067 1570.66 215.401 1562.06 244.565 1585.69 L 243.778 1586.92 C 225.961 1586.41 200.527 1586.5 184.203 1579.28 C 178.657 1576.83 173.891 1572.67 171.868 1566.83 C 167.957 1555.53 174.752 1543.33 179.467 1533.36 z"/>
<path transform="translate(0,0)" fill="rgb(71,70,69)" d="M 1863.62 1526.72 C 1868.58 1532.1 1877.67 1561.83 1877.53 1569.58 C 1877.43 1574.86 1875.58 1579.56 1871.52 1583.04 C 1859.49 1593.38 1808.88 1589 1791.96 1588.01 L 1790.78 1587.57 C 1793.71 1582.58 1808.78 1573.33 1813.99 1568.91 C 1829.62 1569.25 1845 1570.43 1860.66 1569.47 C 1857.23 1560.22 1853.65 1550.51 1849.05 1541.78 L 1863.62 1526.72 z"/>
<path transform="translate(0,0)" fill="rgb(71,70,69)" d="M 1236.62 742.709 C 1240.54 747.138 1283.55 899.159 1288.98 920.001 C 1283.72 918.965 1278.53 918.296 1273.19 917.738 C 1270.31 918.237 1267.71 918.974 1264.86 917.939 C 1260.41 908.043 1258.27 896.46 1255.28 885.979 L 1232.25 805.247 C 1228.27 791.169 1225.19 774.759 1219.11 761.562 C 1224.71 755.084 1230.74 748.942 1236.62 742.709 z"/>
<path transform="translate(0,0)" fill="rgb(71,70,69)" d="M 937.748 843.06 C 939.662 842.952 941.727 842.78 943.604 843.242 C 947.198 844.127 949.855 846.91 951.414 850.156 C 952.774 852.986 952.943 856.223 951.486 859.077 C 949.403 863.157 944.921 865.068 940.931 866.751 C 931.277 870.822 920.563 873.517 910.563 876.687 L 854.737 894.354 L 717.206 939.213 C 715.189 939.52 713.147 939.733 711.177 939.085 C 708.213 938.109 705.444 936.236 704.147 933.296 C 702.99 930.67 703.199 927.658 704.344 925.072 C 706.403 920.418 710.774 917.562 715.307 915.648 C 722.124 912.771 729.799 911.593 736.907 909.522 C 746.985 906.588 756.925 903.052 766.886 899.739 C 823.833 880.8 881.277 863.408 937.748 843.06 z"/>
<path transform="translate(0,0)" fill="rgb(71,70,69)" d="M 841.696 754.452 C 869.174 743.545 897.752 735.716 925.761 726.35 C 942.601 720.719 959.775 712.955 976.983 708.844 C 981.055 707.871 986.246 707.046 990.193 708.928 C 992.541 710.047 993.765 713.028 994.377 715.417 C 995.312 719.068 994.603 722.761 992.391 725.802 C 990.791 728 987.85 729.156 985.417 730.086 C 960.583 739.587 934.662 747.24 909.424 755.673 L 777.131 800.015 C 758.648 806.133 691.857 830.714 677.103 831.432 C 675.854 831.493 674.922 831.299 673.772 830.835 C 670.902 827.97 667.955 824.958 667.531 820.698 C 667.241 817.78 668.503 815.119 670.637 813.181 C 681.5 803.313 735.919 793.09 754.915 783.213 C 758.557 779.338 772.126 778.286 777.972 776.38 L 809.534 765.733 C 820.194 763.932 831.594 758.48 841.696 754.452 z"/>
<path transform="translate(0,0)" fill="rgb(71,70,69)" d="M 1602.83 1715.19 C 1602.42 1719.43 1598.41 1725.28 1595.89 1728.68 C 1584.67 1743.81 1561.14 1756.68 1545.55 1767.13 C 1432.93 1842.6 1288.71 1896.08 1154.6 1915.28 A 934.875 934.875 0 0 1 509.248 1771.44 C 487.463 1757.3 466.966 1741.08 446.206 1725.49 C 441.821 1722.1 437.812 1718.26 433.731 1714.52 C 463.233 1729.68 492.881 1744.32 521.973 1760.3 C 560.309 1781.36 597.603 1803.45 637.286 1822.02 A 924.588 924.588 0 0 0 834.19 1888.08 C 1018.35 1928.67 1219.43 1905 1391.73 1829.65 C 1422.03 1816.4 1452.65 1801.32 1481.45 1785.1 C 1502.52 1773.24 1522.88 1760.3 1543.78 1748.17 C 1563.33 1736.82 1583.71 1727.4 1602.83 1715.19 z"/>
<path transform="translate(0,0)" fill="rgb(71,70,69)" d="M 829.057 971.342 C 829.549 971.277 830.041 971.205 830.534 971.148 C 852.183 968.643 876.632 978.334 893.11 991.966 C 910.408 1006.27 920.162 1027.29 922.002 1049.48 A 92.5872 92.5872 0 0 1 900.196 1117.42 C 885.728 1134.24 864.341 1145.51 842.181 1147.15 C 820.196 1148.26 801.046 1143.85 783.009 1130.85 C 763.723 1116.95 751.523 1096.02 747.956 1072.6 A 87.5377 87.5377 0 0 1 764.418 1007.21 C 780.619 985.326 802.645 975.186 829.057 971.342 z"/>
<path transform="translate(0,0)" fill="rgb(254,254,254)" d="M 827.55 994.269 C 842.35 992.214 858.526 996.053 871.218 1003.84 C 885.26 1012.46 894.719 1026.87 898.296 1042.82 A 69.8866 69.8866 0 0 1 888.689 1095.59 C 878.06 1111.8 863.288 1120 844.682 1123.9 C 827.817 1125.61 811.72 1122.96 797.561 1113.2 A 64.8704 64.8704 0 0 1 770.896 1071.01 A 65.3526 65.3526 0 0 1 781.755 1021.29 C 793.003 1005.58 808.786 997.418 827.55 994.269 z"/>
<path transform="translate(0,0)" fill="rgb(71,70,69)" d="M 880.541 1176.32 C 900.366 1173.23 923.087 1179.32 939.56 1190.39 A 85.5631 85.5631 0 0 1 976.445 1246 A 89.9847 89.9847 0 0 1 962.478 1314.67 C 947.444 1336.92 926.063 1347.94 900.222 1352.91 C 878.012 1355.17 856.517 1349.66 838.416 1336.45 A 88.1032 88.1032 0 0 1 803.682 1278.99 A 90.419 90.419 0 0 1 820.801 1210.12 C 835.696 1190.38 856.297 1179.69 880.541 1176.32 z"/>
<path transform="translate(0,0)" fill="rgb(254,254,254)" d="M 885.602 1198.39 C 900.553 1197.06 916.192 1201.71 928.472 1210.17 C 942.774 1220.04 951.879 1234.72 954.97 1251.78 A 69.4242 69.4242 0 0 1 943.532 1303.6 C 932.385 1319.46 915.427 1327.11 896.857 1330.41 C 879.791 1331.99 863.952 1327.71 850.344 1317.18 C 836.301 1306.32 827.792 1290.37 825.627 1272.84 A 68.4948 68.4948 0 0 1 840.228 1221.82 C 851.822 1207.39 867.449 1200.29 885.602 1198.39 z"/>
<path transform="translate(0,0)" fill="rgb(180,62,60)" d="M 745.248 572.617 L 771.824 566.779 C 775.994 577.198 780.216 587.57 783.751 598.227 C 788.974 598.209 794.055 598.477 799.253 598.916 A 1568.52 1568.52 0 0 0 822.047 576.371 C 829.533 580.57 836.705 585.069 843.851 589.823 C 839.554 598.862 835.949 608.265 832.157 617.527 C 836.356 622.367 840.735 627.064 845.048 631.803 A 393.122 393.122 0 0 1 877.165 628.674 C 879.455 637.346 882.217 645.704 885.212 654.152 A 375.717 375.717 0 0 1 858.977 670.178 L 858 688.11 C 866.424 693.252 874.081 699.792 881.831 705.887 C 879.933 713.89 877.551 721.741 875.202 729.62 C 864.823 728.05 854.437 725.801 844.113 723.868 C 841.593 728.407 838.749 732.826 836.062 737.271 C 837.701 743.107 839.628 748.756 841.696 754.452 C 831.594 758.48 820.194 763.932 809.534 765.733 L 777.972 776.38 C 772.126 778.286 758.557 779.338 754.915 783.213 L 750.62 781.624 C 745.615 776.428 747.12 759.071 746.925 752.047 C 742.1 748.986 737.05 746.263 732.208 743.206 C 723.788 748.228 715.684 753.805 707.515 759.223 C 701.778 753.292 696.168 747.388 689.668 742.271 C 695.272 733.279 700.807 724.716 708.531 717.384 C 706.454 711.301 705.065 704.838 703.435 698.612 C 692.885 696.911 682.568 694.435 672.19 691.926 C 671.841 683.751 672.509 675.466 672.877 667.294 C 682.494 665.037 691.908 662.18 701.362 659.334 C 703.518 653.938 705.179 648.262 706.998 642.739 C 701.056 634.938 694.622 627.444 688.57 619.715 C 693.401 612.325 698.803 605.507 704.506 598.778 C 713.862 603.093 722.766 607.636 731.612 612.939 L 745.044 604.628 C 744.987 593.963 745.17 583.283 745.248 572.617 z"/>
<path transform="translate(0,0)" fill="rgb(254,254,254)" d="M 787.702 756.12 C 792.343 754.894 797.15 754.154 801.867 753.268 L 809.534 765.733 L 777.972 776.38 C 780.413 769.055 783.376 762.518 787.702 756.12 z"/>
<path transform="translate(0,0)" fill="rgb(254,254,254)" d="M 771.907 635.135 C 781.053 634.336 789.406 634.721 797.759 638.963 C 808.205 644.268 816.341 654.498 819.844 665.612 A 42.1564 42.1564 0 0 1 816.311 698.616 C 810.142 709.81 800.4 716.111 788.506 719.82 C 778.393 721.858 768.65 720.941 759.459 716.013 A 43.8587 43.8587 0 0 1 738.314 689.794 A 44.2691 44.2691 0 0 1 742.446 656.07 C 749.179 644.174 759.226 638.713 771.907 635.135 z"/>
<path transform="translate(0,0)" fill="rgb(180,62,60)" d="M 979.823 195.427 C 999.239 193.918 1019.36 194.344 1038.82 194.669 A 803.185 803.185 0 0 1 1393.92 284.5 C 1581.36 380.411 1731.71 551.739 1796.36 752.7 A 864.099 864.099 0 0 1 1796.41 1280.32 C 1787.31 1308.78 1775.35 1345.67 1761.81 1371.99 C 1761.19 1365.5 1759.96 1357.41 1761.04 1351.02 C 1763.62 1335.77 1772.16 1320.08 1777.25 1305.39 A 1092.47 1092.47 0 0 0 1803.83 1217.41 A 795.302 795.302 0 0 0 1823.51 1101.97 C 1835.97 972.191 1817.27 823.307 1768 702.062 A 798.55 798.55 0 0 0 1647.3 501.281 A 818.487 818.487 0 0 0 1086.55 206.15 A 807.119 807.119 0 0 0 681.65 280.645 A 802.45 802.45 0 0 0 267.524 734.457 A 823.429 823.429 0 0 0 250.542 1249.4 C 259.169 1278.34 268.259 1308.04 281.125 1335.42 C 279.842 1341.41 278.989 1347.54 277.969 1353.59 C 239.272 1271.37 214.375 1160.71 208.858 1070.1 A 828.039 828.039 0 0 1 330.729 581.647 C 352.464 546.295 376.971 511.111 404.555 480.06 C 427.023 454.766 450.029 429.829 475.044 407.015 A 815.932 815.932 0 0 1 979.823 195.427 z"/>
<path transform="translate(0,0)" fill="rgb(71,70,69)" d="M 1394.21 417.513 C 1398.79 418.136 1404.83 422.7 1407.87 426.089 C 1408.91 427.262 1409.88 428.691 1411.34 429.403 C 1418.38 432.842 1434.16 424.879 1441.09 422.134 C 1452.44 433.016 1471.42 448.411 1478.55 462.112 C 1481.04 466.89 1482.08 471.907 1480.18 477.076 C 1477.72 483.736 1468 498.382 1461.5 501.283 C 1459.92 499.681 1459.32 498.936 1457.14 498.183 C 1448.7 504.713 1441.1 514.245 1433.66 522.003 A 4317.5 4317.5 0 0 1 1388.05 569.163 C 1341.34 616.755 1294.07 663.996 1247.97 712.156 A 4521.82 4521.82 0 0 1 1181.85 780.778 C 1169.37 793.586 1157.17 806.945 1143.77 818.788 L 1140.95 829.037 L 1048.44 860.793 C 1056.25 839.779 1065.44 819.06 1074.01 798.341 C 1078.28 788.02 1082.05 775.506 1087.69 765.934 C 1089.26 763.281 1091.64 760.9 1093.72 758.641 C 1122.39 730.082 1149.89 700.252 1178 671.137 L 1320.79 525.79 A 3690.81 3690.81 0 0 0 1362.38 483.35 C 1375.15 470.016 1387.52 456.354 1401.63 444.391 C 1398.88 441.422 1395.9 438.656 1392.98 435.837 C 1374.08 451.347 1357.06 470.343 1340.01 487.886 C 1318.99 509.517 1297.56 530.909 1277.26 553.217 C 1274.8 550.598 1273.04 547.628 1271.15 544.591 C 1286.08 527.261 1302.58 511.033 1318.56 494.67 L 1394.21 417.513 z"/>
<path transform="translate(0,0)" fill="rgb(254,254,254)" d="M 1071.02 815.388 C 1075.43 818.242 1080.54 830.325 1082.17 835.493 C 1082.94 837.915 1082.74 838.052 1081.58 840.161 C 1079.92 839.687 1078.19 839.107 1076.67 838.293 C 1073.23 836.448 1070.28 832.115 1069.25 828.402 C 1067.83 823.303 1068.52 819.949 1071.02 815.388 z"/>
<path transform="translate(0,0)" fill="rgb(254,254,254)" d="M 1405.43 450.002 C 1414.2 456.154 1421.88 465.397 1429.53 472.968 C 1436.69 480.064 1444.28 486.708 1451.84 493.38 C 1440.79 508.126 1425.36 521.239 1412.39 534.421 L 1333.33 615.147 L 1186.21 766.373 C 1170.04 782.887 1154.51 800.122 1137.96 816.24 C 1112.96 808.227 1103.16 793.776 1090.38 772.139 C 1144.03 712.67 1202.01 656.599 1258.1 599.439 C 1306.96 549.645 1354.53 497.695 1405.43 450.002 z"/>
<path transform="translate(0,0)" fill="rgb(71,70,69)" d="M 1767.79 1600.81 L 1769.54 1601.67 C 1774.97 1613.67 1794.51 1663.48 1794.97 1674.06 C 1795.2 1679.32 1793.61 1684.41 1789.78 1688.13 C 1786 1691.81 1780.77 1693.61 1775.61 1694.16 C 1755.84 1696.27 1716.27 1685.34 1693.35 1684.79 L 1691.83 1684.77 C 1688.67 1686.94 1685.96 1689.63 1683.16 1692.26 C 1685.54 1712.54 1699.73 1757.85 1697.44 1774.25 C 1696.69 1779.6 1694.23 1784.37 1689.76 1787.51 C 1672.61 1799.57 1618.17 1777.57 1597.7 1774.35 L 1596.15 1774.11 C 1594.13 1775.19 1591.97 1776.24 1590.1 1777.55 C 1589.46 1777.99 1587.93 1779.36 1587.61 1780.06 C 1582.23 1791.94 1592.03 1839.47 1587.45 1858.94 C 1585.91 1865.49 1582.67 1872.78 1576.47 1876.12 C 1559.85 1885.1 1503.07 1854.07 1484.13 1847.81 C 1481.84 1848.81 1477.88 1850.09 1476.34 1852.12 C 1463.98 1868.42 1474.95 1917.45 1456.35 1938.36 C 1430.05 1967.95 1379.36 1901.38 1359.13 1904.59 C 1354.83 1905.27 1352.34 1908.01 1350.41 1911.68 C 1347.42 1917.37 1346.22 1924.39 1344.63 1930.58 C 1340.2 1947.77 1335.91 1972.49 1324.95 1986.62 C 1321.17 1991.5 1316.12 1994.75 1309.9 1995.29 C 1289.28 1997.09 1260.05 1963.58 1244.76 1951.14 C 1240.73 1947.86 1232.98 1941.73 1227.44 1943.28 C 1224.36 1944.15 1221.58 1948.02 1220.04 1950.61 C 1208.74 1969.57 1203.91 1992.17 1191.9 2010.98 C 1185.4 2021.15 1179.21 2025.75 1167.69 2028.35 C 1144.56 2022.54 1125.79 1993.82 1110.57 1976.39 C 1106.56 1971.79 1098.83 1962.4 1092.16 1962.94 C 1081.97 1963.77 1052.46 2019.19 1040.92 2030.26 C 1035.91 2035.07 1029.69 2038.87 1022.52 2038.59 C 999.521 2037.67 979.7 1987.09 964.15 1971.55 C 961.453 1968.86 957.988 1966.22 953.967 1966.39 C 944.185 1966.81 934.162 1982.34 928.25 1989.29 C 917.491 2001.94 899.031 2028.52 881.392 2029.4 C 849.031 2031.02 840.752 1962.35 819.645 1945.27 C 807.642 1935.56 765.51 1995.33 741.005 1996.37 C 707.435 1997.78 709.934 1923.6 691.893 1907.21 C 689.491 1905.03 687.176 1904.93 684.155 1905.71 C 678.394 1907.19 672.912 1911.45 667.904 1914.58 C 653.626 1923.5 625.228 1945.17 608.946 1945.7 C 571.601 1946.91 586.722 1865.85 568.902 1848.78 C 559.079 1845 528.317 1862.21 517.295 1866.96 C 505.601 1872 487.057 1882.27 474.398 1876.76 C 450.023 1866.16 468.989 1801.97 459.546 1780.89 C 451.079 1761.99 388.59 1799.14 365.287 1790.1 C 334.869 1778.3 372.217 1710.15 361.077 1692.63 C 353.235 1680.3 287.274 1699.36 268.094 1693.89 C 263.574 1692.61 259.638 1690.01 257.373 1685.8 C 250.027 1672.16 261.638 1645.91 265.759 1631.66 C 268.343 1623.78 270.122 1615.46 272.227 1607.42 C 277.803 1610.97 283.038 1614.9 288.315 1618.87 C 282.559 1638.37 275.975 1657.95 271.694 1677.83 C 294.526 1676.99 344.752 1666.18 363.509 1673.57 C 369.203 1675.82 375.362 1680.09 378.01 1685.79 C 385.607 1702.16 375.245 1738.71 372.346 1756.27 C 371.476 1761.54 369.584 1768.52 371.905 1773.57 C 382.806 1775.38 426.525 1760.26 441.813 1757.73 C 450.491 1756.3 459.873 1756.95 467.084 1762.45 C 472.471 1766.56 475.974 1772.66 477.627 1779.17 C 480.083 1788.85 479.217 1799.75 479.191 1809.67 C 479.144 1827.56 478.599 1845.57 481.499 1863.27 C 500.409 1855.44 550.549 1828.25 568.984 1831.14 C 604.517 1836.7 591.368 1904.89 606.345 1926.7 C 619.702 1931.89 665.497 1887.2 686.968 1887.48 C 693.957 1887.57 703.318 1892.41 707.662 1897.81 C 717.3 1909.81 725.847 1946.51 731.302 1962.44 C 733.161 1967.87 734.945 1974.38 738.893 1978.66 C 747.766 1979.44 789.806 1937.31 801.601 1930.58 C 807.761 1927.07 814.829 1924.88 821.88 1927.15 C 844.976 1934.56 858.78 1980.36 869.308 2000.53 C 871.612 2004.94 874.7 2009.89 879.715 2011.41 C 894.169 2007.91 915.259 1975.39 926.322 1963.63 C 933.803 1955.67 943.342 1946.92 954.93 1946.88 C 983.697 1946.79 1002.63 2003.29 1022.17 2021.72 C 1022.5 2022.04 1022.84 2022.35 1023.18 2022.66 C 1045.56 2005.43 1057.54 1958.74 1083.54 1948.17 C 1104.23 1939.76 1120.47 1960.47 1132.44 1974.11 L 1153.07 1997.81 C 1156.23 2001.42 1161.42 2008.21 1166.2 2009.51 C 1179.84 2013.24 1197.45 1941.44 1216.84 1929.51 C 1222.72 1925.89 1230.73 1924.71 1237.37 1926.71 C 1253.65 1931.63 1277.08 1955.91 1290.88 1967.34 C 1295.62 1971.27 1301.1 1976.5 1307.27 1977.8 C 1321.46 1971.37 1325.97 1914.14 1337.32 1898.29 C 1364.93 1859.77 1421.75 1931.99 1441.85 1928.52 C 1449.27 1921.08 1452.13 1874.25 1454.61 1861.14 C 1456.42 1851.54 1460.16 1840.14 1468.87 1834.7 C 1492.94 1819.65 1537.81 1855.81 1562.76 1860.33 C 1564.59 1860.66 1566.67 1860.7 1568.13 1859.43 C 1570.06 1857.75 1570.74 1855.52 1571.05 1853.07 C 1573.32 1835.4 1566.27 1806.01 1568.23 1786.16 C 1569.1 1777.3 1571.67 1769 1578.85 1763.24 C 1583.76 1759.31 1589.89 1757.47 1596.11 1757.19 C 1620.38 1756.12 1653.59 1771.71 1679.94 1774.5 C 1678.9 1756.81 1674.17 1739.08 1670.31 1721.85 C 1668.42 1713.47 1665.63 1704.14 1665.72 1695.54 C 1665.8 1688.22 1668.14 1681.51 1673.57 1676.45 C 1678.28 1672.07 1684.57 1669.35 1690.88 1668.31 C 1712.78 1664.71 1753.7 1675.27 1778.02 1676.82 C 1770.86 1654.04 1761.95 1631.82 1753.65 1609.44 L 1767.79 1600.81 z"/>
<path transform="translate(0,0)" fill="rgb(71,70,69)" d="M 1127.93 396.227 C 1127.99 396.252 1128.05 396.269 1128.11 396.302 C 1133.86 399.726 1192.19 605.371 1201.19 629.133 C 1194.22 635.445 1187.89 642.454 1181.45 649.299 C 1174.45 628.531 1169.15 606.864 1162.91 585.808 A 6338.64 6338.64 0 0 0 1113.53 424.12 C 1094.21 430.472 1074.33 435.479 1054.78 441.093 A 8150.57 8150.57 0 0 1 958.572 469.077 L 657.155 556.041 C 608.58 569.99 558.914 582.036 511.099 598.381 A 73911.8 73911.8 0 0 1 771.616 1464.95 C 819.034 1452.13 865.797 1435.92 913.005 1422.25 C 975.08 1404.33 1036.51 1384.2 1098.48 1366.01 C 1093.59 1374.96 1088.99 1383.93 1084.65 1393.16 C 1035.03 1410.96 983.322 1424.58 932.848 1439.86 C 874.181 1457.61 815.58 1477 756.394 1492.87 C 749.977 1473.85 744.773 1454.2 739.074 1434.95 L 705.886 1321.92 L 623.092 1044 L 543.046 779.24 L 506.184 657.564 C 498.564 632.157 490.399 606.724 483.898 581.009 L 922.544 456.006 C 990.986 436.432 1058.83 413.356 1127.93 396.227 z"/>
<path transform="translate(0,0)" fill="rgb(71,70,69)" d="M 1007.09 116.506 A 888.935 888.935 0 0 1 1342.76 175.731 A 896.918 896.918 0 0 1 1842.44 650.615 C 1925.84 839.772 1943.88 1061.54 1886.31 1260.62 A 1038.25 1038.25 0 0 1 1847.16 1371.87 C 1839.06 1391.24 1829.39 1410.03 1821.79 1429.57 A 1647.03 1647.03 0 0 0 1799.83 1428.92 C 1860.55 1324.07 1896.78 1180.09 1901.36 1059.45 A 888.489 888.489 0 0 0 1667.06 415.249 A 885.102 885.102 0 0 0 1045.68 133.898 C 1019.6 132.243 992.491 134.179 966.455 136.031 C 846.623 144.556 733.756 176.758 625.894 229.212 C 591.45 245.962 558.797 266.329 527.275 288.018 A 872.519 872.519 0 0 0 196.225 720.277 C 113.852 958.545 134.039 1201.32 243.819 1426.96 L 223.77 1428.39 C 215.76 1412.57 209.123 1395.78 202.265 1379.41 A 946.848 946.848 0 0 1 127.69 1032.67 A 906.433 906.433 0 0 1 381.028 387.501 A 901.035 901.035 0 0 1 1007.09 116.506 z"/>
<path transform="translate(0,0)" fill="rgb(71,70,69)" d="M 1021.92 6.11632 C 1054.29 7.17363 1065.75 62.4978 1086.17 77.3752 C 1089.27 79.6307 1092.8 81.0064 1096.65 79.9116 C 1115.96 74.4069 1139.23 21.1203 1166.03 17.7723 C 1202.79 13.1794 1206.26 86.771 1226.3 100.23 C 1229.12 102.122 1231.78 102.178 1234.85 100.973 C 1252.96 93.87 1281.62 54.4596 1303.3 51.0687 C 1340.57 45.2403 1335.82 127.092 1355.29 137.626 C 1365.97 143.402 1414.78 106.293 1432.66 102.074 C 1438.73 100.641 1444.74 101.008 1450.09 104.422 C 1467.02 115.22 1466.84 164.177 1470.92 183.383 C 1471.9 188.013 1473.74 194.062 1478.4 196.3 C 1489.46 201.611 1540.29 176.104 1554.86 171.802 C 1561.93 169.715 1569.7 168.651 1576.35 172.543 C 1598.21 185.334 1582.37 238.688 1589.53 260.243 C 1590.46 263.039 1592.24 266.351 1595.1 267.562 C 1606.97 272.577 1667.87 244.266 1686.73 255.043 C 1710.29 268.5 1680.24 333.726 1687.31 350.827 C 1694.29 367.725 1763.68 347.331 1781.81 356.085 C 1812.5 370.895 1766.38 434.4 1775.13 452.979 C 1781.78 467.092 1847.12 458.497 1864.6 465.431 C 1869.63 467.427 1874 471.104 1876.04 476.204 C 1883.62 495.117 1854.9 535.066 1847.68 553.997 C 1846.16 557.988 1844.66 563.29 1847.01 567.268 C 1853.79 578.72 1905.64 581.853 1919.47 584.637 C 1927.54 586.261 1936.64 588.807 1941.24 596.264 C 1958.05 623.515 1908.47 659.735 1902.77 684.141 C 1902.18 686.687 1902.03 690.201 1903.51 692.489 C 1912.08 705.654 1979.8 709.12 1991.53 730.081 C 2007.77 759.113 1945.5 796.617 1940.8 815.184 C 1936.99 830.265 2011.84 847.259 2023.07 867.554 C 2042.5 902.689 1964.38 930.162 1958.66 952.645 C 1959.19 956.28 1960.52 958.531 1963.15 961.123 C 1967.48 965.386 1973.37 968.458 1978.49 971.667 C 1995.07 982.072 2021.29 995.303 2032.91 1010.43 C 2036.21 1014.72 2038.27 1019.86 2037.47 1025.33 C 2034.27 1046.99 1982.58 1071.84 1965.59 1084.81 C 1963.05 1086.75 1959.89 1088.91 1959.41 1092.28 C 1965.64 1107.57 2009.15 1134.76 2022.44 1152.02 C 2026.63 1157.47 2030.11 1164.18 2028.8 1171.26 C 2027.79 1176.73 2024.12 1181.27 2019.9 1184.71 C 2000.01 1200.9 1960.65 1209.38 1937.49 1224.35 C 1937.15 1224.57 1936.82 1224.8 1936.49 1225.02 C 1945.47 1241.59 1961.11 1256.97 1973.85 1270.82 C 1978.76 1276.15 1984.25 1281.49 1988.19 1287.57 C 1992.26 1293.85 1995.12 1301.27 1993.12 1308.79 C 1991.57 1314.61 1987.43 1319.24 1982.6 1322.64 C 1961.01 1337.88 1923.27 1342.04 1897.92 1356.54 C 1907.85 1381.48 1927.61 1402.58 1934.54 1428.73 C 1928.35 1429.46 1922.23 1430.29 1916.09 1431.36 C 1909.88 1407.49 1884.39 1380.79 1881.13 1358.7 C 1880.54 1354.7 1880.65 1350.02 1883.07 1346.58 C 1896.09 1328.13 1967.58 1318.78 1975.99 1305.24 C 1979.99 1298.8 1928.2 1253.48 1921.5 1231.94 C 1919.9 1226.8 1919.54 1221.11 1922.26 1216.28 C 1933.81 1195.8 2004.53 1181.88 2010.16 1168.3 C 2013.93 1159.22 1953.45 1119.11 1944.81 1102.13 C 1927.27 1067.65 2012.72 1044.9 2020.23 1022.97 C 2018.86 1012.81 1956.66 984 1945.37 966.002 C 1922.89 930.151 2003.79 903.66 2008.15 880.8 C 2008.73 877.789 2008.04 876.087 2005.96 873.938 C 2002.14 869.996 1995.27 867.573 1990.3 865.282 C 1974.53 858.005 1935.99 843.901 1926.48 830.244 C 1906.1 800.989 1974.44 763.66 1976.63 742.255 C 1977.8 730.759 1902.22 721.063 1888.66 703.041 C 1869.53 677.613 1922.54 634.242 1926.8 608.23 C 1925.81 605.708 1924.97 605.015 1922.44 603.943 C 1917.02 601.647 1909.84 601.23 1904.05 600.32 C 1885.69 597.429 1854.58 595.408 1838.75 585.743 C 1804.87 565.054 1863.77 501.911 1859.58 483.761 C 1853.04 477.608 1796.99 479.898 1783.82 477.707 C 1774.83 476.211 1765.36 472.651 1760.06 464.783 C 1757.04 460.311 1756.09 454.925 1756.35 449.615 C 1757.31 430.155 1767.18 408.853 1772.53 390.06 C 1774.29 383.88 1775.28 377.264 1776.49 370.947 C 1754.51 370.944 1732.49 374.931 1710.47 375.64 C 1698.68 376.02 1685.26 375.673 1676.35 366.776 C 1672.02 362.457 1669.71 356.888 1669.01 350.868 C 1666.78 331.692 1678.13 293.698 1678.11 269.271 C 1658.37 272.262 1639.04 278.089 1619.58 282.472 C 1608.17 285.042 1593.32 288.1 1582.95 281.1 C 1562.22 267.103 1573.59 210.456 1568.19 186.82 C 1568.09 186.366 1567.97 185.914 1567.86 185.461 C 1543.17 192.904 1503.93 216.735 1478.87 214.392 C 1471.83 213.734 1465.31 210.83 1460.96 205.112 C 1451.23 192.309 1448.88 152.633 1446.14 135.49 C 1445.37 130.689 1445.09 123.993 1441.48 120.401 C 1434.32 113.268 1380.74 154.87 1360.9 156.148 C 1353.58 156.62 1346.01 153.962 1340.75 148.759 C 1328.37 136.487 1321.29 103.174 1315.87 86.5559 C 1314.01 80.8499 1312.28 73.3479 1307.69 69.2266 C 1292.94 66.9582 1256.81 117.751 1232.43 119 C 1226.46 119.306 1219.26 117.351 1214.54 113.599 C 1199.88 101.93 1189.4 66.844 1181.01 49.3965 C 1179.02 45.2572 1176.1 38.6168 1172.3 35.9604 C 1169.84 34.2417 1168.14 34.0082 1165.45 35.5174 C 1151.16 43.5299 1128.98 80.0901 1109.92 92.9355 C 1104.19 96.7933 1098.94 98.1485 1092.32 99.5438 C 1058.22 89.5618 1049.36 45.7184 1025.29 23.1821 C 1003.7 39.5294 992.431 84.1369 968.107 96.8096 C 933.339 114.923 903.023 42.6542 879.832 35.299 C 869.809 39.2528 850.56 98.4337 836.038 111.912 C 805.168 140.563 759.641 69.1504 740.541 68.266 C 729.646 77.5353 723.182 127.864 711.605 144.836 C 707.288 151.165 701.14 156.476 693.34 157.619 C 672.782 160.632 638.696 134.799 620.631 124.346 C 616.761 122.107 610.963 117.912 606.354 118.794 C 601.411 125.318 595.879 176.121 591.655 189.602 C 588.854 198.544 584.312 206.94 575.567 211.243 C 551.966 222.858 507.062 192.673 483.053 185.38 L 481.404 184.887 C 477.546 209.134 482.377 234.234 479.483 258.423 C 478.451 267.055 475.552 275.321 468.414 280.769 C 448.016 296.337 394.627 273.218 369.973 270.453 L 368.636 270.312 C 369.76 293.764 377.533 316.63 378.091 340.185 C 378.324 350.061 376.734 360.279 369.373 367.496 C 351.775 384.75 293.62 371.433 270.16 370.969 C 275.013 391.668 283.969 411.026 287.931 432.033 C 290.058 443.313 291.766 456.659 284.556 466.544 C 280.83 471.654 275.418 474.884 269.425 476.68 C 247.196 483.339 212.78 477.67 188.286 481.143 L 186.653 481.382 C 193.574 500.674 203.166 519.192 211.414 537.961 C 216.17 548.781 221.44 562.62 216.495 574.186 C 204.765 601.617 145.964 596.565 121.744 605.96 C 121.353 606.112 120.966 606.276 120.577 606.434 C 129.259 631.028 164.391 666.032 163.271 690.895 C 162.064 717.705 114.114 726.803 93.5015 732.665 C 86.9174 734.537 78.3127 736.028 73.1017 740.624 C 71.4001 751.246 120.02 792.478 125.062 811.155 C 136.831 854.743 48.1852 863.65 39.6147 879.314 C 40.5657 890.099 75.0535 913.337 84.527 921.339 C 93.6646 929.057 105.289 938.8 105.967 951.663 C 107.498 980.71 44.7314 1002.67 26.5139 1023.04 C 26.224 1023.37 25.9418 1023.7 25.6557 1024.03 C 43.2171 1041.97 93.8129 1064.91 103.707 1081.64 C 121.343 1111.46 43.6881 1146.1 37.6774 1168.35 C 38.4631 1171.19 39.3505 1172.27 41.7442 1174.04 C 46.6722 1177.66 53.2738 1179.9 58.8832 1182.35 C 76.0663 1189.84 96.1495 1196.43 112.061 1206.17 C 118.326 1210.01 122.793 1214.87 124.41 1222.23 C 129.867 1247.03 87.07 1278.31 74.8621 1298.44 C 73.1199 1301.31 72.9358 1303.01 73.71 1306.22 C 81.8796 1315.95 132.969 1327.58 148.394 1335.51 C 155.599 1339.22 162.214 1344.91 164.568 1352.92 C 169.809 1370.77 151.846 1392.67 142.838 1406.89 C 137.335 1415.57 132.13 1424.23 127.383 1433.36 C 120.272 1431.94 113.005 1431.88 105.781 1431.58 C 114.039 1413.97 146.117 1376.28 147.375 1360.48 C 147.568 1358.04 147.107 1355.82 145.288 1354.05 C 135.633 1344.63 72.8554 1334.05 58.5089 1316.67 C 37.7134 1291.49 105.361 1250.21 107.307 1226.74 C 104.054 1215.94 41.8644 1197.36 28.53 1186.15 C 23.6819 1182.07 20.5532 1176.96 20.1821 1170.55 C 18.8525 1147.58 69.2667 1116.79 84.1009 1099.68 C 86.641 1096.75 87.6869 1094.79 87.4066 1090.89 C 81.385 1080.65 41.2702 1058.47 28.7812 1049.62 C 20.8246 1043.99 10.5901 1036.05 9.21087 1025.75 C 5.80959 1000.35 71.6947 977.381 85.7457 958.614 C 87.1264 956.77 88.6873 953.995 88.1902 951.591 C 84.6028 934.246 23.3805 906.809 21.0215 881.603 C 18.2269 851.744 90.3214 845.061 105.343 824.532 C 107.428 821.682 108.448 818.972 107.514 815.41 C 102.57 796.546 58.0301 766.899 54.8406 744.382 C 49.7963 708.77 131.193 714.067 143.749 692.431 C 151.201 679.59 109.138 631.118 104.969 613.215 C 103.606 607.36 104.132 601.539 107.579 596.482 C 116.998 582.661 162.169 580.781 178.806 577.344 C 185.505 575.96 196.818 573.514 200.098 566.636 C 205.567 555.173 173.999 505.106 170.658 488.422 C 169.487 482.571 169.911 476.517 173.625 471.624 C 185.621 455.819 239.994 464.155 260.166 460.672 C 264.353 459.949 269.114 458.564 271.344 454.584 C 277.18 444.168 260.782 402.876 256.739 390.097 C 254.16 381.945 250.575 371.103 255.187 363.085 C 269.448 338.293 328.514 365.304 351.643 357.732 C 374.811 350.147 342.651 282.721 353.962 261.897 C 367.396 237.166 436.579 275.594 454.448 268.392 C 470.272 262.014 456.235 196.638 466.288 178.859 C 484.654 146.375 545.391 204.291 566.76 196.404 C 581.623 190.919 579.163 130.745 590.151 113.132 C 595.119 105.169 601.012 102.748 609.661 100.634 C 637.962 107.867 663.996 136.756 690.397 140.799 C 693.479 139.901 694.98 138.301 696.567 135.622 C 709.066 114.52 708.901 81.8668 723.91 61.3138 C 727.702 56.1215 732.916 51.9769 739.437 51.0798 C 757.537 48.5896 788.755 81.9681 803.025 92.9202 C 808.414 97.0562 814.284 101.713 821.426 100.786 C 832.364 94.8922 848.037 53.0929 854.604 40.3168 C 859.001 31.7621 864.511 22.4263 874.38 19.6048 C 897.03 13.1295 924.72 53.2377 938.033 68.3113 C 941.906 72.6964 946.668 78.8466 952.064 81.3066 C 969.452 89.2335 995.296 17.3658 1020.91 6.53067 C 1021.25 6.38846 1021.59 6.25444 1021.92 6.11632 z"/>
<path transform="translate(0,0)" fill="rgb(180,62,60)" d="M 1257.6 954.447 L 1276.84 953.999 C 1280.71 972.282 1282.96 991.235 1285.94 1009.71 C 1299.09 1011.63 1312.19 1014.42 1325.26 1016.9 A 1746.09 1746.09 0 0 1 1353.96 972.058 C 1367.35 977.559 1381.04 985.295 1393.76 992.205 C 1388.88 1009.56 1382.42 1026.46 1377.02 1043.66 C 1387.47 1050.29 1396.92 1059.63 1406.31 1067.7 C 1423.55 1059.16 1441.55 1048.47 1459.81 1042.58 C 1468.13 1055.61 1476.31 1068.77 1485.2 1081.43 C 1470.86 1094.27 1454.92 1105.39 1440.17 1117.8 C 1445.28 1130.91 1450.75 1144 1453.46 1157.86 C 1472.2 1159.47 1490.91 1162.15 1509.58 1164.48 L 1510.09 1208.77 C 1492.31 1210.31 1473.99 1214.27 1456.4 1217.42 C 1453.72 1233.25 1450.66 1248.88 1446.83 1264.48 C 1463.07 1274.07 1479.85 1284.66 1494.59 1296.47 L 1475.66 1334.87 C 1457.14 1329.81 1438.66 1322.17 1420.55 1315.64 C 1412.4 1327.67 1402.52 1338.06 1392.32 1348.32 C 1401.11 1365.26 1410.2 1382.23 1417.48 1399.89 C 1404.62 1409.04 1390.02 1416.77 1376.5 1424.99 C 1364.9 1409.83 1354.21 1393.89 1342.9 1378.49 C 1328.73 1384.03 1314.59 1388.16 1299.78 1391.56 C 1298.49 1411.22 1295.8 1430.86 1293.57 1450.43 L 1256.25 1449.47 C 1252.28 1449.57 1248.86 1449.75 1245.05 1448.51 C 1241.56 1443.56 1240.7 1400.4 1240.07 1391.42 C 1223.3 1387.97 1207.72 1383.54 1191.61 1377.73 C 1179.4 1393.22 1169.61 1410.51 1157.3 1425.91 C 1144.04 1417.31 1130.09 1408.96 1117.79 1399.03 C 1125.69 1381.89 1135.47 1365.64 1144.11 1348.85 L 1117.71 1320.64 C 1100.21 1331.01 1080.62 1339.05 1062.19 1347.7 A 1605.98 1605.98 0 0 0 1039.2 1304.72 C 1055.49 1293.86 1071.66 1282.8 1088.4 1272.62 C 1083.91 1259.31 1079.69 1246.36 1077.48 1232.43 C 1058.31 1232.19 1039.07 1232.18 1020.01 1229.96 C 1017.86 1214.8 1018.19 1198.65 1017.62 1183.32 C 1035.75 1179.36 1055.64 1176.65 1074.19 1175.75 A 759.285 759.285 0 0 1 1083.61 1136.36 C 1067.38 1127.02 1050.2 1118.08 1035.46 1106.5 C 1042.11 1092.36 1049.58 1078.62 1056.13 1064.4 A 1803.9 1803.9 0 0 0 1110.08 1084.47 C 1119.22 1074.04 1128.17 1064.25 1139 1055.51 C 1130.43 1039.26 1120.62 1023.68 1111.6 1007.67 C 1123.58 997.747 1136.83 988.732 1149.37 979.476 A 3238.7 3238.7 0 0 0 1187.69 1024.54 C 1199.5 1018.88 1211.62 1015.13 1224.17 1011.57 C 1224.25 992.954 1225.09 973.871 1226.82 955.347 A 1329.91 1329.91 0 0 0 1257.6 954.447 z"/>
<path transform="translate(0,0)" fill="rgb(254,254,254)" d="M 1256.65 1084.41 C 1257.78 1084.27 1258.86 1084.16 1259.99 1084.11 C 1288.39 1083.01 1318.56 1093.67 1339.55 1112.88 C 1362.99 1134.33 1375.45 1163.79 1376.87 1195.33 C 1378.34 1227.91 1367.65 1259.82 1345.51 1283.97 A 103.792 103.792 0 0 1 1272 1318.21 C 1242.87 1318.17 1217.07 1309.35 1194.15 1291.31 C 1170.11 1272.38 1153.97 1242.86 1150.47 1212.48 A 118.689 118.689 0 0 1 1176.32 1125.06 C 1196.64 1099.98 1225.05 1087.62 1256.65 1084.41 z"/>
<path transform="translate(0,0)" fill="rgb(180,62,60)" d="M 1316.14 1107.5 A 47.2759 47.2759 0 0 1 1325.18 1112.38 C 1347.12 1127.25 1360.65 1150.54 1365.65 1176.29 C 1371.74 1207.65 1367.56 1239.5 1349.23 1266.09 C 1332.99 1289.65 1310.12 1303.57 1282.23 1308.86 C 1268.99 1309.93 1256.65 1309.64 1243.46 1308.09 C 1271.81 1293.86 1297.09 1273.48 1311.99 1245.03 C 1335.3 1200.54 1330.65 1153.78 1316.14 1107.5 z"/>
<path transform="translate(0,0)" fill="rgb(180,62,60)" d="M 298.248 1301.42 C 303.932 1304.19 325.778 1327.96 332.424 1334.22 A 1037.33 1037.33 0 0 0 1079.22 1619.79 A 914.231 914.231 0 0 0 1163.42 1612.51 C 1320.31 1593.16 1469.77 1536.32 1595.41 1439.45 C 1647.18 1399.54 1692.68 1354.57 1737.39 1307.07 C 1739.84 1333.71 1742.13 1360.27 1745.83 1386.78 C 1748.92 1408.95 1753.22 1431.02 1757.08 1453.07 C 1814.01 1452.69 1870.56 1451.95 1927.11 1444.36 C 1914.87 1456.8 1901.08 1468.16 1887.82 1479.49 A 1458.73 1458.73 0 0 1 1783.82 1560.84 A 2612 2612 0 0 1 1615.92 1671.85 C 1553.68 1709.75 1489.62 1745.62 1421.02 1770.77 C 1355.78 1794.69 1288.13 1809.58 1219.6 1820.29 A 1191.07 1191.07 0 0 1 529.58 1724.98 A 1686.26 1686.26 0 0 1 290.204 1586.34 C 246.424 1556.47 203.77 1523.93 162.135 1491.15 C 143.571 1476.54 125.684 1460.66 106.619 1446.75 A 1257.28 1257.28 0 0 0 292.982 1439.94 C 292.741 1393.89 296.8 1347.47 298.248 1301.42 z"/>
<path transform="translate(0,0)" fill="rgb(254,254,254)" d="M 819.326 1635.27 A 2332.56 2332.56 0 0 1 892.445 1651.86 C 891.884 1657.76 890.807 1663.59 889.823 1669.43 C 880.604 1667.21 871.005 1665.9 861.663 1664.23 L 846.762 1731.77 C 844.201 1740.52 842.399 1749.63 840.269 1758.5 L 823.167 1754.83 C 828.851 1722.93 837.438 1691.56 843.247 1659.61 C 834.465 1656.88 825.439 1654.75 816.54 1652.42 C 817.208 1646.61 818.139 1640.98 819.326 1635.27 z"/>
<path transform="translate(0,0)" fill="rgb(254,254,254)" d="M 593.04 1565.24 C 599.368 1564.76 606.171 1564.94 612.306 1566.63 C 628.303 1571.03 635.133 1584.69 642.654 1597.97 C 636.327 1598.9 630.63 1599.87 624.589 1602.03 C 621.216 1595.55 617.157 1589.45 610.735 1585.64 C 605.498 1582.53 599.339 1581.76 593.522 1583.61 C 584.943 1586.34 579.469 1593.97 575.607 1601.68 C 568.781 1615.31 558.879 1638.33 564.272 1653.52 C 566.569 1660 571.068 1662.77 577.049 1665.53 C 586.179 1668.27 593.293 1667.04 602.172 1664.49 L 609.653 1679.8 A 242.657 242.657 0 0 1 599.476 1682.52 C 586.838 1685.59 572.654 1684.82 561.456 1677.68 C 552.988 1672.28 547.412 1663.79 545.303 1654.01 C 540.854 1633.39 552.912 1602.44 564.021 1585.4 C 571.286 1574.25 580.03 1567.9 593.04 1565.24 z"/>
<path transform="translate(0,0)" fill="rgb(254,254,254)" d="M 657.996 1586.43 C 663.852 1588.74 669.484 1591.26 675.125 1594.05 C 670.125 1611.61 663.26 1628.71 656.803 1645.77 C 676.333 1633 694.137 1617.61 714.51 1606.12 C 721.053 1607.85 727.346 1610.2 733.697 1612.51 C 716.974 1625.07 699.3 1636.62 682.244 1648.74 C 685.636 1665.65 690.249 1682.86 695.26 1699.36 L 701.938 1722.87 C 695.38 1720.9 688.71 1719.24 682.093 1717.48 L 666.931 1659.95 L 649.608 1669.82 C 645.418 1680.8 642.416 1692.27 639.121 1703.54 L 620.327 1697.23 C 634.871 1662.61 646.228 1622.38 657.996 1586.43 z"/>
<path transform="translate(0,0)" fill="rgb(254,254,254)" d="M 1441.09 1586.79 L 1442.19 1586.82 C 1445.91 1589.39 1449.41 1598.74 1451.87 1603 C 1436.01 1610.95 1419.61 1617.76 1403.58 1625.36 C 1408.25 1634.37 1412.21 1643.82 1416.4 1653.06 C 1424.74 1649.39 1432.78 1644.86 1440.87 1640.65 C 1444.27 1646.99 1447.12 1653.57 1450.02 1660.15 C 1441.44 1663.54 1433.06 1667.01 1424.78 1671.11 A 1623.57 1623.57 0 0 1 1435.41 1698.02 C 1451.9 1692.01 1467.17 1681.51 1483.86 1676.59 C 1486.43 1677.64 1486.74 1679.42 1488.02 1681.78 L 1492.53 1693.19 A 2179.25 2179.25 0 0 1 1426.94 1722.86 C 1419.72 1709.39 1414.01 1694.5 1407.73 1680.54 C 1397.92 1658.74 1387.61 1637.05 1378.57 1614.92 C 1398.7 1608.24 1422.1 1596.54 1441.09 1586.79 z"/>
<path transform="translate(0,0)" fill="rgb(254,254,254)" d="M 776.767 1626.23 L 794.957 1631.01 C 794.768 1669.74 798.046 1708.71 799.365 1747.44 C 793.155 1746.86 787.198 1745.74 781.097 1744.46 A 2049.92 2049.92 0 0 1 780.434 1718.65 L 749.517 1710.44 C 747.594 1709.95 746.292 1709.61 744.32 1709.97 C 737.79 1715 733.634 1723.07 729.269 1729.93 C 723.427 1727.77 717.391 1726.23 711.388 1724.58 C 718.704 1711.39 728.329 1699.03 736.913 1686.61 A 1792.68 1792.68 0 0 0 776.767 1626.23 z"/>
<path transform="translate(0,0)" fill="rgb(180,62,60)" d="M 776.256 1659.61 C 776.397 1659.74 776.554 1659.86 776.681 1660 C 779.729 1663.49 779.042 1693.51 779.116 1699.6 C 773.302 1697.84 767.279 1696.52 761.385 1695.04 C 759.212 1694.49 757.576 1694 755.671 1692.8 C 757.272 1685.76 771.614 1666.75 776.256 1659.61 z"/>
<path transform="translate(0,0)" fill="rgb(254,254,254)" d="M 405.983 1466.02 L 423.326 1476.32 L 398.803 1516.58 C 411.376 1525.7 425.025 1533.16 438.501 1540.83 A 2104.29 2104.29 0 0 1 463.234 1498.34 C 469.077 1501.13 474.064 1504.31 479.174 1508.25 C 471.808 1525.22 460.453 1541.56 451.159 1557.59 C 441.408 1574.4 432.546 1593.37 420.731 1608.71 C 415.3 1606.48 410.131 1603.44 404.943 1600.69 C 412.677 1585.28 421.675 1570.63 430.529 1555.85 C 417.468 1547.56 403.457 1540.34 390.043 1532.58 C 381.985 1547.62 372.466 1561.85 364.387 1576.91 C 359.385 1573.39 354.043 1570.32 348.817 1567.14 L 405.983 1466.02 z"/>
<path transform="translate(0,0)" fill="rgb(254,254,254)" d="M 907.256 1655.18 A 1413.06 1413.06 0 0 1 926.442 1657.93 C 924.603 1675.24 921.78 1692.57 918.653 1709.69 C 932.802 1712.83 948.021 1713.94 962.404 1715.82 A 3831.59 3831.59 0 0 1 969.24 1663.98 L 989.027 1667.65 C 982.595 1702.3 979.642 1737.53 973.461 1772.24 C 973.011 1775.96 973.297 1777.95 970.848 1780.87 C 968.569 1781.58 967.344 1781.72 964.987 1781.24 C 961.308 1780.48 957.642 1780.09 953.914 1779.67 A 1166.93 1166.93 0 0 1 960.331 1735.26 A 2719.16 2719.16 0 0 1 916.219 1728.92 C 913.309 1743.6 911.397 1758.56 909.311 1773.37 L 890.558 1771.9 C 895.462 1732.91 902.916 1694.3 907.256 1655.18 z"/>
<path transform="translate(0,0)" fill="rgb(254,254,254)" d="M 1350.56 1623.84 C 1350.76 1623.87 1350.99 1623.84 1351.17 1623.94 C 1351.76 1624.25 1352.4 1624.53 1352.82 1625.04 C 1354.56 1627.18 1386.31 1725.86 1389.98 1736.88 C 1383.66 1738.52 1377.58 1740.51 1371.42 1742.69 A 1179.32 1179.32 0 0 0 1355.2 1696.09 C 1341.19 1700.24 1327.32 1705.2 1313.43 1709.76 C 1319.13 1725.62 1325.7 1741.39 1330.1 1757.66 L 1312.49 1763.52 C 1297.07 1726.96 1289.09 1686.95 1272.83 1650.71 L 1291.06 1644.2 C 1295.96 1660.37 1301.91 1676.33 1307.39 1692.31 A 777.235 777.235 0 0 1 1350.1 1677.21 C 1345.54 1661.44 1339.95 1645.96 1334.58 1630.45 C 1339.8 1628.06 1345.24 1626.01 1350.56 1623.84 z"/>
<path transform="translate(0,0)" fill="rgb(254,254,254)" d="M 519.874 1529.61 L 538.933 1538.1 A 4236.61 4236.61 0 0 0 529.907 1600.75 C 527.451 1620.16 525.757 1639.74 522.499 1659.03 C 516.411 1655.98 510.41 1652.71 504.375 1649.55 A 946.751 946.751 0 0 0 509.554 1624.09 C 502.08 1621.4 494.768 1618.1 487.436 1615.04 L 470.59 1607.5 L 453.682 1624.59 A 875.336 875.336 0 0 0 438.113 1616.48 C 448.273 1604.67 459.48 1593.68 470.221 1582.39 L 519.874 1529.61 z"/>
<path transform="translate(0,0)" fill="rgb(180,62,60)" d="M 515.738 1560.81 L 516.543 1561.65 C 517.398 1572.99 512.708 1591.64 511.597 1604.04 C 505.737 1601.95 499.993 1599.15 494.28 1596.68 L 485.091 1592.82 C 495.543 1582.41 505.419 1571.36 515.738 1560.81 z"/>
<path transform="translate(0,0)" fill="rgb(254,254,254)" d="M 1186.14 1672.54 L 1202.76 1671.93 C 1203.51 1709.42 1207 1746.88 1208.61 1784.35 L 1190.55 1784.81 L 1142.55 1713.28 C 1142.91 1723.59 1149.68 1781.93 1147.03 1785.85 L 1142.82 1786.24 L 1129.18 1787.03 C 1126.47 1749.37 1123.11 1711.69 1119.85 1674.07 L 1140.2 1673.12 C 1157.82 1694.95 1172.15 1720.69 1186.95 1744.51 C 1186.41 1733.88 1181.55 1678.85 1182.93 1673.31 L 1186.14 1672.54 z"/>
<path transform="translate(0,0)" fill="rgb(254,254,254)" d="M 1514.89 1548.23 C 1524.22 1547.39 1532.98 1548.05 1540.97 1553.43 C 1549.47 1559.17 1554.68 1569.28 1556.13 1579.26 C 1557.76 1590.38 1554.21 1598.48 1547.74 1607.13 C 1563.89 1617.38 1580.92 1626.07 1596.85 1636.74 C 1590.83 1640.03 1585.47 1643.2 1580.28 1647.75 C 1564.42 1638.8 1547.13 1630.27 1532.48 1619.4 C 1528.46 1621.64 1519.72 1625.35 1518.17 1629.53 C 1523.51 1642.24 1532.14 1654.02 1539.6 1665.57 C 1534.04 1669.14 1528.27 1672.44 1522.61 1675.85 C 1515.23 1665.33 1509.21 1653.72 1502.82 1642.58 C 1490.1 1620.46 1477.67 1598.09 1464.43 1576.27 C 1478.76 1565.4 1497.39 1552.93 1514.89 1548.23 z"/>
<path transform="translate(0,0)" fill="rgb(180,62,60)" d="M 1515.52 1567.09 C 1517.82 1567.07 1520.21 1567.05 1522.49 1567.36 C 1526.99 1567.97 1531.03 1571.01 1533.42 1574.79 C 1535.85 1578.66 1536.44 1583.43 1535.43 1587.86 C 1532.55 1600.42 1519.58 1607.27 1509.63 1613.78 L 1509.27 1613.74 C 1504.56 1610.38 1493.15 1587.29 1489.56 1580.98 C 1497.91 1575.73 1506.17 1570.34 1515.52 1567.09 z"/>
<path transform="translate(0,0)" fill="rgb(254,254,254)" d="M 1044.77 1671.24 C 1055.68 1670.53 1065.61 1670.83 1075.53 1676.12 C 1086.05 1681.73 1092.51 1691.09 1096.07 1702.26 C 1102.58 1722.73 1101.02 1751.44 1090.68 1770.46 C 1083.92 1782.89 1074.76 1788.79 1061.6 1792.83 C 1049.96 1795.44 1037.11 1793.62 1027.08 1786.99 C 1016.18 1779.8 1009.84 1767.43 1007.26 1754.91 C 1003.14 1734.92 1005.19 1706.59 1017.05 1689.41 C 1023.83 1679.57 1033.1 1673.54 1044.77 1671.24 z"/>
<path transform="translate(0,0)" fill="rgb(180,62,60)" d="M 1045.95 1691.12 C 1051.51 1690.58 1056.77 1690.14 1062.13 1692.16 C 1069.12 1694.78 1074.06 1700.45 1076.84 1707.25 C 1082.46 1721.01 1081.57 1742.91 1075.87 1756.58 C 1072.19 1765.38 1067.06 1770.9 1058.29 1774.55 C 1053.36 1774.89 1047.68 1774.53 1043.04 1772.78 C 1036.31 1770.24 1031.04 1764.95 1028.07 1758.45 C 1021.88 1744.97 1023.32 1723.33 1028.62 1709.63 C 1032.17 1700.45 1037.02 1695.11 1045.95 1691.12 z"/>
<path transform="translate(0,0)" fill="rgb(254,254,254)" d="M 1605.36 1484.16 C 1616.89 1483.4 1627.27 1485.21 1637.32 1491.15 C 1655.4 1501.83 1670.12 1523.51 1675.2 1543.69 C 1678.64 1557.33 1677.5 1572.22 1669.87 1584.29 C 1662.11 1596.58 1649.85 1602.62 1636.24 1605.92 C 1624.56 1606.98 1614.47 1604.98 1604.32 1598.98 C 1586.67 1588.55 1571.31 1567.73 1566.34 1547.86 C 1562.8 1533.72 1563.87 1518.07 1571.83 1505.57 C 1579.57 1493.42 1591.65 1487.08 1605.36 1484.16 z"/>
<path transform="translate(0,0)" fill="rgb(180,62,60)" d="M 1604.34 1505.18 C 1609.26 1504.85 1613.73 1504.59 1618.46 1506.25 C 1633.03 1511.34 1643.8 1526.62 1650.16 1540.1 C 1654.33 1548.96 1658.05 1560.24 1654.3 1569.81 C 1651.14 1577.86 1644.99 1581.11 1637.36 1584.22 C 1631.91 1585.22 1627.08 1585.42 1621.81 1583.45 C 1607.93 1578.27 1597.63 1563.43 1591.42 1550.52 C 1587.03 1541.37 1583.66 1529.95 1587.51 1520.09 C 1590.74 1511.83 1596.73 1508.59 1604.34 1505.18 z"/>
<path transform="translate(0,0)" fill="rgb(71,70,69)" d="M 985.813 285.422 C 1001.57 283.977 1018.11 284.415 1033.95 284.529 C 1168.92 285.504 1327.04 332.035 1436.01 412.919 C 1429.82 415.966 1423.62 418.762 1417.22 421.346 C 1411.67 416.189 1405.52 407.394 1397.45 406.719 C 1392.59 406.314 1386.72 411.603 1383.13 414.676 C 1363.7 431.273 1345.93 451.7 1327.96 469.957 C 1307.35 490.895 1284.4 511.778 1265.76 534.446 C 1263.27 537.479 1259.79 541.244 1259.67 545.367 C 1259.5 551.799 1263.83 557.047 1267.88 561.532 L 1207.76 622.371 C 1199.39 601.801 1194.28 579.074 1187.85 557.793 L 1151.85 438.545 C 1146.55 420.397 1143.1 400.647 1135.6 383.304 C 1114.62 386.073 1079.84 398.637 1058.52 404.943 L 901.081 451.263 L 633.053 527.98 C 578.643 543.389 523.982 558.189 470.019 575.098 C 475.057 597.26 483.689 619.542 490.357 641.347 L 534.161 785.35 L 684.808 1286.95 L 725.257 1422.13 C 733.444 1449.68 742.046 1477.15 748.771 1505.1 C 765.375 1500.8 781.772 1495.5 798.238 1490.69 A 4195.71 4195.71 0 0 0 925.334 1452.18 L 1082.84 1404.13 C 1084.03 1410.74 1085.78 1415.65 1090.04 1420.94 C 1101.01 1434.58 1137.13 1460.33 1154.06 1461.66 C 1180.11 1463.7 1190.13 1433.7 1206.91 1419.22 L 1207.99 1418.3 C 1210.27 1434.35 1206.88 1459.23 1216.99 1472.51 C 1222.63 1479.91 1233.16 1483.31 1242 1484.59 C 1261.88 1487.47 1299.85 1491 1315.93 1478.19 C 1330.13 1466.89 1329.81 1439.11 1332.11 1422.17 C 1341.6 1433.72 1351.68 1454.08 1365.86 1460.12 C 1373.98 1463.57 1383.48 1461.83 1391.27 1458.38 C 1403.39 1453 1435.73 1432.81 1444.82 1423.64 C 1448.34 1420.08 1451.25 1415.82 1452.89 1411.06 C 1458.72 1394.16 1441.98 1371.38 1434.55 1357.02 C 1449.43 1360.14 1465.86 1368.8 1481.04 1368.26 C 1489.83 1367.94 1497.69 1362.83 1503.28 1356.28 C 1513.6 1344.17 1531.79 1305.84 1529.85 1290.4 C 1527.38 1270.61 1500.72 1258.92 1486.2 1248.19 C 1500.95 1242.69 1519.82 1242.17 1532.62 1232.66 C 1539.57 1227.49 1543.06 1218.6 1544.2 1210.26 C 1546.51 1193.47 1545.95 1155.24 1535.31 1141.83 C 1524.6 1128.33 1499.56 1129.01 1483.89 1127.6 C 1495.24 1115.52 1514.75 1104.72 1520.14 1088.39 C 1522.94 1079.95 1519.4 1069.61 1515.59 1062.03 C 1508.57 1048.07 1487.54 1012.72 1472.38 1008.48 C 1453.46 1003.19 1434.71 1016.77 1418.83 1025.38 C 1422.74 1012.37 1431.07 997.303 1428.85 983.433 C 1427.41 974.434 1419.96 967.031 1412.77 962.093 C 1398.5 952.302 1364.55 933.083 1347.43 936.837 C 1335.38 939.479 1326.72 953.031 1320.26 962.546 L 1315.06 970.199 C 1312.2 959.731 1310.75 948.381 1306.8 938.288 C 1304.25 931.78 1299.74 926.101 1297.65 919.406 C 1292.3 902.242 1288.23 884.516 1283.12 867.234 C 1270.03 823.042 1256.35 778.574 1245.52 733.767 C 1257.99 723.736 1269.15 710.76 1280.42 699.374 L 1344.61 634.278 C 1379.74 598.351 1415.41 562.896 1450.17 526.632 C 1458.11 518.345 1466.73 510.729 1474.46 502.235 C 1479.65 496.537 1487.39 488.463 1489.81 481.038 C 1494.01 468.141 1487.38 457.895 1481.54 446.908 C 1481.82 447.043 1482.1 447.175 1482.38 447.313 C 1482.84 447.544 1483.3 447.787 1483.76 448.015 C 1493.35 452.741 1502.06 460.105 1510.15 467.041 A 645.959 645.959 0 0 1 1732.24 913.721 C 1742.67 1057.55 1707.05 1232.97 1610.36 1344.4 C 1575.47 1384.61 1531.62 1418.44 1487.56 1447.95 C 1358.95 1534.13 1234.92 1577.53 1080.52 1588.19 A 870.79 870.79 0 0 1 623.324 1490.31 C 581.648 1468.28 542.367 1443.65 506.746 1412.58 A 574.693 574.693 0 0 1 313.338 1015.8 C 300.855 832.025 366.595 655.771 487.348 517.941 C 594.827 395.26 750.495 317.701 910.611 292.656 C 935.541 288.757 960.657 287.074 985.813 285.422 z"/>
</svg>