<svg version="1.1" xmlns="http://www.w3.org/2000/svg" style="display: block;" viewBox="0 0 2048 2048" width="1024" height="1024">
<path transform="translate(0,0)" fill="rgb(254,254,254)" d="M 0 0 L 2048 0 L 2048 2048 L 0 2048 L 0 0 z"/>
<path transform="translate(0,0)" fill="rgb(216,65,66)" d="M 1018.7 112.04 C 1043.85 108.765 1078.7 151.116 1102.91 150.566 C 1120.42 150.168 1163.06 129.291 1185.41 124.269 C 1210.36 133.211 1230.95 167.292 1253.5 176.396 C 1274.47 184.863 1318.63 161.353 1339.9 167.481 C 1365.23 174.777 1377.99 223.023 1402.87 232.351 C 1423.21 239.978 1452.97 230.243 1474.57 235.091 C 1479.12 236.112 1483.16 237.985 1486.64 241.119 C 1498.98 252.23 1511.04 281.24 1520.92 296.21 C 1523.7 300.429 1527 304.557 1531.42 307.132 C 1543.05 313.899 1577.89 317.303 1592.92 320.338 C 1599.09 321.583 1605.35 323.166 1610.23 327.38 C 1627.1 341.94 1628.45 383.249 1644.7 401.249 C 1660.07 418.272 1698.9 417.434 1716.85 433.65 C 1734.38 449.484 1726.15 495.194 1739.25 515.152 C 1752.15 534.802 1795.91 541.981 1810.21 563.377 C 1822.29 581.472 1807.53 627.785 1818.26 648.09 C 1826.84 664.328 1867.11 686.782 1881.89 709.21 C 1881.67 734.879 1869.22 767.842 1871.43 789.319 C 1873.9 813.234 1916.93 834.372 1921.74 858.986 C 1926.83 885.026 1892.23 925.418 1898.45 948.759 C 1903.55 967.932 1928.25 1000.59 1937.21 1022.8 C 1931.42 1049.02 1894.24 1086.64 1897.47 1109.95 C 1898.48 1117.26 1901.77 1124.52 1904.51 1131.32 C 1911.83 1149.53 1920.87 1167.68 1923.08 1187.35 C 1911.04 1210.14 1891.35 1227.54 1876.77 1248.4 C 1863.32 1267.64 1878.7 1300.61 1882.35 1321.85 C 1883.44 1328.18 1883.63 1334.83 1881.07 1340.85 C 1871.57 1363.16 1830.01 1379.07 1815.85 1399.85 C 1815.64 1400.15 1815.45 1400.45 1815.26 1400.75 C 1814.52 1419.01 1816.67 1459.01 1813.11 1473.91 C 1806.61 1501.1 1756.18 1508.19 1742.32 1532.97 C 1731.66 1552.03 1733 1577.51 1725.86 1598.06 C 1714.85 1629.74 1672.52 1623.77 1651 1643.22 C 1630.34 1661.89 1629.4 1706.64 1610.08 1723.35 C 1593.23 1737.93 1554.8 1731.55 1534.35 1743.05 C 1511.27 1756.03 1500.93 1802.81 1479.13 1813.93 C 1460.14 1823.61 1427.56 1811.57 1406.46 1818.39 C 1379.28 1827.18 1366.74 1868.25 1341 1880.5 C 1319.1 1890.93 1280.34 1865.15 1255.73 1873.47 C 1234.47 1880.65 1210.43 1910.16 1187.33 1921.78 C 1158.78 1920.6 1126.45 1897.71 1104.41 1897.37 C 1079.72 1896.99 1047.75 1931.88 1022.66 1935.39 C 1022.36 1935.43 1022.06 1935.46 1021.76 1935.49 C 995.573 1924.65 972.726 1906.14 946.472 1896.07 C 922.422 1899.56 884.42 1920.28 864.859 1920.51 C 843.497 1920.76 810.199 1872.52 785.557 1868.75 C 768.868 1866.2 735.967 1879.35 715.838 1880.04 C 687.789 1880.99 671.854 1841.41 653.227 1824.55 C 638.309 1811.05 605.793 1817.04 586.467 1817.63 C 579.652 1817.83 572.253 1817.88 566.022 1814.75 C 547.968 1805.67 536.958 1762.88 522.194 1746.07 C 505.057 1726.57 461.258 1737.59 438.981 1723.93 C 417.382 1710.69 421.753 1665.45 404.235 1647.01 C 388.68 1630.65 344.579 1631.37 327.388 1614.6 C 314.896 1602.41 317.133 1560.63 311.907 1542.64 C 303.896 1515.07 254.82 1508.56 235.345 1489.08 C 232.342 1486.07 230.395 1482.45 229.598 1478.27 C 226.829 1463.74 230.912 1437.84 231.209 1421.68 C 231.336 1414.72 231.47 1406.76 228.583 1400.3 C 221.543 1384.57 187.276 1364.83 173.878 1350.41 C 169.99 1346.23 166.697 1341.37 165.897 1335.6 C 163.823 1320.61 172.219 1297.8 175.303 1282.59 C 176.884 1274.79 177.619 1267.18 177.913 1259.23 C 166.559 1238.43 132.819 1206.8 126.468 1189.97 C 118.438 1168.7 155.127 1126.76 151.542 1103.41 C 148.158 1081.37 120.083 1048.63 111.053 1024.3 C 120.585 999.048 138.334 978.281 148.111 955.083 C 150.231 950.053 152.005 944.859 151.574 939.328 C 150.614 927.006 133.681 892.862 128.197 878.591 C 126.268 873.57 124.403 867.796 125.202 862.348 C 128.359 840.819 167.06 812.663 176.998 789.479 C 177.176 789.064 177.345 788.645 177.518 788.228 C 175.837 767.405 160.39 725.094 165.527 706.931 C 172.252 683.149 219.076 669.308 230.346 646.172 C 240.926 624.453 221.378 579.496 238.36 560 C 255.854 539.916 296.624 536.431 309.627 512.048 C 317.823 496.679 313.727 462.045 321.654 443.4 C 323.673 438.649 326.67 435.001 331.007 432.183 C 345.646 422.671 372.791 418.35 389.835 410.897 C 395.164 408.567 400.317 405.399 403.994 400.813 C 414.748 387.404 420.059 358.577 426.71 341.755 C 429.065 335.796 432.151 329.852 437.495 326.046 C 453.569 314.596 491.233 317.761 511.088 308.588 C 535.346 297.38 544.059 249.509 563.551 235.007 C 581.301 221.802 625.649 238.205 647.33 227.665 C 668.111 217.561 686.935 173.289 705.955 165.805 C 726.389 157.765 769.288 181.581 791.291 175.079 C 815.436 167.944 838.179 134.367 862.975 123.698 C 887.019 128.767 909.237 141.115 932.54 148.572 C 937.865 150.276 942.886 150.834 948.352 149.455 C 966.479 144.879 1000.22 121.738 1018.7 112.04 z"/>
<path transform="translate(0,0)" fill="rgb(60,60,60)" d="M 1021.92 130.962 C 1045.97 133.002 1084.58 170.406 1106.15 167.215 C 1118.58 165.376 1131.08 159.352 1142.81 155 C 1154.03 150.838 1165.28 147.368 1176.87 144.409 C 1207.12 152.888 1225.9 180.042 1251.53 196.43 C 1269.06 195.813 1287.22 190.413 1304.39 186.889 C 1311.56 185.418 1319.64 183.454 1326.96 184.47 C 1356.51 188.572 1369.05 234.304 1392.08 249.194 C 1392.39 249.394 1392.71 249.586 1393.02 249.782 C 1415.59 250.719 1441.26 245.773 1463.3 250.8 C 1488.56 256.562 1502.31 299.712 1515.52 320.255 L 1516.33 321.5 C 1538.53 329.782 1564.42 327.587 1586.58 336.216 C 1614.53 347.097 1619.01 390.974 1629.67 415.698 L 1630.21 416.93 C 1651.08 428.552 1677.25 429.679 1697.55 443.199 C 1702.73 446.653 1706.98 451.033 1709.8 456.629 C 1718.27 473.455 1718.94 507.844 1722.54 527.688 C 1742.55 543.311 1770.22 549.78 1787.77 568.244 C 1792.36 573.077 1795.73 578.693 1797.57 585.115 C 1803.12 604.474 1799.37 635.72 1799.12 656.4 C 1819.96 679.671 1849.59 693.077 1864.94 721.577 C 1865.74 746.681 1855.52 771.918 1852.4 796.766 C 1866.58 817.661 1888.15 834.499 1899.24 857.503 C 1901.72 862.653 1902.99 867.999 1902.64 873.73 C 1901.5 892.623 1884.22 927.14 1877.42 946.783 C 1886.61 970.097 1905.69 989.188 1914.38 1013.11 C 1916.02 1017.64 1917.11 1022.28 1916.43 1027.12 C 1913.7 1046.58 1885.42 1081.87 1876.35 1102.35 C 1876.21 1102.66 1876.08 1102.98 1875.95 1103.3 C 1885.54 1121.32 1897.75 1150.65 1902.26 1170.19 C 1903.63 1176.16 1904.02 1181.94 1901.96 1187.81 C 1895.39 1206.45 1864.52 1234.48 1852.98 1253.76 C 1852.77 1254.11 1852.56 1254.47 1852.36 1254.83 C 1855.96 1280 1863.79 1304.14 1865.87 1329.61 C 1853.31 1355.47 1812.71 1371.47 1799.84 1391.3 C 1797.29 1415.89 1802.54 1442.42 1796.31 1466.54 C 1791.68 1484.49 1762.02 1497.07 1747.09 1505.9 C 1741.2 1509.38 1735.03 1513.29 1731.07 1519 C 1721.66 1532.58 1719.53 1563.94 1715.06 1581.04 C 1713.41 1587.35 1711.23 1594.07 1706.69 1598.92 C 1694.35 1612.11 1654.69 1619.97 1637.01 1630.46 C 1636.65 1630.67 1636.3 1630.89 1635.95 1631.11 C 1621.79 1652.42 1618.01 1690.36 1601.1 1708.02 C 1584.49 1725.37 1540.96 1717.03 1522.51 1729.17 C 1503.94 1741.38 1494.81 1780.55 1475.55 1795.32 A 28.8385 28.8385 0 0 1 1468.96 1799.15 C 1449.06 1807.37 1408.4 1795.14 1391.58 1805.14 C 1384.89 1809.12 1379.82 1816.31 1374.83 1822.19 C 1362.02 1837.3 1349.06 1854.44 1332.01 1864.93 C 1306.7 1866 1279.46 1857.72 1254.53 1853.48 C 1228.63 1863.22 1210.79 1895.09 1179.74 1904.16 C 1152.75 1898.04 1128.12 1885.31 1101.52 1878.42 C 1075.48 1888.02 1052.63 1905.6 1026.2 1915.07 C 1007.7 1919.18 968.166 1882.37 947.445 1879.82 C 932.743 1878.01 895.436 1898.51 876.169 1901.26 C 847.968 1905.28 827.554 1873.47 807.059 1858.91 C 802.5 1855.67 797.661 1852.9 792.029 1852.16 C 778.267 1850.35 753.67 1858.82 738.727 1861 C 731.045 1862.13 722.388 1863.38 714.718 1861.7 C 690.205 1856.32 674.162 1816.35 654.142 1801.83 C 653.831 1801.6 653.513 1801.39 653.198 1801.17 C 630.025 1799.87 602.44 1804.66 580.19 1799.57 C 553.014 1793.37 547.856 1737.74 525.947 1725.87 C 512.656 1718.67 477.306 1719.84 458.57 1712.87 C 431.368 1702.76 430.495 1658.1 419.54 1634.85 C 419.354 1634.46 419.159 1634.07 418.968 1633.68 C 398.311 1621.87 372.455 1620.63 351.471 1609.02 C 345.581 1605.77 340.567 1601.65 337.322 1595.65 C 327.961 1578.36 329.021 1542.37 322.69 1521.65 C 322.577 1521.28 322.455 1520.91 322.338 1520.55 C 303.09 1504.43 271.913 1498.66 253.209 1480.37 C 249.009 1476.26 246.085 1471.37 244.944 1465.57 C 242.548 1453.41 245.556 1438.41 246.547 1426.11 A 353.379 353.379 0 0 0 247.954 1389.45 C 231.036 1371.78 205.61 1361.55 190.34 1341.97 C 186.788 1337.42 184.639 1332.38 184.253 1326.6 C 183.332 1312.77 189.251 1296.33 192.141 1282.78 C 194.233 1272.97 195.795 1263.16 197.195 1253.24 C 181.987 1232.52 160.117 1214.7 147.775 1192.03 C 145.436 1187.73 144.434 1183.44 144.878 1178.56 C 146.535 1160.35 165.522 1122.19 171.748 1101.92 C 159.893 1075.23 140.997 1051.56 131.739 1023.7 C 140.615 994.793 161.151 971.36 171.523 943.256 C 164.197 921.132 151.992 900.582 145.758 878.078 C 144.575 873.805 143.378 868.583 144.541 864.183 C 149.766 844.401 184.988 816.006 196.057 795.931 C 196.225 795.626 196.381 795.315 196.544 795.007 C 193.411 771.442 182.035 746.905 182.779 723.118 C 182.927 718.363 183.93 714.314 186.459 710.254 C 198.328 691.193 231.263 672.409 248.881 656.645 C 248.935 634.482 244.431 607.862 248.581 586.413 C 249.725 580.501 252.042 575.013 256.093 570.506 C 269.102 556.034 306.643 540.481 324.726 528.699 C 328.702 507.037 327.286 484.56 334.039 463.31 C 345.577 426.999 395.958 435.731 414.76 416.647 C 427.963 403.244 431.16 359.572 447.158 343.309 C 462.642 327.569 513.516 332.425 527.822 320.941 C 541.827 309.7 552.495 273.969 566.449 258.489 C 570.089 254.452 574.099 251.599 579.292 249.927 C 597.338 244.12 634.147 247.648 654.791 246.749 C 675.578 234.844 687.297 198.787 714.032 183.327 C 742.184 181.465 768.286 191.868 795.85 193.626 C 820.389 183.246 839.429 151.479 864.191 144.857 C 888.09 138.465 929.106 171.875 950.91 166.446 C 964.466 163.071 978.145 152.912 990.348 146.246 C 1000.64 140.623 1011.2 135.707 1021.92 130.962 z"/>
<path transform="translate(0,0)" fill="rgb(254,254,254)" d="M 981.148 211.571 A 215.6 215.6 0 0 1 984.654 211.338 C 1195.66 198.614 1409.97 280.923 1566.96 420.452 C 1722.03 558.285 1824.66 766.993 1836.52 974.398 C 1849.23 1196.61 1775.58 1399.86 1627.77 1565.44 A 815.893 815.893 0 0 1 1067.25 1834.94 C 901.469 1839.94 750.08 1805.2 607.238 1719.59 A 775.92 775.92 0 0 1 497.287 1641.32 A 821.169 821.169 0 0 1 211.766 1072.14 A 799.153 799.153 0 0 1 346.291 575.2 C 365.574 546.598 387.907 519.02 410.508 492.983 A 821.87 821.87 0 0 1 981.148 211.571 z"/>
<path transform="translate(0,0)" fill="rgb(216,65,66)" d="M 1002.58 239.445 C 1198.12 230.535 1401.1 307.536 1546.05 438.038 A 786.022 786.022 0 0 1 1807.26 984.792 C 1818.12 1196.45 1742.24 1396.22 1600.5 1552.98 A 784.534 784.534 0 0 1 1216.16 1785.01 A 868.719 868.719 0 0 1 1047.88 1808.88 C 831.455 1811.1 641.807 1738.07 482.864 1590.89 C 336.013 1454.9 246.889 1251.02 239.495 1051.7 A 773.592 773.592 0 0 1 365.382 597.567 C 392.365 556.78 422.993 519.79 456.261 484.048 A 784.369 784.369 0 0 1 1002.58 239.445 z"/>
<path transform="translate(0,0)" fill="rgb(254,254,254)" d="M 999.937 262.433 A 221.377 221.377 0 0 1 1002.49 262.289 C 1191.49 252.64 1394.64 333.339 1533.98 459.441 A 770.226 770.226 0 0 1 1784.67 991.76 A 756.977 756.977 0 0 1 1587 1533.97 A 766.654 766.654 0 0 1 1050.17 1785.74 A 765.869 765.869 0 0 1 515.129 1587.37 A 769.489 769.489 0 0 1 278.457 1175.32 C 271.322 1141.37 266.051 1107.19 264.289 1072.51 C 253.751 865.118 316.62 672.839 456.897 517.947 A 773.435 773.435 0 0 1 890.475 274.185 A 839.013 839.013 0 0 1 999.937 262.433 z"/>
<path transform="translate(0,0)" fill="rgb(60,60,60)" d="M 1006.55 278.44 C 1199.11 272.257 1386.87 348.253 1528.51 476.957 A 750.902 750.902 0 0 1 1768.69 991.005 A 744.349 744.349 0 0 1 1576.3 1522.17 A 757.518 757.518 0 0 1 1043.84 1769.8 C 850.04 1777.32 656.269 1697.59 514.95 1566.8 A 743.17 743.17 0 0 1 279.299 1049.68 A 727.663 727.663 0 0 1 477.659 519.226 A 748.663 748.663 0 0 1 1006.55 278.44 z"/>
<path transform="translate(0,0)" fill="rgb(254,254,254)" d="M 991.072 307.424 A 149.965 149.965 0 0 1 996.128 307.114 A 719.998 719.998 0 0 1 1514.03 502.921 A 718.104 718.104 0 0 1 1738.65 1000.98 A 709.512 709.512 0 0 1 1550.17 1507.18 C 1422.96 1642.63 1244.18 1733.73 1056.75 1739.39 C 868.994 1747.62 692.249 1682.19 551.229 1558.8 A 717.724 717.724 0 0 1 309.319 1071.42 A 703.784 703.784 0 0 1 482.13 558.633 C 614.862 406.97 790.07 320.658 991.072 307.424 z"/>
<path transform="translate(0,0)" fill="rgb(60,60,60)" d="M 1384.12 1468.95 C 1390.79 1468.82 1397.29 1469.37 1403.13 1472.88 C 1409.21 1476.53 1413.23 1482.15 1414.81 1489.05 C 1416.81 1497.81 1414.54 1506.79 1409.77 1514.22 C 1402.08 1520.35 1393.79 1519.13 1384.56 1518.72 C 1383.67 1502.19 1384.1 1485.51 1384.12 1468.95 z"/>
<path transform="translate(0,0)" fill="rgb(60,60,60)" d="M 1001.99 320.445 C 1017.66 319.706 1033.52 320.174 1049.19 320.751 A 707.744 707.744 0 0 1 1536.09 543.484 A 705.632 705.632 0 0 1 1724.92 1059.56 A 700.931 700.931 0 0 1 1558.66 1478.48 C 1531.44 1510.25 1500.36 1538.21 1469.69 1566.55 C 1450.12 1554.13 1434.51 1536.37 1418.44 1519.88 C 1421.84 1516.83 1425.28 1513.72 1428.45 1510.43 C 1434.96 1503.67 1441.57 1493.95 1441.17 1484.21 C 1440.93 1478.61 1438.16 1473.89 1434.01 1470.25 C 1418.69 1456.81 1389.4 1459.95 1370.42 1459.95 C 1362.57 1459.94 1353.99 1459.19 1346.21 1460.08 C 1343.41 1460.4 1342.94 1460.14 1341.22 1462.34 C 1343.87 1465.03 1351.22 1464.44 1355.12 1466.48 C 1358.71 1471.62 1357.17 1556.67 1355.87 1566.72 C 1351.97 1571.44 1342.89 1570.98 1337.23 1573.21 C 1336.9 1573.35 1336.57 1573.48 1336.24 1573.62 C 1347.6 1574.31 1395.74 1576.05 1404.29 1571.84 C 1398.47 1570.75 1392.59 1570.33 1386.71 1569.82 C 1384.05 1556.19 1384.92 1541.75 1384.96 1527.93 C 1389.58 1527.91 1394.12 1528.24 1398.72 1528.62 C 1404.82 1536.44 1410.86 1544.4 1417.31 1551.94 C 1429.77 1566.5 1441.33 1573.05 1460.57 1574.53 C 1354.95 1652.03 1263.37 1696.55 1133.76 1719.51 C 960.273 1745.06 800.7 1711.49 651.583 1618.88 C 629.369 1605.09 608.458 1589.62 587.365 1574.2 C 614.157 1573.14 640.828 1575.73 667.54 1574.94 C 669.296 1568.95 670.41 1562.06 670.655 1555.82 C 670.752 1553.37 670.886 1551.62 669.156 1549.78 C 665.787 1551.69 663.598 1558.24 661.276 1561.7 L 660.602 1562.69 C 647.253 1564.48 633.297 1565.15 620.11 1562.04 C 619.796 1534.88 617.034 1489.92 621.211 1464.7 C 624.529 1464.24 629.501 1463.94 631.628 1461.21 C 624.062 1458.1 583.213 1459.71 573.471 1461.01 C 579.268 1462.77 585.364 1463.66 591.314 1464.79 C 593.327 1484.23 592.325 1504.52 592.22 1524.07 C 592.144 1538.08 593.309 1553.69 590.777 1567.44 C 589.194 1569.02 588.456 1569.64 585.977 1569.45 C 577.868 1568.84 563.674 1553.76 557.555 1548.13 C 536.157 1528.44 515.295 1508.25 496.11 1486.38 A 701.152 701.152 0 0 1 321.238 1048.93 A 690.244 690.244 0 0 1 500.773 556.984 C 634.23 412.598 804.417 328.163 1001.99 320.445 z"/>
<path transform="translate(0,0)" fill="rgb(254,254,254)" d="M 681.974 1460.46 C 691.835 1459.35 723.793 1459.19 733.383 1460.4 C 735.228 1460.64 736.11 1460.47 737.273 1462.03 C 733.675 1464.47 729.341 1464.87 725.141 1465.67 C 723.645 1476.6 721.691 1561.23 725.832 1568.22 C 730.418 1570.69 735.792 1570.23 740.841 1571.32 L 741.732 1571.51 C 740.317 1573.22 739.876 1573.6 737.5 1573.94 C 729.673 1575.05 689.754 1575.55 684.592 1572.24 C 687.413 1570.14 691.327 1570.11 694.736 1569.69 C 698.503 1538.72 696.054 1497.41 695.892 1465.68 C 690.662 1464.36 685.756 1464.58 681.974 1460.46 z"/>
<path transform="translate(0,0)" fill="rgb(254,254,254)" d="M 850.999 1456.35 C 875.29 1461.96 939.662 1461.25 964.286 1456.92 C 963.935 1463.75 964.544 1478.5 960.327 1483.56 L 958.415 1482.18 C 957.811 1480.02 957.079 1478 956.234 1475.92 C 948.549 1468.48 931.32 1470.77 921.241 1470.85 C 921.103 1500.49 918.99 1536.37 921.705 1565.5 C 925.497 1570.94 933.479 1570.01 939.498 1571.18 L 939.977 1572.46 C 934.733 1575.5 887.943 1574.39 879.633 1573.27 L 878.956 1572.1 C 881.759 1569.81 887.203 1569.77 890.752 1569.26 C 892.37 1567.62 892.567 1566.89 892.876 1564.51 C 894.114 1554.98 893.122 1544.16 893.106 1534.5 L 892.984 1470.04 C 884.818 1470.16 876.139 1469.49 868.037 1470.32 C 861.297 1471.02 855.697 1473.81 851.353 1479.02 L 845.058 1486.51 C 846.734 1476.4 848.929 1466.38 850.999 1456.35 z"/>
<path transform="translate(0,0)" fill="rgb(254,254,254)" d="M 806.838 1457.43 C 816.054 1457.08 824.853 1458.45 833.827 1460.39 C 832.859 1470.37 832.358 1480.22 830.946 1490.18 C 829.504 1484.72 828.294 1478.55 824.507 1474.16 C 820.001 1468.93 812.012 1467.93 805.49 1467.58 C 799.174 1467.25 793.399 1469.1 788.757 1473.47 C 786.454 1475.64 784.727 1478.34 785.117 1481.65 C 786.789 1495.88 816.062 1506.43 826.206 1516.41 C 832.799 1522.9 838.243 1531.72 838.074 1541.26 C 837.919 1549.98 832.934 1558.37 826.559 1564.08 C 813.505 1575.78 793.998 1576.51 777.464 1575.95 C 770.468 1574.72 763.824 1573.21 757.04 1571.09 C 757.578 1564.76 757.888 1545.64 762.736 1541.42 C 765.158 1544.25 764.907 1548.42 765.059 1552.03 C 767.022 1555.18 769.205 1558.08 772.064 1560.48 C 777.863 1565.35 785.1 1566.73 792.495 1566.18 C 798.397 1565.74 805.436 1563.89 809.252 1558.98 C 811.955 1555.51 813.459 1550.09 812.752 1545.72 C 810.516 1531.93 787.666 1524.08 777.347 1516.38 C 769.67 1510.64 762.849 1503.06 761.527 1493.21 C 760.535 1485.82 762.606 1476.66 767.408 1470.85 C 776.646 1459.68 793.416 1458.32 806.838 1457.43 z"/>
<path transform="translate(0,0)" fill="rgb(254,254,254)" d="M 1050.35 1458.59 C 1053.92 1458.17 1056.74 1457.32 1059.98 1458.99 C 1060.9 1462.28 1056.35 1478.69 1054.48 1482.26 L 1052.91 1482.57 C 1051.84 1478.65 1052.08 1475.52 1049.55 1472.28 C 1039.85 1468.66 1027.35 1469.78 1017.08 1469.68 L 1017.07 1507.5 C 1031.07 1507.89 1043.96 1507.4 1057.55 1503.76 C 1055.9 1511.41 1056.7 1526.66 1051.95 1532.48 L 1049.91 1530.41 L 1050.21 1531.05 C 1049.75 1526.88 1050.62 1522.71 1048.04 1519.38 C 1039.21 1515.22 1026.67 1516.87 1017.05 1517.02 C 1017.15 1526.32 1013.33 1552.63 1019.52 1559.36 C 1022.41 1562.52 1027.1 1563.44 1031.19 1563.65 C 1041.05 1564.15 1050.48 1564.2 1058.22 1557.44 C 1059.17 1554.28 1059.96 1551.73 1061.9 1549.04 L 1063.04 1549.11 C 1063.66 1553.35 1063.73 1557.53 1063.49 1561.79 C 1063.26 1566.03 1062.18 1570.05 1058.71 1572.79 C 1056.96 1574.17 1054.23 1574.74 1052.06 1574.94 C 1044.9 1575.63 1037.27 1574.07 1030.04 1573.93 C 1013.04 1573.6 993.615 1576.16 976.928 1573.03 L 976.193 1571.83 C 979.451 1569.16 984.505 1570.74 987.955 1567.67 C 991.598 1557.18 989.851 1479.49 988.234 1465.51 L 988.056 1464.04 C 983.538 1463.97 978.673 1464.79 975.286 1461.43 C 975.602 1461.07 975.808 1460.57 976.235 1460.35 C 978.426 1459.26 1039.78 1459.79 1050.35 1458.59 z"/>
<path transform="translate(0,0)" fill="rgb(254,254,254)" d="M 1322.07 1457.52 L 1322.46 1458.23 C 1321.33 1464.91 1320.92 1481 1318.39 1486.05 L 1317.02 1486.5 C 1314.35 1484.63 1314.29 1479.51 1313.71 1476.25 C 1307.22 1469.94 1288.71 1471.3 1279.75 1471.07 C 1279.23 1483.3 1279.47 1495.67 1279.37 1507.92 C 1288.89 1508.06 1305.95 1510.46 1314.2 1505.87 C 1315.31 1505.26 1316.2 1504.99 1317.44 1504.76 C 1318.73 1509.47 1317.85 1524.67 1316.19 1529.48 C 1315.55 1531.34 1316.04 1530.74 1314.43 1531.56 C 1311.53 1528.71 1313.49 1524.64 1311.25 1522.25 C 1306.15 1516.82 1287.45 1518.26 1279.98 1518.18 C 1279.99 1530.36 1277.64 1546.3 1281.67 1557.82 C 1284.05 1560.1 1286.2 1561.16 1289.42 1561.94 C 1298.25 1564.08 1310.58 1563.75 1318.28 1558.59 C 1323.26 1555.25 1323.66 1550.62 1324.76 1545.2 L 1327.26 1546.57 C 1327.74 1547.78 1327.86 1547.91 1328.08 1549.4 C 1328.71 1553.75 1327.15 1568.69 1324.11 1571.83 C 1322.55 1573.44 1319.88 1574.03 1317.72 1574.16 C 1310.58 1574.6 1241.39 1574.89 1239.19 1573.81 C 1238.58 1573.51 1238.17 1572.9 1237.67 1572.45 L 1238.09 1571.2 C 1241.49 1569.64 1246.05 1569.95 1249.76 1569.78 C 1251.94 1553.93 1253.67 1480.62 1249.03 1468.21 C 1244.16 1463.15 1235.13 1463.93 1228.66 1462.13 L 1227.42 1461.78 C 1254.81 1455.34 1293.14 1465.62 1322.07 1457.52 z"/>
<path transform="translate(0,0)" fill="rgb(216,65,66)" d="M 485.95 987.509 C 491.574 995.868 498.84 1021.16 502.787 1031.86 L 551.499 1032.26 C 539.516 1043.47 526.814 1053.5 513.761 1063.42 C 517.549 1079.79 522.631 1095.78 525.887 1112.28 C 512.605 1103.15 499.539 1093.65 486.42 1084.28 C 482.441 1084.56 452.357 1106.61 446.032 1110.62 C 449.871 1094.46 454.697 1078.56 458.375 1062.33 A 3273.62 3273.62 0 0 0 419.756 1033.22 A 3989.98 3989.98 0 0 1 469.917 1031.93 C 474.431 1016.87 480.363 1002.21 485.95 987.509 z"/>
<path transform="translate(0,0)" fill="rgb(216,65,66)" d="M 1560.47 983.507 C 1564.93 987.84 1575.91 1020.13 1579.95 1028.95 C 1597.26 1029 1614.56 1030.49 1631.85 1031.29 A 1352.38 1352.38 0 0 0 1591.77 1064.17 C 1596.76 1080.73 1600.71 1097.63 1604.92 1114.4 C 1590.57 1105.82 1576.49 1096.69 1562.31 1087.82 L 1561.57 1087.53 C 1555.57 1087.89 1526.33 1109.62 1518.91 1114.49 A 2216.74 2216.74 0 0 0 1530.73 1065.18 C 1518.66 1052.75 1504.55 1041.44 1490.73 1031 C 1507.63 1031.3 1524.85 1029.68 1541.7 1028.25 C 1548.25 1013.47 1553.83 998.273 1560.47 983.507 z"/>
<path transform="translate(0,0)" fill="rgb(254,254,254)" d="M 1095.57 1457.45 C 1106.38 1463.01 1117.34 1474.79 1126.82 1482.68 C 1147.3 1499.73 1169.03 1514.85 1187 1534.7 C 1184.45 1519.89 1189.11 1476.35 1183.18 1466.55 C 1181.65 1464.02 1166.72 1462.85 1162.83 1461.83 L 1161.47 1461.46 C 1175.47 1458.87 1207.39 1458.83 1221.88 1460.39 L 1223.04 1462 C 1220.75 1464.71 1216.93 1463.82 1213.86 1465.84 C 1210.12 1474.37 1212.98 1557.53 1212.83 1573.78 L 1212.29 1574.24 L 1212.56 1575.35 C 1210.85 1575.44 1209.68 1574.01 1208.32 1573.03 C 1178.6 1546.93 1144.32 1527.34 1116.6 1498.8 C 1120.1 1522.3 1117.59 1546.27 1121.51 1569.7 C 1126.93 1570.07 1131.75 1570.34 1136.87 1572.42 L 1136.84 1573.15 C 1122.28 1574.75 1092.59 1574.99 1078.24 1572.71 L 1078.47 1571.98 C 1083.32 1569.82 1087.5 1569.88 1092.67 1569.89 C 1096.65 1532.57 1092.5 1494.71 1095.57 1457.45 z"/>
<path transform="translate(0,0)" fill="rgb(254,254,254)" d="M 560.536 1232.99 C 569.633 1232.4 649.352 1231.92 652.532 1233.28 C 653.121 1233.53 653.545 1234.06 654.051 1234.46 L 653.962 1236.61 C 648.176 1241.33 638.491 1237.88 632.001 1242.98 C 628.871 1245.43 627.695 1249.26 627.431 1253.08 C 626.211 1270.77 627.239 1289.23 627.169 1307.01 C 627.084 1328.79 625.661 1351.59 627.754 1373.22 C 628.064 1376.42 628.347 1380.16 630.626 1382.58 C 636.412 1388.72 649.301 1388.66 657.233 1388.91 C 667.385 1389.22 693.333 1390.79 697.678 1378.85 C 699.767 1373.11 699.979 1368.53 704.693 1364.08 L 706.145 1364.39 C 707.225 1367.84 706.914 1370.69 706.6 1374.26 C 705.467 1384.24 704.366 1394.18 700.815 1403.64 C 672.657 1405.95 643.472 1402.2 615.185 1402.02 C 603.87 1401.95 575.032 1404.29 566.558 1402.82 C 565.659 1400.95 565.515 1401.48 566.183 1399.26 C 572.14 1396.52 579.674 1396.19 586.087 1394.39 C 588.37 1382.84 590.805 1257.33 587.67 1247.08 C 584.829 1237.79 569.224 1240.89 562.417 1237.14 C 560.962 1236.34 560.97 1234.49 560.536 1232.99 z"/>
<path transform="translate(0,0)" fill="rgb(254,254,254)" d="M 1314.79 1232.07 C 1327.37 1232 1407.44 1230.59 1411.69 1233.18 C 1413.04 1234.01 1412.83 1234.62 1413.17 1236.03 C 1409.37 1239.37 1395.7 1238.15 1388.99 1242.24 C 1386.28 1245.5 1385.83 1250.58 1385.41 1254.69 C 1383.54 1273 1384.62 1292.39 1384.61 1310.84 C 1384.58 1335.06 1383.73 1359.67 1385.12 1383.84 A 96.2249 96.2249 0 0 0 1390.94 1385.02 C 1400.97 1386.72 1443.22 1390.38 1449.36 1379.78 C 1452.28 1374.74 1453.42 1366.94 1458.15 1363.55 C 1459.6 1365.91 1459.26 1367.03 1459.2 1369.76 C 1458.89 1380.06 1457.64 1390.99 1455.62 1401.09 C 1426.73 1403.5 1396.97 1399.72 1367.93 1400.22 C 1360.75 1400.34 1331.48 1402.65 1326.47 1401.13 C 1324.99 1400.67 1325.07 1399.94 1324.47 1398.67 C 1325.93 1397.34 1325.35 1397.52 1327.01 1397.1 C 1332.08 1395.81 1338.53 1395.22 1341.41 1390.14 C 1344.29 1385.05 1344.63 1255.3 1341.9 1246.88 C 1337.97 1234.77 1323.79 1241.51 1316.16 1236.6 C 1314.84 1235.76 1315.02 1233.51 1314.79 1232.07 z"/>
<path transform="translate(0,0)" fill="rgb(254,254,254)" d="M 1047.59 1310.02 C 1055.02 1297.3 1085.25 1252.72 1082.63 1241.07 C 1079.75 1237.64 1076.04 1237.44 1071.79 1236.69 L 1070.65 1235.01 L 1071.39 1232.37 C 1079.28 1231.25 1133.96 1230.85 1139.18 1232.8 C 1141.03 1233.5 1140.36 1233.07 1141.37 1235.02 C 1135.34 1238.47 1126.96 1238.23 1120.69 1241.51 C 1107.42 1248.44 1092.03 1273.32 1083.3 1285.59 C 1075.98 1296.55 1064.9 1307.61 1059.69 1319.59 C 1056.15 1327.72 1055.49 1383.12 1059.76 1390.54 C 1063.64 1397.28 1073.81 1395.42 1080.37 1396.83 L 1081.1 1398.47 L 1079.61 1400.24 C 1077.71 1400.83 1076.06 1401.23 1074.06 1401.29 C 1061.68 1401.63 1048.93 1400.15 1036.48 1400.03 C 1023.62 1399.91 1010.37 1401.35 997.579 1400.38 C 995.727 1400.24 996.259 1400.26 994.342 1399.32 C 999.375 1394.01 1008.95 1397.39 1013.71 1392.73 C 1019.37 1387.19 1017.08 1335.03 1017 1324.07 C 1003.05 1301.36 982.851 1270.65 964.329 1251.99 C 956.362 1243.97 948.519 1237.65 936.699 1237.65 L 935.357 1237.66 C 932.694 1236.07 932.952 1235.13 932.1 1232.24 C 942.9 1232.06 1016.61 1230.25 1021.67 1233.65 C 1021.25 1236.5 1012.5 1237.34 1010.86 1242.38 C 1009.96 1245.14 1010.79 1248.2 1011.88 1250.77 C 1015.47 1259.35 1021.86 1267.75 1026.87 1275.61 C 1034.08 1286.94 1041.02 1298.31 1047.59 1310.02 z"/>
<path transform="translate(0,0)" fill="rgb(254,254,254)" d="M 1198 1226.93 L 1211.02 1227.91 C 1229.05 1259.75 1243.84 1293.31 1259.94 1326.14 C 1270.17 1347.02 1282.77 1378.24 1299.05 1394.52 C 1304.82 1395.29 1310.19 1395.66 1315.18 1398.93 L 1315.04 1399.93 C 1310.85 1400.97 1237.39 1401.46 1232.06 1400.6 L 1231.18 1398.21 C 1234.6 1395.5 1239.84 1396.76 1243.88 1395.1 C 1245.93 1394.26 1245.99 1393.53 1246.82 1391.63 C 1244.52 1379.32 1234.31 1360.61 1227.74 1349.69 L 1227.04 1348.54 C 1223.3 1348.25 1219.5 1348.26 1215.75 1348.14 A 2358.26 2358.26 0 0 1 1165.02 1348.08 C 1160.61 1358.19 1146.66 1383.45 1150.17 1393.28 C 1151.91 1398.16 1159.78 1395.81 1163.59 1397.77 C 1164.67 1398.32 1164.34 1398.26 1164.62 1399.59 C 1164.32 1399.78 1164.04 1400 1163.72 1400.16 C 1159.79 1402.1 1106.66 1402.03 1101.1 1400.04 L 1100.63 1398.48 C 1104.45 1394.79 1109.33 1394.64 1114.35 1393.79 L 1114.77 1393.42 C 1119.14 1389.68 1122.12 1385.65 1125.1 1380.8 C 1135.89 1363.2 1144.15 1343.61 1152.98 1324.96 A 3734.16 3734.16 0 0 0 1198 1226.93 z"/>
<path transform="translate(0,0)" fill="rgb(60,60,60)" d="M 1195.29 1276.77 C 1202.8 1284.64 1216.62 1322.13 1222.09 1334.53 L 1200.5 1334.42 L 1172.12 1334.34 C 1179.22 1314.98 1187.7 1295.96 1195.29 1276.77 z"/>
<path transform="translate(0,0)" fill="rgb(216,65,66)" d="M 437.929 1161.49 L 1259.02 1161.32 C 1389.75 1161.4 1520.67 1159.92 1651.38 1161.87 L 1651.08 1175.55 L 1621.25 1175.58 L 856.105 1175.5 L 566.029 1175.67 A 7898.12 7898.12 0 0 0 409.107 1175.9 L 408.98 1161.68 L 437.929 1161.49 z"/>
<path transform="translate(0,0)" fill="rgb(254,254,254)" d="M 825.148 1229.42 C 853.97 1227.67 884.105 1233.34 907.622 1250.88 C 924.406 1263.41 935.889 1281.71 938.803 1302.55 C 941.833 1324.22 936.887 1347.12 923.414 1364.58 C 903.113 1390.88 872.924 1400.97 841.21 1404.94 C 809.815 1406.34 776.798 1401.95 751.708 1381.39 C 734.967 1367.67 724.842 1348.78 722.83 1327.2 C 720.779 1305.2 725.834 1284.21 740.261 1267.16 C 761.604 1241.93 793.146 1231.87 825.148 1229.42 z"/>
<path transform="translate(0,0)" fill="rgb(60,60,60)" d="M 816.551 1244.32 C 833.185 1242.36 849.901 1246.22 863.496 1256.09 C 880.322 1268.31 889.719 1287.09 892.965 1307.33 C 896.27 1327.92 893.992 1351.9 881.29 1369.12 C 871.195 1382.81 858.479 1388.23 842.232 1390.8 C 824.44 1391.83 808.471 1388.07 794.074 1377.24 C 777.286 1364.61 767.914 1344.55 764.988 1324.09 C 762.061 1303.63 764.536 1280.39 777.561 1263.59 C 787.603 1250.64 801.108 1246.49 816.551 1244.32 z"/>
<path transform="translate(0,0)" fill="rgb(254,254,254)" d="M 997.068 372.585 A 289.171 289.171 0 0 1 1047.72 372.932 A 265.111 265.111 0 0 1 1228.02 469.523 A 390.654 390.654 0 0 1 1295.97 593.586 C 1298.41 601.115 1302.47 610.634 1301.39 618.602 C 1300.36 626.202 1295.34 629.954 1289.76 634.418 C 1290.25 645.656 1299.18 661.921 1302.36 673.55 C 1308 694.164 1311.75 714.644 1314.89 735.77 A 87.6754 87.6754 0 0 1 1338.62 756.413 C 1361.42 784.833 1368.58 821.417 1364.39 857.074 C 1359.88 895.405 1342.69 944.737 1311.24 969.371 C 1298.85 979.071 1284.06 985.021 1268.1 982.962 C 1256.52 981.469 1232.67 974.02 1225.9 963.994 C 1223.23 960.033 1223.54 953.999 1223.83 949.419 C 1224.61 937.268 1227.06 924.869 1228.75 912.777 A 3866.26 3866.26 0 0 1 1239.8 837.625 C 1244.96 804.306 1248.41 769.752 1255.86 736.912 C 1257.32 735.478 1258.8 733.997 1260.43 732.763 C 1269.43 725.964 1284.9 729.334 1295.37 730.439 C 1290.96 697.41 1282.74 666.035 1270.01 635.232 C 1266.59 636.08 1263.54 636.626 1260.03 635.991 C 1253.48 634.81 1249.15 631.596 1245.86 625.855 C 1238.77 613.519 1235.67 597 1230.76 583.518 A 374.332 374.332 0 0 0 1184.03 495.47 C 1151.52 450.705 1102.5 414.251 1047.25 405.365 A 193.739 193.739 0 0 0 1030.42 403.87 C 933.957 400.162 858.089 475.353 820.045 557.862 C 814.723 569.403 799.875 611.652 792.683 617.344 C 787.481 621.46 780.687 620.247 774.535 619.779 C 764.746 656.979 753.891 694.621 750.51 733.098 C 758.337 731.724 766.707 730.356 774.653 731.369 C 780.612 732.128 786.234 734.388 789.773 739.449 C 791.815 742.371 792.944 745.804 793.755 749.244 C 796.206 759.649 796.897 770.899 798.496 781.494 A 3322.25 3322.25 0 0 1 817.807 920.001 C 819.264 931.876 824.193 956.439 821.947 967.614 C 821.207 971.292 817.925 974.496 814.893 976.445 C 800.594 985.633 775.118 986.816 758.976 982.755 C 734.979 976.717 715.779 956.12 703.596 935.524 C 681.353 897.918 673.745 843.124 684.788 800.844 C 691.867 773.744 706.347 752.674 730.467 738.367 C 732.93 705.566 740.285 671.99 748.511 640.186 C 749.253 637.318 755.332 616.88 754.672 615.389 C 752.174 609.743 745.093 608.461 744.515 599.963 C 744.074 593.469 748.645 584.355 750.839 578.226 C 765.312 537.794 785.366 502.595 812.775 469.589 A 272.827 272.827 0 0 1 997.068 372.585 z"/>
<path transform="translate(0,0)" fill="rgb(254,254,254)" d="M 1018.67 735.446 C 1054.34 732.304 1096.58 747.267 1127.52 764.052 C 1137.71 752.875 1148.4 742.767 1160.02 733.088 C 1153.7 746.392 1145.26 759.127 1137.53 771.657 C 1148.47 780.688 1158.52 789.978 1167.95 800.603 A 180.117 180.117 0 0 1 1213.07 933.116 C 1209.57 989.886 1185.63 1034.38 1143.34 1071.66 C 1154.88 1073.34 1165.55 1076.25 1174.66 1083.95 C 1183.98 1091.83 1186.2 1100.3 1187.24 1111.83 C 1163.76 1111.91 1136.28 1113.99 1113.22 1111.06 L 1112.34 1108.85 C 1112.91 1102.14 1115.57 1096.85 1118.87 1091.13 C 1106.75 1097.33 1094.79 1102.68 1081.8 1106.82 A 100.967 100.967 0 0 1 1076.62 1108.48 A 189.342 189.342 0 0 1 934.636 1092.98 C 935.378 1099.31 935.816 1105.57 936.061 1111.95 C 926.401 1112.08 869.8 1113.58 865.401 1110.9 C 864.224 1105.78 865.332 1100.04 867.544 1095.33 C 874.116 1081.34 888.474 1076.13 901.931 1071.15 C 861.972 1034.84 838.11 994.187 834.322 939.315 C 830.887 889.544 845.609 838.529 878.902 800.766 C 915.331 759.446 964.392 738.989 1018.67 735.446 z"/>
<path transform="translate(0,0)" fill="rgb(60,60,60)" d="M 1093.92 770.671 C 1095.31 771.591 1094.64 770.932 1095.59 772.942 C 1094.76 780.893 1085.51 790.05 1080.63 796.35 C 1079.68 795.203 1077.77 793.564 1077.67 792.055 C 1077.23 785.229 1089.28 775.276 1093.92 770.671 z"/>
<path transform="translate(0,0)" fill="rgb(60,60,60)" d="M 1096.3 1038.45 C 1098.54 1038.52 1099.7 1038.58 1101.72 1039.72 C 1107.5 1042.97 1112.12 1048.06 1113.72 1054.49 C 1112.85 1057.8 1112.04 1058.26 1109.61 1060.55 C 1105.68 1060.74 1103.75 1060.53 1100.5 1058.22 C 1096.38 1055.29 1093.03 1051.29 1092.61 1046.03 C 1092.37 1043 1094.58 1040.72 1096.3 1038.45 z"/>
<path transform="translate(0,0)" fill="rgb(60,60,60)" d="M 888.004 832.763 C 892.342 832.645 895.645 834.293 899.36 836.429 C 903.269 838.677 905.012 841.434 906.145 845.704 C 905.864 849.138 904.229 851.254 902.386 854.028 C 897.628 854.099 894.704 853.202 890.78 850.402 C 887.344 847.951 884.389 844.42 884.207 840.005 C 884.076 836.829 886.026 834.918 888.004 832.763 z"/>
<path transform="translate(0,0)" fill="rgb(60,60,60)" d="M 944.917 777.492 C 947.308 777.513 949.479 777.533 951.654 778.666 C 956.416 781.148 962.598 788.305 962.792 794.002 C 962.903 797.297 960.628 798.901 958.633 801.195 C 954.851 801.111 952.827 800.67 949.831 798.36 C 945.958 795.373 940.545 789.934 940.813 784.506 C 940.978 781.155 942.839 779.849 944.917 777.492 z"/>
<path transform="translate(0,0)" fill="rgb(60,60,60)" d="M 950.345 1037.64 C 950.651 1037.67 950.959 1037.67 951.263 1037.71 C 954.453 1038.16 956.422 1039.25 958.372 1041.77 C 958.871 1043.68 959.07 1045.08 958.508 1046.97 C 956.632 1053.31 950.714 1059.19 944.986 1062.14 C 942.548 1061.53 939.871 1060.76 938.015 1058.94 C 936.421 1057.36 935.811 1055.25 936.276 1053.07 C 937.583 1046.95 945.747 1041.41 950.345 1037.64 z"/>
<path transform="translate(0,0)" fill="rgb(60,60,60)" d="M 895.772 986.674 C 899.769 986.701 902.468 987.21 905.833 989.409 C 907.056 991.636 907.49 992.269 906.928 994.916 C 905.756 1000.44 899.697 1004.75 895.517 1007.94 C 894.814 1008.27 894.198 1008.61 893.415 1008.77 C 891.023 1009.26 886.936 1009.25 884.98 1007.89 C 884.201 1006.44 883.855 1005.01 884.015 1003.34 C 884.742 995.771 890.483 991.23 895.772 986.674 z"/>
<path transform="translate(0,0)" fill="rgb(60,60,60)" d="M 1146.92 985.906 C 1152.37 986.733 1157.95 989.805 1161.73 993.847 C 1163.83 996.089 1165.53 999.254 1165.11 1002.41 C 1164.7 1005.49 1162.32 1007.57 1160.22 1009.6 C 1153.69 1008.07 1146.32 1004.92 1142.43 999.155 C 1140.99 997.031 1140.39 994.574 1141.14 992.062 C 1142.03 989.044 1144.48 987.561 1146.92 985.906 z"/>
<path transform="translate(0,0)" fill="rgb(60,60,60)" d="M 1157.24 831.9 C 1161.44 832.584 1164.18 833.919 1167.01 837.07 C 1167.63 839.41 1168.04 840.315 1167.2 842.689 C 1165.01 848.892 1158.33 852.079 1152.81 854.623 C 1152.43 854.658 1152.05 854.734 1151.67 854.728 C 1149.15 854.687 1146.4 853.22 1144.66 851.426 C 1143.33 850.057 1142.97 847.451 1143.37 845.645 C 1144.98 838.386 1151.29 835.103 1157.24 831.9 z"/>
<path transform="translate(0,0)" fill="rgb(60,60,60)" d="M 864.288 913.08 C 873.156 912.838 884.147 911.389 892.144 915.661 C 892.997 916.793 893.921 917.443 893.89 918.939 C 893.819 922.367 891.072 924.835 888.779 927.06 C 881.8 927.271 867.905 929.029 862.109 924.996 C 859.816 923.401 859.893 922.733 859.483 920.157 C 860.68 916.999 861.857 915.407 864.288 913.08 z"/>
<path transform="translate(0,0)" fill="rgb(40,39,38)" d="M 1027.67 949.992 C 1030.06 980.095 1027.74 1011.15 1028.38 1041.38 L 1022.94 1038.99 C 1022.95 1009.59 1021.67 979.493 1023.77 950.179 L 1027.67 949.992 z"/>
<path transform="translate(0,0)" fill="rgb(60,60,60)" d="M 1153.58 913.035 C 1161.81 912.697 1178.84 910.926 1185.8 915.197 C 1188.22 916.684 1188.36 917.367 1189.17 919.919 C 1188.56 923.173 1187.41 924.477 1185.23 926.781 C 1177.26 927.301 1159.76 929.134 1153.07 925.062 C 1150.52 923.505 1150.41 922.836 1149.66 920.134 C 1150.35 916.886 1151.36 915.471 1153.58 913.035 z"/>
<path transform="translate(0,0)" fill="rgb(60,60,60)" d="M 1022.94 1038.99 L 1028.38 1041.38 L 1028.66 1054.99 C 1031.82 1058.46 1033.88 1062.23 1034.6 1066.91 C 1035.31 1071.57 1034.35 1078.16 1031 1081.74 C 1028.97 1083.91 1027.62 1084.42 1024.71 1084.69 C 1021.91 1083.87 1019.77 1082.77 1017.98 1080.35 C 1014.17 1075.21 1016.39 1066.22 1017.13 1060.29 L 1022.89 1054.89 L 1022.94 1038.99 z"/>
<path transform="translate(0,0)" fill="rgb(60,60,60)" d="M 1023.01 887.953 C 1022.98 873.015 1020.49 774.388 1022.5 769.519 C 1023.28 767.616 1024.76 766.164 1026.86 765.882 C 1028.02 765.727 1030.33 765.734 1031.15 766.733 C 1037.23 774.117 1035 864.269 1034.55 878.912 L 1032.24 883.111 L 1023.01 887.953 z"/>
<path transform="translate(0,0)" fill="rgb(216,65,66)" d="M 1034.55 878.912 C 1041.29 875.462 1048.86 863.859 1054.09 857.771 L 1114.74 786.791 C 1126.04 773.31 1137.17 756.372 1150.73 745.308 C 1133.4 779.975 1109.74 813.028 1087.94 845.012 C 1074.14 865.243 1060.84 886.36 1045.62 905.537 C 1038.79 899.45 1034.1 894.939 1024.67 894.387 C 1027.06 890.558 1029.71 886.854 1032.24 883.111 L 1034.55 878.912 z"/>
<path transform="translate(0,0)" fill="rgb(60,60,60)" d="M 1023.77 950.179 C 1022.37 949.605 1021.07 949.191 1019.59 948.886 C 1016.64 948.275 1013.61 947.777 1010.9 946.383 C 1005 943.354 1000.45 936.18 998.673 929.969 C 996.598 922.731 997.393 914.7 1001.31 908.209 C 1007.09 898.622 1014.55 896.967 1024.67 894.387 C 1034.1 894.939 1038.79 899.45 1045.62 905.537 C 1048.41 909.513 1050.1 913.305 1051.86 917.789 C 1079.37 918.286 1106.83 922.909 1134.26 924.857 C 1123.1 928.254 1065.85 928.592 1050.41 928.954 C 1046.67 938.035 1042.97 943.798 1033.5 947.8 C 1031.64 948.582 1029.41 949.061 1027.67 949.992 L 1023.77 950.179 z"/>
</svg>