<svg version="1.1" xmlns="http://www.w3.org/2000/svg" style="display: block;" viewBox="0 0 2048 2048" width="1024" height="1024">
<path transform="translate(0,0)" fill="rgb(254,254,254)" d="M 0 0 L 2048 0 L 2048 2048 L 0 2048 L 0 0 z"/>
<path transform="translate(0,0)" fill="rgb(72,71,71)" d="M 1022.62 98.7123 C 1029.29 100.255 1073.89 144.818 1084.9 152.992 C 1109.19 139.095 1131.29 121.092 1155.04 106.264 C 1172.76 126.581 1188.82 148.33 1206.37 168.804 C 1227.39 164.025 1263.25 143.759 1284.68 133.484 C 1296.9 157.475 1312.34 180.66 1326.35 203.676 C 1353.56 198.378 1380.87 190.039 1407.06 181.001 C 1415.58 206.468 1428.39 231.963 1440.03 256.186 C 1467.53 254.597 1496.43 251.414 1523.59 246.767 C 1530.11 272.483 1537.99 297.964 1545.69 323.351 C 1573.12 325.302 1600.89 325.234 1628.38 325.605 C 1631.41 353.335 1636.42 380.777 1641.59 408.175 C 1669.48 411.594 1697.08 416.931 1724.97 420.351 A 4758.41 4758.41 0 0 0 1726.05 503.144 C 1751.64 512.581 1779.45 518.223 1805.74 525.724 C 1800.75 550.687 1796.13 583.719 1794.7 608.875 C 1819.81 618.563 1844.28 631.128 1869.11 641.703 C 1862.12 668.3 1852.73 694.548 1844.64 720.858 C 1853.64 725.138 1862.19 731.186 1870.8 736.246 A 2536.95 2536.95 0 0 0 1917.47 762.724 C 1903.02 786.74 1892.94 813.185 1878.6 837.386 C 1899.66 856.537 1922.71 874.075 1944.8 892.057 L 1895.87 962.431 C 1915.83 981.875 1934.82 1003.08 1953.03 1024.16 C 1934.11 1044.99 1914.51 1065.09 1895.03 1085.38 C 1912.59 1108.03 1928.29 1133.12 1943.97 1157.14 C 1922.49 1175.79 1899.39 1193.08 1876.52 1210 C 1888.99 1235.75 1901.34 1261.95 1915.37 1286.89 A 4649.62 4649.62 0 0 1 1843.86 1328.78 C 1851.4 1355.76 1861.58 1382.62 1867.78 1409.89 C 1841.9 1418.58 1815.4 1428.9 1790.67 1440.44 C 1791.54 1453.2 1794.1 1466.1 1795.93 1478.77 C 1798.19 1494.33 1799.92 1509.95 1801.93 1525.54 C 1777.3 1534.81 1752.28 1542.05 1726.87 1548.84 L 1726.15 1632.22 A 4584.07 4584.07 0 0 0 1644.78 1643.32 C 1639.92 1670.44 1634.44 1697.64 1630.53 1724.91 A 6008.39 6008.39 0 0 0 1549.57 1724.37 C 1541.09 1751.39 1531.93 1778.19 1523.53 1805.25 C 1496.9 1799.61 1469.51 1795.99 1442.64 1791.51 C 1430.19 1817.79 1418.36 1844.36 1405.6 1870.51 C 1380.49 1860.89 1354.58 1852.91 1329.17 1844.07 C 1314.89 1867.39 1299.58 1890.15 1284.87 1913.21 C 1259.79 1901.65 1234.28 1890.2 1209.63 1877.78 A 1751.66 1751.66 0 0 0 1155.12 1940.92 C 1131.56 1925.88 1109.75 1908.28 1085.04 1895.05 A 1204.42 1204.42 0 0 0 1024.64 1949.42 C 1019.14 1947.79 971.355 1902.41 960.671 1894.85 C 941.803 1905.64 907.753 1927.4 892.098 1942.01 A 1023.49 1023.49 0 0 0 860.686 1903.07 C 852.74 1893.76 844.238 1884.84 836.679 1875.22 C 812.257 1888.17 787.182 1899.97 762.519 1912.46 A 2167.11 2167.11 0 0 0 717.427 1842.8 C 691.145 1849.36 665.012 1860.86 639.381 1869.86 C 629.71 1846.6 616.575 1811.96 604.312 1791.01 A 1773.27 1773.27 0 0 0 522.685 1804.42 C 515.88 1777.12 507.745 1750.23 499.798 1723.25 A 1209.34 1209.34 0 0 0 418.434 1724.94 C 416.016 1697.06 408.996 1668.92 403.844 1641.4 C 377.922 1636.36 350.95 1633.38 324.599 1631.58 C 324.999 1602.63 323.996 1573.04 321.964 1544.16 C 295.709 1538.28 269.596 1531.38 243.372 1525.27 C 248.539 1496.82 252.283 1468.05 256.645 1439.45 C 231.099 1429.52 206.009 1418.64 180.151 1409.49 C 188.529 1382.55 195.779 1355.28 204.258 1328.38 C 179.994 1315.1 156.309 1300.74 131.954 1287.55 C 144.963 1261.69 158.314 1236.12 169.992 1209.62 C 152.799 1191.85 123.853 1172.31 103.585 1156.62 C 120.22 1132.86 137.326 1109.23 153.061 1084.87 C 134.152 1064.41 114.646 1044.54 95.8542 1023.96 C 114.849 1003.84 134.916 984.178 151.836 962.239 C 136.931 938.311 119.893 915.447 103.646 892.415 C 123.631 877.661 152.543 857.936 168.885 839.834 C 158.579 814.202 146.442 787.232 132.459 763.386 C 154.281 750.643 183.365 735.807 202.654 720.403 C 196.804 693.603 188.127 667.133 180.832 640.672 C 204.985 629.655 229.747 619.766 254.024 608.968 A 1292.28 1292.28 0 0 0 244.511 523.645 C 270.298 517.084 296.425 511.487 322.034 504.291 C 321.59 476.463 322.605 448.582 323.309 420.765 C 350.793 417.224 379.908 415.195 406.51 407.439 C 412.375 379.631 414.973 351.08 419.11 322.975 A 7931.38 7931.38 0 0 1 502.091 323.011 C 508.531 295.898 516.682 269.159 523.233 242.043 A 2067.07 2067.07 0 0 0 604.884 255.268 C 616.664 229.671 629.62 204.501 639.226 177.976 C 665.88 186.808 693.086 194.847 719.332 204.778 C 734.492 181.455 748.213 157.089 762.945 133.471 C 773.061 137.491 782.919 143.042 792.69 147.863 A 1766.23 1766.23 0 0 0 838.633 169.824 C 856.926 148.69 873.602 126.193 891.954 105.108 A 1384.73 1384.73 0 0 0 961.607 152.281 C 983.49 135.951 1002.49 117.057 1022.62 98.7123 z"/>
<path transform="translate(0,0)" fill="rgb(254,254,254)" d="M 1004.66 157.493 A 857.72 857.72 0 0 1 1602.87 380.338 C 1781.33 542.881 1879.59 747.567 1890.73 988.933 A 865.122 865.122 0 0 1 1659.77 1612.67 A 860.489 860.489 0 0 1 1192.69 1872.7 C 1144.11 1882.11 1094.59 1886.61 1045.22 1888.81 C 807.449 1889.83 599.004 1812.38 424.888 1649.61 A 864.284 864.284 0 0 1 157.313 1055.42 A 864.539 864.539 0 0 1 388.897 434.759 A 859.801 859.801 0 0 1 548.95 299.946 C 566.536 288.238 584.13 276.429 602.5 265.972 C 725.671 195.859 863.658 161.786 1004.66 157.493 z"/>
<path transform="translate(0,0)" fill="rgb(240,77,81)" d="M 996.546 184.433 C 997.798 184.351 999.052 184.287 1000.31 184.254 C 1230.97 178.282 1441.24 263.732 1608.04 422.257 A 824.603 824.603 0 0 1 1856.45 904.616 C 1860.55 933.5 1864.19 962.966 1864.86 992.16 C 1866.27 1053.68 1863.43 1114.76 1852.55 1175.44 C 1824.02 1334.47 1743.07 1488.01 1631.68 1604.35 A 833.291 833.291 0 0 1 1054.25 1861.2 A 842.638 842.638 0 0 1 452.015 1639.08 A 839.423 839.423 0 0 1 183.662 1061.72 A 835.873 835.873 0 0 1 402.381 459.288 A 842.106 842.106 0 0 1 869.043 197.678 C 911.035 189.95 953.931 186.352 996.546 184.433 z"/>
<path transform="translate(0,0)" fill="rgb(254,254,254)" d="M 985.504 208.422 C 1025.23 205.954 1065.89 207.812 1105.45 211.868 C 1279.42 229.707 1438.43 304.326 1569.35 419.408 C 1666.59 504.877 1754.37 637.906 1797.22 759.591 A 784.255 784.255 0 0 1 1838.69 965.156 A 816.342 816.342 0 0 1 1639.11 1560.34 A 784.698 784.698 0 0 1 1477.98 1700.15 C 1351.71 1783.83 1213.09 1827.23 1062.25 1836.59 C 1061.93 1836.62 1061.61 1836.65 1061.28 1836.67 A 816.617 816.617 0 0 1 480.595 1631.64 A 816.902 816.902 0 0 1 207.648 1069.16 A 817.568 817.568 0 0 1 416.588 480.918 A 820.506 820.506 0 0 1 985.504 208.422 z"/>
<path transform="translate(0,0)" fill="rgb(72,71,71)" d="M 980.903 239.425 A 209.206 209.206 0 0 1 983.938 239.253 A 775.851 775.851 0 0 1 1548.11 440.404 A 783.654 783.654 0 0 1 1808.68 980.848 C 1811.6 1039.52 1809.19 1100.58 1799.31 1158.52 C 1776.04 1295.04 1707.93 1439.84 1614.77 1542.59 C 1472.51 1699.48 1281.66 1795.97 1068.91 1806.14 L 1067.33 1806.26 C 1035.4 1808.58 1002.05 1807.43 970.12 1805.4 C 792.333 1794.1 631.618 1724.54 497.974 1607.7 C 348.528 1477.05 252.441 1279.8 239.42 1081.99 A 782.669 782.669 0 0 1 428.467 512.749 A 799.281 799.281 0 0 1 871.069 252.406 C 907.203 245.269 944.185 241.807 980.903 239.425 z"/>
<path transform="translate(0,0)" fill="rgb(254,254,254)" d="M 995.81 264.565 L 996.707 264.517 C 1193.23 254.495 1387.62 331.553 1532.61 462.388 A 763.084 763.084 0 0 1 1781.88 984.695 A 756.124 756.124 0 0 1 1584.16 1534.34 A 737.557 737.557 0 0 1 1143.33 1772.01 C 1113.03 1776.64 1082.54 1778.73 1051.96 1780.24 A 136.34 136.34 0 0 1 1048.5 1780.47 C 1017.96 1781.96 986.822 1780.41 956.379 1777.8 A 754.32 754.32 0 0 1 506.329 1578.07 A 754.181 754.181 0 0 1 265.336 1052.15 A 754.962 754.962 0 0 1 465.291 513.667 C 604.627 363.378 790.074 272.364 995.81 264.565 z"/>
<path transform="translate(0,0)" fill="rgb(72,71,71)" d="M 1004.57 277.441 C 1053.5 275.18 1103.86 279.936 1151.96 288.804 A 741.675 741.675 0 0 1 1518.46 467.63 C 1664.3 599.618 1759.22 787.046 1768.65 984.607 A 749.468 749.468 0 0 1 1574.58 1526.58 A 734.581 734.581 0 0 1 1157.8 1756.64 C 1120.79 1763.16 1083.7 1766.15 1046.21 1767.91 A 748.472 748.472 0 0 1 518.675 1572.31 A 736.413 736.413 0 0 1 278.695 1061.2 A 739.372 739.372 0 0 1 477.276 519.751 A 747.788 747.788 0 0 1 886.127 290.015 C 925.4 282.577 964.687 279.152 1004.57 277.441 z"/>
<path transform="translate(0,0)" fill="rgb(254,254,254)" d="M 851.697 1588.56 C 857.27 1592.36 862.181 1610.07 864.754 1616.69 C 875.592 1618.56 886.768 1619.46 897.7 1620.73 C 889.88 1628.16 881.316 1635.04 873.23 1642.2 C 876.69 1652.65 879.11 1663.08 880.939 1673.93 A 827.82 827.82 0 0 0 852.26 1656.88 C 842.21 1661.33 832.789 1668.07 823.561 1674 C 826.517 1662.82 829.505 1651.66 831.942 1640.35 C 823.465 1634.41 815.517 1626.95 807.552 1620.3 C 817.844 1618.26 828.66 1618.1 839.128 1617.83 L 851.697 1588.56 z"/>
<path transform="translate(0,0)" fill="rgb(254,254,254)" d="M 1194.89 1588.74 C 1200.76 1595.16 1204.46 1608.65 1207.77 1616.88 C 1218.82 1617.37 1229.74 1618.48 1240.73 1619.65 A 765.217 765.217 0 0 1 1216.49 1640.61 C 1219.54 1651.43 1221.53 1662.61 1223.81 1673.62 A 1147.28 1147.28 0 0 1 1195.81 1656.89 C 1192.12 1656.66 1170.84 1670.11 1166.42 1672.5 C 1168.74 1662.11 1171.8 1652.04 1174.95 1641.88 C 1166.88 1634.21 1158.21 1627.03 1149.88 1619.62 C 1160.63 1618.99 1171.35 1617.85 1182.07 1616.81 A 2015.83 2015.83 0 0 0 1194.89 1588.74 z"/>
<path transform="translate(0,0)" fill="rgb(240,77,81)" d="M 966.269 1414.63 C 972.515 1414.65 978.765 1414.79 985.011 1414.89 C 995.904 1448.54 1009.61 1481.53 1021.5 1514.88 C 1035.42 1482.06 1047.3 1447.93 1060.28 1414.68 L 1079.02 1414.78 A 600.066 600.066 0 0 1 1071.95 1431.56 C 1057.1 1465.85 1044.47 1501.02 1030.29 1535.59 C 1024.39 1535.47 1018.46 1535.63 1012.56 1535.66 C 1004.92 1519.93 999.374 1502.36 992.981 1486.02 C 983.848 1462.68 972.949 1438.75 966.269 1414.63 z"/>
<path transform="translate(0,0)" fill="rgb(240,77,81)" d="M 1095.76 1414.76 C 1122.8 1415.52 1150.01 1414.96 1177.07 1415.03 L 1176.85 1431 L 1113.92 1431.05 L 1113.85 1468.33 A 2185.75 2185.75 0 0 1 1170.69 1468.49 L 1170.63 1483.64 L 1114.89 1483.77 L 1113.65 1484.26 C 1111.1 1491.02 1112.9 1511.33 1112.92 1519.51 C 1135.05 1519.89 1157.25 1519.59 1179.39 1519.62 L 1179.48 1535.96 L 1095.93 1536 C 1095.28 1495.63 1095.81 1455.14 1095.76 1414.76 z"/>
<path transform="translate(0,0)" fill="rgb(240,77,81)" d="M 1204.2 1414.99 L 1219.04 1415 C 1240.6 1446.26 1264.73 1475.93 1287.86 1506.05 C 1288.96 1475.86 1288 1445.33 1287.97 1415.09 L 1305.96 1415.51 C 1305.35 1455.64 1305.93 1495.87 1305.97 1536.01 L 1289.76 1536.09 C 1268.45 1505.34 1244.46 1476.71 1222.05 1446.78 C 1223.18 1476.45 1222.69 1506.25 1222.7 1535.94 L 1204.84 1535.95 A 8440.79 8440.79 0 0 0 1204.2 1414.99 z"/>
<path transform="translate(0,0)" fill="rgb(254,254,254)" d="M 1023.54 1592.64 C 1029.6 1598.04 1038.33 1624.16 1041.78 1633.41 C 1057.3 1634.69 1072.73 1635.68 1088.22 1637.4 A 1570.79 1570.79 0 0 0 1053.38 1668.48 A 1547.98 1547.98 0 0 0 1064.3 1713.38 A 1385.38 1385.38 0 0 0 1025.37 1689.44 C 1020.8 1688.79 990.397 1709.07 984.13 1712.96 C 987.112 1697.9 991.311 1683.19 993.752 1668 C 982.957 1657.28 971.029 1647.61 959.667 1637.49 C 974.889 1636.35 990.392 1635.09 1005.49 1632.92 L 1023.54 1592.64 z"/>
<path transform="translate(0,0)" fill="rgb(240,77,81)" d="M 900.729 1415.35 C 907.071 1415.7 913.486 1415.59 919.839 1415.66 C 936.417 1455.67 954.849 1495.28 970.314 1535.69 L 951.116 1535.74 A 1575.6 1575.6 0 0 0 939.187 1504.94 L 919.5 1504.95 L 882.807 1504.97 C 878.066 1515.03 874.143 1525.59 869.939 1535.89 L 850.543 1535.91 A 3088.64 3088.64 0 0 0 900.729 1415.35 z"/>
<path transform="translate(0,0)" fill="rgb(72,71,71)" d="M 909.409 1435.57 C 915.296 1440.54 928.858 1479.92 932.939 1489.86 L 912.5 1489.94 L 888.29 1489.97 C 895.707 1472.14 904.003 1454.13 909.409 1435.57 z"/>
<path transform="translate(0,0)" fill="rgb(240,77,81)" d="M 706.03 1414.97 L 725.114 1415.06 C 739.474 1435.49 755.301 1454.91 769.455 1475.47 C 783.606 1454.92 799.305 1435.43 813.855 1415.15 L 832.893 1414.99 L 833.151 1536.04 L 816.098 1536.03 L 816.002 1459.72 C 816.066 1452.83 815.784 1445.96 815.505 1439.08 C 801.862 1460.24 784.602 1479.86 768.961 1499.59 C 753.526 1480.14 738.322 1460.76 724.025 1440.45 C 723.206 1472.2 723.982 1504.16 724.006 1535.94 L 707.139 1535.95 A 5972.76 5972.76 0 0 0 706.03 1414.97 z"/>
<path transform="translate(0,0)" fill="rgb(254,254,254)" d="M 1312.35 548.696 C 1313.09 549.244 1313.24 549.306 1313.93 550.113 C 1321.73 559.206 1327.96 573.81 1333.86 584.383 A 457.903 457.903 0 0 1 1392.13 834.666 C 1390.03 830.936 1387.65 827.468 1385.23 823.948 A 161.53 161.53 0 0 0 1366.21 802.228 C 1365.65 778.278 1362.42 754.515 1357.94 731.009 C 1345.7 666.846 1325.63 621.828 1292.26 565.89 C 1299.17 560.44 1305.71 554.48 1312.35 548.696 z"/>
<path transform="translate(0,0)" fill="rgb(254,254,254)" d="M 1272.9 774.382 C 1277.58 774.7 1282.19 775.639 1286.38 777.819 C 1293.69 781.619 1297.63 787.583 1300.14 795.254 C 1316.67 845.787 1294.17 953.702 1269.79 1001.48 C 1263.62 1013.57 1254.59 1026.5 1240.93 1030.54 C 1231.27 1033.4 1223.92 1030.39 1215.65 1025.71 C 1211.73 1022.63 1208.28 1018.94 1204.74 1015.42 C 1207.94 1016.5 1211.41 1017.89 1214.84 1017.85 C 1221.18 1017.79 1227.32 1012.94 1231.46 1008.55 C 1263.38 974.689 1279.05 874.597 1277.41 828.007 C 1276.96 815.062 1275.47 795.279 1265.01 786.255 C 1260.1 782.021 1255.9 783.363 1249.97 783.629 L 1251.08 781.841 A 49.8415 49.8415 0 0 1 1272.9 774.382 z"/>
<path transform="translate(0,0)" fill="rgb(254,254,254)" d="M 770.175 776.139 L 771.371 776.057 C 784.545 775.272 792.748 781.692 802.133 789.925 C 796.472 788.212 790.071 785.64 784.218 787.899 C 778.528 790.095 774.511 796.072 772.134 801.424 C 755.51 838.855 775.84 923.81 790.063 962.544 C 796.061 978.878 808.135 1008.66 825.304 1016.03 C 833.254 1019.45 838.675 1017.82 846.145 1014.6 L 846.513 1015.63 L 843.987 1020.14 C 838.492 1025.99 832.18 1030.89 824.305 1033.02 C 816.353 1035.18 808.281 1033.7 801.253 1029.52 C 772.464 1012.4 755.968 950.762 748.51 918.893 C 740.937 886.53 730.535 816.314 748.671 788.87 C 753.563 781.467 761.859 778.026 770.175 776.139 z"/>
<path transform="translate(0,0)" fill="rgb(254,254,254)" d="M 733.774 550.401 C 739.131 552.706 749.442 565.148 754.36 569.776 C 707.686 643.085 685.68 714.837 678.799 800.912 C 670.844 808.616 664.224 816.876 658.019 826.04 C 655.293 830.881 652.387 835.603 649.478 840.335 C 644.52 734.941 678.106 638.587 733.774 550.401 z"/>
<path transform="translate(0,0)" fill="rgb(254,254,254)" d="M 994.926 379.421 C 1004.66 378.226 1015.22 378.506 1025.05 378.553 A 390.106 390.106 0 0 1 1302.27 495.711 C 1307.81 501.319 1321.65 513.602 1321.3 521.892 C 1321.15 525.59 1320.16 528.671 1317.38 531.198 C 1316.56 531.245 1315.7 531.594 1314.91 531.34 C 1311.72 530.31 1289.47 505.948 1284.74 501.466 C 1220.12 440.341 1140.71 405.249 1052.25 397.369 C 1046.49 396.755 1040.49 396.77 1034.7 396.611 A 384.489 384.489 0 0 0 789.749 478.245 C 772.71 491.436 757.739 506.975 742.013 521.625 C 738.107 525.264 733.03 530.076 727.394 529.86 C 725.676 528.402 725.011 526.755 724.806 524.486 C 724.348 519.413 727.825 514.434 730.951 510.803 C 795.73 435.566 896.809 387.88 994.926 379.421 z"/>
<path transform="translate(0,0)" fill="rgb(254,254,254)" d="M 1217.17 1165.3 A 1765.72 1765.72 0 0 1 1278.76 1165.36 L 1278.31 1360.81 L 1216.95 1360.49 L 1217.17 1165.3 z"/>
<path transform="translate(0,0)" fill="rgb(254,254,254)" d="M 738.5 785.297 L 739.321 786.012 C 730.181 808.159 728.687 823.191 729.176 847.153 C 730.365 905.428 749.82 994.982 792.392 1036.11 C 765.609 1042.57 744.742 1042.64 718.781 1033.02 C 714.755 1031.29 710.929 1029.25 707.145 1027.04 C 677.093 1009.54 663.96 982.858 655.419 950.233 C 645.379 911.879 643.745 868.525 664.621 833.309 C 681.767 804.384 707.183 793.45 738.5 785.297 z"/>
<path transform="translate(0,0)" fill="rgb(254,254,254)" d="M 1304.41 781.028 A 78.2053 78.2053 0 0 1 1308.82 782.133 C 1338.87 790.427 1367.4 810.981 1382.72 838.339 C 1401.54 871.946 1402.73 915.105 1392.15 951.504 C 1381.7 987.496 1362.89 1015.12 1329.86 1033.28 C 1304.75 1043.97 1281.16 1043.11 1255.04 1036.23 C 1274.75 1018.4 1285.23 994.173 1293.37 969.314 C 1309.75 919.25 1328.77 829.235 1304.41 781.028 z"/>
<path transform="translate(0,0)" fill="rgb(254,254,254)" d="M 1409.84 1162.43 C 1422.03 1162.47 1434.06 1163.56 1445.7 1167.36 C 1471.39 1175.75 1485.56 1192.75 1497.43 1216.14 C 1482.02 1223.83 1466.51 1231.34 1450.46 1237.63 C 1445.88 1228.68 1441.79 1219.9 1432.98 1214.28 C 1424.67 1208.98 1414.75 1208.22 1405.29 1210.31 C 1393.47 1212.93 1383.87 1220.47 1377.59 1230.71 C 1368.64 1245.31 1366.92 1264.82 1371.06 1281.25 C 1374.35 1294.34 1382.03 1307.43 1394.08 1314.13 A 40.1727 40.1727 0 0 0 1425.15 1317.2 C 1438.32 1313.23 1444.72 1303.66 1451.03 1292.28 C 1458.8 1295.14 1466.4 1298.7 1474.01 1301.96 C 1481.54 1305.37 1489.32 1308.54 1496.33 1312.93 C 1492.19 1322.37 1487.28 1331.19 1480.44 1338.95 C 1465.29 1356.14 1443.57 1364.53 1421.02 1365.97 C 1392.4 1367.79 1363.89 1359.82 1342.29 1340.56 A 97.4489 97.4489 0 0 1 1310.11 1272.67 C 1308.57 1243.93 1316.82 1215.53 1336.29 1193.97 C 1356.17 1171.94 1380.95 1163.97 1409.84 1162.43 z"/>
<path transform="translate(0,0)" fill="rgb(254,254,254)" d="M 1091.67 1162.4 C 1092.19 1162.31 1092.72 1162.29 1093.25 1162.25 C 1123.2 1159.95 1158.67 1167.92 1181.88 1187.81 C 1173.79 1201.88 1163.95 1215.16 1154.57 1228.38 C 1139.14 1217.87 1123.5 1209.21 1104.65 1206.83 C 1097.19 1205.89 1087.45 1206.76 1081.42 1211.76 C 1079.54 1213.32 1078.22 1215.26 1078.29 1217.81 C 1078.42 1222.6 1082.88 1226.37 1086.8 1228.38 C 1093.27 1231.69 1100.86 1232.93 1107.9 1234.62 C 1129.9 1239.88 1156.81 1244.53 1173.83 1260.55 C 1183.9 1270.04 1188.42 1283.24 1188.89 1296.81 C 1189.49 1314.37 1183.75 1328.75 1171.61 1341.41 C 1153.29 1360.51 1126.72 1364.86 1101.47 1365.35 C 1066.41 1364.76 1038.14 1353.68 1009.31 1334.38 C 1017.93 1320.85 1027.35 1307.76 1036.46 1294.56 C 1055.67 1306.39 1075.49 1316.86 1098.37 1318.86 C 1106.37 1319.56 1117.23 1319.53 1123.45 1313.86 C 1125.64 1311.86 1127.61 1308.96 1127.45 1305.86 C 1126.71 1292.16 1082.94 1285.79 1071.61 1282.2 C 1060.91 1278.82 1049.68 1274.59 1040.64 1267.77 C 1029.38 1259.26 1022.1 1247.18 1020.47 1233.09 C 1018.69 1217.79 1023.49 1200.51 1033.29 1188.59 C 1047.68 1171.09 1069.97 1164.55 1091.67 1162.4 z"/>
<path transform="translate(0,0)" fill="rgb(254,254,254)" d="M 925.918 1165.22 A 3207.92 3207.92 0 0 1 986.8 1165.49 L 987.072 1242.93 C 987.126 1261.56 988.67 1281.75 984.866 1300.06 C 982.165 1313.05 976.889 1325.24 968.187 1335.36 C 952.052 1354.13 926.93 1363.28 902.764 1365.05 C 874.801 1367.09 844.845 1361.86 823.208 1342.87 C 802.437 1324.65 797.005 1301 795.357 1274.52 A 5960.71 5960.71 0 0 1 795.511 1165.56 C 815.646 1165.37 835.831 1165.74 855.969 1165.84 L 856.158 1240.27 C 856.206 1255.32 854.937 1271.83 857.797 1286.61 C 859.191 1293.81 861.992 1300.72 867.092 1306.11 C 873.031 1312.38 881.473 1315.42 889.998 1315.51 C 899.339 1315.62 908.48 1314.25 915.257 1307.2 C 920.584 1301.66 923.369 1293.89 924.656 1286.44 C 927.135 1272.1 925.654 1256.69 925.628 1242.16 L 925.918 1165.22 z"/>
<path transform="translate(0,0)" fill="rgb(254,254,254)" d="M 1001.12 404.581 C 1022.72 402.542 1045.26 403.562 1066.78 406.108 C 1160.79 417.23 1250.59 464.881 1309.46 539.419 C 1302.27 546.202 1295.18 553.318 1287.59 559.651 C 1284.36 562.352 1280.81 565.087 1276.79 566.471 C 1270.11 568.766 1263.1 562.54 1258.24 558.444 C 1244.45 546.833 1232.27 533.445 1218.31 521.95 C 1167.83 480.384 1109.37 458.811 1044.56 453.104 C 1027.11 452.651 1009.82 452.348 992.419 454.077 C 935.526 459.729 877.677 482.886 832.625 518.318 C 816.219 531.221 802.691 547.194 786.744 560.48 C 781.704 564.679 776.888 568.18 770.054 567.332 C 756.419 565.64 743.554 548.799 735.864 538.532 C 756.769 517.322 778.28 496.542 802.079 478.563 A 373.778 373.778 0 0 1 1001.12 404.581 z"/>
<path transform="translate(0,0)" fill="rgb(254,254,254)" d="M 701.42 1165.46 L 761.081 1165.81 C 762.069 1230.65 760.849 1295.69 760.788 1360.54 C 741.049 1360.91 721.187 1360.28 701.437 1360.1 L 701.621 1251.17 C 692.611 1264.25 671.758 1297.07 660.791 1306.92 C 658.407 1309.07 655.445 1310.71 652.111 1310.17 C 642.273 1308.56 613.134 1262.4 607.113 1252.69 L 607.049 1264.5 A 4559.49 4559.49 0 0 1 607.103 1360.51 A 5289.41 5289.41 0 0 0 547.387 1360.71 L 547.355 1165.63 L 608.534 1165.89 A 2932.96 2932.96 0 0 0 654.825 1235.25 C 670.432 1212.12 685.076 1188.04 701.42 1165.46 z"/>
<path transform="translate(0,0)" fill="rgb(254,254,254)" d="M 996.191 526.418 C 1057.78 519.797 1139.63 541.224 1192.91 572.039 A 359.009 359.009 0 0 1 1257.24 619.526 C 1310.88 668.72 1337.41 723.093 1355.94 792.502 C 1334.36 780.106 1288.4 760.763 1263.84 765.897 C 1246.94 769.429 1233.16 784.756 1224.31 798.713 C 1192.85 848.343 1175.04 940.861 1188.46 998.587 C 1191.94 1013.59 1199.75 1028.46 1213.47 1036.46 C 1222.1 1041.5 1231.37 1040.87 1240.84 1042.82 C 1272.72 1049.39 1287.57 1056.33 1320.41 1047.63 C 1313.75 1066.06 1301.94 1085.85 1290.46 1101.8 L 1621.39 1101.85 L 1621.32 1120.03 L 1047.5 1120.09 L 425.961 1119.69 L 425.96 1103.57 C 463.514 1102.24 501.428 1103.19 539.022 1103.01 L 758.815 1102.35 C 746.181 1083.63 733.882 1064.75 723.34 1044.75 C 742.547 1051.93 762.27 1052.08 782.2 1048.06 C 789.67 1046.55 797.218 1044.23 804.762 1043.31 C 814.688 1042.09 824.564 1043.61 834.058 1039.55 C 845.474 1034.68 853.902 1024.57 858.119 1013.07 C 876.494 962.945 849.808 864.905 827.434 816.959 C 818.625 798.083 805.807 773.909 784.389 767.011 C 770.102 762.409 706.674 783.796 692.525 791.196 C 702.713 736.308 719.359 681.291 756.801 638.408 C 797.006 592.362 860.169 555.746 918.904 539.028 C 944.158 531.839 970.037 528.114 996.191 526.418 z"/>
<path transform="translate(0,0)" fill="rgb(0,0,0)" d="M 1213.75 641.258 C 1214.74 641.704 1215.2 641.88 1216.2 642.478 C 1218.56 643.878 1219.42 644.529 1219.93 647.213 C 1218.32 650.115 1216.44 652.718 1214.48 655.394 C 1218.91 653.787 1223.39 652.604 1227.95 651.41 C 1233.55 652.99 1238.16 654.484 1242.68 658.283 L 1242.49 660.382 C 1239.44 661.385 1235.79 661.677 1232.66 660.876 L 1223.87 658.559 C 1217.61 660.405 1213.02 662.989 1208.13 667.325 C 1203.07 674.689 1199.5 682.591 1195.73 690.652 C 1192.88 688.994 1190.23 686.925 1187.55 685.008 C 1197.34 671.095 1205.67 656.203 1213.75 641.258 z"/>
<path transform="translate(0,0)" fill="rgb(0,0,0)" d="M 758.43 661.503 C 758.928 661.865 759.453 662.193 759.923 662.591 C 763.936 665.994 767.54 671.473 771.157 675.495 C 775.48 680.299 805.031 709.29 805.564 712.8 C 804.164 715.113 803.566 716.199 801.045 717.435 C 796.976 715.623 793.776 711.011 790.844 707.71 C 780.686 695.947 769.574 684.835 759.087 673.337 C 757.884 676.498 756.733 680.015 755.095 682.966 C 753.94 685.047 752.463 686.676 750.107 687.317 L 748.976 685.733 C 748.263 676.896 753.62 668.551 758.43 661.503 z"/>
<path transform="translate(0,0)" fill="rgb(0,0,0)" d="M 1249.8 668.137 C 1253.58 668.016 1257.28 668.229 1260.85 669.629 C 1267.97 672.424 1277.62 681.251 1280.16 688.581 C 1280.9 690.707 1280.63 691.125 1279.78 693.064 C 1277.73 693.855 1277.3 693.907 1275.12 693.618 A 318.125 318.125 0 0 0 1271.04 687.048 C 1267.89 682.137 1263.11 674.937 1256.77 674.206 C 1254.26 673.915 1252.56 675.25 1250.61 676.605 C 1245.28 686.263 1264.02 698.424 1265.26 708.536 C 1265.74 712.508 1265.14 715.996 1262.43 719.07 C 1259.41 722.511 1254.62 722.981 1250.37 723.31 C 1242.53 721.19 1235.46 717.265 1229.9 711.267 C 1225.64 706.681 1224.18 702.501 1224.53 696.329 C 1226.14 694.33 1226.01 694.288 1228.53 693.875 C 1233.83 697.697 1233.42 706.807 1239.16 711.75 C 1243.04 715.088 1248.76 717.088 1253.9 716.466 C 1256.24 716.184 1256.38 715.887 1257.72 714.128 C 1257.94 704.146 1248.07 695.143 1244.07 686.319 C 1242.3 682.429 1240.79 677.307 1242.77 673.207 C 1244.19 670.268 1246.99 669.291 1249.8 668.137 z"/>
<path transform="translate(0,0)" fill="rgb(0,0,0)" d="M 1153.32 614.211 C 1155.37 614.626 1156.5 614.989 1158.16 616.272 C 1160.66 626.81 1145.03 643.252 1145.38 655.101 C 1145.46 657.673 1146.09 660.008 1148.11 661.748 C 1151.69 664.817 1158.33 665.512 1162.83 665.391 C 1179.09 664.952 1177.85 638.782 1187.22 629.234 C 1189.3 629.599 1190.6 630.392 1192.38 631.495 C 1192.96 635.734 1189.44 640.826 1187.63 644.74 A 1311.69 1311.69 0 0 1 1173.32 679.631 C 1170.65 678 1167.96 676.701 1166.26 673.971 L 1168.64 670.698 C 1166.22 668.999 1153.09 671.695 1147.49 669.4 C 1143.39 667.722 1139.96 665.116 1138.41 660.827 C 1133.78 648.025 1147.75 626.009 1153.32 614.211 z"/>
<path transform="translate(0,0)" fill="rgb(0,0,0)" d="M 1009.59 569.899 C 1012.03 569.989 1014.56 569.686 1016.52 571.362 C 1019.77 579.454 1015.57 592.167 1014.7 600.839 C 1027.86 600.881 1041.17 602.27 1054.3 603.207 C 1055.54 593.998 1054.7 582.367 1059.37 574.277 C 1061.95 572.557 1062.28 572.467 1065.38 572.414 C 1065.54 572.634 1065.73 572.832 1065.85 573.072 C 1067.44 576.233 1059.07 637.094 1057.54 644.448 C 1054.85 644.254 1052.56 643.892 1049.96 643.22 C 1049 633.472 1052.27 619.85 1053.44 609.998 C 1040.39 608.61 1027.33 606.987 1014.2 606.605 C 1013.22 612.879 1012.77 637.352 1009.89 641.093 C 1007.59 641.377 1006.67 641.371 1004.61 640.26 C 1003.39 638.377 1002.85 636.912 1002.91 634.627 C 1003.05 629.384 1004.5 623.832 1005.02 618.542 L 1009.59 569.899 z"/>
<path transform="translate(0,0)" fill="rgb(0,0,0)" d="M 1098.43 600.218 C 1103.62 600.05 1108.95 600.431 1113.77 602.526 A 23.4517 23.4517 0 0 1 1126.77 616.666 C 1129.28 624.147 1128.34 633.02 1124.49 639.886 C 1120.23 647.489 1114.43 650.729 1106.3 653.124 C 1100.2 653.371 1094.41 653.013 1088.92 650.058 A 24.1189 24.1189 0 0 1 1076.77 634.59 C 1074.9 627.216 1076.32 618.979 1080.36 612.551 C 1084.72 605.594 1090.67 602.22 1098.43 600.218 z"/>
<path transform="translate(0,0)" fill="rgb(254,254,254)" d="M 1098.04 607.137 C 1101.04 606.915 1104.15 606.592 1107.13 607.075 A 15.2775 15.2775 0 0 1 1117.67 614.033 C 1120.5 618.52 1120.77 624.171 1119.54 629.217 C 1117.52 637.526 1113.01 642.489 1105.82 646.735 C 1102.83 646.956 1099.8 647.247 1096.85 646.549 C 1092.45 645.507 1088.62 642.849 1086.28 638.944 C 1083.29 633.949 1083.12 627.674 1084.78 622.205 C 1087.06 614.688 1091.27 610.715 1098.04 607.137 z"/>
<path transform="translate(0,0)" fill="rgb(0,0,0)" d="M 873.572 595.147 C 877.385 595.089 881.375 595.594 884.831 597.3 C 894.74 602.192 900.935 614.385 904.458 624.427 C 907.959 634.409 909.897 646.004 904.869 655.815 C 901.264 662.85 896.038 665.835 888.761 668.256 C 884.756 668.3 881.521 667.665 877.899 665.869 C 867.103 660.513 860.769 648.462 857.217 637.41 C 854.031 627.5 852.535 615.726 857.713 606.229 C 861.377 599.51 866.437 597.094 873.572 595.147 z"/>
<path transform="translate(0,0)" fill="rgb(254,254,254)" d="M 870.842 602.96 C 873.036 602.734 875.457 602.38 877.648 602.725 C 882.998 603.569 887.668 609.149 890.452 613.374 C 896.837 623.066 901.927 638.426 899.311 649.909 C 898.098 655.232 895.369 658.07 890.958 661.041 C 889.476 661.08 887.962 661.162 886.484 660.97 C 881.037 660.264 876.347 655.66 873.108 651.564 C 865.768 642.279 860.983 627.625 862.653 615.911 C 863.542 609.669 865.857 606.626 870.842 602.96 z"/>
<path transform="translate(0,0)" fill="rgb(0,0,0)" d="M 933.422 577.051 C 937.556 576.904 941.338 576.95 945.173 578.702 C 953.381 582.453 958.519 591.223 961.4 599.389 C 965.596 611.28 968.177 627.672 962.185 639.237 C 958.599 646.159 953.69 648.853 946.523 651.227 C 943.007 651.364 939.703 651.231 936.396 649.875 C 928.305 646.557 922.846 638.981 919.758 631.061 C 915.029 618.936 912.949 601.873 918.509 589.859 C 921.861 582.617 926.125 579.786 933.422 577.051 z"/>
<path transform="translate(0,0)" fill="rgb(254,254,254)" d="M 933.005 584.053 C 934.969 583.895 937.595 583.51 939.528 583.95 C 944.508 585.085 948.193 589.894 950.535 594.123 C 956.444 604.793 959.786 623.744 956.044 635.416 C 954.337 640.742 951.732 642.435 946.939 644.828 C 945.624 644.858 944.307 644.915 942.998 644.744 C 937.662 644.051 933.783 640.442 930.893 636.13 C 924.274 626.252 921.623 609.12 923.921 597.451 C 925.198 590.965 927.676 587.795 933.005 584.053 z"/>
<path transform="translate(0,0)" fill="rgb(0,0,0)" d="M 816.581 623.043 C 820.127 622.897 823.41 623.144 826.746 624.486 C 838.532 629.225 847.922 643.93 852.493 655.406 C 855.791 663.688 857.53 673.284 853.571 681.654 C 850.159 688.868 845.046 691.199 837.79 693.559 C 833.998 694.023 830.848 693.975 827.246 692.519 C 815.867 687.92 806.447 674.787 802.016 663.535 C 798.535 654.694 796.874 644.642 800.98 635.698 C 804.365 628.325 809.378 625.879 816.581 623.043 z"/>
<path transform="translate(0,0)" fill="rgb(254,254,254)" d="M 814.383 631.089 C 816.402 630.817 818.59 630.462 820.619 630.768 C 826.935 631.722 832.603 638.4 836.129 643.212 C 842.441 651.825 849.345 665.391 847.185 676.227 C 846.221 681.062 843.455 683.728 839.603 686.512 C 837.834 686.743 835.756 687.138 833.982 686.981 C 827.524 686.408 821.264 679.289 817.679 674.458 C 811.284 665.841 804.8 652.518 806.85 641.649 C 807.812 636.546 810.3 634.031 814.383 631.089 z"/>
<path transform="translate(0,0)" fill="rgb(72,71,71)" d="M 1040.5 704.483 L 1043.08 704.774 C 1045.92 710.025 1044.77 721.85 1044.86 727.929 C 1077.48 746.411 1119.62 783.342 1134.8 817.597 C 1144.77 840.093 1145.44 864.302 1136.26 887.219 C 1132.78 895.912 1125.54 912.421 1116.24 915.9 C 1113.34 916.986 1110 917.105 1107.28 915.43 C 1097.04 909.14 1110.28 891.184 1112.37 883.26 C 1114.78 874.111 1114.34 862.201 1112.23 853.019 C 1105.45 823.578 1070.83 795.323 1045.75 780.425 L 1044.42 779.642 L 1044.17 948.046 C 1043.9 966.842 1048.65 996.41 1039.63 1012.76 C 1031.95 1026.71 1016.65 1035.51 1001.8 1039.86 C 976.465 1047.3 946.683 1044.24 923.623 1031.26 C 912.852 1025.2 902.99 1016.51 899.834 1004.09 C 897.45 994.714 899.13 984.893 904.064 976.617 C 912.304 962.799 928.508 954.253 943.622 950.229 C 968.482 943.609 994.833 946.181 1017.09 959.213 L 1016.94 704.637 L 1040.5 704.483 z"/>
</svg>