<svg version="1.1" xmlns="http://www.w3.org/2000/svg" style="display: block;" viewBox="0 0 2048 2048" width="1024" height="1024">
<path transform="translate(0,0)" fill="rgb(254,254,254)" d="M 0 0 L 2048 0 L 2048 2048 L 0 2048 L 0 0 z"/>
<path transform="translate(0,0)" fill="rgb(72,72,72)" d="M 953.299 67.6014 C 960.793 68.6268 1014.45 101.339 1024.67 107.242 C 1047.21 92.8714 1071.53 81.1328 1094.5 67.4013 C 1112.88 84.4471 1135.54 102.876 1155.65 117.833 C 1180.11 107.127 1205.41 96.8358 1230.61 88.0022 C 1248.53 107.781 1265.2 128.607 1282.74 148.711 A 7396.23 7396.23 0 0 1 1361 126.673 A 3663.5 3663.5 0 0 0 1405.52 194.251 A 1997.78 1997.78 0 0 0 1484.95 184.622 C 1494.54 209.369 1507.47 233.3 1518.77 257.336 C 1545.69 259.672 1573.32 259.123 1600.34 259.016 C 1606.33 284.213 1615.88 308.859 1623.04 333.801 C 1648.17 339.212 1674.51 344.334 1700.02 347.523 C 1704.72 373.109 1708.25 399.007 1713.54 424.465 C 1738.15 431.764 1762.28 444.223 1787.3 449.501 C 1786.81 475.702 1789.37 502.095 1790 528.315 C 1813.63 540.204 1837 552.671 1860.53 564.773 C 1857.36 591.266 1855.78 618.099 1853.78 644.705 C 1875.22 660.003 1896.7 675.157 1917.84 690.86 C 1912.96 717.097 1906.36 743.265 1900.67 769.354 L 1956.14 820.934 C 1948.39 844.592 1936.34 869.848 1926.87 893.133 L 1979.26 954.563 C 1964.49 977.542 1951 1001.52 1936.64 1024.78 C 1951.56 1047.3 1964.43 1071.37 1977.73 1094.87 C 1961.24 1115.82 1942.89 1135.13 1925.98 1155.72 C 1935.19 1180.66 1947.19 1204.99 1958.04 1229.28 A 2616.49 2616.49 0 0 1 1897.7 1283.62 C 1904.07 1309.76 1912.92 1335.2 1920.05 1361.12 C 1897.79 1376.4 1875.21 1391.25 1852.76 1406.26 C 1853.86 1432.22 1858.98 1459.28 1862.85 1485.01 C 1839.18 1496.51 1815.71 1507.71 1790.97 1516.78 C 1790.77 1543.59 1791.4 1570.41 1790.97 1597.22 C 1766.26 1605.2 1741.95 1614.8 1717.63 1623.9 A 1027.84 1027.84 0 0 0 1700.15 1700.74 C 1675.72 1703.7 1651.19 1709.49 1626.83 1713.4 C 1617.71 1739.5 1607.25 1765.1 1598.22 1791.24 A 2004.59 2004.59 0 0 1 1523 1791.97 C 1511.18 1816.32 1497.82 1840.11 1484.88 1863.88 A 1587.02 1587.02 0 0 0 1407.17 1854.75 L 1360.58 1919.95 C 1334.75 1914.11 1309.39 1906.09 1283.53 1900.27 C 1264.99 1918.57 1247.02 1939.38 1230.1 1959.17 C 1205.01 1949.5 1180.16 1939.15 1155.23 1929.08 C 1148.39 1935.3 1099.16 1977.99 1096 1979.33 C 1093.45 1980.41 1091.91 1978.83 1089.63 1977.69 A 4029.83 4029.83 0 0 0 1022.8 1940.62 C 1000.19 1954.79 976.661 1967.57 953.844 1981.44 A 1068.37 1068.37 0 0 0 892.127 1929.85 C 867.15 1938 842.729 1950.09 818.374 1960.02 C 802.262 1939.06 782.418 1919.43 764.413 1899.98 C 738.696 1906.06 713.1 1914.03 687.781 1921.63 C 672.898 1899.11 657.129 1877.09 641.765 1854.9 L 562.108 1864.35 C 551.578 1839.51 538.268 1815.35 526.117 1791.24 A 1652.92 1652.92 0 0 0 447.748 1790.41 A 1552.89 1552.89 0 0 0 422.772 1713.13 C 400.913 1707.47 367.171 1703.13 344.43 1700.72 C 341.071 1674.73 338.108 1648.65 332.66 1622.99 C 307.291 1615.51 282.132 1607.11 256.822 1599.39 A 5651.83 5651.83 0 0 0 256.669 1519.17 C 232.621 1507.59 208.807 1495.59 184.672 1484.19 C 186.633 1457.7 192.451 1430.74 196.224 1404.39 A 3145.07 3145.07 0 0 0 127.056 1360.05 C 136.403 1335.2 142.717 1308.69 149.767 1283.09 A 1692.15 1692.15 0 0 0 88.785 1229.48 C 99.663 1204.72 110.139 1180 119.624 1154.65 C 104.995 1133.11 85.143 1115.36 70.187 1094.03 C 83.2331 1070.4 96.1234 1045.7 111.309 1023.41 C 96.6285 1000.69 83.5893 976 67.9238 954.057 A 2522.96 2522.96 0 0 0 121.546 891.374 C 109.785 867.143 98.6385 842.633 86.6568 818.505 A 2316.52 2316.52 0 0 0 147.88 763.398 C 142.739 738.095 134.052 712.662 127.164 687.716 A 5919.14 5919.14 0 0 0 193.398 641.193 C 192.15 615.845 187.468 589.584 183.869 564.423 C 207.463 552.248 231.011 539.88 255.165 528.846 A 3408.92 3408.92 0 0 1 256.95 450.169 A 3203.14 3203.14 0 0 1 331.534 425.258 C 337.647 399.752 342.432 373.535 347.127 347.716 C 372.357 342.375 398.025 335.778 423.622 332.642 C 431.849 307.346 440.699 282.258 448.753 256.906 C 474.566 256.879 500.334 255.811 526.151 256.545 C 539.058 232.636 551.286 208.306 563.841 184.205 C 589.344 188.274 616.771 192.443 642.562 193.124 L 688.148 127.196 C 713.685 133.681 738.963 140.986 764.565 147.274 C 782.929 128.388 799.964 107.878 817.134 87.8989 L 891.926 118.832 C 912.92 102.485 933.088 84.9001 953.299 67.6014 z"/>
<path transform="translate(0,0)" fill="rgb(254,254,254)" d="M 1006.75 140.464 A 889.368 889.368 0 0 1 1634.56 386.421 A 881.968 881.968 0 0 1 1906.02 997.798 A 888.254 888.254 0 0 1 1660.25 1635.24 A 874.148 874.148 0 0 1 1042.67 1906.94 A 885.788 885.788 0 0 1 415.943 1663.36 A 880.014 880.014 0 0 1 142.059 1054.5 A 876.221 876.221 0 0 1 381.919 417.794 A 882.874 882.874 0 0 1 1006.75 140.464 z"/>
<path transform="translate(0,0)" fill="rgb(162,49,47)" d="M 995.907 164.43 A 861.724 861.724 0 0 1 1607.92 393.25 A 856.31 856.31 0 0 1 1882.94 999.825 A 854.424 854.424 0 0 1 1649.31 1612.51 A 849.294 849.294 0 0 1 1053.25 1883.96 C 1000.77 1884.82 948.982 1882.56 897.008 1874.89 A 868.374 868.374 0 0 1 447.4 1661.83 A 860.821 860.821 0 0 1 164.398 1061.59 C 152.823 830.481 238.754 608.922 393.369 438.399 C 518.818 300.042 700.027 205.482 883.62 174.785 C 920.851 168.56 958.264 166.286 995.907 164.43 z"/>
<path transform="translate(0,0)" fill="rgb(254,254,254)" d="M 1011.4 212.514 L 1014.06 212.463 A 814.475 814.475 0 0 1 1591.59 444.652 C 1740.92 589.169 1833.02 795.899 1836.03 1004 A 864.498 864.498 0 0 1 1827.36 1148.33 A 823.309 823.309 0 0 1 1602.93 1593.62 A 802.726 802.726 0 0 1 1036.25 1835.88 C 862.853 1836.65 706.531 1791.19 563.428 1692.42 A 837.779 837.779 0 0 1 460.401 1609.68 C 310.388 1466.3 215.61 1258.45 211.034 1050.47 A 814.007 814.007 0 0 1 437.105 463.481 A 807.054 807.054 0 0 1 1011.4 212.514 z"/>
<path transform="translate(0,0)" fill="rgb(72,72,72)" d="M 1002 235.431 A 462.065 462.065 0 0 1 1011.65 235.175 A 794.013 794.013 0 0 1 1574.5 458.694 C 1718.94 598.756 1810.33 799.91 1813.11 1001.81 C 1813.91 1060.09 1810.42 1117.99 1799.56 1175.36 A 796.765 796.765 0 0 1 1591.92 1572.59 A 780.437 780.437 0 0 1 1044.75 1813.07 C 893.471 1815.03 753.915 1780.96 623.274 1703.96 A 772.444 772.444 0 0 1 500.304 1614.94 C 344.404 1475.16 246.551 1283.28 235.406 1073.04 A 786.168 786.168 0 0 1 431.829 502.463 C 551.509 369.645 708.684 277.735 885.55 246.946 C 924.17 240.223 962.913 237.465 1002 235.431 z"/>
<path transform="translate(0,0)" fill="rgb(162,49,47)" d="M 1123 1679.9 C 1163.77 1679.45 1204.48 1682.96 1245.22 1683.82 L 1316.45 1684.87 C 1328.2 1685.03 1340.43 1684.41 1352.11 1685.54 C 1350.55 1687.33 1345.83 1687.24 1343.36 1687.53 C 1323.01 1687.98 1302.67 1689.55 1282.34 1690.41 C 1256.85 1691.49 1231.35 1691.99 1205.87 1693.21 C 1178.35 1694.53 1150.76 1696.26 1123.21 1696.13 L 1123 1679.9 z"/>
<path transform="translate(0,0)" fill="rgb(162,49,47)" d="M 921.622 1679.47 C 923.97 1679.4 924.527 1678.98 926.544 1680.33 C 928.178 1685.3 927.2 1691.61 927.137 1696.88 C 857.006 1694.59 786.987 1689.89 716.863 1687.48 C 711.58 1687.2 706.445 1686.87 701.221 1685.94 C 709.912 1684.34 719.955 1685 728.819 1684.79 A 3864.98 3864.98 0 0 1 791.926 1683.75 C 835.135 1683.09 878.411 1680.72 921.622 1679.47 z"/>
<path transform="translate(0,0)" fill="rgb(162,49,47)" d="M 1023.09 1645.61 C 1025.41 1647.45 1026.37 1650.38 1027.65 1652.96 C 1029.22 1656.12 1030.6 1658.61 1030.8 1662.2 C 1030.96 1665.23 1030.39 1668.83 1032.86 1671.05 C 1039.09 1676.67 1057.39 1675.68 1065.77 1676.13 A 495.291 495.291 0 0 1 1040.33 1695.65 C 1044.03 1705.14 1046.3 1715.46 1049.03 1725.29 C 1040 1720.42 1031.88 1714.09 1022.79 1709.27 C 1013.92 1713.95 1005.73 1720.04 997.073 1725.15 C 1000.59 1715.73 1003.01 1705.73 1005.78 1696.06 C 998 1688.82 989.598 1682.22 981.396 1675.46 A 833.754 833.754 0 0 1 1013.2 1673.22 C 1016.94 1664.16 1020 1654.91 1023.09 1645.61 z"/>
<path transform="translate(0,0)" fill="rgb(254,254,254)" d="M 943.63 1496.31 C 958.234 1495.77 968.537 1500.01 980.256 1508.33 C 976.421 1513.08 971.895 1517.3 967.585 1521.62 C 962.828 1517.47 958.178 1514.13 951.957 1512.58 C 946.93 1511.33 942.007 1512.18 937.7 1515.06 C 931.887 1518.94 928.224 1525.77 927.062 1532.55 C 925.786 1540.01 927.492 1547.97 931.97 1554.09 C 935.052 1558.31 939.54 1561.34 944.797 1561.9 C 953.653 1562.84 962.348 1558.52 968.948 1553.06 C 972.14 1557.33 975.81 1561.17 979.437 1565.08 C 973.012 1571.73 964.944 1576.43 955.833 1578.29 A 43.0527 43.0527 0 0 1 922.802 1571.4 C 913.78 1565.1 908.046 1555.79 906.265 1544.95 C 904.422 1533.73 906.215 1521.28 913.279 1512.1 C 920.785 1502.35 931.81 1497.98 943.63 1496.31 z"/>
<path transform="translate(0,0)" fill="rgb(254,254,254)" d="M 812.665 1498.09 L 867.757 1498.08 L 867.806 1512.96 L 832.827 1513.04 C 832.66 1518.13 832.754 1523.24 832.745 1528.33 L 864.092 1528.59 L 864.119 1543.57 C 853.737 1543.33 842.298 1542.37 832.045 1544.2 L 832.047 1560.79 L 867.574 1560.86 L 867.503 1576.54 L 812.742 1576.13 L 812.665 1498.09 z"/>
<path transform="translate(0,0)" fill="rgb(254,254,254)" d="M 705.21 1498.06 C 719.044 1497.94 739.277 1495.57 751.991 1500.73 C 758.325 1503.29 763.26 1508.04 765.736 1514.44 C 768.171 1520.74 768.191 1527.84 765.175 1533.94 C 761.826 1540.71 756.917 1542.6 750.138 1544.87 A 467.938 467.938 0 0 1 772.772 1577.18 L 757.247 1577.18 L 748.523 1576.99 C 742.413 1568.93 736.162 1554.71 728.921 1548.67 L 727.285 1548.91 C 723.377 1555.79 725.133 1568.83 725.246 1576.78 L 705.996 1576.56 C 706.142 1550.4 705.337 1524.22 705.21 1498.06 z"/>
<path transform="translate(0,0)" fill="rgb(72,72,72)" d="M 725.175 1512.24 C 731.45 1512.18 737.619 1512.01 743.246 1515.25 C 745.5 1516.55 747.389 1518.43 747.722 1521.15 C 748.206 1525.09 745.995 1528.45 743.683 1531.38 C 737.561 1534.1 731.666 1534.04 725.113 1534.01 C 725.017 1526.76 725.139 1519.49 725.175 1512.24 z"/>
<path transform="translate(0,0)" fill="rgb(254,254,254)" d="M 1145.14 1498.12 C 1159.51 1497.95 1176.78 1496.01 1190.62 1499.69 C 1197.24 1501.45 1203.32 1505.09 1206.67 1511.24 C 1209.76 1516.91 1210.62 1525 1208.64 1531.17 C 1206.18 1538.79 1199.87 1542.46 1193.29 1546.06 A 1009.69 1009.69 0 0 0 1215.82 1577.19 L 1201.14 1577.17 C 1182.17 1577.54 1184.77 1555.04 1171.16 1549.3 C 1169.92 1549.33 1168.82 1548.96 1167.91 1549.97 C 1163.89 1554.43 1165.84 1571.27 1165.94 1577.05 L 1145.08 1577.13 L 1145.14 1498.12 z"/>
<path transform="translate(0,0)" fill="rgb(72,72,72)" d="M 1165.81 1513.14 C 1172.47 1512.91 1180.08 1512.23 1185.84 1516.28 C 1187.55 1517.48 1188.6 1519.27 1188.87 1521.31 C 1189.41 1525.49 1187.09 1529.25 1184.67 1532.42 C 1178.43 1534.97 1172.17 1534.98 1165.56 1535.01 C 1165.29 1527.71 1165.56 1520.44 1165.81 1513.14 z"/>
<path transform="translate(0,0)" fill="rgb(254,254,254)" d="M 1255.06 1498.14 C 1274.08 1497.91 1300.4 1494.4 1316.1 1506.99 C 1324.58 1513.78 1328.78 1524.2 1329.65 1534.84 C 1330.64 1547.03 1326.15 1556.56 1318.43 1565.58 C 1301.38 1580.52 1276.11 1577.13 1255.05 1577.02 L 1255.06 1498.14 z"/>
<path transform="translate(0,0)" fill="rgb(72,72,72)" d="M 1275.95 1512.03 C 1285.07 1512.3 1293.61 1513.34 1300.97 1519.31 C 1305.62 1523.1 1309 1528.66 1309.49 1534.71 C 1310.1 1542.15 1306.76 1548.53 1302.28 1554.17 C 1293.89 1560.55 1286.12 1560.87 1275.98 1561 L 1275.95 1512.03 z"/>
<path transform="translate(0,0)" fill="rgb(254,254,254)" d="M 1060.22 1496.4 C 1068.68 1496.63 1076.6 1498.14 1083.91 1502.65 A 39.615 39.615 0 0 1 1101.94 1528.11 A 41.3851 41.3851 0 0 1 1095.4 1560.66 C 1087.11 1572.4 1075.88 1576.75 1062.29 1579.08 C 1051.26 1578.93 1040.58 1576.15 1031.89 1569.11 A 40.0353 40.0353 0 0 1 1017.36 1541.49 A 39.6871 39.6871 0 0 1 1026.48 1512.04 C 1035.27 1501.64 1047.13 1497.68 1060.22 1496.4 z"/>
<path transform="translate(0,0)" fill="rgb(72,72,72)" d="M 1056.68 1513.04 C 1060.67 1512.85 1064.66 1513.32 1068.37 1514.84 A 22.1028 22.1028 0 0 1 1080.65 1527.62 A 26.6127 26.6127 0 0 1 1079.8 1548.31 C 1076.32 1555.55 1071.34 1558.61 1064.02 1561.33 C 1059.03 1561.52 1054.03 1561.51 1049.5 1559.09 A 23.259 23.259 0 0 1 1038.14 1545.13 C 1036.14 1538.46 1036.76 1530.96 1040.15 1524.85 C 1044.05 1517.8 1049.25 1515.29 1056.68 1513.04 z"/>
<path transform="translate(0,0)" fill="rgb(254,254,254)" d="M 1011.12 1290.49 C 1025.72 1290.24 1040.36 1290.47 1054.97 1290.47 L 1055.04 1450.02 L 1010.83 1449.99 C 1010.85 1396.84 1010.39 1343.63 1011.12 1290.49 z"/>
<path transform="translate(0,0)" fill="rgb(254,254,254)" d="M 583.028 1290.81 C 597.54 1290.53 612.103 1290.78 626.621 1290.79 C 627.324 1331.9 626.914 1373.12 627.033 1414.25 L 684.168 1414.93 L 684.237 1450.26 C 650.518 1449.52 616.703 1450.03 582.972 1450.05 L 583.028 1290.81 z"/>
<path transform="translate(0,0)" fill="rgb(254,254,254)" d="M 933.329 1290.51 C 951.932 1290.18 970.562 1290.32 989.169 1290.27 L 989.334 1325.47 A 3231.62 3231.62 0 0 0 944.878 1325.45 L 945.044 1449.99 L 910.5 1450.01 C 907.229 1450.1 903.483 1450.6 900.404 1449.42 C 898.571 1408.39 900.026 1366.77 900.034 1325.68 C 885.404 1325.2 870.708 1325.36 856.068 1325.24 L 856.004 1290.84 C 881.614 1289.65 907.672 1290.54 933.329 1290.51 z"/>
<path transform="translate(0,0)" fill="rgb(254,254,254)" d="M 411.534 949.487 C 416.88 953.438 432.167 995.218 436.084 1004.76 C 456.159 1007.39 476.522 1007.28 496.689 1009.02 C 483.066 1023.77 465.506 1035.83 450.245 1048.96 C 454.88 1069.5 460.139 1090.2 466.135 1110.38 C 448.755 1098.56 430.593 1087.58 412.846 1076.3 C 398.494 1082.36 376.467 1100.79 360.889 1109.54 A 2548.13 2548.13 0 0 0 375.216 1049.53 C 360.171 1035.6 343.271 1023.15 327.434 1010.1 C 347.904 1007.46 368.97 1005.91 389.582 1004.81 C 396.758 986.348 403.316 967.513 411.534 949.487 z"/>
<path transform="translate(0,0)" fill="rgb(254,254,254)" d="M 1634.24 947.672 C 1642.58 967.4 1649.65 987.81 1657.55 1007.74 A 4306.16 4306.16 0 0 1 1722.56 1009.31 C 1707.04 1024.12 1688.23 1036.53 1671.19 1049.62 C 1675.19 1070.82 1682.6 1092.2 1688.44 1113.02 A 2472.62 2472.62 0 0 1 1634.2 1076.27 C 1615.49 1087.12 1597.96 1100.87 1580.1 1113.13 C 1584.07 1092 1591.31 1070.63 1596.42 1049.67 C 1580.31 1034.95 1561.72 1022.07 1544.3 1008.89 C 1566.2 1009.04 1588.24 1008.02 1610.14 1007.54 C 1618.93 987.946 1626.39 967.661 1634.24 947.672 z"/>
<path transform="translate(0,0)" fill="rgb(254,254,254)" d="M 778.35 1288.63 C 780.859 1288.63 782.995 1288.83 785.45 1289.35 C 796.248 1302.64 804.302 1323.51 812.198 1339.17 C 830.842 1376.14 848.743 1414.04 869.08 1450.09 L 820.862 1450.06 L 812.576 1427.96 L 786.5 1428.04 L 748.088 1428.07 L 740.078 1450.01 L 695.69 1450 C 704.391 1430.3 715.663 1411.04 725.58 1391.88 A 10445.9 10445.9 0 0 0 778.35 1288.63 z"/>
<path transform="translate(0,0)" fill="rgb(72,72,72)" d="M 780.287 1359.59 C 787.758 1367.52 794.703 1388.72 799.045 1399.09 L 782.25 1399.19 L 761.991 1399.37 C 766.657 1385.72 773.869 1372.48 780.287 1359.59 z"/>
<path transform="translate(0,0)" fill="rgb(254,254,254)" d="M 436.018 1290.99 C 465.464 1290.81 513.925 1285.96 538.66 1302.29 C 549.61 1309.53 556.788 1320.44 559.334 1333.29 C 562.254 1348.03 559.36 1364.19 550.804 1376.62 C 540.791 1391.18 526.669 1396.13 510.104 1398.91 C 500.598 1399.36 491.122 1399.25 481.611 1399.14 A 2776.36 2776.36 0 0 0 481.137 1450.17 L 436.012 1450.07 L 436.018 1290.99 z"/>
<path transform="translate(0,0)" fill="rgb(72,72,72)" d="M 481.029 1323.67 C 490.541 1323.83 499.994 1323.59 508.245 1329.15 C 512.436 1331.97 516.002 1336.46 516.856 1341.54 C 518.041 1348.58 514.703 1355.47 510.728 1360.99 C 500.79 1367.51 492.503 1367.58 481.031 1367.56 L 481.029 1323.67 z"/>
<path transform="translate(0,0)" fill="rgb(254,254,254)" d="M 1358.91 1290.77 A 2761.86 2761.86 0 0 0 1402.05 1290.14 L 1402.02 1326.5 L 1402.14 1367.78 C 1402.2 1392.14 1404.11 1417.35 1385.15 1436.01 C 1370.75 1450.19 1350.04 1454.72 1330.41 1454.12 C 1311.59 1453.54 1292.36 1448.4 1279.27 1434.06 C 1272.43 1426.57 1268.28 1417.75 1266.07 1407.94 C 1261.96 1389.69 1263.93 1369.02 1263.88 1350.37 C 1263.82 1330.45 1263.24 1310.36 1264 1290.47 L 1308.03 1290.25 L 1307.97 1359.46 C 1307.96 1371.67 1307 1384.82 1308.7 1396.9 C 1309.39 1401.89 1310.49 1406.86 1313.85 1410.77 C 1318.4 1416.03 1325.56 1417.88 1332.25 1418.06 C 1339.07 1418.24 1346.76 1416.54 1351.72 1411.56 C 1355.71 1407.56 1356.96 1401.07 1357.67 1395.68 C 1359.29 1383.35 1358.25 1370.27 1358.28 1357.83 L 1358.91 1290.77 z"/>
<path transform="translate(0,0)" fill="rgb(254,254,254)" d="M 1088.03 1288.83 A 112.634 112.634 0 0 1 1091.6 1288.68 C 1094.52 1288.59 1097.33 1288.27 1099.91 1289.91 C 1110.99 1296.93 1121.7 1309.41 1131.46 1318.44 C 1150.99 1336.52 1170.99 1354.09 1190.28 1372.41 C 1191.4 1345.25 1190.54 1317.83 1190.37 1290.64 C 1204.21 1290.3 1218.08 1290.52 1231.93 1290.58 L 1232.3 1452.25 L 1231.85 1454.95 C 1230.81 1455.81 1230.09 1456.27 1228.68 1456.41 C 1226.12 1456.66 1224.23 1455.63 1222.23 1454.2 C 1213.44 1447.89 1205.66 1439.17 1197.6 1431.9 C 1175.19 1411.68 1153.1 1390.87 1130.12 1371.31 C 1129.65 1397.56 1130.03 1423.87 1130.03 1450.12 L 1087.92 1450.11 L 1088.03 1288.83 z"/>
<path transform="translate(0,0)" fill="rgb(254,254,254)" d="M 1516.73 1370.66 C 1531.83 1353.7 1547.26 1337.02 1562.27 1319.98 C 1568.77 1312.6 1581.7 1295.41 1588.8 1290.34 C 1590.88 1288.86 1591.93 1289.2 1594.27 1289.47 C 1594.69 1290.05 1595.33 1290.52 1595.54 1291.2 C 1597.45 1297.26 1596.01 1322.34 1596.01 1329.9 L 1595.7 1448.98 L 1565.07 1449.07 C 1561.32 1449.16 1558.04 1449.2 1554.38 1448.33 C 1551.96 1428.64 1554.11 1401.92 1553.73 1381.3 C 1540.22 1395.23 1528.12 1411.44 1515.65 1426.36 C 1501.42 1411.61 1489 1395.24 1475.06 1380.23 C 1474.56 1403.48 1474.97 1426.78 1475.06 1450.03 L 1433.99 1450.03 C 1433.99 1429.54 1432.15 1297.42 1435.13 1289.26 C 1436.18 1289.24 1437.23 1289.21 1438.28 1289.24 C 1439.46 1289.28 1442.01 1289.51 1443.02 1290.08 C 1448.84 1293.4 1506.97 1360.63 1516.73 1370.66 z"/>
<path transform="translate(0,0)" fill="rgb(162,49,47)" d="M 398.399 1229 L 1642.47 1229.02 C 1643.23 1234.75 1642.88 1241.03 1642.96 1246.84 C 1539.76 1248.36 1436.33 1247 1333.1 1247.18 L 398.612 1247.2 C 398.067 1241.17 398.346 1235.05 398.399 1229 z"/>
<path transform="translate(0,0)" fill="rgb(254,254,254)" d="M 398.352 1208.74 L 1304.92 1208.45 C 1417.27 1208.5 1529.68 1209.59 1642.02 1208.36 C 1642.07 1215.14 1641.67 1222.3 1642.47 1229.02 L 398.399 1229 L 398.352 1208.74 z"/>
<path transform="translate(0,0)" fill="rgb(254,254,254)" d="M 1191.66 811.523 C 1256.89 810.299 1322.35 811.257 1387.61 810.824 C 1406.4 810.699 1424.67 809.341 1438.93 823.957 C 1456.36 841.827 1453.56 863.251 1453.65 886.044 L 1453.54 1053.82 C 1453.57 1074.53 1455.78 1115.57 1452.58 1134.25 C 1450.9 1144.02 1444.56 1154.03 1437.5 1160.9 C 1431.21 1167.01 1421.96 1170.35 1413.43 1171.8 C 1396.43 1174.7 1377.58 1172.99 1360.29 1172.96 L 1265.5 1172.82 L 1106.28 1172.81 C 1086.4 1172.71 1055.58 1174.53 1037.39 1171.12 C 1028.95 1169.54 1022.93 1166.18 1016.74 1160.3 C 1005.93 1150.04 1003.37 1140.07 1002.81 1125.82 C 1002.03 1105.84 1002.51 1085.69 1002.46 1065.69 L 1002.55 942.863 L 1002.74 884.482 C 1002.78 872.466 1001.86 859.214 1003.96 847.376 C 1005.34 839.57 1010.7 831.555 1016.08 825.936 C 1022.92 818.78 1031.01 814.973 1040.68 813.084 C 1058.02 809.695 1080.13 811.93 1098.17 811.981 A 7176.62 7176.62 0 0 0 1191.66 811.523 z"/>
<path transform="translate(0,0)" fill="rgb(72,72,72)" d="M 1367.86 822.285 C 1368.46 822.215 1369.05 822.14 1369.65 822.077 C 1379.55 821.031 1390.29 821.391 1398.23 828.217 C 1403.88 833.067 1406.73 840.351 1406.93 847.7 C 1407.13 855.109 1404.49 861.75 1399.38 867.093 C 1390.09 876.786 1375.15 880.068 1362.14 880.147 C 1347.37 880.236 1331.09 876.669 1320.35 866.05 C 1284.18 870.928 1239.36 883.205 1206.1 898.271 A 64.0992 64.0992 0 0 1 1174.92 922.44 L 1173.04 923.128 C 1163.21 926.775 1149.24 921.516 1140.84 926.542 C 1140.05 930.738 1144.54 938.799 1145.26 943.658 C 1145.32 944.045 1145.37 944.432 1145.42 944.819 C 1199.1 945.298 1224.84 951.41 1272.3 978.306 C 1287.19 986.748 1302.07 995.189 1315.99 1005.18 C 1324.33 996.788 1333.5 989.478 1345.48 987.257 A 42.7097 42.7097 0 0 1 1378.24 994.972 A 43.8734 43.8734 0 0 1 1396.2 1023.93 C 1398.01 1036.04 1394.39 1049.23 1386.96 1058.92 C 1378.3 1070.22 1367.01 1074.14 1353.47 1075.99 C 1342.53 1075.17 1332.36 1072.99 1323.71 1065.67 C 1314.37 1057.77 1310.83 1046.93 1309.76 1035.13 C 1298.58 1029.16 1288.04 1021.33 1277.25 1014.62 C 1223.78 981.435 1207.51 975.931 1145.04 972.174 C 1137.94 983.814 1127.82 993.766 1114.3 997.434 C 1102.99 1000.5 1090.49 997.963 1080.48 992.085 A 43.1915 43.1915 0 0 1 1060.28 965.255 A 45.6774 45.6774 0 0 1 1065.44 930.679 C 1071.61 920.532 1082 912.813 1093.58 910.098 C 1107.08 906.934 1117.46 910.957 1128.86 917.713 L 1140.61 911.358 C 1142.1 907.747 1143.57 904.128 1145.9 900.961 C 1150.72 894.417 1158.04 890.796 1165.62 888.408 C 1178.94 884.213 1191.81 887.512 1204.95 884.7 C 1218.1 881.883 1231.13 876.704 1244.1 872.963 A 608.207 608.207 0 0 1 1317.08 856.455 C 1318.31 853.813 1319.7 851.293 1321.36 848.891 C 1331.65 833.967 1350.56 825.432 1367.86 822.285 z"/>
<path transform="translate(0,0)" fill="rgb(254,254,254)" d="M 1101.97 942.958 C 1106.32 943.754 1110.24 944.907 1112.87 948.743 C 1114.59 951.26 1115.14 954.233 1114.14 957.15 C 1112.72 961.298 1109.62 963.124 1105.96 965.088 C 1104.57 964.973 1104.52 965.003 1102.97 964.698 C 1099.31 963.974 1096.02 961.835 1094.24 958.503 A 9.77188 9.77188 0 0 1 1093.66 950.51 C 1095.12 946.369 1098.2 944.734 1101.97 942.958 z"/>
<path transform="translate(0,0)" fill="rgb(254,254,254)" d="M 1096.63 921.082 C 1099.48 920.884 1102.35 920.675 1105.21 920.808 C 1113.01 921.17 1120.8 924.504 1125.99 930.446 C 1129.04 933.941 1132.97 939.34 1132.63 944.113 C 1127.24 945.219 1116.75 932.331 1109.78 930.009 C 1104.33 928.192 1097.93 927.737 1092.7 930.459 C 1086.38 933.745 1081.61 941.68 1079.77 948.343 A 22.737 22.737 0 0 0 1082.02 966.054 C 1085.55 972.082 1091.75 976.369 1098.54 977.865 C 1105.06 979.301 1112.23 978.249 1117.71 974.325 C 1124.51 969.455 1126.43 963.321 1127.52 955.359 C 1147.56 957.025 1167.66 956.079 1187.74 958.388 C 1237.54 964.115 1278.1 995.162 1319.84 1020.36 C 1321.8 1016.59 1323.96 1012.82 1326.85 1009.69 A 34.9026 34.9026 0 0 1 1352.34 998.229 C 1362.77 998.139 1370.55 1002.32 1377.89 1009.4 C 1381.87 1015.18 1384.49 1021.28 1385.15 1028.33 A 32.9342 32.9342 0 0 1 1377.52 1052.74 A 33.3585 33.3585 0 0 1 1354.68 1064.76 A 32.6025 32.6025 0 0 1 1330.66 1057.08 C 1321.67 1049.28 1320.66 1039.82 1320.07 1028.73 C 1307.58 1019.43 1293.12 1011.36 1279.83 1003.2 C 1236.9 976.84 1219.71 969.009 1169.01 963.095 C 1157.75 961.782 1146.5 959.985 1135.22 959.005 C 1134.57 961.488 1133.87 963.936 1132.92 966.326 C 1129.79 974.206 1123.29 981.578 1115.34 984.788 C 1107.04 988.141 1096.93 987.532 1088.93 983.625 A 33.6677 33.6677 0 0 1 1072.01 964.157 C 1069.28 955.853 1069.88 945.99 1073.97 938.23 C 1078.72 929.233 1087.32 924.23 1096.63 921.082 z"/>
<path transform="translate(0,0)" fill="rgb(72,72,72)" d="M 1346.09 1008.24 C 1351.58 1007.94 1356.98 1007.73 1362.04 1010.24 C 1367.62 1013.01 1371.9 1017.67 1373.83 1023.63 A 23.2798 23.2798 0 0 1 1372.46 1041.48 C 1368.85 1048.54 1363.43 1051.77 1356.15 1054.22 C 1351.79 1054.5 1347.36 1054.39 1343.19 1052.93 C 1336.97 1050.75 1331.5 1046.09 1328.91 1039.96 C 1326.54 1034.33 1326.45 1028.02 1328.97 1022.42 C 1332.44 1014.68 1338.47 1011.17 1346.09 1008.24 z"/>
<path transform="translate(0,0)" fill="rgb(254,254,254)" d="M 997.224 1148.19 A 274.826 274.826 0 0 1 957.502 1145.55 C 848.455 1130.79 749.238 1068.06 683.117 981.066 A 431.845 431.845 0 0 1 600.961 663.283 C 616.591 550.476 676.71 451.518 767.397 383.172 A 412.582 412.582 0 0 1 1070.02 304.598 A 420.976 420.976 0 0 1 1351.04 471.384 C 1425.96 571.493 1448.93 685.415 1431.33 807.909 C 1423.86 804.393 1416.43 803.08 1408.29 802.454 C 1396.01 801.51 1383.35 802.298 1371.04 802.413 A 3857.95 3857.95 0 0 1 1315.85 802.434 C 1259.78 802.24 1203.21 800.656 1147.21 802.72 C 1146.9 802.79 1146.6 802.866 1146.29 802.93 C 1138.51 804.559 1129.93 804.143 1121.98 804.127 C 1100.57 804.085 1051.29 801.174 1033.48 806.43 C 1022.02 809.813 1012.09 816.601 1005.33 826.519 C 995.765 840.544 995.022 855.656 993.971 872.001 C 993.793 880.968 995.132 923.736 991.804 928.051 L 987.161 931.392 C 988.627 931.698 991.188 931.714 991.927 933.089 C 994.071 937.079 994.299 964.336 992.833 968.98 C 992.204 970.971 992.3 970.658 990.854 971.233 L 990.522 973.008 C 992.6 974.741 992.678 974.872 992.974 977.687 C 993.714 984.74 994.866 1012.02 992.072 1017.45 L 990.038 1017.88 L 990.076 1018.87 L 992.766 1020.23 C 995.504 1029.35 994.36 1052.51 992.828 1062.37 C 990.229 1063.53 988.31 1062.8 985.549 1062.43 L 984.035 1063.43 C 987.174 1063.91 990.327 1064.24 993.481 1064.6 C 994.152 1088.43 989.771 1126.7 997.224 1148.19 z"/>
<path transform="translate(0,0)" fill="rgb(72,72,72)" d="M 812.397 714.586 C 815.042 724.959 814.384 737.231 816.184 747.964 C 821.809 781.511 837.474 815.277 857.651 842.507 C 888.375 883.971 940.007 920.389 991.804 928.051 L 987.161 931.392 C 942.976 928.341 893.909 898.831 864.491 866.833 C 824.369 823.194 809.854 772.737 812.397 714.586 z"/>
<path transform="translate(0,0)" fill="rgb(72,72,72)" d="M 1003.46 515.425 C 1020.85 514.288 1039.47 515.258 1056.6 518.367 A 208.292 208.292 0 0 1 1192.35 606.127 C 1217.36 642.37 1229.17 684.185 1229.69 727.959 C 1229.81 738.074 1229.92 749.067 1227.96 758.996 C 1227.88 759.396 1227.78 759.793 1227.7 760.191 L 1228 759.858 C 1226.34 756.098 1227.42 750.383 1227.61 746.249 L 1227.63 744.655 C 1228.06 683.827 1202.17 625.318 1159.53 582.465 C 1126.33 549.093 1079.08 526.153 1032.52 519.758 C 1017.56 517.704 1002.08 517.69 987.003 517.669 C 992.405 516.432 997.954 516.013 1003.46 515.425 z"/>
<path transform="translate(0,0)" fill="rgb(72,72,72)" d="M 990.522 973.008 C 989.793 973.044 989.064 973.101 988.335 973.084 C 938.476 971.905 871.66 935.491 838.065 899.118 C 790.707 847.844 766.467 783.267 769.496 713.495 C 771.121 728.102 772.08 742.71 774.778 757.183 C 781.194 791.609 796.816 827.669 816.856 856.432 C 857.085 914.17 921.216 958.782 990.854 971.233 L 990.522 973.008 z"/>
<path transform="translate(0,0)" fill="rgb(72,72,72)" d="M 1009.65 471.468 C 1021.8 471.615 1033.86 472.005 1045.94 473.395 A 250.806 250.806 0 0 1 1214.96 566.64 A 265.732 265.732 0 0 1 1269.95 760.059 C 1269.07 756.291 1269.48 752.105 1269.55 748.25 C 1269.51 680.337 1246.61 614.723 1200.37 564.332 A 287.988 287.988 0 0 0 1031.62 475.449 C 1019.95 473.76 1007.87 473.656 996.093 473.12 L 994.925 472.139 L 992.857 472.561 L 1009.65 471.468 z"/>
<path transform="translate(0,0)" fill="rgb(72,72,72)" d="M 990.076 1018.87 C 989.735 1018.85 989.394 1018.85 989.054 1018.83 C 918.238 1014.14 847.627 975.948 800.643 923.417 C 753.314 870.5 721.277 792.595 725.456 721.112 C 727.632 732.924 728.266 745.082 730.3 756.969 A 312.636 312.636 0 0 0 771.122 867.51 A 330.221 330.221 0 0 0 936.865 1003.23 C 954.33 1009.66 972.042 1013.45 990.038 1017.88 L 990.076 1018.87 z"/>
<path transform="translate(0,0)" fill="rgb(72,72,72)" d="M 984.035 1063.43 A 336.266 336.266 0 0 1 767.09 952.8 C 713.292 892.342 675.857 807.437 680.422 725.37 C 682.36 739.231 683.473 753.147 685.847 766.954 A 345.961 345.961 0 0 0 738.259 901.723 C 783.985 969.839 851.938 1023.65 930.192 1049.08 C 948.341 1054.98 966.852 1058.76 985.549 1062.43 L 984.035 1063.43 z"/>
<path transform="translate(0,0)" fill="rgb(72,72,72)" d="M 991.838 429.538 C 1006.05 429.075 1020.28 428.486 1034.5 429.207 A 293.551 293.551 0 0 1 1234.03 524.306 C 1284.27 579.97 1316.04 661.627 1312.28 736.971 L 1311.57 736.758 C 1312.27 736.143 1312.43 735.346 1312.77 734.496 L 1310.99 734.561 C 1311.56 725.773 1309.96 716.28 1309.05 707.5 A 309.235 309.235 0 0 0 1238.16 542.662 C 1190.23 486.682 1119.01 446.471 1046.52 433.919 C 1028.21 430.748 1010.22 431.016 991.838 429.538 z"/>
<path transform="translate(0,0)" fill="rgb(72,72,72)" d="M 993.679 385.415 A 468.146 468.146 0 0 1 1031.1 384.997 C 1117.73 387.96 1203.39 428.965 1262.17 492.155 C 1312.2 545.932 1344.32 618.574 1352.26 691.528 C 1354.46 711.714 1354.24 731.837 1353.49 752.092 L 1352.65 742.619 A 353.898 353.898 0 0 0 1250.5 492.948 C 1196.41 437.663 1119.66 398.844 1042.97 388.871 C 1023.34 386.319 1003.15 386.84 983.381 386.596 C 986.803 386.135 990.247 385.799 993.679 385.415 z"/>
<path transform="translate(0,0)" fill="rgb(162,49,47)" d="M 993.971 872.001 A 195.089 195.089 0 0 1 976.506 867.849 A 145.465 145.465 0 0 1 889.528 796.371 C 870.687 760.995 868.143 720.667 880.074 682.618 C 891.909 644.874 919.448 615.348 954.302 597.355 C 987.096 580.425 1027.67 577.924 1062.63 589.448 A 148.921 148.921 0 0 1 1149.58 664.822 C 1166.78 699.604 1168.24 739.265 1157.25 776.09 C 1154.69 784.695 1150.54 792.481 1147.78 800.934 L 1147.21 802.72 C 1146.9 802.79 1146.6 802.866 1146.29 802.93 C 1138.51 804.559 1129.93 804.143 1121.98 804.127 C 1100.57 804.085 1051.29 801.174 1033.48 806.43 C 1022.02 809.813 1012.09 816.601 1005.33 826.519 C 995.765 840.544 995.022 855.656 993.971 872.001 z"/>
<path transform="translate(0,0)" fill="rgb(254,254,254)" d="M 1014.63 705.063 C 1019.12 704.946 1023.41 704.988 1027.56 706.944 A 21.9279 21.9279 0 0 1 1039.2 720.317 A 22.343 22.343 0 0 1 1037.45 737.982 C 1033.81 744.441 1028.48 747.088 1021.57 748.976 C 1017.45 749.044 1013.47 749.245 1009.65 747.463 C 1004.12 744.878 999.819 740.372 997.773 734.592 A 22.1764 22.1764 0 0 1 998.866 717.006 C 1002.3 710.331 1007.7 707.248 1014.63 705.063 z"/>
</svg>