<svg version="1.1" xmlns="http://www.w3.org/2000/svg" style="display: block;" viewBox="0 0 2048 2048" width="1024" height="1024">
<path transform="translate(0,0)" fill="rgb(246,246,245)" d="M 0 0 L 2048 0 L 2048 2048 L 0 2048 L 0 0 z"/>
<path transform="translate(0,0)" fill="rgb(80,79,79)" d="M 1016.25 63.2055 C 1019.19 62.7872 1022.13 62.479 1025.11 62.688 C 1047.56 64.2648 1081.7 116.083 1096.16 133.111 C 1105.12 143.667 1115.79 155.384 1130.03 158.1 C 1164.81 164.733 1220.36 91.0913 1255.14 94.8087 C 1261.91 95.5324 1267.21 99.0921 1271.66 104.111 C 1278.24 111.549 1282.48 121.052 1286.88 129.862 C 1297.33 150.807 1308.68 179.139 1323.3 196.844 C 1328.84 203.557 1336.03 209.162 1344.78 210.72 C 1367.88 214.831 1413.98 189.963 1436.3 181.27 C 1445.54 177.675 1455.9 173.471 1465.99 174.666 C 1473.66 175.575 1479.18 180.122 1483.12 186.601 C 1499.42 213.407 1498.55 277.114 1519.3 300.73 C 1522.72 304.627 1528.08 309.055 1532.96 310.899 C 1564.23 322.712 1614.25 299.824 1647.73 303.338 C 1701.88 309.02 1650.03 415.865 1678.61 450.155 C 1695.76 470.734 1757.49 468.174 1784.07 470.579 C 1794.52 471.525 1806.43 473.455 1813.29 482.282 C 1817.08 487.156 1818.5 493.264 1818.4 499.347 C 1818.23 510.116 1814.29 521.133 1811.36 531.41 C 1804.94 553.951 1796.13 577.917 1793.29 601.185 C 1792.2 610.112 1792.66 619.587 1797.67 627.352 C 1817.17 657.581 1898.07 658.753 1916.07 682.932 C 1920.32 688.636 1921.67 695.379 1920.44 702.339 C 1918.64 712.521 1912.43 722.4 1907.29 731.222 C 1895.84 750.852 1870.16 787.753 1867.5 809.401 C 1866.64 816.401 1867.78 822.936 1871.63 828.903 C 1888.64 855.269 1949.23 870.242 1968.53 895.254 C 1973.06 901.128 1975.77 908.674 1974.23 916.095 C 1967.72 947.658 1894.27 988.754 1890.66 1021.03 C 1889.85 1028.25 1892.3 1034.79 1896 1040.87 C 1902.13 1050.97 1911.59 1059.29 1919.92 1067.54 C 1935.43 1082.87 1952.5 1098.04 1966.12 1115.09 C 1971.71 1122.11 1976.12 1130.16 1974.85 1139.42 C 1974.07 1145.13 1971.03 1150.07 1967.09 1154.17 C 1947.61 1174.46 1905.3 1191.87 1881.61 1210.01 C 1873.44 1216.27 1865.64 1224.74 1864.25 1235.34 C 1859.67 1270.2 1927.08 1329.13 1922.34 1357.21 C 1917.74 1384.42 1832.67 1394.04 1808.2 1411.34 C 1799.89 1417.21 1793.56 1425.75 1791.87 1435.91 C 1787.91 1459.78 1809.47 1508.64 1815.4 1534.19 C 1817.29 1542.33 1819.33 1551.89 1817.61 1560.19 C 1816.24 1566.77 1812.21 1571.53 1806.26 1574.55 C 1779.18 1588.28 1703.26 1577.88 1680.31 1594.52 C 1674.63 1598.63 1671.04 1604.06 1669.28 1610.83 C 1666.61 1621.05 1667.97 1632.36 1668.35 1642.82 C 1669.06 1662.37 1672.08 1707.63 1668.86 1724.44 C 1667.52 1731.39 1664.16 1738.25 1657.56 1741.51 C 1633.32 1753.46 1547.18 1723.04 1521.9 1740.38 C 1517.52 1743.39 1514.53 1747.78 1512.29 1752.53 C 1502.74 1772.85 1497.09 1815.28 1492.16 1838.88 C 1489.73 1850.55 1486.18 1867.02 1475.22 1873.66 C 1470.16 1876.72 1464.08 1877.11 1458.36 1876.16 C 1447.99 1874.42 1437.97 1869.41 1428.42 1865.16 C 1407 1855.64 1383.94 1842.81 1361.24 1837.05 C 1351.59 1834.6 1340.55 1834.32 1331.9 1839.98 C 1307.38 1856.04 1292.01 1936.32 1266.03 1950.64 C 1234.36 1968.08 1174.1 1895.16 1141.7 1887.02 C 1106.3 1878.13 1067.4 1965.43 1037.39 1982.19 C 1029.63 1986.53 1023.59 1986.85 1015.16 1984.58 C 982.759 1969.88 950.881 1895.1 916.387 1888.78 C 910.67 1887.73 905.141 1888.54 899.826 1890.82 C 879.729 1899.43 842.683 1931.44 822.903 1945.57 C 814.112 1951.85 803.547 1957.72 792.367 1955.47 C 786.138 1954.21 781.22 1950.75 777.266 1945.87 C 770.828 1937.92 766.796 1927.87 762.393 1918.7 C 752.386 1897.86 743.04 1874.03 730.071 1854.99 C 724.345 1846.59 716.848 1838.87 706.513 1836.73 C 676.501 1830.52 605.686 1880.37 578.393 1874.31 C 571.447 1872.77 566.499 1868.72 562.96 1862.63 C 558.045 1854.16 556.567 1843.63 554.569 1834.18 C 550.154 1813.31 543.233 1768.21 532.643 1751.76 C 527.353 1743.55 519.644 1738.02 510.065 1735.9 C 492.181 1731.93 444.541 1741.81 423.464 1744.84 C 414.039 1746.19 403.547 1748.32 394.15 1745.86 C 386.386 1743.83 380.841 1738.43 378.011 1730.97 C 374.331 1721.26 375.222 1709.66 375.42 1699.46 C 375.86 1676.73 381.433 1624.05 370.638 1606.33 C 353.393 1578.02 280.388 1583.63 249.706 1576.25 C 241.425 1574.25 233.495 1570.36 229.168 1562.67 C 226.352 1557.66 225.671 1551.68 226.231 1546.03 C 227.277 1535.5 231.566 1524.95 234.88 1514.95 C 241.276 1495.66 248.739 1476.06 253.747 1456.39 C 256.673 1444.9 256.991 1432.76 249.788 1422.71 C 228.289 1392.72 140.143 1391.01 125.921 1365.36 C 122.491 1359.17 122.767 1351.91 124.813 1345.32 C 127.627 1336.26 133.507 1328.04 138.688 1320.21 C 150.397 1302.5 179.366 1264.9 183.979 1245.86 C 186.546 1235.26 184.376 1225.13 177.395 1216.71 C 169.699 1207.43 157.869 1202.16 147.503 1196.42 C 130.318 1186.91 85.2811 1164.15 75.721 1148.25 C 71.4958 1141.22 71.2942 1133.37 74.4753 1125.9 C 86.5993 1097.41 150.814 1057.39 156.768 1029.04 C 158.415 1021.2 156.823 1013.42 152.988 1006.46 C 139.149 981.337 93.5819 952.937 77.0168 926.32 C 72.884 919.679 70.8341 912.315 72.9431 904.591 C 74.452 899.065 77.9435 894.381 82.177 890.608 C 99.2258 875.415 134.689 859.827 155.527 848.066 C 167.548 841.281 179.568 833.964 183.134 819.62 C 184.914 812.461 184.052 805.23 181.404 798.407 C 174.605 780.888 147.534 747.783 136.22 729.415 C 128.804 717.377 121.518 704.415 125.481 689.765 C 127.075 683.871 131.159 679.208 136.163 675.869 C 144.506 670.302 155.118 667.316 164.565 664.081 C 187.881 656.095 218.195 648.522 239.513 636.473 C 244.827 633.469 250.682 629.323 253.594 623.801 C 269.718 593.233 219.044 525.197 229.403 490.831 C 231.684 483.266 237.306 477.859 244.46 474.77 C 253.109 471.037 263.215 470.751 272.495 469.907 C 296.616 467.716 336.434 467.353 357.275 456.313 C 364.33 452.575 369.764 447.223 372.807 439.772 C 379.833 422.564 375.177 369.642 374.894 347.89 C 374.77 338.337 374.041 327.89 377.269 318.743 C 380.442 309.751 387.265 303.441 396.608 301.314 C 425.097 294.828 492.307 324.315 517.909 311.486 C 524.731 308.067 529.944 302.503 533.539 295.825 C 545.296 273.984 551.696 222.19 560.335 195.426 C 563.376 186.004 568.759 177.576 577.994 173.225 C 594.124 165.625 654.959 195.715 672.913 202.322 C 682.109 205.706 693.409 210.037 703.37 208.919 C 710.465 208.123 717.357 205.303 722.698 200.55 C 747.576 178.41 760.141 106.619 788.173 94.5916 C 794.322 91.9532 800.564 91.6904 806.948 93.6593 C 825.596 99.4105 860.206 128.631 877.46 141.103 C 884.641 146.294 892.35 152.299 900.629 155.513 C 908.528 158.581 916.847 159.497 924.931 156.505 C 956.716 144.742 984.972 77.2665 1016.25 63.2055 z"/>
<path transform="translate(0,0)" fill="rgb(246,246,245)" d="M 991.17 197.428 L 992.851 197.349 A 807.646 807.646 0 0 1 1359.89 270.433 C 1386.51 282.695 1412.18 296.924 1437.55 311.562 C 1482.6 337.552 1527.95 367.968 1566.42 403.144 C 1602.5 436.137 1638.03 471.73 1668.33 510.108 C 1743.7 605.577 1803 731.791 1829.24 850.556 A 742.353 742.353 0 0 1 1846.19 982.983 A 827.994 827.994 0 0 1 1629.38 1581.07 C 1478.91 1745.27 1281.17 1839.82 1058.34 1849.69 A 822.878 822.878 0 0 1 479.675 1643.71 A 832.368 832.368 0 0 1 202.746 1069.27 A 822.206 822.206 0 0 1 414.329 470.007 A 836.346 836.346 0 0 1 876.873 209.534 C 914.65 202.47 952.865 199.575 991.17 197.428 z"/>
<path transform="translate(0,0)" fill="rgb(224,56,53)" d="M 995.557 217.437 C 1021.19 216.19 1047.06 217.202 1072.65 218.736 A 806.267 806.267 0 0 1 1562.75 426.783 A 808.534 808.534 0 0 1 1825.05 975.482 A 807.045 807.045 0 0 1 1614.65 1567.28 C 1467.33 1730.15 1273.9 1819.08 1055.19 1829.77 C 845.848 1835.24 646.007 1766.79 489.719 1625.97 C 335.423 1486.94 233.924 1281.7 223.411 1073.56 A 813.933 813.933 0 0 1 437.845 472.271 C 547.025 352.065 705.887 265.067 864.525 232.578 C 907.835 223.709 951.465 219.511 995.557 217.437 z"/>
<path transform="translate(0,0)" fill="rgb(246,246,245)" d="M 1000.61 244.44 A 186.258 186.258 0 0 1 1003.75 244.288 C 1035.7 242.913 1068.31 245.026 1100.1 248.252 C 1269.78 265.474 1426.04 339.825 1551.31 454.63 A 775.854 775.854 0 0 1 1798.73 993.754 A 786.06 786.06 0 0 1 1590.66 1553.97 A 772.251 772.251 0 0 1 1049.84 1802.74 A 775.197 775.197 0 0 1 503.391 1600.8 A 789.158 789.158 0 0 1 249.483 1052.97 A 778.481 778.481 0 0 1 454.262 496.35 C 598.202 340.086 788.559 253.341 1000.61 244.44 z"/>
<path transform="translate(0,0)" fill="rgb(80,79,79)" d="M 1010.07 276.495 L 1011.61 276.44 C 1138.32 272.155 1269.97 306.086 1380.62 367.687 C 1414.86 386.751 1447.74 409.422 1478.71 433.39 C 1497.12 447.642 1515.5 462.145 1532.48 478.112 A 754.068 754.068 0 0 1 1768.52 1001.06 A 754.213 754.213 0 0 1 1561.92 1539.33 A 733.493 733.493 0 0 1 1142.96 1764.23 C 1108.6 1769.65 1074.2 1771.75 1039.46 1772.77 C 1008.81 1772.93 978.23 1772.32 947.721 1769.05 A 745.102 745.102 0 0 1 519.592 1574.12 A 755.364 755.364 0 0 1 280.61 1040.54 A 747.576 747.576 0 0 1 487.937 505.862 A 740.031 740.031 0 0 1 612.232 401.824 C 636.629 385.367 661.744 369.343 687.853 355.717 C 705.056 346.74 723.002 339.205 740.918 331.785 C 828.193 295.644 915.894 279.028 1010.07 276.495 z"/>
<path transform="translate(0,0)" fill="rgb(224,56,53)" d="M 1010.9 297.473 A 726.989 726.989 0 0 1 1515.98 494.312 A 720.339 720.339 0 0 1 1744.38 988.984 C 1751.54 1193.39 1682.14 1378.16 1542.55 1527.58 A 720.53 720.53 0 0 1 1039.55 1751.81 C 895.769 1752.33 763.477 1716.48 641.699 1639.58 A 697.666 697.666 0 0 1 541.867 1564.69 A 727.119 727.119 0 0 1 321.533 1184.92 C 312.826 1146.88 306.321 1107.52 304.478 1068.49 C 294.825 864.143 358.694 680.469 496.978 529.177 A 717.333 717.333 0 0 1 630.939 416.402 C 749.45 338.685 869.624 303.858 1010.9 297.473 z"/>
<path transform="translate(0,0)" fill="rgb(80,79,79)" d="M 1002.64 335.442 A 537.091 537.091 0 0 1 1015.99 335.095 C 1199.41 332.648 1372.57 407.044 1503.21 534.775 C 1530.39 561.348 1554.2 590.063 1576.58 620.722 C 1664.2 740.727 1706.17 877.734 1707.73 1025.77 C 1709.07 1152.45 1665.34 1292.34 1597.06 1398.59 A 666.311 666.311 0 0 1 1512.47 1503.62 C 1391.85 1626.27 1222.58 1710.44 1048.57 1712.15 A 688.178 688.178 0 0 1 561.043 1529.36 A 694.236 694.236 0 0 1 342.691 1051.59 C 336.615 862.611 399.375 687.621 529.398 549.35 A 674.242 674.242 0 0 1 1002.64 335.442 z"/>
<path transform="translate(0,0)" fill="rgb(246,246,245)" d="M 1015.96 355.439 A 256.226 256.226 0 0 1 1019.54 355.36 C 1193.89 352.826 1362.14 426.508 1486.35 547.253 A 674.594 674.594 0 0 1 1686.69 1019.57 C 1688.99 1192.81 1615.34 1371.84 1494.62 1495.62 A 658.459 658.459 0 0 1 1032.75 1692.3 A 658.307 658.307 0 0 1 582.106 1520.37 A 673.47 673.47 0 0 1 362.547 1052.93 A 664.161 664.161 0 0 1 531.456 576.995 A 672.272 672.272 0 0 1 910.199 365.297 C 945.403 359.13 980.327 357.038 1015.96 355.439 z"/>
<path transform="translate(0,0)" fill="rgb(80,79,79)" d="M 996.947 367.425 C 997.435 367.383 997.923 367.328 998.413 367.299 C 1169 357.202 1340.54 427.168 1464.69 542.364 A 657.325 657.325 0 0 1 1675.9 1003.05 C 1682.3 1173.72 1615.72 1350.57 1499.51 1475.58 A 651.54 651.54 0 0 1 1053.25 1680.97 A 648.615 648.615 0 0 1 598.785 1521.16 A 664.3 664.3 0 0 1 373.441 1061.88 A 651.32 651.32 0 0 1 533.667 591.257 C 635.993 476.204 772.05 398.388 924.625 374.424 C 948.657 370.649 972.677 368.844 996.947 367.425 z"/>
<path transform="translate(0,0)" fill="rgb(246,246,245)" d="M 1561.13 1277.48 C 1564.06 1275.65 1566.8 1273.52 1570.45 1274.43 C 1572.56 1274.95 1574.5 1275.91 1576.41 1276.94 C 1577.2 1279.46 1578.09 1282.91 1577.3 1285.52 C 1576.42 1288.41 1575.09 1290.14 1572.43 1291.61 C 1570.18 1292.86 1566.66 1292.95 1564.31 1291.94 C 1561.83 1290.87 1560.1 1289.49 1559.17 1286.88 C 1557.87 1283.22 1559.36 1280.55 1561.13 1277.48 z"/>
<path transform="translate(0,0)" fill="rgb(246,246,245)" d="M 1178.84 1510.98 C 1180.23 1510.95 1181.64 1510.9 1183.02 1511.07 C 1186.3 1511.46 1189.23 1513.34 1191.1 1516.05 C 1193.02 1518.81 1193.49 1521.99 1192.7 1525.23 C 1191.58 1529.82 1188.85 1531.76 1185.01 1534.16 C 1181.03 1534.16 1176.83 1533.58 1174.1 1530.36 C 1171.99 1527.88 1171.1 1525.22 1171.5 1521.96 C 1172.15 1516.75 1174.93 1514.15 1178.84 1510.98 z"/>
<path transform="translate(0,0)" fill="rgb(246,246,245)" d="M 1119.93 1506 A 93.7178 93.7178 0 0 1 1122.74 1506 C 1126.65 1506.08 1130.5 1506.81 1133.07 1510.09 C 1135.01 1512.58 1135.77 1515.26 1135.16 1518.39 C 1134.17 1523.44 1130.84 1525.95 1126.83 1528.74 C 1125.43 1528.74 1123.97 1528.79 1122.57 1528.56 C 1119.11 1528 1115.67 1525.76 1113.85 1522.75 C 1112.38 1520.32 1112.04 1517.55 1112.63 1514.81 C 1113.59 1510.28 1116.21 1508.39 1119.93 1506 z"/>
<path transform="translate(0,0)" fill="rgb(224,56,53)" d="M 1561.13 1277.48 C 1557.37 1268.84 1556.69 1259.1 1553.76 1250.14 C 1545.54 1225.02 1521.97 1209.8 1498.52 1200.71 C 1463.39 1187.1 1427.73 1188.24 1392.32 1199.98 C 1385.24 1202.34 1362.28 1213.46 1356.23 1209.03 C 1354.64 1207.86 1354.28 1207.21 1353.53 1205.41 C 1352.26 1202.38 1352.62 1198.75 1353.92 1195.79 C 1356.87 1189.02 1379.1 1181.38 1386.84 1178.71 C 1428.79 1164.27 1474.49 1163.71 1514.86 1183.53 C 1539.38 1195.58 1564.3 1217.37 1573.16 1243.99 C 1576.76 1254.81 1576.64 1265.66 1576.41 1276.94 C 1574.5 1275.91 1572.56 1274.95 1570.45 1274.43 C 1566.8 1273.52 1564.06 1275.65 1561.13 1277.48 z"/>
<path transform="translate(0,0)" fill="rgb(224,56,53)" d="M 648.267 931.835 C 648.923 931.889 649.583 931.901 650.235 931.996 C 653.19 932.425 657.38 934.152 659.088 936.723 C 665.533 946.433 634.108 963.601 630.882 982.443 C 626.525 1007.9 666.637 1031.08 680.835 1051.96 C 690.656 1066.41 694.394 1082.57 690.915 1099.76 A 74.3321 74.3321 0 0 1 658.951 1147.13 C 638.454 1160.37 616.601 1159.93 593.59 1155.12 C 591.275 1154.21 588.645 1153.32 586.615 1151.86 C 583.159 1149.38 581.514 1145.2 580.862 1141.16 C 585.135 1127.06 610.214 1137.58 621.424 1137.45 C 630.588 1137.34 640.538 1134.13 648.274 1129.26 C 659.579 1122.14 668.386 1110.96 671.076 1097.72 C 679.069 1058.37 635.686 1043.08 618.817 1015.35 C 611.469 1003.28 609.212 989.234 612.706 975.482 C 617.203 957.784 632.77 940.826 648.267 931.835 z"/>
<path transform="translate(0,0)" fill="rgb(246,246,245)" d="M 1370.99 1288.43 C 1377.68 1290.8 1425.23 1327.36 1429.38 1332.53 C 1431.81 1335.55 1432.6 1338.08 1432.07 1341.99 C 1430.68 1344.42 1428.56 1346.81 1425.61 1347.33 C 1418.67 1348.57 1388.98 1322.58 1382.4 1317.42 A 131.297 131.297 0 0 1 1391.86 1340.96 C 1401.52 1374.01 1396.8 1411.71 1380.08 1441.76 C 1351.75 1492.67 1302.69 1513.68 1249.41 1528.58 C 1243.63 1529.9 1235.06 1532.81 1229.35 1530.59 C 1226.73 1529.57 1225.67 1528.12 1224.41 1525.73 C 1224.31 1524.1 1223.93 1522.92 1224.74 1521.43 C 1229.09 1513.39 1250.42 1511.98 1258.77 1509.84 C 1300.72 1499.09 1341.69 1477.03 1364.11 1438.56 C 1386.15 1400.74 1384.31 1357.32 1373.44 1316.43 C 1367.51 1326.18 1362.43 1336.46 1356.42 1346.15 C 1354.24 1349.68 1352.68 1352.24 1348.37 1353.04 C 1345.82 1353.51 1343.51 1353.02 1341.49 1351.34 C 1339.43 1349.62 1338.73 1347.82 1338.7 1345.18 C 1338.62 1338.31 1364.77 1295.22 1370.99 1288.43 z"/>
<path transform="translate(0,0)" fill="rgb(246,246,245)" d="M 492.004 1031.53 C 499.214 1035.51 510.304 1058.09 514.345 1066.11 L 515.173 1066.23 C 527.793 1068.08 540.142 1071.43 552.521 1074.45 C 545.897 1085.72 535.735 1096.02 526.986 1105.71 C 528.832 1119.1 529.426 1132.48 529.597 1145.98 C 517.531 1142.09 505.905 1136.72 494.241 1131.77 C 489.409 1130.54 463.785 1143.43 456.971 1146.06 C 456.516 1132.4 457.383 1118.82 458.305 1105.2 C 449.128 1095.79 440.254 1086.36 432.601 1075.64 C 445.331 1071.37 458.639 1068.84 471.584 1065.28 A 401.921 401.921 0 0 1 492.004 1031.53 z"/>
<path transform="translate(0,0)" fill="rgb(246,246,245)" d="M 1256.85 492.041 C 1262.85 500.155 1272.23 530.998 1276.58 542.489 C 1288.3 573.43 1301.36 603.619 1311.31 635.244 C 1289.91 643.372 1268.82 652.334 1247.49 660.648 L 928.966 786.546 C 899.511 798.162 870.271 810.467 840.668 821.675 C 843.67 826.663 845.84 831.57 847.937 836.991 L 1341.44 922.054 C 1333.3 970.268 1325.82 1018.35 1318.54 1066.7 A 2920.56 2920.56 0 0 0 1255.78 1053.97 C 1202.29 1043.45 1148.47 1034.92 1094.81 1025.33 L 857.918 982.155 C 816.173 974.666 774.18 967.872 732.593 959.58 C 732.967 935.261 736.452 910.946 737.374 886.604 A 427.986 427.986 0 0 1 726.441 886.17 C 720.374 885.823 716.084 884.495 711.959 879.913 C 709.881 870.642 722.15 765.753 725.668 759.431 C 726.078 758.693 727.127 756.95 727.09 756.153 C 726.795 749.829 708.367 725.553 707.04 713.546 C 708.294 710.92 710.321 710.293 712.906 709.024 C 727.093 702.06 742.837 697.028 757.517 691.081 A 9913.03 9913.03 0 0 1 857.347 651.013 L 1131.42 542.535 C 1173.28 525.813 1215.59 510.204 1256.85 492.041 z"/>
<path transform="translate(0,0)" fill="rgb(80,79,79)" d="M 1305.7 1027.79 L 1306.83 1028.87 C 1306.64 1034.32 1304.8 1039.68 1303.39 1044.92 C 1299.38 1043.83 1295.27 1042.99 1291.22 1042.05 L 1288.31 1041.17 L 1287.72 1039.77 C 1291.56 1035.04 1300.37 1031.07 1305.7 1027.79 z"/>
<path transform="translate(0,0)" fill="rgb(80,79,79)" d="M 759.967 808.163 C 762.356 808.037 764.897 807.814 767.265 808.213 C 771.478 808.923 775.51 811.643 777.936 815.129 C 780.7 819.101 781.243 823.945 780.178 828.588 C 778.656 835.218 774.378 838.496 768.813 841.87 C 766.306 842.03 763.614 842.296 761.137 841.791 C 756.774 840.902 752.59 838.108 750.2 834.348 C 747.734 830.467 747.253 825.67 748.397 821.266 C 750.098 814.721 754.331 811.383 759.967 808.163 z"/>
<path transform="translate(0,0)" fill="rgb(80,79,79)" d="M 1275.43 576.747 C 1279.14 582.047 1288.36 614.852 1292.67 624.759 A 1098.92 1098.92 0 0 1 1261.73 638.268 L 1247.63 643.865 C 1256.96 621.517 1265.83 598.985 1275.43 576.747 z"/>
<path transform="translate(0,0)" fill="rgb(80,79,79)" d="M 737.372 740.59 C 753.684 744.036 770.544 744.302 787.144 745.084 C 808.534 780.922 824.281 821.891 845.058 857.048 C 845.118 864.444 844.984 871.497 843.505 878.767 C 830.597 879.387 817.298 878.074 804.398 877.321 C 778.25 875.795 751.952 873.749 725.75 874.159 C 723.419 873.861 723.593 873.927 722.146 872.069 C 722.058 868.6 721.537 866.585 723.278 863.531 C 725.703 862.169 727.73 861.711 730.525 861.626 C 740.167 861.334 750.611 863.024 760.343 863.467 A 2610.8 2610.8 0 0 1 839.422 867.743 C 835.464 849.161 795.953 778.224 784.929 758.496 A 523.781 523.781 0 0 1 746.532 757.008 C 743.69 751.445 740.444 746.032 737.372 740.59 z"/>
<path transform="translate(0,0)" fill="rgb(80,79,79)" d="M 962.266 626.014 L 962.82 626.212 C 964.311 630.772 911.129 761.866 904.02 779.28 C 881.969 790.752 856.995 797.663 834.067 807.416 C 822.345 784.054 808.734 761.321 795.969 738.498 C 794.946 737.38 793.979 736.34 792.557 735.719 C 785.744 732.742 743.72 727.401 738.325 730.079 C 736.634 730.918 736.286 731.386 734.244 731.064 C 731.008 728.368 729.508 724.394 727.666 720.687 C 755.08 707.654 784.124 697.09 812.307 685.799 L 962.266 626.014 z"/>
<path transform="translate(0,0)" fill="rgb(80,79,79)" d="M 858.652 856.788 C 875.323 860.594 892.639 862.57 909.527 865.332 A 6531.2 6531.2 0 0 1 999.788 881.118 C 1021.04 884.788 1042.75 887.63 1063.68 892.812 C 1023.27 918.372 982.126 942.868 941.561 968.203 L 929.739 975.569 C 914.863 974.115 899.967 970.796 885.229 968.237 A 3662 3662 0 0 1 807.446 954.267 C 787.655 950.472 764.815 948.543 746.249 941.015 C 769.221 923.75 796.874 905.408 821.964 891.273 A 513.552 513.552 0 0 0 832.044 892.491 C 838.384 893.177 846.166 893.847 851.341 889.312 C 858.729 882.837 857.97 865.96 858.652 856.788 z"/>
<path transform="translate(0,0)" fill="rgb(80,79,79)" d="M 1215.04 526.267 C 1215.47 531.874 1161.32 664.694 1155.09 680.522 C 1135.36 689.447 1114.4 696.389 1094.3 704.551 C 1062.37 717.511 1030.32 731.824 997.767 743.035 C 997.073 737.584 1049.57 607.056 1057.63 588.583 C 1109.57 566.561 1163.14 548.329 1215.04 526.267 z"/>
<path transform="translate(0,0)" fill="rgb(80,79,79)" d="M 1160.94 908.772 A 7041.69 7041.69 0 0 1 1271.27 927.332 C 1288.54 930.255 1305.93 932.554 1323.11 935.995 A 214.936 214.936 0 0 0 1318.53 964.664 C 1283.1 985.4 1249.02 1008.34 1212.68 1027.57 C 1205.72 1026.96 1198.74 1025.44 1191.86 1024.22 C 1135.8 1013.12 1078.24 1005.65 1022.77 992.163 C 1067.38 962.483 1114.63 935.696 1160.94 908.772 z"/>
<path transform="translate(0,0)" fill="rgb(246,246,245)" d="M 745.189 988.149 C 932.831 1019.71 1119.92 1056.44 1308.17 1084.03 L 1293.65 1320.13 L 1289.87 1382.93 C 1289.15 1395.04 1289.24 1408.17 1286.71 1420.03 C 1284.9 1428.46 1279.27 1435.13 1273.74 1441.48 C 1266.54 1447.14 1261.19 1449.87 1251.97 1449.61 C 1218.35 1448.68 1184.29 1444.89 1150.69 1442.49 L 942.797 1427.58 L 810.895 1417.79 C 792.924 1416.48 772.904 1417.34 755.297 1414.15 C 745.478 1412.37 736.661 1407.01 729.954 1399.69 C 724.245 1393.46 719.65 1384.69 719.09 1376.14 C 718.255 1363.39 720.362 1349.52 721.332 1336.77 L 726.789 1263.17 A 21440.6 21440.6 0 0 0 745.189 988.149 z"/>
<path transform="translate(0,0)" fill="rgb(0,0,0)" d="M 1065.24 1220.27 C 1067.08 1220.54 1068.69 1221.06 1070.45 1221.65 C 1072.67 1230.08 1071 1267.98 1070.98 1279.31 C 1078.57 1279.43 1096.21 1276.61 1102.34 1280.38 C 1103.65 1281.19 1103.56 1283.87 1103.79 1285.33 L 1064.67 1285.41 A 3041.82 3041.82 0 0 1 1065.24 1220.27 z"/>
<path transform="translate(0,0)" fill="rgb(0,0,0)" d="M 1100.91 1221.08 C 1109.35 1220.53 1139.82 1219.24 1146.36 1221.84 C 1147.9 1223.9 1147.93 1223.73 1147.63 1226.27 C 1141.71 1227.95 1133.18 1226.93 1126.93 1226.92 L 1126.85 1267.25 C 1126.93 1273.07 1127.14 1278.91 1126.75 1284.72 C 1124.47 1285.9 1124.27 1285.69 1121.71 1285.21 C 1118.12 1280.42 1120.78 1236.4 1120.71 1226.88 C 1115.4 1226.69 1108.12 1228.56 1103.28 1226.06 C 1101.66 1225.22 1101.44 1222.75 1100.91 1221.08 z"/>
<path transform="translate(0,0)" fill="rgb(0,0,0)" d="M 1201.03 1219.88 C 1202.87 1219.88 1204.58 1220.13 1206.39 1220.41 C 1205.92 1224.03 1186.51 1253.8 1183.02 1259.54 C 1183.18 1268.11 1183.88 1276.55 1180.81 1284.72 L 1179.57 1285.27 C 1175.17 1278.58 1176.68 1266.55 1176.85 1258.69 L 1167.86 1245.65 C 1163.02 1238.27 1157.65 1231 1153.25 1223.37 L 1153.78 1221.66 C 1155.41 1221.2 1156.49 1220.79 1158.19 1221.19 C 1161.78 1222.05 1176.76 1248.48 1179.59 1252.67 C 1187.64 1242.51 1193.41 1230.45 1201.03 1219.88 z"/>
<path transform="translate(0,0)" fill="rgb(0,0,0)" d="M 974.839 1252.88 C 979.783 1245.02 989.42 1222.67 997.203 1219.11 C 998.73 1226.9 990.586 1238.35 986.78 1245.11 C 984.353 1249.36 979.907 1255.66 978.874 1260.44 C 977.397 1267.27 980.606 1276.09 977.996 1282.61 C 976.934 1285.26 976.453 1285.29 973.96 1286.24 L 972.732 1285.17 C 970.906 1277.24 972.295 1267.43 972.532 1259.3 C 962.543 1248.65 955.345 1233.7 948.281 1220.89 L 953.993 1221.13 C 961.688 1226.2 969.3 1244.59 974.839 1252.88 z"/>
<path transform="translate(0,0)" fill="rgb(0,0,0)" d="M 1022.82 1221.39 C 1023.9 1221.48 1025.24 1221.57 1026.2 1222.13 C 1030.57 1224.68 1053.89 1277.2 1055.43 1284.46 C 1053.47 1286.11 1053.06 1285.57 1050.6 1285.5 C 1046.31 1282.72 1043.63 1272.24 1041.62 1267.32 L 1030.5 1267.31 L 1010.79 1267.31 C 1008.53 1272.62 1006.31 1281.73 1001.84 1285.07 C 999.366 1285.43 999.116 1286 996.937 1284.55 C 998.951 1275.6 1004.62 1265.8 1008.3 1257.28 C 1013.44 1245.41 1018.1 1233.43 1022.82 1221.39 z"/>
<path transform="translate(0,0)" fill="rgb(246,246,245)" d="M 1025.45 1231.7 C 1029.63 1235.84 1036.09 1254.61 1038.63 1260.63 C 1035.65 1262.09 1030.86 1261.44 1027.56 1261.43 L 1013.12 1261.38 C 1017.48 1251.61 1021.39 1241.61 1025.45 1231.7 z"/>
<path transform="translate(0,0)" fill="rgb(80,79,79)" d="M 1096.37 1120.01 L 1114.44 1119.73 A 5761.17 5761.17 0 0 0 1114.66 1203.91 L 1096.36 1203.92 L 1096.37 1120.01 z"/>
<path transform="translate(0,0)" fill="rgb(0,0,0)" d="M 827.397 1220.97 C 838.621 1220.8 855.027 1218.63 865.067 1223.74 C 869.066 1225.78 872.272 1229 873.639 1233.33 C 875.414 1238.96 874.003 1245.22 871.072 1250.18 C 867.213 1256.72 862.194 1258.6 855.225 1260.56 C 859.916 1268.14 868.814 1276.35 871.016 1284.92 C 869.136 1286.41 867.827 1285.74 865.524 1285.54 C 859.731 1277.31 854.024 1269.08 848.692 1260.53 C 843.725 1260.49 838.744 1260.64 833.776 1260.71 C 833.855 1268.53 834.013 1276.34 833.446 1284.15 C 832.083 1285.57 832.063 1285.31 830.251 1285.65 L 828.787 1284.54 C 825.751 1277.88 827.503 1230.91 827.397 1220.97 z"/>
<path transform="translate(0,0)" fill="rgb(246,246,245)" d="M 833.981 1227.13 C 843.136 1226.97 853.874 1225.77 862.273 1230.08 C 865.07 1231.52 867.406 1233.63 868.095 1236.83 C 869.092 1241.46 866.456 1246.7 863.774 1250.31 C 855.049 1255.73 843.799 1254.29 833.933 1254.19 L 833.981 1227.13 z"/>
<path transform="translate(0,0)" fill="rgb(80,79,79)" d="M 1126.23 1119.79 L 1146.81 1119.88 C 1153.16 1129.04 1158.55 1139.25 1164.21 1148.88 C 1171.66 1140.03 1178.03 1129.77 1184.2 1120 L 1204.05 1119.78 C 1195.73 1134.51 1185.71 1148.43 1175.97 1162.25 C 1180.65 1169.14 1203.16 1197.41 1203.59 1203.44 L 1182.01 1203.53 C 1176.6 1194.48 1171.17 1184.68 1164.15 1176.77 C 1157.96 1185.74 1152.04 1194.92 1146.01 1204 L 1124.23 1204.01 L 1153.6 1162.9 C 1144.37 1148.64 1134.74 1134.49 1126.23 1119.79 z"/>
<path transform="translate(0,0)" fill="rgb(0,0,0)" d="M 907.689 1219.13 C 913.747 1218.74 919.528 1219.59 925.081 1222.12 A 32.2491 32.2491 0 0 1 942.367 1241.19 A 35.3223 35.3223 0 0 1 940.374 1268.44 C 935.217 1278.63 926.965 1283.58 916.437 1286.8 C 909.923 1287.17 903.305 1285.98 897.517 1282.91 C 889.6 1278.7 884.047 1271.38 881.562 1262.81 C 878.923 1253.72 879.8 1243.94 884.652 1235.74 C 889.931 1226.81 897.91 1221.86 907.689 1219.13 z"/>
<path transform="translate(0,0)" fill="rgb(246,246,245)" d="M 906.152 1226.13 C 911.286 1225.56 916.485 1225.74 921.339 1227.67 A 25.8372 25.8372 0 0 1 935.771 1242.06 A 29.7429 29.7429 0 0 1 935.566 1264.48 C 932.183 1272.46 926.752 1276.65 918.972 1279.94 C 914.033 1280.31 908.674 1280.49 903.975 1278.7 A 26.3773 26.3773 0 0 1 889.251 1264.7 C 886.11 1257.64 885.592 1249.49 888.468 1242.25 C 891.756 1233.98 898.235 1229.45 906.152 1226.13 z"/>
<path transform="translate(0,0)" fill="rgb(80,79,79)" d="M 909.74 1120.22 A 3316.51 3316.51 0 0 0 973.607 1120.22 L 972.853 1135.79 L 927.855 1135.86 L 927.903 1153.06 C 941.296 1153.32 954.728 1153.13 968.126 1153.15 C 968.068 1158.04 967.678 1162.92 967.365 1167.8 L 927.996 1167.98 L 927.962 1188.55 L 975.8 1188.49 L 975.786 1203.62 L 909.126 1204.1 A 2963.14 2963.14 0 0 0 909.74 1120.22 z"/>
<path transform="translate(0,0)" fill="rgb(80,79,79)" d="M 988.721 1120 L 1007.32 1119.84 C 1015.91 1135.13 1024.15 1150.83 1033.73 1165.52 C 1043.03 1150.94 1050.95 1135.29 1059.1 1120.04 L 1079 1119.89 A 7203.5 7203.5 0 0 0 1078.64 1203.89 L 1061.74 1203.88 L 1061.98 1173.68 L 1061.91 1149.07 A 3297.82 3297.82 0 0 1 1040.91 1188.49 L 1027.33 1188.53 C 1021.19 1175.87 1012.79 1163.92 1005.23 1152.08 A 1166.46 1166.46 0 0 1 1005.09 1203.93 L 987.944 1203.94 C 988.876 1176 988.585 1147.96 988.721 1120 z"/>
<path transform="translate(0,0)" fill="rgb(80,79,79)" d="M 825.529 1119.98 C 840.588 1119.89 858.237 1118.1 872.914 1120.98 C 880.557 1122.48 887.799 1126.3 891.984 1133.07 C 896.412 1140.22 897.216 1150.63 895.263 1158.68 C 893.219 1167.12 887.258 1171.09 880.264 1175.23 C 884.93 1185.18 891.236 1194.6 896.876 1204.03 C 892.569 1204.6 888.093 1204.58 883.751 1204.77 L 879.972 1204.79 C 873.462 1202.22 865.615 1184.54 861.731 1177.84 L 844.017 1178.05 C 843.674 1186.48 843.849 1194.97 843.813 1203.41 L 825.935 1203.42 C 826.215 1175.63 825.653 1147.78 825.529 1119.98 z"/>
<path transform="translate(0,0)" fill="rgb(246,246,245)" d="M 843.784 1136.03 C 852.258 1135.73 862.237 1134.51 870.337 1137.24 C 873.629 1138.34 876.723 1140.32 877.896 1143.78 C 879.576 1148.74 877.583 1154.4 875.366 1158.84 C 866.214 1164.04 854.019 1162.25 843.774 1162.03 L 843.784 1136.03 z"/>
<path transform="translate(0,0)" fill="rgb(80,79,79)" d="M 813.476 1331.09 C 948.456 1331.96 1083.71 1332.44 1218.68 1330.96 C 1218.32 1337.94 1218.28 1344.96 1218.09 1351.95 C 1211.27 1353.93 1122.42 1351.81 1109.01 1351.76 L 813.153 1351.91 C 813.168 1344.97 813.36 1338.03 813.476 1331.09 z"/>
</svg>