<svg version="1.1" xmlns="http://www.w3.org/2000/svg" style="display: block;" viewBox="0 0 2048 2048" width="1024" height="1024">
<path transform="translate(0,0)" fill="rgb(236,236,235)" d="M 0 0 L 2048 0 L 2048 2048 L 0 2048 L 0 0 z"/>
<path transform="translate(0,0)" fill="rgb(206,84,81)" d="M 1023.93 57.249 C 1054.07 59.5596 1061.75 86.8316 1082.14 100.427 C 1102.58 114.062 1132.92 73.4508 1154.03 69.2961 C 1189.64 62.2877 1196.04 106.685 1218.54 121.191 C 1236.61 132.84 1267.35 102.418 1287.64 99.1165 C 1323.49 93.2826 1328.31 144.275 1348.1 157.927 C 1364.42 169.185 1391.69 149.234 1408.83 146.134 C 1452.17 138.299 1449.61 200.219 1470.58 214.041 C 1482.48 221.886 1507.85 212.441 1520.86 210.104 C 1579.38 199.599 1560.95 264.613 1581.98 282.705 C 1597.97 296.464 1637.34 276.207 1658.22 291.751 C 1678.53 306.868 1670.03 335.258 1674.12 356.529 C 1680.27 388.512 1729.37 369.62 1750.43 385.16 C 1773.43 402.12 1756.22 437.206 1760.02 460.157 C 1763.63 482.026 1812.14 477.108 1829.78 490.639 C 1856.1 510.828 1828.21 547.652 1831.62 572.628 C 1832.11 576.232 1833.51 579.813 1836.26 582.285 C 1847.45 592.33 1878.34 596.316 1893.4 608.314 C 1923.16 632.024 1880.8 676.593 1885.37 696.387 C 1888.85 711.471 1920.98 720.589 1933.77 728.376 C 1982.84 758.228 1921.97 797.051 1924.41 825.972 C 1925.86 843.16 1974.45 855.685 1980.21 883.07 C 1985.46 908.025 1956.22 926.704 1944.95 945.603 C 1942.27 950.098 1940.38 956.066 1941.92 961.273 C 1946.73 977.471 1982.36 994.348 1987.32 1018.51 C 1994.13 1051.72 1957.54 1061.61 1943.58 1082.84 C 1929.28 1104.61 1973.75 1130.32 1977.68 1154.46 C 1984.07 1193.59 1938.44 1198.99 1924.39 1219.6 C 1912.33 1237.27 1944.44 1267.24 1948.17 1286.13 C 1956 1325.69 1905.35 1326.66 1889.83 1351.32 C 1889.61 1351.66 1889.4 1352.01 1889.19 1352.35 C 1886.96 1377.73 1904.99 1400.75 1901.17 1422.57 C 1896.28 1450.47 1861.73 1449.15 1843.15 1462.37 C 1819.36 1479.31 1840.73 1515.93 1836.28 1539.53 C 1829.87 1573.49 1789.83 1562.36 1769.34 1577.25 C 1756.05 1586.91 1766.86 1627.39 1764.09 1643.97 C 1756.57 1688.82 1701.12 1664.98 1681.2 1680.57 C 1668.87 1690.22 1673.24 1716.44 1671.56 1730.45 C 1664.58 1788.54 1604.89 1751.06 1584.18 1764.38 C 1564.28 1777.18 1576.37 1818.38 1554.73 1834.52 C 1537.42 1847.44 1509.64 1835 1490.33 1832.32 C 1453.47 1827.22 1459.38 1881.18 1435.54 1897.94 C 1411.4 1914.91 1386.9 1890.21 1363.26 1886.75 C 1336.55 1882.83 1330.93 1930.23 1310.45 1944.37 C 1285.39 1961.68 1253.29 1928.36 1225.4 1923.06 C 1202.22 1934.39 1197.19 1965.67 1173.87 1976.34 C 1147.88 1988.23 1117.05 1951.46 1091.03 1941.38 C 1069.47 1952.5 1058.74 1979 1036.09 1988.44 C 1026.72 1992.35 1018.62 1991.39 1009.45 1987.65 C 1004.71 1984.37 1000.25 1981.19 996.067 1977.2 C 985.75 1967.32 972.957 1948.59 959.443 1944.17 C 944.597 1939.31 915.627 1968.69 901.59 1975.79 C 857.508 1998.1 848.541 1932.07 823.924 1924.28 C 809.318 1919.66 789.773 1935.11 777.423 1941.79 C 767.009 1947.43 755.949 1951.8 744.048 1947.92 C 727.174 1942.43 720.258 1920.4 712.683 1906.02 C 709.852 1900.65 706.726 1894.66 701.695 1891.04 C 682.008 1876.84 644.985 1910.77 618.993 1902.11 C 594.995 1894.11 595.134 1861.13 585.368 1841.86 C 571.338 1814.18 526.805 1846.72 499.751 1837.17 C 471.753 1827.29 482.188 1789.81 470.79 1769 C 459.754 1748.84 416.655 1767.86 394.585 1760.1 C 362.437 1748.8 383.006 1706.74 372.132 1684.59 C 362.477 1664.92 322.868 1675.48 304.644 1668.99 C 264.709 1654.77 299.964 1606.92 286.713 1581.51 C 279.443 1567.58 243.658 1569.74 229.641 1564.59 C 180.966 1546.72 226.856 1495.07 215.88 1472.73 C 208.843 1458.4 185.702 1455.79 172.007 1450.76 C 161.434 1446.88 150.312 1440.99 145.571 1430.17 C 136.062 1408.48 151.95 1390.27 158.872 1370.77 C 172.619 1332.03 113.577 1334.79 100.564 1306.61 C 88.6355 1280.78 115.877 1258.74 123.933 1236.31 C 125.502 1231.93 126.689 1226.69 124.95 1222.19 C 118.458 1205.41 80.4806 1195.76 70.6148 1173.15 C 57.3027 1142.65 97.674 1117.07 107.226 1090.71 L 107.758 1089.22 C 98.3879 1069.86 76.6767 1060.5 65.4695 1042.57 C 40.115 1002.01 101.386 981.863 105.76 957.845 C 108.56 942.473 82.7501 921.133 74.6141 908.749 C 69.1046 900.363 66.5937 891.546 68.5167 881.576 C 74.9943 847.989 115.928 845.877 123.842 822.224 C 128.832 807.307 91.9556 776.295 98.0292 749.412 C 103.318 726.001 130.882 719.285 148.916 708.152 C 181.846 687.823 137.761 654.669 145.77 624.935 C 152.884 598.521 185.452 596.428 205.711 584.729 C 234.72 567.976 201.749 535.291 209.529 506.553 C 217.647 476.566 258.12 483.791 279.558 471.225 C 299.12 459.76 280.764 420.642 287.186 400.442 C 297.939 366.619 341.762 382.662 365.547 370.222 C 382.567 361.322 372.291 327.734 378.687 308.848 C 392.317 268.61 442.704 298.498 466.121 285.192 C 477.249 278.869 479.168 248.03 482.741 236.085 C 499.012 181.688 549.201 226.633 574.961 214.825 C 595.608 205.361 591.427 160.922 616.636 148.196 C 635.547 138.649 657.601 152.143 675.861 157.892 C 682.79 160.073 691.507 162.088 698.422 158.878 C 714.304 151.505 719.277 112.032 742.414 100.558 C 765.478 89.1194 795.646 117.037 820.343 124.837 C 820.46 124.773 820.576 124.707 820.694 124.646 C 844.083 112.601 850.773 80.8881 874.508 70.1747 C 901.522 57.9814 929.487 95.5517 956.668 105.675 C 983.221 94.0712 992.823 62.386 1023.93 57.249 z"/>
<path transform="translate(0,0)" fill="rgb(66,66,66)" d="M 1021.51 90.2069 C 1047.45 89.6292 1066.79 126.07 1090.72 136.092 C 1111.15 127.574 1127.18 109.249 1147.68 101.898 C 1180.72 90.0508 1191.31 143.037 1215.46 153.152 C 1229.36 158.97 1251.28 141.155 1264.31 135.701 C 1317.15 113.584 1313.6 178.928 1342.7 190.784 C 1343.06 190.93 1343.42 191.067 1343.78 191.209 C 1363.63 187.728 1383.11 174.527 1403.58 175.525 C 1438.85 177.245 1436.48 224.825 1452.89 241.182 C 1464.2 252.458 1500.45 236.433 1516.53 236.945 C 1557.57 238.251 1543.7 290.773 1559.9 307.088 C 1569.67 316.925 1602.58 309.406 1616.44 310.089 C 1664.4 312.456 1641.22 370.222 1655.19 388.55 C 1668.26 405.71 1710.26 388.531 1728.52 409.471 C 1741.98 424.907 1734.47 452.498 1733.75 470.982 C 1732.37 506.633 1787.75 490.973 1805.92 511.239 C 1822.74 530 1805.65 560.499 1804.52 582.006 C 1803.16 607.747 1852.43 609.165 1866.76 625.203 C 1887.06 647.921 1856.39 679.196 1855.44 703.143 C 1854.61 724.197 1900.53 734.514 1913.12 749.069 C 1935.45 774.885 1894.26 804.128 1893.49 827.829 C 1893.1 839.996 1929.57 861.54 1940.1 874.004 C 1969.55 908.843 1912.58 930.657 1910.95 957.805 C 1910.02 973.199 1935.66 990.147 1945.52 1000.72 C 1984.54 1042.54 1915.15 1060.49 1910.59 1089.16 C 1907.51 1108.53 1950.48 1133.45 1948.83 1159 C 1947.31 1182.63 1912.83 1194.99 1897.83 1209.03 C 1894.79 1211.87 1891.55 1215.73 1891.02 1220.01 C 1888.81 1237.92 1921.02 1264.22 1919.88 1286.63 C 1918.49 1313.74 1879.44 1318.47 1863.38 1334.27 C 1861.02 1336.58 1858.82 1339.2 1858.06 1342.47 C 1855.19 1355.02 1874.93 1387.65 1874.07 1406.52 C 1872.52 1440.34 1825.73 1434.38 1808.67 1450.99 C 1806.4 1453.2 1804.68 1455.84 1804.22 1459.01 C 1801.99 1474.27 1812.77 1498.98 1811.67 1516.82 C 1809.39 1553.74 1759.92 1546 1739.04 1565.26 C 1738.76 1565.52 1738.49 1565.78 1738.21 1566.05 C 1735.03 1590.56 1744.12 1618.37 1731.28 1640.74 C 1709.86 1654.1 1678.14 1644.93 1660.76 1655.16 C 1647.81 1662.78 1651.13 1699.99 1646.99 1714.72 C 1636.09 1753.52 1585 1725.08 1562.49 1739.05 C 1554.97 1743.72 1553.18 1761.27 1551.3 1769.54 C 1549 1779.63 1546.77 1792.47 1540.38 1800.91 C 1520.32 1827.4 1475.65 1794.06 1456.81 1808.08 C 1440.22 1820.44 1441.82 1855.92 1420.28 1868.54 C 1401.28 1879.67 1373.08 1861.73 1354.25 1857.69 C 1325.19 1851.44 1320.74 1900.56 1299.94 1913.04 C 1273.32 1929.01 1249.41 1898.98 1225.75 1894.35 C 1204.76 1890.25 1187.45 1931.68 1170.48 1941.8 C 1141.47 1959.1 1118.07 1917.68 1093.5 1912.95 C 1077.25 1909.82 1055.12 1940.94 1041.17 1949.98 C 1032.74 1955.44 1024.86 1957.23 1015.05 1955.04 C 994.521 1946.63 983.663 1923.19 964.036 1914 C 960.719 1912.45 957.937 1911.81 954.334 1912.59 C 938.877 1915.93 917.553 1939.02 899.531 1945.27 C 865.616 1957.03 855.271 1904.24 833.127 1895.27 C 819.859 1889.9 793.571 1908.61 780.921 1913.94 C 731.715 1934.65 733.217 1870.78 709.443 1860.25 C 690.347 1851.8 656.148 1883.12 631.981 1872.73 C 614.699 1865.3 609.495 1841.4 603.251 1825.27 C 600.594 1818.41 596.749 1808.56 589.366 1805.53 C 574.809 1799.56 537.262 1820.06 516.009 1809.91 C 496.408 1800.55 497.491 1763.94 490.281 1745.87 C 488.537 1741.5 485.724 1737.31 481.215 1735.49 C 465.832 1729.3 432.946 1742.71 414.308 1734.03 C 389.839 1722.64 400.627 1685.13 392.87 1664.57 C 384.705 1642.93 344.535 1655.98 326.47 1647.37 C 297.995 1633.79 320.464 1588.55 311.528 1566.01 C 305.558 1550.95 266.369 1551.07 251.991 1544.57 C 213.397 1527.12 254.017 1483.92 243.005 1458.38 C 238.021 1446.81 207.672 1441.13 196.093 1435.9 C 143.078 1411.92 196.617 1370.05 189.012 1343.26 C 183.726 1324.64 137.629 1318.29 129.346 1294.14 C 122.662 1274.65 142.51 1251.29 150.842 1234.59 C 153.539 1229.19 156.028 1222.34 154.489 1216.25 C 149.679 1197.21 105.245 1185.65 98.5969 1163.19 C 91.6126 1139.6 125.27 1116.85 134.717 1097.35 C 146.029 1074 99.5942 1054.52 92.0786 1030.33 C 84.3517 1005.45 126.889 981.275 137.812 961.429 C 138.001 961.086 138.182 960.737 138.367 960.391 C 131.968 935.737 107.915 921.278 99.0953 898.209 C 86.6035 865.535 145.79 853.715 154.189 832.469 C 158.345 821.955 137.883 792.197 132.702 781.182 C 115.115 743.793 145.745 737.254 172.729 722.882 C 178.681 719.711 185.862 715.929 189.093 709.692 C 198.253 692.011 164.909 656.202 174.21 633.081 C 181.733 614.383 211.951 608.584 228.534 601.417 C 233.051 599.465 238.155 597.035 241.006 592.83 C 252.052 576.541 227.406 540.105 236.587 518.64 C 245.773 497.162 284.201 498.888 302.972 491.012 C 327.421 480.754 303.782 436.367 314.148 414.03 C 325.562 389.432 364.859 401.578 385.382 393.041 C 402.641 385.863 394.853 345.914 402.553 328.14 C 415.772 297.626 461.905 320.549 482.002 311.183 C 496.254 304.54 497.225 271.654 502.03 257.564 C 517.039 213.552 564.57 251.558 589.587 241.638 C 608.768 234.031 605.532 186.746 630.631 175.348 C 646.712 168.046 670.455 180.326 685.821 185.634 C 727.39 199.995 720.63 145.15 751.4 131.031 C 773.775 120.763 795.571 141.99 815.574 149.338 C 848.163 161.308 853.158 112.711 880.158 101.517 C 902.744 92.1534 934.927 126.706 955.354 135.375 L 956.711 135.943 C 982.591 126.711 994.512 98.4686 1021.51 90.2069 z"/>
<path transform="translate(0,0)" fill="rgb(206,84,81)" d="M 1020.59 117.765 C 1038.13 117.397 1059.62 150.589 1076.46 158.915 C 1104.14 172.597 1131.32 135.201 1155.84 126.626 L 1157.23 126.146 C 1167.52 134.258 1175.27 147.357 1183.14 157.85 C 1188.88 165.492 1195.26 174.149 1203.86 178.737 C 1231.81 193.659 1265.53 152.687 1283.63 157.045 C 1293.03 159.307 1308.57 195.15 1315.22 204.119 C 1339.66 237.082 1375.53 197.897 1400.91 202.783 C 1416.51 205.786 1424.26 247.135 1434.16 260.574 C 1454.03 287.549 1488.9 258.612 1513.73 263.24 C 1527.76 265.854 1529.01 313.177 1539.06 327.108 C 1553.09 346.534 1594.59 330.672 1614.61 335.178 C 1633.53 339.439 1622.66 392.452 1633.58 407.546 C 1644.83 423.088 1677.76 418.714 1694.68 421.364 C 1699.48 422.116 1704.81 423.701 1707.78 427.837 C 1718.15 442.245 1701.07 482.268 1712.86 502.044 C 1724.58 521.722 1774.37 514.46 1785.57 531.038 C 1791.54 539.874 1782.18 564.303 1780.15 574.216 C 1778.36 582.913 1776.1 593.99 1779.03 602.59 C 1787.02 626.059 1836.89 626.427 1844.42 642.417 C 1849.15 652.48 1833.27 684.175 1830.07 695.65 C 1815.62 747.489 1877.29 741.156 1889.1 764.466 C 1896.19 778.467 1869.24 809.138 1865.18 824.579 C 1856.57 857.302 1909.9 870.864 1918.6 889.269 C 1924.59 901.947 1897.5 927.618 1889.95 938.18 C 1885.43 944.518 1881.97 950.598 1879.93 958.167 L 1879.57 959.572 C 1885.94 989.457 1916.1 1000.09 1929.21 1025.53 C 1921.08 1039.54 1906.66 1049.89 1895.38 1061.28 C 1851.43 1105.66 1919.69 1128.86 1918.7 1155.28 C 1918.19 1168.99 1882.7 1187.62 1872.39 1198.32 C 1843.54 1228.25 1892.44 1260.57 1890.25 1281.15 C 1888.77 1295.15 1851.98 1307.85 1840.72 1317.88 C 1814.3 1341.41 1848.56 1378.06 1847.17 1402.11 C 1841.76 1413.11 1809.49 1420.4 1798.14 1426.82 C 1758.44 1449.26 1792.42 1489.35 1785.22 1512.59 C 1780 1529.46 1744.02 1530.38 1729.69 1538.24 C 1697.75 1555.78 1720.03 1591.38 1712.34 1613.91 C 1706.49 1631.05 1661.02 1623.8 1644.31 1633.15 C 1620.09 1646.7 1630.39 1676.45 1623.51 1697.91 C 1615.3 1723.52 1573.12 1700.95 1550.1 1714.42 C 1529.83 1726.28 1531.37 1749.56 1525.51 1769.08 C 1524.06 1773.94 1520.96 1780.69 1516.31 1783.3 C 1504.38 1789.98 1470.79 1773.12 1449.4 1780.94 C 1421.2 1791.25 1423.41 1834.58 1405.55 1843.32 C 1394.4 1848.77 1378.84 1839.53 1368.16 1835.64 C 1304.04 1812.27 1309.59 1879.06 1283.87 1889.81 C 1272.23 1894.68 1246.71 1875.56 1235.54 1870.87 C 1189.81 1851.67 1180.77 1910.64 1156.87 1917.75 C 1145.93 1921 1117.64 1894.97 1106.91 1889.24 C 1069.69 1869.38 1052.73 1920.13 1023.2 1929.09 C 1001.87 1920.51 991.112 1894.47 969.038 1886.46 C 947.934 1878.8 927.607 1898.62 911.507 1909.57 C 905.454 1913.68 899.273 1916.97 892.632 1920.03 C 871.167 1908.24 863.975 1878.67 841.156 1869.13 C 821.047 1860.73 793.899 1881.85 775.541 1888.59 C 771.452 1890.09 767.109 1892.01 762.99 1889.65 C 743.979 1878.76 743.689 1840.79 715.18 1832.63 C 695.634 1827.04 654.053 1855.54 641.087 1845.36 C 626.582 1833.98 627.633 1791.3 602.084 1781.1 C 580.58 1772.51 542.58 1791.64 531.131 1785.56 C 521.131 1780.24 518.262 1750.41 515.523 1739.91 C 505.018 1699.64 478.472 1709.38 445.696 1710.9 C 439.398 1711.19 431.891 1711.38 426.331 1708.13 C 421.359 1701.84 421.216 1676.46 420.099 1667.24 C 414.945 1624.7 389.73 1629.57 355.84 1626.48 C 350.727 1626.02 343.441 1625.26 339.612 1621.45 C 333.499 1615.36 337.46 1591.99 337.887 1583.06 C 338.359 1573.17 339.118 1561.66 335.336 1552.31 C 324.276 1524.94 274.992 1534.29 264.059 1519 C 262.614 1516.98 262.307 1514.23 262.406 1511.8 C 262.929 1499.01 270.342 1480.62 271.226 1465.5 C 274.026 1417.6 214.952 1427.37 201.388 1407.02 C 195.153 1397.66 213.354 1365.05 216.054 1353.91 C 227.466 1306.8 168.619 1309.78 156.762 1288.53 C 149.592 1275.68 178.465 1243.17 182.611 1224.67 C 190.214 1190.73 140.998 1178.76 125.767 1154.29 C 132.378 1140.21 143.798 1128.8 153.307 1116.64 C 192.187 1066.93 122.418 1049.99 120.124 1023.04 C 119.307 1013.45 149.002 989.892 155.891 981.88 C 188.233 944.264 126.206 913.146 127.206 893.317 C 127.889 879.789 164.618 862.648 174.842 851.763 C 202.396 822.426 154.493 787.285 155.729 766.984 C 156.558 753.37 197.965 741.43 209.977 730.073 C 234.305 707.072 199.695 670.557 200.597 644.079 C 206.976 631.69 245.201 625.002 258.691 614.621 C 280.15 598.105 267.868 570.114 263.08 548.333 C 262.042 543.615 260.329 537.962 261.184 533.134 C 263.557 519.731 315.302 517.43 329.004 507.674 C 352.092 491.235 333.522 455.789 337.576 433.318 C 341.233 413.041 391.02 425.907 410.114 411.244 C 427.7 397.74 420.23 367.946 423.646 348.924 C 428.096 324.148 477.407 346.266 499.411 334.45 C 523.202 321.675 516.585 270.872 529.894 263.809 C 539.938 258.479 561.9 266.629 573.187 268.509 C 621.06 276.485 618.386 247.611 633.024 213.362 C 634.7 209.44 637.203 203.9 641.046 201.591 C 649.544 196.487 688.07 213.181 699.552 215.321 C 739.374 222.741 738.331 170.618 759.476 157.313 C 771.614 149.675 808.957 176.208 824.238 179.667 C 857.354 187.164 863.318 143.306 885.348 130.6 C 901.987 121.004 931.414 156.685 952.013 161.361 C 976.837 166.996 1000.76 129.839 1020.59 117.765 z"/>
<path transform="translate(0,0)" fill="rgb(236,236,235)" d="M 991.164 226.568 A 83.0644 83.0644 0 0 1 994.988 226.311 C 1147.95 219.398 1305.37 261.998 1435.91 341.418 A 860.745 860.745 0 0 1 1569.05 442.258 C 1586.67 458.287 1602.57 475.715 1618.37 493.514 A 808.823 808.823 0 0 1 1819.14 986.507 C 1829.21 1207.3 1764.98 1398.06 1615.12 1561.76 A 809.492 809.492 0 0 1 1055.18 1824.15 C 922.463 1830.45 784.448 1798.54 665.732 1739.68 C 648.838 1731.3 632.739 1721.78 616.462 1712.28 C 576.514 1688.97 539.573 1664.09 504.874 1633.4 C 483.259 1614.29 461.825 1594.45 442.13 1573.36 A 792.837 792.837 0 0 1 229.042 1077.85 A 798.992 798.992 0 0 1 433.089 490.673 A 802.585 802.585 0 0 1 851.015 245.174 C 896.85 234.88 944.298 229.24 991.164 226.568 z"/>
<path transform="translate(0,0)" fill="rgb(66,66,66)" d="M 761.944 1456.91 L 786.117 1456.88 L 786.23 1575.8 L 762.097 1575.96 L 761.944 1456.91 z"/>
<path transform="translate(0,0)" fill="rgb(66,66,66)" d="M 611.273 1455.94 L 635.936 1456.01 A 9092.1 9092.1 0 0 0 635.795 1575.66 L 611.181 1575.86 A 9582.33 9582.33 0 0 0 611.273 1455.94 z"/>
<path transform="translate(0,0)" fill="rgb(66,66,66)" d="M 1202.22 1456.45 C 1233.4 1455.5 1264.83 1456.22 1296.04 1456.23 L 1296.01 1476.58 L 1260.87 1476.31 L 1260.91 1538.75 L 1260.99 1575.91 L 1236.91 1575.93 L 1237.17 1476.85 L 1202.12 1476.95 L 1202.22 1456.45 z"/>
<path transform="translate(0,0)" fill="rgb(66,66,66)" d="M 698.276 1454.39 C 713.601 1454.07 725.71 1458.81 739.159 1465.65 C 735.681 1471.04 732.665 1476.33 729.946 1482.14 C 723.42 1479.95 716.845 1477.58 710.043 1476.41 C 702.599 1475.13 689.483 1474.54 683.133 1479.52 C 680.879 1481.29 678.637 1484.5 678.475 1487.41 C 677.764 1500.15 723.375 1506.62 735.471 1519.52 C 741.122 1525.54 743.384 1533.07 742.992 1541.23 C 742.514 1551.19 738.914 1560.35 731.407 1567.09 C 719.217 1578.04 702.992 1577.42 687.729 1576.92 C 673.418 1574.79 660.81 1570.17 649.622 1560.83 C 653.521 1555.07 658.207 1549.74 662.605 1544.35 C 670.875 1551.04 679.126 1555.13 689.879 1556.4 C 698.421 1557.41 708.056 1557.14 714.927 1551.27 C 717.595 1548.99 718.857 1547.03 719.171 1543.47 C 714.857 1528.66 680.17 1523.98 667.571 1513.85 C 661.572 1509.02 656.457 1502.03 655.978 1494.11 C 655.393 1484.44 656.719 1476.61 663.27 1469.18 C 672.228 1459.01 685.246 1455.29 698.276 1454.39 z"/>
<path transform="translate(0,0)" fill="rgb(66,66,66)" d="M 1151.54 1454.41 C 1160.43 1454.28 1169.78 1456.18 1178.18 1459.06 C 1182.43 1460.52 1187.31 1462.17 1189.41 1466.45 C 1189.41 1472.56 1185.2 1478.84 1182.31 1484.1 C 1177.84 1482.06 1173.26 1480.07 1168.61 1478.47 C 1159.76 1475.44 1145.42 1473.75 1136.87 1478.56 C 1133.53 1480.43 1131.56 1483.47 1130.59 1487.07 C 1131.82 1501.12 1172.23 1504.35 1185.16 1517.74 A 29.2561 29.2561 0 0 1 1193.5 1539.06 C 1193.23 1549.52 1190.77 1560.52 1182.66 1567.69 C 1170.17 1578.74 1153.24 1578.01 1137.77 1576.81 C 1124.58 1574.65 1110.61 1570.44 1100.65 1561.08 C 1103.71 1554.82 1107.23 1548.84 1110.72 1542.81 C 1123.03 1549.39 1132.94 1556.28 1147.61 1556.31 C 1154.56 1556.32 1161.28 1555.27 1166.28 1550.06 C 1168.49 1547.76 1169.55 1545.12 1169.25 1541.89 C 1167.79 1526.23 1129.33 1523.38 1116.29 1513.24 C 1111.23 1509.31 1107.95 1504.21 1107.22 1497.79 C 1106.19 1488.65 1109.79 1474.81 1115.85 1467.87 C 1124.8 1457.64 1138.77 1455.46 1151.54 1454.41 z"/>
<path transform="translate(0,0)" fill="rgb(66,66,66)" d="M 1351.39 1452.59 C 1356.77 1457.49 1403.25 1557.35 1413.75 1575.94 L 1386.86 1575.99 C 1384.73 1570.06 1381.82 1564.59 1378.92 1559.02 L 1351.75 1559.19 C 1342.34 1559.34 1332.89 1559.11 1323.48 1559.05 L 1315.9 1575.94 L 1290.32 1575.92 A 7846.97 7846.97 0 0 0 1325.58 1505.2 C 1334.1 1487.67 1342.14 1469.75 1351.39 1452.59 z"/>
<path transform="translate(0,0)" fill="rgb(236,236,235)" d="M 1352.15 1499.65 C 1358.9 1512.06 1364.02 1526.06 1369.68 1539.05 L 1352.54 1538.96 L 1333.94 1538.93 C 1337.99 1525.69 1345.17 1511.57 1352.15 1499.65 z"/>
<path transform="translate(0,0)" fill="rgb(66,66,66)" d="M 982.201 1455.19 C 1000.34 1453.92 1018.18 1455.03 1033.05 1466.68 C 1030.25 1472.49 1027.19 1478.16 1024.14 1483.84 C 1010.86 1477.76 996.431 1472.68 981.774 1477.33 C 973.237 1480.04 966.568 1486.23 962.661 1494.22 C 957.405 1504.97 957.086 1517.74 961.04 1528.96 C 964.586 1539.02 971.79 1548.26 981.557 1552.89 C 992.593 1558.12 1002.68 1555.26 1013.53 1551.56 C 1013.78 1546.04 1013.7 1540.47 1013.75 1534.94 A 1055.21 1055.21 0 0 0 993.442 1536.11 C 993.535 1530.86 991.832 1518.96 994.89 1514.67 C 995.758 1513.46 997.399 1513.96 998.75 1513.93 C 1010.46 1513.96 1022.22 1513.73 1033.9 1514.62 C 1033.7 1530.87 1034.36 1547.35 1033.18 1563.56 C 1026.55 1569.32 1019.24 1573.13 1010.71 1575.28 C 994.23 1579.43 974.157 1577.97 959.565 1568.82 C 946.188 1560.43 937.151 1546.24 933.82 1530.95 A 64.3477 64.3477 0 0 1 942.577 1481.64 C 951.944 1467.34 965.559 1458.6 982.201 1455.19 z"/>
<path transform="translate(0,0)" fill="rgb(66,66,66)" d="M 816.829 1453.34 C 825.022 1457.71 877.635 1515.55 888.722 1527.18 C 889.127 1503.68 888.829 1480.12 888.857 1456.6 L 912.96 1456.66 L 912.851 1536.39 C 912.871 1545.76 914.502 1565.2 912.362 1573.55 C 911.767 1575.87 910.828 1576.84 909.246 1578.55 C 901.87 1573.15 895.274 1565.14 888.865 1558.63 C 871.092 1540.57 854.057 1521.86 835.677 1504.4 C 835.343 1528.19 835.898 1552.07 836.031 1575.87 L 812.532 1575.91 C 812.745 1538.92 812.049 1501.84 812.854 1464.87 C 812.974 1459.37 812.813 1457.2 816.829 1453.34 z"/>
<path transform="translate(0,0)" fill="rgb(66,66,66)" d="M 1422.98 1456 C 1441.76 1455.86 1466.56 1453.22 1484.62 1458.09 C 1493.96 1460.6 1502.26 1465.76 1506.9 1474.48 C 1511.61 1483.33 1512.23 1496.22 1509.19 1505.7 C 1505.77 1516.35 1498.35 1522.36 1488.73 1527.11 C 1498.74 1543.06 1507.87 1559.67 1517.46 1575.89 L 1491.75 1575.97 C 1491.42 1575.94 1491.08 1575.95 1490.75 1575.87 C 1485.31 1574.61 1468.46 1536.67 1465.34 1529.92 L 1447.28 1530.27 L 1447.24 1575.91 L 1423.02 1575.94 L 1422.98 1456 z"/>
<path transform="translate(0,0)" fill="rgb(236,236,235)" d="M 1447.07 1474.5 C 1457.11 1474.31 1472.8 1472.41 1480.75 1479.95 C 1483.84 1482.88 1484.96 1487 1485.14 1491.14 C 1485.45 1498.41 1484.3 1501.64 1479.5 1507.01 C 1469.31 1511.83 1457.64 1510.89 1446.66 1510.82 C 1446.4 1499.15 1445.29 1486.03 1447.07 1474.5 z"/>
<path transform="translate(0,0)" fill="rgb(66,66,66)" d="M 497.91 1456.29 C 516.816 1456.1 549.437 1452.9 566.413 1459.92 C 575.538 1463.68 582.851 1470.46 586.427 1479.76 C 590.027 1489.12 589.797 1500.53 585.32 1509.57 C 579.889 1520.53 571.448 1523.98 560.59 1527.64 C 572.26 1543.96 583.724 1560.53 596.647 1575.89 L 572.75 1575.88 L 569.046 1575.54 C 560.546 1569.67 545.222 1539.94 539.047 1529.71 L 521.741 1529.19 A 3264.09 3264.09 0 0 1 521.439 1575.96 L 496.921 1575.94 C 497.452 1536.08 496.825 1496.14 497.91 1456.29 z"/>
<path transform="translate(0,0)" fill="rgb(236,236,235)" d="M 521.173 1474.91 C 531.985 1474.76 549.688 1472.54 558.266 1479.92 C 561.508 1482.71 562.817 1486.44 563.146 1490.61 C 563.712 1497.78 562.551 1501.75 558.034 1507.28 C 547.52 1513.65 533.65 1512.05 521.792 1511.98 C 521.187 1499.63 521.251 1487.26 521.173 1474.91 z"/>
<path transform="translate(0,0)" fill="rgb(66,66,66)" d="M 1467.61 1663.6 L 1467.59 1663.86 C 1461.44 1671.76 1444.08 1680.94 1434.96 1686.46 C 1378.4 1720.67 1320.9 1748.96 1257.81 1769.17 A 782.405 782.405 0 0 1 664.556 1718.18 C 634.681 1702.57 602.496 1684.97 576.03 1663.93 C 628.802 1665.24 681.825 1664.32 734.624 1664.37 L 1043.7 1664.39 L 1318.85 1664.48 C 1368.41 1664.41 1418.08 1665.28 1467.61 1663.6 z"/>
<path transform="translate(0,0)" fill="rgb(66,66,66)" d="M 1000.14 245.431 A 776.071 776.071 0 0 1 1383.1 332.902 A 774.832 774.832 0 0 1 1730.22 699.39 C 1744.86 731.538 1756.74 765.026 1767.41 798.683 C 1826.23 984.225 1809.51 1213.7 1719.71 1386.93 L 1045.75 1386.37 L 333.341 1386.66 C 325.406 1372.63 318.923 1357.65 312.358 1342.94 A 758.097 758.097 0 0 1 247.357 1073.42 C 245.667 1038.53 245.349 1002.87 247.969 968.031 A 783.455 783.455 0 0 1 447.88 501.895 A 780.136 780.136 0 0 1 845.341 265.84 C 896.534 253.865 947.723 247.937 1000.14 245.431 z"/>
<path transform="translate(0,0)" fill="rgb(236,236,235)" d="M 1611.1 973.074 C 1614.38 972.878 1618.02 972.482 1621.22 973.309 C 1626.26 974.606 1630.88 978.273 1633.46 982.753 A 18.8882 18.8882 0 0 1 1635.23 997.772 C 1633.12 1004.5 1628.23 1008.03 1622.15 1010.96 C 1618.7 1011.28 1615.15 1011.72 1611.76 1010.8 A 19.8925 19.8925 0 0 1 1599.69 1001.24 A 18.9063 18.9063 0 0 1 1598.45 986.288 C 1600.63 979.65 1605.15 976.242 1611.1 973.074 z"/>
<path transform="translate(0,0)" fill="rgb(236,236,235)" d="M 1038.32 1112.12 C 1041.61 1112.16 1045.07 1112.09 1048.23 1113.12 A 19.1689 19.1689 0 0 1 1059.45 1123 A 19.0612 19.0612 0 0 1 1059.9 1137.88 C 1057.3 1144.74 1052.46 1148.18 1045.95 1150.97 C 1042.77 1151.04 1039.17 1151.33 1036.13 1150.25 C 1030.82 1148.38 1026.09 1143.9 1024.05 1138.65 A 19.5787 19.5787 0 0 1 1024.47 1123.25 C 1027.36 1116.96 1032.07 1114.36 1038.32 1112.12 z"/>
<path transform="translate(0,0)" fill="rgb(236,236,235)" d="M 970.241 345.61 C 974.945 355.925 975.459 367.469 980.899 377.968 C 992.866 382.49 1005.4 384.487 1017.95 386.601 C 1004.7 388.703 991.718 391.966 979.541 397.646 C 975.655 407.774 973.827 418.507 971.206 429.011 C 967.646 417.828 967.197 407.323 960.681 397.041 C 949.069 391.155 935.754 389.517 922.953 388.329 C 932.876 386.045 946.178 384.422 954.83 379.196 C 965.586 372.7 967.482 356.847 970.241 345.61 z"/>
<path transform="translate(0,0)" fill="rgb(236,236,235)" d="M 593.687 660.803 C 596.919 664.461 600.791 684.801 603.978 691.613 C 617.032 697.441 631.25 699.422 645.255 701.57 C 633.986 703.57 617.815 704.944 607.718 709.993 C 598.908 714.398 598.301 736.464 595.35 745.465 C 595.157 746.054 594.95 746.638 594.75 747.225 C 592.335 737.469 591.598 725.24 586.021 716.678 C 578.461 705.07 555.282 703.82 542.624 701.541 C 553.938 699.711 569.687 698.855 579.379 692.53 C 589.582 685.871 591.133 671.773 593.687 660.803 z"/>
<path transform="translate(0,0)" fill="rgb(236,236,235)" d="M 822.604 573.182 C 828.997 572.765 834.554 572.697 840.563 575.314 A 31.3188 31.3188 0 0 1 857.53 593.423 A 30.8423 30.8423 0 0 1 856.099 618.194 C 851.509 627.119 843.881 632.034 834.539 634.926 C 828.263 635.381 822.856 635.474 816.92 633.095 C 808.697 629.799 802.459 623.327 799.295 615.07 A 30.6284 30.6284 0 0 1 800.373 590.44 C 805.124 580.862 812.944 576.498 822.604 573.182 z"/>
<path transform="translate(0,0)" fill="rgb(236,236,235)" d="M 422.219 963.236 C 428.541 962.55 433.922 962.293 439.992 964.516 A 32.8599 32.8599 0 0 1 459.204 983.028 A 31.6508 31.6508 0 0 1 458.659 1008.54 C 454.256 1018.02 446.997 1022.77 437.585 1026.33 C 431.369 1027.21 425.72 1027.17 419.705 1025.21 C 411.44 1022.52 404.563 1016.75 400.822 1008.85 A 32.8325 32.8325 0 0 1 399.923 983.457 C 404.023 972.634 412.1 967.54 422.219 963.236 z"/>
<path transform="translate(0,0)" fill="rgb(236,236,235)" d="M 1328.46 1003.67 C 1330.42 1005.48 1334.89 1038.95 1343.12 1050.15 C 1355.34 1066.77 1381.02 1068.45 1399.89 1071.06 C 1384.42 1074.45 1362.28 1075.77 1349.4 1085.26 C 1334.89 1095.95 1331.7 1123.68 1329.56 1140.23 C 1326.49 1136.76 1321.85 1102.71 1314.65 1091.68 C 1304.47 1076.09 1276.12 1074.4 1259.35 1071.32 C 1274.56 1068.51 1294.4 1066.78 1307.29 1057.55 C 1323.01 1046.27 1325.55 1021.38 1328.46 1003.67 z"/>
<path transform="translate(0,0)" fill="rgb(236,236,235)" d="M 520.787 528.887 C 521.164 528.864 521.539 528.822 521.916 528.818 C 525.429 528.78 527.408 529.556 530.007 531.871 C 531.209 535.167 531.529 537.061 529.699 540.201 C 525.801 546.89 517.927 553.676 512.784 559.635 A 762.078 762.078 0 0 0 482.744 596.631 C 445.423 645.94 414.966 702.634 391.738 759.851 A 718.388 718.388 0 0 0 344.174 1108.88 C 346.555 1131.15 350.398 1153.15 354.675 1175.13 C 356.513 1184.57 361.501 1196.4 361.157 1205.88 C 361.019 1209.66 358.976 1211.04 356.352 1213.3 C 354.16 1213.14 351.567 1213.18 349.852 1211.57 C 343.069 1205.23 340.943 1185.5 339.266 1176.51 A 789.516 789.516 0 0 1 325.112 994.995 A 736.701 736.701 0 0 1 461.314 600.291 C 479.128 575.283 498.207 549.819 520.787 528.887 z"/>
<path transform="translate(0,0)" fill="rgb(236,236,235)" d="M 1522.31 531.857 C 1540.29 547.022 1555.89 569.27 1569.71 588.141 A 757.587 757.587 0 0 1 1705.46 911.919 A 723.743 723.743 0 0 1 1701.82 1176.71 C 1699.96 1185.73 1699.86 1200.04 1694.57 1207.45 L 1691.25 1207.93 C 1687.94 1207.97 1685.06 1207.94 1681.83 1207.17 C 1680.52 1204.76 1680.97 1202.88 1681.37 1200.2 C 1682.7 1191.06 1685.42 1182.03 1687.02 1172.9 A 745.996 745.996 0 0 0 1695.92 1103.31 C 1713.13 889.917 1650.34 705.035 1512.05 542.602 L 1522.31 531.857 z"/>
<path transform="translate(0,0)" fill="rgb(236,236,235)" d="M 454.858 1298.76 C 477.332 1300.63 492.806 1309.16 513.585 1315.73 C 526.203 1319.72 539.502 1321.4 552.704 1321.66 C 595.531 1322.51 615.845 1301.48 655.417 1300.44 C 669.568 1300.07 683.601 1301.48 697.211 1305.47 C 723.017 1313.02 735.308 1321.98 763.989 1322.17 C 805.503 1322.44 827.657 1301.43 865.313 1300.15 C 901.54 1298.91 930.634 1321.53 966.703 1322 C 1005.65 1322.51 1026.03 1302.24 1060.92 1300.83 C 1102.7 1299.14 1126.4 1320.1 1166.78 1321.13 C 1206.88 1322.15 1225.83 1303.14 1261.44 1300.61 C 1305.88 1297.45 1326.1 1318.72 1365.54 1320.76 C 1410.55 1323.1 1438.84 1297 1483.99 1300.36 C 1498.82 1301.47 1512.99 1305.24 1526.91 1310.37 C 1533.37 1312.75 1539.43 1315.81 1546.25 1317.09 C 1553.72 1318.49 1561.41 1319.49 1569.02 1319.68 C 1577.63 1319.89 1589.25 1318.04 1597.44 1320.73 C 1599.94 1321.55 1600.66 1322.6 1601.93 1324.79 C 1601.99 1327.78 1601.4 1328.95 1599.99 1331.47 C 1547.19 1344.14 1520.5 1314.57 1474.33 1314.44 C 1438.78 1314.34 1413.71 1334.48 1375.45 1335.2 C 1361.02 1335.47 1346.55 1333.81 1332.75 1329.48 C 1315.42 1324.04 1299.14 1316.42 1280.78 1314.81 C 1239.61 1311.21 1216.67 1334.67 1174.49 1335.38 C 1159.03 1335.64 1143.48 1334.45 1128.6 1330.06 C 1105.96 1323.37 1091.8 1314.22 1066.83 1314.19 C 1033.68 1314.14 1010.16 1334.82 973.823 1336.06 C 958.094 1336.6 941.936 1335.54 926.909 1330.53 C 907.111 1323.93 891.415 1314.33 869.789 1313.94 C 834.476 1313.31 811.038 1334.36 774.54 1336.01 C 756.772 1336.81 739.183 1335.64 722.168 1330.16 C 703.45 1324.14 686.813 1315.25 666.774 1314 C 640.681 1312.37 621.284 1322.77 597.226 1329.89 C 583.768 1333.87 569.59 1335.62 555.575 1335.76 C 540.053 1335.91 523.678 1333.9 508.947 1328.86 C 492.058 1323.09 478.256 1316.13 460.332 1313.69 L 454.858 1298.76 z"/>
<path transform="translate(0,0)" fill="rgb(206,84,81)" d="M 1031.29 662.047 L 1049.89 674.839 L 1065.45 684.184 C 1018.72 704.669 930.529 753.628 902.748 795.295 C 913.78 794.646 948.206 788.289 955.364 794.649 C 957.882 801.931 955.807 812.19 956.075 819.986 C 956.38 828.876 957.393 838.105 959.507 846.759 C 989.442 804.966 1025.35 756.258 1064.59 723.31 C 1063.61 730.249 1063.04 737.587 1061.53 744.409 C 1060.31 754.155 1060.26 766.885 1057.39 776.061 C 1055.25 775.07 1048.46 784.885 1046.83 786.87 C 1029.28 808.323 1012.01 829.795 995.549 852.104 C 985.065 866.311 975.444 881.372 964.501 895.19 C 962.553 897.65 957.594 904.17 954.565 904.542 C 951.481 904.92 948.742 904.045 946.428 901.945 C 935.28 891.823 925.713 842.636 924.661 826.8 A 573.385 573.385 0 0 0 886.451 832.195 C 876.835 833.926 867.297 836.482 857.554 837.355 C 855.036 836.436 853.156 835.527 851.768 833.079 C 850.305 830.498 850.607 827.279 851.248 824.509 C 853.037 816.79 858.768 809.589 862.237 802.425 C 867.193 792.19 871.384 781.589 878.145 772.369 C 889.001 757.563 903.806 745.589 918.243 734.436 C 934.21 722.101 950.406 710.063 967.561 699.416 C 988.489 686.428 1010.36 675.036 1031.29 662.047 z"/>
<path transform="translate(0,0)" fill="rgb(66,66,66)" d="M 1049.89 674.839 L 1065.45 684.184 C 1018.72 704.669 930.529 753.628 902.748 795.295 C 913.78 794.646 948.206 788.289 955.364 794.649 C 957.882 801.931 955.807 812.19 956.075 819.986 C 956.38 828.876 957.393 838.105 959.507 846.759 C 989.442 804.966 1025.35 756.258 1064.59 723.31 C 1063.61 730.249 1063.04 737.587 1061.53 744.409 C 1041.48 759.704 1024.83 782.538 1009.27 802.186 A 2008.06 2008.06 0 0 0 953.99 874.493 C 947.898 850.408 943.575 828.624 943.778 803.599 C 922.4 805.419 901.425 811.249 879.97 812.497 C 885.603 798.523 893.739 784.277 903.72 772.991 C 927.863 745.693 979.727 715.023 1011.99 696.41 C 1024.13 689.401 1037.73 684.149 1048.9 675.616 C 1049.24 675.361 1049.56 675.098 1049.89 674.839 z"/>
<path transform="translate(0,0)" fill="rgb(236,236,235)" d="M 842.404 786.702 C 843.892 786.8 845.548 786.867 846.972 787.328 C 849.49 788.144 850.821 790.091 851.849 792.391 C 851.987 795.493 851.749 797.301 849.534 799.647 C 839.549 810.224 824.808 819.188 813.232 828.211 C 796.118 841.551 779.457 855.69 762.978 869.807 C 641.13 974.191 534.738 1116.25 476.393 1266.32 C 509.344 1274.1 519.292 1285.42 556.933 1286.08 C 600.401 1159.61 679.122 1032.58 770.258 934.87 C 782.229 922.037 795.194 909.921 807.715 897.619 C 817.027 888.471 826.741 877.415 837.494 869.994 C 840.855 867.674 843.702 866.281 847.796 866.134 C 850.255 867.327 850.234 867.5 851.475 869.965 C 851.454 872.713 851.047 874.633 849.358 876.824 C 840.15 888.768 825.776 899.38 814.736 909.858 A 709.559 709.559 0 0 0 771.303 955.353 C 686.199 1051.43 615.662 1164.63 572.531 1285.8 C 610.18 1276.41 623.227 1264.98 666.373 1265.13 C 689.252 1161.77 761.704 1042.52 827.885 960.961 C 850.729 932.809 875.503 906.93 900.683 880.918 C 904.161 877.325 907.838 874.003 913.238 874.371 C 916.005 874.559 917.139 875.363 918.972 877.309 C 919.676 882.413 916.027 886.396 912.586 889.722 A 924.736 924.736 0 0 0 749.051 1103.54 C 719.081 1157.49 697.326 1207.05 680.337 1266.25 C 713.125 1269.17 737.33 1288.37 771.769 1286.97 C 790.771 1286.2 806.074 1278.49 823.602 1272.3 A 127.133 127.133 0 0 1 876.129 1265.43 A 153.842 153.842 0 0 1 909.861 1271.91 C 930.659 1278.52 947.448 1287.3 969.852 1286.64 C 1006.14 1285.58 1029.43 1264.74 1070.48 1265.52 A 147.401 147.401 0 0 1 1108.82 1271.36 C 1129.9 1277.56 1147.47 1286.2 1170.1 1285.99 C 1201.94 1285.69 1228.52 1267.76 1260 1265.44 A 154.544 154.544 0 0 1 1323.68 1274.51 C 1336.84 1279.2 1349.54 1284.81 1363.67 1285.68 C 1385.69 1287.04 1402.51 1281.35 1422.77 1273.97 C 1450.92 1263.72 1483.5 1262.43 1512.45 1270.13 C 1527.41 1274.12 1541.95 1279.97 1556.81 1284.42 L 1556.87 1297.43 C 1529.05 1293.33 1504.86 1280.18 1476.12 1280.21 C 1464.06 1280.21 1451.53 1281.24 1439.83 1284.3 C 1409.35 1292.28 1400.63 1301.41 1365.58 1299.55 C 1345.39 1298.48 1328.69 1290.9 1309.63 1285.33 A 140.605 140.605 0 0 0 1261.6 1280.15 C 1241.18 1281.31 1225.28 1289.58 1206.13 1295.38 C 1193.68 1299.15 1180.34 1300.65 1167.35 1300.45 C 1127.09 1299.83 1104.4 1278.14 1061.55 1280.12 C 1028.68 1281.64 1002.23 1300.82 968.527 1300.88 C 932.447 1300.94 908.156 1281.51 872.654 1280.1 C 860.219 1279.61 847.194 1280.61 835.161 1283.9 C 809.331 1290.97 794.148 1301.42 765.381 1301.15 C 736.173 1300.88 722.199 1290.9 695.965 1284.19 C 684.444 1281.24 672.674 1280.56 660.819 1280.5 C 646.255 1280.41 631.445 1281.62 617.59 1286.4 C 607.3 1289.95 597.318 1294.48 586.722 1297.1 C 571.93 1300.75 556.005 1301.22 540.88 1299.89 C 518.586 1297.94 501.02 1288.51 479.969 1282.84 C 468.772 1279.83 457.777 1278.97 446.22 1278.87 C 444.161 1273.87 441.945 1268.91 439.804 1263.94 A 805.983 805.983 0 0 1 461.642 1264.4 C 516.311 1119.32 614.409 987.279 727.306 882.196 C 752.428 858.812 778.817 837.182 805.662 815.841 C 817.894 806.117 829.82 795.966 842.404 786.702 z"/>
<path transform="translate(0,0)" fill="rgb(236,236,235)" d="M 1098.52 543.873 C 1104.58 523.356 1109.45 502.251 1114.28 481.411 C 1118.62 462.69 1120.85 438.804 1130.99 422.257 C 1134.44 416.616 1140.29 412.01 1146.09 408.99 C 1155.65 404.016 1166.24 403.156 1176.42 406.839 C 1182.3 408.967 1187.42 412.507 1191.3 417.422 C 1199.61 427.937 1205.11 442.054 1211.06 454.009 C 1222.98 478.005 1234.5 502.414 1247.21 526 A 2048.96 2048.96 0 0 0 1315.78 518.229 C 1331.63 516.219 1349.12 512.084 1364.99 513.288 C 1371.53 513.785 1378.6 516.654 1383.66 520.839 C 1391.07 526.966 1396.79 537.641 1397.46 547.224 C 1398.45 561.387 1391.3 571.138 1382.3 581.066 C 1365.97 599.079 1348.78 616.4 1332.06 634.055 C 1323.64 642.949 1314.27 651.859 1307.21 661.859 C 1317.31 688.539 1329.37 714.807 1340.39 741.152 C 1345.32 752.94 1352.39 765.481 1354.37 778.181 C 1355.38 784.664 1353.5 792.057 1350.71 797.899 C 1346.1 807.525 1338.25 815.444 1327.9 818.592 C 1321.06 820.672 1313.88 820.503 1307 818.755 C 1282.17 812.454 1215.42 766.274 1197.07 769.626 C 1188.49 771.193 1180.62 778.677 1174.01 783.954 C 1157.69 796.984 1114.08 835.703 1098.33 840.781 C 1088.95 843.807 1079.32 842.319 1070.88 837.382 C 1062.88 832.706 1057.63 825.745 1055.43 816.725 C 1052.18 803.39 1056.22 789.419 1057.39 776.061 C 1060.26 766.885 1060.31 754.155 1061.53 744.409 C 1063.04 737.587 1063.61 730.249 1064.59 723.31 C 1025.35 756.258 989.442 804.966 959.507 846.759 C 957.393 838.105 956.38 828.876 956.075 819.986 C 955.807 812.19 957.882 801.931 955.364 794.649 C 948.206 788.289 913.78 794.646 902.748 795.295 C 930.529 753.628 1018.72 704.669 1065.45 684.184 L 1049.89 674.839 L 1031.29 662.047 C 1016.18 652.151 980.771 632.077 969.821 619.595 C 966.285 615.565 964.057 610.536 962.911 605.329 C 960.733 595.437 962.425 586.458 967.884 577.941 C 974.227 568.045 982.396 563.841 993.652 561.633 C 1028.36 554.825 1064.17 552.476 1098.52 543.873 z"/>
<path transform="translate(0,0)" fill="rgb(66,66,66)" d="M 994.329 749.883 C 998.152 750.486 1000.19 750.978 1002.79 754.079 C 1003.45 756.08 1003.72 757.255 1003.35 759.388 C 1002.2 765.912 995.538 771.52 990.268 774.769 C 988.953 774.9 987.379 775.157 986.039 775.017 C 983.306 774.729 982.312 773.622 980.628 771.629 C 980.237 769.634 980.143 768.375 980.622 766.354 C 982.337 759.115 988.442 753.776 994.329 749.883 z"/>
<path transform="translate(0,0)" fill="rgb(66,66,66)" d="M 1156.06 423.113 C 1161.29 422.709 1168.42 421.837 1172.98 425.005 C 1190.7 437.311 1224.19 531.565 1237.29 540.642 C 1250.68 549.927 1348.78 522.098 1370.29 533.342 C 1374.9 535.753 1377.87 539.758 1379.15 544.768 C 1380.71 550.837 1379.88 556.489 1376.68 561.88 C 1372.35 569.166 1364.18 575.832 1358.22 581.965 C 1346.26 594.264 1296.32 644.147 1290.64 655.378 C 1289.17 658.28 1289.83 661.71 1290.59 664.719 C 1292.94 674.123 1297.95 683.646 1301.72 692.594 L 1323.19 743.87 C 1327.21 753.499 1331.84 763.213 1334.98 773.154 C 1337.1 779.848 1337.79 786.633 1334.18 792.982 C 1330.38 799.666 1323.92 801.673 1316.94 803.37 C 1303.08 800.086 1289.51 791.442 1276.8 785.025 L 1218.36 755.518 C 1213.28 752.799 1201.91 745.125 1196.4 746.523 C 1189.65 748.237 1180.56 757.427 1175.04 761.82 L 1126.25 800.199 C 1117.76 806.884 1109.11 815.026 1099.74 820.346 C 1095.72 822.625 1091.28 824.325 1086.61 824.392 C 1082.69 824.447 1078.75 823.336 1076.02 820.4 C 1072.73 816.875 1071.64 811.72 1071.42 807.054 C 1070.96 797.331 1073.47 786.477 1074.82 776.807 L 1082.98 720.302 C 1084.86 707.254 1087.37 693.908 1087.36 680.697 L 1087.35 679.117 C 1066.53 658.065 992.535 623.405 981.373 604.862 C 979.314 601.442 977.773 597.429 978.857 593.422 C 980.532 587.233 985.945 582.94 991.579 580.464 C 999.517 576.976 1009.29 576.241 1017.82 574.875 C 1034.49 572.204 1098.87 564.808 1109.4 558.575 C 1111.95 557.067 1113.32 555.243 1114.42 552.511 C 1119.34 540.18 1121.28 526.289 1124.28 513.35 C 1129.53 490.715 1134.9 467.982 1140.64 445.47 C 1143.3 435.013 1146.66 428.69 1156.06 423.113 z"/>
<path transform="translate(0,0)" fill="rgb(236,236,235)" d="M 1158.58 435.944 C 1159.82 435.846 1161.24 435.654 1162.49 435.72 C 1164 435.8 1165.71 435.693 1166.85 436.789 C 1172.16 441.918 1175.49 451.766 1178.82 458.448 C 1186.9 474.667 1218.22 541.089 1226.86 550.122 C 1229.29 552.66 1231.88 554.602 1235.4 555.235 C 1245.2 556.998 1257.06 554.791 1266.91 553.639 A 5777.96 5777.96 0 0 1 1328.5 546.444 C 1338.55 545.366 1350.11 543.336 1360.16 544.149 C 1363.37 544.409 1364.72 545.213 1366.7 547.685 C 1368.07 560.95 1289.04 630.537 1277.69 647.462 C 1275.62 650.544 1274.51 654.534 1273.35 658.042 C 1280.71 686.255 1323.78 767.095 1323.85 786.28 C 1322.65 787.746 1320.67 789.309 1318.76 789.632 C 1312.86 790.632 1227.47 745.307 1215.33 738.938 C 1207.44 734.365 1200.91 730.489 1191.47 733.054 C 1182.05 735.616 1170.39 748.124 1162.71 754.438 C 1151.14 763.949 1095.57 810.635 1086.33 811.577 C 1076.9 805.643 1106.4 693.906 1100.02 674.622 C 1093.95 656.299 993.513 608.577 990.631 596.359 C 995.326 585.007 1103.23 580.878 1119.44 569.367 C 1123.65 566.374 1126.37 561.121 1128.13 556.407 C 1132.17 545.595 1133.64 532.74 1136.09 521.432 A 1743.57 1743.57 0 0 1 1149.91 461.892 C 1151.87 453.893 1153.3 442.284 1158.58 435.944 z"/>
</svg>