<svg version="1.1" xmlns="http://www.w3.org/2000/svg" style="display: block;" viewBox="0 0 2048 2048" width="1024" height="1024">
<defs>
	<linearGradient id="Gradient1" gradientUnits="userSpaceOnUse" x1="1472.32" y1="1117.68" x2="1472.73" y2="1108.32">
		<stop class="stop0" offset="0" stop-opacity="1" stop-color="rgb(56,36,30)"/>
		<stop class="stop1" offset="1" stop-opacity="1" stop-color="rgb(49,45,48)"/>
	</linearGradient>
	<linearGradient id="Gradient2" gradientUnits="userSpaceOnUse" x1="1396.4" y1="792.411" x2="1367.6" y2="846.589">
		<stop class="stop0" offset="0" stop-opacity="1" stop-color="rgb(80,71,69)"/>
		<stop class="stop1" offset="1" stop-opacity="1" stop-color="rgb(95,96,99)"/>
	</linearGradient>
</defs>
<path transform="translate(0,0)" fill="rgb(254,254,254)" d="M 0 0 L 2048 0 L 2048 2048 L 0 2048 L 0 0 z"/>
<path transform="translate(0,0)" fill="rgb(137,44,42)" d="M 1003.11 69.448 A 241.973 241.973 0 0 1 1007.84 69.2943 C 1031.01 68.7699 1054.29 70.143 1077.41 71.5079 A 960.079 960.079 0 0 1 1678.39 330.964 A 956.806 956.806 0 0 1 1976.72 1002.09 A 943.047 943.047 0 0 1 1717.94 1678.43 A 953.712 953.712 0 0 1 1045.26 1978.15 C 875.617 1980.66 717.155 1943.11 567.911 1862.33 A 921.755 921.755 0 0 1 386.785 1734.33 C 198.69 1561.07 82.6804 1329.4 72.3069 1072.36 A 1051.37 1051.37 0 0 1 80.0954 888.8 A 950.835 950.835 0 0 1 323.834 375.88 A 958.752 958.752 0 0 1 856.771 84.3106 A 1035.03 1035.03 0 0 1 1003.11 69.448 z"/>
<path transform="translate(0,0)" fill="rgb(254,254,254)" d="M 999.611 108.442 L 1000.93 108.374 C 1041.2 106.486 1082.49 109.407 1122.51 113.919 A 919.964 919.964 0 0 1 1640.37 347.825 A 912.438 912.438 0 0 1 1938.56 978.559 A 914.887 914.887 0 0 1 1695.49 1646.23 A 925.399 925.399 0 0 1 1230.89 1916.04 C 1171.33 1929.7 1112.48 1936.06 1051.59 1938.78 C 1009.65 1939.43 968.153 1938.64 926.413 1934.24 A 917.99 917.99 0 0 1 395.94 1689.76 A 911.106 911.106 0 0 1 109.35 1054 A 907.126 907.126 0 0 1 351.338 403.531 A 917.428 917.428 0 0 1 999.611 108.442 z"/>
<path transform="translate(0,0)" fill="rgb(137,44,42)" d="M 995.331 157.44 C 995.602 157.426 995.873 157.409 996.145 157.397 C 1026.44 156.106 1057.27 157.411 1087.5 159.635 A 866.744 866.744 0 0 1 1607.18 382.674 A 868.54 868.54 0 0 1 1889.27 982.89 A 857.469 857.469 0 0 1 1661.33 1610.13 A 868.613 868.613 0 0 1 1056.25 1890.19 A 378.744 378.744 0 0 1 1051.09 1890.45 C 1028.2 1891.46 1005.18 1890.67 982.309 1889.6 A 868.144 868.144 0 0 1 443.673 1666.92 A 860.735 860.735 0 0 1 159.273 1065.69 C 149.533 833.673 224.666 612.571 382.88 441.048 A 863.091 863.091 0 0 1 995.331 157.44 z"/>
<path transform="translate(0,0)" fill="rgb(254,254,254)" d="M 1001.48 182.438 A 116.003 116.003 0 0 1 1005.05 182.326 A 849.801 849.801 0 0 1 1604.39 414.133 A 840.548 840.548 0 0 1 1865.39 1004.82 A 832.322 832.322 0 0 1 1632.4 1604.92 A 845.089 845.089 0 0 1 1047.63 1865.09 A 840.858 840.858 0 0 1 448.031 1636.72 A 835.274 835.274 0 0 1 183.913 1066.82 C 174.799 832.883 249.233 621.592 408.853 449.29 C 441.026 414.56 475.968 384.163 513.472 355.378 C 657.572 244.78 820.481 189.424 1001.48 182.438 z"/>
<path transform="translate(0,0)" fill="rgb(137,44,42)" d="M 251.365 1200.01 L 1796.28 1200 A 781.263 781.263 0 0 1 1573.31 1592.77 C 1468.37 1693.03 1349.9 1760.93 1208.38 1795.11 A 792.588 792.588 0 0 1 608.657 1699.04 C 574.048 1677.88 542.041 1653.77 511.083 1627.61 C 376.875 1514.21 292.399 1370.4 251.365 1200.01 z"/>
<path transform="translate(0,0)" fill="rgb(254,254,254)" d="M 941.175 1583.26 C 944.119 1583.08 947.075 1582.9 950.025 1582.9 C 963.879 1582.89 974.541 1587.96 984.234 1597.49 L 974.587 1606.39 C 972.55 1604.51 970.489 1602.57 968.177 1601.03 C 960.274 1595.75 950 1593.43 940.677 1595.46 A 34.687 34.687 0 0 0 918.406 1611.35 C 913.042 1620.25 911.639 1631.57 914.276 1641.58 C 916.488 1649.97 921.695 1657.34 929.454 1661.43 C 939.64 1666.8 952.432 1666.08 963.203 1663.01 C 967.801 1660.65 971.222 1657.86 974.982 1654.39 C 978.087 1657.48 980.807 1660.75 983.566 1664.14 C 976.866 1670.29 969.681 1674.75 960.816 1677.11 A 52.6097 52.6097 0 0 1 920.984 1671.48 A 45.6813 45.6813 0 0 1 899.768 1641.78 C 896.974 1628.91 899.382 1613.89 907.006 1603.03 C 915.228 1591.32 927.479 1585.7 941.175 1583.26 z"/>
<path transform="translate(0,0)" fill="rgb(254,254,254)" d="M 789.14 1583.96 C 812.076 1583.49 835.109 1583.9 858.055 1583.91 L 858.041 1596.64 L 803.424 1596.68 L 803.303 1624.39 A 1458.85 1458.85 0 0 1 851.971 1624.65 L 852.099 1637.13 L 807.75 1637.14 C 806.501 1637.13 805.802 1637.42 804.642 1637.84 C 802.034 1645.64 803.625 1657.52 803.74 1665.74 L 859.867 1665.78 L 859.935 1678.14 L 789.195 1678.16 L 789.14 1583.96 z"/>
<path transform="translate(0,0)" fill="rgb(254,254,254)" d="M 666.767 1583.98 C 683.616 1583.85 703.967 1581.67 720.196 1586.4 C 728.616 1588.85 736.279 1593.66 740.435 1601.6 C 744.343 1609.06 744.778 1619.22 742.214 1627.17 C 738.909 1637.43 730.71 1642.3 721.611 1646.75 C 725.579 1651.12 740.312 1668.98 742.046 1673.56 C 742.257 1674.12 742.305 1674.72 742.434 1675.3 L 743.382 1675.98 L 742.944 1677.19 L 738.25 1677.34 L 728.198 1677.5 A 1185.05 1185.05 0 0 0 708.949 1648.79 L 680.368 1648.76 L 680.451 1678.15 L 666.731 1678.15 C 666.175 1646.79 666.68 1615.35 666.767 1583.98 z"/>
<path transform="translate(0,0)" fill="rgb(137,44,42)" d="M 680.595 1596.72 C 693.947 1596.6 711.369 1594.43 723.017 1602.15 C 726.838 1604.68 729.488 1608.07 730.238 1612.66 C 731.236 1618.77 727.349 1626.81 723.944 1631.58 C 712.833 1639.18 693.444 1636.42 680.336 1636.33 L 680.595 1596.72 z"/>
<path transform="translate(0,0)" fill="rgb(254,254,254)" d="M 1164.57 1583.98 C 1179.46 1583.87 1195.18 1582.81 1209.97 1584.3 C 1219.82 1585.29 1229.7 1588.33 1235.93 1596.52 C 1241.42 1603.75 1243.08 1614.38 1241.41 1623.18 C 1239.25 1634.59 1231.24 1641.06 1222.11 1647.11 C 1228.34 1656.81 1237.78 1666.64 1242.65 1676.91 C 1240.69 1678.46 1235.61 1678.07 1232.97 1678.2 L 1229.55 1677.94 C 1221.64 1673.17 1213.92 1657.69 1208.79 1649.78 L 1178.05 1649.87 L 1178.2 1677.64 L 1164.23 1677.65 A 6460.38 6460.38 0 0 1 1164.57 1583.98 z"/>
<path transform="translate(0,0)" fill="rgb(137,44,42)" d="M 1178.1 1596.04 C 1190.81 1595.88 1211.62 1593.05 1221.92 1601.28 C 1226.17 1604.68 1228.34 1609.8 1228.8 1615.15 C 1229.37 1621.6 1226.88 1626.43 1222.92 1631.3 C 1210.7 1639.97 1192.48 1637.54 1178.08 1637.44 L 1178.1 1596.04 z"/>
<path transform="translate(0,0)" fill="rgb(254,254,254)" d="M 1288.76 1583.93 C 1312.45 1583.78 1343.27 1579.67 1362.39 1596.5 C 1371.43 1604.45 1375.8 1615.7 1376.47 1627.55 C 1377.26 1641.39 1372.37 1653.39 1363.28 1663.59 C 1344.17 1681.41 1312.86 1677.98 1288.79 1677.98 A 4516.92 4516.92 0 0 1 1288.76 1583.93 z"/>
<path transform="translate(0,0)" fill="rgb(137,44,42)" d="M 1302.8 1596.35 C 1318.12 1596.33 1338.21 1594.33 1351.06 1604.27 C 1357.5 1609.25 1360.75 1616.66 1361.64 1624.62 C 1362.93 1635.97 1358.7 1646.7 1351.82 1655.52 C 1336.97 1666.7 1320.32 1665.12 1302.79 1665.08 L 1302.8 1596.35 z"/>
<path transform="translate(0,0)" fill="rgb(254,254,254)" d="M 1058.79 1583.24 C 1070.15 1581.97 1081.58 1582.71 1092.12 1587.51 C 1103.66 1592.76 1113.02 1602.36 1117.2 1614.41 C 1121.58 1627.05 1120.21 1642.04 1113.9 1653.8 C 1106.76 1667.1 1095.34 1673.28 1081.41 1677.29 C 1068.08 1679.14 1055.18 1678.52 1043.13 1671.85 C 1031.92 1665.64 1024.14 1655.24 1020.96 1642.86 A 48.6235 48.6235 0 0 1 1026.88 1604.52 C 1034.33 1592.71 1045.41 1586.12 1058.79 1583.24 z"/>
<path transform="translate(0,0)" fill="rgb(137,44,42)" d="M 1068.93 1595.34 C 1077.14 1595.55 1085.24 1597.4 1091.88 1602.46 C 1099.14 1607.98 1103.28 1616.28 1104.38 1625.24 C 1105.63 1635.38 1103.18 1646.21 1096.47 1654.09 C 1089.17 1662.65 1080.3 1664.76 1069.67 1665.82 C 1061.56 1665.44 1054.45 1664.13 1047.62 1659.37 C 1039.83 1653.93 1034.99 1645.07 1033.75 1635.73 C 1032.48 1626.17 1034.89 1616.11 1040.96 1608.53 C 1048.28 1599.38 1057.83 1596.66 1068.93 1595.34 z"/>
<path transform="translate(0,0)" fill="rgb(254,254,254)" d="M 683.693 1310.48 A 1509.96 1509.96 0 0 1 734.103 1310.13 L 734.151 1438.11 C 734.141 1458.8 735.846 1481.28 733.606 1501.8 L 682.901 1501.83 C 682.297 1462.96 683.183 1423.93 683.07 1385.03 C 683.031 1371.54 681.14 1319.59 683.693 1310.48 z"/>
<path transform="translate(0,0)" fill="rgb(254,254,254)" d="M 793.891 1309.99 A 3680.93 3680.93 0 0 1 844.046 1310.16 L 844.273 1461.44 A 6752.15 6752.15 0 0 1 938.033 1461.13 L 938.08 1501.64 L 793.805 1502.19 A 13797.9 13797.9 0 0 0 793.891 1309.99 z"/>
<path transform="translate(0,0)" fill="rgb(254,254,254)" d="M 926.228 1310.39 C 944.623 1309.65 963.155 1309.97 981.568 1309.85 C 1000.99 1352.17 1015.27 1396.96 1034.79 1439.34 C 1051.52 1395.88 1070.39 1353.21 1088.07 1310.13 L 1141.7 1310.07 L 1120.96 1356.04 L 1056.2 1501.95 L 1010.15 1501.94 L 953.321 1372.53 C 944.284 1351.98 933.458 1331.65 926.228 1310.39 z"/>
<path transform="translate(0,0)" fill="rgb(254,254,254)" d="M 545.55 1309.38 C 575.889 1306.63 606.099 1314.21 632.451 1329.04 C 626.727 1342.32 619.085 1355.12 611.865 1367.63 C 596.785 1357.44 580.668 1350.05 562.265 1348.88 C 554.15 1348.37 542.905 1348.07 536.638 1353.98 C 533.75 1356.71 530.376 1360.89 530.768 1365.13 C 532.247 1381.14 583.176 1389.89 596.441 1394.86 C 605.857 1398.38 614.942 1403.06 622.381 1409.92 C 632.33 1419.1 637.39 1430.47 637.668 1443.94 C 637.981 1459.15 633.275 1473.39 622.307 1484.31 C 605.428 1501.11 579.946 1505.02 557.204 1505.32 C 527.943 1504.56 497.108 1497.08 474.679 1477.35 C 480.883 1464.71 488.227 1452.51 495.458 1440.43 C 516.61 1456.54 542.763 1469.12 570.131 1465.46 C 575.99 1464.68 582.383 1461.73 585.845 1456.74 C 587.523 1454.32 588.548 1450.12 587.819 1447.18 C 584.053 1432.04 544.659 1426.12 531.127 1421.62 C 520.754 1418.17 510.22 1413.89 501.385 1407.33 C 490.705 1399.41 483.949 1388.71 482.339 1375.43 C 480.573 1360.86 484.512 1345.38 493.834 1333.92 C 506.695 1318.12 525.964 1311.63 545.55 1309.38 z"/>
<path transform="translate(0,0)" fill="rgb(254,254,254)" d="M 1170.94 1310.48 C 1220.1 1309.3 1269.54 1311.18 1318.76 1310.59 L 1318.86 1350.81 A 5469.57 5469.57 0 0 0 1221.57 1350.26 L 1221.59 1385.26 L 1307.78 1385.47 L 1307.8 1423.22 L 1223.86 1423.58 L 1222.62 1424.13 C 1220.22 1432.24 1222.38 1453.31 1222.6 1462.76 A 9802.75 9802.75 0 0 1 1322.99 1462.55 L 1323.09 1501.68 L 1170.88 1501.99 C 1169.76 1438.34 1170.13 1374.15 1170.94 1310.48 z"/>
<path transform="translate(0,0)" fill="rgb(254,254,254)" d="M 1368.98 1309.99 C 1396.94 1309.88 1457.03 1307.04 1481.34 1313.63 C 1500.07 1318.71 1517.27 1329.92 1526.85 1347.12 C 1536.3 1364.07 1538.62 1386.9 1533.03 1405.45 C 1527.4 1424.11 1514.65 1435.72 1497.98 1444.67 C 1512.46 1463.26 1526.88 1482.22 1540.09 1501.74 L 1530.25 1501.92 L 1485 1501.8 A 5766.33 5766.33 0 0 1 1451.71 1453.49 L 1419.82 1453.99 L 1419.42 1501.33 L 1368.96 1501.6 L 1368.98 1309.99 z"/>
<path transform="translate(0,0)" fill="rgb(137,44,42)" d="M 1420.05 1348.2 C 1436.82 1347.98 1459.65 1344.82 1473.45 1356.02 C 1480.91 1362.08 1484.28 1371.39 1484.79 1380.79 C 1485.36 1391.01 1482.06 1399.78 1475.42 1407.43 C 1459.44 1418.66 1438.32 1415.96 1419.75 1415.88 L 1420.05 1348.2 z"/>
<path transform="translate(0,0)" fill="rgb(77,76,76)" d="M 997.595 231.434 C 1041.14 228.942 1086.8 232.503 1129.96 238.398 A 793.063 793.063 0 0 1 1512.18 399.506 C 1561.66 437.577 1608.2 482.2 1646.01 531.994 C 1767.39 691.823 1825.42 869.343 1814.78 1070.5 C 1813.12 1101.85 1808.6 1132.87 1804.38 1163.95 L 1050.5 1164.38 L 244.714 1164.06 A 698.582 698.582 0 0 1 233.105 1075.29 A 789.424 789.424 0 0 1 433.395 494.635 C 532.514 383.284 669.69 297.241 813.899 258.862 C 874.274 242.794 935.324 235.039 997.595 231.434 z"/>
<path transform="translate(0,0)" fill="rgb(254,254,254)" d="M 1462.22 922.19 C 1469.01 921.981 1475.31 923.62 1481.03 927.389 A 29.7048 29.7048 0 0 1 1493.58 946.093 A 33.1086 33.1086 0 0 1 1488.52 971.112 C 1483.17 978.972 1476.04 982.326 1466.93 983.9 C 1460.85 983.636 1455.31 983.075 1449.87 980.104 A 30.1756 30.1756 0 0 1 1434.87 960.519 C 1432.87 952.153 1434.24 943.016 1439.08 935.844 C 1444.67 927.547 1452.7 923.981 1462.22 922.19 z"/>
<path transform="translate(0,0)" fill="rgb(254,254,254)" d="M 530.834 960.655 C 535.326 963.856 541.908 981.957 544.632 987.713 C 555.267 989.786 566.026 991.17 576.753 992.684 C 569.445 1000.1 561.261 1006.47 553.158 1012.98 L 560.209 1046.2 L 534.421 1031.64 C 527.818 1029.74 510.874 1041.48 504.313 1044.91 C 505.641 1035.1 507.834 1025.33 509.707 1015.6 A 839.69 839.69 0 0 0 486.283 992.733 C 496.831 990.578 507.584 989.226 518.23 987.635 C 522.325 978.595 526.619 969.639 530.834 960.655 z"/>
<path transform="translate(0,0)" fill="rgb(254,254,254)" d="M 363.422 959.5 C 369.991 964.917 375.266 979.665 379.144 987.433 C 389.38 989.384 399.696 990.845 410.001 992.378 A 1719.15 1719.15 0 0 0 387.447 1014.51 C 389.093 1024.91 391.59 1035.19 393.847 1045.46 C 384.58 1040.69 375.402 1035.88 366.417 1030.58 L 365.426 1030.23 C 358.663 1031.13 342.998 1041.65 336.228 1045.03 C 337.858 1034.77 340.458 1024.51 342.501 1014.31 C 334.975 1007.4 328.048 999.916 321.039 992.496 C 330.748 989.73 340.908 988.757 350.912 987.669 C 354.522 978.124 359.221 968.808 363.422 959.5 z"/>
<path transform="translate(0,0)" fill="rgb(254,254,254)" d="M 1713.84 954.643 C 1718.84 958.865 1725.77 979.084 1728.75 985.904 A 1198.75 1198.75 0 0 0 1764.79 989.343 C 1755.78 997.404 1744.75 1004.56 1737.31 1014.13 C 1739.7 1026.13 1743.01 1037.96 1746.09 1049.8 A 1463 1463 0 0 0 1714.55 1030.07 C 1703.88 1033.04 1691.38 1042.98 1681.96 1049.16 L 1690.64 1015.1 C 1682.97 1005.15 1672.2 997.253 1662.61 989.228 C 1674.87 988.501 1687.24 987.464 1699.44 986.001 C 1704.03 975.429 1708.68 964.956 1713.84 954.643 z"/>
<path transform="translate(0,0)" fill="rgb(254,254,254)" d="M 1662.05 797.002 L 1662.8 797.718 C 1664.73 809.829 1659.47 835.113 1655.49 846.875 C 1653.24 853.551 1650.03 859.112 1644.64 863.71 C 1630.28 875.944 1610.29 884.704 1593.7 893.665 A 2519.33 2519.33 0 0 1 1503.6 940.967 L 1501.58 932.833 C 1498.87 927.48 1495.07 923.535 1490.8 919.455 C 1508.54 906.082 1525.99 892.071 1544.2 879.357 C 1557.71 869.929 1604.68 842.406 1612.48 833.145 C 1617.37 827.345 1615.94 817.212 1615.58 810.201 C 1634.36 811.428 1646.41 807.374 1662.05 797.002 z"/>
<path transform="translate(0,0)" fill="rgb(254,254,254)" d="M 1616.69 700.31 C 1629.59 699.375 1641.62 701.064 1652.73 708.34 C 1664.37 715.972 1673.27 728.817 1676.12 742.465 C 1679.06 756.587 1675.34 772.517 1667.11 784.295 C 1658.95 795.994 1646.12 802.846 1632.25 805.078 C 1617.56 806.229 1604.24 804.175 1591.92 795.452 A 52.2712 52.2712 0 0 1 1570.19 760.927 C 1568.01 747.112 1571.79 732.422 1580.03 721.161 C 1589.24 708.587 1601.67 702.615 1616.69 700.31 z"/>
<path transform="translate(0,0)" fill="rgb(77,76,76)" d="M 1611.23 710.269 C 1618.99 709.182 1625.36 709.588 1632.7 712.287 C 1635.64 713.367 1640.2 714.828 1641.6 717.881 C 1634.28 721.241 1623.12 717.746 1611.46 723.555 C 1600.07 729.233 1593.14 739.452 1589.27 751.26 C 1587.39 759.661 1587.9 767.198 1588.64 775.67 C 1586.49 772.354 1584.4 769.071 1582.87 765.408 C 1578.62 755.232 1578.27 744.131 1582.86 734.004 C 1588.48 721.594 1598.93 714.87 1611.23 710.269 z"/>
<path transform="translate(0,0)" fill="rgb(254,254,254)" d="M 1358.13 956.495 L 1422.53 956.103 C 1424.08 963.878 1425.66 970.699 1430.31 977.349 C 1436.8 986.634 1447.54 992.983 1458.72 994.593 A 39.9454 39.9454 0 0 0 1488.41 986.904 C 1498.55 979.257 1502.87 969.065 1504.79 956.93 C 1524.63 956.698 1544.51 957.162 1564.36 957.216 C 1579.8 957.258 1604.87 955.088 1619.26 959.122 C 1621.74 961.176 1622.32 964.258 1622.75 967.316 C 1625.05 983.795 1622.89 1010.82 1622.93 1028.35 C 1623.03 1065.53 1624.74 1103.38 1623.09 1140.48 C 1622.95 1143.77 1622.97 1147.52 1620.98 1150.27 C 1613.86 1154.64 1603.4 1153.09 1595.25 1152.92 A 17386.2 17386.2 0 0 0 1402.22 1152.26 C 1369.62 1152.23 1336.71 1153.15 1304.14 1151.98 C 1300.88 1151.87 1296.57 1152 1293.72 1150.32 C 1292.12 1149.38 1291.51 1147.41 1291.05 1145.75 C 1286.94 1130.97 1289.26 1066.39 1289.29 1046.55 C 1289.33 1022.51 1288.22 997.977 1289.58 974.018 C 1289.79 970.287 1289.91 963.082 1292.13 960.214 C 1296.12 955.067 1348.98 956.552 1358.13 956.495 z"/>
<path transform="translate(0,0)" fill="rgb(1,1,1)" d="M 1332.75 998.074 C 1340.46 995.738 1347.37 995.694 1354.57 999.77 A 25.2065 25.2065 0 0 1 1366.64 1015.76 C 1367.95 1021.06 1367.33 1026.07 1365.85 1031.24 L 1362.98 1027.71 C 1363.11 1025.98 1363.23 1024.22 1363.14 1022.49 C 1362.81 1016.14 1359.78 1009.37 1354.97 1005.18 C 1349.36 1000.31 1343.78 999.615 1336.64 1000.28 L 1332.75 998.074 z"/>
<path transform="translate(0,0)" fill="rgb(49,34,33)" d="M 1365.85 1031.24 A 27.6365 27.6365 0 0 1 1351.81 1045.56 C 1346.44 1048.01 1340.09 1047.71 1334.63 1045.69 C 1327.57 1043.07 1321.64 1037.7 1318.82 1030.65 C 1316.34 1024.47 1315.99 1016.52 1318.78 1010.37 C 1321.47 1004.43 1326.84 1000.44 1332.75 998.074 L 1336.64 1000.28 C 1329.91 1004.02 1324.97 1007.87 1322.6 1015.51 A 20.1136 20.1136 0 0 0 1324.46 1031.95 C 1327.48 1037.08 1332.73 1040.25 1338.5 1041.36 C 1343.66 1042.36 1348.99 1040.99 1353.88 1039.36 C 1357.66 1035.65 1360.22 1032.19 1362.98 1027.71 L 1365.85 1031.24 z"/>
<path transform="translate(0,0)" fill="url(#Gradient1)" d="M 1558.46 1115.87 C 1535.49 1117.77 1511.05 1116.2 1487.94 1116.2 A 6125.77 6125.77 0 0 1 1416.61 1115.95 C 1409.01 1115.94 1401.41 1116.71 1393.82 1116.53 C 1391.2 1116.47 1389.42 1116.33 1387.04 1115.28 L 1386.78 1113.68 C 1388.5 1112.04 1388.93 1111.94 1391.39 1111.7 C 1409.57 1109.88 1428.98 1111.19 1447.32 1111.15 L 1557.66 1110.95 L 1558.46 1115.87 z"/>
<path transform="translate(0,0)" fill="rgb(77,76,76)" d="M 1557.66 1110.95 C 1557.89 1104.55 1559.02 1098.31 1563.74 1093.58 C 1567.29 1090.01 1572.92 1088.75 1577.82 1089.04 C 1582.41 1089.32 1586.5 1091.23 1589.51 1094.73 C 1593.25 1099.08 1594.86 1105.18 1594.18 1110.83 C 1593.55 1116.05 1591.18 1121.3 1586.88 1124.51 C 1583.2 1127.26 1578.7 1127.94 1574.27 1126.99 C 1566.38 1125.31 1563.66 1121.41 1558.46 1115.87 L 1557.66 1110.95 z"/>
<path transform="translate(0,0)" fill="rgb(254,254,254)" d="M 1572.03 1095.98 C 1574.08 1095.92 1576.23 1095.91 1578.26 1096.29 C 1581.69 1096.94 1584.86 1099.26 1586.77 1102.15 C 1588.49 1104.76 1588.99 1107.91 1588.23 1110.94 C 1587 1115.88 1583.76 1118.11 1579.61 1120.63 C 1578.03 1120.84 1576.46 1120.94 1574.86 1120.84 C 1571.23 1120.62 1567.9 1118.98 1565.71 1116 C 1563.77 1113.37 1563.26 1109.99 1563.81 1106.82 C 1564.71 1101.53 1567.78 1098.85 1572.03 1095.98 z"/>
<path transform="translate(0,0)" fill="rgb(77,76,76)" d="M 1577.04 998.187 C 1580.9 997.849 1585.01 997.603 1588.76 998.803 C 1593.87 1000.44 1598.35 1004.35 1600.71 1009.17 A 19.8284 19.8284 0 0 1 1601.34 1025.28 C 1598.6 1032.04 1593.28 1035.41 1586.75 1037.95 C 1583.49 1038.11 1579.8 1038.13 1576.63 1037.33 C 1571.09 1035.93 1566.03 1031.89 1563.42 1026.82 A 18.9023 18.9023 0 0 1 1562.46 1011.46 C 1565.09 1004.38 1570.42 1001.09 1577.04 998.187 z"/>
<path transform="translate(0,0)" fill="rgb(254,254,254)" d="M 1581.38 1004.18 C 1583.16 1004.4 1584.92 1004.61 1586.62 1005.2 C 1590.42 1006.5 1593.38 1009.16 1594.91 1012.9 C 1596.39 1016.52 1596.12 1020.54 1594.35 1024.01 C 1592 1028.64 1588.55 1030.21 1583.82 1031.79 C 1581.39 1031.5 1578.58 1031.32 1576.34 1030.27 C 1572.99 1028.71 1570.02 1025.12 1568.9 1021.63 A 12.5711 12.5711 0 0 1 1569.72 1011.94 C 1572.28 1007.04 1576.32 1005.56 1581.38 1004.18 z"/>
<path transform="translate(0,0)" fill="rgb(137,44,42)" d="M 1336.64 1000.28 C 1343.78 999.615 1349.36 1000.31 1354.97 1005.18 C 1359.78 1009.37 1362.81 1016.14 1363.14 1022.49 C 1363.23 1024.22 1363.11 1025.98 1362.98 1027.71 C 1360.22 1032.19 1357.66 1035.65 1353.88 1039.36 C 1348.99 1040.99 1343.66 1042.36 1338.5 1041.36 C 1332.73 1040.25 1327.48 1037.08 1324.46 1031.95 A 20.1136 20.1136 0 0 1 1322.6 1015.51 C 1324.97 1007.87 1329.91 1004.02 1336.64 1000.28 z"/>
<path transform="translate(0,0)" fill="rgb(1,1,1)" d="M 1338.07 1078.2 C 1343.22 1077.98 1347.92 1077.85 1352.77 1079.9 A 25.2787 25.2787 0 0 1 1366.73 1094.54 C 1368.97 1100.67 1368.76 1107.66 1365.83 1113.53 C 1362.12 1120.97 1356.22 1124.25 1348.66 1126.92 C 1343.56 1127.17 1338.93 1127.42 1334.07 1125.51 C 1327.83 1123.06 1322.67 1118.23 1320.23 1111.93 A 24.6942 24.6942 0 0 1 1320.81 1092.78 C 1324.31 1085.18 1330.51 1081.1 1338.07 1078.2 z"/>
<path transform="translate(0,0)" fill="rgb(137,44,42)" d="M 1339.95 1082.16 C 1343.17 1082.03 1346.73 1082.26 1349.79 1083.35 C 1355.45 1085.37 1360.22 1089.89 1362.41 1095.49 C 1364.31 1100.36 1364.26 1105.64 1362.15 1110.43 C 1359.1 1117.4 1353.57 1120.32 1346.77 1122.9 C 1343.32 1123.18 1340.04 1122.93 1336.77 1121.74 C 1331.57 1119.85 1327.31 1116.48 1325.03 1111.35 C 1322.82 1106.38 1322.89 1100.58 1324.94 1095.57 C 1327.84 1088.46 1333.16 1085.06 1339.95 1082.16 z"/>
<path transform="translate(0,0)" fill="rgb(254,254,254)" d="M 930.55 308.591 C 1011.16 301.839 1096.07 324.71 1164.8 366.591 A 415.246 415.246 0 0 1 1352.92 622.551 C 1356.29 635.787 1359.21 649.595 1360.73 663.171 C 1362.3 677.165 1361.57 691.352 1366.03 704.84 C 1383.45 757.611 1403.35 809.604 1421.33 862.188 C 1428.03 881.78 1436 901.534 1440.89 921.658 C 1423.39 907.55 1407.88 891.7 1391.92 875.921 A 3738.22 3738.22 0 0 1 1342.96 827.102 A 213.422 213.422 0 0 1 1340.2 835.152 C 1302.05 942.148 1231.16 1019.52 1128.57 1068.1 A 379.717 379.717 0 0 1 1000.72 1102.08 C 890.928 1111.05 784.272 1071.19 700.942 1000.31 A 401.181 401.181 0 0 1 561.708 726.38 C 553.632 623.051 588.79 525.323 655.764 447.153 C 723.157 368.495 827.409 316.508 930.55 308.591 z"/>
<path transform="translate(0,0)" fill="url(#Gradient2)" d="M 1357.39 766.737 C 1364.76 775.408 1381.85 814.155 1388.31 826.932 C 1401.69 853.403 1416.37 879.389 1429.3 906.057 C 1430.25 908.019 1430.73 909.65 1431.04 911.81 C 1424.33 899.24 1416.24 887.31 1408.75 875.183 C 1395.02 852.952 1382.27 830.595 1370.06 807.506 C 1365.12 798.157 1359.69 788.845 1355.61 779.081 L 1357.39 766.737 z"/>
<path transform="translate(0,0)" fill="rgb(1,1,1)" d="M 964.333 537.331 C 979.079 536.242 993.644 537.778 1007.99 541.318 C 1049.05 551.453 1084.15 575.641 1106.05 612.12 C 1126.02 645.388 1134.29 690.645 1125.02 728.545 L 1124.51 729.595 C 1128.3 691.661 1114.83 650.207 1093.64 619.116 C 1063.3 574.603 1016.67 547.177 964.333 537.331 z"/>
<path transform="translate(0,0)" fill="rgb(1,1,1)" d="M 794.515 678.762 C 797.275 688.391 797.523 699.467 799.44 709.433 C 805.399 740.419 819.636 768.852 839.059 793.556 C 872.634 836.261 913.946 858.065 967.258 864.581 C 959.518 866.489 950.696 866.084 942.799 865.608 A 152.9 152.9 0 0 1 836.83 814.733 C 803.902 777.453 791.354 727.597 794.515 678.762 z"/>
<path transform="translate(0,0)" fill="rgb(1,1,1)" d="M 950.185 483.546 C 966.402 482.236 983.011 482.211 999.165 484.241 C 1050.94 490.746 1102.97 518.283 1135.09 559.843 C 1173.21 609.16 1186.04 671.198 1178.42 732.105 L 1178.01 732.373 C 1177.29 731.941 1177.57 712.516 1177.5 708.936 C 1176.64 661.177 1157.68 617.092 1128.85 579.572 C 1096.6 537.606 1047.68 501.523 995.527 489.293 C 980.623 485.799 965.301 485.539 950.185 483.546 z"/>
<path transform="translate(0,0)" fill="rgb(1,1,1)" d="M 739.557 671.568 C 742.227 677.048 741.537 697.293 742.384 705.407 C 747.706 756.419 772.809 803.784 807.245 841.242 C 847.007 884.495 908.388 923.665 968.612 925.478 L 970.482 925.518 L 970.332 926.526 A 371.797 371.797 0 0 1 944.503 925.799 C 887.472 921.675 829.579 894.603 792.319 850.817 C 761.82 814.975 741.308 766.027 738.119 718.984 C 737.039 703.054 738.331 687.44 739.557 671.568 z"/>
<path transform="translate(0,0)" fill="rgb(1,1,1)" d="M 677.511 675.738 C 679.329 692.098 679.656 708.427 682.31 724.735 C 691.447 780.897 718.445 832.78 755.32 875.654 C 798.362 925.698 855.465 965.963 920.378 981.19 C 938.585 985.461 956.951 987.118 975.544 988.497 A 243.652 243.652 0 0 1 937.244 988.365 C 865.223 982.715 792.812 945.185 745.99 890.139 C 708.174 845.681 681.859 788.236 676.8 729.786 C 675.229 711.634 676.021 693.836 677.511 675.738 z"/>
<path transform="translate(0,0)" fill="rgb(1,1,1)" d="M 959.751 420.469 C 976.586 420.421 993.383 420.793 1010.05 423.41 A 276.459 276.459 0 0 1 1188.4 532.36 C 1229.49 588.62 1250.75 662.759 1239.97 732.216 C 1238.62 729.015 1239.37 723.681 1239.39 720.142 C 1239.2 689.983 1235.03 659.082 1224.8 630.607 C 1192.6 540.955 1108.98 460.583 1017.93 432.634 C 997.906 426.487 978.348 423.761 957.531 422.575 C 953.826 422.364 948.413 422.807 945.05 421.224 L 946.063 421.202 L 944.791 421.375 L 959.751 420.469 z"/>
<path transform="translate(0,0)" fill="rgb(1,1,1)" d="M 614.464 667.729 C 616.905 682.014 615.906 697.254 617.132 711.735 A 352.266 352.266 0 0 0 642.133 814.575 C 685.548 922.849 787.384 1015.84 901.893 1042.56 C 918.336 1046.4 934.653 1048.69 951.49 1049.95 C 957.855 1050.42 977.892 1049.57 982.399 1051.99 C 982.654 1052.13 982.866 1052.33 983.1 1052.5 C 967.568 1052.99 951.943 1053.38 936.423 1052.42 C 845.751 1046.81 758.715 1002.1 698.792 934.251 C 649.534 878.475 619.23 803.009 613.684 728.943 C 612.153 708.498 613.195 688.15 614.464 667.729 z"/>
<path transform="translate(0,0)" fill="rgb(1,1,1)" d="M 951.61 358.412 C 968.373 356.671 986.959 357.556 1003.69 359.191 C 1092.14 367.833 1175.62 418.306 1231.43 486.141 A 338.016 338.016 0 0 1 1306.2 735.462 C 1305.03 733.198 1305.49 730.069 1305.49 727.53 L 1305.57 725.643 C 1308.83 633.789 1264.91 544.813 1203.28 478.968 C 1147.81 419.713 1075.48 375.985 994.513 363.424 C 975.278 360.44 956.438 360.257 937.075 359.627 C 941.956 359.403 946.759 358.958 951.61 358.412 z"/>
<path transform="translate(0,0)" fill="rgb(137,44,42)" d="M 950.617 599.353 C 974.237 595.583 1002.48 603.856 1021.72 617.507 A 100.943 100.943 0 0 1 1063.88 685.507 A 107.275 107.275 0 0 1 1044.61 766.138 C 1027.64 789.285 1003.31 802.43 975.232 806.779 C 949.614 809.379 924.133 803.818 903.312 788.377 C 880.605 771.538 865.662 747.274 861.556 719.244 A 106.252 106.252 0 0 1 881.813 638.954 C 898.96 616.434 922.718 603.03 950.617 599.353 z"/>
<path transform="translate(0,0)" fill="rgb(254,254,254)" d="M 956.13 684.111 C 959.72 683.848 963.35 683.461 966.844 684.55 C 971.803 686.097 976.238 689.644 978.665 694.254 A 19.3491 19.3491 0 0 1 979.715 709.837 C 977.361 716.392 972.854 719.466 966.845 722.449 C 963.123 722.886 959.385 723.194 955.759 722.029 A 19.488 19.488 0 0 1 944.109 711.96 A 20.21 20.21 0 0 1 943.327 696.301 C 945.699 689.644 949.923 686.857 956.13 684.111 z"/>
</svg>