<svg version="1.1" xmlns="http://www.w3.org/2000/svg" style="display: block;" viewBox="0 0 2048 2048" width="1024" height="1024">
<path transform="translate(0,0)" fill="rgb(254,254,254)" d="M 0 0 L 2048 0 L 2048 2048 L 0 2048 L 0 0 z"/>
<path transform="translate(0,0)" fill="rgb(70,70,73)" d="M 1017.48 65.2198 C 1019.84 64.9805 1022.2 64.7794 1024.57 64.7768 C 1066.64 64.7304 1100.12 140.39 1141.02 146.491 C 1180.63 152.4 1225.01 98.7809 1266 100.025 C 1310.13 101.365 1322.05 169.71 1347.06 196.68 C 1354.02 204.183 1362.99 209.899 1373.15 211.786 C 1401.47 217.047 1445.14 196.442 1477.13 197.804 C 1535.81 200.303 1527.17 281.332 1554.05 315.922 C 1581.79 351.611 1650.21 326.519 1686.18 349.019 C 1697.9 356.347 1704.69 367.929 1707.66 381.197 C 1714.12 410.031 1707.9 442.531 1717.69 470.494 C 1734.22 517.688 1814.12 502.962 1843.81 536.394 C 1868.76 564.502 1838.31 624.641 1836.66 658.846 C 1833.97 714.797 1907.54 722.248 1937.29 755.914 C 1971.99 795.193 1900.78 852.562 1898.22 895.469 C 1895.88 934.577 1944.76 963.971 1967.47 990.377 C 2020.73 1052.3 1914.83 1086.05 1900.07 1137.29 C 1886.92 1182.92 1948.97 1221.85 1944.71 1269.28 A 44.1548 44.1548 0 0 1 1933.81 1294.47 C 1914.42 1316.66 1871.65 1329.72 1847.77 1350.8 C 1803.46 1389.91 1863.32 1446.59 1859.8 1491.73 C 1858.89 1503.44 1852.04 1513.03 1842.17 1519.09 C 1812.88 1537.09 1749.5 1535.93 1723.96 1558.07 C 1700.63 1578.3 1708.91 1632.55 1707.32 1660.85 C 1703.08 1736.32 1606.75 1695.97 1565.05 1721.32 C 1530.95 1742.05 1540.48 1812.41 1507.39 1840.81 A 43.7179 43.7179 0 0 1 1483.62 1851.29 C 1455.33 1854.69 1415.3 1838.06 1385.1 1835.86 C 1376.81 1835.26 1368.56 1835.85 1361.17 1840 C 1334.76 1854.83 1318.52 1914.92 1292.56 1936.75 C 1250.17 1972.39 1192.98 1901.93 1149.56 1899.41 C 1119.41 1897.66 1082.63 1947.57 1060.97 1966.59 C 1048.07 1977.91 1036.23 1985.86 1018.37 1984.68 C 976.77 1972.54 950.375 1915.07 912.39 1901.78 C 880.364 1890.58 835.415 1929.33 806.987 1942.27 C 736.32 1974.46 730.315 1867.47 686.151 1840.8 C 652.629 1820.55 589.567 1866.82 549.942 1850.86 C 517.971 1837.99 511.419 1771.66 498.121 1742.29 C 476.249 1693.99 409.672 1721.54 369.794 1705.47 C 319.095 1685.04 347.576 1610.18 329.236 1570.88 C 315.342 1541.1 264.131 1539.91 236.151 1529.32 C 215.67 1521.56 204.088 1510.65 195.032 1490.66 A 576.615 576.615 0 0 1 170.673 1475.1 L 194.971 1474.25 C 200.105 1451.26 215.509 1401.19 214.975 1380.86 C 213.563 1327.16 124.115 1325.97 106.194 1281.94 C 92.1297 1247.38 128.688 1204.98 141.975 1174.47 C 170.319 1109.38 85.9538 1088.73 67.361 1038.87 C 49.7409 991.621 127.678 957.956 143.848 919.001 C 157.395 886.368 123.021 843.561 111.426 813.706 C 77.0644 725.232 187.634 733.053 210.631 690.557 C 230.474 653.889 182.505 590.172 201.595 548.631 C 217.556 513.899 271.431 512.195 302.593 499.875 C 361.48 476.592 325.936 412.064 345.781 368.58 C 364.568 327.414 435.601 344.387 472.237 329.892 C 479.385 327.064 485.904 322.889 490.813 316.905 C 506.267 298.066 513.466 254.243 523.885 230.046 C 539.769 193.159 565.903 194.673 599.82 201.332 C 615.256 204.362 630.708 207.839 646.285 210.081 C 656.953 211.617 668.426 212.885 678.897 209.571 C 719.004 196.878 731.049 116.504 771.636 101.508 C 778.869 98.8355 786.575 99.1939 793.956 101.029 C 815.795 106.46 847.379 128.403 869.134 138.922 C 879.396 143.884 891.521 149.168 903.146 148.434 C 939.364 146.147 977.009 79.415 1017.48 65.2198 z"/>
<path transform="translate(0,0)" fill="rgb(254,254,254)" d="M 167.273 1196.11 C 172.853 1184.13 177.883 1171.21 184.662 1159.89 C 184.877 1164.55 184.669 1169.55 186.291 1173.96 C 186.31 1175.47 186.382 1177.07 186.189 1178.56 C 185.415 1184.53 172.06 1192.43 167.273 1196.11 z"/>
<path transform="translate(0,0)" fill="rgb(254,254,254)" d="M 1861.35 1154.82 C 1866.81 1164.29 1871.08 1174.18 1874.92 1184.41 L 1859.12 1184.6 A 684.579 684.579 0 0 0 1861.35 1154.82 z"/>
<path transform="translate(0,0)" fill="rgb(254,254,254)" d="M 1787.98 1474.18 C 1811.54 1439.83 1781.85 1404.6 1793.67 1384.72 C 1799.8 1406.54 1814.75 1446.51 1802.86 1467.82 C 1801.55 1470.17 1799.97 1472.36 1797.62 1473.73 C 1794.4 1473.98 1791.21 1474.14 1787.98 1474.18 z"/>
<path transform="translate(0,0)" fill="rgb(254,254,254)" d="M 1883.11 1235.67 C 1886.73 1235.74 1889.86 1235.28 1893.05 1237.1 C 1896.13 1245.92 1892.5 1259.79 1888.7 1267.79 C 1878.34 1289.57 1856.39 1304.58 1836.83 1317.4 C 1831.24 1321.07 1825.39 1325.45 1819.31 1328.21 C 1832.96 1306.2 1858.18 1294.87 1873.56 1274.4 C 1882.76 1262.17 1885.18 1250.58 1883.11 1235.67 z"/>
<path transform="translate(0,0)" fill="rgb(254,254,254)" d="M 222.489 1324.85 C 222.183 1324.74 221.87 1324.66 221.57 1324.53 C 215.225 1321.95 208.973 1316.84 203.339 1312.93 C 186.83 1301.5 166.922 1289.13 158.316 1270.13 C 150.719 1253.36 154.629 1234.93 160.734 1218.41 L 162.791 1232.78 C 162.495 1251.68 163.607 1265.61 177.567 1280.12 C 192.379 1295.5 211.779 1305.62 222.489 1324.85 z"/>
<path transform="translate(0,0)" fill="rgb(254,254,254)" d="M 525.81 330.952 C 526.025 329.692 526.245 328.48 526.564 327.24 C 533.527 300.135 547.345 264.876 573.204 250.471 C 599.81 235.649 642.178 240.657 670.094 248.457 C 669.651 248.667 669.213 248.889 668.765 249.088 C 641.914 261.015 593.368 237.63 566.479 266.632 C 549.342 285.115 541.532 311.071 525.81 330.952 z"/>
<path transform="translate(0,0)" fill="rgb(254,254,254)" d="M 367.655 484.554 C 366.269 457.947 372.824 415.277 390.555 394.351 C 412.109 368.914 455.923 366.609 486.758 364.119 C 486.472 364.284 486.188 364.453 485.9 364.614 C 446.063 386.926 400.65 371.756 384.816 426.726 C 379.964 443.572 377.58 470.591 367.655 484.554 z"/>
<path transform="translate(0,0)" fill="rgb(254,254,254)" d="M 174.621 1108.61 C 173.607 1107.85 172.669 1107.13 171.746 1106.26 C 164.926 1099.81 158.723 1092.35 152.577 1085.26 C 137.363 1067.72 120.724 1048.04 120.859 1023.44 C 121.036 991.019 152.24 962.524 173.445 940.962 C 170.715 949.139 167.961 956.346 163.175 963.589 C 144.515 991.828 116.451 1008.77 136.054 1047.31 C 147.192 1069.2 166.105 1084.91 174.621 1108.61 z"/>
<path transform="translate(0,0)" fill="rgb(254,254,254)" d="M 183.533 884.106 C 175.639 870.661 168.165 855.601 161.969 841.289 C 154.164 823.261 148.762 801.86 156.722 782.89 C 166.151 760.421 202.25 736.196 223.777 727.13 L 223.135 728.14 C 202.748 759.528 153.713 768.791 163.489 814.976 C 168.582 839.035 183.369 858.745 183.533 884.106 z"/>
<path transform="translate(0,0)" fill="rgb(254,254,254)" d="M 1371.88 250.21 C 1404.17 243.577 1447.69 233.528 1477.4 253.062 C 1500.75 268.416 1516.26 311.036 1522.43 337.423 C 1507.52 325.246 1501.37 296.585 1490.66 279.928 C 1461.94 235.254 1415.45 259.645 1371.88 250.21 z"/>
<path transform="translate(0,0)" fill="rgb(254,254,254)" d="M 339.003 522.755 C 338.764 522.969 338.53 523.187 338.288 523.397 C 308.713 549.168 256.131 548.641 251.944 596.805 C 249.85 620.897 259.03 642.567 249.782 666.262 C 244.967 637.283 235.073 596.634 249.897 569.544 C 264.563 542.744 311.565 530.827 339.003 522.755 z"/>
<path transform="translate(0,0)" fill="rgb(254,254,254)" d="M 526.027 1719.12 C 545.454 1746.49 554.406 1788.9 591.009 1795.17 C 616.664 1799.56 652.545 1787.03 676.155 1797.39 A 45.3668 45.3668 0 0 1 674.16 1797.86 C 642.429 1804.56 597.425 1815.45 568.453 1796.53 C 544.676 1781 531.474 1745.83 526.027 1719.12 z"/>
<path transform="translate(0,0)" fill="rgb(254,254,254)" d="M 939.748 174.752 C 961.997 152.365 990.157 121.45 1024.47 121.37 C 1057.27 121.293 1084.34 149.286 1105.56 171.199 C 1106.7 172.381 1107.88 173.548 1108.97 174.778 C 1086.31 167.465 1069.33 146.979 1047.93 136.694 C 1003.74 115.458 977.95 161.908 940.799 174.415 C 940.45 174.532 940.098 174.64 939.748 174.752 z"/>
<path transform="translate(0,0)" fill="rgb(254,254,254)" d="M 1520.13 1711.15 C 1513.85 1739.05 1506.85 1778.1 1480.57 1794.4 C 1454.25 1810.73 1411.88 1805.66 1383.53 1798.4 C 1380.76 1797.69 1378.01 1796.96 1375.28 1796.11 C 1397 1789.44 1425.09 1796.15 1448.12 1794.1 C 1502.52 1789.28 1492.74 1743.58 1519.32 1712.08 C 1519.59 1711.77 1519.86 1711.46 1520.13 1711.15 z"/>
<path transform="translate(0,0)" fill="rgb(254,254,254)" d="M 1325.66 1821.35 C 1312.44 1847.21 1289.27 1882.39 1259.88 1891.6 C 1233.3 1899.92 1200.24 1884.61 1177.37 1872.15 C 1171.68 1869.06 1166.2 1865.62 1160.74 1862.14 C 1186.93 1862.43 1211.11 1880.22 1237.16 1883.57 C 1266.47 1887.34 1280.81 1867.61 1297.95 1848.23 C 1306.58 1838.47 1315.31 1829.32 1325.66 1821.35 z"/>
<path transform="translate(0,0)" fill="rgb(254,254,254)" d="M 1868.95 935.765 C 1892.18 959.666 1925.86 988.049 1925.53 1024.45 C 1925.25 1054.73 1899.42 1083.32 1878.68 1103.06 C 1875.9 1105.71 1873.3 1108.3 1869.84 1110.02 C 1876.24 1089.51 1895.15 1074.98 1906.07 1056.82 C 1942.01 997.028 1880.29 980.535 1868.95 935.765 z"/>
<path transform="translate(0,0)" fill="rgb(254,254,254)" d="M 1678.6 1557.07 C 1680.31 1588 1678.07 1627.44 1656.17 1651.75 C 1637.07 1672.95 1599.19 1682.09 1571.81 1683.36 C 1565.94 1683.63 1560.04 1683.63 1554.16 1683.66 C 1568.51 1674.57 1588.23 1672.7 1604.51 1668.15 C 1650.02 1655.44 1662.8 1634.4 1670.21 1589 C 1671.87 1578.77 1672.78 1567.07 1678.06 1557.98 C 1678.24 1557.67 1678.42 1557.37 1678.6 1557.07 z"/>
<path transform="translate(0,0)" fill="rgb(254,254,254)" d="M 720.119 225.782 C 734.429 202.639 759.476 164.466 785.854 155.696 C 816.891 145.378 859.64 170.046 887.298 183.592 C 886.999 183.614 886.701 183.64 886.402 183.657 C 839.029 186.343 807.866 136.076 764.953 182.494 C 751.54 197.003 738.748 217.419 720.119 225.782 z"/>
<path transform="translate(0,0)" fill="rgb(254,254,254)" d="M 938.099 1872.44 C 961.96 1881.33 980.084 1901.18 1003.14 1911.32 C 1046.93 1930.57 1075.24 1884.3 1111.96 1870.9 C 1112.29 1870.78 1112.62 1870.67 1112.94 1870.56 C 1090.33 1893.6 1059.94 1925.64 1025.03 1925.76 C 994.312 1925.87 964.441 1900.17 944.394 1879.43 A 137.286 137.286 0 0 1 938.099 1872.44 z"/>
<path transform="translate(0,0)" fill="rgb(254,254,254)" d="M 1158.51 184.373 C 1179.8 169.296 1225.77 149.438 1252.03 153.621 C 1275.22 157.316 1292.24 174.581 1305.17 192.988 C 1312.92 204.021 1321.11 216.08 1326.6 228.392 C 1308.21 214.23 1296.31 194.066 1279.37 178.408 C 1239.32 141.405 1201.74 182.712 1158.51 184.373 z"/>
<path transform="translate(0,0)" fill="rgb(254,254,254)" d="M 1817.28 721.252 C 1844.46 734.774 1879.88 755.183 1890.34 785.578 C 1898.97 810.672 1888.23 838.099 1877.02 860.556 C 1871.72 871.19 1865.41 881.452 1860.34 892.169 C 1857.39 870.906 1877.2 840.498 1882.58 818.745 C 1896.17 763.855 1837.54 755.544 1817.83 722.208 C 1817.65 721.891 1817.47 721.57 1817.28 721.252 z"/>
<path transform="translate(0,0)" fill="rgb(254,254,254)" d="M 1559.81 365.023 C 1589.75 365.338 1637.06 373.091 1658.7 395.262 C 1682.09 419.234 1683.3 464.528 1686.13 495.994 C 1671.98 475.52 1671.83 447.421 1664.94 424.14 C 1653.8 386.529 1617.18 385.267 1585.62 375.946 C 1576.56 373.268 1568.11 369.512 1559.81 365.023 z"/>
<path transform="translate(0,0)" fill="rgb(254,254,254)" d="M 721.187 1822.97 L 722.16 1823.66 C 750.706 1844.23 770.846 1890.86 810.335 1884.45 C 837.869 1879.99 861.539 1862.06 890.034 1860.66 C 878.634 1870.04 857.095 1879.67 843.344 1885.32 C 823.841 1893.35 801.911 1898.86 781.628 1890.22 C 759.205 1880.68 729.91 1845.18 721.187 1822.97 z"/>
<path transform="translate(0,0)" fill="rgb(254,254,254)" d="M 1712.78 524.859 C 1742.22 530.747 1781.73 543.072 1799.44 569.446 C 1816.02 594.147 1810.45 629.152 1804.81 656.416 A 692.665 692.665 0 0 1 1800.23 677.05 C 1792.84 653.257 1802.47 619.351 1798.37 593.691 C 1796.98 584.924 1793.78 576.48 1787.84 569.757 C 1772.44 552.329 1734.29 540.586 1713.68 525.533 C 1713.38 525.312 1713.08 525.084 1712.78 524.859 z"/>
<path transform="translate(0,0)" fill="rgb(254,254,254)" d="M 365.02 1556.25 C 392.651 1598.08 367.333 1653.1 433.872 1666.46 C 454.398 1670.57 475.743 1671.78 493.085 1684.79 C 462.416 1681.18 422.651 1682.37 397.844 1661.42 C 368.832 1636.91 367.813 1591.13 365.02 1556.25 z"/>
<path transform="translate(0,0)" fill="rgb(254,254,254)" d="M 733.142 1550.61 C 737.777 1557.59 741.248 1566.06 744.971 1573.57 C 754.186 1574.98 763.554 1575.65 772.835 1576.55 C 766.465 1582.8 759.487 1588.36 752.51 1593.91 C 753.268 1603.08 755.24 1611.92 757.205 1620.88 C 749.392 1617.33 741.812 1613.09 734.5 1608.61 C 726.217 1612.95 718.084 1617.6 709.909 1622.14 C 711.783 1613.07 713.146 1604.1 714.274 1594.92 C 708.051 1588.48 701.256 1582.53 694.686 1576.46 C 703.89 1575.71 713.003 1574.99 722.1 1573.32 C 726.26 1566.12 729.55 1558.13 733.142 1550.61 z"/>
<path transform="translate(0,0)" fill="rgb(254,254,254)" d="M 1315.13 1545.55 C 1320.25 1551.85 1323.7 1562.47 1327.4 1569.93 L 1356.67 1573.46 C 1350.54 1580.72 1342.69 1586.48 1335.26 1592.36 C 1337.46 1601.72 1339.33 1611.17 1341.34 1620.57 L 1318.19 1607.86 C 1318.02 1607.77 1317.85 1607.63 1317.66 1607.58 C 1312.27 1606.18 1295.88 1617.78 1290.6 1620.87 C 1292.67 1611.64 1294.09 1602.27 1295.65 1592.94 C 1289.77 1586.06 1283.12 1579.75 1276.74 1573.32 A 741.058 741.058 0 0 1 1304.38 1570.39 L 1315.13 1545.55 z"/>
<path transform="translate(0,0)" fill="rgb(254,254,254)" d="M 867.899 1547.71 C 874.136 1553.28 880.488 1572.73 883.895 1580.93 A 483.89 483.89 0 0 1 921.329 1583.31 A 1414.66 1414.66 0 0 1 892.493 1607.56 C 894.233 1619.4 897.394 1631.33 899.929 1643.05 C 890.53 1637.35 880.797 1632.17 871.178 1626.86 L 869.532 1626.33 C 860.217 1628.75 846.198 1638.66 837.41 1643.66 A 1305.93 1305.93 0 0 0 844.256 1608.27 C 836.391 1599.72 827.642 1591.72 819.315 1583.61 C 830.83 1582.23 842.426 1580.69 853.806 1578.45 C 859.001 1568.46 863.343 1558 867.899 1547.71 z"/>
<path transform="translate(0,0)" fill="rgb(254,254,254)" d="M 1179.35 1546.48 C 1186.73 1553.92 1191.06 1569 1195.15 1578.69 C 1208.03 1579.38 1221.01 1581.41 1233.88 1582.56 L 1205.08 1608.46 C 1207.75 1620.11 1209.59 1632.07 1211.73 1643.84 A 1291.08 1291.08 0 0 1 1180.47 1625.83 C 1169.12 1629.98 1157.8 1637.5 1147.06 1643.21 C 1150 1631.5 1152.33 1619.76 1154.59 1607.91 C 1145.33 1598.71 1134.9 1590.33 1125.3 1581.42 C 1135.42 1580.91 1148.16 1581.68 1157.8 1578.63 C 1168.56 1575.23 1174.64 1555.77 1179.35 1546.48 z"/>
<path transform="translate(0,0)" fill="rgb(254,254,254)" d="M 1023.85 1554.54 C 1029.89 1558.67 1040.85 1586.55 1044.78 1594.94 C 1059.6 1595.69 1074.48 1597.49 1089.26 1598.89 C 1078.16 1608.96 1066.85 1618.88 1056.33 1629.56 C 1058.75 1644.62 1061.9 1659.48 1065.08 1674.39 A 1525.75 1525.75 0 0 1 1026.36 1653.45 C 1020.02 1652.49 992.375 1669.94 984.676 1674.25 C 988.635 1659.66 990.46 1644.42 995.125 1630.04 C 984.17 1619.61 972.699 1609.7 961.681 1599.33 C 976.448 1597.88 991.55 1596.55 1006.05 1593.34 C 1011.56 1580.22 1017.78 1567.4 1023.85 1554.54 z"/>
<path transform="translate(0,0)" fill="rgb(166,42,41)" d="M 1824.01 1236.43 C 1833.36 1233.98 1871.77 1235.7 1883.11 1235.67 C 1885.18 1250.58 1882.76 1262.17 1873.56 1274.4 C 1858.18 1294.87 1832.96 1306.2 1819.31 1328.21 C 1811.55 1339.33 1795.99 1371.48 1793.67 1384.72 C 1781.85 1404.6 1811.54 1439.83 1787.98 1474.18 C 1779.14 1476.4 1721.55 1475.8 1710.68 1474.25 C 1763.14 1394.74 1792.09 1325.58 1824.01 1236.43 z"/>
<path transform="translate(0,0)" fill="rgb(166,42,41)" d="M 162.791 1232.78 C 180.699 1236.27 199.8 1235.47 217.995 1235.76 A 945.178 945.178 0 0 0 338.396 1475 C 324.309 1476.6 308.848 1475.34 294.586 1475.29 C 278.353 1475.24 261.31 1476.37 245.227 1474.67 C 234.775 1444.01 243.129 1409.32 252.646 1379.65 C 252.916 1378.83 253.064 1378.55 253.052 1377.58 C 252.934 1367.79 230.135 1331.39 222.489 1324.85 C 211.779 1305.62 192.379 1295.5 177.567 1280.12 C 163.607 1265.61 162.495 1251.68 162.791 1232.78 z"/>
<path transform="translate(0,0)" fill="rgb(254,254,254)" d="M 252.646 1379.65 C 254.524 1383.19 256.23 1386.65 257.64 1390.41 C 255.301 1407.16 249.813 1423.35 247.15 1440.07 C 245.301 1451.67 246.597 1463.31 245.227 1474.67 C 234.775 1444.01 243.129 1409.32 252.646 1379.65 z"/>
<path transform="translate(0,0)" fill="rgb(254,254,254)" d="M 1023.06 399.408 A 80.319 80.319 0 0 1 1027.52 399.35 C 1059.54 400.014 1056.09 423.446 1073.36 441.027 C 1082.6 450.427 1094.75 452.612 1107.38 452.522 C 1125.14 452.396 1133.87 444.158 1145.45 432.295 C 1152.55 425.014 1159.34 420.733 1169.84 420.848 C 1224.53 421.445 1204.4 460.24 1228.75 483.556 C 1233.61 488.215 1239.72 490.967 1246.11 492.82 C 1275.75 501.406 1284.98 478.714 1308.5 478.79 C 1316.38 478.816 1323.55 482.241 1330.35 485.895 C 1370.76 507.646 1339.47 537.62 1365.88 563.334 C 1395.04 591.723 1409.28 568.161 1435.1 568.997 C 1445.78 569.343 1454.63 576.597 1461.56 584.127 C 1488.73 613.691 1469.02 617.245 1468.17 646.202 C 1467.78 659.197 1474.44 671.511 1483.24 680.719 C 1499.92 698.168 1513.28 690.104 1533.05 691.216 C 1541.83 691.71 1549.06 695.925 1554.74 702.522 C 1558.93 707.388 1562.35 713.154 1565.31 718.83 C 1567.56 723.154 1570.58 728.821 1571.03 733.68 C 1572.66 751.502 1549.1 769.457 1548.11 789.145 C 1547.79 795.647 1549.46 802.229 1552.08 808.137 C 1565.6 838.59 1598.66 824.443 1615.32 844.794 C 1620.2 850.762 1622.32 858.285 1624.15 865.629 C 1634.97 908.997 1591.73 909.205 1589.2 942.687 C 1585.99 985.148 1621.39 981.032 1639.82 1002.94 C 1647.51 1012.07 1648.27 1025.33 1646.84 1036.74 C 1643.64 1062.21 1622.5 1065.57 1605.73 1079.35 C 1596.39 1087.02 1591.61 1096.48 1590.43 1108.46 C 1587.93 1133.8 1605.56 1139.87 1618.99 1156.76 C 1626.31 1165.98 1626.41 1174.06 1624.97 1185.14 L 1529.23 1185 C 1540.93 1137.34 1549.77 1090.16 1549.9 1040.88 C 1550.28 894.905 1500.45 756.01 1396.29 651.81 C 1292.92 548.396 1162.15 495.509 1016.11 495.445 C 968.603 497.388 924.371 502.641 878.611 515.946 C 739.362 556.434 628.459 651.851 559.184 778.199 C 505.344 876.397 485.143 995.928 501.457 1106.52 C 505.374 1133.08 512.213 1159.21 519.749 1184.93 L 419.544 1185.04 C 420.219 1161.74 423.688 1155.89 441.541 1141.54 C 445.741 1138.16 449.586 1134.71 452.367 1130.01 C 458.419 1119.79 458.268 1106.07 454.876 1094.94 C 448.795 1075.01 433.083 1073.1 417.522 1064.1 C 408.688 1058.99 402.898 1051.65 400.345 1041.75 C 398.524 1034.68 398.163 1026.74 399.164 1019.51 C 403.47 988.416 437.58 993.427 450.706 969.969 C 455.483 961.43 458.456 951.734 457.329 941.881 C 454.087 913.555 425.622 911.692 419.491 888.137 C 416.556 876.859 420.065 862.619 426.255 852.881 C 435.54 838.274 448.087 837.505 463.259 833.804 C 475.13 830.908 484.558 824.267 490.664 813.576 C 510.723 778.457 484.684 772.282 478.096 746.844 C 475.153 735.478 480.146 724.025 485.95 714.428 C 504.664 683.487 520.071 699.638 545.627 692.82 C 559.323 689.167 569.835 678.035 576.476 665.904 C 584.364 651.495 580.612 641.871 576.321 627.435 C 573.259 617.136 573.584 608.335 578.958 598.831 C 582.635 592.33 587.937 586.836 593.427 581.839 C 619.493 558.109 634.497 583.815 660.543 576.086 C 668.102 573.843 674.508 569.209 680.164 563.842 C 706.356 538.992 685.155 522.565 697.75 499.718 C 705.606 485.468 722.235 478.84 736.93 474.285 C 755.983 478.401 771.868 496.436 791.951 493.695 C 799.022 492.73 806.359 489.77 812.477 486.117 C 837.631 471.098 826.036 452.577 840.151 434.48 C 848.543 423.722 863.907 418.677 877.145 417.513 C 897.572 415.716 904.361 432.797 917.861 443.569 C 927.061 450.91 937.578 453.067 949.122 451.678 C 966.834 449.546 977.757 442.558 985.166 426.082 C 987.491 420.911 989.655 415.496 993.334 411.106 C 1001.05 401.897 1011.89 400.53 1023.06 399.408 z"/>
<path transform="translate(0,0)" fill="rgb(166,42,41)" d="M 398.976 1524.07 L 436.084 1523.63 C 458.057 1523.69 480.131 1523.34 502.093 1523.89 C 529.294 1553.69 561.905 1580.41 594.472 1604.17 C 710.234 1688.65 844.189 1738.22 987.729 1744.62 C 1172.37 1752.86 1359.99 1692.9 1497.39 1566.98 C 1510.61 1554.86 1524.74 1541.96 1535.79 1527.83 C 1559.44 1527.88 1583.19 1527.51 1606.83 1528.08 C 1618.49 1528.02 1630.71 1527.29 1642.29 1528.36 C 1649.41 1527.36 1657.61 1528.17 1664.85 1528.19 A 1076.56 1076.56 0 0 1 1698.23 1528 C 1691.28 1535.48 1680.15 1546.52 1678.6 1557.07 C 1678.42 1557.37 1678.24 1557.67 1678.06 1557.98 C 1672.78 1567.07 1671.87 1578.77 1670.21 1589 C 1662.8 1634.4 1650.02 1655.44 1604.51 1668.15 C 1588.23 1672.7 1568.51 1674.57 1554.16 1683.66 C 1541.44 1687.38 1526.75 1699.76 1520.13 1711.15 C 1519.86 1711.46 1519.59 1711.77 1519.32 1712.08 C 1492.74 1743.58 1502.52 1789.28 1448.12 1794.1 C 1425.09 1796.15 1397 1789.44 1375.28 1796.11 C 1357.58 1797.17 1339.94 1805.2 1328.05 1818.49 A 64.1049 64.1049 0 0 0 1325.66 1821.35 C 1315.31 1829.32 1306.58 1838.47 1297.95 1848.23 C 1280.81 1867.61 1266.47 1887.34 1237.16 1883.57 C 1211.11 1880.22 1186.93 1862.43 1160.74 1862.14 C 1148.94 1858.11 1133.23 1859.8 1122.13 1865.16 C 1118.9 1866.72 1115.89 1868.5 1112.94 1870.56 C 1112.62 1870.67 1112.29 1870.78 1111.96 1870.9 C 1075.24 1884.3 1046.93 1930.57 1003.14 1911.32 C 980.084 1901.18 961.96 1881.33 938.099 1872.44 C 934.933 1869.9 931.383 1867.88 927.799 1865.98 C 916.399 1859.94 902.603 1856.86 890.034 1860.66 C 861.539 1862.06 837.869 1879.99 810.335 1884.45 C 770.846 1890.86 750.706 1844.23 722.16 1823.66 L 721.187 1822.97 C 719.384 1817.61 713.682 1813.37 709.198 1810.2 C 701.158 1804.52 686.245 1795.62 676.155 1797.39 C 652.545 1787.03 616.664 1799.56 591.009 1795.17 C 554.406 1788.9 545.454 1746.49 526.027 1719.12 C 525.861 1715.89 524.262 1713.17 522.591 1710.47 C 516.791 1701.12 504.024 1687.6 493.085 1684.79 C 475.743 1671.78 454.398 1670.57 433.872 1666.46 C 367.333 1653.1 392.651 1598.08 365.02 1556.25 C 360.184 1543.74 351.243 1533.59 342.237 1523.88 A 1556.02 1556.02 0 0 1 375.575 1523.86 C 383.328 1523.86 391.248 1523.53 398.976 1524.07 z"/>
<path transform="translate(0,0)" fill="rgb(254,254,254)" d="M 375.575 1523.86 C 383.328 1523.86 391.248 1523.53 398.976 1524.07 C 441.407 1572.67 486.318 1617.44 537.514 1656.93 A 808.681 808.681 0 0 0 973.232 1820.27 A 788.408 788.408 0 0 0 1546.7 1625.19 C 1580.77 1595.34 1613.95 1563.83 1642.29 1528.36 C 1649.41 1527.36 1657.61 1528.17 1664.85 1528.19 C 1658.81 1537.68 1650.65 1546.4 1643.25 1554.87 A 780.494 780.494 0 0 1 1571.26 1627.45 C 1534.52 1659.55 1497.13 1689.51 1455.95 1715.84 A 802.263 802.263 0 0 1 972.436 1839.3 A 827.156 827.156 0 0 1 464.397 1618.49 C 432.574 1589.06 403.999 1556.52 375.575 1523.86 z"/>
<path transform="translate(0,0)" fill="rgb(166,42,41)" d="M 398.976 1524.07 L 436.084 1523.63 C 464.204 1554.42 493.132 1584.06 525.075 1610.96 A 775.927 775.927 0 0 0 993.505 1792.7 A 757.921 757.921 0 0 0 1456.45 1659.37 C 1490.96 1635.42 1522.43 1608.07 1553.32 1579.69 C 1571.39 1563.08 1587.86 1543.47 1606.83 1528.08 C 1618.49 1528.02 1630.71 1527.29 1642.29 1528.36 C 1613.95 1563.83 1580.77 1595.34 1546.7 1625.19 A 788.408 788.408 0 0 1 973.232 1820.27 A 808.681 808.681 0 0 1 537.514 1656.93 C 486.318 1617.44 441.407 1572.67 398.976 1524.07 z"/>
<path transform="translate(0,0)" fill="rgb(254,254,254)" d="M 436.084 1523.63 C 458.057 1523.69 480.131 1523.34 502.093 1523.89 C 529.294 1553.69 561.905 1580.41 594.472 1604.17 C 710.234 1688.65 844.189 1738.22 987.729 1744.62 C 1172.37 1752.86 1359.99 1692.9 1497.39 1566.98 C 1510.61 1554.86 1524.74 1541.96 1535.79 1527.83 C 1559.44 1527.88 1583.19 1527.51 1606.83 1528.08 C 1587.86 1543.47 1571.39 1563.08 1553.32 1579.69 C 1522.43 1608.07 1490.96 1635.42 1456.45 1659.37 A 757.921 757.921 0 0 1 993.505 1792.7 A 775.927 775.927 0 0 1 525.075 1610.96 C 493.132 1584.06 464.204 1554.42 436.084 1523.63 z"/>
<path transform="translate(0,0)" fill="rgb(254,254,254)" d="M 217.995 1235.76 L 1215.12 1236.07 L 1631.25 1236.11 L 1769.05 1236.1 C 1787.34 1236.11 1805.75 1236.76 1824.01 1236.43 C 1792.09 1325.58 1763.14 1394.74 1710.68 1474.25 C 1680.21 1473.41 1649.62 1473.9 1619.14 1473.88 L 1451.82 1473.94 L 974.328 1474.21 L 550.809 1474.7 L 409.545 1474.84 C 385.918 1474.87 361.993 1474.11 338.396 1475 A 945.178 945.178 0 0 1 217.995 1235.76 z"/>
<path transform="translate(0,0)" fill="rgb(26,25,26)" d="M 1351.04 1293.14 L 1429.82 1293.15 L 1429.64 1305.28 L 1397.52 1305.16 L 1397.69 1376.5 L 1397.72 1407.91 L 1384.64 1407.99 L 1384.71 1304.94 C 1373.7 1304.92 1362.69 1305.01 1351.69 1304.46 C 1350.12 1301.89 1351 1296.27 1351.04 1293.14 z"/>
<path transform="translate(0,0)" fill="rgb(26,25,26)" d="M 660.216 1292.3 L 745.708 1292.25 L 745.688 1303.65 L 709.263 1303.64 L 709.312 1373.25 L 709.312 1408.18 L 696.096 1408.31 L 696.16 1304 L 660.288 1304.01 L 660.216 1292.3 z"/>
<path transform="translate(0,0)" fill="rgb(26,25,26)" d="M 1039.01 1291.3 C 1049.23 1290.7 1058.31 1292.82 1068.21 1295.13 L 1063.95 1305.95 C 1054.23 1303.67 1044.19 1301.47 1034.29 1304.16 C 1024.88 1306.72 1017.26 1313.09 1012.59 1321.59 C 1004.79 1335.81 1004.78 1356.97 1009.51 1372.26 C 1012.46 1381.78 1018.01 1390.34 1027.11 1394.93 C 1037.17 1400 1048.86 1398.96 1059.22 1395.38 C 1061.05 1394.57 1062.62 1394.06 1064.58 1393.69 C 1067.05 1395.99 1066.81 1400.03 1067.26 1403.36 C 1063.05 1405.36 1058.99 1407.15 1054.41 1408.18 C 1041.19 1411.15 1026.61 1410.43 1015.13 1402.62 C 1003.44 1394.68 997.28 1381.34 994.986 1367.76 C 991.857 1349.24 993.745 1326.25 1005.14 1310.69 C 1013.69 1299.01 1025.07 1293.52 1039.01 1291.3 z"/>
<path transform="translate(0,0)" fill="rgb(26,25,26)" d="M 1463.16 1292.2 C 1473.64 1291.58 1481.98 1293.43 1491.92 1296.62 C 1491.17 1300.94 1490.11 1305.2 1489.1 1309.47 C 1482.15 1304.92 1473.97 1302.04 1465.57 1303.21 C 1460.23 1303.95 1455.06 1305.73 1451.8 1310.25 C 1448.56 1314.72 1447.43 1321.24 1448.62 1326.6 C 1451.78 1340.92 1472.11 1344.66 1482.76 1352 C 1489.25 1356.47 1494.17 1362.49 1495.53 1370.41 C 1496.97 1378.84 1494.47 1390.85 1489.26 1397.7 C 1482.75 1406.27 1473.17 1408.65 1463.1 1410.03 C 1451.77 1409.9 1442.48 1407.62 1432.27 1402.75 C 1433.25 1398.9 1434.61 1395.19 1435.93 1391.44 C 1444.98 1395.83 1454.32 1399.8 1464.62 1398.7 C 1470.68 1398.05 1476.01 1395.73 1479.68 1390.67 C 1482.99 1386.11 1484.13 1378.79 1482.91 1373.35 C 1479.85 1359.72 1461.2 1355.29 1450.66 1348.9 C 1443.52 1344.56 1437.05 1338.38 1435.26 1329.92 C 1433.59 1322.01 1436.04 1311.81 1440.68 1305.26 C 1446.11 1297.6 1454.19 1293.9 1463.16 1292.2 z"/>
<path transform="translate(0,0)" fill="rgb(26,25,26)" d="M 1083.01 1292.91 C 1087.31 1292.78 1091.63 1292.98 1095.93 1293.07 L 1095.79 1342.05 L 1146.33 1341.85 L 1146.31 1293 L 1159.31 1292.94 C 1159.33 1305.97 1160.19 1404.05 1158.32 1407.95 L 1155.89 1408.58 C 1152.53 1408.54 1149.81 1408.55 1146.67 1407.26 C 1144.22 1397.7 1146.03 1365.85 1146.07 1353.89 L 1095.51 1353.94 A 2264.74 2264.74 0 0 1 1095.53 1408.54 L 1082.82 1408.75 L 1083.01 1292.91 z"/>
<path transform="translate(0,0)" fill="rgb(26,25,26)" d="M 1210.35 1293.02 L 1225.08 1292.96 C 1228.1 1305.49 1232.98 1317.91 1236.93 1330.21 L 1262.03 1408.2 C 1257.52 1408.36 1252.97 1408.31 1248.46 1408.37 C 1244.98 1396.53 1240.91 1384.87 1236.98 1373.19 L 1223.27 1373.18 L 1197.13 1373.2 C 1194.08 1384.92 1190.71 1396.58 1187.48 1408.26 L 1174 1408.23 C 1176.78 1395.85 1181.26 1383.57 1185.03 1371.46 A 4018.28 4018.28 0 0 1 1210.35 1293.02 z"/>
<path transform="translate(0,0)" fill="rgb(254,254,254)" d="M 1216.32 1308.55 C 1219.93 1311.7 1231.69 1354.6 1234.03 1362.29 L 1215.75 1362.46 L 1199.55 1362.57 L 1216.32 1308.55 z"/>
<path transform="translate(0,0)" fill="rgb(26,25,26)" d="M 1287.87 1293.35 C 1298.11 1292.34 1310.42 1291.84 1320.36 1294.38 C 1328.69 1296.51 1336.35 1301.36 1340.62 1308.99 C 1344.63 1316.14 1345.06 1324.62 1342.45 1332.33 C 1338.9 1342.84 1331.41 1348.67 1322.02 1353.59 C 1322.82 1353.95 1323.62 1354.31 1324.4 1354.7 C 1340.9 1363 1341.74 1391.88 1347.07 1408.02 L 1333.87 1408.05 L 1329.1 1388.79 C 1327.2 1380.59 1325.53 1370.48 1319.6 1364.13 C 1312.22 1356.23 1299.7 1357.6 1289.87 1357.56 L 1289.76 1408.43 L 1277.55 1408.51 C 1278.02 1383.62 1277.72 1358.65 1277.61 1333.75 C 1277.56 1321.52 1276.28 1307.88 1278.1 1295.81 C 1280.62 1293.77 1284.71 1293.75 1287.87 1293.35 z"/>
<path transform="translate(0,0)" fill="rgb(254,254,254)" d="M 1289.99 1303.06 C 1301.32 1302.67 1313.55 1301.51 1323.32 1308.51 C 1327.62 1311.59 1331.01 1316.05 1331.69 1321.41 C 1332.59 1328.49 1328.37 1336.48 1324.1 1341.79 C 1313.71 1349.15 1302.1 1347.92 1290.02 1347.86 L 1289.99 1303.06 z"/>
<path transform="translate(0,0)" fill="rgb(26,25,26)" d="M 895.601 1292.44 C 905.51 1292.1 916.059 1292.01 925.514 1295.34 C 933.667 1298.22 940.809 1303.85 944.457 1311.82 C 948.802 1321.31 947.727 1333.03 943.959 1342.52 C 936.99 1360.08 917.331 1362.94 900.741 1363.03 C 896.459 1363.05 890.888 1362.3 886.943 1363.96 L 886.427 1366.75 L 886.526 1407.97 L 874.041 1407.96 L 873.962 1293.05 C 881.173 1293 888.393 1292.68 895.601 1292.44 z"/>
<path transform="translate(0,0)" fill="rgb(254,254,254)" d="M 886.944 1302.94 C 899.593 1302.65 913.409 1301.12 924.533 1308.41 C 929.424 1311.62 933.428 1316.36 934.435 1322.24 C 935.753 1329.94 931.814 1338.62 927.427 1344.7 C 916.289 1354.75 900.73 1352.34 886.908 1351.85 L 886.944 1302.94 z"/>
<path transform="translate(0,0)" fill="rgb(26,25,26)" d="M 793.113 1291.2 C 804.793 1290.47 814.658 1290.98 824.974 1297.35 C 837.16 1304.87 844.925 1317.39 848.243 1331.11 C 852.638 1349.28 850.742 1372.36 840.558 1388.38 C 833.323 1399.77 822.696 1406.15 809.793 1409.11 C 798.489 1410.9 787.028 1409.68 776.962 1403.93 C 765.004 1397.1 757.519 1385.5 754.051 1372.4 C 749.163 1353.94 750.369 1330.08 760.487 1313.49 C 768.155 1300.92 779.159 1294.55 793.113 1291.2 z"/>
<path transform="translate(0,0)" fill="rgb(254,254,254)" d="M 796.753 1301.28 C 802.91 1301.33 808.836 1301.94 814.445 1304.68 C 824.984 1309.82 831.471 1319.45 834.855 1330.43 C 839.629 1345.91 838.327 1366.66 830.264 1380.8 C 824.533 1390.84 816.779 1396.06 805.873 1399 C 797.201 1399.51 789.667 1398.54 782.318 1393.57 C 773.133 1387.36 768.087 1377.1 765.914 1366.49 C 762.624 1350.42 764.113 1329.74 773.557 1315.97 C 779.487 1307.31 786.69 1303.36 796.753 1301.28 z"/>
<path transform="translate(0,0)" fill="rgb(166,42,41)" d="M 939.748 174.752 C 940.098 174.64 940.45 174.532 940.799 174.415 C 977.95 161.908 1003.74 115.458 1047.93 136.694 C 1069.33 146.979 1086.31 167.465 1108.97 174.778 C 1124.57 184.679 1140.42 187.08 1158.51 184.373 C 1201.74 182.712 1239.32 141.405 1279.37 178.408 C 1296.31 194.066 1308.21 214.23 1326.6 228.392 C 1338.95 241.438 1354.28 247.798 1371.88 250.21 C 1415.45 259.645 1461.94 235.254 1490.66 279.928 C 1501.37 296.585 1507.52 325.246 1522.43 337.423 C 1530.72 348.071 1544.66 362.733 1558.74 364.934 C 1559.09 364.989 1559.45 364.993 1559.81 365.023 C 1568.11 369.512 1576.56 373.268 1585.62 375.946 C 1617.18 385.267 1653.8 386.529 1664.94 424.14 C 1671.83 447.421 1671.98 475.52 1686.13 495.994 C 1691.18 506.992 1700.14 520.079 1711.89 524.567 C 1712.18 524.679 1712.49 524.762 1712.78 524.859 C 1713.08 525.084 1713.38 525.312 1713.68 525.533 C 1734.29 540.586 1772.44 552.329 1787.84 569.757 C 1793.78 576.48 1796.98 584.924 1798.37 593.691 C 1802.47 619.351 1792.84 653.257 1800.23 677.05 C 1799.53 694.067 1806.9 708.246 1817.28 721.252 C 1817.47 721.57 1817.65 721.891 1817.83 722.208 C 1837.54 755.544 1896.17 763.855 1882.58 818.745 C 1877.2 840.498 1857.39 870.906 1860.34 892.169 C 1859.03 902.793 1861.35 926.491 1868.36 935.151 C 1868.54 935.37 1868.75 935.56 1868.95 935.765 C 1880.29 980.535 1942.01 997.028 1906.07 1056.82 C 1895.15 1074.98 1876.24 1089.51 1869.84 1110.02 C 1864.53 1116.7 1859.5 1145.16 1860.96 1153.45 C 1861.04 1153.92 1861.22 1154.36 1861.35 1154.82 A 684.579 684.579 0 0 1 1859.12 1184.6 C 1848.27 1184.12 1837.24 1184.58 1826.37 1184.67 L 1804.72 1184.91 C 1795.06 1185.32 1785.29 1185.02 1775.61 1185.02 L 1727.63 1184.72 A 712.012 712.012 0 0 0 1729.97 868.109 A 726.936 726.936 0 0 0 1411.85 414.869 C 1243.88 307.868 1051.83 276.57 857.895 319.802 C 719.291 350.7 584.071 433.443 488.247 537.479 A 771.189 771.189 0 0 0 405.888 646.414 C 396.513 661.212 388.633 677.067 380.56 692.604 A 723.779 723.779 0 0 0 319.395 1184.81 L 272.83 1184.69 C 262.563 1184.61 251.739 1183.89 241.528 1184.62 C 234.675 1184.97 227.739 1184.73 220.876 1184.68 C 210.951 1184.31 200.319 1185.16 190.559 1183.38 C 188.075 1181.41 187.973 1178.37 186.861 1175.44 L 186.291 1173.96 C 184.669 1169.55 184.877 1164.55 184.662 1159.89 C 184.725 1159.55 184.803 1159.21 184.85 1158.87 C 186.73 1145.14 183.508 1119.5 174.621 1108.61 C 166.105 1084.91 147.192 1069.2 136.054 1047.31 C 116.451 1008.77 144.515 991.828 163.175 963.589 C 167.961 956.346 170.715 949.139 173.445 940.962 C 174.504 939.972 175.547 939.016 176.452 937.878 C 184.212 928.115 185.187 895.984 183.533 884.106 C 183.369 858.745 168.582 839.035 163.489 814.976 C 153.713 768.791 202.748 759.528 223.135 728.14 L 223.777 727.13 C 224.239 726.903 224.735 726.735 225.161 726.447 C 227.373 724.955 229.575 721.317 231.144 719.077 C 241.935 703.666 248.134 684.926 249.782 666.262 C 259.03 642.567 249.85 620.897 251.944 596.805 C 256.131 548.641 308.713 549.168 338.288 523.397 C 338.53 523.187 338.764 522.969 339.003 522.755 A 137.795 137.795 0 0 0 343.057 520.082 C 354.24 512.386 365.087 498.019 367.655 484.554 C 377.58 470.591 379.964 443.572 384.816 426.726 C 400.65 371.756 446.063 386.926 485.9 364.614 C 486.188 364.453 486.472 364.284 486.758 364.119 C 487.876 363.862 488.928 363.61 490.006 363.21 C 505.55 357.432 518.989 346.242 525.81 330.952 C 541.532 311.071 549.342 285.115 566.479 266.632 C 593.368 237.63 641.914 261.015 668.765 249.088 C 669.213 248.889 669.651 248.667 670.094 248.457 C 670.587 248.569 671.069 248.756 671.574 248.793 C 690.519 250.162 707.426 238.303 720.119 225.782 C 738.748 217.419 751.54 197.003 764.953 182.494 C 807.866 136.076 839.029 186.343 886.402 183.657 C 886.701 183.64 886.999 183.614 887.298 183.592 C 905.686 188.921 923.45 183.088 939.748 174.752 z"/>
<path transform="translate(0,0)" fill="rgb(254,254,254)" d="M 220.876 1184.68 C 213.153 1138.94 207.32 1093.64 206.056 1047.19 A 808.965 808.965 0 0 1 353.507 557.49 A 830.05 830.05 0 0 1 891.856 217.07 A 810.5 810.5 0 0 1 1368.47 283.928 A 927.439 927.439 0 0 1 1507.76 366.927 C 1675.9 487.13 1799.48 692.576 1833.27 895.981 C 1849.58 994.124 1844.99 1087.36 1826.37 1184.67 L 1804.72 1184.91 C 1810.46 1167.39 1812.91 1147.52 1815.49 1129.32 A 769.897 769.897 0 0 0 1803.08 847.964 A 809.164 809.164 0 0 0 1445.42 347.385 A 789.545 789.545 0 0 0 842.322 247.578 A 808.807 808.807 0 0 0 340.958 612.336 A 795.564 795.564 0 0 0 228.856 1088.72 C 231.271 1120.51 234.053 1153.56 241.528 1184.62 C 234.675 1184.97 227.739 1184.73 220.876 1184.68 z"/>
<path transform="translate(0,0)" fill="rgb(166,42,41)" d="M 241.528 1184.62 C 234.053 1153.56 231.271 1120.51 228.856 1088.72 A 795.564 795.564 0 0 1 340.958 612.336 A 808.807 808.807 0 0 1 842.322 247.578 A 789.545 789.545 0 0 1 1445.42 347.385 A 809.164 809.164 0 0 1 1803.08 847.964 A 769.897 769.897 0 0 1 1815.49 1129.32 C 1812.91 1147.52 1810.46 1167.39 1804.72 1184.91 C 1795.06 1185.32 1785.29 1185.02 1775.61 1185.02 C 1800.58 1058.49 1801.92 958.278 1768.74 832.643 A 774.318 774.318 0 0 0 1411.96 360.11 A 759.015 759.015 0 0 0 830.262 280.525 A 777.035 777.035 0 0 0 359.53 636.892 A 762.289 762.289 0 0 0 256.583 1064.51 C 258.508 1103.75 262.696 1146.75 272.83 1184.69 C 262.563 1184.61 251.739 1183.89 241.528 1184.62 z"/>
<path transform="translate(0,0)" fill="rgb(254,254,254)" d="M 272.83 1184.69 C 262.696 1146.75 258.508 1103.75 256.583 1064.51 A 762.289 762.289 0 0 1 359.53 636.892 A 777.035 777.035 0 0 1 830.262 280.525 A 759.015 759.015 0 0 1 1411.96 360.11 A 774.318 774.318 0 0 1 1768.74 832.643 C 1801.92 958.278 1800.58 1058.49 1775.61 1185.02 L 1727.63 1184.72 A 712.012 712.012 0 0 0 1729.97 868.109 A 726.936 726.936 0 0 0 1411.85 414.869 C 1243.88 307.868 1051.83 276.57 857.895 319.802 C 719.291 350.7 584.071 433.443 488.247 537.479 A 771.189 771.189 0 0 0 405.888 646.414 C 396.513 661.212 388.633 677.067 380.56 692.604 A 723.779 723.779 0 0 0 319.395 1184.81 L 272.83 1184.69 z"/>
<path transform="translate(0,0)" fill="rgb(254,254,254)" d="M 996.204 504.422 C 1051.56 500.526 1111.73 509.25 1165.02 523.953 C 1293.36 559.362 1406.2 649.976 1471.64 765.378 C 1545.1 894.919 1558.85 1042.27 1519.53 1185 L 1384.03 1185.02 C 1383.6 1148.93 1384.6 1112.76 1384.75 1076.65 L 1384.56 838.233 A 2301.76 2301.76 0 0 1 1281.16 859.17 L 1280.9 1185.04 L 1228.39 1184.98 L 1228.23 912.926 A 1317.57 1317.57 0 0 1 1126.92 928.851 L 1126.86 1065.06 L 1126.87 1185.37 L 1074.94 1185.33 A 15000.9 15000.9 0 0 1 1074.89 992.264 C 1040.46 995.403 1005.19 1000.29 971.038 1005.74 L 971.023 1185.03 L 920.913 1184.93 L 920.667 1038.77 A 3852.25 3852.25 0 0 0 817.069 1050.8 L 817.056 1185.03 L 765.626 1185.03 L 765.992 1099.41 C 731.739 1098.87 697.434 1099.14 663.175 1099.02 C 662.788 1127.55 663.839 1156.17 663.782 1184.72 L 528.426 1185.01 C 516.504 1142.66 507.933 1101.61 505.442 1057.56 A 530.116 530.116 0 0 1 642.05 674.958 A 507.256 507.256 0 0 1 996.204 504.422 z"/>
<path transform="translate(0,0)" fill="rgb(166,42,41)" d="M 663.776 1052.97 A 8662.18 8662.18 0 0 0 765.714 1052.97 C 765.516 1063.67 765.72 1074.4 765.763 1085.1 C 731.716 1084.78 697.555 1083.93 663.515 1084.72 L 663.776 1052.97 z"/>
<path transform="translate(0,0)" fill="rgb(166,42,41)" d="M 817.273 985.052 A 3172.61 3172.61 0 0 1 920.188 985.925 L 920.288 1024.49 L 908.238 1025.76 C 878.016 1028 847.177 1032.22 817.147 1036.34 L 817.273 985.052 z"/>
<path transform="translate(0,0)" fill="rgb(166,42,41)" d="M 990.074 936.494 L 1074.29 936.177 A 4065.41 4065.41 0 0 0 1074.09 976.957 A 2161.91 2161.91 0 0 1 1045.03 981.22 C 1020.9 983.085 995.709 987.721 971.725 991.318 L 971.771 936.769 L 990.074 936.494 z"/>
<path transform="translate(0,0)" fill="rgb(166,42,41)" d="M 1127.09 848.286 L 1227.83 848.209 C 1227.67 864.632 1227.83 881.068 1227.86 897.492 C 1222.77 898.86 1217.47 899.704 1212.3 900.731 A 1717.56 1717.56 0 0 1 1127.04 914.192 A 5964.35 5964.35 0 0 1 1127.09 848.286 z"/>
<path transform="translate(0,0)" fill="rgb(166,42,41)" d="M 1381.59 762.481 L 1382.92 762.444 C 1385.36 765.861 1384.43 812.546 1384.57 821.563 C 1351.76 830.611 1317.54 836.554 1284.18 843.24 L 1282.26 843.518 C 1281.88 843.043 1281.38 842.645 1281.13 842.093 C 1280.27 840.234 1281.15 778.755 1281.14 771.552 C 1314.97 770.919 1348.02 766.139 1381.59 762.481 z"/>
<path transform="translate(0,0)" fill="rgb(70,70,73)" d="M 939.813 541.969 A 5193.81 5193.81 0 0 0 1094.96 542.198 C 1094.71 550.111 1094.76 558.048 1094.68 565.964 L 1152.32 565.971 C 1150.86 600.838 1140.18 635.906 1117.33 662.787 C 1104.61 677.744 1085.31 693.434 1064.98 695.166 C 1056.43 713.195 1038.45 727.75 1023.97 741.004 A 1336.59 1336.59 0 0 0 1024.36 780.375 C 1040.43 800.413 1059.01 818.655 1075.74 838.181 C 1083.36 838.787 1091.11 838.763 1098.76 838.994 L 1099.04 878.878 L 1087.5 878.995 L 931.214 879.284 L 931.239 839.103 L 955.233 839.093 C 965.739 828.899 974.917 817.511 984.55 806.518 C 992.388 797.574 1001.01 788.784 1007.96 779.159 L 1008.02 741.956 C 991.894 726.702 977.584 711.587 964.425 693.656 C 953.686 691.88 944.776 688.903 935.8 682.629 C 899.009 656.916 882.903 607.779 875.646 565.671 A 5045.53 5045.53 0 0 0 939.604 565.928 L 939.813 541.969 z"/>
<path transform="translate(0,0)" fill="rgb(254,254,254)" d="M 943.111 850.126 C 991.692 848.585 1040.79 849.724 1089.42 849.976 L 1089.35 865.052 C 1040.58 866.137 991.612 865.333 942.824 865.339 C 942.755 860.271 942.976 855.193 943.111 850.126 z"/>
<path transform="translate(0,0)" fill="rgb(254,254,254)" d="M 1094.48 583.518 C 1107.63 583.27 1120.82 583.498 1133.97 583.505 C 1128.54 611.465 1119.41 635.429 1099.4 656.17 C 1091.81 663.16 1083.87 669.544 1075.76 675.917 C 1089.34 645.576 1093.9 616.551 1094.48 583.518 z"/>
<path transform="translate(0,0)" fill="rgb(254,254,254)" d="M 897.422 581.895 L 940.019 581.679 C 940.684 614.409 946.976 644.854 956.311 676.039 C 953.982 675.149 951.922 673.953 949.854 672.556 C 920.632 652.817 904.205 615.232 897.422 581.895 z"/>
<path transform="translate(0,0)" fill="rgb(254,254,254)" d="M 1054.69 548.922 C 1063 548.733 1071.34 548.824 1079.65 548.784 C 1080.38 607.65 1081.05 660.781 1040.83 708.545 C 1035.84 713.498 1030.78 717.739 1025.1 721.881 C 1030.47 714.663 1035.6 707.867 1039.67 699.781 C 1062.31 654.831 1060.15 597.701 1054.69 548.922 z"/>
</svg>