<svg version="1.1" xmlns="http://www.w3.org/2000/svg" style="display: block;" viewBox="0 0 2048 2048" width="1024" height="1024">
<defs>
	<linearGradient id="Gradient1" gradientUnits="userSpaceOnUse" x1="1275.17" y1="708.313" x2="1421.64" y2="713.266">
		<stop class="stop0" offset="0" stop-opacity="1" stop-color="rgb(62,41,40)"/>
		<stop class="stop1" offset="1" stop-opacity="1" stop-color="rgb(49,45,45)"/>
	</linearGradient>
	<linearGradient id="Gradient2" gradientUnits="userSpaceOnUse" x1="600.621" y1="738.429" x2="591.305" y2="727.484">
		<stop class="stop0" offset="0" stop-opacity="1" stop-color="rgb(73,50,52)"/>
		<stop class="stop1" offset="1" stop-opacity="1" stop-color="rgb(62,61,63)"/>
	</linearGradient>
</defs>
<path transform="translate(0,0)" fill="rgb(254,254,254)" d="M 0 0 L 2048 0 L 2048 2048 L 0 2048 L 0 0 z"/>
<path transform="translate(0,0)" fill="rgb(82,81,83)" d="M 1472.26 724.318 C 1476.35 725.782 1479.17 726.73 1482.14 729.982 C 1478.19 730.62 1474.38 731.184 1470.38 731.337 L 1463.94 732.625 C 1461.97 730.91 1461.85 730.682 1461.14 728.163 L 1463.06 727.237 L 1463.13 725.803 C 1466 723.872 1468.85 724.42 1472.26 724.318 z"/>
<path transform="translate(0,0)" fill="rgb(165,38,42)" d="M 739.513 537.332 C 745.309 541.456 750.741 545.635 755.98 550.451 L 753.832 556.874 L 752.103 556.521 C 749.718 554.343 747.85 552.893 744.861 551.639 C 742.707 547.069 741.204 542.094 739.513 537.332 z"/>
<path transform="translate(0,0)" fill="rgb(183,51,54)" d="M 1129.46 475.867 L 1132.65 475.777 L 1133.88 477.044 C 1133.77 479.184 1133.48 481.377 1133.84 483.493 L 1135.41 483.922 C 1137.52 484.481 1139.59 484.717 1141.75 484.96 L 1143.48 486.429 C 1143.35 487.702 1143.34 489.091 1142.98 490.318 L 1139.76 487.783 C 1131.67 487.44 1124.47 493.162 1117.82 497.218 C 1121.84 490.19 1126.03 483.209 1129.46 475.867 z"/>
<path transform="translate(0,0)" fill="rgb(165,38,42)" d="M 769.012 556.504 L 792.489 537.641 C 790.244 543.84 788.218 551.26 784.571 556.791 L 781.409 560.555 L 780.594 557.911 L 778.681 557.658 L 776.032 558.553 C 773.369 558.326 771.464 557.477 769.012 556.504 z"/>
<path transform="translate(0,0)" fill="rgb(165,38,42)" d="M 934.229 718.123 C 939.665 720.476 944.721 723.207 949.871 726.115 L 928.458 727.028 C 925.023 733.866 922.728 740.627 920.48 747.92 C 919.224 742.882 917.81 737.863 917.182 732.702 C 919.491 731.557 918.615 732.429 919.758 730.034 C 921.203 727.863 922.833 724.786 924.986 723.292 C 927.194 721.76 929.53 722.596 932.016 722.883 L 932.695 721.593 L 934.229 718.123 z"/>
<path transform="translate(0,0)" fill="rgb(183,51,54)" d="M 1149.99 442.792 C 1149.92 448.685 1147.75 465.534 1150.93 469.907 C 1148.97 470.373 1147.22 470.226 1145.22 470.163 C 1145.12 468.585 1144.91 467.29 1144.58 465.756 C 1142.18 466.156 1139.83 470.457 1138 472.308 C 1135.88 471.183 1133.85 470.147 1131.59 469.337 L 1129.73 468.685 L 1132.95 464.254 L 1135.93 464.833 C 1141.53 460.646 1145.59 448.786 1149.99 442.792 z"/>
<path transform="translate(0,0)" fill="rgb(183,51,54)" d="M 1275.88 553.313 C 1278.8 555.106 1279.78 556.192 1283.26 556.083 C 1291.92 551.445 1298.17 543.527 1306.26 537.901 C 1303.65 546.439 1296.91 559.259 1298.07 568.049 C 1299.29 569.092 1300.39 569.941 1301.74 570.831 L 1296.28 573.505 L 1288.84 569.931 C 1290.76 565.033 1292.37 560.006 1294.06 555.024 C 1290.34 558.322 1285.62 564.271 1280.84 565.089 C 1278.15 559.793 1275.54 559.888 1275.88 553.313 z"/>
<path transform="translate(0,0)" fill="rgb(183,51,54)" d="M 899.274 443.364 C 904.313 449.624 909.813 456.374 912.819 463.872 L 910.143 465.241 C 909.964 467.82 911.897 469.024 913.534 470.928 C 910.135 469.948 909.401 468.586 907.728 465.542 A 229.185 229.185 0 0 1 905.467 461.241 C 904.813 462.712 904.97 463.319 904.996 464.91 C 905.032 467.192 904.848 468.53 903.794 470.611 C 900.313 472.779 897.884 471.865 893.925 472.398 L 893.934 472.371 L 893.743 473.692 C 897.248 474.17 900.642 474.317 903.68 476.29 C 905.381 480.152 903.639 483.266 902.186 487.02 C 900.797 487.636 899.331 488.528 897.814 488.672 C 898.089 485.826 898.477 483.426 897.469 480.667 C 892.38 474.686 882.161 474.832 874.806 472.655 C 883.18 471.054 891.492 469.426 899.749 467.277 C 899.277 459.271 899.095 451.382 899.274 443.364 z"/>
<path transform="translate(0,0)" fill="rgb(183,51,54)" d="M 904.038 694.445 C 909.425 698.614 914.214 703.609 919.091 708.36 A 977.739 977.739 0 0 1 936.409 694.629 C 934.913 699.955 932.262 705.588 931.695 711.08 C 931.34 714.516 932.168 715.457 934.229 718.123 L 932.695 721.593 L 932.016 722.883 C 929.53 722.596 927.194 721.76 924.986 723.292 C 922.833 724.786 921.203 727.863 919.758 730.034 C 918.615 732.429 919.491 731.557 917.182 732.702 C 916.776 731.019 916.615 729.625 915.395 728.31 C 912.951 725.677 897.5 726.689 892.945 726.36 C 899.245 722.474 905.27 718.875 910.908 714.036 C 908.412 707.587 906.271 700.989 904.038 694.445 z"/>
<path transform="translate(0,0)" fill="rgb(254,254,254)" d="M 919.758 730.034 C 919.389 728.014 919.448 726.127 919.458 724.083 C 916.953 721.735 913.075 723.92 909.688 722.409 A 349.463 349.463 0 0 0 915.569 718.037 C 915.52 717.458 915.444 716.881 915.423 716.3 C 915.351 714.381 915.289 713.188 914.675 711.351 C 914.628 711.211 914.046 709.572 914.013 709.339 C 913.967 709.008 914.024 708.67 914.03 708.336 L 913.392 707.314 C 916.234 710.148 918.826 713.133 921.416 716.196 C 923.24 713.463 925.134 710.932 927.27 708.434 L 927.643 709.996 C 926.498 712.719 925.102 715.145 925.636 718.172 C 927.861 719.672 930.225 720.588 932.695 721.593 L 932.016 722.883 C 929.53 722.596 927.194 721.76 924.986 723.292 C 922.833 724.786 921.203 727.863 919.758 730.034 z"/>
<path transform="translate(0,0)" fill="rgb(183,51,54)" d="M 1112.3 457.279 L 1132.95 464.254 L 1129.73 468.685 L 1131.59 469.337 C 1133.85 470.147 1135.88 471.183 1138 472.308 C 1139.83 470.457 1142.18 466.156 1144.58 465.756 C 1144.91 467.29 1145.12 468.585 1145.22 470.163 C 1147.22 470.226 1148.97 470.373 1150.93 469.907 C 1159 470.375 1167.35 472.801 1175.18 474.733 C 1167.38 476.55 1159.46 478.173 1151.84 480.684 C 1151.78 490.445 1153.51 499.999 1154.38 509.69 C 1151.17 504.348 1144.26 496.085 1142.98 490.318 C 1143.34 489.091 1143.35 487.702 1143.48 486.429 L 1141.75 484.96 C 1139.59 484.717 1137.52 484.481 1135.41 483.922 L 1133.84 483.493 C 1133.48 481.377 1133.77 479.184 1133.88 477.044 L 1132.65 475.777 L 1129.46 475.867 C 1123.37 469.926 1117.76 463.802 1112.3 457.279 z"/>
<path transform="translate(0,0)" fill="rgb(254,254,254)" d="M 1129.73 468.685 L 1131.59 469.337 C 1133.85 470.147 1135.88 471.183 1138 472.308 C 1139.83 470.457 1142.18 466.156 1144.58 465.756 C 1144.91 467.29 1145.12 468.585 1145.22 470.163 L 1145.73 473.085 A 442.01 442.01 0 0 1 1153.04 474.616 L 1152.89 475.052 L 1151.77 474.213 L 1153.13 474.926 L 1147.16 476.007 C 1145.68 479.084 1145.58 479.796 1142.55 481.609 C 1139.72 481.249 1139.37 480.203 1137.7 477.927 C 1137.55 477.724 1137.41 477.508 1137.27 477.299 C 1134.98 474.179 1131.66 471.552 1128.83 468.895 L 1129.73 468.685 z"/>
<path transform="translate(0,0)" fill="rgb(183,51,54)" d="M 936.778 457.401 C 931.059 463.389 925.453 469.513 919.044 474.778 C 924.154 482.218 928.576 489.984 933.035 497.821 C 927.371 494.348 918.116 487.011 911.159 488.246 C 904.264 489.471 897.409 501.789 893.213 507.059 C 894.664 501.154 895.662 494.303 897.814 488.672 C 899.331 488.528 900.797 487.636 902.186 487.02 C 903.639 483.266 905.381 480.152 903.68 476.29 C 900.642 474.317 897.248 474.17 893.743 473.692 L 893.934 472.371 L 893.925 472.398 C 897.884 471.865 900.313 472.779 903.794 470.611 C 904.848 468.53 905.032 467.192 904.996 464.91 C 904.97 463.319 904.813 462.712 905.467 461.241 A 229.185 229.185 0 0 0 907.728 465.542 C 909.401 468.586 910.135 469.948 913.534 470.928 C 911.897 469.024 909.964 467.82 910.143 465.241 L 912.819 463.872 C 920.012 464.224 929.766 459.528 936.778 457.401 z"/>
<path transform="translate(0,0)" fill="rgb(254,254,254)" d="M 902.186 487.02 C 903.639 483.266 905.381 480.152 903.68 476.29 C 900.642 474.317 897.248 474.17 893.743 473.692 L 893.934 472.371 L 893.925 472.398 C 897.884 471.865 900.313 472.779 903.794 470.611 C 904.848 468.53 905.032 467.192 904.996 464.91 C 904.97 463.319 904.813 462.712 905.467 461.241 A 229.185 229.185 0 0 0 907.728 465.542 C 909.401 468.586 910.135 469.948 913.534 470.928 C 915.011 469.183 916.447 467.16 918.194 465.693 L 919.749 466.796 L 919.764 465.827 C 919.733 465.871 919.706 465.919 919.67 465.961 C 917.254 468.803 914.846 471.259 913.307 474.695 C 916.74 479.897 920.32 485.059 923.542 490.392 L 910.722 478.492 C 908.869 480.404 904.343 486.685 902.186 487.02 z"/>
<path transform="translate(0,0)" fill="rgb(165,38,42)" d="M 1134.04 704.064 C 1138.03 698.357 1142.44 695.004 1148.36 691.401 C 1146.68 697.19 1145.3 703.75 1142.65 709.15 C 1146.48 715.595 1155.39 718.689 1161.84 721.816 C 1154.78 721.941 1147.72 722.387 1140.67 722.778 C 1138.23 729.711 1136.73 737.137 1134.94 744.274 C 1132.14 737.756 1129.96 730.911 1127.6 724.216 C 1119.81 724.311 1111.99 724.835 1104.21 725.181 C 1110.48 720.773 1116.58 716.429 1122.24 711.255 C 1120.42 704.688 1117.93 698.236 1115.68 691.802 C 1121.1 696.807 1126.37 703.147 1134.04 704.064 z"/>
<path transform="translate(0,0)" fill="rgb(254,254,254)" d="M 1137.17 705.886 L 1140.15 704.15 C 1140.78 706.157 1140.39 706.394 1139.8 708.331 C 1138.8 709.47 1138.22 710.442 1137.49 711.757 C 1138.62 714.87 1139.56 715.134 1142.19 717.012 L 1142.33 718.147 C 1139.96 718.579 1137.68 719.587 1135.31 719.899 C 1131.47 720.405 1125.52 719.918 1122.53 717.427 C 1124.17 714.385 1127.23 715.462 1129.68 713.003 C 1127.45 710.895 1124.94 708.094 1124.77 704.93 L 1125.89 704.511 C 1127.21 706.702 1127.97 708.133 1130.19 709.542 C 1133.02 709.5 1134.26 708.277 1136.34 706.575 C 1136.62 706.348 1136.89 706.115 1137.17 705.886 z"/>
<path transform="translate(0,0)" fill="rgb(183,51,54)" d="M 1505.87 843.149 C 1509.7 843.117 1512.87 843.552 1516.37 845.212 A 20.6387 20.6387 0 0 1 1527.41 857.971 A 22.3961 22.3961 0 0 1 1525.64 875.47 C 1522.17 881.811 1516.84 885 1510.1 887.056 C 1505.75 886.799 1501.64 886.36 1497.73 884.281 C 1492.33 881.408 1488.21 876.565 1486.56 870.644 C 1484.94 864.835 1485.73 858.733 1488.95 853.626 C 1493.03 847.175 1498.75 844.907 1505.87 843.149 z"/>
<path transform="translate(0,0)" fill="rgb(254,254,254)" d="M 1501.79 855.165 C 1502.87 855.014 1503.95 854.865 1505.03 854.787 C 1508.5 854.538 1511.84 855.108 1514.36 857.725 C 1516.46 859.902 1517.22 861.845 1517.22 864.867 C 1517.21 869.157 1514.59 871.942 1511.82 874.821 C 1507.56 875.187 1503.34 875.448 1500 872.212 C 1497.84 870.125 1496.87 868.15 1496.7 865.141 C 1496.47 860.993 1499.01 857.862 1501.79 855.165 z"/>
<path transform="translate(0,0)" fill="rgb(183,51,54)" d="M 532.22 847.108 C 536.087 846.93 539.697 846.834 543.447 847.956 C 549.41 849.74 554.712 853.536 557.63 859.12 C 560.393 864.408 560.609 870.65 558.553 876.22 C 555.761 883.786 550.156 888.081 543.038 891.313 C 539.127 891.569 535.193 891.9 531.362 890.874 C 525.685 889.353 520.438 885.526 517.655 880.3 A 21.8869 21.8869 0 0 1 516.313 862.672 C 519.144 854.644 524.784 850.584 532.22 847.108 z"/>
<path transform="translate(0,0)" fill="rgb(254,254,254)" d="M 534.098 856.042 C 535.436 856.014 536.749 856.034 538.08 856.207 C 542.299 856.756 546.178 858.617 548.603 862.238 C 550.433 864.971 550.79 868.419 549.978 871.568 C 548.66 876.686 545.158 879.287 540.871 881.938 C 538.563 882.012 536.461 882.066 534.213 881.458 C 530.467 880.444 527.317 878.052 525.465 874.611 C 523.904 871.71 523.745 868.216 524.786 865.117 C 526.438 860.201 529.765 858.335 534.098 856.042 z"/>
<path transform="translate(0,0)" fill="rgb(165,38,42)" d="M 1255.57 539.623 A 1271.96 1271.96 0 0 1 1275.88 553.313 C 1275.54 559.888 1278.15 559.793 1280.84 565.089 C 1285.62 564.271 1290.34 558.322 1294.06 555.024 C 1292.37 560.006 1290.76 565.033 1288.84 569.931 L 1296.28 573.505 L 1301.74 570.831 C 1305.89 573.019 1310.22 575.595 1314.64 577.141 C 1327.72 581.708 1347.55 576.466 1361.33 575.89 C 1338.58 582.68 1316.02 583.17 1292.72 585.775 C 1290.78 592.003 1288.7 598.2 1287.45 604.612 L 1284.05 618.868 C 1280.49 609.454 1277.98 599.583 1275.2 589.914 L 1274.2 587.978 C 1267.66 584.743 1247.11 587.175 1239.17 587.45 C 1248.51 581.14 1258.31 575.349 1267.86 569.352 C 1264.18 559.307 1259.26 549.718 1255.57 539.623 z"/>
<path transform="translate(0,0)" fill="rgb(254,254,254)" d="M 1280.84 565.089 C 1285.62 564.271 1290.34 558.322 1294.06 555.024 C 1292.37 560.006 1290.76 565.033 1288.84 569.931 L 1296.28 573.505 L 1301.24 576.957 L 1301.44 578.251 C 1296.73 579.485 1290.37 577.921 1286.32 579.864 C 1285.91 584.63 1285.92 588.867 1283.31 593.025 C 1283.22 593.163 1283.14 593.305 1283.06 593.445 L 1280.99 587.859 C 1281 587.434 1281.02 587.008 1281.02 586.582 C 1281.02 585.023 1281.04 582.397 1279.71 581.339 C 1275.5 577.975 1265.43 580.772 1260.46 581.489 C 1265.99 578.424 1271.01 575.282 1276 571.392 C 1273.3 566.705 1271.04 561.859 1268.75 556.964 C 1272.69 559.879 1276.54 562.693 1280.84 565.089 z"/>
<path transform="translate(0,0)" fill="rgb(183,51,54)" d="M 755.98 550.451 C 758.984 553.223 762.139 556.845 766.003 558.307 C 767.255 557.758 767.964 557.417 769.012 556.504 C 771.464 557.477 773.369 558.326 776.032 558.553 L 778.681 557.658 L 780.594 557.911 L 781.409 560.555 L 784.571 556.791 C 783.212 561.015 781.478 565.165 779.909 569.318 C 789.046 576.623 799.608 581.991 809.11 588.835 L 774.585 588.955 C 772.071 600.848 767.511 612.652 763.431 624.091 C 760.647 612.008 757.858 600.074 756.873 587.687 C 744.637 587.392 732.424 587.771 720.192 588.085 C 730.755 582.153 741.156 575.895 751.608 569.768 C 749.422 563.703 747.119 557.678 744.861 551.639 C 747.85 552.893 749.718 554.343 752.103 556.521 L 753.832 556.874 L 755.98 550.451 z"/>
<path transform="translate(0,0)" fill="rgb(254,254,254)" d="M 755.98 550.451 C 758.984 553.223 762.139 556.845 766.003 558.307 C 767.255 557.758 767.964 557.417 769.012 556.504 C 771.464 557.477 773.369 558.326 776.032 558.553 L 778.681 557.658 C 775.913 562.377 773.666 566.654 772.306 572.01 A 584.941 584.941 0 0 1 787.783 583.197 C 781.75 582.875 775.983 582.199 770.031 581.164 C 767.991 586.754 766.425 592.586 764.705 598.286 L 761.779 581.938 L 743.451 581.773 C 747.803 578.71 756.375 576.151 758.316 571.174 C 759.833 567.282 756.088 561.11 754.482 557.572 L 753.832 556.874 L 755.98 550.451 z"/>
<path transform="translate(0,0)" fill="rgb(183,51,54)" d="M 755.98 550.451 C 758.984 553.223 762.139 556.845 766.003 558.307 C 767.255 557.758 767.964 557.417 769.012 556.504 C 771.464 557.477 773.369 558.326 776.032 558.553 C 772.759 561.89 768.85 564.744 765.23 567.708 C 761.932 564.72 758.645 558.993 754.482 557.572 L 753.832 556.874 L 755.98 550.451 z"/>
<path transform="translate(0,0)" fill="rgb(183,51,54)" d="M 982.475 1073.17 C 986.734 1073.06 991.012 1073.47 995.034 1074.98 A 24.8316 24.8316 0 0 1 1009.24 1088.69 A 24.7697 24.7697 0 0 1 1008.83 1108.57 C 1005.2 1116.31 998.977 1120.29 991.221 1123.17 C 985.926 1123.4 981.087 1123.41 976.167 1121.2 A 24.2376 24.2376 0 0 1 962.969 1106.73 C 960.768 1100.2 961.166 1092.75 964.345 1086.61 C 968.275 1079.01 974.555 1075.5 982.475 1073.17 z"/>
<path transform="translate(0,0)" fill="rgb(183,51,54)" d="M 857.82 1146.31 C 862.416 1146.52 865.848 1147.14 869.834 1149.54 C 875.957 1153.22 880.102 1158.73 881.67 1165.74 A 25.8228 25.8228 0 0 1 878.212 1185.19 C 873.522 1192.59 867.304 1195.48 859.037 1197.42 C 853.268 1197.06 847.92 1195.6 843.077 1192.34 C 837.395 1188.51 833.419 1182.66 832.327 1175.86 A 24.2368 24.2368 0 0 1 837.192 1157.17 C 842.508 1150.31 849.479 1147.52 857.82 1146.31 z"/>
<path transform="translate(0,0)" fill="rgb(183,51,54)" d="M 787.108 1182.16 C 792.562 1181.58 797.698 1181.75 802.809 1183.94 A 25.4936 25.4936 0 0 1 816.557 1198.04 A 26.3708 26.3708 0 0 1 816.184 1218.22 C 812.906 1225.61 806.895 1230.14 799.572 1233.12 C 795.536 1233.75 791.29 1233.86 787.315 1232.82 A 24.6798 24.6798 0 0 1 771.795 1220.58 A 27.931 27.931 0 0 1 769.965 1198.53 C 772.944 1189.92 779.142 1185.74 787.108 1182.16 z"/>
<path transform="translate(0,0)" fill="rgb(183,51,54)" d="M 921.618 1110.23 C 926.604 1110 931.554 1110.79 935.981 1113.17 A 25.2584 25.2584 0 0 1 948.254 1128.73 A 26.6759 26.6759 0 0 1 945.277 1150.17 C 940.795 1157.25 934.572 1160.21 926.659 1162 C 921.472 1162.04 916.342 1161.02 911.782 1158.48 A 25.7242 25.7242 0 0 1 899.471 1142.94 A 25.5428 25.5428 0 0 1 901.844 1123.06 C 906.285 1115.51 913.364 1112.11 921.618 1110.23 z"/>
<path transform="translate(0,0)" fill="rgb(183,51,54)" d="M 1054.58 538.479 C 1050.32 551.506 1044.46 564.93 1041.52 578.252 A 221.964 221.964 0 0 1 1077.37 597.752 L 1038.82 598.187 C 1032.71 611.282 1029.08 625.058 1025.3 638.95 C 1021.76 625.24 1016.95 611.983 1013.23 598.355 C 999.935 598.863 986.84 598.372 973.567 597.531 C 982 592.83 1001.58 583.163 1006.75 575.5 L 1006.94 572.86 C 1004.91 568.234 1003.34 563.356 1001.61 558.608 C 999.352 551.892 997.091 545.259 994.278 538.752 C 1005.47 546.211 1014.46 556.216 1024.98 564.497 C 1034.57 555.752 1044.06 546.089 1054.58 538.479 z"/>
<path transform="translate(0,0)" fill="rgb(183,51,54)" d="M 1001.61 558.608 L 1010.12 561.973 C 1011.84 566.613 1013.53 571.187 1014.78 575.985 A 257.791 257.791 0 0 1 1008.7 571.733 L 1006.94 572.86 C 1004.91 568.234 1003.34 563.356 1001.61 558.608 z"/>
<path transform="translate(0,0)" fill="rgb(254,254,254)" d="M 1010.12 561.973 L 1012.14 561.894 A 498.62 498.62 0 0 1 1025.13 574.297 C 1029.99 569.166 1034.69 564.491 1040.55 560.48 C 1038.34 567.323 1035.92 574.173 1034.29 581.177 C 1040.81 584.813 1047.64 587.977 1054.06 591.765 C 1046.67 591.41 1039.5 591.978 1032.13 592.075 C 1029.76 599.262 1027.54 606.552 1024.98 613.669 C 1023.06 605.861 1021.3 598.374 1017.97 591.012 C 1011.3 591.073 1004.54 590.868 997.925 591.777 C 1001.67 589.108 1015.14 581.878 1015.29 578.05 C 1015.3 577.626 1014.91 576.428 1014.78 575.985 C 1013.53 571.187 1011.84 566.613 1010.12 561.973 z"/>
<path transform="translate(0,0)" fill="url(#Gradient1)" d="M 1429.65 605.038 A 2983.71 2983.71 0 0 0 1419.8 645.011 C 1416.94 655.765 1414.27 666.593 1410.53 677.081 L 1408.82 677.772 L 1408.3 679.498 L 1407.1 680.319 C 1407.04 678.674 1407.29 677.811 1406.36 676.411 C 1411.15 659.149 1415.41 642.023 1419.02 624.475 C 1402.53 642.993 1386.14 661.782 1368.97 679.666 C 1351.74 667.897 1333.28 655.512 1314.73 645.978 A 1247.52 1247.52 0 0 1 1339.61 700.893 L 1290.64 738.281 A 2455.87 2455.87 0 0 0 1353.2 735.314 C 1359.95 755.746 1365.97 776.668 1373.89 796.667 C 1377.72 781.547 1384.27 745.733 1390.43 733.733 C 1393.92 736.104 1393.55 736.371 1394.45 740.277 C 1393.35 744.164 1392.22 748.01 1391.47 751.984 C 1384.94 773.962 1380.86 796.642 1374.16 818.577 C 1365 793.61 1356.95 767.689 1349.13 742.259 C 1321.63 742.916 1294.03 744.944 1266.56 746.33 C 1288.92 731.567 1310.14 715.239 1331.68 699.327 C 1322.28 674.803 1310.16 651.411 1300.5 626.99 C 1321.86 643.236 1345.41 657.083 1368.03 671.514 C 1377.52 662.507 1385.94 652.202 1394.76 642.528 C 1406.26 629.919 1418.09 617.596 1429.65 605.038 z"/>
<path transform="translate(0,0)" fill="rgb(82,81,83)" d="M 617.799 613.633 L 660.082 650.175 C 667.526 656.575 675.017 663.777 683.057 669.4 C 704.875 655.056 726.719 639.585 749.4 626.706 C 739.736 650.625 727.826 674.12 719.015 698.298 C 739.822 713.933 761.709 729.572 781.031 747.007 C 754.989 745.395 728.807 743.539 702.718 743.075 C 694.433 766.757 687.571 791.478 677.62 814.495 C 671.267 791.763 663.329 769.496 656.984 746.802 C 656.887 743.557 656.382 740.264 656.024 737.034 C 643.47 735.1 630.206 735.412 617.519 735.08 L 617.703 731.934 A 1928.41 1928.41 0 0 1 660.119 733.559 C 666.894 753.053 671.525 773.171 678.722 792.596 C 685.893 774 691.822 754.907 698.035 735.974 C 718.461 736.84 738.847 737.934 759.291 738.356 C 743.925 725.113 727.151 713.652 711.693 700.532 C 717.778 680.761 727.646 661.988 735.665 642.943 C 718.035 654.545 700.474 666.965 681.961 677.121 C 664.159 663.311 647.15 647.809 630.218 632.943 C 636.809 653.879 645.404 675.439 649.674 696.883 L 633.077 706.135 L 632.083 705.276 C 636.659 702.19 640.548 699.318 644.329 695.248 A 392.35 392.35 0 0 0 629.652 649.706 A 3365.26 3365.26 0 0 1 617.799 613.633 z"/>
<path transform="translate(0,0)" fill="rgb(183,51,54)" d="M 1463.94 732.625 L 1470.38 731.337 C 1471.55 733.75 1476.37 734.793 1478.89 735.66 A 442.7 442.7 0 0 0 1483.78 737.288 A 459.2 459.2 0 0 1 1450.64 750.775 C 1461.24 775.754 1472.92 800.886 1481.52 826.605 C 1465.05 811.553 1447.62 796.698 1429.61 783.515 C 1426.27 796.445 1423.13 809.462 1419.06 822.188 A 316.034 316.034 0 0 0 1391.47 751.984 C 1392.22 748.01 1393.35 744.164 1394.45 740.277 C 1402.37 738.346 1411.51 738.227 1419.64 737.432 A 2341.1 2341.1 0 0 0 1463.94 732.625 z"/>
<path transform="translate(0,0)" fill="rgb(183,51,54)" d="M 1419.8 645.011 C 1438.79 632.881 1458.4 622.016 1477.72 610.456 C 1491.34 602.308 1504.57 593.358 1518.34 585.502 C 1495.69 618.407 1473.5 652.808 1452.9 687.046 C 1475.68 692.115 1497.89 701.754 1520.18 708.792 C 1531.37 712.325 1544.79 714.301 1555.29 719.275 C 1530.95 721.898 1506.47 728.551 1482.14 729.982 C 1479.17 726.73 1476.35 725.782 1472.26 724.318 C 1456.29 715.513 1436.72 707.398 1419.69 700.648 C 1415.27 698.503 1410.7 696.763 1406.13 694.97 C 1407.5 688.989 1409.07 683.041 1410.53 677.081 C 1414.27 666.593 1416.94 655.765 1419.8 645.011 z"/>
<path transform="translate(0,0)" fill="rgb(183,51,54)" d="M 1490.68 947.059 C 1496.15 950.217 1527.95 994.008 1533.83 1002.71 C 1545.4 999.933 1556.81 996.514 1568.38 993.741 C 1580.2 990.91 1592.13 988.626 1603.75 985.072 C 1587.87 1003.66 1569.13 1019.24 1551.86 1036.48 A 2316.29 2316.29 0 0 0 1567.35 1076.83 C 1571.24 1086.41 1575.89 1096.01 1578.76 1105.95 C 1577.07 1108.5 1574.34 1109.08 1571.61 1110.08 C 1567.37 1108.17 1525.04 1060.55 1516.65 1052.69 C 1492.91 1056.43 1469.06 1059.64 1445.26 1063.02 C 1463.23 1046.59 1482.24 1031.58 1501.51 1016.73 C 1494.42 995.023 1488.78 972.687 1481.85 950.875 L 1490.68 947.059 z"/>
<path transform="translate(0,0)" fill="rgb(254,254,254)" d="M 1502.75 979.67 C 1510.1 984.091 1523.9 1006.4 1530.21 1014.6 C 1543.63 1009.47 1558.35 1006.8 1572.2 1002.9 L 1539.98 1032.45 L 1556.77 1076.84 L 1556.67 1077.06 C 1553.97 1076.77 1525.51 1047.12 1520.81 1042.54 C 1506.61 1043.68 1492.46 1046.42 1478.41 1048.72 C 1490.07 1038.98 1501.41 1028.78 1512.83 1018.76 C 1510.36 1005.68 1506.13 992.576 1502.75 979.67 z"/>
<path transform="translate(0,0)" fill="rgb(183,51,54)" d="M 554.554 947.915 C 556.883 947.922 558.685 947.877 560.85 948.918 C 563.572 950.227 564.13 952.999 564.003 955.762 C 563.332 970.316 545.512 1002.15 547.191 1017.55 C 548.408 1028.7 590.565 1047.92 595.832 1060.94 C 595.245 1063.29 594.256 1064.41 592.671 1066.21 C 584.405 1068.27 539.882 1056.98 527.829 1055.08 C 510.783 1068.73 494.688 1087.07 480.214 1103.45 L 477.845 1104.41 C 475.09 1104.19 473.725 1103.63 471.376 1102.19 C 470.095 1099.76 469.911 1098.87 470.527 1096.17 C 474.602 1078.32 489.06 1055.29 494.545 1035.63 L 494.947 1034.16 C 483.096 1019.78 465.28 1011.31 453.377 997.206 C 450.99 994.378 449.62 991.998 449.965 988.269 L 451.554 987.016 C 453.944 986.573 455.911 986.398 458.328 986.795 C 465.999 988.056 473.282 991.254 480.737 993.35 C 490.69 996.148 501.038 998.179 511.127 1000.47 C 511.353 1000.29 511.578 1000.1 511.805 999.922 C 528.605 986.527 540.244 964.138 554.554 947.915 z"/>
<path transform="translate(0,0)" fill="rgb(254,254,254)" d="M 544.468 977.832 C 545.202 986.356 538.216 1006.67 537.483 1017.83 C 544.727 1034.4 559.886 1042.85 573.74 1053.49 C 560.928 1050.89 545.573 1046.27 532.584 1046.48 C 515.299 1046.76 500.766 1067.14 489.703 1078.59 L 488.173 1079.65 C 488.691 1067.45 504.758 1050.99 502.124 1033.17 C 500.068 1019.26 481.348 1008.92 470.966 1001.16 C 483.054 1004.33 498.093 1009.65 510.558 1008.42 C 525.374 1006.96 535.667 988.271 544.468 977.832 z"/>
<path transform="translate(0,0)" fill="rgb(82,81,83)" d="M 1563.01 1668.92 L 1733.09 1668.63 A 4228.82 4228.82 0 0 1 1672.64 1702.42 C 1636.35 1722.93 1600.09 1743.96 1563.16 1763.3 L 1563.01 1668.92 z"/>
<path transform="translate(0,0)" fill="rgb(82,81,83)" d="M 311.402 1669.22 C 334.167 1668.62 357.109 1669.21 379.893 1669.26 A 6206.84 6206.84 0 0 1 483.543 1669.85 C 484.929 1701.62 483.885 1733.78 483.845 1765.59 C 458.75 1749.74 432.37 1735.63 406.517 1721.07 C 375.042 1703.35 343.775 1685.27 311.402 1669.22 z"/>
<path transform="translate(0,0)" fill="rgb(254,254,254)" d="M 630.218 632.943 C 647.15 647.809 664.159 663.311 681.961 677.121 C 700.474 666.965 718.035 654.545 735.665 642.943 C 727.646 661.988 717.778 680.761 711.693 700.532 C 727.151 713.652 743.925 725.113 759.291 738.356 C 738.847 737.934 718.461 736.84 698.035 735.974 C 691.822 754.907 685.893 774 678.722 792.596 C 671.525 773.171 666.894 753.053 660.119 733.559 A 1928.41 1928.41 0 0 0 617.703 731.934 L 593.583 730.491 A 2838.14 2838.14 0 0 0 633.077 706.135 L 649.674 696.883 C 645.404 675.439 636.809 653.879 630.218 632.943 z"/>
<path transform="translate(0,0)" fill="rgb(254,254,254)" d="M 1419.02 624.475 C 1415.41 642.023 1411.15 659.149 1406.36 676.411 C 1407.29 677.811 1407.04 678.674 1407.1 680.319 L 1408.3 679.498 L 1408.82 677.772 L 1410.53 677.081 C 1409.07 683.041 1407.5 688.989 1406.13 694.97 C 1410.7 696.763 1415.27 698.503 1419.69 700.648 C 1436.72 707.398 1456.29 715.513 1472.26 724.318 C 1468.85 724.42 1466 723.872 1463.13 725.803 L 1463.06 727.237 L 1461.14 728.163 C 1461.85 730.682 1461.97 730.91 1463.94 732.625 A 2341.1 2341.1 0 0 1 1419.64 737.432 C 1411.51 738.227 1402.37 738.346 1394.45 740.277 C 1393.55 736.371 1393.92 736.104 1390.43 733.733 C 1384.27 745.733 1377.72 781.547 1373.89 796.667 C 1365.97 776.668 1359.95 755.746 1353.2 735.314 A 2455.87 2455.87 0 0 1 1290.64 738.281 L 1339.61 700.893 A 1247.52 1247.52 0 0 0 1314.73 645.978 C 1333.28 655.512 1351.74 667.897 1368.97 679.666 C 1386.14 661.782 1402.53 642.993 1419.02 624.475 z"/>
<path transform="translate(0,0)" fill="rgb(82,81,83)" d="M 1406.36 676.411 C 1407.29 677.811 1407.04 678.674 1407.1 680.319 L 1408.3 679.498 L 1408.82 677.772 L 1410.53 677.081 C 1409.07 683.041 1407.5 688.989 1406.13 694.97 C 1410.7 696.763 1415.27 698.503 1419.69 700.648 C 1416.41 701.722 1414.6 700.514 1411.54 698.993 C 1408.81 697.634 1408.46 697.35 1405.31 697.482 C 1409.42 700.121 1415.1 701.055 1418.65 704.331 L 1418.77 705.552 C 1412.36 703.717 1406.18 700.312 1400.15 697.46 C 1401.94 690.305 1403.92 683.369 1406.36 676.411 z"/>
<path transform="translate(0,0)" fill="rgb(69,45,47)" d="M 1418.77 705.552 L 1418.65 704.331 C 1415.1 701.055 1409.42 700.121 1405.31 697.482 C 1408.46 697.35 1408.81 697.634 1411.54 698.993 C 1414.6 700.514 1416.41 701.722 1419.69 700.648 C 1436.72 707.398 1456.29 715.513 1472.26 724.318 C 1468.85 724.42 1466 723.872 1463.13 725.803 C 1448.56 720.662 1432.33 712.987 1418.77 705.552 z"/>
<path transform="translate(0,0)" fill="rgb(69,45,47)" d="M 1390.43 733.733 C 1406.3 735.736 1443.53 729.851 1461.14 728.163 C 1461.85 730.682 1461.97 730.91 1463.94 732.625 A 2341.1 2341.1 0 0 1 1419.64 737.432 C 1411.51 738.227 1402.37 738.346 1394.45 740.277 C 1393.55 736.371 1393.92 736.104 1390.43 733.733 z"/>
<path transform="translate(0,0)" fill="rgb(183,51,54)" d="M 536.133 583.699 C 564.479 604.41 599.977 632.303 629.652 649.706 A 392.35 392.35 0 0 1 644.329 695.248 C 640.548 699.318 636.659 702.19 632.083 705.276 L 633.077 706.135 A 2838.14 2838.14 0 0 1 593.583 730.491 L 617.703 731.934 L 617.519 735.08 C 630.206 735.412 643.47 735.1 656.024 737.034 C 656.382 740.264 656.887 743.557 656.984 746.802 C 647.632 773.744 640.445 800.945 629.63 827.457 C 630.035 810.444 629.401 793.438 629.085 776.428 C 606.983 790.861 584.459 804.872 562.893 820.09 C 574.273 796.258 589.991 772.627 597.831 747.444 C 568.029 738.949 537.682 732.371 508.004 723.429 C 534.163 706.568 562.633 691.756 590.142 677.193 C 574.775 644.945 552.71 615.456 536.133 583.699 z"/>
<path transform="translate(0,0)" fill="url(#Gradient2)" d="M 632.083 705.276 L 633.077 706.135 A 2838.14 2838.14 0 0 1 593.583 730.491 L 617.703 731.934 L 617.519 735.08 C 604.319 735.063 591.177 734.982 578.007 735.991 C 594.469 724.313 614.369 715.171 632.083 705.276 z"/>
<path transform="translate(0,0)" fill="rgb(82,81,83)" d="M 704.147 1670.44 C 726.313 1669.95 757.74 1667.08 778.86 1670.49 C 788.433 1672.04 798.029 1676.47 807.235 1679.54 A 776.912 776.912 0 0 0 846.71 1691.33 A 682.997 682.997 0 0 0 1024.99 1714.43 A 699.999 699.999 0 0 0 1204.72 1690.76 C 1223.2 1685.89 1248.98 1674.25 1265.62 1671.56 C 1275.56 1669.96 1286.03 1670.61 1296.06 1670.65 L 1343.43 1670.96 C 1336.23 1674.78 1328.62 1678.04 1321.23 1681.5 C 1276.99 1701.78 1231.56 1718.09 1183.97 1728.49 C 1046.83 1758.45 899.179 1750.25 767.972 1699.09 C 747.15 1690.97 722.97 1682.49 704.147 1670.44 z"/>
<path transform="translate(0,0)" fill="rgb(183,51,54)" d="M 1499.98 1668.91 L 1535.45 1669.03 C 1529.37 1674.61 1523.07 1679.8 1516.62 1684.95 A 813.718 813.718 0 0 1 1045.68 1849.35 A 813.605 813.605 0 0 1 622.439 1745.87 C 584.198 1724.55 545.596 1699.89 513.642 1669.76 L 523.508 1669.54 L 544.768 1669.04 C 653.909 1754.73 792.361 1807.26 929.855 1822.65 A 799.084 799.084 0 0 0 1405.17 1730.34 C 1437.8 1712.49 1470.91 1692.17 1499.98 1668.91 z"/>
<path transform="translate(0,0)" fill="rgb(82,81,83)" d="M 1067.47 1032.3 C 1115.68 1031.33 1164.12 1032.51 1212.36 1032.51 C 1230.38 1032.51 1270.39 1030.51 1285.37 1033.2 C 1287.01 1033.5 1289.59 1033.81 1290.41 1035.38 C 1291.64 1037.76 1291.72 1040.63 1291.78 1043.26 C 1292.87 1096.75 1291.58 1150.56 1291.24 1204.08 C 1291.16 1216.21 1293.34 1251.46 1290.41 1260.24 C 1289.47 1263.07 1287.47 1263.71 1285 1264.99 L 1139.47 1265.03 C 1122.47 1265.07 1078.94 1267.32 1065.29 1263.66 C 1063.45 1263.16 1060.91 1262.3 1060.12 1260.44 C 1057.91 1255.19 1058.63 1064.07 1059.09 1046.61 C 1059.17 1043.46 1059 1039.71 1060.57 1036.89 C 1062.08 1034.17 1064.74 1033.31 1067.47 1032.3 z"/>
<path transform="translate(0,0)" fill="rgb(254,254,254)" d="M 1076.6 1049.16 A 19316.1 19316.1 0 0 0 1274.97 1049.41 L 1275.14 1248.79 L 1076.08 1249.01 L 1076.6 1049.16 z"/>
<path transform="translate(0,0)" fill="rgb(82,81,83)" d="M 202.649 1458.49 A 3602.68 3602.68 0 0 1 268.025 1458.71 L 267.856 1663.38 C 283.729 1671.41 299.139 1680.6 314.728 1689.19 A 8138.16 8138.16 0 0 1 418.216 1746.87 C 442.459 1760.49 471.455 1773.36 493.823 1789.46 C 482.162 1788.32 469.994 1788.85 458.268 1788.85 L 398.489 1788.9 L 221.736 1788.53 L 53.2303 1788.8 C 96.9993 1732.1 143.121 1677.04 187.704 1620.95 A 14569.3 14569.3 0 0 0 57.4407 1459.27 C 105.805 1459.78 154.284 1459.01 202.649 1458.49 z"/>
<path transform="translate(0,0)" fill="rgb(82,81,83)" d="M 1779.16 1458.92 L 1996.13 1458.95 L 1927.31 1542.38 C 1905.19 1568.88 1882.44 1595 1862.16 1622.96 C 1873.97 1640.5 1888.43 1656.75 1901.78 1673.16 L 1962.57 1748.67 C 1973.2 1761.98 1984.25 1775.02 1994.31 1788.76 L 1898.5 1788.63 L 1671.38 1788.54 C 1633.56 1788.55 1595.6 1789.25 1557.8 1788.24 C 1564.86 1781.46 1575.17 1776.68 1583.62 1771.76 C 1602.8 1760.62 1622.25 1750.03 1641.57 1739.15 C 1673.52 1721.15 1705.39 1703.2 1737.62 1685.7 C 1751.18 1678.34 1764.62 1669.56 1778.9 1663.77 L 1779.16 1458.92 z"/>
<path transform="translate(0,0)" fill="rgb(183,51,54)" d="M 994.245 198.5 A 810.51 810.51 0 0 1 1345.46 264.472 A 851.022 851.022 0 0 1 1796.41 732.009 C 1811.51 769.572 1822.53 809.392 1831 848.939 A 849.408 849.408 0 0 1 1781.17 1359.22 C 1782.94 1339.92 1779.18 1319.7 1782.2 1300.75 C 1783.71 1291.24 1787.6 1281.64 1790.38 1272.41 A 1231.74 1231.74 0 0 0 1803.59 1224.94 A 833.094 833.094 0 0 0 1828.3 1043.37 C 1830.01 975.343 1823.53 904.909 1807.39 838.74 C 1798.06 800.519 1784.93 764.382 1769.68 728.185 A 833.778 833.778 0 0 0 1599.65 467.344 A 806.555 806.555 0 0 0 1179.79 235.701 C 1142.48 227.964 1103.9 221.817 1065.75 220.85 A 432.897 432.897 0 0 0 1059.83 220.529 A 797.822 797.822 0 0 0 486.003 429.091 A 810.21 810.21 0 0 0 224.548 1122.21 A 689.417 689.417 0 0 0 246.532 1236.02 A 607.258 607.258 0 0 0 254.741 1264.24 C 257.687 1273.23 261.868 1282.7 263.087 1292.11 C 264.952 1306.51 263.193 1334.38 262.513 1349.78 C 254.744 1323.47 243.401 1298.43 235.024 1272.33 A 790.167 790.167 0 0 1 199.256 1067.02 A 828.982 828.982 0 0 1 424.278 458.673 A 821.367 821.367 0 0 1 994.245 198.5 z"/>
<path transform="translate(0,0)" fill="rgb(82,81,83)" d="M 987.465 302.428 C 1003.93 301.29 1020.82 301.606 1037.32 301.857 A 696.379 696.379 0 0 1 1314.61 363.491 A 733.616 733.616 0 0 1 1699.15 767.468 C 1710.45 796.987 1720.79 827.151 1728.03 857.947 C 1756.33 978.228 1752.31 1117.55 1714.39 1235.31 C 1708.92 1252.32 1703.81 1270.29 1696.53 1286.59 L 1665.8 1286.46 C 1672.87 1265.51 1681.04 1245.05 1687.64 1223.9 A 673.642 673.642 0 0 0 1715.44 1077.95 A 682.675 682.675 0 0 0 1548.47 571.23 A 700.03 700.03 0 0 0 1072.25 332.159 A 692.297 692.297 0 0 0 785.177 372.83 A 701.211 701.211 0 0 0 393.902 736.463 A 707.377 707.377 0 0 0 361.046 1236.06 C 365.788 1251.97 371.787 1267.47 377.5 1283.04 L 344.694 1283.07 C 339.969 1266.33 333.524 1250.06 328.895 1233.26 C 313.025 1175.65 304.136 1118.75 301.347 1059.04 A 721.996 721.996 0 0 1 488.396 539.304 A 717.887 717.887 0 0 1 987.465 302.428 z"/>
<path transform="translate(0,0)" fill="rgb(82,81,83)" d="M 499.111 1684.52 C 509.589 1691.89 519.219 1700.99 529.384 1708.86 C 545.726 1721.52 563.143 1733.23 580.554 1744.35 C 693.665 1816.66 827.999 1857.69 961.504 1867.94 A 841.271 841.271 0 0 0 1463.9 1745.22 C 1493.26 1726.95 1520.81 1708.08 1547.09 1685.6 L 1546.94 1756.79 C 1513.38 1769.01 1525.74 1818.4 1500.77 1839.3 C 1491.08 1847.41 1480.43 1846.36 1468.76 1845.04 C 1455.3 1842.37 1430.02 1836.91 1417.49 1836.9 C 1383.96 1836.86 1379.25 1884.94 1359.03 1904.11 C 1332.33 1929.43 1293.66 1890.56 1263.47 1891.01 C 1239.56 1891.36 1224.32 1928.4 1208.98 1943.65 C 1206.2 1946.4 1203.15 1948.87 1199.62 1950.59 C 1170.86 1964.61 1137.95 1918.72 1109.08 1916.26 C 1079.4 1913.72 1059.38 1960.56 1031.31 1967.7 C 1019.58 1970.69 1009.23 1965.11 1000.41 1957.79 C 985.967 1945.8 973.035 1929.03 956.084 1920.49 C 924.237 1904.45 896.496 1956.1 864.413 1954.55 C 839.528 1953.34 822.641 1919.6 807.047 1903.27 C 774.285 1868.96 742.459 1915.17 707.052 1913.31 C 679.089 1911.83 670.126 1863.27 652.938 1844.75 C 649.576 1841.13 645.373 1838.11 640.527 1836.89 C 618.931 1831.47 582.494 1847.63 557.264 1846.98 C 527.233 1831.12 534.931 1787.8 511.354 1765.99 C 507.315 1764.76 503.026 1764.21 498.87 1763.49 C 498.679 1737.21 498.258 1710.78 499.111 1684.52 z"/>
<path transform="translate(0,0)" fill="rgb(82,81,83)" d="M 754.153 857.398 C 754.241 857.395 754.329 857.39 754.417 857.388 C 872.768 855.388 991.313 857.551 1109.69 857.176 A 6618.07 6618.07 0 0 1 1241.35 857.655 C 1261.34 857.732 1284.2 855.524 1303.75 858.26 A 49.7707 49.7707 0 0 1 1332.65 872.813 C 1338.31 878.554 1344.06 889.13 1345.39 897.28 C 1347.59 910.713 1346.3 925.959 1346.26 939.602 L 1346.15 1012.75 L 1345.89 1286.23 L 1329.8 1286.32 L 1329.84 996.006 L 1293.5 996.003 L 717.921 995.833 L 717.527 1285.2 L 700.969 1285.14 L 701.024 1028.03 L 700.992 949.089 C 700.99 934.302 700.042 918.741 701.881 904.074 C 703.292 892.822 706.583 883.476 714.297 874.798 C 725.031 862.721 738.579 858.419 754.153 857.398 z"/>
<path transform="translate(0,0)" fill="rgb(254,254,254)" d="M 745.83 875.115 C 763.135 874.046 781.085 875.075 798.445 875.107 L 899.004 875.024 L 1259.8 874.713 C 1277.62 874.696 1306.84 870.493 1319.95 884.351 C 1324.14 888.789 1326.8 894.632 1328.15 900.538 C 1332.09 917.779 1329.72 959.235 1329.65 979.048 L 1300.24 979.08 L 717.653 979.884 C 717.697 958.631 712.939 907.231 723.265 890.437 C 728.61 881.745 736.199 877.629 745.83 875.115 z"/>
<path transform="translate(0,0)" fill="rgb(183,51,54)" d="M 871.37 902.346 C 875.748 902.333 880.197 902.453 884.345 904.001 A 25.1133 25.1133 0 0 1 898.59 917.781 A 26.6903 26.6903 0 0 1 898.125 939.474 C 894.391 947.51 887.796 952.268 879.616 955.078 C 873.934 955.399 868.969 954.714 863.922 951.896 A 27.4579 27.4579 0 0 1 850.731 934.262 C 849.012 926.901 850.155 918.773 854.518 912.512 C 858.7 906.51 864.32 903.604 871.37 902.346 z"/>
<path transform="translate(0,0)" fill="rgb(183,51,54)" d="M 788.807 901.283 C 793.692 901.484 798.279 902.336 802.6 904.719 A 25.4041 25.4041 0 0 1 815.131 921.023 A 27.4711 27.4711 0 0 1 811.469 942.852 C 806.669 950.079 800.278 953.133 792.027 954.879 C 787.233 954.257 782.326 953.528 778.053 951.131 C 771.33 947.359 766.311 941.074 764.549 933.532 A 25.7211 25.7211 0 0 1 767.712 913.92 C 772.596 906.186 780.177 902.967 788.807 901.283 z"/>
<path transform="translate(0,0)" fill="rgb(183,51,54)" d="M 955.713 902.296 C 960.8 902.031 965.882 902.776 970.478 905.043 C 976.89 908.205 981.589 913.71 983.598 920.587 A 26.5062 26.5062 0 0 1 981.242 940.967 C 976.824 948.842 970.333 952.715 961.869 955.092 C 955.945 955.275 950.591 954.086 945.468 951.013 C 938.897 947.07 933.954 940.454 932.374 932.919 A 24.7627 24.7627 0 0 1 936.349 913.579 C 941.111 906.786 947.793 903.787 955.713 902.296 z"/>
<path transform="translate(0,0)" fill="rgb(82,81,83)" d="M 1054.15 918.183 C 1131.6 920.631 1209.54 919.023 1287.03 918.887 L 1286.93 936.847 C 1209.46 935.266 1131.62 936.928 1054.11 936.758 L 1054.15 918.183 z"/>
<path transform="translate(0,0)" fill="rgb(82,81,83)" d="M 1019.7 79.075 C 1052.5 77.3978 1073.83 126.38 1102.51 130.202 C 1131.04 134.003 1156.68 93.2646 1186.06 92.4826 C 1213.35 91.7561 1227.88 131.362 1245.98 147.464 C 1271.76 170.39 1307.33 136.249 1335.84 134.814 C 1372.48 132.969 1376.34 185.207 1398.74 204.595 C 1416.65 220.104 1452.48 204.409 1473.85 202.883 C 1497.13 201.22 1505.68 212.444 1513.19 232.968 C 1518.96 248.772 1523.54 270.384 1534.53 283.224 C 1556.08 308.413 1611.88 278.243 1633.99 303.04 C 1654.32 325.845 1638.07 374.849 1662.78 392.29 C 1684.06 407.312 1725.09 396.184 1745.13 414.551 C 1763.18 431.085 1752.51 467.403 1753.13 489.506 C 1753.33 496.45 1754.48 503.638 1758.72 509.35 C 1773.2 528.854 1819.8 526.992 1837.86 544.923 C 1857.02 563.944 1834.82 605.08 1834.86 628.609 C 1834.91 664.815 1885.97 668.769 1906.07 690.51 C 1929.25 715.574 1892.02 755.496 1891.25 782.948 C 1890.47 810.896 1930.92 825.183 1946.66 843.214 C 1973.01 873.392 1918.06 911.063 1917.11 941.849 C 1916.47 962.558 1940.12 979.868 1952.72 993.777 C 1996.94 1042.59 1924.39 1062.19 1917.36 1100.29 C 1911.43 1132.5 1955.34 1154.69 1953.01 1186.52 C 1951.32 1209.75 1922.03 1226.36 1905.72 1240.06 C 1862.93 1275.99 1919.38 1305.89 1915.43 1344.05 C 1911.93 1377.95 1869 1380.79 1847.64 1398.79 C 1834.14 1410.17 1833.82 1427.66 1832.77 1443.91 A 3152.02 3152.02 0 0 0 1779.13 1443.54 C 1779.25 1433.5 1778.16 1422.73 1779.94 1412.84 C 1782.88 1396.55 1796.33 1370.4 1803 1354.45 A 827.797 827.797 0 0 0 1825.73 1292.53 C 1853.68 1205.09 1868.7 1117.24 1868.54 1025.31 A 837.22 837.22 0 0 0 1621.19 426.836 A 848.845 848.845 0 0 0 1020.45 177.069 C 812.378 177.859 597.915 260.968 447.667 405.84 C 381.786 469.364 322.838 544.064 279.007 624.635 A 850.951 850.951 0 0 0 200.85 1223.1 C 211.992 1268.84 227.427 1312.37 244.995 1355.99 C 250.929 1370.73 263.299 1390.07 266.631 1404.56 C 269.421 1416.69 267.584 1431.6 267.352 1444.08 L 208.071 1443.95 C 209.475 1435.47 211.146 1426.84 209.661 1418.25 C 203.297 1381.48 148.373 1385.76 134.711 1353.25 C 125.073 1330.31 146.509 1305.94 154.755 1285.57 C 174.504 1236.8 109.096 1229.89 96.4307 1197.51 C 85.6393 1169.92 117.743 1143.55 127.585 1120.7 C 144.646 1081.09 94.1563 1065.85 82.4944 1034.97 C 69.8957 1001.6 116.015 980.211 127.92 953.925 C 140.643 925.834 104.696 900.201 95.8582 875.849 C 81.6562 836.713 142.347 823.356 154.851 794.73 C 163.253 775.493 145.892 748.842 139.464 730.721 C 137.175 724.269 134.562 714.624 135.515 707.867 C 140.194 674.705 195.68 671.695 210.397 645.742 C 225.106 619.803 191.548 579.973 205.13 553.352 C 213.632 536.69 241.33 531.905 257.88 526.536 C 267.081 523.552 278.11 520.635 285.453 514.052 C 307.593 494.205 284.142 446.945 297.541 422.414 C 309.953 399.689 353.29 406.541 375.316 399.541 C 414.127 387.206 394.584 336.126 410.296 308.513 C 426.523 279.997 474.729 301.128 500.609 293.526 C 528.197 285.421 528.855 237.803 541.578 215.775 C 563.077 178.552 610.547 219.581 642.038 209.585 C 657.467 204.688 664.44 184.523 671.116 171.282 C 676.582 160.439 682.479 146.477 692.182 138.91 C 720.457 116.859 764.903 167.23 793.438 155.431 C 820.235 144.351 827.912 103.146 857.583 94.2309 C 880.191 87.4379 907.349 115.051 926.314 124.75 C 965.052 144.561 987.043 89.6483 1019.7 79.075 z"/>
<path transform="translate(0,0)" fill="rgb(82,81,83)" d="M 282.837 1303.05 L 1761.06 1303.1 C 1761.93 1326.12 1761.62 1349.27 1761.94 1372.31 C 1763.26 1466.07 1761.82 1559.85 1762.03 1653.62 C 1743.64 1654.55 1724.98 1653.91 1706.57 1653.86 A 9194.35 9194.35 0 0 0 1613.97 1653.95 L 1286.32 1655.21 L 282.566 1654.98 L 282.837 1303.05 z"/>
<path transform="translate(0,0)" fill="rgb(254,254,254)" d="M 620.216 1447.22 C 626.049 1447.09 631.226 1447.39 636.98 1448.42 L 636.964 1481.56 C 628.085 1481.51 618.77 1482.81 609.969 1481.67 C 607.596 1479.44 608.302 1475.67 608.149 1472.45 L 606.897 1471.63 C 602.693 1472.63 598.581 1475.12 594.709 1477.03 C 594.585 1495.97 592.649 1517.17 596.528 1535.69 C 600.625 1536.18 604.768 1536.42 608.882 1536.75 L 608.904 1552.23 L 563.75 1552.19 L 552.255 1552.13 L 552.294 1537.57 L 564.415 1534.6 C 566.031 1513.72 564.947 1492.14 564.931 1471.18 C 560.874 1469.69 556.572 1468.7 552.407 1467.55 C 552.067 1462.47 552.024 1457.36 551.869 1452.27 C 566.208 1452.23 579.645 1451.27 593.752 1448.78 L 594.113 1465.23 C 601.847 1457.48 609.419 1450.34 620.216 1447.22 z"/>
<path transform="translate(0,0)" fill="rgb(254,254,254)" d="M 1604.38 1445.17 C 1610.05 1444.89 1617.23 1443.79 1622.18 1446.98 C 1623.45 1451.86 1616.06 1480.64 1613.98 1486.88 C 1607.2 1489.32 1600.47 1473.54 1591.76 1474.08 C 1586.48 1474.41 1581.73 1479.23 1578.11 1482.69 L 1577.03 1483.72 C 1575.47 1500.52 1575.92 1518.62 1577.18 1535.44 C 1581.86 1539.73 1590.44 1542.6 1592.09 1548.9 L 1590.8 1550.82 C 1581.31 1555.63 1551.22 1552.82 1539.75 1552.67 C 1536.72 1552.71 1534.02 1553.1 1531.43 1551.26 C 1529.03 1545.12 1543.5 1542.39 1545.62 1526.95 C 1547.29 1514.82 1547.15 1485.31 1544.29 1473.66 C 1543.67 1471.16 1542 1469.16 1540.45 1467.17 C 1538.49 1464.63 1535.66 1461.7 1534.51 1458.7 C 1533.72 1456.67 1534.06 1456.13 1534.81 1454.23 C 1545.52 1448.13 1565.8 1446.82 1578.09 1445.6 C 1578.05 1455.2 1577.54 1464.59 1576.73 1474.15 C 1584.16 1460.9 1589.56 1450.85 1604.38 1445.17 z"/>
<path transform="translate(0,0)" fill="rgb(254,254,254)" d="M 1285.73 1416.39 C 1287.67 1416.07 1288.79 1415.96 1290.68 1416.56 C 1294.61 1423.32 1292.01 1441.48 1291.8 1449.94 L 1320.69 1450 C 1320.87 1456.03 1320.78 1462.09 1320.81 1468.13 L 1291.55 1468.03 C 1291.49 1484.03 1290.36 1500.69 1291.58 1516.6 C 1291.94 1521.29 1292.73 1528.97 1297.01 1531.89 C 1303.34 1536.22 1313.78 1533.32 1320.71 1532.07 C 1320.75 1536.88 1322.4 1543.34 1320.86 1547.94 C 1319.99 1550.55 1317.93 1550.57 1315.61 1551.35 C 1308.78 1552.53 1301.93 1553.68 1294.99 1553.82 C 1286.23 1553.99 1277.09 1552.04 1270.76 1545.6 C 1257.67 1532.28 1261.9 1487.33 1261.98 1467.93 L 1246.98 1467.93 L 1246.89 1450.95 L 1259.68 1449.97 C 1263.81 1439.36 1268.14 1428.53 1273.49 1418.47 C 1277.5 1417.48 1281.65 1417 1285.73 1416.39 z"/>
<path transform="translate(0,0)" fill="rgb(254,254,254)" d="M 1359.66 1417.35 C 1365.72 1416.97 1371.89 1417.09 1377.97 1417 L 1377.94 1450 L 1407.97 1449.99 L 1407.96 1468.39 L 1377.23 1468.49 C 1377.15 1480.41 1374.33 1524.42 1381.86 1531.78 C 1387.29 1537.09 1401.57 1534.35 1408.56 1533.74 C 1409.26 1539.16 1410.67 1544.46 1410.76 1549.95 C 1401.94 1552.04 1393.16 1554.24 1384.08 1554.65 C 1374.65 1555.07 1363.97 1553.97 1356.92 1547.04 C 1344.13 1534.47 1348.1 1486.05 1348.07 1468.02 L 1330.74 1467.81 L 1330.7 1453.24 C 1334.13 1452.76 1338.25 1452.49 1341.37 1450.92 C 1352 1445.58 1356.02 1427.84 1359.66 1417.35 z"/>
<path transform="translate(0,0)" fill="rgb(254,254,254)" d="M 1468.74 1447.35 C 1471.29 1447.17 1473.93 1446.95 1476.49 1447.02 C 1487.26 1447.33 1497.41 1450.91 1504.9 1458.87 C 1517.09 1471.82 1517.32 1488.3 1516.92 1504.91 C 1499.24 1505.58 1467.76 1502.77 1451.96 1505.52 C 1450.84 1507.39 1450.98 1508.91 1451.3 1510.99 C 1452.51 1518.92 1455.73 1525.47 1462.55 1529.97 C 1475.8 1538.7 1494.87 1535.08 1509.26 1531.74 C 1510.31 1536.49 1510.12 1541.78 1510.32 1546.64 C 1504.4 1548.97 1498.62 1551.06 1492.35 1552.28 C 1474.99 1555.64 1454.55 1555.35 1439.61 1544.69 C 1429.94 1537.79 1423.81 1527.19 1421.85 1515.54 C 1419.13 1499.47 1422.56 1479.27 1432.55 1466.22 C 1441.78 1454.17 1454.24 1449.35 1468.74 1447.35 z"/>
<path transform="translate(0,0)" fill="rgb(82,81,83)" d="M 1472.44 1461.23 C 1475.5 1461.78 1478.2 1462.38 1480.63 1464.44 C 1487.83 1470.55 1487.46 1481.69 1487.86 1490.31 C 1481.67 1490.47 1475.44 1490.28 1469.25 1490.23 L 1450.29 1489.96 C 1451.56 1483.99 1452.77 1477.65 1455.88 1472.33 C 1459.75 1465.72 1465.19 1462.92 1472.44 1461.23 z"/>
<path transform="translate(0,0)" fill="rgb(254,254,254)" d="M 1183.58 1448.38 A 90.7466 90.7466 0 0 1 1188 1448.29 C 1200.31 1448.39 1212.77 1451.37 1221.39 1460.76 C 1232.73 1473.12 1232.46 1488.81 1231.93 1504.43 C 1209.77 1505.52 1187.19 1504.76 1164.97 1504.78 A 212.483 212.483 0 0 0 1166.67 1511.88 C 1168.77 1519.9 1173.24 1527.14 1180.69 1531.18 C 1194.78 1538.84 1212.45 1533.66 1226.72 1529.33 L 1227.09 1547.27 C 1219.79 1549.81 1212.62 1552.11 1204.96 1553.37 C 1188.09 1556.16 1168.94 1555.1 1154.82 1544.47 C 1143.56 1535.99 1137.66 1522.85 1136.13 1509.12 C 1134.41 1493.81 1137.53 1478.32 1147.5 1466.18 C 1156.99 1454.63 1169.07 1449.74 1183.58 1448.38 z"/>
<path transform="translate(0,0)" fill="rgb(82,81,83)" d="M 1179.97 1464.18 C 1184.63 1463.71 1188.71 1463.09 1192.87 1465.66 C 1197.78 1468.69 1202.62 1474.99 1203.73 1480.73 C 1204.4 1484.2 1203.5 1486.13 1201.7 1488.9 C 1198.97 1490.61 1194.45 1490 1191.25 1489.97 L 1165.14 1489.9 A 106.882 106.882 0 0 1 1167.18 1481.22 C 1169.5 1473 1172.44 1468.35 1179.97 1464.18 z"/>
<path transform="translate(0,0)" fill="rgb(254,254,254)" d="M 688.458 1447.23 A 214.74 214.74 0 0 1 695.382 1446.95 C 707.217 1446.7 719.409 1449.84 727.995 1458.38 C 740.444 1470.78 740.305 1487.33 740.082 1503.61 A 5062.7 5062.7 0 0 1 673.605 1504.02 C 673.938 1507.7 674.457 1511.47 675.35 1515.04 A 23.825 23.825 0 0 0 686.223 1529.64 C 699.672 1537.5 722.02 1532.19 736.077 1528.3 C 738.043 1530.57 737.092 1542.81 737.068 1546.09 C 733.16 1547.58 729.212 1549.13 725.186 1550.28 C 707.236 1555.38 682.465 1556.01 666.02 1546.29 C 655.036 1539.81 648.094 1528.95 645.421 1516.61 C 641.924 1500.46 644.839 1481.53 654.281 1467.81 C 662.594 1455.74 674.46 1449.94 688.458 1447.23 z"/>
<path transform="translate(0,0)" fill="rgb(82,81,83)" d="M 694.489 1463.28 C 697.368 1463.51 700.867 1464 703.331 1465.59 C 707.441 1468.24 713.813 1476.57 714.349 1481.56 C 714.624 1484.12 713.901 1484.77 712.549 1486.82 C 708.707 1489.13 699.881 1488 695.25 1487.94 L 673.984 1487.97 C 674.995 1482.48 676.292 1476.37 679.484 1471.71 C 683.274 1466.16 688.159 1464.51 694.489 1463.28 z"/>
<path transform="translate(0,0)" fill="rgb(254,254,254)" d="M 826.028 1448.18 C 835.998 1447.59 845.51 1447.59 853.386 1454.77 C 869.338 1469.32 863.499 1513.32 864.685 1534.25 C 868.38 1535.14 872.028 1536.26 875.68 1537.31 C 876.006 1542.18 876.031 1547.14 876.198 1552.02 A 4736.77 4736.77 0 0 1 824.983 1552.26 C 826.362 1528.76 827.143 1541.37 833.555 1534.97 C 834.801 1522.05 837.113 1483.61 829.252 1474.45 C 827.13 1471.97 824.134 1470.44 820.857 1470.37 C 814.116 1470.21 805.706 1476.1 800.997 1480.48 L 800.839 1493.07 C 800.698 1504.46 798.421 1523.89 801.653 1534.51 C 804.298 1536.53 808.296 1536.22 811.533 1536.38 L 811.362 1552.15 L 757.834 1551.95 L 757.413 1537.35 C 761.668 1537.05 765.827 1536.27 770.025 1535.55 C 770.877 1526.15 772.777 1478.48 768.78 1472.63 C 765.376 1469.96 761.227 1469.63 757.077 1468.86 L 757.05 1453.14 C 770.302 1452.85 783.862 1450.63 797.045 1449.12 L 797.105 1464.51 C 806.278 1456.54 813.874 1450.86 826.028 1448.18 z"/>
<path transform="translate(0,0)" fill="rgb(254,254,254)" d="M 409.846 1402.07 C 452.711 1401.21 495.788 1402.05 538.672 1402.1 L 539.058 1444.08 L 524.122 1444.31 C 522.567 1437.99 521.136 1426.02 515.837 1421.64 C 509.8 1416.64 498.587 1418.21 491.109 1418.27 C 491.08 1438.39 488.676 1521.17 493.022 1534.62 C 496.952 1536.15 501.482 1536.51 505.639 1537.18 L 505.749 1552.26 L 442.246 1552.1 L 442.235 1536.38 C 443.323 1536.27 444.41 1536.14 445.499 1536.04 C 448.801 1535.74 453.052 1535.83 455.766 1533.6 C 456.212 1533.24 457.585 1531.67 457.879 1531.01 C 459.958 1526.37 458.56 1432.55 458.421 1418.97 C 451.391 1419.07 439.067 1416.8 433.113 1420.98 C 427.397 1425 426.818 1437.39 425.729 1443.9 L 409.38 1443.97 C 409.145 1430.03 409.645 1416.02 409.846 1402.07 z"/>
<path transform="translate(0,0)" fill="rgb(254,254,254)" d="M 1066.73 1403.42 C 1081.88 1401.57 1099.23 1405.45 1113.63 1409.84 A 1356.94 1356.94 0 0 1 1115.1 1446.23 C 1110.65 1446.78 1106.16 1447.03 1101.69 1447.39 A 95.2135 95.2135 0 0 0 1099.47 1440.48 C 1096.68 1433.05 1091.45 1427.26 1084.05 1424.17 C 1075.99 1420.81 1064.51 1420.14 1056.49 1423.97 C 1052.79 1425.74 1049.95 1428.61 1048.61 1432.52 C 1046.58 1438.44 1049.06 1444.04 1051.78 1449.26 C 1067.62 1460.69 1088.22 1463.45 1103.77 1475.37 C 1112.58 1482.12 1118.86 1490.89 1120.18 1502.12 C 1121.53 1513.68 1118.08 1528.32 1110.44 1537.33 C 1098.7 1551.18 1080.13 1552.69 1063.33 1553.7 C 1046.72 1553.59 1031.44 1551.72 1015.81 1546.03 C 1015.05 1532.66 1015.15 1519.27 1015.13 1505.89 L 1029.04 1506.08 C 1031.49 1515.13 1035.38 1522.98 1039.99 1531.11 C 1048.72 1534.68 1058.01 1536.97 1067.52 1536.01 C 1073.94 1535.37 1080.55 1532.57 1084.54 1527.29 C 1087.78 1522.99 1088.5 1517.76 1087.49 1512.54 C 1083.96 1494.37 1048.55 1486.04 1034.14 1475.35 C 1026.07 1469.37 1020.33 1461.65 1019.12 1451.48 C 1017.95 1441.65 1020.43 1427.55 1026.78 1419.61 C 1036.19 1407.85 1052.61 1404.84 1066.73 1403.42 z"/>
<path transform="translate(0,0)" fill="rgb(254,254,254)" d="M 968.13 1394.58 C 975.347 1393.89 982.694 1393.75 989.939 1393.38 L 990.134 1531.43 C 994.627 1532.83 999.432 1533.49 1004.06 1534.35 L 1004.05 1550.99 C 989.685 1550.71 975.601 1552.78 961.269 1552.99 C 960.672 1549.17 960.275 1545.31 959.786 1541.48 C 955.047 1545.59 950.183 1549.48 944.381 1552.02 C 934.062 1556.52 924.556 1555.31 914.291 1551.42 C 905.266 1546.65 898.431 1539.57 894.246 1530.21 C 887.232 1514.52 887.592 1494.22 894.012 1478.41 C 899.032 1466.06 907.988 1456.31 920.507 1451.38 C 934.001 1446.06 946.994 1447.45 959.899 1453.33 L 959.733 1414.17 C 953.763 1413.03 947.556 1412.51 941.514 1411.78 L 941.538 1396.17 A 727.577 727.577 0 0 0 968.13 1394.58 z"/>
<path transform="translate(0,0)" fill="rgb(82,81,83)" d="M 934.958 1467.24 C 942.83 1466.56 951.629 1465.72 958.385 1470.5 C 961.827 1476.01 959.843 1518.44 959.783 1527.62 C 954.727 1530.14 949.865 1532.05 944.483 1533.73 C 942.02 1533.86 939.247 1533.99 936.846 1533.39 C 931.32 1532 926.916 1526.93 924.465 1522.03 C 918.791 1510.68 918.602 1492.47 922.792 1480.58 C 925.288 1473.49 928.25 1470.42 934.958 1467.24 z"/>
</svg>