<svg version="1.1" xmlns="http://www.w3.org/2000/svg" style="display: block;" viewBox="0 0 2048 2048" width="1024" height="1024">
<path transform="translate(0,0)" fill="rgb(254,254,254)" d="M 0 0 L 2048 0 L 2048 2048 L 0 2048 L 0 0 z"/>
<path transform="translate(0,0)" fill="rgb(129,63,66)" d="M 1089.71 54.1966 C 1118.79 53.5681 1131.8 95.531 1161.83 102.134 C 1180.26 96.8076 1208.38 74.7306 1225.7 74.668 C 1247.63 74.5887 1262.31 110.636 1276.4 124.401 C 1297.96 145.449 1332.36 113.458 1357.34 114.363 C 1384.78 115.358 1389.23 159.338 1405.62 174.794 C 1421.64 189.893 1455.61 173.156 1475.03 173.442 C 1510.51 173.966 1504.14 223.941 1523.92 242.725 C 1533.91 252.206 1563.66 246.789 1577.14 246.228 C 1636.99 243.738 1606.52 298.317 1630.72 321.234 C 1651.03 340.461 1698.54 318.524 1710.58 349.808 C 1717.3 367.278 1711.18 403.295 1723.68 416.072 C 1738.28 431.01 1777.02 425.126 1793.15 440.934 C 1807.28 454.786 1799.18 486.909 1799.66 504.937 C 1799.79 510.13 1800.26 516.23 1803.09 520.726 C 1812.41 535.592 1853.03 538.042 1867.36 552.637 C 1881.03 566.549 1864.83 613.011 1865.14 633.115 L 1865.17 634.657 C 1878.55 658.857 1919.68 660.74 1930.14 681.838 C 1937.18 696.03 1928.17 715.411 1923.78 729.448 C 1909.84 773.931 1922.14 771.962 1955.55 796.199 C 1960.98 800.145 1966.7 804.535 1969.7 810.718 C 1979.96 831.861 1955.28 858.491 1948.35 877.672 C 1946.83 881.876 1945.62 886.753 1946.52 891.231 C 1950.03 908.765 1983.53 926.221 1991.83 944.77 C 2004.04 972.053 1967.14 994.287 1958.78 1017.1 C 1950.94 1038.51 1982.74 1061.92 1990.57 1080.54 C 2004.45 1113.52 1955.68 1131.51 1944.89 1157.61 C 1944.72 1158.01 1944.56 1158.42 1944.4 1158.83 C 1948.3 1181.94 1972.01 1206.64 1971.11 1227.52 C 1970.17 1249.22 1938.11 1263.46 1923.69 1277.01 C 1899.7 1299.55 1933.93 1332.33 1931.94 1359.15 C 1930 1385.27 1890.08 1389.51 1873.95 1404.68 C 1858.35 1419.35 1874.52 1458.18 1873.74 1477.65 C 1872.37 1512.27 1824.61 1503.73 1806.98 1521.73 C 1796.07 1532.87 1801.92 1564.29 1802.16 1578.87 C 1803.08 1634.96 1745.2 1610.09 1725.54 1633.44 C 1708.65 1653.48 1729.22 1702.29 1697.73 1714.54 C 1678.91 1721.86 1648.12 1711.54 1633.11 1725.71 C 1616.29 1741.59 1624.64 1780.22 1607.62 1796.52 C 1592.51 1810.99 1562.39 1800.27 1543.73 1800.25 C 1510.03 1800.21 1514.1 1850.02 1494.64 1868.42 C 1477.38 1884.74 1438.82 1866.96 1416.37 1866.33 C 1392.02 1877.46 1391.94 1913.93 1369.74 1927.59 C 1348.57 1940.61 1323.05 1919.27 1302.38 1914.57 C 1270.67 1907.37 1261.67 1955.1 1238.89 1968.85 C 1214.85 1983.36 1188.11 1951.49 1165.6 1945.92 C 1141.9 1940.06 1123.45 1979.94 1104.36 1990.47 C 1079.61 2004.11 1048.1 1963.13 1022.54 1955.19 C 997.801 1963.66 979.595 1993.16 952.975 1993.44 C 930.615 1987.63 920.276 1964.99 902.871 1951.87 C 877.668 1932.86 851.091 1967.58 825.389 1970.67 C 796.959 1974.09 785.952 1934.02 767.272 1919.33 C 749.174 1905.1 715.886 1929.58 695.677 1931.97 C 661.76 1935.97 660.066 1885.75 638.801 1870.64 C 626.439 1861.86 604.286 1870.03 590.419 1872.69 C 581.795 1874.33 572.11 1876.65 563.39 1874.54 C 537.079 1868.16 539.583 1817.24 516.555 1801.86 L 515.496 1801.17 C 495.309 1799.68 471.577 1806.59 452.445 1802.25 C 423.338 1795.64 433.237 1749.43 419.557 1729.21 C 407.628 1711.58 373.692 1719.26 355.058 1714.94 C 318.972 1706.56 341.538 1657.59 326.265 1634.81 C 317.595 1621.88 291.152 1620.35 276.895 1617.55 C 269.745 1616.14 261.461 1614.92 255.381 1610.64 C 233.697 1595.38 257.372 1550.01 244.903 1528.48 C 233.435 1508.67 188.082 1512 175.188 1491.28 C 168.043 1479.8 175.399 1458.76 177.947 1446.47 C 180.03 1436.42 182.965 1424.11 180.34 1413.97 C 174.425 1391.13 130.29 1389.71 118.307 1370.01 C 107.333 1351.97 126.869 1321.19 131.392 1302.53 C 132.73 1297.01 133.571 1290.68 131.576 1285.2 C 125.48 1268.46 89.698 1257.95 79.2498 1239.86 C 66.9106 1218.49 93.6406 1188.54 99.2978 1167.87 C 106.707 1140.79 70.2917 1128.27 58.829 1107.76 C 40.8532 1075.61 83.5613 1056.32 90.197 1029.92 C 94.6767 1012.09 67.1941 987.324 58.1669 972.361 C 35.9497 935.536 95.6976 918.281 102.903 887.344 L 103.217 885.94 C 98.6102 865.402 81.6635 850.243 77.3704 830.078 C 69.8677 794.836 114.994 788.922 129.318 766.211 C 140.753 748.082 117.938 721.368 114.249 702.701 C 106.135 661.64 163.539 662.206 178.742 638.642 C 186.849 626.076 177.756 602.994 174.714 589.562 A 114.548 114.548 0 0 1 172.541 577.385 C 167.626 534.235 223.348 545.561 242.833 523.403 C 258.671 505.393 236.745 465.897 251.638 443.62 C 261.079 429.499 291.884 428.868 307.621 425.351 C 346.666 416.625 321.472 368.951 338.077 344.276 C 350.639 325.611 385.456 333.016 404.874 329.282 C 436.406 323.218 425.014 277.839 439.701 256.64 C 455.178 234.3 491.313 252.127 513.248 247.294 C 537.578 241.934 536.863 200.253 549.62 182.186 C 568.626 155.269 606.998 186.139 632.054 180.61 C 650.693 176.497 659.256 144.928 668.807 130.326 C 670.517 127.713 672.38 125.238 674.598 123.031 C 697.917 99.823 730.966 136.527 757.092 133.669 C 780.233 131.138 789.822 88.9481 811.306 78.898 C 821.478 74.1396 832.344 77.7085 841.67 82.6365 C 854.331 89.3269 869.729 100.33 883.945 102.853 C 910.274 107.524 925.347 59.6163 951.456 54.9959 C 970.811 51.5706 991.472 74.0803 1006.56 84.3391 C 1012 88.0389 1018.56 91.5018 1025.35 90.9427 C 1044.08 89.4004 1066.47 58.6735 1089.71 54.1966 z"/>
<path transform="translate(0,0)" fill="rgb(254,254,254)" d="M 1000.08 139.434 A 880.21 880.21 0 0 1 1616.92 372.275 A 884.49 884.49 0 0 1 1906.9 993.784 A 876.717 876.717 0 0 1 1677.31 1614.76 C 1509.22 1797.05 1294.64 1897.29 1046.75 1907.14 A 288.875 288.875 0 0 1 1040.04 1907.48 C 997.74 1909.26 955.178 1905.08 913.285 1899.49 A 890.45 890.45 0 0 1 418.619 1665.91 A 882.52 882.52 0 0 1 141.287 1062.22 A 876.681 876.681 0 0 1 375.06 426.982 A 884.269 884.269 0 0 1 1000.08 139.434 z"/>
<path transform="translate(0,0)" fill="rgb(129,63,66)" d="M 1012.14 165.475 A 151.444 151.444 0 0 1 1014.58 165.413 C 1246.9 161.877 1460.11 253.364 1625.65 414.506 A 865.437 865.437 0 0 1 1883.47 1011.43 A 851.741 851.741 0 0 1 1639.65 1618.96 C 1479.55 1782.85 1268.63 1879.25 1038.31 1881.97 C 806.611 1882.74 597.854 1801.93 429.312 1642.38 A 850.622 850.622 0 0 1 165.907 1050.47 A 852.207 852.207 0 0 1 400.65 435.829 A 857.132 857.132 0 0 1 923.895 170.883 C 953.263 167.417 982.61 166.21 1012.14 165.475 z"/>
<path transform="translate(0,0)" fill="rgb(254,254,254)" d="M 988.696 196.58 A 169.381 169.381 0 0 1 992.051 196.347 C 1199.4 184.842 1415.72 264.782 1569.6 403.167 A 859.634 859.634 0 0 1 1776.31 681.044 C 1789.37 708.318 1801.78 735.714 1811.6 764.357 C 1834.81 832.056 1848.48 905.912 1852.14 977.352 A 817.906 817.906 0 0 1 1639.4 1575.3 A 824.703 824.703 0 0 1 1060.25 1851.96 L 1051.72 1852.33 A 831.533 831.533 0 0 1 461.93 1632.79 A 823.285 823.285 0 0 1 196.678 1057.55 A 819.009 819.009 0 0 1 347.594 548.097 C 373.076 512.322 401.79 479.81 431.541 447.576 C 461.303 415.329 496.052 386.312 531.218 360.188 A 815.266 815.266 0 0 1 988.696 196.58 z"/>
<path transform="translate(0,0)" fill="rgb(59,55,56)" d="M 1079.09 1609.3 C 1087.06 1608.62 1095.43 1609.48 1103.44 1609.64 C 1115.54 1609.87 1127.58 1609.57 1139.68 1610.07 L 1140.2 1611.36 C 1138.32 1615.01 1131.79 1618.38 1128.73 1621.64 C 1125.15 1631.95 1126.57 1719.23 1127.76 1735.24 C 1129.36 1756.82 1137.69 1745.69 1146.08 1752.97 L 1146.34 1757.08 C 1138.89 1757.69 1131.21 1756.97 1123.72 1756.87 L 1082.14 1756.66 L 1081.29 1755.75 C 1083.02 1750.95 1089.72 1750.73 1092.01 1746.56 C 1093.88 1743.18 1094.42 1737.51 1094.69 1733.72 C 1095.77 1718.26 1096.47 1631.98 1093.34 1622.44 C 1092.1 1618.67 1088.93 1616.99 1085.59 1615.44 C 1084.17 1614.78 1082.73 1614.21 1081.41 1613.35 C 1079.34 1612.01 1079.55 1611.63 1079.09 1609.3 z"/>
<path transform="translate(0,0)" fill="rgb(59,55,56)" d="M 949.008 1607.58 C 976.156 1612.63 1043.42 1612.3 1070.21 1607.1 C 1070.7 1615.1 1073.4 1630.25 1070.5 1637.53 C 1069.82 1639.25 1070.23 1638.66 1068.39 1639.45 C 1065.91 1638.3 1065.09 1637.42 1063.67 1635.24 C 1062.68 1633.73 1061.72 1632.08 1060.41 1630.81 C 1053.12 1623.71 1032.75 1625.88 1022.95 1625.94 C 1023.78 1650.31 1023.66 1674.64 1023.62 1699.02 C 1023.6 1713.54 1022.54 1729.3 1024.76 1743.67 C 1028.19 1750.35 1035.64 1750.16 1041.3 1754.38 L 1041.33 1755.69 C 1034.36 1757.94 986.501 1756.28 977.281 1755.57 L 976.942 1753.68 C 979.579 1750.53 984.952 1750.04 988.395 1747.34 C 993.339 1737.63 991.168 1645.1 991.302 1626.06 C 983.839 1626.11 960.917 1623.34 955.869 1627.88 C 951.509 1631.8 947.874 1637.03 942.584 1639.7 L 941.007 1639.02 C 939.195 1630.57 945.653 1615.43 949.008 1607.58 z"/>
<path transform="translate(0,0)" fill="rgb(59,55,56)" d="M 1262.67 1608.55 C 1283.67 1613.14 1367.94 1611.02 1391.52 1608.51 C 1391.16 1617.57 1393.1 1634.77 1388.6 1642.31 L 1387.04 1642.65 C 1383.15 1639.77 1383.89 1634.13 1380.23 1630.55 C 1372.31 1622.79 1351.03 1625.05 1340.51 1625.05 C 1339.69 1661.76 1338.78 1699.29 1340.58 1735.94 C 1340.79 1739.06 1341.12 1742.72 1342.26 1745.65 C 1344.9 1752.49 1351.2 1749.75 1356.36 1752.66 C 1357.76 1753.45 1357.29 1753.34 1357.7 1755.19 L 1356.45 1756.22 C 1349.57 1757 1301.34 1757.12 1296.46 1755.73 C 1294.38 1755.14 1295.15 1755.62 1294.02 1753.56 C 1295.85 1751.06 1299.53 1750.13 1302.4 1748.9 C 1304.09 1746.91 1305.05 1745.3 1305.53 1742.7 C 1308.2 1728.3 1307.07 1711.57 1307.06 1696.92 L 1306.95 1625.07 C 1298.14 1624.93 1288.66 1624.34 1279.95 1625.75 C 1273.48 1626.8 1269 1628.3 1265.06 1633.69 C 1262.85 1636.72 1261.58 1638.65 1257.72 1639.46 L 1256.27 1638.05 C 1254.76 1629.65 1260.23 1616.8 1262.67 1608.55 z"/>
<path transform="translate(0,0)" fill="rgb(59,55,56)" d="M 1202.78 1608.33 C 1216.52 1606.55 1228.85 1608.23 1241.8 1612.93 C 1240.98 1618.83 1241.66 1642.22 1241.49 1642.85 C 1240.79 1645.35 1240.01 1645.87 1237.89 1646.93 C 1233.02 1643.77 1230.29 1632.74 1224.5 1627.65 C 1220.34 1623.99 1215.1 1621.55 1209.48 1622.11 C 1203.18 1622.74 1195.6 1626.85 1191.63 1631.78 C 1189.42 1634.54 1188.65 1637.78 1189.02 1641.26 C 1190.68 1657.17 1218.62 1670.24 1230.04 1679.99 C 1239.59 1688.15 1249.07 1698.82 1249.84 1711.97 C 1250.49 1723.03 1244.82 1735.59 1237.54 1743.69 C 1226.04 1756.46 1210.24 1758.67 1194.13 1759.73 C 1180.9 1759.51 1170.68 1758.53 1159.06 1751.75 C 1158.95 1741.52 1158.37 1730.95 1159.3 1720.76 C 1159.6 1717.46 1159.87 1714.08 1162.51 1711.91 L 1163.69 1712.51 C 1165.82 1715.35 1166.46 1717.01 1166.92 1720.5 L 1167.09 1721.86 C 1168.03 1729.02 1172.37 1734.99 1178.15 1739.23 A 30.3996 30.3996 0 0 0 1201.96 1744.44 C 1207.61 1743.28 1212.35 1741.24 1215.31 1736.09 C 1233.05 1705.31 1167.4 1694.26 1160.16 1659.84 C 1157.91 1649.11 1161.2 1635.36 1167.62 1626.42 C 1175.97 1614.79 1189.31 1610.46 1202.78 1608.33 z"/>
<path transform="translate(0,0)" fill="rgb(129,63,66)" d="M 1174.22 1358.99 C 1185.48 1357.94 1197.33 1359.04 1208.69 1359.01 C 1221.47 1358.98 1235.83 1357.47 1248.4 1359.22 C 1250.43 1361.1 1249.92 1360.96 1250.1 1363.53 C 1248.46 1366.13 1245.82 1366.33 1243.15 1367.38 C 1239.73 1368.74 1237.82 1370.08 1236.4 1373.57 C 1232.06 1384.34 1233.08 1499.98 1234.47 1517.66 C 1234.83 1522.2 1235.49 1526.84 1237.49 1530.98 C 1239.65 1535.48 1242.65 1537.92 1247.32 1539.53 C 1247.66 1539.65 1249.86 1540.37 1250.24 1540.58 C 1252.72 1541.99 1252.78 1542.83 1253.41 1545.37 C 1252.38 1547.74 1252.32 1547.75 1250.05 1548.98 A 4370.75 4370.75 0 0 0 1202.31 1548.78 C 1193.35 1548.77 1183.94 1549.4 1175.06 1548.25 C 1172.33 1547.9 1172.54 1547.81 1170.87 1545.62 C 1171.26 1537.84 1184.38 1539.31 1187.71 1532.08 C 1189.76 1527.64 1190.46 1522.24 1190.79 1517.4 C 1191.93 1501.11 1192.31 1383.46 1189.06 1375.02 C 1186.52 1368.41 1181.1 1369.21 1176.26 1365.8 C 1173.8 1364.06 1174.33 1361.63 1174.22 1358.99 z"/>
<path transform="translate(0,0)" fill="rgb(129,63,66)" d="M 1685.71 713.727 C 1687.94 714.323 1690.02 714.855 1691.79 716.424 C 1698.14 722.024 1706.07 743.923 1711.27 752.403 L 1712.15 753.822 C 1723.2 756.008 1746.46 756.19 1755 762.193 C 1756.96 763.571 1756.98 764.035 1757.43 766.247 C 1753.31 776.95 1735.56 789.315 1727.59 798.621 L 1726.63 799.756 C 1727.7 809.963 1734.74 834.278 1731.82 842.877 C 1730.86 845.707 1730.39 845.802 1727.82 846.839 C 1716.26 846.029 1698.38 833.85 1687.3 828.756 C 1674.34 831.781 1663.59 842.95 1650.75 846.672 C 1648.06 847.45 1646.94 847.55 1644.49 846.242 C 1638.27 836.937 1645.64 811.049 1647.55 799.408 C 1641.51 792.539 1619.33 774.155 1617.72 766.763 C 1617.44 765.506 1617.3 764.336 1618.17 763.307 C 1623.27 757.258 1653.92 755.426 1662.9 753.828 C 1669.07 742.207 1675.02 720.896 1685.71 713.727 z"/>
<path transform="translate(0,0)" fill="rgb(129,63,66)" d="M 354.945 713.844 C 356.956 713.856 359.322 713.758 361.184 714.615 C 368.975 718.201 378.188 744.988 381.97 753.623 C 392.002 755.819 420.932 756.388 427.137 762.356 C 428.21 763.388 429.194 764.427 429.195 765.978 C 429.203 774.248 404.327 793.386 397.539 799.819 C 399.235 809.218 406.598 835.086 403.725 843.04 C 402.991 845.071 401.554 846.374 399.399 846.726 C 391.551 848.007 368.706 833.116 360.891 828.764 C 351.113 828.215 335.236 844.477 324.089 847.381 C 320.969 848.194 318.54 847.969 315.675 846.412 C 309.561 837.17 317.09 810.012 318.993 798.615 C 312.065 791.414 291.163 776.035 288.824 767.504 C 288.121 764.939 288.609 764.557 289.936 762.467 C 300.572 755.875 321.726 756.329 334.613 753.633 C 341.162 740.687 345.375 724.937 354.945 713.844 z"/>
<path transform="translate(0,0)" fill="rgb(129,63,66)" d="M 1159.51 1356.04 C 1162.01 1356.52 1161.94 1356.34 1163.38 1358.41 C 1163.69 1366.67 1161.21 1394.18 1157.88 1401 C 1156.78 1403.26 1155.95 1404.04 1153.62 1404.82 C 1147.07 1402 1152.89 1394.87 1148.12 1390.32 C 1140.77 1383.31 1108.09 1385.15 1097.98 1385.05 L 1097.82 1440.16 C 1107.64 1440.45 1132.89 1442.71 1140.87 1439.1 C 1143.97 1437.7 1147.39 1432.91 1150.03 1430.49 C 1152.65 1430.05 1152.63 1430.06 1154.93 1431.38 C 1155.35 1436.32 1152.78 1483.43 1151.45 1486.92 C 1150.85 1488.52 1150.87 1488.03 1149.01 1488.78 C 1141.71 1486.77 1145.74 1478.39 1140.99 1473.52 C 1132.74 1465.05 1108.68 1467.85 1097.62 1467.91 C 1097.71 1488.83 1097.37 1509.79 1099.69 1530.62 C 1103.89 1539.26 1112.22 1537.49 1117.55 1544.04 C 1118.57 1545.31 1118.19 1545.12 1118.02 1546.97 C 1117.69 1547.12 1117.36 1547.29 1117.01 1547.42 C 1112.16 1549.08 1052.72 1549.5 1045.29 1548.92 C 1042.04 1548.66 1039.5 1548.33 1036.6 1546.81 L 1036.09 1545.04 C 1039.15 1539.97 1046.8 1539.34 1049.88 1534.73 C 1052.43 1530.91 1052.77 1525.86 1053.22 1521.39 C 1056.48 1488.94 1054.93 1455.43 1054.86 1422.82 C 1054.83 1409.95 1056.33 1395.27 1054.59 1382.6 C 1053.35 1373.57 1047.66 1369.81 1040.86 1364.8 C 1040.07 1362.88 1040.08 1362.1 1040.56 1360.09 C 1050.74 1355.2 1134.09 1363.83 1157.96 1356.52 L 1159.51 1356.04 z"/>
<path transform="translate(0,0)" fill="rgb(129,63,66)" d="M 1380.24 1354.96 L 1382.47 1355.53 C 1383.09 1356.54 1383.26 1356.65 1383.53 1357.99 C 1384.58 1363.32 1381.27 1371.99 1380.57 1377.44 C 1379.67 1384.41 1380.16 1391.53 1378.92 1398.47 C 1378.54 1400.62 1377.97 1402.8 1376.35 1404.35 C 1375.26 1405.39 1372.82 1405.1 1371.35 1405.18 C 1367.02 1402.19 1371.99 1395.18 1367.09 1390.72 C 1359.71 1384 1329.87 1385.95 1319.23 1385.96 C 1319.2 1402.61 1319 1419.29 1319.6 1435.93 C 1334.45 1436.03 1350.04 1436.87 1364.74 1434.7 C 1366.8 1432.45 1369.2 1429.3 1372.26 1428.5 C 1373.95 1428.06 1374.43 1428.79 1375.85 1429.57 C 1377.42 1434.89 1371.77 1473.06 1369.89 1480.44 L 1367.77 1481.11 C 1363.11 1478.64 1363.04 1470.03 1359.67 1466.09 C 1355.25 1460.91 1326.97 1463.22 1319.93 1463.29 C 1319.93 1478.26 1319.05 1493.5 1319.88 1508.43 C 1320.07 1511.84 1320.2 1516.52 1322.9 1518.95 C 1335.1 1522.78 1355.74 1523.76 1367.7 1518.65 C 1374.05 1515.94 1378.28 1511.38 1380.84 1505.02 C 1381.72 1502.85 1382.35 1501.32 1383.94 1499.53 C 1386.95 1499.07 1387.83 1499.72 1390.59 1500.87 C 1387.6 1517.56 1385.18 1534.85 1379.74 1550.95 A 493.05 493.05 0 0 0 1350 1549.09 C 1338.11 1548.8 1266.56 1549.64 1263.53 1548.56 C 1260.67 1547.55 1260.74 1546.87 1259.67 1544.23 C 1261.01 1539.39 1268.34 1538.27 1271.24 1533.46 C 1276.07 1525.44 1277.77 1394.45 1274.12 1379.57 C 1271.9 1370.54 1265.76 1367.34 1258.18 1363.08 L 1258.02 1361.37 C 1258.86 1360.69 1259.59 1359.86 1260.54 1359.34 C 1268.41 1354.91 1356.95 1365.17 1379 1355.52 L 1380.24 1354.96 z"/>
<path transform="translate(0,0)" fill="rgb(59,55,56)" d="M 719.147 1606.33 C 721.563 1606.85 722.891 1607.03 724.495 1609.17 C 728.903 1615.07 731.85 1625.71 734.916 1632.71 C 743.052 1651.28 777.979 1737.27 787.536 1745.04 C 792.554 1749.13 799.991 1751.7 806.471 1750.73 C 809.554 1750.27 812.327 1748.85 814.116 1746.23 C 815.836 1743.71 816.11 1739.22 816.317 1736.25 C 817.891 1713.66 816.729 1690.15 816.807 1667.45 C 816.848 1655.5 818.567 1638.94 816.543 1627.5 C 815.307 1620.5 807.542 1616.33 802.347 1612.42 C 810.088 1608.67 875.99 1610.23 886.509 1612.74 C 897.683 1615.41 909.32 1622.78 915.069 1632.81 A 36.8328 36.8328 0 0 1 918.45 1660.95 C 914.385 1675.19 903.892 1682.31 891.627 1688.89 C 906.364 1706.35 918.044 1730.72 936.554 1744.25 C 942.492 1748.59 949.993 1749.41 955.528 1753.39 L 955.445 1755.32 C 950.279 1758.73 937.461 1756.69 931.132 1756.4 C 926.057 1756.22 920.735 1756.19 915.765 1755.08 C 889.616 1749.24 876.393 1720.6 863.336 1699.83 L 848.876 1699.75 C 848.851 1706.89 848.601 1744.47 852.999 1747.86 C 857.059 1750.98 862.528 1749.41 865.996 1753.7 L 865.384 1754.97 C 862.208 1756.48 859.12 1756.81 855.618 1756.94 C 839.666 1757.52 823.537 1756.72 807.558 1756.89 C 788.55 1757.09 766.934 1758.94 748.21 1756.2 C 745.198 1755.76 743.401 1755.62 741.175 1753.58 C 741.963 1750.9 744.773 1749.45 746.921 1747.87 C 743.217 1736.74 739.482 1725.72 735.038 1714.86 A 2872.04 2872.04 0 0 0 693.104 1714.61 C 688.522 1725.77 683.587 1736.55 681.892 1748.59 C 684.547 1749.27 687.571 1749.81 690.014 1751.06 C 691.872 1752.02 691.872 1752.01 692.454 1754.1 C 690.302 1755.7 688.318 1755.97 685.724 1756.3 C 676.374 1757.49 649.097 1759.84 641.718 1754.14 C 642.774 1750.84 649.862 1748.77 652.596 1745.85 C 656.591 1741.57 659.824 1735.55 662.426 1730.33 C 676.112 1702.85 688.829 1674.28 701.305 1646.21 C 707.181 1632.99 712.355 1619.08 719.147 1606.33 z"/>
<path transform="translate(0,0)" fill="rgb(254,254,254)" d="M 714.338 1659.7 C 718.511 1664.02 726.529 1691.54 729.12 1698.94 L 715.35 1698.86 L 698.964 1699.03 A 719.553 719.553 0 0 1 714.338 1659.7 z"/>
<path transform="translate(0,0)" fill="rgb(254,254,254)" d="M 848.28 1623.05 C 856.457 1622.82 864.068 1623.25 871.351 1627.42 C 878.309 1631.41 883.022 1638.04 884.935 1645.79 C 887.778 1657.29 884.866 1668.83 878.815 1678.75 C 877.908 1679.6 877.03 1680.44 876.016 1681.17 C 868.006 1686.92 858.148 1684.82 849.157 1683.32 C 847.026 1663.55 848.175 1642.93 848.28 1623.05 z"/>
<path transform="translate(0,0)" fill="rgb(129,63,66)" d="M 1586.18 923.021 C 1588.45 923.12 1590.98 923.17 1593.15 923.893 C 1602.25 926.935 1621.41 970.46 1627.16 980.932 C 1638.68 982.606 1686 984.077 1692.56 989.087 C 1694.54 990.599 1695.84 992.24 1696.03 994.794 C 1697.01 1008.78 1660.04 1037.07 1649.71 1047.87 C 1651.81 1062.9 1662.58 1101.75 1659.62 1113.66 C 1658.76 1117.12 1656.93 1120.79 1653.44 1122.23 C 1651.27 1123.14 1648.61 1123.01 1646.4 1122.35 C 1632.65 1118.19 1608.68 1101.45 1594.27 1094.3 C 1579.91 1089.44 1550.41 1123.49 1532.77 1122.17 C 1529.46 1121.92 1526.56 1120.41 1524.57 1117.73 C 1521.91 1114.14 1521.35 1109.42 1521.52 1105.07 C 1522.11 1089.54 1528.83 1065.7 1531.28 1049.22 C 1520.22 1037.52 1492.53 1017.53 1487.25 1004.12 C 1485.91 1000.73 1485.13 996.595 1487.07 993.25 C 1491.87 984.987 1538.91 982.42 1550.56 979.796 L 1551.79 979.509 C 1563.49 964.775 1567.99 939.244 1579.42 927.103 C 1581.24 925.175 1583.81 924.09 1586.18 923.021 z"/>
<path transform="translate(0,0)" fill="rgb(129,63,66)" d="M 451.665 921.066 C 454.212 920.87 457.074 920.493 459.586 921.058 C 471.659 923.775 487.366 967.511 494.351 979.721 C 511.37 982.506 542.865 982.017 557.12 988.837 C 560.778 990.588 562.355 992.305 563.589 996.148 C 561.717 1008.45 526.746 1038.65 517.042 1048.36 C 519.67 1061.74 532.069 1107.41 527.694 1117.68 C 526.635 1120.17 525.095 1121.47 522.571 1122.44 C 512.944 1126.12 471.473 1100.27 461.482 1094.94 C 460.196 1094.26 458.768 1093.38 457.249 1093.48 C 446.955 1094.15 416.652 1119.16 401.379 1122.19 C 397.498 1122.95 394.844 1122.61 391.481 1120.36 C 389.923 1118.15 389.062 1116.5 388.826 1113.76 C 387.73 1101.03 396.621 1063.86 399.084 1049.13 C 388.628 1038.5 355.33 1012.22 352.063 1000.12 C 351.247 997.1 351.291 993.922 353.19 991.278 C 358.467 983.928 410.049 981.435 421.734 979.608 C 428.869 965.646 441.061 929.881 451.665 921.066 z"/>
<path transform="translate(0,0)" fill="rgb(129,63,66)" d="M 745.477 1355.06 L 748.545 1354.95 L 749.763 1356.46 C 749.313 1370.07 750.046 1387.53 746.317 1400.52 C 744.694 1401.97 744.619 1401.98 742.447 1402.16 C 738.989 1399.56 738.187 1392.37 735.397 1388.53 C 727.601 1383.23 701.552 1385.35 691.512 1385.45 A 962.268 962.268 0 0 0 690.964 1436.05 C 702.935 1436.29 716.619 1437.77 728.398 1435.5 C 733.076 1434.6 740.041 1429.09 744.132 1429.7 C 746.277 1434.53 742.951 1463.97 741.357 1470.99 C 740.802 1473.44 740.346 1474.82 738.204 1476.23 C 734.084 1474.47 733.554 1469.08 730.227 1466.32 C 721.101 1458.77 701.924 1461.72 690.55 1461.99 C 690.482 1477.87 688.52 1498.57 691.823 1513.79 C 692.445 1516.66 693.416 1518.38 696.06 1519.87 C 705.085 1524.96 723.802 1524.11 733.521 1521.2 C 745.353 1517.65 748.145 1512.26 753.75 1502.24 C 755.31 1499.45 756.327 1497.92 759.432 1497.05 L 761.109 1498.46 C 763.194 1508.74 754.965 1538.53 751.048 1548.9 C 738.03 1549.02 639.59 1549.6 634.816 1547.4 C 633.893 1544.43 645.179 1534.54 645.954 1526.78 C 647.876 1507.52 646.11 1486.88 646.118 1467.45 L 646.058 1416.41 C 646.028 1406.26 646.477 1395.77 645.261 1385.68 C 644.69 1380.95 643.385 1373.08 639.646 1369.67 C 637.823 1368 636.381 1367.41 633.9 1368.02 C 621.445 1371.07 589.193 1446.13 582.966 1459.36 C 572.579 1480.22 563.218 1501.6 552.881 1522.5 C 548.909 1530.53 545.098 1539.84 539.867 1547.1 C 537.791 1549.98 536.421 1550.1 533.143 1550.6 C 526.725 1547.78 523.706 1536.36 521.015 1530.1 A 4860.13 4860.13 0 0 0 476.532 1428.94 C 469.31 1413.1 462.723 1396.14 453.509 1381.4 C 448.134 1372.8 437.676 1370.07 432.774 1362.41 C 434.298 1360.69 434.952 1360.35 437.28 1359.78 C 442.766 1358.43 509.519 1358.54 512.576 1360.42 L 512.971 1362.83 C 511.104 1366.01 505.741 1367.81 502.646 1370.06 C 501 1373.82 502.343 1379.1 503.444 1382.88 C 506.766 1394.3 512.141 1405.67 516.735 1416.64 C 526.185 1439.2 536.205 1462.04 543.084 1485.54 C 556.66 1449.72 579.953 1406.39 588.439 1370.33 C 585.646 1368.8 583.16 1367.24 580.645 1365.28 C 579.526 1362.81 579.411 1362.99 580.333 1360.46 C 589.407 1357.42 603.002 1359.08 612.696 1359.13 C 643.927 1359.3 718.405 1363.35 745.477 1355.06 z"/>
<path transform="translate(0,0)" fill="rgb(129,63,66)" d="M 883.75 1462.96 C 900.236 1487.35 919.633 1523.01 946.123 1537.04 C 949.855 1539.02 954.662 1540.88 958.839 1539.16 C 961.701 1537.98 963.267 1535.85 964.203 1533.02 C 969.24 1517.82 970.858 1384.53 964.332 1372.72 C 962.473 1369.36 960.151 1368.65 956.618 1367.67 C 955.411 1367.33 954.185 1367.06 952.998 1366.65 C 950.48 1365.8 949.744 1365.19 948.602 1362.84 L 949.412 1360.5 C 953.135 1358.65 1014.66 1358.51 1023.53 1358.96 C 1025.65 1360.27 1025.59 1360.1 1026.19 1362.51 C 1024.35 1366.86 1018.74 1369.2 1015.55 1372.64 C 1014.14 1374.15 1012.82 1376.34 1012.32 1378.33 C 1009.15 1390.81 1011.3 1426.11 1011.37 1441.14 C 1011.35 1456.08 1009.54 1526.67 1015.29 1533.37 C 1019.93 1538.78 1028.64 1537.24 1033.01 1542.26 C 1033.36 1544.49 1033.33 1544.78 1032.45 1546.86 C 1017.39 1551.6 985.651 1548.71 968.404 1549.13 C 955.606 1549.44 942.627 1551.12 929.848 1550.56 A 97.1759 97.1759 0 0 1 906.967 1546.77 C 876.893 1538.19 860.627 1503.03 846.726 1477.8 C 840.8 1477.22 834.983 1477.35 829.041 1477.5 C 828.965 1489.65 826.593 1529.76 836.302 1536.72 C 840.797 1539.94 848.036 1538.64 851.364 1543.85 C 851.091 1546.15 850.984 1545.81 849.499 1547.35 C 841.046 1550.09 782.431 1549.62 772.08 1548.08 C 770.526 1546.37 770.488 1546.18 770.172 1543.88 C 771.95 1540.83 777.136 1539.19 780.241 1537.56 C 783.754 1532.51 784.595 1526.82 785.055 1520.8 C 786.963 1495.82 785.869 1470.17 785.844 1445.11 C 785.824 1425.39 786.906 1405.01 785.526 1385.39 C 785.24 1381.32 784.861 1376.22 782.717 1372.66 C 779.362 1367.1 771.276 1369.13 767.524 1364.75 C 767.553 1361.99 768.152 1361.52 769.719 1359.19 C 785.479 1358.91 801.291 1359.33 817.058 1359.27 C 831.421 1359.22 846.247 1358.37 860.496 1360.31 C 877.2 1362.59 895.699 1368.78 905.954 1383.02 C 913.868 1394.01 915.359 1409.01 913.198 1422.13 C 910.121 1440.79 898.334 1452.5 883.75 1462.96 z"/>
<path transform="translate(0,0)" fill="rgb(254,254,254)" d="M 829.181 1384.3 C 838.767 1383.61 847.529 1383.14 856.03 1388.59 C 863.638 1393.47 867.934 1401.28 869.728 1409.98 C 872.546 1423.65 869.703 1437.06 862.289 1448.72 C 858.444 1452.33 854.837 1455.02 849.545 1455.97 C 843.553 1457.06 834.76 1456.75 829.568 1453.3 C 826.183 1444.82 827.839 1395.36 829.181 1384.3 z"/>
<path transform="translate(0,0)" fill="rgb(129,63,66)" d="M 1398.81 1358.21 C 1433.66 1359.03 1469.36 1356.18 1503.99 1360.32 C 1533.39 1363.84 1563.39 1373.44 1582.23 1397.65 C 1597.49 1417.27 1601.46 1443.52 1598.43 1467.69 C 1595.11 1494.19 1582.69 1513.3 1561.87 1529.43 A 90.1871 90.1871 0 0 1 1559.78 1530.78 C 1521.61 1555.18 1482.38 1549.58 1439.49 1548.83 C 1426.49 1548.6 1411.41 1550.67 1398.76 1547.91 L 1397.6 1545.17 C 1399.17 1538.29 1408.34 1540.97 1411.24 1534.3 C 1416.55 1522.1 1418.16 1384.93 1411.57 1371.87 C 1410.47 1369.68 1408.93 1368.88 1406.72 1368.07 L 1400.8 1365.88 C 1398.59 1363.05 1398.98 1361.73 1398.81 1358.21 z"/>
<path transform="translate(0,0)" fill="rgb(254,254,254)" d="M 1459.12 1383.21 C 1485.8 1381.75 1510.74 1382.86 1532.04 1400.88 C 1546.25 1412.9 1554.88 1429.54 1556.2 1448.11 C 1557.74 1469.92 1551.71 1491.12 1537.39 1507.73 C 1525.59 1518.49 1513.32 1523.9 1497.3 1525.08 C 1486.71 1525.85 1470.11 1526.91 1461.66 1519.58 C 1456.21 1507.12 1459.06 1401.97 1459.12 1383.21 z"/>
<path transform="translate(0,0)" fill="rgb(129,63,66)" d="M 357.654 1246.38 L 1250.14 1246.91 L 1553.11 1246.72 C 1598.27 1246.81 1644.02 1245.21 1689.11 1247.02 C 1691.57 1248.78 1693.99 1250.54 1695.78 1253.02 C 1698.02 1256.11 1699.4 1260.15 1698.61 1263.96 C 1697.65 1268.65 1694.53 1271.27 1690.66 1273.67 C 1674.17 1275.4 1656.62 1274.07 1640.02 1274 L 1549.55 1273.96 L 1240.72 1273.99 L 680.771 1273.86 L 466.37 1273.87 C 432.594 1273.86 398.649 1274.7 364.893 1273.96 C 360.276 1273.86 352.95 1273.97 349.148 1271.18 C 346.354 1269.14 344.737 1266.51 344.066 1263.12 C 343.346 1259.48 344.052 1255.44 346.167 1252.37 C 349.137 1248.05 352.71 1247.17 357.654 1246.38 z"/>
<path transform="translate(0,0)" fill="rgb(59,55,56)" d="M 1024.62 305.748 C 1038.64 316.873 1052.47 327.682 1067.85 336.927 C 1166.56 396.276 1314.93 431.711 1427.99 450.372 C 1434.52 606.835 1424.5 840.759 1336.81 973.741 C 1323.78 993.498 1308.39 1012.76 1291.15 1028.98 C 1237.94 1079.01 1171.77 1117.2 1106.34 1148.88 C 1079.82 1161.72 1052.74 1174.47 1023.71 1180.44 C 1006.87 1178.41 989.9 1171.12 974.284 1164.63 C 910.893 1138.31 845.651 1101.77 791.889 1058.95 A 365.608 365.608 0 0 1 738.566 1006.64 C 641.979 889.719 616.611 678.212 617.147 532.299 C 617.244 505.752 617.179 478.792 619.73 452.364 C 730.855 434.675 941.86 382.204 1024.62 305.748 z"/>
<path transform="translate(0,0)" fill="rgb(254,254,254)" d="M 1024.21 308.617 C 1028.67 310.258 1040.35 323.06 1044.84 326.945 C 1059.02 339.206 1075.5 350.483 1091.63 360.023 C 1178.64 411.479 1272.33 447.909 1369.83 473.81 A 769.67 769.67 0 0 1 1371.24 498.841 C 1376.04 610.937 1367.61 725.13 1340.62 834.121 C 1331.67 870.291 1321 906.303 1304.88 940.002 A 360.196 360.196 0 0 1 1242.86 1031.09 C 1198.76 1078.97 1143.03 1116.41 1086.5 1148.03 C 1067.96 1158.4 1043.17 1172.89 1021.77 1173.79 C 970.622 1163.49 878.606 1102.05 838.062 1067.58 C 826.739 1057.95 816.439 1047.3 806.539 1036.23 C 790.072 1017.83 774.732 997.561 762.324 976.199 C 683.899 841.181 663.522 627.092 672.262 472.799 C 769.636 452.203 873.675 411.767 958.633 359.693 C 981.339 345.775 1006.87 328.999 1024.21 308.617 z"/>
<path transform="translate(0,0)" fill="rgb(59,55,56)" d="M 825.5 449.998 L 826.679 450.141 C 819.067 458.611 734.216 495.607 718.26 502.426 A 1570.42 1570.42 0 0 0 711.723 689.228 A 1292.94 1292.94 0 0 0 714.561 745.509 C 715.385 756.548 717.17 768.005 716.818 779.06 C 715.603 777.701 715.006 772.698 714.559 770.73 C 699.75 679.585 691.01 584.694 697.664 492.356 C 741.012 481.37 783.738 465.932 825.5 449.998 z"/>
<path transform="translate(0,0)" fill="rgb(59,55,56)" d="M 1217.79 448.929 C 1230.99 451.89 1244.94 458.104 1257.84 462.469 C 1288.01 472.669 1318.05 482.861 1348.92 490.755 C 1349.31 517.925 1351.24 544.822 1350.88 572.073 A 1075.04 1075.04 0 0 1 1330.67 758.238 C 1329.99 761.884 1329.11 765.597 1328.64 769.271 C 1328.38 771.313 1328.62 771.729 1327.53 773.502 L 1327.99 769.832 L 1327.58 770.428 C 1329.15 750.287 1331.69 730.295 1332.81 710.096 C 1336.46 644.79 1335.17 566.459 1325.12 502.094 C 1307.53 495.128 1290.47 485.709 1273.45 477.363 C 1254.87 468.249 1235.39 459.817 1217.79 448.929 z"/>
<path transform="translate(0,0)" fill="rgb(59,55,56)" d="M 1020.42 710.147 C 1048.39 708.659 1055.33 736.091 1074.56 738.054 C 1083.61 738.977 1077.91 723.82 1084.55 717.62 C 1087.26 717.373 1088.4 717.547 1090.59 719.295 C 1095.35 723.097 1098.95 728.1 1099.52 734.262 C 1100.13 740.786 1097.22 747.089 1092.83 751.775 C 1070.4 775.725 1045.86 729.371 1028.95 732.398 C 1027.18 732.715 1026.03 733.51 1024.99 734.887 C 1017.28 745.101 1025.81 775.981 1027.76 787.809 C 1028.91 796.216 1029.89 804.552 1028.02 812.956 C 1025.71 823.364 1018.91 832.311 1009.9 837.919 C 1001.85 842.926 989.276 846.462 979.906 843.792 C 974.671 842.301 970.506 838.769 968.121 833.879 C 964.692 826.848 964.881 818.42 967.47 811.158 C 970.631 802.292 977.778 794.547 986.373 790.695 C 994.314 787.136 1001.55 786.999 1009.51 790.265 L 1010.7 790.764 C 1007.77 772.832 994.391 739.33 1003.03 722.86 C 1006.76 715.761 1013.01 712.398 1020.42 710.147 z"/>
<path transform="translate(0,0)" fill="rgb(254,254,254)" d="M 993.967 820.25 C 996.612 819.94 999.3 819.43 1001.93 820.041 C 1003.55 820.418 1003.1 820.433 1004.17 822.007 C 1004.08 822.37 1004.02 822.747 1003.88 823.096 C 1002.36 826.906 997.859 829.117 994.433 830.906 C 992.68 831.168 990.434 831.706 988.684 831.543 C 986.037 831.295 985.574 830.831 984.247 828.828 C 984.362 828.398 984.444 827.957 984.592 827.537 C 986.093 823.281 990.18 821.983 993.967 820.25 z"/>
<path transform="translate(0,0)" fill="rgb(59,55,56)" d="M 1129.64 490.044 C 1133.91 489.63 1138.91 489.674 1142.28 492.799 C 1145.53 495.82 1146.92 501.963 1147.97 506.142 C 1152.28 523.359 1155.39 541.091 1159.19 558.456 L 1187.69 688.395 A 6759.04 6759.04 0 0 1 1207.76 778.062 C 1211.25 793.971 1216.6 811.395 1217.05 827.707 C 1217.58 847.474 1206.42 866.616 1193.13 880.474 C 1176.39 897.924 1152.77 911.472 1128.1 911.731 C 1115.7 911.861 1103.25 908.446 1094.41 899.337 C 1086.17 890.85 1081.76 878.249 1082.21 866.463 C 1083.17 841.669 1100.01 818.146 1117.43 801.759 C 1135.14 785.105 1153.54 777.024 1177.94 777.852 C 1175.07 760.623 1170.88 743.438 1167.23 726.355 L 1139.62 600.137 C 1091.65 628.017 1042.36 654.579 993.442 680.743 C 968.458 694.107 942.999 706.73 918.551 721.059 C 913.83 723.814 908.99 726.386 904.203 729.024 C 913.588 779.08 925.441 828.921 936.348 878.677 C 939.743 894.168 949.627 926.699 948.715 941.225 C 947.488 960.783 931.851 980.043 917.49 992.123 C 899.864 1006.95 876.121 1018.57 852.511 1016.21 C 841.283 1015.09 830.188 1010.55 823.076 1001.5 C 815.327 991.643 813.634 978.533 814.906 966.378 C 817.231 944.172 830.747 923.719 847.976 910.05 C 866.892 895.043 885.432 889.568 909.417 892.387 L 881.134 757.461 A 2604.1 2604.1 0 0 1 867.169 686.924 C 865.185 676.41 862.591 665.888 861.148 655.292 C 860.546 650.863 859.427 643.69 861.193 639.57 C 862.924 635.53 865.854 631.441 869.52 628.975 C 879.7 622.126 892.14 616.976 903.05 611.301 C 920.506 602.22 937.751 592.7 955.092 583.399 L 1076.78 518.602 C 1094.44 509.192 1111.78 499.068 1129.64 490.044 z"/>
<path transform="translate(0,0)" fill="rgb(254,254,254)" d="M 1165.69 792.185 C 1171.28 791.85 1176.98 791.983 1182.59 791.932 L 1185.54 802.12 C 1177.82 801.229 1170.36 800.899 1162.6 801.319 C 1155.19 802.358 1148.18 803.999 1140.97 805.984 C 1148.32 799.044 1156.14 795.113 1165.69 792.185 z"/>
<path transform="translate(0,0)" fill="rgb(254,254,254)" d="M 1097.77 871.733 C 1098.89 872.623 1098.41 872.152 1099.41 873.354 C 1103.27 877.978 1107.11 881.936 1112.36 885.004 C 1120.99 890.047 1131.47 889.322 1140.75 886.7 C 1142.75 886.134 1141.73 886.069 1143.72 886.939 L 1142.44 889.765 C 1138.56 892.282 1134.93 894.125 1130.35 895.042 C 1122.69 896.572 1114.35 895.927 1107.86 891.249 C 1101.22 886.47 1098.83 879.537 1097.77 871.733 z"/>
<path transform="translate(0,0)" fill="rgb(254,254,254)" d="M 830.501 978.595 C 841.245 990.48 853.416 995.622 869.534 993.73 C 873.167 993.304 877.807 991.902 881.348 992.916 L 879.148 994.943 C 874.32 997.526 869.429 999.85 864.026 1000.95 C 855.937 1002.6 846.782 1002.21 839.885 997.188 C 833.419 992.483 831.559 986.18 830.501 978.595 z"/>
<path transform="translate(0,0)" fill="rgb(254,254,254)" d="M 1123.62 506.959 C 1126.68 509.971 1127.19 519.952 1127.86 524.268 C 1091 545.779 1053.12 565.625 1015.96 586.615 C 972.797 610.996 929.387 637.058 884.267 657.68 C 882.843 658.312 883.686 658.128 881.684 657.86 C 881.68 656.604 881.608 656.393 882.017 655.002 C 884.598 646.214 896.283 637.862 903.546 632.75 C 933.45 611.703 968.011 595.268 1000.01 577.513 C 1041.48 554.5 1082.27 530.196 1123.62 506.959 z"/>
</svg>